<svg id="Grupo_150039" data-name="Grupo 150039" xmlns="http://www.w3.org/2000/svg" xmlns:xlink="http://www.w3.org/1999/xlink" width="220.527" height="204.536" viewBox="0 0 220.527 204.536">
  <defs>
    <clipPath id="clip-path">
      <rect id="Rectángulo_45446" data-name="Rectángulo 45446" width="220.527" height="204.536" fill="none"/>
    </clipPath>
    <clipPath id="clip-path-3">
      <rect id="Rectángulo_45441" data-name="Rectángulo 45441" width="15.776" height="15.396" fill="none"/>
    </clipPath>
    <clipPath id="clip-path-4">
      <rect id="Rectángulo_45442" data-name="Rectángulo 45442" width="46.54" height="57.412" fill="none"/>
    </clipPath>
    <clipPath id="clip-path-5">
      <rect id="Rectángulo_45443" data-name="Rectángulo 45443" width="17.019" height="16.843" fill="none"/>
    </clipPath>
    <clipPath id="clip-path-6">
      <rect id="Rectángulo_45444" data-name="Rectángulo 45444" width="8.785" height="40.915" fill="none"/>
    </clipPath>
  </defs>
  <g id="Grupo_150038" data-name="Grupo 150038" clip-path="url(#clip-path)">
    <rect id="Rectángulo_45404" data-name="Rectángulo 45404" width="99.83" height="89.313" transform="translate(9.439 0.267)" fill="#fafafa"/>
    <g id="Grupo_150037" data-name="Grupo 150037">
      <g id="Grupo_150036" data-name="Grupo 150036" clip-path="url(#clip-path)">
        <path id="Trazado_215994" data-name="Trazado 215994" d="M110.973,89.58s-.017-.573-.025-1.658-.014-2.7-.026-4.785c-.013-4.194-.033-10.323-.058-18.13-.029-15.6-.068-37.9-.117-64.741l.227.227L11.153.534h-.009L11.41.266c-.011,32.493-.022,63.07-.032,89.314l-.234-.235,72.2.119,20.365.062,5.391.028,1.391.013c.313,0,.479.013.479.013s-.148.009-.453.013l-1.364.014-5.346.027L83.5,89.7l-72.355.118h-.234V89.58c-.01-26.244-.021-56.82-.032-89.314V0h.276l99.821.04h.227V.266c-.048,26.9-.088,49.245-.116,64.884-.025,7.785-.045,13.9-.058,18.079-.012,2.069-.02,3.657-.026,4.742-.008,1.07-.025,1.609-.025,1.609" transform="translate(-1.704)" fill="#e1e1e1"/>
        <path id="Trazado_215995" data-name="Trazado 215995" d="M52.223,19.084c0,.148-5.255.267-11.735.267s-11.736-.12-11.736-.267,5.253-.266,11.736-.266,11.735.12,11.735.266" transform="translate(-4.505 -2.949)" fill="#e1e1e1"/>
        <path id="Trazado_215996" data-name="Trazado 215996" d="M94.762,27.036c0,.148-14.437.266-32.24.266s-32.241-.119-32.241-.266,14.432-.266,32.241-.266,32.24.12,32.24.266" transform="translate(-4.745 -4.195)" fill="#e1e1e1"/>
        <rect id="Rectángulo_45405" data-name="Rectángulo 45405" width="4.206" height="4.206" transform="translate(24.419 34.202)" fill="#e1e1e1"/>
        <rect id="Rectángulo_45406" data-name="Rectángulo 45406" width="4.206" height="4.206" transform="translate(34.771 34.202)" fill="#e1e1e1"/>
        <rect id="Rectángulo_45407" data-name="Rectángulo 45407" width="4.206" height="4.206" transform="translate(45.315 34.011)" fill="#e1e1e1"/>
        <rect id="Rectángulo_45408" data-name="Rectángulo 45408" width="4.206" height="4.206" transform="translate(55.477 34.202)" fill="#e1e1e1"/>
        <rect id="Rectángulo_45409" data-name="Rectángulo 45409" width="4.206" height="4.206" transform="translate(65.829 34.202)" fill="#e1e1e1"/>
        <rect id="Rectángulo_45410" data-name="Rectángulo 45410" width="4.206" height="4.206" transform="translate(76.183 34.202)" fill="#e1e1e1"/>
        <rect id="Rectángulo_45411" data-name="Rectángulo 45411" width="4.206" height="4.206" transform="translate(86.535 34.202)" fill="#ececec"/>
        <rect id="Rectángulo_45412" data-name="Rectángulo 45412" width="4.206" height="4.206" transform="translate(24.419 43.144)" fill="#ececec"/>
        <rect id="Rectángulo_45413" data-name="Rectángulo 45413" width="4.206" height="4.206" transform="translate(34.771 43.144)" fill="#e1e1e1"/>
        <rect id="Rectángulo_45414" data-name="Rectángulo 45414" width="4.206" height="4.206" transform="translate(45.125 43.144)" fill="#ececec"/>
        <rect id="Rectángulo_45415" data-name="Rectángulo 45415" width="4.206" height="4.206" transform="translate(55.477 43.144)" fill="#e1e1e1"/>
        <rect id="Rectángulo_45416" data-name="Rectángulo 45416" width="4.206" height="4.206" transform="translate(65.829 43.144)" fill="#e1e1e1"/>
        <rect id="Rectángulo_45417" data-name="Rectángulo 45417" width="4.206" height="4.206" transform="translate(76.373 42.952)" fill="#e1e1e1"/>
        <rect id="Rectángulo_45418" data-name="Rectángulo 45418" width="4.206" height="4.206" transform="translate(86.535 43.144)" fill="#e1e1e1"/>
        <rect id="Rectángulo_45419" data-name="Rectángulo 45419" width="4.206" height="4.206" transform="translate(24.419 52.084)" fill="#e1e1e1"/>
        <rect id="Rectángulo_45420" data-name="Rectángulo 45420" width="4.206" height="4.206" transform="translate(34.962 51.894)" fill="#e1e1e1"/>
        <rect id="Rectángulo_45421" data-name="Rectángulo 45421" width="4.206" height="4.206" transform="translate(45.125 52.084)" fill="#e1e1e1"/>
        <rect id="Rectángulo_45422" data-name="Rectángulo 45422" width="4.206" height="4.206" transform="translate(55.477 52.084)" fill="#ececec"/>
        <rect id="Rectángulo_45423" data-name="Rectángulo 45423" width="4.206" height="4.206" transform="translate(65.829 52.084)" fill="#e1e1e1"/>
        <rect id="Rectángulo_45424" data-name="Rectángulo 45424" width="4.206" height="4.206" transform="translate(76.183 52.084)" fill="#e1e1e1"/>
        <rect id="Rectángulo_45425" data-name="Rectángulo 45425" width="4.206" height="4.206" transform="translate(86.535 52.084)" fill="#e1e1e1"/>
        <rect id="Rectángulo_45426" data-name="Rectángulo 45426" width="4.206" height="4.206" transform="translate(24.419 61.026)" fill="#e1e1e1"/>
        <rect id="Rectángulo_45427" data-name="Rectángulo 45427" width="4.206" height="4.206" transform="translate(34.771 61.026)" fill="#e1e1e1"/>
        <rect id="Rectángulo_45428" data-name="Rectángulo 45428" width="4.206" height="4.206" transform="translate(45.125 61.026)" fill="#e1e1e1"/>
        <rect id="Rectángulo_45429" data-name="Rectángulo 45429" width="4.206" height="4.206" transform="translate(55.668 60.835)" fill="#e1e1e1"/>
        <rect id="Rectángulo_45430" data-name="Rectángulo 45430" width="4.206" height="4.206" transform="translate(65.829 61.026)" fill="#e1e1e1"/>
        <rect id="Rectángulo_45431" data-name="Rectángulo 45431" width="4.206" height="4.206" transform="translate(76.183 61.026)" fill="#ececec"/>
        <rect id="Rectángulo_45432" data-name="Rectángulo 45432" width="4.206" height="4.206" transform="translate(86.535 61.026)" fill="#e1e1e1"/>
        <rect id="Rectángulo_45433" data-name="Rectángulo 45433" width="4.206" height="4.206" transform="translate(24.419 69.967)" fill="#e1e1e1"/>
        <rect id="Rectángulo_45434" data-name="Rectángulo 45434" width="4.206" height="4.206" transform="translate(34.771 69.967)" fill="#ececec"/>
        <rect id="Rectángulo_45435" data-name="Rectángulo 45435" width="4.206" height="4.206" transform="translate(45.125 69.967)" fill="#e1e1e1"/>
        <rect id="Rectángulo_45436" data-name="Rectángulo 45436" width="4.206" height="4.206" transform="translate(55.477 69.967)" fill="#e1e1e1"/>
        <rect id="Rectángulo_45437" data-name="Rectángulo 45437" width="4.206" height="4.206" transform="translate(65.829 69.967)" fill="#e1e1e1"/>
        <rect id="Rectángulo_45438" data-name="Rectángulo 45438" width="4.206" height="4.206" transform="translate(76.373 69.776)" fill="#e1e1e1"/>
        <rect id="Rectángulo_45439" data-name="Rectángulo 45439" width="4.206" height="4.206" transform="translate(86.535 69.967)" fill="#e1e1e1"/>
        <path id="Trazado_215997" data-name="Trazado 215997" d="M232.829,142.27c4.448-2.3,9.686-2.593,14.625-1.777,2.653.439,5.419,1.232,7.225,3.225s2.147,5.5.074,7.213a6.924,6.924,0,0,1-4.556,1.155c-3.866-.045-8.155-.726-11.244,1.6-1.762,1.327-2.935,3.533-5.042,4.185a4.98,4.98,0,0,1-5.48-2.438,8.513,8.513,0,0,1-.62-6.282,9.591,9.591,0,0,1,5.018-6.882" transform="translate(-35.647 -21.95)" fill="#ececec"/>
        <path id="Trazado_215998" data-name="Trazado 215998" d="M221.258,111.851c2.721,3.885,8.006,2.6,10.458.228s3.487-5.809,4.431-9.086c2.155-7.489,4.327-15.344,2.725-22.969a12.758,12.758,0,0,0-2.934-6.245,6.664,6.664,0,0,0-6.317-2.1c-2.666.7-4.323,3.315-5.519,5.8a54.738,54.738,0,0,0-5.411,23.5c-.013,3.785.433,7.754,2.568,10.879" transform="translate(-34.267 -11.204)" fill="#ececec"/>
        <path id="Trazado_215999" data-name="Trazado 215999" d="M207.057,119.747c2.953-3.5,3.514-8.617,2.2-13.007s-4.283-8.127-7.7-11.176a41.5,41.5,0,0,0-13.8-8.141,14.737,14.737,0,0,0-6.205-1.054,6.515,6.515,0,0,0-5.207,3.151c-1.451,2.769-.06,6.127,1.446,8.868a105.077,105.077,0,0,0,9.062,13.8c2.715,3.5,5.827,6.956,9.966,8.538s8.44,1.4,10.634-1.475" transform="translate(-27.536 -13.527)" fill="#ececec"/>
        <path id="Trazado_216000" data-name="Trazado 216000" d="M221.508,182.2a8.538,8.538,0,0,0,.246-1.765c.125-1.285.282-2.9.469-4.818a69.48,69.48,0,0,1,1.084-7.066,54.473,54.473,0,0,1,2.569-8.34,30.727,30.727,0,0,1,4.259-7.547,15.9,15.9,0,0,1,5.384-4.476,15.067,15.067,0,0,1,4.534-1.412,8.466,8.466,0,0,0,1.757-.255,8.245,8.245,0,0,0-1.789-.027,13.718,13.718,0,0,0-4.728,1.23,15.872,15.872,0,0,0-5.68,4.516,30.036,30.036,0,0,0-4.415,7.7,51.038,51.038,0,0,0-2.55,8.477,59.738,59.738,0,0,0-.939,7.155c-.153,2.046-.211,3.7-.239,4.847a8.285,8.285,0,0,0,.037,1.783" transform="translate(-34.701 -22.952)" fill="#e1e1e1"/>
        <path id="Trazado_216001" data-name="Trazado 216001" d="M221.84,169.647a3.5,3.5,0,0,0,.047-.82c0-.615,0-1.391-.006-2.342-.006-2.033-.005-4.975.1-8.607.18-7.265.805-15.084,2.014-26.108,1.144-10.365,2.68-22.429,4.3-30.271.347-1.784.7-3.389,1.027-4.794.314-1.409.582-2.624.841-3.606.223-.925.4-1.679.547-2.277a3.423,3.423,0,0,0,.143-.809,3.5,3.5,0,0,0-.284.768l-.681,2.245c-.3.973-.611,2.18-.963,3.583-.369,1.4-.754,3-1.135,4.782a266.019,266.019,0,0,0-4.521,28.089c-1.211,11.046-1.756,21.1-1.8,28.387-.044,3.641.034,6.59.127,8.624.058.951.105,1.726.143,2.341a3.435,3.435,0,0,0,.1.814" transform="translate(-34.701 -14.105)" fill="#e1e1e1"/>
        <path id="Trazado_216002" data-name="Trazado 216002" d="M217.146,151.35a15.531,15.531,0,0,0-.017-2.447c-.09-1.572-.306-3.845-.75-6.628a87.481,87.481,0,0,0-2.155-9.659,79.247,79.247,0,0,0-4.039-11.428,60.866,60.866,0,0,0-11.861-18.469,30.11,30.11,0,0,0-2.79-2.593c-.428-.362-.806-.723-1.192-1.009l-1.083-.745A15.494,15.494,0,0,0,191.2,97.05c-.117.159,2.919,1.946,6.752,6.024a64.145,64.145,0,0,1,11.564,18.4,90.309,90.309,0,0,1,4.062,11.324,98.215,98.215,0,0,1,2.294,9.562c.505,2.756.8,5.006.974,6.564a15.88,15.88,0,0,0,.3,2.424" transform="translate(-29.959 -15.207)" fill="#e1e1e1"/>
        <path id="Trazado_216003" data-name="Trazado 216003" d="M199.734,202.018l1.944,26.631H235.89l1.944-26.631Z" transform="translate(-31.297 -31.655)" fill="#e1e1e1"/>
        <rect id="Rectángulo_45440" data-name="Rectángulo 45440" width="45.486" height="10.497" transform="translate(165.132 159.867)" fill="#e1e1e1"/>
        <path id="Trazado_216004" data-name="Trazado 216004" d="M195.816,232.389V235.3H240.55v-2.909Z" transform="translate(-30.683 -36.414)" fill="#ececec"/>
        <path id="Trazado_216005" data-name="Trazado 216005" d="M200.445,240.96l-2.095-5.121h40.968l-2.444,5.121Z" transform="translate(-31.08 -36.954)" fill="#e1e1e1"/>
        <path id="Trazado_216006" data-name="Trazado 216006" d="M237.306,211.644a1.16,1.16,0,0,1-.16.245l-.511.678-1.994,2.55-.089.114-.085-.119-4.9-6.772h.282c-1.456,2.063-3.078,4.36-4.82,6.826l-.151.214-.169-.2c-1.778-2.117-3.71-4.416-5.717-6.8l.33,0-.315.4-5.112,6.409-.169.213-.159-.223-4.823-6.824.281.013-5.94,6.768-.105.12-.08-.135-1.859-3.124c-.2-.339-.353-.614-.478-.832a1.4,1.4,0,0,1-.146-.3,1.307,1.307,0,0,1,.2.264c.138.211.313.474.528.8.475.747,1.13,1.777,1.952,3.068l-.186-.015,5.844-6.849.148-.173.133.186,4.867,6.794-.328-.009,5.1-6.418c.107-.136.215-.271.315-.4l.163-.2.167.2,5.7,6.816-.32.013,4.868-6.792.143-.2.14.2c1.928,2.755,3.566,5.094,4.793,6.846l-.174-.005,2.073-2.486.556-.643c.127-.143.2-.213.206-.207" transform="translate(-31.404 -32.577)" fill="#f5f5f5"/>
        <path id="Trazado_216007" data-name="Trazado 216007" d="M238.362,201.771c0,.118-8.572.213-19.145.213s-19.146-.1-19.146-.213,8.571-.213,19.146-.213,19.145.1,19.145.213" transform="translate(-31.35 -31.583)" fill="#f5f5f5"/>
        <path id="Trazado_216008" data-name="Trazado 216008" d="M239.795,236.139c0,.117-9.316.213-20.806.213s-20.809-.1-20.809-.213,9.314-.212,20.809-.212,20.806.1,20.806.212" transform="translate(-31.053 -36.968)" fill="#f5f5f5"/>
        <path id="Trazado_216009" data-name="Trazado 216009" d="M89.957,116.35l-3.848,2.065-8.518,6.558s-26.094,3.465-27.1,4.217S36.516,136.1,34.762,144.371,29.4,206.587,29.4,206.587l4.735,15.939,95.034.148,22.288-.317s8.565-20,8.565-25.513-2.505-46.852-2.505-46.852l-26.727-18.845Z" transform="translate(-4.607 -18.231)" fill="#f37409"/>
        <path id="Trazado_216010" data-name="Trazado 216010" d="M84.757,126.113a1.031,1.031,0,0,1-.132.223l-.418.609c-.375.519-.882,1.3-1.477,2.276-.287.5-.616,1.029-.918,1.631-.325.59-.631,1.241-.949,1.927a39.877,39.877,0,0,0-1.727,4.605,63.253,63.253,0,0,0-1.874,8.748c-.159,1.109-.289,2.019-.385,2.69-.045.294-.08.536-.11.732a1.046,1.046,0,0,1-.055.253,1.012,1.012,0,0,1,.005-.259c.016-.2.037-.44.062-.737.057-.64.16-1.564.307-2.7a56.1,56.1,0,0,1,1.809-8.8,37.636,37.636,0,0,1,1.757-4.628c.326-.688.642-1.339.976-1.929.311-.6.652-1.133.95-1.626.617-.971,1.149-1.737,1.549-2.241l.456-.583a1.02,1.02,0,0,1,.173-.192" transform="translate(-12.02 -19.761)" fill="#1a2e35"/>
        <g id="Grupo_150026" data-name="Grupo 150026" transform="translate(64.976 120.881)" opacity="0.3">
          <g id="Grupo_150025" data-name="Grupo 150025">
            <g id="Grupo_150024" data-name="Grupo 150024" clip-path="url(#clip-path-3)">
              <path id="Trazado_216011" data-name="Trazado 216011" d="M85.4,144.671c-.159-.508-.363-1.081-.857-1.28-.388-.156-.232.094-.618.254-3.609,1.488-5.352,4.826-6.88,8.585l.087-.089a1.5,1.5,0,0,0,.591,1.744,2.869,2.869,0,0,0,2.7-.214,12.49,12.49,0,0,1,2.514-1.268c1.977-.506,3.942.847,5.336,2.336s2.651,3.263,4.553,4A43.887,43.887,0,0,1,85.4,144.671" transform="translate(-77.049 -143.342)"/>
            </g>
          </g>
        </g>
        <path id="Trazado_216012" data-name="Trazado 216012" d="M76.714,152.043a25.643,25.643,0,0,1,3.819-6.354,13.428,13.428,0,0,1,1.8-1.754,6.035,6.035,0,0,1,2.541-1.219l.074-.014.028.072c.6,1.575,1.24,3.294,1.972,5.1a40.893,40.893,0,0,0,2.69,5.572,26.956,26.956,0,0,0,4.138,5.348,33.648,33.648,0,0,0,5.667,4.494c.7.412,1.37.848,2.067,1.232l2.085,1.111-.125.008,3.474-2.4,1.683-1.161c.558-.379,1.1-.76,1.616-1.164a42.306,42.306,0,0,0,5.391-5.067l.008-.009.008-.006a20.26,20.26,0,0,0,4.943-5.394,18.4,18.4,0,0,0,2.228-5.181,18.9,18.9,0,0,0,.567-3.591c.03-.419.022-.742.034-.959s.019-.329.019-.329.01.111.013.329.019.541,0,.961a17.98,17.98,0,0,1-.512,3.619,18.27,18.27,0,0,1-2.2,5.241,20.293,20.293,0,0,1-4.961,5.472l.016-.014a42.128,42.128,0,0,1-5.406,5.114c-.519.41-1.065.794-1.622,1.174l-1.682,1.165-3.475,2.4-.061.042-.064-.035-2.1-1.115c-.7-.386-1.38-.825-2.079-1.24A33.691,33.691,0,0,1,93.6,158.97a27.046,27.046,0,0,1-4.164-5.4,40.574,40.574,0,0,1-2.687-5.61c-.727-1.817-1.353-3.539-1.948-5.116l.1.058a5.872,5.872,0,0,0-2.468,1.169,13.351,13.351,0,0,0-1.788,1.718,23.8,23.8,0,0,0-2.315,3.25c-.563.943-.957,1.7-1.218,2.219l-.292.591a1.452,1.452,0,0,1-.107.2" transform="translate(-12.021 -21.997)" fill="#1a2e35"/>
        <path id="Trazado_216013" data-name="Trazado 216013" d="M136.877,140.161a48.272,48.272,0,0,1-.347,7.338,57.285,57.285,0,0,1-1.467,7.876,67.276,67.276,0,0,1-3.185,9.324l-.183.435-.057-.471c-.033-.282-.06-.586-.105-.89a26.246,26.246,0,0,0-1.213-5.083c-.277-.8-.589-1.569-.927-2.309-.168-.371-.346-.732-.527-1.086a6.744,6.744,0,0,0-.589-1,1.975,1.975,0,0,0-.826-.69.947.947,0,0,0-.946.179,6.961,6.961,0,0,0-.735.78l-.7.8-2.546,2.9-3.7,4.194-1.015,1.132-.269.29a.547.547,0,0,1-.1.094.517.517,0,0,1,.079-.11l.25-.306.98-1.163,3.64-4.246,2.522-2.925.692-.8a7.129,7.129,0,0,1,.759-.812,1.174,1.174,0,0,1,1.161-.218,2.18,2.18,0,0,1,.933.762,6.933,6.933,0,0,1,.614,1.035c.184.357.364.72.536,1.094.343.745.659,1.523.94,2.329a26.117,26.117,0,0,1,1.23,5.131c.046.306.073.614.107.9l-.24-.036a69.07,69.07,0,0,0,3.194-9.285,59.369,59.369,0,0,0,1.515-7.839c.279-2.253.39-4.087.44-5.352.033-.633.034-1.125.05-1.458.007-.154.012-.279.016-.379a.5.5,0,0,1,.014-.129" transform="translate(-18.403 -21.962)" fill="#1a2e35"/>
        <path id="Trazado_216014" data-name="Trazado 216014" d="M96.891,124.4s-.022.035-.073.1l-.23.26c-.214.218-.49.573-.845,1.03a18.959,18.959,0,0,0-2.306,4.308,27.8,27.8,0,0,0-1.727,7.036,28.139,28.139,0,0,0,.385,8.845,23.709,23.709,0,0,0,1.345,4.393,23.2,23.2,0,0,0,1.978,3.794,24.3,24.3,0,0,0,4.813,5.4c.777.686,1.566,1.2,2.225,1.687.7.431,1.29.826,1.794,1.111l1.171.644.3.173a.478.478,0,0,1,.1.067.4.4,0,0,1-.11-.044l-.313-.151-1.2-.6c-.512-.274-1.112-.658-1.823-1.08-.67-.482-1.471-.985-2.26-1.667a24.017,24.017,0,0,1-4.895-5.41,23.145,23.145,0,0,1-2.01-3.826,23.721,23.721,0,0,1-1.364-4.436,27.959,27.959,0,0,1-.369-8.922,27.4,27.4,0,0,1,1.792-7.075,18.132,18.132,0,0,1,2.392-4.3,10.935,10.935,0,0,1,.886-1.006l.25-.244c.057-.054.087-.08.09-.077" transform="translate(-14.304 -19.492)" fill="#1a2e35"/>
        <path id="Trazado_216015" data-name="Trazado 216015" d="M48.586,174.579c.006,0,.037.042.1.138l.258.445-.071.024c-.344-1.615-1.278-6.574-2.338-12.436-.639-3.612-1.217-6.88-1.643-9.287-.194-1.165-.353-2.119-.47-2.819-.046-.311-.085-.566-.116-.769a1.089,1.089,0,0,1-.023-.271,1.131,1.131,0,0,1,.073.262c.043.2.1.452.162.76.136.7.321,1.647.547,2.806.445,2.4,1.048,5.667,1.715,9.274,1.061,5.863,1.923,10.835,2.166,12.467l.037.246-.108-.222-.225-.463a.548.548,0,0,1-.061-.156" transform="translate(-6.938 -23.442)" fill="#1a2e35"/>
        <path id="Trazado_216016" data-name="Trazado 216016" d="M47.049,176c-.062.03-1.274-2.408-2.706-5.445s-2.543-5.523-2.479-5.552,1.273,2.408,2.706,5.445,2.542,5.523,2.479,5.552" transform="translate(-6.559 -25.855)" fill="#1a2e35"/>
        <g id="Grupo_150029" data-name="Grupo 150029" transform="translate(39.997 146.074)" opacity="0.3">
          <g id="Grupo_150028" data-name="Grupo 150028">
            <g id="Grupo_150027" data-name="Grupo 150027" clip-path="url(#clip-path-4)">
              <path id="Trazado_216017" data-name="Trazado 216017" d="M47.428,230.192c3.017,1.516,10.008-1.16,12.551-4.495s3.278-7.671,3.829-11.827q1.249-9.4,1.779-18.872a28.665,28.665,0,0,0,18.07,5.457c4.082-.185,8.734-1.806,10-5.692,1.249-3.844-1.44-7.8-4.233-10.717a65.733,65.733,0,0,0-8.668-7.6c-2.038-1.493-4.269-2.908-6.78-3.182a10.069,10.069,0,0,0-7.509,2.6,17.885,17.885,0,0,0-4.553,6.7c-3.218,7.672-3.044,16.263-3.7,24.556S56.672,224,49.325,229.4" transform="translate(-47.428 -173.215)"/>
            </g>
          </g>
        </g>
        <path id="Trazado_216018" data-name="Trazado 216018" d="M47.66,232.768a1.136,1.136,0,0,1,.206-.1l.607-.261a11.072,11.072,0,0,0,2.06-1.416,28.838,28.838,0,0,0,5.559-6.93l-.013.04c.44-3.3.953-7.144,1.5-11.235.882-6.485,1.664-12.359,2.292-16.6.39-2.094.706-3.794.928-4.994q.168-.86.265-1.356l.075-.351a.4.4,0,0,1,.035-.118.461.461,0,0,1-.009.122c-.013.094-.03.212-.051.356-.053.331-.126.787-.218,1.363l-.849,5.005c-.57,4.268-1.354,10.131-2.22,16.609-.557,4.089-1.081,7.933-1.53,11.229l0,.023-.01.017a28.034,28.034,0,0,1-5.667,6.92,10.328,10.328,0,0,1-2.113,1.378c-.271.109-.483.181-.625.233a1.12,1.12,0,0,1-.218.067" transform="translate(-7.468 -29.685)" fill="#1a2e35"/>
        <path id="Trazado_216019" data-name="Trazado 216019" d="M102.356,230.836a.738.738,0,0,1-.045-.152c-.028-.115-.063-.263-.108-.45-.083-.4-.244-.981-.371-1.745a43.4,43.4,0,0,1-.663-6.523,63.227,63.227,0,0,1,.519-9.712c.442-3.637,1.179-7.6,2.034-11.732.821-4.146,1.855-8.042,2.692-11.6a54.913,54.913,0,0,0,1.543-9.566,35.022,35.022,0,0,0-.239-6.526c-.083-.768-.215-1.355-.268-1.759-.029-.191-.052-.342-.07-.458a.737.737,0,0,1-.015-.158.725.725,0,0,1,.04.153c.024.116.055.265.094.454.069.4.218.987.315,1.755a33.372,33.372,0,0,1,.32,6.548,53.738,53.738,0,0,1-1.5,9.609c-.826,3.568-1.851,7.455-2.672,11.6-.854,4.132-1.6,8.084-2.051,11.71a64.87,64.87,0,0,0-.57,9.678,46.247,46.247,0,0,0,.581,6.511c.113.765.257,1.348.324,1.751l.083.455a.739.739,0,0,1,.02.158" transform="translate(-15.849 -26.71)" fill="#1a2e35"/>
        <path id="Trazado_216020" data-name="Trazado 216020" d="M112.18,176.58c-.061-.04.77-1.364,1.692-3.053s1.595-3.1,1.661-3.07a3.855,3.855,0,0,1-.348.967c-.25.583-.628,1.374-1.093,2.223s-.928,1.594-1.284,2.118a3.845,3.845,0,0,1-.627.815" transform="translate(-17.577 -26.709)" fill="#1a2e35"/>
        <g id="Grupo_150032" data-name="Grupo 150032" transform="translate(95.882 131.03)" opacity="0.3">
          <g id="Grupo_150031" data-name="Grupo 150031">
            <g id="Grupo_150030" data-name="Grupo 150030" clip-path="url(#clip-path-5)">
              <path id="Trazado_216021" data-name="Trazado 216021" d="M113.97,172.219a80.857,80.857,0,0,1,8.129-8.236,5.745,5.745,0,0,1,2.7-1.577,4.014,4.014,0,0,1,3.446,1.386A11.844,11.844,0,0,1,130.2,167.1c1.261-3.1-.048-6.593-1.347-9.679-.423-1-1.155-2.2-2.233-2.034a2.483,2.483,0,0,0-1.386.993A149.675,149.675,0,0,0,113.7,171.659" transform="translate(-113.698 -155.376)"/>
            </g>
          </g>
        </g>
        <g id="Grupo_150035" data-name="Grupo 150035" transform="translate(129.854 123.428)" opacity="0.3">
          <g id="Grupo_150034" data-name="Grupo 150034">
            <g id="Grupo_150033" data-name="Grupo 150033" clip-path="url(#clip-path-6)">
              <path id="Trazado_216022" data-name="Trazado 216022" d="M162.587,147.888l.18-1.525c-1.832.175-4.086.39-5.55,1.506-1.708,1.3-2.38,3.521-2.955,5.589-1.308,4.709,2.4,28.936,2.214,33.819,1.625-.69,2.766-11.087,3.059-12.828.711-4.24-.728-6.887-.293-8.068a11.682,11.682,0,0,0,.46-3.728c.159-5.621.717-9.577,2.885-14.765" transform="translate(-153.982 -146.362)"/>
            </g>
          </g>
        </g>
        <path id="Trazado_216023" data-name="Trazado 216023" d="M131.494,53.551c-2.329-2.887-1.567-7.5,1.1-10.08s6.72-3.323,10.379-2.708A17.079,17.079,0,0,1,155.345,50.1c1.247,2.62,1.928,5.718,4.218,7.5,2.013,1.567,4.781,1.7,7.072,2.826a11.479,11.479,0,0,1,5.755,8.067,24.775,24.775,0,0,1-.428,10.175c-.65,3.07-1.517,6.389-.2,9.236,1.286,2.779,4.291,4.292,6.268,6.628a11.035,11.035,0,0,1-1.73,15.329c-1.469,1.1-3.326,1.938-4.028,3.636-.64,1.548-.094,3.306-.126,4.981a7.45,7.45,0,0,1-9,6.719c-2.1-.58-4.036-2.131-6.195-1.835-2.144.293-3.576,2.276-5.319,3.559a9.313,9.313,0,0,1-11.7-.864c-1.264-1.256-2.279-2.967-4-3.424s-3.528.53-5.289.292c-2.306-.315-3.823-2.606-4.5-4.832s-.864-4.639-2.016-6.661c-1.508-2.651-4.378-4.15-6.789-6.015a23.578,23.578,0,0,1-2.019-35.557" transform="translate(-16.951 -6.355)" fill="#1a2e35"/>
        <path id="Trazado_216024" data-name="Trazado 216024" d="M96.564,124.411a22.176,22.176,0,0,0-4.7,19.652c1.714,6.791,7.395,16.716,13.952,19.179,4.252-3.118,9.718-7.471,13.683-10.946,2.566-2.248,3.927-5.535,5.2-8.7.734-1.826,1.478-3.8,1.018-5.714a8.26,8.26,0,0,0-2.3-3.63,29.413,29.413,0,0,0-25.471-8.5" transform="translate(-14.294 -19.494)" fill="#ff9e77"/>
        <path id="Trazado_216025" data-name="Trazado 216025" d="M116.857,65.236h0a11.67,11.67,0,0,1,13.349-6.147l16.417,4.184c8.2,2.645,14.627,15.339,9.791,26.46-3.819,8.781-7.731,19.816-11.656,25.876-7.892,12.187-18.678,9.4-18.678,9.4L120.255,138l-23.8-22.322Z" transform="translate(-15.113 -9.202)" fill="#ff9e77"/>
        <path id="Trazado_216026" data-name="Trazado 216026" d="M153.493,99.568c.309-.116,1.114,1.418,2.9,2.276,1.769.882,3.52.6,3.608.911.048.143-.35.431-1.12.57a5.045,5.045,0,0,1-3.017-.462,4.843,4.843,0,0,1-2.176-2.081c-.345-.686-.342-1.165-.193-1.214" transform="translate(-24.036 -15.601)" fill="#1a2e35"/>
        <path id="Trazado_216027" data-name="Trazado 216027" d="M131.446,89.532c.35-.065,1.145,1.644,3.061,2.828,1.9,1.208,3.853,1.223,3.931,1.557.044.153-.411.38-1.273.387a6.365,6.365,0,0,1-3.306-1,5.986,5.986,0,0,1-2.275-2.5c-.336-.759-.3-1.249-.137-1.273" transform="translate(-20.578 -14.029)" fill="#1a2e35"/>
        <path id="Trazado_216028" data-name="Trazado 216028" d="M140.81,108.188a13.148,13.148,0,0,1,3.173.772c.483.157.961.259,1.179-.022a2.578,2.578,0,0,0,.3-1.506q.092-1.966.193-4.123c.322-5.849.774-10.577,1.009-10.562s.165,4.769-.157,10.618q-.137,2.155-.26,4.119a2.926,2.926,0,0,1-.564,1.919,1.269,1.269,0,0,1-1.059.339,3.442,3.442,0,0,1-.832-.24,12.818,12.818,0,0,1-2.98-1.316" transform="translate(-22.064 -14.533)" fill="#1a2e35"/>
        <path id="Trazado_216029" data-name="Trazado 216029" d="M128.6,135.009a37.959,37.959,0,0,1-15.917-12.689s.36,11.141,14.459,15.954Z" transform="translate(-17.657 -19.167)" fill="#ed7b54"/>
        <path id="Trazado_216030" data-name="Trazado 216030" d="M133.232,82.185c.3-.486,2.182.173,4.512.379,2.325.253,4.3-.024,4.5.512.087.254-.337.681-1.186,1.035a7.869,7.869,0,0,1-6.865-.679c-.763-.512-1.1-1.015-.961-1.247" transform="translate(-20.872 -12.85)" fill="#1a2e35"/>
        <path id="Trazado_216031" data-name="Trazado 216031" d="M158.038,88.5c.609,0,1.358,1.493,2.654,2.925,1.253,1.472,2.645,2.414,2.556,3.01-.056.276-.562.393-1.359.157a6.2,6.2,0,0,1-2.721-1.856,6.107,6.107,0,0,1-1.477-2.925c-.125-.815.062-1.294.347-1.311" transform="translate(-24.703 -13.867)" fill="#1a2e35"/>
        <path id="Trazado_216032" data-name="Trazado 216032" d="M134.824,115.954s1.117-.584.6-2.727-3.245-4.087-4.971-2.323c0,0-1.744.134-1.058,2.145s4.658,4.848,5.4,3.232" transform="translate(-20.25 -17.27)" fill="#ed7b54"/>
        <path id="Trazado_216033" data-name="Trazado 216033" d="M134.173,117.711c-.318-.055.166-2.148-1.278-4.05s-3.725-2.191-3.673-2.488c0-.137.591-.29,1.538-.1a5.346,5.346,0,0,1,3.093,1.957,4.656,4.656,0,0,1,.938,3.365c-.124.893-.478,1.357-.618,1.311" transform="translate(-20.248 -17.391)" fill="#1a2e35"/>
        <path id="Trazado_216034" data-name="Trazado 216034" d="M99.531,58.339a10.269,10.269,0,0,0-3.943,8.408c.071,1.8.51,3.923-.815,5.142-1.349,1.24-3.473.574-5.305.584a6.823,6.823,0,0,0-6.515,5.84c-.131,1.137.018,2.366-.562,3.352-.6,1.026-1.814,1.487-2.832,2.1a8.49,8.49,0,0,0,.283,14.686c1.177.653,2.555,1.061,3.415,2.1.985,1.188,1.023,2.871,1.506,4.336a7.129,7.129,0,0,0,13.51.1" transform="translate(-11.825 -9.141)" fill="#1a2e35"/>
        <path id="Trazado_216035" data-name="Trazado 216035" d="M135.322,52.555A10.159,10.159,0,0,0,143.458,65.9c2.281.335,5,.046,6.477,1.821,1.549,1.867.631,4.843,1.856,6.937,1.751,2.992,4.735,5.379,7.567,7.378,2.187,1.544-.315,5.843.638,8.345s4.876,8.21,7.551,8.312c.584-2.238,3.915-12.064,3.974-14.377a10.129,10.129,0,0,0-1.894-6.531,37.507,37.507,0,0,1-2.5-2.861c-1.467-2.312-.974-5.306-1.45-8a11.133,11.133,0,0,0-6.23-8.05c-2.671-1.219-5.8-1.355-8.27-2.948-1.823-1.177-3.126-3.061-5.016-4.129-3.681-2.08-8.293-.5-12.1,1.35" transform="translate(-21.008 -7.962)" fill="#1a2e35"/>
        <path id="Trazado_216036" data-name="Trazado 216036" d="M110.818,80.046c-.38-.254-2.9,1.657-.412,3.18,4.363,2.669,8.112-6.348,7.952-9.345a29.019,29.019,0,0,0,6.429-3.38c1.957-1.487,4.886-6.356,5.41-8.818,1.67.676,9.737.737,9.037.254-1.592-1.1-4.814-3.466-5.242-5.315-.928-4.018-3.782-7.511-7.551-8.562a9.393,9.393,0,0,0-10.39,4.319,13.5,13.5,0,0,0-13.39,3.355A15.655,15.655,0,0,0,98.388,69.66c.264,1.28.7,2.617.286,3.886-.509,1.573-2.086,2.42-3.341,3.438-3.424,2.775-4.9,7.68-4.477,12.108s1.177,6.189,3.369,7.789c4.287,3.131-4.624,11.128,3.359,13.831" transform="translate(-14.226 -7.483)" fill="#1a2e35"/>
        <path id="Trazado_216037" data-name="Trazado 216037" d="M177.368,110.59c-.022-.032.282-.2.751-.638a6.71,6.71,0,0,0,1.607-2.263,6.84,6.84,0,0,0,.45-4.291,8.855,8.855,0,0,0-3.335-4.637c-1.645-1.416-3.808-2.677-5.337-4.9-1.548-2.236-1.8-5.28-1.314-8.167.482-2.93,1.7-5.777,2.486-8.813a16.531,16.531,0,0,0,.589-4.692,9.277,9.277,0,0,0-1.257-4.589,8.5,8.5,0,0,0-3.581-3.1A16.7,16.7,0,0,0,163.9,63.12a32.184,32.184,0,0,1-4.62-.886,5.783,5.783,0,0,1-3.592-2.83,17.124,17.124,0,0,1-1.158-4.158,8.334,8.334,0,0,0-1.555-3.535,9.655,9.655,0,0,0-5.894-3.527,10.156,10.156,0,0,0-5.707.687,13.008,13.008,0,0,0-3.7,2.405,19.32,19.32,0,0,0-2.442,2.909.785.785,0,0,1,.1-.231c.083-.144.189-.371.373-.64a12.3,12.3,0,0,1,1.8-2.215,12.861,12.861,0,0,1,3.73-2.553,10.454,10.454,0,0,1,5.923-.8,10.075,10.075,0,0,1,6.231,3.646,8.855,8.855,0,0,1,1.682,3.732,16.887,16.887,0,0,0,1.133,4.012,5.191,5.191,0,0,0,3.261,2.526,32.19,32.19,0,0,0,4.54.85,17.208,17.208,0,0,1,4.7,1.424,9.112,9.112,0,0,1,3.841,3.334,9.869,9.869,0,0,1,1.348,4.9,17.069,17.069,0,0,1-.617,4.866c-.811,3.1-2.032,5.919-2.511,8.754-.489,2.8-.252,5.685,1.176,7.78,1.411,2.106,3.531,3.4,5.189,4.851a9.166,9.166,0,0,1,3.393,4.9,7.029,7.029,0,0,1-.572,4.47,6.443,6.443,0,0,1-1.747,2.257,3.416,3.416,0,0,1-.835.541" transform="translate(-21.19 -7.46)" fill="#375a64"/>
        <path id="Trazado_216038" data-name="Trazado 216038" d="M167.459,87.84c.056.023-.235.688-.528,1.949a14.161,14.161,0,0,0-.17,5.42,13.428,13.428,0,0,0,1.09,3.575,17.573,17.573,0,0,0,2.357,3.609,10.661,10.661,0,0,1,1.284,2.064,5.153,5.153,0,0,1,.454,2.554,17.164,17.164,0,0,1-1.676,5,6.223,6.223,0,0,0-.444,4.808,11.525,11.525,0,0,0,2.859,3.7,14.663,14.663,0,0,1,2.827,3.432,5.358,5.358,0,0,1,.464,3.872,6.449,6.449,0,0,1-3.442,4.292,4.972,4.972,0,0,1-1.471.4,1.654,1.654,0,0,1-.53,0,9.354,9.354,0,0,0,1.892-.627,6.318,6.318,0,0,0,3.116-4.169,5.011,5.011,0,0,0-.492-3.529,14.5,14.5,0,0,0-2.771-3.262,11.885,11.885,0,0,1-3.028-3.89,5.3,5.3,0,0,1-.321-2.667,10.413,10.413,0,0,1,.757-2.6,17.1,17.1,0,0,0,1.644-4.8,6.123,6.123,0,0,0-1.588-4.224A17.684,17.684,0,0,1,167.373,99a13.819,13.819,0,0,1-.681-9.271,9.54,9.54,0,0,1,.516-1.424,1.662,1.662,0,0,1,.25-.465" transform="translate(-26.04 -13.764)" fill="#375a64"/>
        <path id="Trazado_216039" data-name="Trazado 216039" d="M81.58,97.589c-.009.01-.1-.058-.275-.2a5.449,5.449,0,0,1-.7-.709,7.552,7.552,0,0,1-1.6-3.418,7.347,7.347,0,0,1,1.18-5.714,7.934,7.934,0,0,1,6.769-3.313l-.266.353a12.171,12.171,0,0,1-.81-5.005,6.413,6.413,0,0,1,2.574-4.833,4.813,4.813,0,0,1,2.815-.962,7.065,7.065,0,0,1,2.908.822,11.234,11.234,0,0,0,2.694,1.037,2.9,2.9,0,0,0,2.544-.754,5.622,5.622,0,0,0,1.577-3.784c.113-1.416-.025-2.856.123-4.3a12,12,0,0,1,3.544-7.293,11.5,11.5,0,0,1,6.514-3.163,11.853,11.853,0,0,1,6.118.769l-.272.108a6.3,6.3,0,0,1,3.312-3.039,6.924,6.924,0,0,1,3.334-.5,5.88,5.88,0,0,1,2.028.589,2.837,2.837,0,0,1,.609.4,7.286,7.286,0,0,0-2.656-.762,6.856,6.856,0,0,0-3.183.573,5.986,5.986,0,0,0-3.058,2.91l-.084.182-.188-.075a11.506,11.506,0,0,0-5.886-.656,11.024,11.024,0,0,0-6.181,3.068,11.473,11.473,0,0,0-3.335,6.943c-.138,1.361,0,2.8-.11,4.286a6.234,6.234,0,0,1-1.774,4.2,3.546,3.546,0,0,1-3.076.911,11.627,11.627,0,0,1-2.855-1.093,6.531,6.531,0,0,0-2.645-.772,4.22,4.22,0,0,0-2.461.837,5.838,5.838,0,0,0-2.356,4.389,11.727,11.727,0,0,0,.739,4.781l.131.377-.4-.024A7.5,7.5,0,0,0,80.536,87.8,7.077,7.077,0,0,0,79.309,93.2a7.759,7.759,0,0,0,1.424,3.373c.516.684.875.981.847,1.011" transform="translate(-12.357 -8.408)" fill="#375a64"/>
        <path id="Trazado_216040" data-name="Trazado 216040" d="M129.285,57.173a5.344,5.344,0,0,0-2.17.843c-1.23.869-2.294,2.975-2.607,5.648l-.027.229-.226-.019a8.652,8.652,0,0,0-7.087,2.961,6.743,6.743,0,0,0-1.138,1.918,13.244,13.244,0,0,0-.492,2.329,17.936,17.936,0,0,1-.493,2.52,4.216,4.216,0,0,1-1.519,2.273c-1.6,1.246-3.558,1.462-5.272,1.735a15.069,15.069,0,0,0-4.807,1.245,11.179,11.179,0,0,0-5.568,6.028,11.666,11.666,0,0,0-.656,5.614c.171,1.347.457,2.059.4,2.078a1.831,1.831,0,0,1-.234-.5,9.462,9.462,0,0,1-.406-1.537,11.343,11.343,0,0,1,.481-5.805,11.5,11.5,0,0,1,5.73-6.4A15.378,15.378,0,0,1,108.163,77c1.714-.272,3.575-.514,4.971-1.618,1.374-.969,1.523-2.791,1.79-4.391a13.448,13.448,0,0,1,.536-2.44,7.231,7.231,0,0,1,1.261-2.094,9.066,9.066,0,0,1,7.575-3.046l-.253.21c.383-2.782,1.556-4.938,2.922-5.815a3.76,3.76,0,0,1,1.692-.632,2.168,2.168,0,0,1,.628,0" transform="translate(-15.168 -8.956)" fill="#375a64"/>
        <path id="Trazado_216041" data-name="Trazado 216041" d="M113.884,86.544a4.133,4.133,0,0,0-3.49-6.063c-1.657,0-3.44.9-4.921,3.742-3.95,7.575,4.469,9.978,4.6,9.767.078-.13,2.209-4.3,3.815-7.446" transform="translate(-16.362 -12.611)" fill="#ff9e77"/>
        <path id="Trazado_216042" data-name="Trazado 216042" d="M109.685,90.386c-.021-.041-.18.024-.456.009a1.487,1.487,0,0,1-1-.493c-.647-.712-.658-2.333.018-3.717a4.9,4.9,0,0,1,1.354-1.7,1.717,1.717,0,0,1,1.52-.5.758.758,0,0,1,.59.767c-.009.265-.136.39-.1.425.012.03.229-.042.331-.387a.949.949,0,0,0-.051-.63,1.125,1.125,0,0,0-.629-.573,2.093,2.093,0,0,0-1.991.455,5.051,5.051,0,0,0-1.558,1.873c-.747,1.552-.711,3.388.219,4.275a1.591,1.591,0,0,0,1.311.428c.332-.064.46-.213.441-.24" transform="translate(-16.796 -13.082)" fill="#ed7b54"/>
        <path id="Trazado_216043" data-name="Trazado 216043" d="M104.042,208.551a5.728,5.728,0,0,0-2.39-2.008l-1.434-3.537a3.854,3.854,0,0,0,0-2.773c-.573-1.529-4.78-10.42-4.685-10.707l-1.089-.064s3.878,9.409,4.26,9.887.94,3.277-.015,3.66-2.988-.654-3.848-1.514-3.6-7.333-4.079-8.672a5.16,5.16,0,0,1,.374-3.2l.764-1.816H90.85a34.965,34.965,0,0,0-1.052,3.728c-.382,1.816,3.92,9.751,4.589,10.612s2.963,1.529,4.206,2.39,1.052,3.537,1.052,3.537a6.637,6.637,0,0,0-1.147,3.155c-.1,1.721,3.728,9.846,6.309,11.568s5.641.478,5.928.573.955-1.338.955-1.338-6.978-12.236-7.648-13.479m3.524,14.21a5.4,5.4,0,0,1-3.551-2.053c-.314-.415-3.66-6.239-4.092-7.324a5.371,5.371,0,0,1,.042-4.05c.4-1.609,2.885-.666,2.885-.666s7.322,12.653,7.157,13.038a2.55,2.55,0,0,1-2.441,1.054" transform="translate(-14.067 -29.428)" fill="#1a2e35"/>
        <path id="Trazado_216044" data-name="Trazado 216044" d="M115.584,225.559s21.321-8.114,22.317-9.034,4.6-6.2,4.6-6.2,1.761.306,1.531.766-3.6,5.744-7.2,7.275-22.2,8.534-22.2,8.534Z" transform="translate(-17.961 -32.956)" fill="#1a2e35"/>
        <path id="Trazado_216045" data-name="Trazado 216045" d="M33.6,149.109l-8.784,50.644s-3.233,9.854-2.771,12.01,2.095,11.455,7.022,14.38,14.687,1.016,16.688-.985,5.946-5.67,6.408-7.364,3.7-27.445,3.7-27.445l1.284-7.224s-4.773,1.54-7.7-.462-6.774-10.623-6.774-10.623l-4.311,6.621Z" transform="translate(-3.448 -23.364)" fill="#f37409"/>
        <path id="Trazado_216046" data-name="Trazado 216046" d="M43.347,176.3a1.624,1.624,0,0,1-.168.286l-.521.791c-.453.686-1.106,1.681-1.892,2.923-1.58,2.48-3.689,5.953-5.993,9.8s-4.384,7.345-5.929,9.849c-.772,1.253-1.407,2.259-1.856,2.949l-.525.789a1.624,1.624,0,0,1-.2.266,1.639,1.639,0,0,1,.154-.293l.485-.814,1.787-2.99,5.866-9.886c2.306-3.851,4.44-7.312,6.06-9.771.8-1.231,1.482-2.212,1.96-2.882l.56-.765a1.632,1.632,0,0,1,.209-.256" transform="translate(-4.116 -27.625)" fill="#1a2e35"/>
        <path id="Trazado_216047" data-name="Trazado 216047" d="M59.115,194.764a1.186,1.186,0,0,1-.181.211c-.129.127-.3.333-.565.561a9.753,9.753,0,0,1-2.428,1.641,7.691,7.691,0,0,1-1.941.612,7.412,7.412,0,0,1-2.336.057,9.64,9.64,0,0,1-2.493-.673,13.554,13.554,0,0,1-2.42-1.344,12.9,12.9,0,0,1-2.037-1.877,13.185,13.185,0,0,1-2.926-6.213,12.833,12.833,0,0,1-.2-2.923c.013-.346.058-.612.076-.793a1.155,1.155,0,0,1,.047-.273c.022,0-.008.383-.026,1.069a14.144,14.144,0,0,0,.274,2.886A13.269,13.269,0,0,0,44.9,193.79a12.9,12.9,0,0,0,2,1.835,13.637,13.637,0,0,0,2.37,1.321,9.559,9.559,0,0,0,2.426.67,7.291,7.291,0,0,0,2.273-.033,7.707,7.707,0,0,0,1.9-.568,10.445,10.445,0,0,0,2.437-1.553c.52-.447.794-.714.81-.7" transform="translate(-6.514 -28.792)" fill="#1a2e35"/>
        <path id="Trazado_216048" data-name="Trazado 216048" d="M46.521,174l6.57-4.225s17.517-7.117,19.3-7.527,3.832-1.231,4.79,0,10.948,8.485,10.948,8.485,5.885,11.084,5.885,12.591,1.643,3.431,0,3.974l-1.642.542s-.547,2.684-2.6,2.984a5.812,5.812,0,0,1-2.737,0s-.137,2.684-1.779,2.518-4.379-2.518-4.379-2.518-1.232,1.395-2.19,1.395-3.969-2.053-3.969-2.053L68.892,185.1l-5.126-1.779-2.772,1.762s-5.921.5-6.81.021S46.521,174,46.521,174" transform="translate(-7.29 -25.32)" fill="#ff9e77"/>
        <path id="Trazado_216049" data-name="Trazado 216049" d="M83.891,193.944a5.317,5.317,0,0,1-.3-.776c-.086-.254-.2-.562-.345-.911s-.293-.756-.505-1.184-.418-.908-.691-1.4c-.251-.5-.569-1.01-.891-1.552a25.349,25.349,0,0,0-5.384-6.137c-.5-.39-.957-.772-1.423-1.086-.45-.334-.891-.614-1.3-.867s-.78-.465-1.108-.655-.617-.342-.858-.46a5.281,5.281,0,0,1-.73-.4,5.339,5.339,0,0,1,.773.313c.247.105.546.242.88.425s.729.369,1.135.627.864.519,1.323.849c.474.309.945.688,1.449,1.077A24.121,24.121,0,0,1,81.352,188c.32.55.634,1.067.88,1.577.267.5.479.981.669,1.423s.34.85.474,1.207a9.646,9.646,0,0,1,.307.928,5.3,5.3,0,0,1,.209.807" transform="translate(-11.025 -27.972)" fill="#ed7b54"/>
        <path id="Trazado_216050" data-name="Trazado 216050" d="M92.037,192.823a.987.987,0,0,1-.148-.211c-.086-.144-.226-.351-.375-.634a17.741,17.741,0,0,1-1.068-2.491c-.383-1.079-.749-2.391-1.183-3.832a20.425,20.425,0,0,0-1.85-4.5,11.757,11.757,0,0,0-3.291-3.529c-1.214-.884-2.38-1.6-3.269-2.324a8.284,8.284,0,0,1-1.859-1.975,4.837,4.837,0,0,1-.349-.652,1.059,1.059,0,0,1-.092-.24c.027-.013.161.316.522.838a8.8,8.8,0,0,0,1.887,1.89c.891.7,2.061,1.394,3.294,2.277a11.777,11.777,0,0,1,3.371,3.587,19.9,19.9,0,0,1,1.856,4.562c.424,1.45.772,2.762,1.13,3.842a21.164,21.164,0,0,0,.988,2.5,9.907,9.907,0,0,1,.436.89" transform="translate(-12.309 -27.019)" fill="#ed7b54"/>
        <path id="Trazado_216051" data-name="Trazado 216051" d="M97.92,189.207a.957.957,0,0,1-.074-.239l-.164-.692c-.065-.3-.149-.669-.274-1.089s-.234-.906-.419-1.425c-.17-.524-.358-1.1-.6-1.7-.219-.609-.514-1.235-.81-1.9a29.811,29.811,0,0,0-5.3-7.792c-.509-.519-.983-1.022-1.469-1.451-.466-.449-.93-.834-1.355-1.183s-.825-.648-1.171-.914-.655-.484-.912-.654l-.583-.407a.918.918,0,0,1-.194-.156.931.931,0,0,1,.221.114l.61.368c.266.159.586.362.94.622s.776.534,1.2.89.908.723,1.385,1.168c.5.425.979.927,1.5,1.445a28.638,28.638,0,0,1,5.342,7.853c.292.673.581,1.306.794,1.923.239.607.419,1.187.578,1.718.175.525.278,1.017.386,1.443s.183.8.234,1.1c.047.282.086.514.118.7a.929.929,0,0,1,.024.248" transform="translate(-13.255 -26.577)" fill="#ed7b54"/>
        <path id="Trazado_216052" data-name="Trazado 216052" d="M69.178,170.693c.006.041-.341.094-.846.312a4.056,4.056,0,0,0-2.459,3.247c-.073.546-.03.893-.071.9a1.853,1.853,0,0,1-.105-.915,3.823,3.823,0,0,1,2.571-3.4,1.851,1.851,0,0,1,.91-.147" transform="translate(-10.293 -26.744)" fill="#ed7b54"/>
        <path id="Trazado_216053" data-name="Trazado 216053" d="M75.044,165.2c.04.065-.81.6-1.647,1.5s-1.336,1.763-1.4,1.726a6.075,6.075,0,0,1,3.049-3.221" transform="translate(-11.28 -25.884)" fill="#ed7b54"/>
        <path id="Trazado_216054" data-name="Trazado 216054" d="M156.854,95.008c-.832.344-1,1.338-.988,2.238.016,1.128.3,1.31,1.22,3.2a82.335,82.335,0,0,1,3.3,8.933s-1.475,14.772-.5,18.24a5.863,5.863,0,0,0,3.835,3.931l-1.347,11.41h16.114s-.573-11.043-.919-14.41c-.366-3.56-.122-25.093-.122-25.093l-1.584-11.5L172.13,85.5a2.911,2.911,0,0,0-1.1,3.533,43.332,43.332,0,0,1,1.4,6.9L163.1,81.9s-1.833.439-1.944,3.833a3.321,3.321,0,0,0-.968,4.631c1.95,3.2,3.977,12.817,3.264,12.817l-5.788-8.5Z" transform="translate(-24.423 -12.833)" fill="#ff9e77"/>
        <path id="Trazado_216055" data-name="Trazado 216055" d="M162.352,142.932s.019-.257.073-.756.137-1.244.245-2.209c.223-1.946.549-4.8.968-8.452l.045.067a6.047,6.047,0,0,1-2.052-1.138,5.56,5.56,0,0,1-1.541-2.032,7.81,7.81,0,0,1-.565-2.69q-.084-1.421-.068-2.935c.044-4.036.357-8.548.811-13.447l0,.04c-.755-2.376-1.59-4.884-2.638-7.423-.265-.634-.547-1.266-.864-1.891a15.9,15.9,0,0,1-.92-1.937,3.839,3.839,0,0,1-.116-1.1,3.8,3.8,0,0,1,.159-1.1,1.659,1.659,0,0,1,.674-.932,3.644,3.644,0,0,1,.517-.239l.511-.212.087-.035.052.078,6.041,8.861-.218.044a9.608,9.608,0,0,0-.03-2.225,20.448,20.448,0,0,0-.385-2.252,34.979,34.979,0,0,0-1.348-4.47c-.53-1.488-1.2-2.929-1.849-4.416a3.969,3.969,0,0,1-.261-2.451,3.625,3.625,0,0,1,1.378-2.077l-.055.089a8.908,8.908,0,0,1,.514-2.17,4.33,4.33,0,0,1,.564-1.023,2.017,2.017,0,0,1,.963-.747l.078-.025.052.078.108.163,9.22,13.881-.224.083a50.789,50.789,0,0,0-.984-5.5c-.112-.444-.237-.884-.384-1.312a3.821,3.821,0,0,1-.232-1.385,3.021,3.021,0,0,1,1.364-2.353l.1-.067.063.11,3.728,6.456.011.019,0,.022q.826,6.034,1.574,11.5v.016c-.067,5.955-.1,11.4-.094,16.228.006,2.411.018,4.666.074,6.748.03,1.042.088,2.032.184,2.985.08.952.139,1.859.2,2.721.223,3.447.36,6.151.455,7.994.043.918.076,1.622.1,2.1s.022.722.022.722-.024-.245-.055-.719-.073-1.186-.13-2.1c-.114-1.842-.271-4.545-.511-7.99-.063-.861-.127-1.768-.211-2.719-.1-.945-.164-1.951-.2-2.992-.064-2.085-.084-4.34-.1-6.752-.023-4.824,0-10.273.055-16.23v.015q-.755-5.458-1.592-11.5l.014.042-3.736-6.451.164.042a2.789,2.789,0,0,0-1.246,2.16,3.591,3.591,0,0,0,.22,1.3c.151.438.277.883.39,1.332a50.8,50.8,0,0,1,.994,5.53l.069.526-.294-.443L163.08,82.1l-.108-.162.13.053a1.823,1.823,0,0,0-.817.654,4.141,4.141,0,0,0-.53.964,8.7,8.7,0,0,0-.5,2.106l-.007.054-.048.035a3.389,3.389,0,0,0-1.273,1.926,3.718,3.718,0,0,0,.249,2.3c.641,1.468,1.319,2.933,1.849,4.425a35.178,35.178,0,0,1,1.355,4.5,20.559,20.559,0,0,1,.388,2.279,9.656,9.656,0,0,1,.024,2.3l-.04.305-.177-.261c-2.086-3.066-4.114-6.049-6.031-8.867l.138.041c-.329.146-.708.271-.993.432a1.427,1.427,0,0,0-.58.809,3.594,3.594,0,0,0-.15,1.038,3.658,3.658,0,0,0,.105,1.036,15.833,15.833,0,0,0,.9,1.9c.318.628.6,1.268.868,1.905,1.049,2.554,1.879,5.063,2.63,7.448l.006.019,0,.021c-.465,4.892-.789,9.4-.846,13.427q-.021,1.51.058,2.923a7.643,7.643,0,0,0,.542,2.642,5.793,5.793,0,0,0,3.491,3.109l.051.017-.006.051c-.444,3.652-.79,6.5-1.026,8.444-.121.964-.213,1.7-.277,2.206s-.105.752-.105.752" transform="translate(-24.402 -12.805)" fill="#ed7b54"/>
        <path id="Trazado_216056" data-name="Trazado 216056" d="M170.477,105.126a5.128,5.128,0,0,1-.175-.8c-.089-.516-.245-1.257-.453-2.168a36.176,36.176,0,0,0-2.382-6.883,46.123,46.123,0,0,0-3.63-6.329c-.521-.777-.955-1.4-1.257-1.826a5.076,5.076,0,0,1-.446-.682,5.061,5.061,0,0,1,.525.624c.327.411.783,1.018,1.324,1.784a40.556,40.556,0,0,1,3.711,6.323,32.682,32.682,0,0,1,2.328,6.951c.186.921.318,1.67.376,2.192a5.391,5.391,0,0,1,.078.811" transform="translate(-25.405 -13.545)" fill="#ed7b54"/>
        <path id="Trazado_216057" data-name="Trazado 216057" d="M177.565,103.4a15.3,15.3,0,0,1-1.178-2.5,15.4,15.4,0,0,1-.947-2.6,15.257,15.257,0,0,1,1.178,2.5,15.282,15.282,0,0,1,.947,2.6" transform="translate(-27.489 -15.403)" fill="#ed7b54"/>
        <path id="Trazado_216058" data-name="Trazado 216058" d="M160.06,148.336h0c-2.827,24.959-6.509,51.529-10.743,79.133h32.8c6.167-13.656,2.4-25.57.751-42.552l-5.409-38.556Z" transform="translate(-23.397 -22.934)" fill="#f37409"/>
        <path id="Trazado_216059" data-name="Trazado 216059" d="M149.317,230.954a.814.814,0,0,1,.012-.163c.014-.12.034-.276.058-.473.059-.432.143-1.041.25-1.817l.969-6.676c.83-5.648,1.973-13.426,3.236-22.017,1.237-8.6,2.283-16.4,2.973-22.056.35-2.825.616-5.115.8-6.7l.213-1.822c.025-.2.046-.353.062-.473a.8.8,0,0,1,.03-.16.744.744,0,0,1,0,.163c-.009.121-.021.277-.037.476-.039.433-.1,1.046-.166,1.827-.15,1.586-.389,3.878-.717,6.708-.644,5.66-1.663,13.465-2.9,22.07s-2.435,16.38-3.309,22.008l-1.047,6.664c-.127.774-.226,1.381-.3,1.811l-.083.47a.777.777,0,0,1-.037.159" transform="translate(-23.397 -26.419)" fill="#1a2e35"/>
        <path id="Trazado_216060" data-name="Trazado 216060" d="M216.212,229.337H122.676l12.069-65.646a4.907,4.907,0,0,1,4.825-4.019h84.046a4.907,4.907,0,0,1,4.819,5.83Z" transform="translate(-19.222 -25.019)" fill="#375a64"/>
        <path id="Trazado_216061" data-name="Trazado 216061" d="M116.084,241.411H80.606l.143-.107a19.185,19.185,0,0,1,10.94-3.828l25.37-.746Z" transform="translate(-12.63 -37.094)" fill="#375a64"/>
        <path id="Trazado_216062" data-name="Trazado 216062" d="M145.772,159.754c0,.024-.261-.048-.756-.052a4.655,4.655,0,0,0-2.078.516,6.407,6.407,0,0,0-2.493,2.268,12.067,12.067,0,0,0-1.527,4.244c-.305,1.66-.574,3.5-.906,5.471s-.7,4.068-1.112,6.273c-.815,4.412-1.78,9.249-2.83,14.319-2.112,10.138-4.067,19.3-5.346,25.966-.643,3.33-1.14,6.03-1.476,7.9-.166.914-.3,1.633-.391,2.15-.045.229-.082.412-.11.557a.782.782,0,0,1-.049.188.765.765,0,0,1,.014-.194c.019-.146.045-.331.076-.563.078-.519.187-1.241.326-2.16.3-1.875.755-4.583,1.367-7.919,1.217-6.677,3.135-15.855,5.246-25.992,1.05-5.067,2.025-9.9,2.856-14.307.422-2.2.793-4.3,1.144-6.262s.625-3.8.949-5.471a12.132,12.132,0,0,1,1.606-4.3,6.477,6.477,0,0,1,2.6-2.285,4.563,4.563,0,0,1,2.139-.463,2.749,2.749,0,0,1,.755.122" transform="translate(-19.852 -25.013)" fill="#1a2e35"/>
        <path id="Trazado_216063" data-name="Trazado 216063" d="M194.479,198.385a4.522,4.522,0,1,1-4.523-4.523,4.523,4.523,0,0,1,4.523,4.523" transform="translate(-29.056 -30.377)" fill="#f5f5f5"/>
        <path id="Trazado_216064" data-name="Trazado 216064" d="M220.008,242.348c0,.069-49.254.126-110,.126C49.244,242.473,0,242.417,0,242.348s49.244-.126,110.009-.126c60.744,0,110,.057,110,.126" transform="translate(0 -37.954)" fill="#1a2e35"/>
        <path id="Trazado_216065" data-name="Trazado 216065" d="M103.867,34.263,102.583,22.18l-6.164,1.391L91.11,14.191l3.308,12.684,6.251-1.434Z" transform="translate(-14.276 -2.224)" fill="#f37409"/>
        <path id="Trazado_216066" data-name="Trazado 216066" d="M100.444,39.606l-5.727-5.895-2.7,3.313-6.742-2.776,7.056,5.369,2.728-3.372Z" transform="translate(-13.362 -5.282)" fill="#f37409"/>
        <path id="Trazado_216067" data-name="Trazado 216067" d="M176.662,44.635l5.2-9.469,4.578,3.259,7.578-5.871-7.071,9.268L182.315,38.5Z" transform="translate(-27.682 -5.101)" fill="#f37409"/>
        <path id="Trazado_216068" data-name="Trazado 216068" d="M187.988,52.859l5.382-2.3.861,2.918,5.191.03L193.312,55.1l-.865-2.965Z" transform="translate(-29.456 -7.923)" fill="#f37409"/>
        <path id="Trazado_216069" data-name="Trazado 216069" d="M140.81,8.967s.216-.137.648-.4a18.116,18.116,0,0,1,2.006-1.006,19.483,19.483,0,0,1,8.512-1.569c.476.023.967.052,1.467.12a9.515,9.515,0,0,1,1.53.279,6.358,6.358,0,0,1,1.518.618A3.34,3.34,0,0,1,157.728,8.2a2.577,2.577,0,0,1,.3,1.763,3.526,3.526,0,0,1-.891,1.648,8.2,8.2,0,0,1-3.38,2.047,21.091,21.091,0,0,1-8.7,1.245,21.262,21.262,0,0,1-9.477-2.909l-.068-.04.042-.068a13.067,13.067,0,0,1,5-4.588A17.461,17.461,0,0,1,147.509,5.3a26.8,26.8,0,0,1,7.65.619c1.287.276,2.576.618,3.864,1.016A22.053,22.053,0,0,1,162.851,8.4a7.424,7.424,0,0,1,3.083,2.821,5.114,5.114,0,0,1,.67,2.045,4.34,4.34,0,0,1-.354,2.145,6.686,6.686,0,0,1-3.127,3.022,17.281,17.281,0,0,1-4.214,1.477,44,44,0,0,1-18.543.472c-.4-.066-.79-.161-1.186-.244s-.791-.174-1.184-.276a15.34,15.34,0,0,1-2.344-.718,7.755,7.755,0,0,1-2.142-1.256,3.674,3.674,0,0,1-1.294-2.139,3.4,3.4,0,0,1,.538-2.458,6.746,6.746,0,0,1,1.8-1.795,13.869,13.869,0,0,1,2.22-1.243c.379-.192.77-.358,1.163-.523s.784-.332,1.188-.474A30.521,30.521,0,0,1,154.538,7.7c.439.065.876.139,1.31.237s.872.177,1.3.3a15.257,15.257,0,0,1,2.556.826,8.6,8.6,0,0,1,2.311,1.418,4.5,4.5,0,0,1,1.456,2.306l.071.342.028.348a3.936,3.936,0,0,1-.015.7,4.237,4.237,0,0,1-.4,1.332,6.614,6.614,0,0,1-1.741,2.136,12.111,12.111,0,0,1-2.309,1.514c-.408.215-.832.4-1.255.579s-.848.358-1.278.524a37.779,37.779,0,0,1-5.309,1.631,38.845,38.845,0,0,1-11.181.923,13.062,13.062,0,0,1-5.5-1.446,6,6,0,0,1-2.149-1.925,4.635,4.635,0,0,1-.694-2.81,5.068,5.068,0,0,1,.783-2.252,8.184,8.184,0,0,1,1.546-1.795,14.158,14.158,0,0,1,4.01-2.413,28.49,28.49,0,0,1,13.56-2.132c.759.067,1.515.163,2.263.293a12.683,12.683,0,0,1,2.218.535,7.955,7.955,0,0,1,2.042,1.02,4.112,4.112,0,0,1,1.471,1.746,3.178,3.178,0,0,1,.074,2.273,4.44,4.44,0,0,1-1.276,1.873,9.227,9.227,0,0,1-4.064,1.793c-1.431.339-2.855.677-4.278.991a62.767,62.767,0,0,1-8.553,1.384,30.673,30.673,0,0,1-8.476-.408,20.755,20.755,0,0,1-7.672-3.129l-.124-.084.112-.1a26.8,26.8,0,0,1,13.841-6.281A26.382,26.382,0,0,1,153.571,11.8a6.966,6.966,0,0,1,1.5.978,3.483,3.483,0,0,1,1.041,1.457,2.5,2.5,0,0,1-.084,1.779,3.619,3.619,0,0,1-1.136,1.351,10.594,10.594,0,0,1-3.117,1.455,22.108,22.108,0,0,1-3.288.781,21.35,21.35,0,0,1-6.574,0,3.237,3.237,0,0,1-1.519-.614,1.6,1.6,0,0,1-.555-1.517,2.762,2.762,0,0,1,.842-1.374,5.428,5.428,0,0,1,1.3-.909,22.684,22.684,0,0,1,11.725-1.838,10.452,10.452,0,0,1,2.774.638,5.017,5.017,0,0,1,2.232,1.651,3.72,3.72,0,0,1,.767,2.589,3.564,3.564,0,0,1-1.347,2.26,13.551,13.551,0,0,1-2.161,1.409,21.153,21.153,0,0,1-2.269,1.063,21.868,21.868,0,0,1-4.619,1.277,21.367,21.367,0,0,1-8.657-.377l-.089-.023.054-.074a10.4,10.4,0,0,1,4.815-3.594,10.22,10.22,0,0,1,5.255-.517,5.376,5.376,0,0,1,2.22.833,2.949,2.949,0,0,1,.786.8,2.366,2.366,0,0,1,.354,1.014A2.878,2.878,0,0,1,153.3,24.2a5.2,5.2,0,0,1-1.241,1.285,10.626,10.626,0,0,1-2.661,1.293,14.405,14.405,0,0,0-1.95.868,5.411,5.411,0,0,0-1.046.756c-.11.1-.178.18-.231.231s-.078.077-.078.077a3.951,3.951,0,0,1,.3-.32,5.234,5.234,0,0,1,1.041-.774,14.261,14.261,0,0,1,1.949-.885,10.638,10.638,0,0,0,2.64-1.3,5.159,5.159,0,0,0,1.219-1.273,2.809,2.809,0,0,0,.509-1.845,2.309,2.309,0,0,0-.345-.977,2.884,2.884,0,0,0-.766-.775,5.29,5.29,0,0,0-2.186-.811,10.121,10.121,0,0,0-5.2.526,10.28,10.28,0,0,0-4.752,3.563l-.035-.1a21.261,21.261,0,0,0,8.6.357,21.721,21.721,0,0,0,4.585-1.277,20.762,20.762,0,0,0,2.251-1.059,13.394,13.394,0,0,0,2.131-1.394,3.4,3.4,0,0,0,1.288-2.157,3.551,3.551,0,0,0-.739-2.471,4.844,4.844,0,0,0-2.161-1.592,10.324,10.324,0,0,0-2.73-.623,22.517,22.517,0,0,0-11.62,1.833,5.224,5.224,0,0,0-1.251.878,2.566,2.566,0,0,0-.786,1.273,1.4,1.4,0,0,0,.491,1.331,3.048,3.048,0,0,0,1.429.57,21.184,21.184,0,0,0,6.508-.009,22.006,22.006,0,0,0,3.256-.777,10.418,10.418,0,0,0,3.054-1.425,3.412,3.412,0,0,0,1.07-1.269,2.292,2.292,0,0,0,.076-1.627,3.262,3.262,0,0,0-.981-1.364,6.749,6.749,0,0,0-1.456-.946,26.177,26.177,0,0,0-14.227-1.823A26.574,26.574,0,0,0,125.53,16.4l-.012-.184a20.528,20.528,0,0,0,7.586,3.088,30.478,30.478,0,0,0,8.41.4,62.725,62.725,0,0,0,8.52-1.382c1.42-.314,2.844-.652,4.272-.992a9,9,0,0,0,3.958-1.737,4.207,4.207,0,0,0,1.206-1.768,2.93,2.93,0,0,0-.068-2.1,3.872,3.872,0,0,0-1.387-1.64,7.732,7.732,0,0,0-1.979-.987,12.485,12.485,0,0,0-2.178-.525c-.741-.129-1.491-.224-2.243-.29A28.247,28.247,0,0,0,138.175,10.4a13.909,13.909,0,0,0-3.941,2.37,6.093,6.093,0,0,0-2.246,3.881,4.387,4.387,0,0,0,.655,2.653A5.757,5.757,0,0,0,134.7,21.15a12.822,12.822,0,0,0,5.392,1.415,38.624,38.624,0,0,0,11.109-.916,37.446,37.446,0,0,0,5.275-1.62c.428-.164.852-.334,1.27-.519s.838-.36,1.24-.572a11.888,11.888,0,0,0,2.263-1.482,6.369,6.369,0,0,0,1.678-2.055,4.014,4.014,0,0,0,.381-1.254,3.678,3.678,0,0,0,.013-.654l-.026-.326-.066-.321a4.262,4.262,0,0,0-1.38-2.181,8.4,8.4,0,0,0-2.245-1.377,15.1,15.1,0,0,0-2.518-.814c-.426-.12-.859-.206-1.291-.294s-.864-.171-1.3-.236A30.313,30.313,0,0,0,139.2,9.48c-.4.141-.793.3-1.179.47s-.778.328-1.154.519a13.667,13.667,0,0,0-2.186,1.221,6.512,6.512,0,0,0-1.736,1.73,3.169,3.169,0,0,0-.506,2.293,3.444,3.444,0,0,0,1.217,2.005,7.539,7.539,0,0,0,2.078,1.218,15.2,15.2,0,0,0,2.312.71c.391.1.783.195,1.177.275s.783.178,1.179.243a43.8,43.8,0,0,0,18.452-.457,17.022,17.022,0,0,0,4.167-1.456,6.487,6.487,0,0,0,3.038-2.92,4.15,4.15,0,0,0,.34-2.045,4.942,4.942,0,0,0-.643-1.964,7.239,7.239,0,0,0-3-2.747,21.815,21.815,0,0,0-3.792-1.455q-1.924-.6-3.846-1.017a26.654,26.654,0,0,0-7.6-.624,17.292,17.292,0,0,0-6.892,1.964,12.909,12.909,0,0,0-4.942,4.523l-.026-.11a21.1,21.1,0,0,0,9.4,2.9,20.969,20.969,0,0,0,8.645-1.219,8.081,8.081,0,0,0,3.339-2.008,3.417,3.417,0,0,0,.868-1.591,2.473,2.473,0,0,0-.282-1.689,3.246,3.246,0,0,0-1.2-1.155,6.267,6.267,0,0,0-1.493-.612,9.273,9.273,0,0,0-1.515-.281c-.5-.069-.985-.1-1.459-.125A19.568,19.568,0,0,0,143.481,7.6a19.027,19.027,0,0,0-2.012.985c-.434.255-.659.38-.659.38" transform="translate(-19.628 -0.821)" fill="#1a2e35"/>
      </g>
    </g>
  </g>
</svg>
