<svg id="Grupo_150057" data-name="Grupo 150057" xmlns="http://www.w3.org/2000/svg" xmlns:xlink="http://www.w3.org/1999/xlink" width="247.824" height="166.657" viewBox="0 0 247.824 166.657">
  <defs>
    <clipPath id="clip-path">
      <rect id="Rectángulo_45476" data-name="Rectángulo 45476" width="247.824" height="166.657" fill="none"/>
    </clipPath>
    <clipPath id="clip-path-3">
      <rect id="Rectángulo_45463" data-name="Rectángulo 45463" width="37.673" height="40.406" fill="none"/>
    </clipPath>
  </defs>
  <g id="Grupo_150056" data-name="Grupo 150056" clip-path="url(#clip-path)">
    <rect id="Rectángulo_45447" data-name="Rectángulo 45447" width="223.585" height="1.099" transform="translate(11.465 125.201)" fill="#c3c3c3"/>
    <rect id="Rectángulo_45448" data-name="Rectángulo 45448" width="51.99" height="51.99" transform="translate(12.314 0.001)" fill="#edecec"/>
    <rect id="Rectángulo_45449" data-name="Rectángulo 45449" width="44.913" height="44.913" transform="translate(15.853 3.539)" fill="#c3c3c3"/>
    <rect id="Rectángulo_45450" data-name="Rectángulo 45450" width="40.25" height="40.25" transform="translate(18.185 5.871)" fill="#edecec"/>
    <rect id="Rectángulo_45451" data-name="Rectángulo 45451" width="51.99" height="51.99" transform="translate(183.519 0.001)" fill="#edecec"/>
    <rect id="Rectángulo_45452" data-name="Rectángulo 45452" width="44.913" height="44.913" transform="translate(187.058 3.539)" fill="#c3c3c3"/>
    <rect id="Rectángulo_45453" data-name="Rectángulo 45453" width="40.25" height="40.25" transform="translate(189.389 5.871)" fill="#edecec"/>
    <rect id="Rectángulo_45454" data-name="Rectángulo 45454" width="51.99" height="51.99" transform="translate(69.412 0.001)" fill="#edecec"/>
    <rect id="Rectángulo_45455" data-name="Rectángulo 45455" width="44.913" height="44.913" transform="translate(72.951 3.539)" fill="#c3c3c3"/>
    <rect id="Rectángulo_45456" data-name="Rectángulo 45456" width="40.25" height="40.25" transform="translate(75.283 5.871)" fill="#edecec"/>
    <rect id="Rectángulo_45457" data-name="Rectángulo 45457" width="2.15" height="6.89" transform="translate(110.806 21.76)" fill="#c3c3c3"/>
    <rect id="Rectángulo_45458" data-name="Rectángulo 45458" width="8.459" height="2.292" transform="matrix(0.864, -0.504, 0.504, 0.864, 103.735, 28.141)" fill="#c3c3c3"/>
    <rect id="Rectángulo_45459" data-name="Rectángulo 45459" width="51.99" height="51.99" transform="translate(126.51 0.001)" fill="#edecec"/>
    <rect id="Rectángulo_45460" data-name="Rectángulo 45460" width="44.913" height="44.913" transform="translate(130.049 3.539)" fill="#c3c3c3"/>
    <rect id="Rectángulo_45461" data-name="Rectángulo 45461" width="40.25" height="40.25" transform="translate(132.38 5.871)" fill="#edecec"/>
    <rect id="Rectángulo_45462" data-name="Rectángulo 45462" width="2.15" height="6.89" transform="translate(134.957 21.76)" fill="#c3c3c3"/>
    <g id="Grupo_150044" data-name="Grupo 150044">
      <g id="Grupo_150043" data-name="Grupo 150043" clip-path="url(#clip-path)">
        <g id="Grupo_150042" data-name="Grupo 150042" transform="translate(132.535 5.871)" opacity="0.4">
          <g id="Grupo_150041" data-name="Grupo 150041">
            <g id="Grupo_150040" data-name="Grupo 150040" clip-path="url(#clip-path-3)">
              <path id="Trazado_216070" data-name="Trazado 216070" d="M268.407,10.721S258,12.689,255.321,20.64s-13.283,21.306-13.283,21.306v9.026l8.1.156s12.541-4.645,12.956-14.518-3.08-12.788,4.366-15.7,12.251-10.184,12.251-10.184Z" transform="translate(-242.038 -10.721)" fill="#fff"/>
            </g>
          </g>
        </g>
      </g>
    </g>
    <rect id="Rectángulo_45465" data-name="Rectángulo 45465" width="2.292" height="8.459" transform="matrix(0.504, -0.864, 0.864, 0.504, 135.716, 25.859)" fill="#c3c3c3"/>
    <g id="Grupo_150055" data-name="Grupo 150055">
      <g id="Grupo_150054" data-name="Grupo 150054" clip-path="url(#clip-path)">
        <path id="Trazado_216071" data-name="Trazado 216071" d="M140.234,164.48H98.473a2.79,2.79,0,0,1,0-5.581h41.761a2.79,2.79,0,1,1,0,5.581" transform="translate(-43.289 -71.89)" fill="#c3c3c3"/>
        <rect id="Rectángulo_45466" data-name="Rectángulo 45466" width="40.548" height="29.639" transform="translate(55.791 92.59)" fill="#edecec"/>
        <path id="Trazado_216072" data-name="Trazado 216072" d="M136.53,186.429H114.617a5.187,5.187,0,0,1,0-10.374H136.53a5.187,5.187,0,0,1,0,10.374" transform="translate(-49.509 -79.651)" fill="#c3c3c3"/>
        <path id="Trazado_216073" data-name="Trazado 216073" d="M136.53,210.022H114.617a5.187,5.187,0,0,1,0-10.374H136.53a5.187,5.187,0,0,1,0,10.374" transform="translate(-49.509 -90.325)" fill="#c3c3c3"/>
        <path id="Trazado_216074" data-name="Trazado 216074" d="M139.1,184.656a1.114,1.114,0,1,1-1.114-1.114,1.114,1.114,0,0,1,1.114,1.114" transform="translate(-61.926 -83.039)" fill="#a3a7ab"/>
        <path id="Trazado_216075" data-name="Trazado 216075" d="M139.1,208.2a1.114,1.114,0,1,1-1.114-1.114A1.114,1.114,0,0,1,139.1,208.2" transform="translate(-61.926 -93.69)" fill="#a3a7ab"/>
        <path id="Trazado_216076" data-name="Trazado 216076" d="M101.887,223.218c.744.947,2.637,2.266,2.781,3.411a2.1,2.1,0,0,1-1.452,2.17c-1.281.29-.314.484-.314.484h2.61v-6.064h-3.624" transform="translate(-46.096 -100.989)" fill="#a3a7ab"/>
        <path id="Trazado_216077" data-name="Trazado 216077" d="M172.941,223.218c-.744.947-2.637,2.266-2.781,3.411a2.1,2.1,0,0,0,1.452,2.17c1.281.29.314.484.314.484h-2.61v-6.064h3.624" transform="translate(-76.603 -100.989)" fill="#a3a7ab"/>
        <path id="Trazado_216078" data-name="Trazado 216078" d="M159.264,141.852c-1.767-1.736-2.69-3.662-2.062-4.3s2.569.25,4.336,1.987,2.689,3.662,2.062,4.3-2.57-.25-4.336-1.987" transform="translate(-71.033 -62.137)" fill="#ececec"/>
        <path id="Trazado_216079" data-name="Trazado 216079" d="M165.438,145.071a.364.364,0,0,0-.108.217,17.156,17.156,0,0,1-5.005-4.755,19.628,19.628,0,0,0,5.114,4.538" transform="translate(-72.534 -63.58)" fill="#c3c3c3"/>
        <path id="Trazado_216080" data-name="Trazado 216080" d="M174.112,141.852c1.766-1.736,2.689-3.662,2.061-4.3s-2.569.25-4.336,1.987-2.689,3.662-2.061,4.3,2.569-.25,4.336-1.987" transform="translate(-76.721 -62.137)" fill="#ececec"/>
        <path id="Trazado_216081" data-name="Trazado 216081" d="M169.324,145.071a.364.364,0,0,1,.108.217,17.147,17.147,0,0,0,5.005-4.755,19.629,19.629,0,0,1-5.113,4.538" transform="translate(-76.606 -63.58)" fill="#c3c3c3"/>
        <path id="Trazado_216082" data-name="Trazado 216082" d="M169.7,132.561c0-3.275-.96-5.929-2.145-5.929s-2.145,2.654-2.145,5.929.96,5.929,2.145,5.929,2.145-2.654,2.145-5.929" transform="translate(-74.834 -57.291)" fill="#ececec"/>
        <path id="Trazado_216083" data-name="Trazado 216083" d="M168.392,141.053a.479.479,0,0,1,.3.1c.991-5.579.26-8.822.156-9.126a25.948,25.948,0,0,1-.46,9.026" transform="translate(-76.184 -59.732)" fill="#c3c3c3"/>
        <path id="Trazado_216084" data-name="Trazado 216084" d="M162.787,154.474a7.661,7.661,0,0,0,6.385,0s2.381-3.6,0-5.981h-6.385s-2.355,1.842,0,5.981" transform="translate(-73.175 -67.182)" fill="#a3a7ab"/>
        <path id="Trazado_216085" data-name="Trazado 216085" d="M240.945,251.711c0,9.378-37.754,16.981-84.326,16.981s-84.327-7.6-84.327-16.981,37.754-16.981,84.327-16.981,84.326,7.6,84.326,16.981" transform="translate(-32.707 -106.197)" fill="#ececec"/>
        <g id="Grupo_150047" data-name="Grupo 150047" transform="translate(75.283 5.871)" opacity="0.4">
          <g id="Grupo_150046" data-name="Grupo 150046">
            <g id="Grupo_150045" data-name="Grupo 150045" clip-path="url(#clip-path-3)">
              <path id="Trazado_216086" data-name="Trazado 216086" d="M163.852,10.721s-10.408,1.968-13.085,9.919-13.283,21.306-13.283,21.306v9.026l8.1.156s12.541-4.645,12.956-14.518-3.08-12.788,4.366-15.7,12.251-10.184,12.251-10.184Z" transform="translate(-137.483 -10.721)" fill="#fff"/>
            </g>
          </g>
        </g>
        <g id="Grupo_150050" data-name="Grupo 150050" transform="translate(18.303 5.871)" opacity="0.4">
          <g id="Grupo_150049" data-name="Grupo 150049">
            <g id="Grupo_150048" data-name="Grupo 150048" clip-path="url(#clip-path-3)">
              <path id="Trazado_216087" data-name="Trazado 216087" d="M59.794,10.721S49.386,12.689,46.708,20.64,33.425,41.946,33.425,41.946v9.026l8.1.156s12.541-4.645,12.956-14.518S51.4,23.82,58.847,20.9,71.1,10.721,71.1,10.721Z" transform="translate(-33.425 -10.721)" fill="#fff"/>
            </g>
          </g>
        </g>
        <g id="Grupo_150053" data-name="Grupo 150053" transform="translate(190.142 5.871)" opacity="0.4">
          <g id="Grupo_150052" data-name="Grupo 150052">
            <g id="Grupo_150051" data-name="Grupo 150051" clip-path="url(#clip-path-3)">
              <path id="Trazado_216088" data-name="Trazado 216088" d="M373.612,10.721S363.2,12.689,360.526,20.64s-13.283,21.306-13.283,21.306v9.026l8.1.156s12.541-4.645,12.956-14.518-3.08-12.788,4.366-15.7,12.251-10.184,12.251-10.184Z" transform="translate(-347.242 -10.721)" fill="#fff"/>
            </g>
          </g>
        </g>
        <path id="Trazado_216089" data-name="Trazado 216089" d="M426.471,118.352l-1.846,8.844,1.423.308,1.845-8.806Z" transform="translate(-192.11 -53.545)" fill="#edecec"/>
        <path id="Trazado_216090" data-name="Trazado 216090" d="M429.226,115.262,428,116.954l1.423.346Z" transform="translate(-193.635 -52.147)" fill="#c3c3c3"/>
        <path id="Trazado_216091" data-name="Trazado 216091" d="M421.056,122.994l-4.375,7.9,1.269.714,4.364-7.868Z" transform="translate(-188.516 -55.645)" fill="#edecec"/>
        <path id="Trazado_216092" data-name="Trazado 216092" d="M426.346,120.705l-1.675,1.253,1.257.751Z" transform="translate(-192.131 -54.61)" fill="#c3c3c3"/>
        <path id="Trazado_216093" data-name="Trazado 216093" d="M411.3,126.083l1.846,8.844-1.423.308-1.845-8.806Z" transform="translate(-185.438 -57.043)" fill="#edecec"/>
        <path id="Trazado_216094" data-name="Trazado 216094" d="M410.071,122.994l1.23,1.692-1.423.346Z" transform="translate(-185.438 -55.645)" fill="#c3c3c3"/>
        <path id="Trazado_216095" data-name="Trazado 216095" d="M417.932,128.156l-4.378,7.9-1.278-.7,4.353-7.874Z" transform="translate(-186.523 -57.679)" fill="#edecec"/>
        <path id="Trazado_216096" data-name="Trazado 216096" d="M421.7,124.9l-.173,2.085-1.3-.667Z" transform="translate(-190.119 -56.507)" fill="#c3c3c3"/>
        <path id="Trazado_216097" data-name="Trazado 216097" d="M231.2,127.47H214.076a11.721,11.721,0,0,1,0-23.441H231.2a11.721,11.721,0,0,1,0,23.441" transform="translate(-91.55 -47.065)" fill="#edecec"/>
        <path id="Trazado_216098" data-name="Trazado 216098" d="M229.068,146.463s4.129,3.12-4.849,5.824h9.193v-5.824Z" transform="translate(-101.442 -66.263)" fill="#edecec"/>
        <path id="Trazado_216099" data-name="Trazado 216099" d="M242.129,146.463s-4.129,3.12,4.849,5.824h-9.193v-5.824Z" transform="translate(-107.58 -66.263)" fill="#edecec"/>
        <rect id="Rectángulo_45470" data-name="Rectángulo 45470" width="130.367" height="4.914" transform="translate(105.143 85.276)" fill="#c3c3c3"/>
        <rect id="Rectángulo_45471" data-name="Rectángulo 45471" width="4.332" height="39.854" transform="translate(105.143 85.74)" fill="#c3c3c3"/>
        <rect id="Rectángulo_45472" data-name="Rectángulo 45472" width="4.332" height="39.854" transform="translate(231.177 85.74)" fill="#c3c3c3"/>
        <path id="Trazado_216100" data-name="Trazado 216100" d="M200.921,154.246a3.035,3.035,0,0,1,2.683-1.8,2.828,2.828,0,0,1,2.584,1.8Z" transform="translate(-90.901 -68.97)" fill="#a3a7ab"/>
        <path id="Trazado_216101" data-name="Trazado 216101" d="M418.551,143.97h-6.019l-2.35-14.8h10.067Z" transform="translate(-185.575 -58.441)" fill="#a3a7ab"/>
        <path id="Trazado_216102" data-name="Trazado 216102" d="M316.1,158.985a30.263,30.263,0,0,1,6.748-.542,11.1,11.1,0,0,0,5.741-1.332l3.294,8.384s-11.466-.606-15.783-6.51" transform="translate(-143.01 -71.081)" fill="#f37409"/>
        <path id="Trazado_216103" data-name="Trazado 216103" d="M67.224,160.967c1.06-.242,2.465-.528,4.213-.809,4.467-.718,8.544,1.29,16.29.016.244-.041.482-.087.711-.135.093-.02.185-.041.275-.062.018,0,.032-.008.049-.011.1-.023.193-.048.287-.073s.208-.056.309-.086.2-.059.3-.091.2-.064.292-.1.188-.066.282-.1.164-.063.245-.1c.161-.065.318-.134.469-.2.082-.037.161-.074.238-.114s.139-.068.206-.1.144-.076.214-.115.135-.076.2-.116c.016-.01.035-.019.052-.03.038-.024.077-.045.113-.07.07-.042.139-.087.205-.13s.13-.086.194-.13c.131-.091.261-.187.385-.284.094-.071.183-.145.271-.22.019-.013.035-.028.051-.042s.018-.015.027-.024c.165-.145.324-.291.476-.442.1-.1.194-.2.287-.3a9.318,9.318,0,0,0,.667-.831c-.319-.226-.931-.916-1.746-3.023-1.219-3.17-1.985-5.6-3.282-7.5s-11.99-7.655-12.349-4.242c0,0,.32,10.438-9.933,19.462" transform="translate(-30.414 -63.54)" fill="#ec9681"/>
        <path id="Trazado_216104" data-name="Trazado 216104" d="M76.016,123.048,72.2,107.118s-4.756,0-5.51-3.294,3.028-5.181,4.833-4.938L73.674,81.12l19.31-2.773,5.823,1.5,3.354,26.38s1.064,11.39-8.6,12.382l.5,6.044,2.05,10.344-9.18.755-12.8-5.073Z" transform="translate(-30.126 -35.446)" fill="#ec9681"/>
        <path id="Trazado_216105" data-name="Trazado 216105" d="M113.371,118.8a10.839,10.839,0,0,1-1.424.153l-.013-.393c.732-.025,2.733-.243,3.2-.937a.55.55,0,0,0,.051-.532c-.557-1.555-5.244-8.708-5.292-8.779l.329-.216c.194.3,4.76,7.264,5.333,8.863a.951.951,0,0,1-.1.886,3.347,3.347,0,0,1-2.093.957" transform="translate(-49.72 -48.905)"/>
        <path id="Trazado_216106" data-name="Trazado 216106" d="M98.576,113.657a1.1,1.1,0,1,1-1.28-.893,1.1,1.1,0,0,1,1.28.893" transform="translate(-43.607 -51.01)"/>
        <path id="Trazado_216107" data-name="Trazado 216107" d="M121.038,107.976a1.1,1.1,0,1,1-1.28-.893,1.1,1.1,0,0,1,1.28.893" transform="translate(-53.77 -48.439)"/>
        <path id="Trazado_216108" data-name="Trazado 216108" d="M74.454,124.794c-1.432-.266-2.261-.762-2.466-1.474-.3-1.062.9-2.18.949-2.227l.133.145c-.012.011-1.164,1.084-.893,2.029.182.634.96,1.083,2.312,1.334Z" transform="translate(-32.547 -54.785)" fill="#b66355"/>
        <path id="Trazado_216109" data-name="Trazado 216109" d="M116.971,106.36l-.381-.1a2.184,2.184,0,0,1,1.114-1.323,3.408,3.408,0,0,1,2.882.243l-.161.359a3.058,3.058,0,0,0-2.545-.25,1.815,1.815,0,0,0-.91,1.07" transform="translate(-52.748 -47.376)"/>
        <path id="Trazado_216110" data-name="Trazado 216110" d="M94.617,112.026l-.381-.1A2.184,2.184,0,0,1,95.35,110.6a3.408,3.408,0,0,1,2.882.243l-.161.359a3.058,3.058,0,0,0-2.545-.25,1.815,1.815,0,0,0-.91,1.07" transform="translate(-42.634 -49.94)"/>
        <path id="Trazado_216111" data-name="Trazado 216111" d="M114.918,101.124A6.928,6.928,0,0,1,120,97.533s-4.567-1.423-5.082,3.591" transform="translate(-51.992 -44.042)"/>
        <path id="Trazado_216112" data-name="Trazado 216112" d="M90.881,104.974a6.928,6.928,0,0,1,6.185.677s-2.478-4.092-6.185-.677" transform="translate(-41.117 -46.878)"/>
        <path id="Trazado_216113" data-name="Trazado 216113" d="M105.95,133.26l.25,2.651s-3.71-.392-3.744-1.016a3.794,3.794,0,0,1,3.494-1.635" transform="translate(-46.353 -60.287)" fill="#b66355"/>
        <path id="Trazado_216114" data-name="Trazado 216114" d="M107.123,132.485s-4.269.79-5.316,2.063a31.128,31.128,0,0,0,6.209.884,13.788,13.788,0,0,1-6.993-.81s.963-1.753,6.1-2.137" transform="translate(-45.706 -59.939)"/>
        <path id="Trazado_216115" data-name="Trazado 216115" d="M118.089,246.236H107.464s-2.085-16.68-3.873-36.639-.2-20.953-.2-20.953l-5.759-7.051,1.291-.2s3.475,2.184,4.965,2.085,2.284-3.972,2.284-3.972a4.984,4.984,0,0,1,1.455-.625l-1.026,3.008.663.935a7.28,7.28,0,0,0-.6,2.739,19.537,19.537,0,0,0,1.192,8.783c1.49,3.719,3.475,11.872,4.37,19.353s5.859,32.535,5.859,32.535" transform="translate(-44.171 -80.931)" fill="#f37409"/>
        <path id="Trazado_216116" data-name="Trazado 216116" d="M131.666,216.345c-1.019.55-.488,1.037-.488,1.037a1.154,1.154,0,0,0-.911.633c-.6,1.092.183,1.688,2.476,3.277.44.3.96.62,1.52.932,0,0,.672,5.224,2.26,6.913s2.88,9.332,2.88,9.332H125.5s-4.965-25.053-5.859-32.535-2.88-15.634-4.369-19.352a19.538,19.538,0,0,1-1.192-8.783,7.267,7.267,0,0,1,.6-2.739l-.663-.935,1.026-3.008a2.625,2.625,0,0,1,.829-.071c1.092.1,4.767,4.014,4.767,4.014l-3.176-13.345c.164.262,10.651,17.029,14.1,23.432,3.475,6.455,12.5,20,12.5,20a10.222,10.222,0,0,0-1.274,2.44,11.446,11.446,0,0,0-6.893,7.543c-.575.135-1.126.269-1.624.393a4.529,4.529,0,0,0-1.52-1.309,2.992,2.992,0,0,0-2.667-.073c-.9.5,1.591,2.2,1.591,2.2" transform="translate(-51.582 -73.163)" fill="#fff"/>
        <path id="Trazado_216117" data-name="Trazado 216117" d="M174.9,283.6H156.132s-1.291-7.644-2.88-9.332-2.26-6.912-2.26-6.912a23.887,23.887,0,0,0,6.133,2.543c.894,0,3.475-1.192,4.766-1.192s2.979-1.787,2.979-1.787a2.632,2.632,0,0,0,1.887-1.291c4.269.1,3.042-3.671,3.042-3.671.539-.17,1.037-.332,1.47-.482Z" transform="translate(-68.312 -118.3)" fill="#f37409"/>
        <rect id="Rectángulo_45473" data-name="Rectángulo 45473" width="2.194" height="0.138" transform="translate(13.852 165.236)" fill="#93acb2"/>
        <path id="Trazado_216118" data-name="Trazado 216118" d="M44.783,156.235l-1.658,3.149-2.894,1.825a2.914,2.914,0,0,0-.649-.812c-1.072-.626-2.109,1.772-2.531,2.531a32.076,32.076,0,0,0-1.772,5.485c-.084.548-.337,1.158-.443,2.022,0,0-2,6.076-2.856,9.79S28.7,202.67,28.7,202.67s-.559,4.049-1.131,8.661c-.649,5.217-1.32,11.155-1.23,12.767.169,3.037,6.243,9.871,6.243,9.871l-1.266,2.021H18.827s-.338-5.4-.422-9.108.422-18.561.422-18.561l-.59,1.181c-.592,1.182-1.1,7.256-1.182,14.681s-.422,11.807-.422,11.807H6.148s3.328-26.378,3.328-33.7,1.553-26.849,11.539-32.84c1.535-.922,3.138-1.852,4.751-2.77l2.4-1.348c8.071-4.492,15.7-8.309,15.7-8.309s.374-.285.914-.787" transform="translate(-2.781 -70.684)" fill="#f37409"/>
        <path id="Trazado_216119" data-name="Trazado 216119" d="M44.373,172.849l-2.4,1.348q1.2-.681,2.4-1.348" transform="translate(-18.99 -78.201)" fill="#628289"/>
        <path id="Trazado_216120" data-name="Trazado 216120" d="M94.8,76.71a5.854,5.854,0,0,1-.677,0C90.88,76.5,87.02,74.5,86.01,74.27a16.877,16.877,0,0,0-8.482-.095c-3.018.9-4.977,3.045-6.764,5.521a8.122,8.122,0,0,0-1.27,2.3c-.653,2.125-.29,4.4-.652,6.573a6.191,6.191,0,0,1-.9,2.558,10.28,10.28,0,0,1-2.021,1.408c.2-3.855-3.652-9.333-6.291-11.564s-5.477-9.74,2.841-17.652c5.478-5.072,8.115-4.871,8.115-4.871s3.855-4.666,14-1.42S96.763,64.531,97.778,69.6c.941,4.7-.213,6.965-2.975,7.106" transform="translate(-25.764 -25.279)" fill="#1b2e35"/>
        <path id="Trazado_216121" data-name="Trazado 216121" d="M67.282,172.964l-.114-.077.019-.029.112.081Z" transform="translate(-30.388 -78.205)" fill="#93acb2"/>
        <path id="Trazado_216122" data-name="Trazado 216122" d="M75.61,155.043a82.845,82.845,0,0,0-6.586,5.593c-.3.3-1.454,1.981-1.719,2.367.275-.425,1.5-2.483.6-4.169l2.893-1.825,1.658-3.149a27.694,27.694,0,0,0,2.709-2.874c.1.39.646,2.415.646,2.415a1.588,1.588,0,0,1-.2,1.642" transform="translate(-30.45 -68.31)" fill="#fff"/>
        <path id="Trazado_216123" data-name="Trazado 216123" d="M67.217,173.017l-.114-.078.036-.052.019-.029.112.081Z" transform="translate(-30.359 -78.205)" fill="#93acb2"/>
        <path id="Trazado_216124" data-name="Trazado 216124" d="M56.2,222.081h0v0Z" transform="translate(-25.427 -100.412)" fill="#93acb2"/>
        <path id="Trazado_216125" data-name="Trazado 216125" d="M68.014,221.612a8.138,8.138,0,0,1-2.362,2.156c-1.182.553-1.518,1.135-3.291,0a5.774,5.774,0,0,0-5.4-.3,2.243,2.243,0,0,1-2.278,0s.077-.6.216-1.608h0c-.04-.029-.9-.614-1.313,1.694a11.646,11.646,0,0,0-.066,4.532v0a1.932,1.932,0,0,0,.741,1.2l1.1.675a3.764,3.764,0,0,0,3.544,2.278c2.615-.084,4.134-1.35,4.3-2.109,1.1.421,2.317-.928,3.183-1.6a10.74,10.74,0,0,0,1.771-2.179h0c.171-.261.277-.435.277-.435s.422-4.473-.422-4.3m-8.733,9.894a4.072,4.072,0,1,1,4.071-4.071,4.072,4.072,0,0,1-4.071,4.071" transform="translate(-24.126 -100.26)" fill="#f37409"/>
        <path id="Trazado_216126" data-name="Trazado 216126" d="M67.223,248.565a3.215,3.215,0,0,1-2.153,1.265c-1.2,0-9.174-3.289-10.693-4.134s-3.966-5.569-3.966-5.569l1.791-8.122a1.935,1.935,0,0,0,.74,1.2l1.1.674a3.764,3.764,0,0,0,3.544,2.278c2.615-.084,4.133-1.35,4.3-2.109,1.1.421,2.317-.928,3.183-1.6a10.688,10.688,0,0,0,1.771-2.179,59.933,59.933,0,0,0-.145,7.748c.161,1.833.331,5.627.433,8.129.057,1.415.094,2.418.094,2.418" transform="translate(-22.808 -104.179)" fill="#ec9681"/>
        <path id="Trazado_216127" data-name="Trazado 216127" d="M88.508,172.379s-3.674-3.914-4.767-4.013a2.6,2.6,0,0,0-.828.07,4.968,4.968,0,0,0-1.455.625s-.794,3.873-2.284,3.972-4.965-2.085-4.965-2.085l-1.291.2,5.759,7.051s-1.589.993.2,20.953,3.873,36.639,3.873,36.639H47.989l1.266-2.021s-6.075-6.834-6.243-9.871c-.09-1.613.58-7.55,1.23-12.767.572-4.612,1.131-8.661,1.131-8.661s2.432-18.733,3.283-22.446,2.856-9.79,2.856-9.79a8.06,8.06,0,0,0,.442,3.546c1.012,3.122.962,3.881.776,5.737s-.945,2.616-1.62,6.75c-.386,2.369-.691,4.462-.88,5.816-.04-.029-.9-.614-1.313,1.694a11.649,11.649,0,0,0-.066,4.532h0l-1.79,8.122s2.447,4.725,3.965,5.569,9.49,4.134,10.693,4.134a3.214,3.214,0,0,0,2.153-1.265s-.036-1-.094-2.418c-.1-2.5-.272-6.3-.433-8.129a59.879,59.879,0,0,1,.145-7.748v0c.171-.261.277-.434.277-.434s.422-4.473-.422-4.3c0,0-1.1-6.5.844-8.69a92.7,92.7,0,0,0,6.412-8.437,17.114,17.114,0,0,0,2.07-5.822c3.167,2.7,4.68,1.519,7.578,0s2.206-11.07,3.049-13.094c0,0,1.529,1.24,2.032,1.693v1.55Z" transform="translate(-19.456 -70.484)" fill="#fff"/>
        <path id="Trazado_216128" data-name="Trazado 216128" d="M77.564,159.576l-.148.322v0c-.1.29-.2.577-.281.873-.056.206-.092.418-.139.626,0,.036-.007.072-.009.108-.013.232-.013.463,0,.694,0,.032,0,.064.007.1.125.432.183.888.332,1.318.025.074.053.146.081.219.067.144.125.3.194.435.223.455.467.9.721,1.338.433.747.908,1.469,1.4,2.177q.369.53.754,1.048c.064.085.129.17.194.255l.21.263q.83,1.028,1.733,1.992c.634.674,1.3,1.322,1.992,1.932q.319.28.647.549l.062.05c.312.211.609.451.923.66.081.054.164.1.245.156l.044-.066a17.118,17.118,0,0,0,2.07-5.821c.461-1.688-.8-2.363-2.07-1.773,1.94-2.953,2.537-5.652-1.557-5.231.461-2.363-1.228-2.869-3.084-2.193a2.37,2.37,0,0,0-3.2-2.278,3.63,3.63,0,0,0-.7.578,4.23,4.23,0,0,1-.408,1.668" transform="translate(-34.826 -71.092)" fill="#b66355"/>
        <path id="Trazado_216129" data-name="Trazado 216129" d="M78.462,170.064a17.112,17.112,0,0,1-2.07,5.821,92.517,92.517,0,0,1-6.412,8.438c-1.941,2.193-.844,8.69-.844,8.69a8.138,8.138,0,0,1-2.362,2.156c-1.182.553-1.518,1.135-3.291,0a5.775,5.775,0,0,0-5.4-.3,2.243,2.243,0,0,1-2.278,0s.077-.6.216-1.608v0c.189-1.354.494-3.446.88-5.816.676-4.134,1.435-4.894,1.621-6.75s.235-2.615-.776-5.738a8.051,8.051,0,0,1-.443-3.546c.106-.864.359-1.475.443-2.022a32.076,32.076,0,0,1,1.772-5.485c.422-.758,1.459-3.157,2.531-2.53a2.907,2.907,0,0,1,.649.812c.9,1.687-.321,3.744-.6,4.169.265-.386,1.42-2.069,1.718-2.367.337-.336,3.628-4.809,4.726-5.4a2.37,2.37,0,0,1,3.2,2.278c1.856-.676,3.544-.17,3.084,2.193,4.095-.421,3.5,2.278,1.557,5.231,1.267-.59,2.531.084,2.07,1.773" transform="translate(-25.247 -71.662)" fill="#ec9681"/>
        <path id="Trazado_216130" data-name="Trazado 216130" d="M45.264,252.97c.186-.421.4-.828.613-1.23s.446-.8.678-1.19.477-.779.731-1.159.513-.757.8-1.119c-.186.421-.395.828-.612,1.23s-.446.8-.679,1.19-.477.779-.731,1.159-.513.758-.8,1.12" transform="translate(-20.478 -112.323)" fill="#93acb2"/>
        <path id="Trazado_216131" data-name="Trazado 216131" d="M69.036,261.638l-.133-2.416,0-.057.055.018a2.052,2.052,0,0,1,.89.537,1.84,1.84,0,0,1,.29.443,2.316,2.316,0,0,1,.152.505,4.1,4.1,0,0,1,.033,1.041c-.026.345-.077.687-.136,1.025-.119.677-.269,1.345-.4,2.016-.064.335-.123.671-.171,1.007s-.085.676-.131,1.016c-.179,1.36-.4,2.715-.688,4.057a30.543,30.543,0,0,1-1.1,3.97,15.116,15.116,0,0,1-1.85,3.691A7.038,7.038,0,0,1,64.412,280a6.256,6.256,0,0,1-1.862.928,11.253,11.253,0,0,1-4.1.376,18.89,18.89,0,0,1-2.04-.273,17.263,17.263,0,0,1-1.994-.493,19.647,19.647,0,0,0,4.041.639,14.65,14.65,0,0,0,2.04-.038,9.409,9.409,0,0,0,1.988-.4,6.146,6.146,0,0,0,1.782-.922,6.793,6.793,0,0,0,1.376-1.465,14.87,14.87,0,0,0,1.8-3.638,41.031,41.031,0,0,0,1.809-7.968c.047-.338.086-.677.143-1.019s.12-.678.19-1.014c.14-.672.3-1.337.43-2.006.064-.334.12-.67.151-1.006a3.982,3.982,0,0,0-.014-1.005,2.15,2.15,0,0,0-.13-.48,1.69,1.69,0,0,0-.258-.42,1.954,1.954,0,0,0-.834-.534l.051-.039Z" transform="translate(-24.621 -117.252)" fill="#93acb2"/>
        <path id="Trazado_216132" data-name="Trazado 216132" d="M118.3,161.708l0,0c.152.551.3,1.1.442,1.658s.291,1.106.429,1.66c.278,1.109.569,2.215.834,3.327l.81,3.333.779,3.34.1.446-.312-.333c-.4-.431-.819-.853-1.233-1.276s-.839-.835-1.274-1.236c-.217-.2-.438-.4-.663-.588s-.453-.38-.692-.552c-.12-.084-.241-.168-.369-.24a1.4,1.4,0,0,0-.4-.169,2.467,2.467,0,0,0-.877.034,2.38,2.38,0,0,1,.887-.087,1.472,1.472,0,0,1,.425.157c.134.067.261.146.388.226a13.031,13.031,0,0,1,1.41,1.1c.449.39.885.794,1.315,1.2s.848.833,1.26,1.263l-.208.112-.809-3.333-.778-3.34c-.264-1.112-.5-2.231-.754-3.346-.126-.558-.246-1.117-.365-1.676s-.239-1.118-.352-1.679Z" transform="translate(-52.429 -73.16)" fill="#93acb2"/>
        <path id="Trazado_216133" data-name="Trazado 216133" d="M169.588,242.054l.894,5.859h-9.434a64.845,64.845,0,0,0-7.092,1.386,11.446,11.446,0,0,1,6.893-7.543,10.2,10.2,0,0,1,1.274-2.44,4.431,4.431,0,0,1,3-2.029c2.88-.3,2.483.795,3.277.795a4.738,4.738,0,0,1,1.961.79q.137.628.268,1.229l0,.006c.408,1.878-1.039,1.947-1.039,1.947" transform="translate(-69.653 -107.331)" fill="#ec9681"/>
        <path id="Trazado_216134" data-name="Trazado 216134" d="M155.132,203.423a4.741,4.741,0,0,0-1.961-.79c-.794,0-.4-1.092-3.277-.795a4.429,4.429,0,0,0-3,2.029s-9.02-13.548-12.5-20c-3.448-6.4-13.935-23.17-14.1-23.432v-1.55c1.009.911,3.5,2.456,9.334,3.524,8.739,1.6,11.817,1.5,14.9,6.265s6.157,16.146,8.242,24.557c.816,3.293,1.648,6.956,2.358,10.195" transform="translate(-54.427 -71.882)" fill="#f37409"/>
        <path id="Trazado_216135" data-name="Trazado 216135" d="M185.185,250.284H183.4l-.894-5.859s1.447-.069,1.038-1.948c.963,4.438,1.643,7.806,1.643,7.806" transform="translate(-82.569 -109.703)" fill="#f37409"/>
        <path id="Trazado_216136" data-name="Trazado 216136" d="M147.37,258.611c-.6.151-1.12.29-1.52.405a5.529,5.529,0,0,0-1.075.416s-2.493-1.706-1.592-2.2a2.992,2.992,0,0,1,2.667.073,4.528,4.528,0,0,1,1.52,1.309" transform="translate(-64.69 -116.251)" fill="#ec9681"/>
        <path id="Trazado_216137" data-name="Trazado 216137" d="M169.954,258.819a14.389,14.389,0,0,1-1.346.514c-.433.15-.931.312-1.47.481-3.564,1.124-8.9,2.579-8.9,2.579a10.434,10.434,0,0,1-4.369,0,25.2,25.2,0,0,1-3.873-.993,2.321,2.321,0,0,0-1.787,0,5.471,5.471,0,0,0-2.961-1.03s-.531-.487.488-1.038a5.564,5.564,0,0,1,1.076-.415c.4-.116.923-.255,1.52-.405.5-.124,1.048-.258,1.624-.393a64.771,64.771,0,0,1,7.092-1.386h12.909s1.887,1.192,0,2.085" transform="translate(-65.65 -116.152)" fill="#1b2e35"/>
        <path id="Trazado_216138" data-name="Trazado 216138" d="M163.3,266.033a2.631,2.631,0,0,1-1.887,1.291s-1.688,1.788-2.979,1.788-3.873,1.192-4.767,1.192a23.873,23.873,0,0,1-6.133-2.544c-.56-.312-1.08-.628-1.52-.932-2.292-1.589-3.071-2.185-2.476-3.277a1.155,1.155,0,0,1,.912-.633,5.476,5.476,0,0,1,2.961,1.031,2.32,2.32,0,0,1,1.788,0,25.267,25.267,0,0,0,3.872.993,10.434,10.434,0,0,0,4.369,0s5.338-1.455,8.9-2.579c0,0,1.228,3.771-3.042,3.672" transform="translate(-64.852 -118.698)" fill="#ec9681"/>
        <path id="Trazado_216139" data-name="Trazado 216139" d="M148.216,243.635c.231-.689.459-1.378.67-2.073s.425-1.388.624-2.085c.4-1.394.767-2.8,1.077-4.212.159-.706.292-1.418.436-2.131l.437-2.136q.441-2.135.935-4.258-.336,2.155-.723,4.3c-.26,1.43-.513,2.857-.815,4.284s-.7,2.829-1.14,4.215-.934,2.757-1.5,4.1" transform="translate(-67.056 -102.583)" fill="#93acb2"/>
        <path id="Trazado_216140" data-name="Trazado 216140" d="M115.76,178.882v0h.138Z" transform="translate(-52.373 -80.93)" fill="#93acb2"/>
        <path id="Trazado_216141" data-name="Trazado 216141" d="M102.361,192.719c.1,2.5.306,4.993.569,7.479s.609,4.963.9,7.45a41.486,41.486,0,0,1,.326,7.508,24.641,24.641,0,0,1-.526,3.731c-.138.613-.3,1.223-.435,1.826-.034.152-.072.3-.1.454l-.083.459c-.053.307-.119.611-.157.92a55.1,55.1,0,0,0-.517,7.461c-.013,1.249,0,2.5.02,3.749l.088,3.75c.022,2.5.145,5,.278,7.5s.281,4.994.43,7.492c-.212-2.493-.393-4.988-.565-7.484s-.307-5-.355-7.5c-.09-2.5-.163-5-.146-7.507a55.218,55.218,0,0,1,.5-7.5c.038-.312.107-.619.161-.929l.085-.463c.033-.154.072-.307.108-.46.142-.617.3-1.215.44-1.822a24.331,24.331,0,0,0,.532-3.692,43.193,43.193,0,0,0-.286-7.468c-.262-2.485-.6-4.967-.822-7.46q-.168-1.869-.285-3.743c-.076-1.249-.135-2.5-.151-3.75" transform="translate(-46.183 -87.19)" fill="#93acb2"/>
        <path id="Trazado_216142" data-name="Trazado 216142" d="M134.99,166.786l4.612,3.225-.083.008,1.57-1.65.084-.088.048.113q.968,2.276,1.953,4.545l1.964,4.54q.986,2.268,1.987,4.53l2,4.522q2.019,4.515,4.131,8.987,1.06,2.233,2.186,4.434a35.87,35.87,0,0,0,2.482,4.272,21.37,21.37,0,0,1-1.368-2.061c-.207-.357-.415-.713-.618-1.073l-.6-1.084c-.787-1.451-1.523-2.927-2.253-4.407-1.461-2.959-2.84-5.957-4.2-8.962s-2.682-6.028-3.985-9.058c-.651-1.516-1.3-3.031-1.94-4.552s-1.269-3.045-1.9-4.571l.132.025-1.594,1.627-.039.04-.044-.033Z" transform="translate(-61.073 -75.458)" fill="#b9363d"/>
        <path id="Trazado_216143" data-name="Trazado 216143" d="M29.3,214.731c.261-.815.55-1.62.863-2.416s.642-1.587,1-2.364.754-1.54,1.187-2.282l.334-.551.356-.537a4.171,4.171,0,0,0,.522-1.131,11.749,11.749,0,0,0,.377-2.506c.047-.848.043-1.7.017-2.553-.055-1.706-.2-3.409-.35-5.112s-.308-3.406-.431-5.114c-.06-.854-.11-1.71-.133-2.568-.012-.428-.016-.857-.009-1.287s.039-.86.068-1.288a23.093,23.093,0,0,1,3.135-9.711,23.656,23.656,0,0,0-1.98,4.715,23.277,23.277,0,0,0-.943,5.013,36.757,36.757,0,0,0,.114,5.107c.13,1.7.3,3.4.454,5.109s.279,3.414.326,5.129c.021.856.021,1.716-.03,2.575a11.154,11.154,0,0,1-.413,2.553,4.366,4.366,0,0,1-.567,1.18l-.36.526-.339.541c-.44.729-.839,1.484-1.215,2.251a47.336,47.336,0,0,0-1.987,4.723" transform="translate(-13.257 -79.314)" fill="#b9363d"/>
        <path id="Trazado_216144" data-name="Trazado 216144" d="M64.909,228.885a4.072,4.072,0,1,1-4.071-4.073,4.072,4.072,0,0,1,4.071,4.073" transform="translate(-25.682 -101.71)" fill="#395a68"/>
        <path id="Trazado_216145" data-name="Trazado 216145" d="M82.67,161.714a7.354,7.354,0,0,1-.487.762c-.172.246-.358.481-.546.714s-.387.458-.594.675a7.368,7.368,0,0,1-.653.626,7.391,7.391,0,0,1,.487-.763c.173-.245.359-.481.547-.713s.387-.458.594-.675a7.443,7.443,0,0,1,.653-.626" transform="translate(-36.37 -73.163)" fill="#b66355"/>
        <path id="Trazado_216146" data-name="Trazado 216146" d="M89.252,166.915a5.157,5.157,0,0,1-.3.684q-.172.329-.369.643t-.421.611a5.124,5.124,0,0,1-.486.569,5.027,5.027,0,0,1,.3-.684c.114-.22.237-.435.37-.643s.272-.412.421-.611a5.124,5.124,0,0,1,.486-.57" transform="translate(-39.664 -75.516)" fill="#b66355"/>
        <path id="Trazado_216147" data-name="Trazado 216147" d="M107.636,150.7s-4.509,1.581-10.351-1.22c0,0,2.485,2.976,10.351,3.238Z" transform="translate(-44.014 -67.63)" fill="#b66355"/>
        <path id="Trazado_216148" data-name="Trazado 216148" d="M333.841,115.912l-7.259-13.392s3.813-2.837,2.45-5.929-5.519-2.345-6.821-1.072L309.88,82.568l-17.131,9.3-3.773,4.675,13.058,23.143s5.946,9.763,14.282,4.79l3.294,7.29.114,20.7,12.139-18.215,9.71-12.859Z" transform="translate(-130.739 -37.356)" fill="#ec9681"/>
        <path id="Trazado_216149" data-name="Trazado 216149" d="M322.477,133.978a10.764,10.764,0,0,0,1.208-.766l-.234-.316c-.588.435-2.289,1.509-3.089,1.259a.55.55,0,0,1-.37-.384c-.531-1.563-1.311-10.072-1.319-10.158l-.392.036c.032.352.793,8.642,1.339,10.248a.948.948,0,0,0,.625.634,3.339,3.339,0,0,0,2.232-.553" transform="translate(-143.998 -55.925)"/>
        <path id="Trazado_216150" data-name="Trazado 216150" d="M330.007,120.985a1.1,1.1,0,1,0,.446-1.494,1.1,1.1,0,0,0-.446,1.494" transform="translate(-149.243 -54)"/>
        <path id="Trazado_216151" data-name="Trazado 216151" d="M308.9,130.506a1.1,1.1,0,1,0,.446-1.494,1.1,1.1,0,0,0-.446,1.494" transform="translate(-139.695 -58.308)"/>
        <path id="Trazado_216152" data-name="Trazado 216152" d="M355.242,113.2c.988-1.068,1.357-1.961,1.1-2.653-.39-1.033-2.021-1.211-2.09-1.218l-.02.2c.016,0,1.58.174,1.926,1.093.233.617-.123,1.441-1.056,2.449Z" transform="translate(-160.261 -49.461)" fill="#b66355"/>
        <path id="Trazado_216153" data-name="Trazado 216153" d="M332.1,145.789s-.527-4.639,4-4.855c0,0-2.2.074-4,4.855" transform="translate(-150.24 -63.762)"/>
        <path id="Trazado_216154" data-name="Trazado 216154" d="M309.793,127.019l.237-.314a2.183,2.183,0,0,0-1.7-.343,3.407,3.407,0,0,0-2.1,1.982l.349.18a3.054,3.054,0,0,1,1.835-1.777,1.813,1.813,0,0,1,1.377.272" transform="translate(-138.546 -57.146)"/>
        <path id="Trazado_216155" data-name="Trazado 216155" d="M330.8,117.553l.237-.314a2.181,2.181,0,0,0-1.695-.343,3.405,3.405,0,0,0-2.1,1.982l.349.18a3.054,3.054,0,0,1,1.835-1.777,1.813,1.813,0,0,1,1.377.272" transform="translate(-148.052 -52.864)"/>
        <path id="Trazado_216156" data-name="Trazado 216156" d="M308.132,119.006a6.922,6.922,0,0,0-4.16,4.62s-.875-4.7,4.16-4.62" transform="translate(-137.497 -53.841)"/>
        <path id="Trazado_216157" data-name="Trazado 216157" d="M328.079,112.354a6.922,6.922,0,0,0-6.114,1.129s2.17-4.26,6.114-1.129" transform="translate(-145.664 -50.311)"/>
        <path id="Trazado_216158" data-name="Trazado 216158" d="M370.909,143.462c2.9,2.955,5.27,5.285,5.27,5.285s2.979-2.979,3.115-3.791-8.251-1.482-8.386-1.493" transform="translate(-167.808 -64.905)" fill="#b9363d"/>
        <path id="Trazado_216159" data-name="Trazado 216159" d="M256.12,176.525c12.053,4.062,23.159,1.625,25.867,1.625s.948,2.574.948,5.687-4.334,19.637-6.366,26-.676,22.642-.676,22.642H348.21a134.385,134.385,0,0,0,4.334-15.464c1.218-6.5,3.114-18.418.542-30.607s-9.752-18.959-12.594-22.074S324.239,153.5,324.239,153.5l-2.844-7.313c-.136.813-3.115,3.791-3.115,3.791s-5.823,6.5-9.343,9.074-4.469,3.791-4.2,7.313-4.3,6.636-4.3,6.636a47.818,47.818,0,0,1-1.123-6.906,48.491,48.491,0,0,0-.542-5.543,24.136,24.136,0,0,1-6.771-2.041c-3.928-1.761-8.409-3.657-9.012-4.469-6.847.407-7.782,1.9-8.594,2.708s-2.574,1.219-4.2,1.354a6.617,6.617,0,0,0-3.115,1.355s-1.759,7.177-4.469,6.906-5.416-7.854-5.416-7.854a35.42,35.42,0,0,0,10.291-8.328,22.535,22.535,0,0,1-4.738,2.368c-2.439.813-5.418,1.354-6.5,1.625a39.7,39.7,0,0,0-5.147,2.844s.542-3.52,5.417-8.8c-8.8,2.708-10.563-.271-10.292.676.947.949,1.354,8.8,1.354,8.8a21.489,21.489,0,0,1-3.657,6.5c-2.844,3.657.136,8.26,12.187,12.324" transform="translate(-109.909 -66.139)" fill="#f37409"/>
        <path id="Trazado_216160" data-name="Trazado 216160" d="M264.3,167.979a11.627,11.627,0,0,0-1.384-.418c-.468-.116-.941-.206-1.417-.284s-.956-.128-1.438-.151a8.2,8.2,0,0,0-1.448.041l1.424.2,1.415.217,1.418.213c.474.069.949.133,1.431.18" transform="translate(-117 -75.605)" fill="#b9363d"/>
        <path id="Trazado_216161" data-name="Trazado 216161" d="M253.129,167.953q-.465,1.331-.85,2.685c-.261.9-.5,1.81-.722,2.722s-.421,1.831-.584,2.757a14.418,14.418,0,0,0-.281,2.806,12.927,12.927,0,0,1,.224-1.386c.089-.459.2-.914.3-1.371l.322-1.366c.105-.456.217-.911.327-1.366l.653-2.734q.325-1.368.615-2.747" transform="translate(-113.417 -75.986)" fill="#b9363d"/>
        <path id="Trazado_216162" data-name="Trazado 216162" d="M378.66,159.544l-2.888,5.712c-.97,1.9-1.92,3.811-2.963,5.665-.259.463-.521.928-.812,1.363a3.542,3.542,0,0,1-.228.307.657.657,0,0,1-.112.11c-.005,0-.012.005,0,0a.1.1,0,0,1,.073.017c.027.023.028.036.012.009l-.036-.053a2.318,2.318,0,0,0-.295-.315c-.1-.091-.2-.182-.306-.268-.413-.347-.839-.669-1.267-.991s-.861-.633-1.3-.94q-1.311-.922-2.638-1.816c-.89-.589-1.777-1.182-2.68-1.752l2.593,1.878q1.3.934,2.584,1.885c.849.643,1.716,1.268,2.522,1.953.1.085.2.173.294.261a2.187,2.187,0,0,1,.25.269l.02.03a.305.305,0,0,0,.073.088.2.2,0,0,0,.168.03.277.277,0,0,0,.089-.039.878.878,0,0,0,.178-.164,3.817,3.817,0,0,0,.252-.332c.306-.45.573-.913.838-1.379.517-.937,1.006-1.887,1.489-2.839s.96-1.907,1.415-2.873.914-1.929,1.363-2.9.887-1.941,1.31-2.921" transform="translate(-164.33 -72.181)" fill="#b9363d"/>
        <path id="Trazado_216163" data-name="Trazado 216163" d="M344.967,174.077q-.036,1.19-.138,2.376c-.068.79-.157,1.58-.295,2.359a10.576,10.576,0,0,1-.264,1.155,4.462,4.462,0,0,1-.2.553,1.484,1.484,0,0,1-.311.476.393.393,0,0,1-.108.079c-.033.022-.087.049-.132.073a1.728,1.728,0,0,0-.248.183,4.417,4.417,0,0,0-.426.427,11.849,11.849,0,0,0-.738.943c-.459.652-.877,1.331-1.273,2.021s-.766,1.4-1.118,2.109a38.556,38.556,0,0,0-1.845,4.4c-.13.377-.255.755-.369,1.137s-.218.769-.33,1.147c-.211.762-.447,1.52-.681,2.277q-.72,2.268-1.478,4.525l-3.032,9.03c-.994,3.017-1.975,6.038-2.884,9.083-.22.764-.456,1.522-.662,2.29l-.318,1.149-.3,1.156c-.392,1.541-.745,3.086-1.15,4.619a40.556,40.556,0,0,1-1.414,4.531,14.861,14.861,0,0,1-1.041,2.123,21.253,21.253,0,0,1-1.341,1.955,11.387,11.387,0,0,0-.694.975,6.034,6.034,0,0,0-.511,1.087,8.585,8.585,0,0,0-.427,2.349,19.064,19.064,0,0,1-.205,2.368,4.112,4.112,0,0,1-.382,1.119,3.54,3.54,0,0,1-.715.942,3.555,3.555,0,0,0,.732-.934,4.154,4.154,0,0,0,.4-1.12,19.144,19.144,0,0,0,.244-2.37,8.459,8.459,0,0,1,.458-2.315,5.937,5.937,0,0,1,.517-1.056,11.253,11.253,0,0,1,.7-.952,20.886,20.886,0,0,0,1.371-1.957,15.137,15.137,0,0,0,1.073-2.139,40.737,40.737,0,0,0,1.463-4.543l.306-1.152.3-1.154c.2-.769.375-1.545.578-2.31l.3-1.15.321-1.145c.208-.765.446-1.522.668-2.283.916-3.038,1.906-6.054,2.907-9.066l3.005-9.039q.75-2.26,1.466-4.534c.231-.761.468-1.519.675-2.288.11-.384.2-.766.319-1.144s.23-.756.355-1.131a38.32,38.32,0,0,1,1.8-4.394,31.827,31.827,0,0,1,2.338-4.128,11.685,11.685,0,0,1,.714-.943,4.424,4.424,0,0,1,.407-.422,1.585,1.585,0,0,1,.228-.174c.042-.024.077-.042.127-.073a.491.491,0,0,0,.129-.1,1.571,1.571,0,0,0,.329-.517,4.559,4.559,0,0,0,.2-.568,10.874,10.874,0,0,0,.247-1.169c.126-.786.2-1.578.257-2.369s.089-1.586.1-2.38" transform="translate(-144.749 -78.756)" fill="#b9363d"/>
        <path id="Trazado_216164" data-name="Trazado 216164" d="M310.791,242.662q1.051-3.612,2.159-7.206l.562-1.794c.1-.3.186-.6.294-.891l.154-.441c.052-.147.118-.289.175-.434a30.437,30.437,0,0,1,1.7-3.338c.619-1.09,1.233-2.189,1.764-3.331.128-.288.262-.573.384-.863l.354-.877.314-.891c.1-.3.186-.6.279-.9s.169-.607.244-.913.159-.61.213-.921c.122-.619.242-1.236.352-1.851s.245-1.227.367-1.84c.141-.609.269-1.222.424-1.828,1.183-4.867,2.849-9.6,4.445-14.355l.6-1.785.575-1.791,1.15-3.582,2.288-7.168,0-.015v-.011a5.5,5.5,0,0,0-.142-1.164c-.083-.376-.181-.748-.3-1.114a20.915,20.915,0,0,0-.815-2.148c-.3-.7-.646-1.386-.993-2.067s-.687-1.359-1.016-2.046q-.986-2.062-1.884-4.166c-.6-1.4-1.184-2.811-1.739-4.231.533,1.429,1.094,2.847,1.673,4.258s1.183,2.813,1.821,4.2c.316.695.652,1.38.994,2.063s.676,1.363.97,2.065a20.905,20.905,0,0,1,.788,2.134c.111.362.2.729.282,1.1a5.406,5.406,0,0,1,.129,1.1l0-.026-2.331,7.151-1.16,3.578-.58,1.788-.6,1.781c-.805,2.374-1.632,4.744-2.39,7.137s-1.467,4.8-2.053,7.247c-.153.609-.28,1.224-.421,1.837-.122.616-.258,1.229-.363,1.849s-.226,1.234-.346,1.845c-.052.308-.138.608-.208.912s-.145.607-.238.9-.168.6-.269.9l-.3.885-.342.871c-.118.289-.249.572-.373.859-.516,1.137-1.118,2.235-1.727,3.331a30.488,30.488,0,0,0-1.684,3.373c-.058.147-.122.291-.173.44l-.153.448c-.107.3-.189.6-.282.9l-.535,1.8q-1.056,3.612-2.047,7.24" transform="translate(-140.609 -76.321)" fill="#b9363d"/>
        <path id="Trazado_216165" data-name="Trazado 216165" d="M395.491,275.222a104.826,104.826,0,0,0,1.76-16.412c.135-8.261-.677-13-.88-18.147,0,0,.9,16.657.007,21.939s-2.242,12.621-2.242,12.621Z" transform="translate(-178.316 -108.881)" fill="#b9363d"/>
        <path id="Trazado_216166" data-name="Trazado 216166" d="M418.453,195.976a7.663,7.663,0,0,0-2.093-1.074,8.323,8.323,0,0,0-1.143-.308,8.672,8.672,0,0,0-1.177-.153,9.445,9.445,0,0,0-4.608.97,11.911,11.911,0,0,0-2.032,1.232,16.474,16.474,0,0,0-1.8,1.55c-.139.14-.286.273-.418.421l-.4.436c-.266.291-.535.579-.8.873l-.749.917c-.124.154-.253.3-.372.461l-.347.48a23.108,23.108,0,0,0-2.4,4.079,20.783,20.783,0,0,0-1.5,4.485,28,28,0,0,0-.572,4.687c-.056,1.573-.018,3.146.08,4.714-.027-1.57-.034-3.142.073-4.706a27.988,27.988,0,0,1,.653-4.643,21.95,21.95,0,0,1,1.526-4.418,22.9,22.9,0,0,1,2.392-4.015l.34-.477c.116-.157.244-.3.365-.458l.736-.912c.259-.293.524-.58.786-.871l.394-.434c.13-.147.274-.278.41-.417a14.584,14.584,0,0,1,3.733-2.767,9.909,9.909,0,0,1,2.182-.8,8.933,8.933,0,0,1,2.314-.232,8.64,8.64,0,0,1,1.162.116,8.23,8.23,0,0,1,1.138.27,8.63,8.63,0,0,1,1.095.421,6.817,6.817,0,0,1,1.025.575" transform="translate(-180.075 -87.964)" fill="#b9363d"/>
        <path id="Trazado_216167" data-name="Trazado 216167" d="M269,161.813s2.708,7.584,5.416,7.855,4.469-6.907,4.469-6.907l.407-9.278v0A35.42,35.42,0,0,1,269,161.813" transform="translate(-121.7 -69.44)" fill="#b9363d"/>
        <path id="Trazado_216168" data-name="Trazado 216168" d="M257.865,143.441a39.637,39.637,0,0,1,5.147-2.844c1.083-.271,4.062-.813,6.5-1.625a22.566,22.566,0,0,0,4.738-2.368l0,0,9.131-9.818c-1.24-5.02-4.289-7.526-5.183-10.614l-14.918,18.469c-4.876,5.281-5.418,8.8-5.418,8.8" transform="translate(-116.664 -52.558)" fill="#ec9681"/>
        <path id="Trazado_216169" data-name="Trazado 216169" d="M336.571,74.516s9.521,3.436,10.764,16.27c0,0-2.931-.872-5.382,3.327Z" transform="translate(-152.272 -33.713)" fill="#1b2e35"/>
        <path id="Trazado_216170" data-name="Trazado 216170" d="M280.317,84.716q-.029.744-.047,1.466a21.713,21.713,0,0,0,1.284,9.11c1.234,3.021,3.571,6.079,7.888,9.515a7.052,7.052,0,0,0,2.87-1.623s-1.623-2.89-1.846-3.529-.258-3.555-.683-6.246c-.374-2.355-.42-2.65-.425-2.686.112.213,4.547,8.665,8.271,8.864l3.772.2-.148-1.326s-4.9-3.823-4.89-6.093a8.721,8.721,0,0,0-1-4.012s3.317,1.193,5.868,5.693,4.341,3.789,6.326,2,3.462-3.307,3.462-3.307-3.609-.716-5.184-2.919c0,0,2.5,1.075,4.565,1.73a25.022,25.022,0,0,0,3.011.81l-.847-2.257s3.009,1.521,2.74,3.14c0,0,3.67-4.094,3.2-6.657-.489-2.68.094-5.077-1.063-7.723-2.05-4.69-4.192-6.1-8.785-8.151-2.364-1.058-6.7-2.559-9.257-1.84a15.688,15.688,0,0,0-7.586,4.208c-2.011,1.979-5.124,2.339-7.4,4.043a9.844,9.844,0,0,0-4.1,7.589" transform="translate(-126.793 -31.076)" fill="#1b2e35"/>
        <path id="Trazado_216171" data-name="Trazado 216171" d="M328.055,165.445l-4.735,3.421,2.219-7.355-2.931,7.981s.95-.034,5.447-4.048" transform="translate(-145.955 -73.071)" fill="#b9363d"/>
        <path id="Trazado_216172" data-name="Trazado 216172" d="M332.555,165.061l1.724-4.4-1.529,4.914Z" transform="translate(-150.455 -72.687)" fill="#b9363d"/>
        <path id="Trazado_216173" data-name="Trazado 216173" d="M332.555,164.359s.675,1.787,1.725,4.183c2.015,4.6,5.083,11.435,5.126,12.21,0,0,1.575-.429,1.018-4.619s-1.1-9.733-1.1-9.733l-3.294-7.29-2.18,1Z" transform="translate(-150.455 -71.985)" fill="#b9363d"/>
        <path id="Trazado_216174" data-name="Trazado 216174" d="M153.336,92.315l-10.2,8.894,5.6,2.739-9.824,9.677,14.739-7.968-5.242-5.291,10.447-5.353Z" transform="translate(-62.847 -41.765)" fill="#f37409"/>
        <path id="Trazado_216175" data-name="Trazado 216175" d="M155.053,127.33l-10.642,1.382,2.491,4.271-10.736,2.065,13.228,1.223-1.133-5.8,9.246,1.062Z" transform="translate(-61.604 -57.607)" fill="#f37409"/>
        <path id="Trazado_216176" data-name="Trazado 216176" d="M338.9,153.264l1.055,2.334,6.42-9.409s-3.85,5.742-7.475,7.075" transform="translate(-153.328 -66.139)" fill="#b66355"/>
        <path id="Trazado_216177" data-name="Trazado 216177" d="M313.169,62.7s8.766-1.624,12.364,2.65c0,0-4.093-6.927-12.364-2.65" transform="translate(-141.685 -27.734)" fill="#f37409"/>
        <path id="Trazado_216178" data-name="Trazado 216178" d="M327.961,58.641s6.171.982,8.122,6.72c0,0,.1-6.313-8.122-6.72" transform="translate(-148.377 -26.531)" fill="#f37409"/>
        <rect id="Rectángulo_45474" data-name="Rectángulo 45474" width="247.824" height="1.078" transform="translate(0 165.579)" fill="#385a65"/>
      </g>
    </g>
  </g>
</svg>
