<svg id="Grupo_149236" data-name="Grupo 149236" xmlns="http://www.w3.org/2000/svg" xmlns:xlink="http://www.w3.org/1999/xlink" width="219.069" height="217.363" viewBox="0 0 219.069 217.363">
  <defs>
    <clipPath id="clip-path">
      <rect id="Rectángulo_45042" data-name="Rectángulo 45042" width="219.069" height="217.363" fill="none"/>
    </clipPath>
    <clipPath id="clip-path-3">
      <rect id="Rectángulo_45035" data-name="Rectángulo 45035" width="45.132" height="56.749" fill="none"/>
    </clipPath>
    <clipPath id="clip-path-4">
      <rect id="Rectángulo_45036" data-name="Rectángulo 45036" width="36.978" height="19.389" fill="none"/>
    </clipPath>
    <clipPath id="clip-path-5">
      <rect id="Rectángulo_45037" data-name="Rectángulo 45037" width="22.415" height="23.398" fill="none"/>
    </clipPath>
    <clipPath id="clip-path-6">
      <rect id="Rectángulo_45038" data-name="Rectángulo 45038" width="25.211" height="5.081" fill="none"/>
    </clipPath>
    <clipPath id="clip-path-7">
      <rect id="Rectángulo_45039" data-name="Rectángulo 45039" width="18.219" height="15.045" fill="none"/>
    </clipPath>
    <clipPath id="clip-path-8">
      <rect id="Rectángulo_45040" data-name="Rectángulo 45040" width="42.006" height="13.816" fill="none"/>
    </clipPath>
  </defs>
  <g id="Grupo_149235" data-name="Grupo 149235" clip-path="url(#clip-path)">
    <path id="Trazado_214618" data-name="Trazado 214618" d="M208.148,186.524v11.488H206.23v1.247h1.918v7.689H244v-7h-2.656v-1.524H244v-2.287h1.18V195.1h-1.4v-8.579Z" transform="translate(-32.228 -29.148)" fill="#f5f5f5"/>
    <path id="Trazado_214619" data-name="Trazado 214619" d="M239.714,186.557V206.82h9.521v-7h-2.656v-1.4l2.656.047v-2.286l1.2,0-.023-1.181-1.4-.035v-8.452Z" transform="translate(-37.46 -29.148)" fill="#e1e1e1"/>
    <g id="Grupo_149234" data-name="Grupo 149234">
      <g id="Grupo_149233" data-name="Grupo 149233" clip-path="url(#clip-path)">
        <path id="Trazado_214620" data-name="Trazado 214620" d="M235.15,201.4c0,.07-6.488.127-14.489.127s-14.491-.057-14.491-.127,6.487-.127,14.491-.127,14.489.057,14.489.127" transform="translate(-32.218 -31.453)" fill="#e1e1e1"/>
        <path id="Trazado_214621" data-name="Trazado 214621" d="M235.15,200.015c0,.07-6.488.127-14.489.127s-14.491-.057-14.491-.127,6.487-.127,14.491-.127,14.489.057,14.489.127" transform="translate(-32.218 -31.237)" fill="#e1e1e1"/>
        <path id="Trazado_214622" data-name="Trazado 214622" d="M237.356,196.293c0,.07-6.488.127-14.489.127s-14.491-.057-14.491-.127,6.487-.127,14.491-.127,14.489.057,14.489.127" transform="translate(-32.563 -30.655)" fill="#e1e1e1"/>
        <path id="Trazado_214623" data-name="Trazado 214623" d="M237.568,206.436c0,.07-6.488.127-14.489.127s-14.491-.057-14.491-.127,6.487-.127,14.491-.127,14.489.057,14.489.127" transform="translate(-32.596 -32.24)" fill="#e1e1e1"/>
        <path id="Trazado_214624" data-name="Trazado 214624" d="M211.354,210.058v11.488h-1.918v1.247h1.918v7.689h35.854v-7h-2.656v-1.524h2.656v-2.287h1.18v-1.039h-1.4v-8.579Z" transform="translate(-32.729 -32.826)" fill="#f5f5f5"/>
        <path id="Trazado_214625" data-name="Trazado 214625" d="M242.919,210.091v20.263h9.521v-7h-2.656v-1.4l2.656.047v-2.286l1.2,0-.023-1.181-1.4-.035v-8.452Z" transform="translate(-37.961 -32.826)" fill="#e1e1e1"/>
        <path id="Trazado_214626" data-name="Trazado 214626" d="M238.355,224.932c0,.07-6.488.127-14.489.127s-14.491-.057-14.491-.127,6.487-.127,14.491-.127,14.489.057,14.489.127" transform="translate(-32.719 -35.13)" fill="#e1e1e1"/>
        <path id="Trazado_214627" data-name="Trazado 214627" d="M238.355,223.549c0,.07-6.488.127-14.489.127s-14.491-.057-14.491-.127,6.487-.127,14.491-.127,14.489.057,14.489.127" transform="translate(-32.719 -34.914)" fill="#e1e1e1"/>
        <path id="Trazado_214628" data-name="Trazado 214628" d="M240.561,219.827c0,.07-6.488.127-14.489.127s-14.491-.057-14.491-.127,6.487-.127,14.491-.127,14.489.057,14.489.127" transform="translate(-33.064 -34.333)" fill="#e1e1e1"/>
        <path id="Trazado_214629" data-name="Trazado 214629" d="M240.774,229.97c0,.07-6.488.127-14.489.127s-14.491-.057-14.491-.127,6.487-.127,14.491-.127,14.489.057,14.489.127" transform="translate(-33.097 -35.918)" fill="#e1e1e1"/>
        <path id="Trazado_214630" data-name="Trazado 214630" d="M207.629,233.274v11.488h-1.918v1.247h1.918V253.7h35.854v-7h-2.656v-1.524h2.656v-2.286h1.18v-1.039h-1.4v-8.579Z" transform="translate(-32.147 -36.454)" fill="#f5f5f5"/>
        <path id="Trazado_214631" data-name="Trazado 214631" d="M239.195,233.308v20.263h9.521v-7H246.06v-1.4l2.656.047V242.94l1.2,0-.023-1.182-1.4-.034v-8.452Z" transform="translate(-37.379 -36.454)" fill="#e1e1e1"/>
        <path id="Trazado_214632" data-name="Trazado 214632" d="M234.631,248.149c0,.07-6.488.127-14.489.127s-14.491-.057-14.491-.127,6.487-.127,14.491-.127,14.489.057,14.489.127" transform="translate(-32.137 -38.759)" fill="#e1e1e1"/>
        <path id="Trazado_214633" data-name="Trazado 214633" d="M234.631,246.766c0,.07-6.488.127-14.489.127s-14.491-.057-14.491-.127,6.487-.127,14.491-.127,14.489.057,14.489.127" transform="translate(-32.137 -38.542)" fill="#e1e1e1"/>
        <path id="Trazado_214634" data-name="Trazado 214634" d="M236.837,243.043c0,.07-6.488.127-14.489.127s-14.491-.057-14.491-.127,6.487-.127,14.491-.127,14.489.057,14.489.127" transform="translate(-32.482 -37.961)" fill="#e1e1e1"/>
        <path id="Trazado_214635" data-name="Trazado 214635" d="M237.049,253.187c0,.07-6.488.127-14.489.127s-14.491-.057-14.491-.127,6.487-.127,14.491-.127,14.489.057,14.489.127" transform="translate(-32.515 -39.546)" fill="#e1e1e1"/>
        <path id="Trazado_214636" data-name="Trazado 214636" d="M10.585,186.524v11.488H8.668v1.247h1.918v7.689H46.44v-7H43.784v-1.524H46.44v-2.287h1.18V195.1h-1.4v-8.579Z" transform="translate(-1.355 -29.148)" fill="#f5f5f5"/>
        <path id="Trazado_214637" data-name="Trazado 214637" d="M42.151,186.557V206.82h9.521v-7H49.017v-1.4l2.656.047v-2.286l1.2,0-.023-1.181-1.4-.035v-8.452Z" transform="translate(-6.587 -29.148)" fill="#e1e1e1"/>
        <path id="Trazado_214638" data-name="Trazado 214638" d="M37.587,201.4c0,.07-6.488.127-14.489.127s-14.491-.057-14.491-.127,6.487-.127,14.491-.127,14.489.057,14.489.127" transform="translate(-1.345 -31.453)" fill="#e1e1e1"/>
        <path id="Trazado_214639" data-name="Trazado 214639" d="M37.587,200.015c0,.07-6.488.127-14.489.127s-14.491-.057-14.491-.127,6.487-.127,14.491-.127,14.489.057,14.489.127" transform="translate(-1.345 -31.237)" fill="#e1e1e1"/>
        <path id="Trazado_214640" data-name="Trazado 214640" d="M39.793,196.293c0,.07-6.488.127-14.489.127s-14.491-.057-14.491-.127,6.487-.127,14.491-.127,14.489.057,14.489.127" transform="translate(-1.69 -30.655)" fill="#e1e1e1"/>
        <path id="Trazado_214641" data-name="Trazado 214641" d="M40.005,206.436c0,.07-6.488.127-14.489.127s-14.491-.057-14.491-.127,6.487-.127,14.491-.127,14.489.057,14.489.127" transform="translate(-1.723 -32.24)" fill="#e1e1e1"/>
        <path id="Trazado_214642" data-name="Trazado 214642" d="M215.367,165.639v11.488h-1.918v1.247h1.918v7.689h35.854v-7h-2.656v-1.524h2.656v-2.287h1.18v-1.039H251v-8.579Z" transform="translate(-33.356 -25.885)" fill="#f5f5f5"/>
        <path id="Trazado_214643" data-name="Trazado 214643" d="M246.933,165.672v20.263h9.521v-7H253.8v-1.4l2.656.047V175.3l1.2,0-.023-1.182-1.4-.034v-8.452Z" transform="translate(-38.588 -25.884)" fill="#e1e1e1"/>
        <path id="Trazado_214644" data-name="Trazado 214644" d="M242.369,180.513c0,.07-6.488.127-14.489.127s-14.491-.057-14.491-.127,6.487-.127,14.491-.127,14.489.057,14.489.127" transform="translate(-33.346 -28.189)" fill="#e1e1e1"/>
        <path id="Trazado_214645" data-name="Trazado 214645" d="M242.369,179.13c0,.07-6.488.127-14.489.127s-14.491-.057-14.491-.127S219.876,179,227.88,179s14.489.057,14.489.127" transform="translate(-33.346 -27.973)" fill="#e1e1e1"/>
        <path id="Trazado_214646" data-name="Trazado 214646" d="M244.575,175.408c0,.07-6.488.127-14.489.127s-14.492-.057-14.492-.127,6.487-.127,14.492-.127,14.489.057,14.489.127" transform="translate(-33.691 -27.391)" fill="#e1e1e1"/>
        <path id="Trazado_214647" data-name="Trazado 214647" d="M244.787,185.551c0,.07-6.488.127-14.489.127s-14.491-.057-14.491-.127,6.487-.127,14.491-.127,14.489.057,14.489.127" transform="translate(-33.724 -28.976)" fill="#e1e1e1"/>
        <path id="Trazado_214648" data-name="Trazado 214648" d="M12.842,210.058v11.488H10.924v1.247h1.918v7.689H48.7v-7H46.04v-1.524H48.7v-2.287h1.18v-1.039h-1.4v-8.579Z" transform="translate(-1.707 -32.826)" fill="#f5f5f5"/>
        <path id="Trazado_214649" data-name="Trazado 214649" d="M44.407,210.091v20.263h9.521v-7H51.273v-1.4l2.656.047v-2.286l1.2,0-.023-1.181-1.4-.035v-8.452Z" transform="translate(-6.94 -32.826)" fill="#e1e1e1"/>
        <path id="Trazado_214650" data-name="Trazado 214650" d="M39.843,224.932c0,.07-6.488.127-14.489.127s-14.491-.057-14.491-.127,6.487-.127,14.491-.127,14.489.057,14.489.127" transform="translate(-1.698 -35.13)" fill="#e1e1e1"/>
        <path id="Trazado_214651" data-name="Trazado 214651" d="M39.843,223.549c0,.07-6.488.127-14.489.127s-14.491-.057-14.491-.127,6.487-.127,14.491-.127,14.489.057,14.489.127" transform="translate(-1.698 -34.914)" fill="#e1e1e1"/>
        <path id="Trazado_214652" data-name="Trazado 214652" d="M42.049,219.827c0,.07-6.488.127-14.489.127s-14.491-.057-14.491-.127,6.487-.127,14.491-.127,14.489.057,14.489.127" transform="translate(-2.042 -34.333)" fill="#e1e1e1"/>
        <path id="Trazado_214653" data-name="Trazado 214653" d="M42.261,229.97c0,.07-6.488.127-14.489.127s-14.491-.057-14.491-.127,6.487-.127,14.491-.127,14.489.057,14.489.127" transform="translate(-2.075 -35.918)" fill="#e1e1e1"/>
        <path id="Trazado_214654" data-name="Trazado 214654" d="M17.911,233.274v11.488H15.993v1.247h1.918V253.7H53.765v-7H51.109v-1.524h2.656v-2.286h1.18v-1.039h-1.4v-8.579Z" transform="translate(-2.499 -36.454)" fill="#f5f5f5"/>
        <path id="Trazado_214655" data-name="Trazado 214655" d="M49.477,233.308v20.263H59v-7H56.342v-1.4l2.656.047V242.94l1.2,0-.023-1.182-1.4-.034v-8.452Z" transform="translate(-7.732 -36.454)" fill="#e1e1e1"/>
        <path id="Trazado_214656" data-name="Trazado 214656" d="M44.913,248.149c0,.07-6.488.127-14.489.127s-14.491-.057-14.491-.127,6.487-.127,14.491-.127,14.489.057,14.489.127" transform="translate(-2.49 -38.759)" fill="#e1e1e1"/>
        <path id="Trazado_214657" data-name="Trazado 214657" d="M44.913,246.766c0,.07-6.488.127-14.489.127s-14.491-.057-14.491-.127,6.487-.127,14.491-.127,14.489.057,14.489.127" transform="translate(-2.49 -38.542)" fill="#e1e1e1"/>
        <path id="Trazado_214658" data-name="Trazado 214658" d="M47.119,243.043c0,.07-6.488.127-14.489.127s-14.49-.057-14.49-.127,6.486-.127,14.49-.127,14.489.057,14.489.127" transform="translate(-2.835 -37.961)" fill="#e1e1e1"/>
        <path id="Trazado_214659" data-name="Trazado 214659" d="M47.331,253.187c0,.07-6.488.127-14.489.127s-14.491-.057-14.491-.127,6.487-.127,14.491-.127,14.489.057,14.489.127" transform="translate(-2.868 -39.546)" fill="#e1e1e1"/>
        <path id="Trazado_214660" data-name="Trazado 214660" d="M158.312,233.572v11.134h-1.859v1.208h1.859v7.453h34.749v-6.781h-2.574v-1.477h2.574v-2.216h1.144v-1.007h-1.358v-8.314Z" transform="translate(-24.449 -36.5)" fill="#f5f5f5"/>
        <path id="Trazado_214661" data-name="Trazado 214661" d="M188.9,233.6v19.638h9.228v-6.78h-2.574v-1.353l2.574.046v-2.216l1.166,0-.022-1.145-1.358-.034v-8.19Z" transform="translate(-29.52 -36.5)" fill="#e1e1e1"/>
        <path id="Trazado_214662" data-name="Trazado 214662" d="M184.482,247.988c0,.068-6.287.123-14.042.123s-14.045-.055-14.045-.123,6.287-.123,14.045-.123,14.042.055,14.042.123" transform="translate(-24.44 -38.734)" fill="#e1e1e1"/>
        <path id="Trazado_214663" data-name="Trazado 214663" d="M184.482,246.647c0,.068-6.287.123-14.042.123s-14.045-.055-14.045-.123,6.287-.123,14.045-.123,14.042.055,14.042.123" transform="translate(-24.44 -38.524)" fill="#e1e1e1"/>
        <path id="Trazado_214664" data-name="Trazado 214664" d="M186.62,243.04c0,.068-6.287.123-14.043.123s-14.044-.055-14.044-.123,6.287-.123,14.044-.123,14.043.055,14.043.123" transform="translate(-24.774 -37.961)" fill="#e1e1e1"/>
        <path id="Trazado_214665" data-name="Trazado 214665" d="M186.825,252.87c0,.068-6.288.123-14.042.123s-14.045-.055-14.045-.123,6.287-.123,14.045-.123,14.042.055,14.042.123" transform="translate(-24.806 -39.497)" fill="#e1e1e1"/>
        <path id="Trazado_214666" data-name="Trazado 214666" d="M82.117,210.058v11.488H80.2v1.247h1.918v7.689h35.854v-7h-2.656v-1.524h2.656v-2.287h1.18v-1.039h-1.4v-8.579Z" transform="translate(-12.533 -32.826)" fill="#f5f5f5"/>
        <path id="Trazado_214667" data-name="Trazado 214667" d="M113.683,210.091v20.263H123.2v-7h-2.656v-1.4l2.656.047v-2.286l1.2,0-.023-1.181-1.4-.035v-8.452Z" transform="translate(-17.765 -32.826)" fill="#e1e1e1"/>
        <path id="Trazado_214668" data-name="Trazado 214668" d="M109.119,224.932c0,.07-6.488.127-14.489.127s-14.491-.057-14.491-.127,6.487-.127,14.491-.127,14.489.057,14.489.127" transform="translate(-12.523 -35.13)" fill="#e1e1e1"/>
        <path id="Trazado_214669" data-name="Trazado 214669" d="M109.119,223.549c0,.07-6.488.127-14.489.127s-14.491-.057-14.491-.127,6.487-.127,14.491-.127,14.489.057,14.489.127" transform="translate(-12.523 -34.914)" fill="#e1e1e1"/>
        <path id="Trazado_214670" data-name="Trazado 214670" d="M111.325,219.827c0,.07-6.488.127-14.489.127s-14.491-.057-14.491-.127,6.487-.127,14.491-.127,14.489.057,14.489.127" transform="translate(-12.868 -34.333)" fill="#e1e1e1"/>
        <path id="Trazado_214671" data-name="Trazado 214671" d="M111.537,229.97c0,.07-6.488.127-14.489.127s-14.491-.057-14.491-.127,6.487-.127,14.491-.127,14.489.057,14.489.127" transform="translate(-12.901 -35.918)" fill="#e1e1e1"/>
        <path id="Trazado_214672" data-name="Trazado 214672" d="M78.393,233.274v11.488H76.475v1.247h1.918V253.7h35.854v-7h-2.656v-1.524h2.656v-2.286h1.18v-1.039h-1.4v-8.579Z" transform="translate(-11.951 -36.454)" fill="#f5f5f5"/>
        <path id="Trazado_214673" data-name="Trazado 214673" d="M109.958,233.308v20.263h9.521v-7h-2.656v-1.4l2.656.047V242.94l1.2,0-.023-1.182-1.4-.034v-8.452Z" transform="translate(-17.183 -36.454)" fill="#e1e1e1"/>
        <path id="Trazado_214674" data-name="Trazado 214674" d="M105.394,248.149c0,.07-6.488.127-14.489.127s-14.491-.057-14.491-.127,6.487-.127,14.491-.127,14.489.057,14.489.127" transform="translate(-11.941 -38.759)" fill="#e1e1e1"/>
        <path id="Trazado_214675" data-name="Trazado 214675" d="M105.394,246.766c0,.07-6.488.127-14.489.127s-14.491-.057-14.491-.127,6.487-.127,14.491-.127,14.489.057,14.489.127" transform="translate(-11.941 -38.542)" fill="#e1e1e1"/>
        <path id="Trazado_214676" data-name="Trazado 214676" d="M107.6,243.043c0,.07-6.488.127-14.489.127s-14.491-.057-14.491-.127,6.487-.127,14.491-.127,14.489.057,14.489.127" transform="translate(-12.286 -37.961)" fill="#e1e1e1"/>
        <path id="Trazado_214677" data-name="Trazado 214677" d="M107.812,253.187c0,.07-6.488.127-14.489.127s-14.491-.057-14.491-.127,6.487-.127,14.491-.127,14.489.057,14.489.127" transform="translate(-12.319 -39.546)" fill="#e1e1e1"/>
        <path id="Trazado_214678" data-name="Trazado 214678" d="M0,206.017c.388,3.115,2.781,5.685,5.559,7.147s5.93,2.006,9.017,2.573,6.238,1.2,8.932,2.811l5.348-14.877a33.36,33.36,0,0,0-13.425-2.783c-5.524.219-9.91-7.1-9.91-7.1Z" transform="translate(0 -30.284)" fill="#e1e1e1"/>
        <path id="Trazado_214679" data-name="Trazado 214679" d="M26.4,249.58a26.722,26.722,0,0,1,17.71-8.57c-1.685-2.626-4.679-7.743-6.364-10.369-8.966.047-15.933,5.1-20.646,12.64,3.315,2.389,5.986,3.911,9.3,6.3" transform="translate(-2.672 -36.043)" fill="#e1e1e1"/>
        <path id="Trazado_214680" data-name="Trazado 214680" d="M227.525,60.6a12.3,12.3,0,0,1,3.008-1.307l.619-2.977,5.029-.089.724,2.953a12.33,12.33,0,0,1,3.052,1.2l2.542-1.666,3.619,3.494-1.575,2.6a12.364,12.364,0,0,1,1.307,3.008l2.976.62.089,5.029-2.953.724a12.324,12.324,0,0,1-1.2,3.051l1.666,2.542-3.494,3.62-2.6-1.576a12.336,12.336,0,0,1-3.008,1.307l-.619,2.977-5.029.089-.724-2.953a12.33,12.33,0,0,1-3.052-1.2l-2.542,1.666-3.619-3.494,1.575-2.6a12.336,12.336,0,0,1-1.307-3.008l-2.977-.619-.088-5.029,2.953-.724a12.31,12.31,0,0,1,1.2-3.052l-1.666-2.542,3.494-3.619Zm2.681,6.7a5.4,5.4,0,1,0,7.63-.134,5.4,5.4,0,0,0-7.63.134" transform="translate(-34.215 -8.786)" fill="#ececec"/>
        <path id="Trazado_214681" data-name="Trazado 214681" d="M21.136,118.827a14.854,14.854,0,0,1,3.626-1.576l.748-3.589,6.064-.106.873,3.561a14.855,14.855,0,0,1,3.68,1.448l3.064-2.009,4.364,4.213-1.9,3.133a14.829,14.829,0,0,1,1.576,3.627l3.589.748.106,6.064-3.561.873a14.862,14.862,0,0,1-1.448,3.679l2.009,3.065-4.213,4.364-3.133-1.9A14.879,14.879,0,0,1,32.953,146l-.747,3.589-6.065.106-.872-3.561a14.888,14.888,0,0,1-3.68-1.448l-3.065,2.009-4.363-4.213,1.9-3.134a14.874,14.874,0,0,1-1.576-3.626l-3.588-.748-.107-6.064,3.561-.873a14.88,14.88,0,0,1,1.447-3.679l-2.009-3.065L18,116.927Zm3.232,8.079a6.506,6.506,0,1,0,9.2-.162,6.506,6.506,0,0,0-9.2.162" transform="translate(-1.686 -17.745)" fill="#ececec"/>
        <rect id="Rectángulo_45029" data-name="Rectángulo 45029" width="56.748" height="45.051" transform="translate(3.656 22.061) rotate(-10.251)" fill="#fff"/>
        <rect id="Rectángulo_45030" data-name="Rectángulo 45030" width="56.748" height="11.791" transform="translate(3.656 22.061) rotate(-10.251)" fill="#ececec"/>
        <path id="Trazado_214682" data-name="Trazado 214682" d="M19.483,47.934a4.832,4.832,0,0,1-.144-.6Q19.209,46.7,19,45.7c-.282-1.4-.673-3.367-1.115-5.726l.179.124-7.981,1.467c-.032.045.271-.39.143-.205v.015l0,.017.006.035.013.068.024.137.05.273.1.542q.1.539.192,1.068l.369,2.065c.235,1.339.458,2.6.664,3.77l-.179-.123c2.365-.413,4.347-.736,5.755-.962l1.646-.256a4.8,4.8,0,0,1,.612-.075,3.1,3.1,0,0,1-.537.132l-1.6.33c-1.388.28-3.4.678-5.823,1.133l-.15.028-.029-.152-.7-3.764q-.184-1.006-.377-2.063-.1-.529-.195-1.067l-.1-.542L9.929,41.7,9.9,41.561l-.013-.068-.006-.035,0-.017v-.015l.143-.208,7.989-1.42.152-.027.026.15c.424,2.431.755,4.453.979,5.851q.153.983.251,1.612a3.125,3.125,0,0,1,.063.549" transform="translate(-1.539 -6.215)" fill="#e1e1e1"/>
        <path id="Trazado_214683" data-name="Trazado 214683" d="M31.872,45.694a4.832,4.832,0,0,1-.144-.6q-.132-.638-.336-1.633c-.282-1.4-.673-3.367-1.115-5.726l.179.124-7.981,1.467c-.032.045.271-.39.143-.205v.015l0,.017.006.035.013.068.024.137.05.273.1.542q.1.539.192,1.068l.369,2.065c.235,1.339.458,2.6.664,3.77l-.179-.124c2.365-.412,4.347-.735,5.755-.961l1.646-.256a4.8,4.8,0,0,1,.612-.075,3.1,3.1,0,0,1-.537.132l-1.6.33c-1.388.28-3.4.678-5.823,1.133l-.15.028-.029-.152-.7-3.764q-.184-1.006-.377-2.063-.1-.529-.195-1.067l-.1-.542-.05-.273-.024-.137-.013-.068-.006-.035,0-.017v-.015l.143-.208,7.989-1.42.152-.027.026.15c.424,2.431.755,4.453.979,5.851q.153.983.251,1.612a3.125,3.125,0,0,1,.063.549" transform="translate(-3.475 -5.865)" fill="#e1e1e1"/>
        <path id="Trazado_214684" data-name="Trazado 214684" d="M44.261,43.454a4.831,4.831,0,0,1-.144-.6q-.13-.638-.336-1.633c-.282-1.4-.673-3.367-1.115-5.726l.179.124-7.981,1.467c-.032.045.271-.39.143-.205v.007l0,.008,0,.017.007.035.012.068.025.137.049.273.1.542q.1.539.192,1.067l.369,2.065c.235,1.338.458,2.6.664,3.77l-.179-.124c2.365-.412,4.347-.736,5.755-.961l1.646-.257a4.8,4.8,0,0,1,.612-.075,3.1,3.1,0,0,1-.537.132l-1.6.33c-1.387.28-3.4.678-5.823,1.133l-.15.028-.028-.152c-.217-1.164-.451-2.427-.7-3.764q-.185-1.006-.378-2.063-.1-.529-.195-1.067l-.1-.542-.049-.273-.025-.137-.012-.068-.007-.035,0-.017,0-.008v-.007c-.127.184.174-.252.144-.208l7.988-1.421.152-.027.027.151c.424,2.431.754,4.453.978,5.851q.153.983.251,1.612a3.125,3.125,0,0,1,.063.549" transform="translate(-5.411 -5.515)" fill="#e1e1e1"/>
        <path id="Trazado_214685" data-name="Trazado 214685" d="M56.65,41.213a4.83,4.83,0,0,1-.144-.6q-.132-.638-.336-1.633c-.282-1.4-.673-3.367-1.115-5.726l.179.124-7.981,1.467c-.032.045.271-.39.143-.205v.007l0,.008,0,.017.007.035.012.068.024.137.05.273.1.542q.1.539.192,1.067l.369,2.065c.235,1.339.458,2.6.664,3.77l-.179-.123c2.365-.413,4.347-.736,5.755-.962l1.646-.256a4.8,4.8,0,0,1,.612-.075,3.1,3.1,0,0,1-.537.132l-1.6.33c-1.387.28-3.4.679-5.823,1.133l-.15.028-.029-.152c-.216-1.164-.45-2.427-.7-3.764q-.184-1.006-.377-2.063-.1-.529-.195-1.067l-.1-.542-.05-.273-.024-.137-.013-.068-.006-.035,0-.017,0-.008V34.7l.143-.208,7.989-1.42.152-.028.026.151c.424,2.431.755,4.453.979,5.851q.153.983.251,1.612a3.126,3.126,0,0,1,.063.549" transform="translate(-7.347 -5.165)" fill="#e1e1e1"/>
        <path id="Trazado_214686" data-name="Trazado 214686" d="M69.04,38.973a4.547,4.547,0,0,1-.145-.6q-.132-.638-.335-1.633c-.283-1.4-.674-3.367-1.116-5.726l.18.124-7.981,1.467c-.033.045.27-.39.142-.205v.007l0,.008,0,.017.007.035.012.068.024.137.05.273.1.542q.1.539.192,1.067.19,1.057.369,2.065c.235,1.339.458,2.6.665,3.77l-.18-.123c2.366-.413,4.347-.736,5.755-.962l1.646-.256a4.788,4.788,0,0,1,.613-.075,3.165,3.165,0,0,1-.537.132l-1.6.33c-1.387.28-3.4.678-5.823,1.133l-.149.028-.029-.152c-.217-1.164-.451-2.427-.7-3.764-.122-.671-.25-1.359-.378-2.063q-.1-.529-.195-1.067l-.1-.542-.049-.273-.024-.137-.013-.068-.006-.035,0-.017v-.013l0,0,.143-.208,7.989-1.42.152-.027.026.15c.424,2.431.756,4.453.979,5.851q.153.983.251,1.612a3.323,3.323,0,0,1,.064.549" transform="translate(-9.283 -4.815)" fill="#e1e1e1"/>
        <path id="Trazado_214687" data-name="Trazado 214687" d="M21.684,60.105a4.832,4.832,0,0,1-.144-.6q-.132-.638-.336-1.633c-.282-1.4-.673-3.367-1.115-5.726l.179.124-7.981,1.467c-.032.045.271-.39.143-.205v.015l0,.017.006.035.013.068.024.137.05.273.1.542q.1.539.192,1.068l.369,2.065c.235,1.339.458,2.6.664,3.77l-.179-.123c2.365-.413,4.347-.736,5.755-.962l1.646-.256a4.8,4.8,0,0,1,.612-.075,3.1,3.1,0,0,1-.537.132l-1.6.33c-1.388.28-3.4.678-5.823,1.133l-.15.028-.029-.152-.7-3.764q-.184-1.006-.377-2.063-.1-.529-.195-1.067l-.1-.542-.05-.273-.024-.137-.013-.068-.006-.035,0-.017V53.6l.143-.208,7.989-1.42.152-.027.026.15c.424,2.431.755,4.453.979,5.851q.153.983.251,1.612a3.125,3.125,0,0,1,.063.549" transform="translate(-1.883 -8.117)" fill="#e1e1e1"/>
        <path id="Trazado_214688" data-name="Trazado 214688" d="M34.073,57.865a4.832,4.832,0,0,1-.144-.6q-.132-.638-.336-1.633c-.282-1.4-.673-3.367-1.115-5.726l.179.124L24.676,51.5c-.032.045.271-.39.143-.205V51.3l0,.008,0,.017.007.035.012.068.025.137.049.273.1.542q.1.539.192,1.067l.369,2.065c.235,1.338.458,2.6.664,3.77l-.179-.124c2.365-.412,4.347-.736,5.755-.961l1.646-.256a4.805,4.805,0,0,1,.612-.075,3.1,3.1,0,0,1-.537.132l-1.6.33c-1.387.28-3.4.678-5.823,1.133l-.15.028-.028-.152c-.217-1.164-.451-2.427-.7-3.764q-.185-1.006-.378-2.063-.1-.529-.195-1.068l-.1-.541-.049-.273-.025-.137-.012-.068-.007-.035,0-.017,0-.008v-.007l.143-.208,7.989-1.42.152-.028.026.151c.424,2.431.755,4.453.979,5.851q.153.983.251,1.612a3.125,3.125,0,0,1,.063.549" transform="translate(-3.819 -7.767)" fill="#e1e1e1"/>
        <path id="Trazado_214689" data-name="Trazado 214689" d="M46.462,55.625a4.832,4.832,0,0,1-.144-.6q-.13-.638-.336-1.633c-.282-1.4-.673-3.367-1.115-5.726l.179.124-7.981,1.467c-.032.045.271-.39.143-.205v.007l0,.008,0,.017.007.035.012.068.024.137.05.273.1.542q.1.539.192,1.068l.369,2.065c.235,1.339.458,2.6.664,3.77l-.179-.124c2.365-.412,4.347-.735,5.755-.961l1.646-.256a4.8,4.8,0,0,1,.612-.075,3.1,3.1,0,0,1-.537.132l-1.6.33c-1.387.28-3.4.678-5.823,1.133l-.15.028-.028-.152c-.217-1.164-.451-2.427-.7-3.764q-.185-1.006-.378-2.063-.1-.529-.195-1.067l-.1-.542-.05-.273-.024-.137-.013-.068-.006-.035,0-.017v-.015L37,48.909l7.989-1.42.152-.027.026.15c.424,2.431.755,4.453.979,5.851q.153.983.251,1.612a3.125,3.125,0,0,1,.063.549" transform="translate(-5.755 -7.417)" fill="#e1e1e1"/>
        <path id="Trazado_214690" data-name="Trazado 214690" d="M58.851,53.384a4.83,4.83,0,0,1-.144-.6q-.13-.638-.336-1.633c-.282-1.4-.673-3.367-1.115-5.726l.179.124-7.981,1.467c-.032.045.271-.39.143-.205v.015l0,.017.006.035.013.068.024.137.05.273.1.542q.1.539.192,1.068l.369,2.065c.235,1.339.458,2.6.664,3.77l-.179-.124c2.365-.412,4.347-.735,5.755-.961l1.646-.256a4.8,4.8,0,0,1,.612-.075,3.1,3.1,0,0,1-.537.132l-1.6.33c-1.387.28-3.4.678-5.823,1.133l-.15.028-.028-.152c-.217-1.164-.451-2.427-.7-3.764q-.184-1.006-.377-2.063-.1-.529-.195-1.067l-.1-.542-.049-.273-.025-.137-.013-.068-.006-.035,0-.017v-.015l.143-.208,7.989-1.42.152-.027.026.15c.424,2.431.755,4.453.979,5.851q.153.983.251,1.612a3.126,3.126,0,0,1,.063.549" transform="translate(-7.691 -7.067)" fill="#e1e1e1"/>
        <path id="Trazado_214691" data-name="Trazado 214691" d="M71.24,51.144a4.831,4.831,0,0,1-.144-.6q-.13-.638-.336-1.633c-.282-1.4-.673-3.367-1.115-5.726l.179.124-7.981,1.467c-.032.045.271-.39.143-.205v.015l0,.017.007.035.012.068.024.137.05.273.1.542q.1.539.192,1.067l.369,2.065c.235,1.339.458,2.6.664,3.77l-.179-.124c2.365-.412,4.347-.735,5.755-.961l1.646-.256a4.8,4.8,0,0,1,.612-.075,3.1,3.1,0,0,1-.537.132l-1.6.33c-1.387.28-3.4.678-5.823,1.133l-.15.028-.029-.152c-.216-1.164-.45-2.427-.7-3.764q-.184-1.006-.377-2.063-.1-.529-.195-1.067l-.1-.542-.049-.273-.025-.137-.013-.068-.006-.035,0-.017v-.015l.143-.208,7.989-1.421.152-.026.026.15c.424,2.431.755,4.453.979,5.851q.153.983.251,1.612a3.126,3.126,0,0,1,.063.549" transform="translate(-9.627 -6.717)" fill="#e1e1e1"/>
        <rect id="Rectángulo_45031" data-name="Rectángulo 45031" width="8.115" height="8.115" transform="matrix(0.984, -0.178, 0.178, 0.984, 12.105, 55.031)" fill="#e1e1e1"/>
        <path id="Trazado_214692" data-name="Trazado 214692" d="M36.127,69.223a4.833,4.833,0,0,1-.144-.6q-.132-.638-.336-1.633c-.282-1.4-.673-3.367-1.115-5.726l.179.124L26.73,62.856c-.032.045.271-.39.143-.205v.015l0,.017.006.035.013.068.024.137.05.273.1.542q.1.539.192,1.068l.369,2.065c.235,1.339.458,2.6.664,3.77l-.179-.123c2.365-.413,4.347-.736,5.755-.962l1.646-.256a4.8,4.8,0,0,1,.612-.075,3.1,3.1,0,0,1-.537.132l-1.6.33c-1.388.28-3.4.679-5.823,1.133l-.15.028-.029-.152-.7-3.764q-.184-1.006-.378-2.063-.095-.529-.194-1.067l-.1-.542-.05-.273-.024-.137-.013-.068-.006-.035,0-.017v-.015l.143-.208,7.989-1.42.152-.027.026.15c.424,2.432.755,4.453.979,5.851q.153.983.251,1.612a3.124,3.124,0,0,1,.063.549" transform="translate(-4.14 -9.542)" fill="#e1e1e1"/>
        <path id="Trazado_214693" data-name="Trazado 214693" d="M48.516,66.983a4.831,4.831,0,0,1-.144-.6q-.132-.638-.336-1.633c-.282-1.4-.673-3.367-1.115-5.726l.179.124-7.981,1.467c-.032.045.271-.39.143-.205v.007l0,.008,0,.017.007.035.012.068.024.137.05.273.1.542q.1.539.192,1.067l.369,2.065c.235,1.339.458,2.6.664,3.77l-.179-.123c2.365-.413,4.348-.736,5.755-.962l1.646-.257a4.8,4.8,0,0,1,.612-.075,3.1,3.1,0,0,1-.537.132l-1.6.33c-1.387.28-3.4.679-5.823,1.133l-.15.028-.029-.152c-.216-1.164-.45-2.427-.7-3.764q-.185-1.006-.378-2.063-.1-.529-.195-1.067l-.1-.542-.05-.273-.024-.137-.012-.068-.007-.035,0-.017v-.015l.143-.208,7.989-1.42.152-.028.027.151c.424,2.431.754,4.453.978,5.851q.153.983.251,1.612a3.125,3.125,0,0,1,.063.549" transform="translate(-6.076 -9.192)" fill="#e1e1e1"/>
        <path id="Trazado_214694" data-name="Trazado 214694" d="M60.905,64.743a4.883,4.883,0,0,1-.144-.6q-.132-.638-.336-1.633c-.282-1.4-.673-3.367-1.115-5.726l.179.124-7.981,1.467c-.032.045.271-.39.143-.205v.007l0,.008,0,.017.007.035.012.068.024.137.05.273.1.542q.1.539.192,1.067l.369,2.065c.235,1.339.458,2.6.664,3.77l-.179-.123c2.365-.413,4.347-.736,5.755-.962l1.646-.256a4.805,4.805,0,0,1,.612-.075,3.1,3.1,0,0,1-.537.132l-1.6.33c-1.387.28-3.4.678-5.823,1.133l-.15.028-.029-.152c-.216-1.164-.45-2.427-.7-3.764q-.184-1.006-.377-2.063-.1-.529-.195-1.067l-.1-.542-.05-.273-.024-.137-.013-.068-.006-.035,0-.017,0-.008v-.007c-.127.184.174-.252.144-.208l7.988-1.42.152-.027.026.15c.424,2.431.755,4.453.979,5.851q.153.983.251,1.612a3.125,3.125,0,0,1,.063.549" transform="translate(-8.012 -8.842)" fill="#e1e1e1"/>
        <path id="Trazado_214695" data-name="Trazado 214695" d="M73.3,62.5a4.831,4.831,0,0,1-.144-.6q-.132-.638-.336-1.633c-.282-1.4-.673-3.367-1.115-5.726l.179.124L63.9,56.135c-.032.045.271-.39.143-.205v.007l0,.008,0,.017.006.035.013.068.024.137.05.273.1.542q.1.539.192,1.068l.369,2.065.663,3.77-.178-.123c2.365-.413,4.347-.736,5.755-.962l1.646-.256A4.8,4.8,0,0,1,73.3,62.5a3.1,3.1,0,0,1-.537.132l-1.6.33c-1.387.28-3.4.678-5.823,1.133l-.15.028-.028-.152c-.217-1.164-.451-2.427-.7-3.764q-.184-1.006-.377-2.063-.1-.529-.195-1.067l-.1-.542-.05-.273-.024-.137L63.7,56.06l-.006-.035,0-.017v-.015l.143-.208,7.989-1.42.152-.028.026.151c.424,2.431.755,4.453.979,5.851q.153.983.251,1.612a3.126,3.126,0,0,1,.063.549" transform="translate(-9.948 -8.491)" fill="#e1e1e1"/>
        <path id="Trazado_214696" data-name="Trazado 214696" d="M18.479,26.643l-.029.005a1.24,1.24,0,0,1-1.44-1l-.883-4.887a1.239,1.239,0,0,1,1-1.439l.029-.006a1.24,1.24,0,0,1,1.44,1l.883,4.887a1.239,1.239,0,0,1-1,1.44" transform="translate(-2.517 -3.016)" fill="#e1e1e1"/>
        <path id="Trazado_214697" data-name="Trazado 214697" d="M37.5,23.2l-.029.005a1.24,1.24,0,0,1-1.44-1l-.883-4.887a1.239,1.239,0,0,1,1-1.439l.029-.006a1.24,1.24,0,0,1,1.44,1l.883,4.887a1.239,1.239,0,0,1-1,1.44" transform="translate(-5.489 -2.478)" fill="#e1e1e1"/>
        <path id="Trazado_214698" data-name="Trazado 214698" d="M56.514,19.765l-.029.005a1.239,1.239,0,0,1-1.44-1l-.883-4.887a1.238,1.238,0,0,1,1-1.439l.03-.006a1.239,1.239,0,0,1,1.439,1l.884,4.887a1.24,1.24,0,0,1-1,1.44" transform="translate(-8.461 -1.941)" fill="#e1e1e1"/>
        <path id="Trazado_214699" data-name="Trazado 214699" d="M68.3,59.27s-.063-.289-.168-.835-.256-1.363-.453-2.412c-.392-2.117-.964-5.206-1.693-9.143-1.443-7.875-3.5-19.132-5.992-32.708l.171.119L4.331,24.419H4.326l.143-.207c2.942,16.309,5.721,31.714,8.142,45.129l-.185-.128L52.767,62,64.2,59.973l3.036-.53.785-.132c.178-.03.273-.04.273-.04s-.081.021-.251.055l-.765.148-3,.561L52.9,62.136,12.483,69.525l-.156.029L12.3,69.4C9.868,55.985,7.076,40.583,4.12,24.276L4.088,24.1l.175-.031h.005L60.111,14l.146-.026.025.146c2.432,13.625,4.448,24.923,5.859,32.826.694,3.928,1.239,7.011,1.612,9.124.181,1.04.319,1.839.415,2.39s.13.81.13.81" transform="translate(-0.639 -2.184)" fill="#e1e1e1"/>
        <path id="Trazado_214700" data-name="Trazado 214700" d="M188.636,16.9a19.58,19.58,0,0,1,4.776-2.075L194.4,10.1l7.987-.14,1.149,4.689a19.56,19.56,0,0,1,4.846,1.907l4.036-2.646,5.747,5.548-2.5,4.126a19.576,19.576,0,0,1,2.076,4.777l4.727.984.14,7.986-4.689,1.15a19.549,19.549,0,0,1-1.906,4.846l2.645,4.036L213.1,53.108l-4.127-2.5a19.542,19.542,0,0,1-4.776,2.076l-.984,4.727-7.986.14-1.15-4.689a19.585,19.585,0,0,1-4.846-1.907L185.2,53.6l-5.747-5.548,2.5-4.127a19.55,19.55,0,0,1-2.076-4.776l-4.727-.984-.141-7.987,4.689-1.15a19.567,19.567,0,0,1,1.907-4.845l-2.646-4.037,5.548-5.746Zm4.257,10.639a8.569,8.569,0,1,0,12.116-.213,8.569,8.569,0,0,0-12.116.213" transform="translate(-27.349 -1.556)" fill="#ececec"/>
        <path id="Trazado_214701" data-name="Trazado 214701" d="M204.947,257.127c0,.069-42.189.125-94.219.125-52.049,0-94.229-.056-94.229-.125S58.679,257,110.728,257c52.03,0,94.219.056,94.219.125" transform="translate(-2.578 -40.162)" fill="#1a2e35"/>
        <rect id="Rectángulo_45032" data-name="Rectángulo 45032" width="9.269" height="14.465" transform="translate(110.288 12.539)" fill="#1a2e35"/>
        <path id="Trazado_214702" data-name="Trazado 214702" d="M144.055,16.864H124.964V1.273a36.405,36.405,0,0,1,19.091,0Z" transform="translate(-19.528 0)" fill="#54a813"/>
        <path id="Trazado_214703" data-name="Trazado 214703" d="M144.262,1.586a3.615,3.615,0,0,1-.7.349,17.841,17.841,0,0,1-2.011.74,23.481,23.481,0,0,1-3.1.734,26.414,26.414,0,0,1-3.885.331,26.431,26.431,0,0,1-3.888-.294,23.412,23.412,0,0,1-3.1-.7,17.748,17.748,0,0,1-2.017-.721,3.581,3.581,0,0,1-.708-.343c.023-.057,1.054.376,2.788.842a26.9,26.9,0,0,0,3.085.629,28.821,28.821,0,0,0,3.842.265,28.925,28.925,0,0,0,3.839-.3,26.775,26.775,0,0,0,3.078-.659c1.73-.482,2.756-.925,2.78-.868" transform="translate(-19.51 -0.247)" fill="#1a2e35"/>
        <path id="Trazado_214704" data-name="Trazado 214704" d="M132.409,17.461c-.09,0-.163-2.994-.163-6.685s.073-6.685.163-6.685.163,2.993.163,6.685-.073,6.685-.163,6.685" transform="translate(-20.666 -0.639)" fill="#1a2e35"/>
        <path id="Trazado_214705" data-name="Trazado 214705" d="M136.714,17.556c-.09,0-.163-3.007-.163-6.715s.073-6.715.163-6.715.163,3.006.163,6.715-.073,6.715-.163,6.715" transform="translate(-21.339 -0.645)" fill="#1a2e35"/>
        <path id="Trazado_214706" data-name="Trazado 214706" d="M141.019,17.484c-.09,0-.163-3.007-.163-6.715s.073-6.715.163-6.715.163,3.006.163,6.715-.073,6.715-.163,6.715" transform="translate(-22.012 -0.634)" fill="#1a2e35"/>
        <path id="Trazado_214707" data-name="Trazado 214707" d="M144.6,17.283c-.091,0-.164-3.25-.164-7.258s.073-7.259.164-7.259.162,3.249.162,7.259-.072,7.258-.162,7.258" transform="translate(-22.572 -0.432)" fill="#1a2e35"/>
        <path id="Trazado_214708" data-name="Trazado 214708" d="M128.338,17.174c-.09,0-.163-3.25-.163-7.258s.073-7.259.163-7.259.163,3.249.163,7.259-.073,7.258-.163,7.258" transform="translate(-20.03 -0.415)" fill="#1a2e35"/>
        <rect id="Rectángulo_45033" data-name="Rectángulo 45033" width="10.46" height="6.703" transform="translate(160.142 38.374) rotate(-43.699)" fill="#1a2e35"/>
        <path id="Trazado_214709" data-name="Trazado 214709" d="M202.749,45.01l-9.538-9.981,8.152-7.789A26.326,26.326,0,0,1,210.9,37.22Z" transform="translate(-30.193 -4.257)" fill="#54a813"/>
        <path id="Trazado_214710" data-name="Trazado 214710" d="M195.1,36.939c-.053-.056,1.795-1.928,4.127-4.182s4.268-4.038,4.322-3.982-1.795,1.927-4.128,4.182-4.268,4.038-4.321,3.982" transform="translate(-30.489 -4.496)" fill="#1a2e35"/>
        <path id="Trazado_214711" data-name="Trazado 214711" d="M197.259,39.193a11.1,11.1,0,0,1,1.24-1.255c.789-.75,1.892-1.772,3.118-2.891l3.151-2.853.96-.858c.232-.2.344-.308.357-.309a36.822,36.822,0,0,1-4.28,4.226c-1.226,1.12-2.35,2.119-3.173,2.832a10.863,10.863,0,0,1-1.373,1.109" transform="translate(-30.826 -4.849)" fill="#1a2e35"/>
        <path id="Trazado_214712" data-name="Trazado 214712" d="M200.127,42.192a11.413,11.413,0,0,1,1.258-1.263c.8-.753,1.919-1.781,3.164-2.906l3.205-2.861.982-.853a3.266,3.266,0,0,1,.374-.3,7.51,7.51,0,0,1-1.223,1.3c-.792.764-1.907,1.8-3.152,2.923s-2.384,2.13-3.219,2.846a11.264,11.264,0,0,1-1.39,1.116" transform="translate(-31.274 -5.315)" fill="#1a2e35"/>
        <path id="Trazado_214713" data-name="Trazado 214713" d="M202.811,44.938c-.053-.056,1.819-1.917,4.18-4.156s4.32-4.009,4.373-3.954-1.819,1.916-4.181,4.156-4.319,4.009-4.372,3.954" transform="translate(-31.693 -5.755)" fill="#1a2e35"/>
        <rect id="Rectángulo_45034" data-name="Rectángulo 45034" width="6.703" height="10.46" transform="translate(50.519 39.722) rotate(-41.423)" fill="#1a2e35"/>
        <path id="Trazado_214714" data-name="Trazado 214714" d="M68.181,40.219,57.829,49.354,50.369,40.9a26.331,26.331,0,0,1,10.352-9.135Z" transform="translate(-7.871 -4.964)" fill="#54a813"/>
        <path id="Trazado_214715" data-name="Trazado 214715" d="M59.815,49.175c-.057.051-1.855-1.87-4.015-4.29s-3.865-4.425-3.809-4.476,1.855,1.87,4.016,4.29,3.865,4.424,3.808,4.475" transform="translate(-8.124 -6.315)" fill="#1a2e35"/>
        <path id="Trazado_214716" data-name="Trazado 214716" d="M62.156,47.042a11.194,11.194,0,0,1-1.2-1.289c-.717-.818-1.7-1.961-2.765-3.229L55.46,39.261l-.818-.994c-.195-.24-.294-.356-.3-.368A36.653,36.653,0,0,1,58.4,42.343c1.071,1.27,2.025,2.432,2.7,3.284a10.906,10.906,0,0,1,1.054,1.415" transform="translate(-8.493 -5.922)" fill="#1a2e35"/>
        <path id="Trazado_214717" data-name="Trazado 214717" d="M65.268,44.266a11.416,11.416,0,0,1-1.212-1.307c-.721-.83-1.7-1.989-2.779-3.277l-2.73-3.316-.814-1.016a3.123,3.123,0,0,1-.285-.385,7.51,7.51,0,0,1,1.25,1.273c.731.822,1.72,1.976,2.794,3.265s2.033,2.466,2.717,3.329a11.273,11.273,0,0,1,1.06,1.433" transform="translate(-8.977 -5.464)" fill="#1a2e35"/>
        <path id="Trazado_214718" data-name="Trazado 214718" d="M68.115,41.772c-.058.051-1.843-1.893-3.987-4.342s-3.836-4.475-3.777-4.526,1.843,1.893,3.987,4.342,3.836,4.475,3.777,4.526" transform="translate(-9.431 -5.142)" fill="#1a2e35"/>
        <path id="Trazado_214719" data-name="Trazado 214719" d="M196.336,100.492a76.41,76.41,0,1,1-76.41-76.41,76.41,76.41,0,0,1,76.41,76.41" transform="translate(-6.8 -3.763)" fill="#54a813"/>
        <path id="Trazado_214720" data-name="Trazado 214720" d="M191.275,101.642a70.2,70.2,0,1,1-70.2-70.2,70.2,70.2,0,0,1,70.2,70.2" transform="translate(-7.951 -4.914)" fill="#fff"/>
        <path id="Trazado_214721" data-name="Trazado 214721" d="M121.033,172.037A70.438,70.438,0,1,1,191.471,101.6a70.518,70.518,0,0,1-70.438,70.439m0-140.4A69.958,69.958,0,1,0,190.99,101.6,70.038,70.038,0,0,0,121.033,31.64" transform="translate(-7.906 -4.869)" fill="#1a2e35"/>
        <path id="Trazado_214722" data-name="Trazado 214722" d="M81.867,76.394c2.924-9.079,8.918-15.221,16.859-20.508S117.494,48.62,127,49.425V106Z" transform="translate(-12.793 -7.697)" fill="#54a813"/>
        <g id="Grupo_149217" data-name="Grupo 149217" transform="translate(69.074 41.555)" opacity="0.8">
          <g id="Grupo_149216" data-name="Grupo 149216">
            <g id="Grupo_149215" data-name="Grupo 149215" clip-path="url(#clip-path-3)">
              <path id="Trazado_214723" data-name="Trazado 214723" d="M81.867,76.394c2.924-9.079,8.918-15.221,16.859-20.508S117.494,48.62,127,49.425V106Z" transform="translate(-81.867 -49.251)" fill="#fff"/>
            </g>
          </g>
        </g>
        <path id="Trazado_214724" data-name="Trazado 214724" d="M122.307,111.6,90.731,87.07l36.979,17.05,1.088,6.48Z" transform="translate(-14.179 -13.606)" fill="#54a813"/>
        <g id="Grupo_149220" data-name="Grupo 149220" transform="translate(76.552 73.464)" opacity="0.4">
          <g id="Grupo_149219" data-name="Grupo 149219">
            <g id="Grupo_149218" data-name="Grupo 149218" clip-path="url(#clip-path-4)">
              <path id="Trazado_214725" data-name="Trazado 214725" d="M90.731,87.07,123.7,106.459l4.005-2.339Z" transform="translate(-90.731 -87.07)"/>
            </g>
          </g>
        </g>
        <path id="Trazado_214726" data-name="Trazado 214726" d="M134.651,107.3a6.571,6.571,0,1,1-6.571,6.571,6.571,6.571,0,0,1,6.571-6.571" transform="translate(-20.015 -16.767)" fill="#fafafa"/>
        <path id="Trazado_214727" data-name="Trazado 214727" d="M134.627,107.294a14.122,14.122,0,0,0-1.589.267,6.548,6.548,0,0,0-3.544,2.4,6.435,6.435,0,0,0-.9,6.093,6.434,6.434,0,0,0,2.241,2.977,6.39,6.39,0,0,0,7.579,0,6.436,6.436,0,0,0,2.242-2.978,6.439,6.439,0,0,0-.9-6.094,6.546,6.546,0,0,0-3.543-2.4,14.123,14.123,0,0,0-1.589-.267,5.09,5.09,0,0,1,1.619.144,6.548,6.548,0,0,1,3.695,2.381,6.619,6.619,0,0,1,1.272,2.808,6.711,6.711,0,0,1-.275,3.527,6.709,6.709,0,0,1-2.334,3.13,6.679,6.679,0,0,1-7.955,0,6.7,6.7,0,0,1-2.334-3.129,6.71,6.71,0,0,1-.275-3.527,6.616,6.616,0,0,1,1.272-2.807,6.544,6.544,0,0,1,3.694-2.382,5.1,5.1,0,0,1,1.62-.144" transform="translate(-19.991 -16.765)" fill="#1a2e35"/>
        <path id="Trazado_214728" data-name="Trazado 214728" d="M134.962,109.289a4.89,4.89,0,1,1-4.89,4.89,4.89,4.89,0,0,1,4.89-4.89" transform="translate(-20.326 -17.079)" fill="#1a2e35"/>
        <path id="Trazado_214729" data-name="Trazado 214729" d="M135.4,103.312s-1.347-42.309.61-51.232c0,0,3.274,25.649-.61,51.232" transform="translate(-21.089 -8.139)" fill="#1a2e35"/>
        <path id="Trazado_214730" data-name="Trazado 214730" d="M119.723,167.873l-.084,0,.189-5.275.149.007Zm26.34-4.278-1.971-4.9.147-.058,1.9,4.927Zm-52.244-2.518-.08-.041,2.348-4.727.13.066Zm74.619-12.14-3.764-3.7.1-.1,3.732,3.732Zm-95.494-4.592-.079-.1,4.091-3.336.069.084Zm110.019-17.9-4.948-1.839.052-.138,4.927,1.9ZM60.656,120.566l-.037-.136,5.1-1.354.024.09Zm121.127-20.287,0-.084,5.269-.317.008.149Zm0-.1-.008-.116,5.269-.317.008.117ZM64.323,94.632l-5.218-.791.018-.118,5.218.795Zm111-18.166-.05-.1,4.689-2.424.057.111ZM73,71.648l-4.44-2.854.058-.091,4.45,2.839Zm86.76-14.192-.092-.073,3.3-4.122.091.073ZM90.273,54.167l-2.891-4.416.079-.052,2.928,4.392Zm47.545-7.79-.1-.025,1.325-5.11.129.034Zm-24.653-1.151-.857-5.208.118-.019.852,5.209Z" transform="translate(-9.236 -6.251)" fill="#1a2e35"/>
        <path id="Trazado_214731" data-name="Trazado 214731" d="M230.169,188.684c0,.069-6.508.125-14.533.125s-14.534-.056-14.534-.125,6.506-.125,14.534-.125,14.533.056,14.533.125" transform="translate(-31.426 -29.466)" fill="#1a2e35"/>
        <path id="Trazado_214732" data-name="Trazado 214732" d="M241.007,184.828c0,.069-6.508.125-14.533.125s-14.534-.056-14.534-.125,6.506-.125,14.534-.125,14.533.056,14.533.125" transform="translate(-33.12 -28.864)" fill="#1a2e35"/>
        <path id="Trazado_214733" data-name="Trazado 214733" d="M33.983,163.163c0,.069-6.036.125-13.48.125s-13.482-.056-13.482-.125,6.034-.125,13.482-.125,13.48.056,13.48.125" transform="translate(-1.097 -25.478)" fill="#1a2e35"/>
        <path id="Trazado_214734" data-name="Trazado 214734" d="M44.036,159.307c0,.069-6.036.125-13.48.125s-13.482-.056-13.482-.125,6.034-.125,13.482-.125,13.48.056,13.48.125" transform="translate(-2.668 -24.875)" fill="#1a2e35"/>
        <path id="Trazado_214735" data-name="Trazado 214735" d="M171.186,86.33a2.2,2.2,0,0,1,2.531-.2,3,3,0,0,1,3.413,1.417,2.67,2.67,0,0,1,2.95,3.506,2.231,2.231,0,0,1,.438,4.211,2.144,2.144,0,0,1-2.366,3.55l-7.512-10a2.194,2.194,0,0,1,.546-2.48" transform="translate(-26.639 -13.411)" fill="#1a2e35"/>
        <path id="Trazado_214736" data-name="Trazado 214736" d="M175.755,99.52a9.1,9.1,0,0,0-5.378-11.1l-.439-.172c-4.835-1.583-8.881,1.64-10.33,6.518L154.1,110.773l-.131,2.235,4.909,7.4,4.178-1.915,2.4-4.483s4.822,1.081,6.665-3.441c.889-2.184,2.357-6.83,3.635-11.05" transform="translate(-24.061 -13.726)" fill="#ffc19d"/>
        <path id="Trazado_214737" data-name="Trazado 214737" d="M166.652,118.113a11.841,11.841,0,0,1-5.268-4.084s-.192,4.058,4.5,5.432Z" transform="translate(-25.219 -17.819)" fill="#ff9c6a"/>
        <path id="Trazado_214738" data-name="Trazado 214738" d="M176.015,105.893a.7.7,0,0,1-.883.408.667.667,0,0,1-.439-.848.7.7,0,0,1,.883-.409.668.668,0,0,1,.44.849" transform="translate(-27.294 -16.41)" fill="#1a2e35"/>
        <path id="Trazado_214739" data-name="Trazado 214739" d="M177.075,103.916c-.114.053-.462-.5-1.161-.777s-1.348-.124-1.39-.24c-.022-.052.12-.173.407-.248a1.916,1.916,0,0,1,1.154.088,1.842,1.842,0,0,1,.883.724c.15.249.163.431.108.453" transform="translate(-27.273 -16.033)" fill="#1a2e35"/>
        <path id="Trazado_214740" data-name="Trazado 214740" d="M168.783,103.459a.7.7,0,0,1-.883.408.667.667,0,0,1-.439-.848.7.7,0,0,1,.883-.409.668.668,0,0,1,.44.849" transform="translate(-26.164 -16.029)" fill="#1a2e35"/>
        <path id="Trazado_214741" data-name="Trazado 214741" d="M169.2,100.688c-.114.053-.463-.5-1.162-.777s-1.347-.124-1.39-.24c-.023-.052.119-.174.407-.248a1.916,1.916,0,0,1,1.154.088,1.837,1.837,0,0,1,.883.724c.149.249.162.431.108.453" transform="translate(-26.042 -15.529)" fill="#1a2e35"/>
        <path id="Trazado_214742" data-name="Trazado 214742" d="M169.99,107.036a4.946,4.946,0,0,1,1.214.241c.186.051.369.083.446-.027a.973.973,0,0,0,.089-.575c0-.5.005-1.018.007-1.565a25.032,25.032,0,0,1,.213-4.017,25.146,25.146,0,0,1,.111,4.025q-.016.819-.032,1.564a1.11,1.11,0,0,1-.182.737.482.482,0,0,1-.4.145,1.3,1.3,0,0,1-.32-.077,4.92,4.92,0,0,1-1.15-.451" transform="translate(-26.564 -15.798)" fill="#1a2e35"/>
        <path id="Trazado_214743" data-name="Trazado 214743" d="M169.8,98.263c-.135.166-.717-.166-1.48-.351-.759-.2-1.437-.192-1.466-.4-.011-.1.161-.237.469-.328a2.345,2.345,0,0,1,1.2,0,2.257,2.257,0,0,1,1.04.576c.219.225.294.427.232.507" transform="translate(-26.074 -15.174)" fill="#1a2e35"/>
        <path id="Trazado_214744" data-name="Trazado 214744" d="M175.629,100.113c.179-.121.614.21,1.2.413.58.224,1.126.251,1.185.458.024.1-.109.235-.377.316a1.841,1.841,0,0,1-1.924-.7c-.153-.235-.166-.424-.085-.485" transform="translate(-27.438 -15.641)" fill="#1a2e35"/>
        <path id="Trazado_214745" data-name="Trazado 214745" d="M176.831,97.129s-.079-3.317-1.191-4.52c-1.345-1.457-2.777.084-4.186-.98s-2.691-2.459-4.791-1.872c-2.3.643-1.837,1.909-2.74,3.882-3.658,8-6.059,9.724-4.97,5.707.12-.44-.92-1.236-.392-3.086.684-2.4,1.7-5.24,2.859-6.677a6.95,6.95,0,0,1,3.969-2.353c2.885-.785,5.963.385,7.961,1.412s5.069,5,3.479,8.488" transform="translate(-24.755 -13.591)" fill="#1a2e35"/>
        <path id="Trazado_214746" data-name="Trazado 214746" d="M158.764,101.29a1.325,1.325,0,0,0-.864-1.712c-.879-.253-2.011-.143-2.644,1.631-1.122,3.145,2.267,3.623,2.305,3.534.025-.06.745-2.133,1.2-3.453" transform="translate(-24.226 -15.545)" fill="#ffc19d"/>
        <path id="Trazado_214747" data-name="Trazado 214747" d="M157.515,103.521c-.01-.015-.068.019-.176.028a.582.582,0,0,1-.413-.138,1.439,1.439,0,0,1-.193-1.44,1.919,1.919,0,0,1,.434-.73.673.673,0,0,1,.562-.273.3.3,0,0,1,.269.266c.011.1-.031.159-.016.17s.086-.029.107-.167a.372.372,0,0,0-.054-.241.434.434,0,0,0-.274-.188.815.815,0,0,0-.746.284,1.967,1.967,0,0,0-.5.808,1.51,1.51,0,0,0,.315,1.644.625.625,0,0,0,.531.1c.125-.043.166-.108.158-.117" transform="translate(-24.442 -15.75)" fill="#ff9c6a"/>
        <path id="Trazado_214748" data-name="Trazado 214748" d="M161.931,93.124a3.174,3.174,0,0,0,1.077,1.125,1.089,1.089,0,0,0,1.4-.271c.121-.2.167-.473.375-.584.248-.133.537.052.786.182a2.131,2.131,0,0,0,2.617-.613.894.894,0,0,0,1.075.544,4.753,4.753,0,0,0,1.2-.572,1.373,1.373,0,0,1,1.277-.114c.217.122.378.344.617.414.423.124.809-.275,1.03-.656s.455-.834.887-.919c.4-.078.769.2,1.123.407s.873.305,1.114-.024a.791.791,0,0,0,.083-.618,2.163,2.163,0,0,0-2.076-1.7,2.93,2.93,0,0,0-4.8-2.5,2.974,2.974,0,0,0-4.82-.731,2.156,2.156,0,0,0-3.41,2.028,2.049,2.049,0,0,0-1.644,1.105,1.172,1.172,0,0,0,.8,1.6,1.194,1.194,0,0,0,1.486,1.864" transform="translate(-24.966 -13.373)" fill="#1a2e35"/>
        <path id="Trazado_214749" data-name="Trazado 214749" d="M160.522,92.167a.8.8,0,0,0-.041.673,1.072,1.072,0,0,0,.477.616,1.157,1.157,0,0,0,.987.091l-.124-.072a3.322,3.322,0,0,0,.316,1.018,1.9,1.9,0,0,0,.428.575,1.48,1.48,0,0,0,1.7.143,1.938,1.938,0,0,0,.505-.548.674.674,0,0,0,.123-.241c-.013-.008-.073.067-.183.2a2.267,2.267,0,0,1-.52.478,1.361,1.361,0,0,1-1.883-.69,3.344,3.344,0,0,1-.306-.959l-.019-.112-.105.041a1.013,1.013,0,0,1-.843-.056.986.986,0,0,1-.445-.518,1.631,1.631,0,0,1-.067-.636" transform="translate(-25.071 -14.403)" fill="#375a64"/>
        <path id="Trazado_214750" data-name="Trazado 214750" d="M170.8,86.494c-.006.01.073.054.188.167a1.148,1.148,0,0,1,.321.6l.014.073.066-.04a4.156,4.156,0,0,1,1.98-.625,3.221,3.221,0,0,1,1.328.213,2.7,2.7,0,0,1,1.168.893,2.745,2.745,0,0,1,.492,1.05,2.263,2.263,0,0,1-.027,1.071l-.029.1.1.012a1.87,1.87,0,0,1,1.229.665,1.828,1.828,0,0,1,.408,1.034,2.515,2.515,0,0,1-.168,1,.7.7,0,0,0,.138-.24,1.864,1.864,0,0,0,.138-.762,1.9,1.9,0,0,0-.4-1.123,2.008,2.008,0,0,0-1.326-.748l.076.113a2.42,2.42,0,0,0,.04-1.161,2.9,2.9,0,0,0-.522-1.126,2.859,2.859,0,0,0-1.254-.951,3.342,3.342,0,0,0-1.4-.207,4.061,4.061,0,0,0-2.028.706l.079.033a1.132,1.132,0,0,0-.386-.62.5.5,0,0,0-.225-.126" transform="translate(-26.691 -13.516)" fill="#375a64"/>
        <path id="Trazado_214751" data-name="Trazado 214751" d="M169.47,110.941a12.932,12.932,0,0,0-.931-1.048,13.145,13.145,0,0,0-1.185-.749,2.383,2.383,0,0,1,2.116,1.8" transform="translate(-26.152 -17.053)" fill="#1a2e35"/>
        <path id="Trazado_214752" data-name="Trazado 214752" d="M208.614,139.153a52.374,52.374,0,0,1,5.729.7.9.9,0,0,1-1,1.1c-1.2-.039-5.138-.354-5.138-.354l-2.535,1.116-.835-.365Z" transform="translate(-32.01 -21.743)" fill="#ff9c6a"/>
        <path id="Trazado_214753" data-name="Trazado 214753" d="M196.682,140.277l7.38.7,1.153.14s2.718-.985,3.218-1.074,5.079,2.384,5.079,2.384.173,1.06-1.1.787a14.247,14.247,0,0,1-2.827-1.057s-4.142,1.936-4.97,2.31-5.759.345-5.759.345l-1.744,1.14Z" transform="translate(-30.736 -21.884)" fill="#ffc19d"/>
        <path id="Trazado_214754" data-name="Trazado 214754" d="M200.122,152.483l3.011-1.91,10.351-3.685s.908-.826.44-1.16-11.487,1.322-11.487,1.322l-2.314,1.3Z" transform="translate(-31.273 -22.766)" fill="#ffc19d"/>
        <path id="Trazado_214755" data-name="Trazado 214755" d="M161.013,143.94c0,.577-9,15.421-11.557,19.131-3.791,5.5-7.592,6.185-7.592,6.185l-5.046-4.217,20.77-22.512,6.168-4.5Z" transform="translate(-21.38 -21.57)" fill="#375a64"/>
        <path id="Trazado_214756" data-name="Trazado 214756" d="M159.978,151.914s8.082,3.647,11.107,4.167c3.562.613,23.1-.764,23.1-.764l-.37-7.778-28.546-.648-3.41-.905Z" transform="translate(-25 -22.813)" fill="#375a64"/>
        <g id="Grupo_149223" data-name="Grupo 149223" transform="translate(115.842 122.848)" opacity="0.3">
          <g id="Grupo_149222" data-name="Grupo 149222">
            <g id="Grupo_149221" data-name="Grupo 149221" clip-path="url(#clip-path-5)">
              <path id="Trazado_214757" data-name="Trazado 214757" d="M159.1,145.711c-.59.267-.927,1.826-1.374,2.294-4.729,4.966-8.2,10.572-13.079,15.065-2.105,1.937-4.493,3.593-7.35,3.451L140.215,169c2.43-.049,4.042-1.191,5.874-2.789s2.612-3.89,4.026-5.867c3.221-4.5,6.376-9.541,9.6-14.045-.159-.627-.022-.854-.612-.587" transform="translate(-137.298 -145.601)"/>
            </g>
          </g>
        </g>
        <path id="Trazado_214758" data-name="Trazado 214758" d="M134.777,161.023s4.217.321,5.809-.666c1.9-1.18,18.759-23.278,18.759-23.278l.148-17.263-9.51-9.074-.985,1.5L128.776,135.32,115.8,147.636l15.556,8.357Z" transform="translate(-18.096 -17.306)" fill="#e1e1e1"/>
        <path id="Trazado_214759" data-name="Trazado 214759" d="M153.782,136.69c-.506.607.3,9.309-11.029,10.523-9.566,1.025-29.514-.041-35.5-.4a2.792,2.792,0,0,1-2.673-2.894,2.416,2.416,0,0,1,.937-1.753c2.125-1.735,4.351-1.2,5.666-4.754s.715-4.879,3.036-6.289c3.28-1.992,11.3,1.659,11.3,1.659,2.017-3.051,3.078-5.739,5.911-9.382,2.291-2.944,5.4-6.974,7.914-8.4a32.389,32.389,0,0,1,4.642-1.832l1.552-.273,1.035-1.362c1.526,1.555,7.235,6.812,8.243,8.65l1.153,6.711Z" transform="translate(-16.341 -17.43)" fill="#375a64"/>
        <g id="Grupo_149226" data-name="Grupo 149226" transform="translate(138.912 123.09)" opacity="0.3">
          <g id="Grupo_149225" data-name="Grupo 149225">
            <g id="Grupo_149224" data-name="Grupo 149224" clip-path="url(#clip-path-6)">
              <path id="Trazado_214760" data-name="Trazado 214760" d="M189.809,148.88a170.684,170.684,0,0,1-24.595-2.991l-.573,1.246c5.353,3.342,9.053,3.464,13.111,3.756s7.825-.333,11.747-.333a2.48,2.48,0,0,0,.31-1.678" transform="translate(-164.641 -145.888)"/>
            </g>
          </g>
        </g>
        <g id="Grupo_149229" data-name="Grupo 149229" transform="translate(119.551 108.499)" opacity="0.3">
          <g id="Grupo_149228" data-name="Grupo 149228">
            <g id="Grupo_149227" data-name="Grupo 149227" clip-path="url(#clip-path-7)">
              <path id="Trazado_214761" data-name="Trazado 214761" d="M144.739,128.6l-3.045.192c1.264,4.131,3.31,5.531,6.79,8.091s4.038,3.313,7.981,5.078c.375.168,3.354,2.03,3.447,1.629-6.762-4.154-10.666-8.458-15.173-14.99" transform="translate(-141.693 -128.595)"/>
            </g>
          </g>
        </g>
        <path id="Trazado_214762" data-name="Trazado 214762" d="M141.707,124.393c-1.106,3.08.9,4.491.9,4.491s16.317,14.819,22.9,15.568,23.858-.166,23.858-.166v-8.043l-21.038-2.26S159.862,124.006,155.18,119" transform="translate(-22.093 -18.597)" fill="#375a64"/>
        <path id="Trazado_214763" data-name="Trazado 214763" d="M155.173,119s.089.082.252.251l.719.755c.624.671,1.538,1.661,2.691,2.949,2.31,2.574,5.6,6.32,9.56,10.96l-.064-.034,21.042,2.235.108.012v.11c0,2.577,0,5.28,0,8.043v.119l-.118.005-3.777.172c-5.34.209-10.5.35-15.363.254l-1.809-.057c-.6-.037-1.192-.06-1.78-.107a16.257,16.257,0,0,1-1.75-.208c-.284-.069-.567-.143-.843-.229s-.548-.182-.811-.293a33.879,33.879,0,0,1-5.722-3.151,110.528,110.528,0,0,1-8.9-6.662c-2.489-2.044-4.521-3.82-6.048-5.207l.005,0a3.362,3.362,0,0,1-1.116-1.784,4.019,4.019,0,0,1-.072-1.536,4.732,4.732,0,0,1,.213-.915c.067-.2.106-.3.106-.3s-.023.105-.08.307a5.254,5.254,0,0,0-.186.913,4.015,4.015,0,0,0,.1,1.509,3.288,3.288,0,0,0,1.1,1.719l.005,0c1.539,1.369,3.583,3.129,6.081,5.157s5.45,4.333,8.912,6.614a33.742,33.742,0,0,0,5.691,3.115c.26.109.53.189.8.286s.545.154.822.221a15.858,15.858,0,0,0,1.72.2c.585.046,1.177.068,1.772.1l1.806.054c4.854.089,10.011-.055,15.347-.264l3.773-.171-.117.125c0-2.763,0-5.467,0-8.043l.109.121-21.036-2.283-.039,0-.025-.03c-3.946-4.653-7.21-8.419-9.494-11.013l-2.652-2.983-.7-.775c-.156-.175-.231-.271-.231-.271" transform="translate(-22.087 -18.597)" fill="#1a2e35"/>
        <path id="Trazado_214764" data-name="Trazado 214764" d="M162.561,147.208a5.455,5.455,0,0,1-.451.722l-1.266,1.941c-1.062,1.643-2.494,3.936-4.07,6.472s-3.006,4.834-4.066,6.481c-.529.823-.965,1.485-1.273,1.938a5.48,5.48,0,0,1-.5.689,5.626,5.626,0,0,1,.418-.742c.306-.5.712-1.17,1.2-1.98,1.045-1.7,2.45-3.989,4-6.519,1.577-2.537,3.034-4.818,4.136-6.438.548-.811,1.007-1.458,1.333-1.9a5.531,5.531,0,0,1,.53-.667" transform="translate(-23.587 -23.004)" fill="#1a2e35"/>
        <path id="Trazado_214765" data-name="Trazado 214765" d="M218.813,144.6l-19.731,3.02a.69.69,0,0,1-.787-.579l-.031-.2a.691.691,0,0,1,.581-.789l20.918-3.1-.255,1.006a.856.856,0,0,1-.694.645" transform="translate(-30.982 -22.338)" fill="#e1e1e1"/>
        <path id="Trazado_214766" data-name="Trazado 214766" d="M218.79,144.584a.914.914,0,0,0,.7-.808q.09-.376.2-.855l.057.063c-3.484.56-11.348,1.757-20.487,3.111a3.936,3.936,0,0,0-.548.1.561.561,0,0,0-.353.569c.008.075.026.192.04.272a.568.568,0,0,0,.265.375.62.62,0,0,0,.47.059l.561-.085,1.109-.169,4.225-.64,7.157-1.068,4.829-.7,1.315-.178.343-.04a.418.418,0,0,1,.118-.005.423.423,0,0,1-.114.03l-.339.064-1.308.224-4.816.777-7.149,1.121-4.223.654-1.109.17-.56.086a.87.87,0,0,1-.635-.09.818.818,0,0,1-.381-.539c-.019-.111-.032-.185-.046-.3a.808.808,0,0,1,.045-.337.821.821,0,0,1,.463-.483,3.754,3.754,0,0,1,.6-.113c9.139-1.354,17.012-2.491,20.509-2.965l.078-.01-.02.073q-.128.476-.227.848a1.05,1.05,0,0,1-.294.576.827.827,0,0,1-.345.2.336.336,0,0,1-.133.018" transform="translate(-30.958 -22.327)" fill="#1a2e35"/>
        <path id="Trazado_214767" data-name="Trazado 214767" d="M221.945,139.4l5.912-19.893a.7.7,0,0,1,.878-.469l.176.053a.7.7,0,0,1,.469.879l-6.228,20.388Z" transform="translate(-34.684 -18.597)" fill="#e1e1e1"/>
        <path id="Trazado_214768" data-name="Trazado 214768" d="M221.945,139.373a.5.5,0,0,1,.087.057l.238.175.909.692-.069.022c.886-3.082,3.336-11.157,6.174-20.527a.583.583,0,0,0-.154-.448.86.86,0,0,0-.46-.22.593.593,0,0,0-.721.489q-.33,1.107-.651,2.181c-.428,1.43-.841,2.809-1.235,4.124-.792,2.626-1.507,4.991-2.109,6.987l-1.445,4.723c-.171.544-.306.975-.4,1.29l-.111.337a.683.683,0,0,1-.046.117.4.4,0,0,1,.022-.11c.023-.089.051-.2.087-.331l.359-1.28c.327-1.137.792-2.746,1.363-4.727.587-2.008,1.283-4.389,2.056-7.031.391-1.325.8-2.714,1.225-4.155l.651-2.2a.887.887,0,0,1,.359-.544.827.827,0,0,1,.66-.116c.112.032.181.049.3.094a.821.821,0,0,1,.283.2.836.836,0,0,1,.22.642,3.384,3.384,0,0,1-.126.468l-.133.438q-.134.437-.267.869l-.523,1.71q-.519,1.69-1.008,3.286l-1.817,5.888-2.465,7.869-.02.063-.05-.041-.9-.742a2.692,2.692,0,0,1-.283-.251" transform="translate(-34.683 -18.574)" fill="#1a2e35"/>
        <path id="Trazado_214769" data-name="Trazado 214769" d="M161.206,121.68c-.033.021-.4-.526-1.043-1.372a38.324,38.324,0,0,0-2.686-3.158c-1.111-1.18-2.184-2.184-2.962-2.908a13.869,13.869,0,0,1-1.245-1.194,1.627,1.627,0,0,1,.384.263c.237.181.572.454.979.8a38.9,38.9,0,0,1,3.026,2.869,28.1,28.1,0,0,1,2.647,3.226c.306.438.538.8.689,1.061a1.686,1.686,0,0,1,.212.414" transform="translate(-23.951 -17.666)" fill="#1a2e35"/>
        <g id="Grupo_149232" data-name="Grupo 149232" transform="translate(88.177 116.415)" opacity="0.3">
          <g id="Grupo_149231" data-name="Grupo 149231">
            <g id="Grupo_149230" data-name="Grupo 149230" clip-path="url(#clip-path-8)">
              <path id="Trazado_214770" data-name="Trazado 214770" d="M146.514,150.547c-1.4.367-12.436-.38-17.975-2.151a37.228,37.228,0,0,1-10.473-4.912,21.082,21.082,0,0,1-5.192-5.461c-.639-.364-1.059,1.552-1.313,2.345s-.778,2.869-2.245,3.82c-1.795,1.164-4.548,1.547-4.795,3.933a2.73,2.73,0,0,0,2.7,2.8c4.723.232,17.77.857,21.245.855,4.268,0,13.414.241,18.043-1.233" transform="translate(-104.509 -137.977)"/>
            </g>
          </g>
        </g>
        <path id="Trazado_214771" data-name="Trazado 214771" d="M149.786,149.629a2.6,2.6,0,0,1-.311.264,3.936,3.936,0,0,1-1.069.469,14.436,14.436,0,0,1-4.266.272c-1.806-.085-3.942-.358-6.3-.693a63.936,63.936,0,0,1-7.622-1.482,34.492,34.492,0,0,1-7.253-2.782,24.717,24.717,0,0,1-5.186-3.652,19.274,19.274,0,0,1-2.809-3.225c-.284-.418-.493-.75-.62-.984a2.387,2.387,0,0,1-.192-.358,2.552,2.552,0,0,1,.234.331c.142.224.362.548.657.954a20.569,20.569,0,0,0,2.849,3.15,25.182,25.182,0,0,0,5.174,3.579,35.088,35.088,0,0,0,7.209,2.744,66.82,66.82,0,0,0,7.59,1.5c2.358.348,4.484.637,6.281.744a15.106,15.106,0,0,0,4.231-.19,4.264,4.264,0,0,0,1.066-.417,2.478,2.478,0,0,1,.338-.222" transform="translate(-17.839 -21.481)" fill="#1a2e35"/>
        <path id="Trazado_214772" data-name="Trazado 214772" d="M158.8,148.42c-.051.047-.38-.226-.735-.61s-.6-.732-.553-.78.381.226.736.61.6.732.552.78" transform="translate(-24.614 -22.976)" fill="#1a2e35"/>
        <path id="Trazado_214773" data-name="Trazado 214773" d="M153.221,118.251c-.018.046-.683-.262-1.826-.45a8.711,8.711,0,0,0-8.1,2.948c-.755.88-1.068,1.542-1.109,1.518a1.693,1.693,0,0,1,.2-.468,7.271,7.271,0,0,1,.771-1.163,8.426,8.426,0,0,1,8.269-3.009,7.4,7.4,0,0,1,1.337.4,1.829,1.829,0,0,1,.458.228" transform="translate(-22.219 -18.356)" fill="#1a2e35"/>
        <path id="Trazado_214774" data-name="Trazado 214774" d="M146.735,143.545c0,.008-.059.035-.181.079a4.527,4.527,0,0,1-.54.17,7.441,7.441,0,0,1-2.069.226,10.728,10.728,0,0,1-3.04-.543,17.184,17.184,0,0,1-3.432-1.577c-1.152-.687-2.2-1.416-3.146-2.072s-1.807-1.242-2.55-1.7-1.36-.8-1.8-1.017a5.217,5.217,0,0,1-.671-.356.613.613,0,0,1,.19.057c.12.046.3.109.523.212a17.915,17.915,0,0,1,1.844.953c1.531.862,3.461,2.332,5.733,3.707a17.784,17.784,0,0,0,3.377,1.574,11.141,11.141,0,0,0,2.974.586,10.328,10.328,0,0,0,2.783-.3" transform="translate(-20.207 -21.371)" fill="#1a2e35"/>
        <path id="Trazado_214775" data-name="Trazado 214775" d="M149.15,149.628a1.988,1.988,0,0,1-.366,0l-1.046-.057c-.454-.025-1.009-.062-1.652-.129s-1.378-.12-2.184-.235-1.692-.213-2.634-.381c-.947-.143-1.948-.348-3-.563a59.433,59.433,0,0,1-6.747-1.871,51.668,51.668,0,0,1-6.434-2.766c-.945-.518-1.852-.994-2.657-1.515-.4-.255-.807-.484-1.174-.737l-1.05-.728c-.681-.449-1.245-.926-1.757-1.318-.253-.2-.5-.381-.707-.56l-.567-.5c-.325-.291-.584-.524-.781-.7a1.866,1.866,0,0,1-.26-.257,2.129,2.129,0,0,1,.294.219q.3.251.809.662l.58.483c.215.174.46.347.716.542.52.381,1.09.845,1.773,1.283l1.055.712c.369.246.771.471,1.176.721.806.51,1.712.977,2.656,1.487a53.587,53.587,0,0,0,6.41,2.735,62.407,62.407,0,0,0,6.714,1.881c1.049.221,2.046.433,2.988.583.938.176,1.819.3,2.623.41s1.535.191,2.174.271,1.193.131,1.646.171l1.042.1a2.02,2.02,0,0,1,.362.053" transform="translate(-18.148 -21.457)" fill="#1a2e35"/>
        <path id="Trazado_214776" data-name="Trazado 214776" d="M148.221,241.96l-.784,13,19.693.148c-.1-1.882-10.261-5.735-10.261-5.735l.306-7.05Z" transform="translate(-23.04 -37.811)" fill="#54a813"/>
        <path id="Trazado_214777" data-name="Trazado 214777" d="M151.3,249.676a.8.8,0,0,0-.563.914.773.773,0,0,0,.9.566.849.849,0,0,0,.591-.971.8.8,0,0,0-1-.484" transform="translate(-23.553 -39.012)" fill="#e1e1e1"/>
        <path id="Trazado_214778" data-name="Trazado 214778" d="M147.436,257.062l-.005-1.662,18.931.865s.872.394.764,1.01Z" transform="translate(-23.039 -39.912)" fill="#1a2e35"/>
        <path id="Trazado_214779" data-name="Trazado 214779" d="M158.661,250.614c0,.1-.485.136-.96.442s-.731.708-.819.669c-.089-.019.059-.593.641-.953s1.159-.246,1.138-.158" transform="translate(-24.512 -39.149)" fill="#e1e1e1"/>
        <path id="Trazado_214780" data-name="Trazado 214780" d="M161.192,251.655c.021.094-.4.254-.726.658s-.428.834-.523.829c-.091.014-.153-.549.267-1.044s.98-.535.982-.443" transform="translate(-24.984 -39.32)" fill="#e1e1e1"/>
        <path id="Trazado_214781" data-name="Trazado 214781" d="M162.783,254.3c-.088.02-.218-.462.033-.986s.7-.731.742-.651-.24.359-.44.794-.24.834-.336.843" transform="translate(-25.421 -39.481)" fill="#e1e1e1"/>
        <path id="Trazado_214782" data-name="Trazado 214782" d="M158.432,247.814c-.041.088-.481-.049-1.025-.016s-.969.2-1.018.118.361-.423,1-.452,1.09.275,1.042.35" transform="translate(-24.438 -38.671)" fill="#e1e1e1"/>
        <path id="Trazado_214783" data-name="Trazado 214783" d="M157.722,244.809a1.851,1.851,0,0,1-.986-.013,4.43,4.43,0,0,1-1.029-.325,4.694,4.694,0,0,1-.564-.3,1.2,1.2,0,0,1-.3-.235.418.418,0,0,1-.04-.511.528.528,0,0,1,.423-.217,1.279,1.279,0,0,1,.37.054,3.526,3.526,0,0,1,.612.215,3.468,3.468,0,0,1,.9.6c.454.427.607.787.575.806s-.264-.272-.726-.624a3.918,3.918,0,0,0-.876-.5,3.63,3.63,0,0,0-.565-.179c-.208-.057-.386-.059-.44.033-.019.035-.022.05.021.111a.991.991,0,0,0,.218.171,5.009,5.009,0,0,0,.519.3,5.4,5.4,0,0,0,.95.373,6.806,6.806,0,0,1,.932.243" transform="translate(-24.181 -38.006)" fill="#e1e1e1"/>
        <path id="Trazado_214784" data-name="Trazado 214784" d="M158.079,244.689a1.573,1.573,0,0,1-.253-.954,3.188,3.188,0,0,1,.4-1.676.815.815,0,0,1,.633-.494.461.461,0,0,1,.41.278,1.321,1.321,0,0,1,.1.362,2.184,2.184,0,0,1,0,.664,2.271,2.271,0,0,1-.429,1.016c-.389.507-.791.619-.8.586-.032-.048.3-.231.6-.72a2.272,2.272,0,0,0,.319-.924,2.03,2.03,0,0,0-.014-.57c-.029-.209-.106-.379-.185-.358-.1,0-.266.154-.348.321a3.278,3.278,0,0,0-.248.532,3.532,3.532,0,0,0-.2.983c-.031.577.068.938.016.953" transform="translate(-24.663 -37.75)" fill="#e1e1e1"/>
        <path id="Trazado_214785" data-name="Trazado 214785" d="M66.077,204.614l-12.7-2.882L50.035,221.14c1.873.206,7.324-9.194,7.324-9.194l6.907,1.445Z" transform="translate(-7.819 -31.525)" fill="#54a813"/>
        <path id="Trazado_214786" data-name="Trazado 214786" d="M60.654,206.765a.8.8,0,0,0-.81-.7.773.773,0,0,0-.7.8.847.847,0,0,0,.861.74.8.8,0,0,0,.641-.91" transform="translate(-9.241 -32.201)" fill="#e1e1e1"/>
        <path id="Trazado_214787" data-name="Trazado 214787" d="M53.363,201.733,55,202l-3.923,18.54s-.53.8-1.12.59Z" transform="translate(-7.807 -31.525)" fill="#1a2e35"/>
        <path id="Trazado_214788" data-name="Trazado 214788" d="M58.617,213.869c-.095-.019-.056-.5-.28-1.019s-.58-.836-.527-.916c.033-.084.575.154.836.787s.055,1.184-.029,1.148" transform="translate(-9.033 -33.117)" fill="#e1e1e1"/>
        <path id="Trazado_214789" data-name="Trazado 214789" d="M57.121,216.192c-.1.006-.186-.432-.532-.823s-.753-.557-.733-.651c0-.092.567-.062.987.432s.368,1.055.278,1.041" transform="translate(-8.729 -33.548)" fill="#e1e1e1"/>
        <path id="Trazado_214790" data-name="Trazado 214790" d="M54.231,217.333c-.005-.089.491-.14.968.192s.607.812.521.839-.316-.3-.712-.563-.784-.372-.777-.468" transform="translate(-8.475 -33.952)" fill="#e1e1e1"/>
        <path id="Trazado_214791" data-name="Trazado 214791" d="M61.511,214.118c-.08-.055.125-.467.181-1.009s-.041-.988.048-1.023.359.424.284,1.061-.448,1.03-.514.971" transform="translate(-9.609 -33.142)" fill="#e1e1e1"/>
        <path id="Trazado_214792" data-name="Trazado 214792" d="M64.324,213.9a1.842,1.842,0,0,1,.172-.971,4.46,4.46,0,0,1,.488-.964,4.635,4.635,0,0,1,.392-.507,1.2,1.2,0,0,1,.278-.254.42.42,0,0,1,.512.043.53.53,0,0,1,.145.453,1.275,1.275,0,0,1-.113.355,3.484,3.484,0,0,1-1.054,1.364c-.494.378-.875.471-.888.435s.31-.216.733-.615a3.938,3.938,0,0,0,.638-.783,3.727,3.727,0,0,0,.268-.528c.089-.2.121-.371.039-.44-.032-.025-.046-.03-.113,0a.977.977,0,0,0-.2.187,5.047,5.047,0,0,0-.381.462,5.549,5.549,0,0,0-.522.878,6.742,6.742,0,0,1-.391.88" transform="translate(-10.041 -32.995)" fill="#e1e1e1"/>
        <path id="Trazado_214793" data-name="Trazado 214793" d="M64.2,214.221a1.571,1.571,0,0,1,.983-.094,3.2,3.2,0,0,1,1.041.316,3.158,3.158,0,0,1,.548.349.814.814,0,0,1,.384.7.458.458,0,0,1-.341.359,1.307,1.307,0,0,1-.373.039,2.177,2.177,0,0,1-.655-.112,2.268,2.268,0,0,1-.933-.587c-.437-.467-.483-.881-.449-.883.052-.024.179.338.613.711a2.272,2.272,0,0,0,.86.465,2.03,2.03,0,0,0,.565.078c.211.005.391-.043.383-.124.019-.1-.109-.287-.26-.395a3.278,3.278,0,0,0-.485-.332,3.539,3.539,0,0,0-.937-.355c-.565-.125-.937-.084-.943-.138" transform="translate(-10.033 -33.458)" fill="#e1e1e1"/>
        <path id="Trazado_214794" data-name="Trazado 214794" d="M105.436,156.384c-.7,1.123-7.989,4.963-7.814,16.374l-4.754,24.959-28.427-2.663-2.633,11.411,36.08,5.951s5.091,1.229,8.075-4.739,10.969-27.721,11.145-28.247,5.092-13.343,5.092-13.343Z" transform="translate(-9.659 -24.438)" fill="#1a2e35"/>
        <path id="Trazado_214795" data-name="Trazado 214795" d="M107.224,164.886c-.062.338-1.949,7.566,5.5,12.954S141.958,197.1,141.958,197.1l.573,2.292-1.949,33.838,12.342.239s3.593-33.274,3.707-36.713-.27-8.146-4.668-11.948c-4.355-3.765-23.073-19.92-23.073-19.92s-15.53-8.6-15.376-8.5-5.372,3.458-6.289,8.5" transform="translate(-16.716 -24.438)" fill="#1a2e35"/>
        <path id="Trazado_214796" data-name="Trazado 214796" d="M113.516,155.974l1.655-2.212a68.659,68.659,0,0,1,11.89,6.325c2.978,2.155,7.333,5.045,6.943,8.1Z" transform="translate(-17.739 -24.029)" fill="#1a2e35"/>
        <path id="Trazado_214797" data-name="Trazado 214797" d="M141.941,197.86a.62.62,0,0,1-.127-.066l-.356-.215-1.358-.848-4.969-3.163c-4.182-2.689-9.966-6.395-16.282-10.6-1.585-1.051-3.072-2.155-4.552-3.16a32.008,32.008,0,0,1-4.052-3.215,10.924,10.924,0,0,1-2.684-3.829,11.081,11.081,0,0,1-.7-4.017,12.52,12.52,0,0,1,1.357-5.709,9.11,9.11,0,0,1,.862-1.353l.266-.321a.614.614,0,0,1,.1-.1.569.569,0,0,1-.078.121l-.245.336a10.219,10.219,0,0,0-.817,1.368,12.7,12.7,0,0,0-1.266,5.663,10.987,10.987,0,0,0,.72,3.942,10.783,10.783,0,0,0,2.652,3.74,32.15,32.15,0,0,0,4.031,3.178c1.482,1,2.972,2.106,4.551,3.153,6.312,4.2,12.081,7.934,16.239,10.661l4.925,3.23,1.333.888.343.235a.615.615,0,0,1,.112.088" transform="translate(-16.699 -25.2)" fill="#375a64"/>
        <path id="Trazado_214798" data-name="Trazado 214798" d="M146.067,178.076a1.036,1.036,0,0,1-.213-.15l-.58-.469-2.1-1.761-6.881-5.882a55.53,55.53,0,0,0-7.177-5.467c-.967-.635-1.758-1.136-2.305-1.482l-.629-.4a1.109,1.109,0,0,1-.212-.152.992.992,0,0,1,.238.109c.151.079.371.2.653.361.563.321,1.37.8,2.351,1.417a50.1,50.1,0,0,1,7.248,5.43l6.829,5.933,2.051,1.821.55.5a.992.992,0,0,1,.181.189" transform="translate(-19.685 -25.364)" fill="#375a64"/>
        <path id="Trazado_214799" data-name="Trazado 214799" d="M102.938,212.544a68.019,68.019,0,0,1-4.43-6.961,34.128,34.128,0,0,1,2.32,3.414,34.108,34.108,0,0,1,2.109,3.547" transform="translate(-15.394 -32.127)" fill="#375a64"/>
        <path id="Trazado_214800" data-name="Trazado 214800" d="M105.119,210.356a27.11,27.11,0,0,1-2.928-2.228,26.977,26.977,0,0,1-2.771-2.422,27.206,27.206,0,0,1,2.929,2.229,27.073,27.073,0,0,1,2.77,2.422" transform="translate(-15.536 -32.145)" fill="#375a64"/>
        <path id="Trazado_214801" data-name="Trazado 214801" d="M154.405,202.033c.017.07-1.425.475-3.183,1.036s-3.171,1.061-3.2.995a3.662,3.662,0,0,1,.888-.429c.562-.231,1.35-.522,2.233-.8s1.7-.5,2.287-.635a3.623,3.623,0,0,1,.972-.163" transform="translate(-23.132 -31.571)" fill="#375a64"/>
        <path id="Trazado_214802" data-name="Trazado 214802" d="M155.385,206.82c0,.072-1.362.109-3.034.217s-3.028.24-3.037.169a20.571,20.571,0,0,1,6.071-.386" transform="translate(-23.333 -32.306)" fill="#375a64"/>
        <path id="Trazado_214803" data-name="Trazado 214803" d="M56.419,242.429a26.722,26.722,0,0,1,17.71-8.57c-1.685-2.626-4.679-7.743-6.364-10.369-8.966.047-15.933,5.1-20.646,12.64,3.315,2.389,5.986,3.911,9.3,6.3" transform="translate(-7.363 -34.925)" fill="#e1e1e1"/>
        <path id="Trazado_214804" data-name="Trazado 214804" d="M56.4,242.406a1.247,1.247,0,0,1-.163-.1l-.488-.329-1.857-1.245c-1.613-1.079-4.017-2.535-6.846-4.548l-.071-.051.046-.073a37.52,37.52,0,0,1,2.892-3.989,28.135,28.135,0,0,1,4.033-3.885,23.1,23.1,0,0,1,5.292-3.123,21.9,21.9,0,0,1,6.369-1.6,9.736,9.736,0,0,1,1.072-.077l1.065-.043.068,0,.038.06c2.319,3.669,4.365,7.238,6.355,10.375l.1.158-.186.017a27.923,27.923,0,0,0-7.9,1.806,25.714,25.714,0,0,0-5.553,3.032,33.293,33.293,0,0,0-3.19,2.611l-.8.759-.2.19a.357.357,0,0,1-.069.058.606.606,0,0,1,.067-.077l.2-.207c.175-.18.42-.445.761-.777a30.332,30.332,0,0,1,3.161-2.668,25.331,25.331,0,0,1,5.562-3.1,27.843,27.843,0,0,1,7.954-1.857l-.086.174c-2-3.136-4.057-6.7-6.373-10.362l.105.057-1.054.042a9.525,9.525,0,0,0-1.06.077,21.751,21.751,0,0,0-6.3,1.577,23,23,0,0,0-5.245,3.08,28.089,28.089,0,0,0-4.014,3.839,37.721,37.721,0,0,0-2.9,3.949l-.024-.123c2.808,2.025,5.2,3.506,6.8,4.612.8.547,1.417.985,1.831,1.287l.46.346a1.807,1.807,0,0,1,.16.128" transform="translate(-7.34 -34.902)" fill="#1a2e35"/>
        <path id="Trazado_214805" data-name="Trazado 214805" d="M52,236.164a31.474,31.474,0,0,1,3.234,2.306,31.7,31.7,0,0,1,3.082,2.5,31.592,31.592,0,0,1-3.234-2.306,31.7,31.7,0,0,1-3.082-2.5" transform="translate(-8.126 -36.905)" fill="#1a2e35"/>
        <path id="Trazado_214806" data-name="Trazado 214806" d="M54.178,233.407a31.666,31.666,0,0,1,3.016,2.583,31.722,31.722,0,0,1,2.848,2.768,31.6,31.6,0,0,1-3.016-2.583,31.647,31.647,0,0,1-2.848-2.767" transform="translate(-8.466 -36.474)" fill="#1a2e35"/>
        <path id="Trazado_214807" data-name="Trazado 214807" d="M57.424,230.823a5.919,5.919,0,0,1,.81.822c.481.523,1.151,1.239,1.9,2.023s1.417,1.511,1.87,2.063a4.606,4.606,0,0,1,.682.934,6.311,6.311,0,0,1-.814-.817l-1.919-2.008c-.749-.786-1.4-1.525-1.852-2.079a4.887,4.887,0,0,1-.676-.938" transform="translate(-8.973 -36.071)" fill="#1a2e35"/>
        <path id="Trazado_214808" data-name="Trazado 214808" d="M65.591,235.557a4.675,4.675,0,0,1-.788-.839,27.551,27.551,0,0,1-1.646-2.231c-.6-.9-1.105-1.741-1.462-2.351a5.381,5.381,0,0,1-.535-1.017,36.694,36.694,0,0,1,2.2,3.23c.6.9,1.163,1.69,1.578,2.261a6.027,6.027,0,0,1,.649.947" transform="translate(-9.557 -35.805)" fill="#1a2e35"/>
        <path id="Trazado_214809" data-name="Trazado 214809" d="M68.317,234.521a4.031,4.031,0,0,1-.652-.83c-.371-.534-.855-1.294-1.341-2.161s-.88-1.676-1.142-2.273a4.082,4.082,0,0,1-.367-.99c.067-.03.759,1.417,1.727,3.14s1.834,3.072,1.774,3.113" transform="translate(-10.128 -35.671)" fill="#1a2e35"/>
        <path id="Trazado_214810" data-name="Trazado 214810" d="M71.678,233.413a4.427,4.427,0,0,1-.667-.845c-.383-.542-.889-1.307-1.416-2.172s-.975-1.665-1.282-2.254a4.391,4.391,0,0,1-.445-.98,4.823,4.823,0,0,1,.6.893l1.342,2.211,1.35,2.206a4.835,4.835,0,0,1,.519.942" transform="translate(-10.605 -35.499)" fill="#1a2e35"/>
        <path id="Trazado_214811" data-name="Trazado 214811" d="M100.528,172.727a29.162,29.162,0,0,1-20.323-6.921c-.7,3.331-2.3,9.6-3.006,12.931,7,6.837,16.287,8.25,25.724,6.011-.743-4.395-1.651-7.626-2.395-12.021" transform="translate(-12.064 -25.911)" fill="#fafafa"/>
        <path id="Trazado_214812" data-name="Trazado 214812" d="M100.5,172.689a1.607,1.607,0,0,1,.047.2c.03.154.073.363.125.63.114.56.278,1.363.486,2.39.424,2.075,1.174,5.05,1.827,8.781l.015.085-.084.019a40.783,40.783,0,0,1-5.3.88,30.713,30.713,0,0,1-6.108-.076,25.213,25.213,0,0,1-6.5-1.632,23.905,23.905,0,0,1-6.169-3.639,10.409,10.409,0,0,1-.891-.761l-.86-.783-.05-.046.015-.069c1.012-4.628,2.158-8.968,3.017-12.928l.04-.183.144.119a30.487,30.487,0,0,0,7.525,4.656,28.026,28.026,0,0,0,6.639,1.9,35.933,35.933,0,0,0,4.479.416l1.2.022.3.008a.429.429,0,0,1,.1.007.657.657,0,0,1-.11.008l-.31.01c-.273,0-.668.023-1.187.018a33.246,33.246,0,0,1-4.5-.354,27.713,27.713,0,0,1-6.692-1.86,30.427,30.427,0,0,1-7.6-4.656l.183-.064c-.848,3.972-1.988,8.316-3,12.934l-.035-.115.851.775a10.453,10.453,0,0,0,.882.753,23.755,23.755,0,0,0,6.1,3.605,25.078,25.078,0,0,0,6.436,1.629,30.756,30.756,0,0,0,6.062.1,41.178,41.178,0,0,0,5.279-.848l-.069.1c-.629-3.726-1.352-6.708-1.746-8.79-.205-1.04-.346-1.851-.438-2.4-.04-.264-.07-.47-.093-.622s-.03-.219-.027-.222" transform="translate(-12.038 -25.872)" fill="#1a2e35"/>
        <path id="Trazado_214813" data-name="Trazado 214813" d="M101.9,184.717a37.535,37.535,0,0,1-.732-4.271,37.568,37.568,0,0,1-.485-4.306,37.762,37.762,0,0,1,.732,4.271,37.777,37.777,0,0,1,.485,4.306" transform="translate(-15.731 -27.526)" fill="#1a2e35"/>
        <path id="Trazado_214814" data-name="Trazado 214814" d="M98.232,185.177a37.35,37.35,0,0,1-.351-4.319,37.471,37.471,0,0,1-.1-4.333,37.551,37.551,0,0,1,.351,4.319,37.7,37.7,0,0,1,.1,4.333" transform="translate(-15.275 -27.586)" fill="#1a2e35"/>
        <path id="Trazado_214815" data-name="Trazado 214815" d="M93.817,184.71a6.984,6.984,0,0,1,.008-1.259c.03-.775.059-1.844.079-3.027s.057-2.26.127-3.036a5.442,5.442,0,0,1,.177-1.248,7.226,7.226,0,0,1,0,1.258c-.015.863-.034,1.892-.053,3.03-.019,1.185-.077,2.26-.153,3.035a5.854,5.854,0,0,1-.185,1.247" transform="translate(-14.658 -27.526)" fill="#1a2e35"/>
        <path id="Trazado_214816" data-name="Trazado 214816" d="M91.106,174.8a5.475,5.475,0,0,1-.039,1.254c-.068.772-.21,1.834-.435,2.994s-.475,2.2-.664,2.949a6.484,6.484,0,0,1-.356,1.2,6.012,6.012,0,0,1,.183-1.239L90.387,179c.223-1.155.391-2.2.5-2.967a7.226,7.226,0,0,1,.214-1.234" transform="translate(-14.003 -27.317)" fill="#1a2e35"/>
        <path id="Trazado_214817" data-name="Trazado 214817" d="M88.193,173.677a4.793,4.793,0,0,1-.138,1.143c-.124.7-.332,1.659-.619,2.7s-.6,1.977-.851,2.641a4.782,4.782,0,0,1-.467,1.052,5.814,5.814,0,0,1,.3-1.109c.208-.676.491-1.61.778-2.65s.52-1.987.687-2.675a5.813,5.813,0,0,1,.311-1.106" transform="translate(-13.457 -27.141)" fill="#1a2e35"/>
        <path id="Trazado_214818" data-name="Trazado 214818" d="M84.734,171.917a5.223,5.223,0,0,1-.138,1.166c-.121.714-.316,1.7-.569,2.771s-.518,2.041-.729,2.734a5.178,5.178,0,0,1-.4,1.1,5.786,5.786,0,0,1,.227-1.151l.656-2.745c.239-1.026.455-1.955.639-2.748a5.819,5.819,0,0,1,.311-1.131" transform="translate(-12.954 -26.866)" fill="#1a2e35"/>
        <path id="Trazado_214819" data-name="Trazado 214819" d="M116.355,222.326a27.076,27.076,0,0,1-16.477,11.216c2.078,2.381,5.838,7.066,7.916,9.447,8.979-1.378,15.211-7.48,18.816-15.73-3.676-1.9-6.579-3.031-10.255-4.932" transform="translate(-15.608 -34.743)" fill="#ececec"/>
        <path id="Trazado_214820" data-name="Trazado 214820" d="M116.317,222.326a1.377,1.377,0,0,1,.178.078l.538.258,2.045.973c1.777.842,4.4,1.945,7.535,3.542l.078.04-.035.079a38,38,0,0,1-2.307,4.427,28.572,28.572,0,0,1-3.465,4.491,23.425,23.425,0,0,1-4.84,3.914,22.193,22.193,0,0,1-6.146,2.547,9.873,9.873,0,0,1-1.062.236l-1.061.2-.067.013-.046-.054c-2.869-3.334-5.449-6.606-7.907-9.454l-.122-.142.181-.044a28.286,28.286,0,0,0,7.653-2.983,25.987,25.987,0,0,0,5.115-3.863,33.569,33.569,0,0,0,2.81-3.089q.442-.564.689-.88l.175-.221a.391.391,0,0,1,.061-.068.567.567,0,0,1-.055.086l-.166.237c-.148.206-.354.509-.648.891a30.916,30.916,0,0,1-2.772,3.143,25.72,25.72,0,0,1-5.115,3.928,28.247,28.247,0,0,1-7.695,3.041l.059-.186c2.474,2.846,5.061,6.116,7.924,9.44l-.113-.041,1.05-.2a9.922,9.922,0,0,0,1.051-.234,22.071,22.071,0,0,0,6.078-2.515,23.37,23.37,0,0,0,4.8-3.864,28.6,28.6,0,0,0,3.453-4.443,38.319,38.319,0,0,0,2.318-4.389l.042.119c-3.115-1.613-5.73-2.742-7.495-3.614-.886-.429-1.566-.777-2.026-1.018l-.512-.278a1.847,1.847,0,0,1-.18-.1" transform="translate(-15.57 -34.743)" fill="#1a2e35"/>
        <path id="Trazado_214821" data-name="Trazado 214821" d="M125.706,230.489a32.386,32.386,0,0,1-3.582-1.833,32.412,32.412,0,0,1-3.462-2.051,32.449,32.449,0,0,1,3.582,1.833,32.447,32.447,0,0,1,3.461,2.051" transform="translate(-18.543 -35.411)" fill="#1a2e35"/>
        <path id="Trazado_214822" data-name="Trazado 214822" d="M124,233.463a32.383,32.383,0,0,1-3.405-2.142,32.393,32.393,0,0,1-3.266-2.351,32.416,32.416,0,0,1,3.405,2.143,32.43,32.43,0,0,1,3.266,2.35" transform="translate(-18.335 -35.781)" fill="#1a2e35"/>
        <path id="Trazado_214823" data-name="Trazado 214823" d="M121.232,236.426a6.02,6.02,0,0,1-.932-.7c-.559-.453-1.337-1.071-2.2-1.747s-1.644-1.3-2.18-1.79a4.771,4.771,0,0,1-.823-.834,6.365,6.365,0,0,1,.937.7l2.221,1.728c.867.677,1.633,1.32,2.164,1.809a4.956,4.956,0,0,1,.818.839" transform="translate(-17.985 -36.153)" fill="#1a2e35"/>
        <path id="Trazado_214824" data-name="Trazado 214824" d="M112.482,232.76a4.78,4.78,0,0,1,.913.724,27.959,27.959,0,0,1,1.981,1.992c.737.813,1.366,1.58,1.815,2.14a5.592,5.592,0,0,1,.688.939,37.372,37.372,0,0,1-2.688-2.911c-.732-.81-1.416-1.521-1.917-2.033a6.065,6.065,0,0,1-.791-.851" transform="translate(-17.577 -36.373)" fill="#1a2e35"/>
        <path id="Trazado_214825" data-name="Trazado 214825" d="M110.081,234.213a4.164,4.164,0,0,1,.776.736c.451.481,1.048,1.171,1.663,1.968s1.131,1.549,1.482,2.108a4.148,4.148,0,0,1,.515.937c-.062.04-.969-1.309-2.195-2.891s-2.295-2.806-2.242-2.856" transform="translate(-17.202 -36.6)" fill="#1a2e35"/>
        <path id="Trazado_214826" data-name="Trazado 214826" d="M106.82,235.829a4.5,4.5,0,0,1,.793.749c.463.487,1.084,1.178,1.741,1.966s1.224,1.525,1.619,2.069a4.527,4.527,0,0,1,.593.915,4.852,4.852,0,0,1-.732-.807l-1.672-2.017L107.48,236.7a4.981,4.981,0,0,1-.661-.867" transform="translate(-16.693 -36.853)" fill="#1a2e35"/>
        <path id="Trazado_214827" data-name="Trazado 214827" d="M177.518,219.464a27.042,27.042,0,0,1,19.224-5.167c-1.178-2.929-3.186-8.582-4.364-11.51-8.921-1.649-16.8,2.06-22.911,8.658,2.842,3,5.209,5.019,8.052,8.02" transform="translate(-26.483 -31.629)" fill="#fafafa"/>
        <path id="Trazado_214828" data-name="Trazado 214828" d="M177.494,219.443a1.256,1.256,0,0,1-.143-.132l-.423-.419-1.61-1.589c-1.4-1.378-3.512-3.28-5.944-5.816l-.06-.062.06-.063a37.665,37.665,0,0,1,3.63-3.418,28.446,28.446,0,0,1,4.743-3.1,23.38,23.38,0,0,1,5.851-2.1,22.145,22.145,0,0,1,6.633-.385,9.778,9.778,0,0,1,1.079.126l1.066.159.068.009.026.067c1.611,4.086,2.969,8.02,4.353,11.514l.069.174-.186-.018a28.217,28.217,0,0,0-8.2.3,26.043,26.043,0,0,0-6.093,1.963,33.727,33.727,0,0,0-3.665,1.991l-.939.6-.239.15a.365.365,0,0,1-.079.045.6.6,0,0,1,.08-.063l.235-.169c.208-.145.5-.363.9-.628a30.741,30.741,0,0,1,3.646-2.054,25.672,25.672,0,0,1,6.115-2.027,28.186,28.186,0,0,1,8.257-.34l-.117.155c-1.4-3.5-2.764-7.43-4.374-11.506l.093.076-1.055-.156a9.581,9.581,0,0,0-1.068-.125,22.022,22.022,0,0,0-6.559.375,23.305,23.305,0,0,0-5.8,2.069,28.457,28.457,0,0,0-4.716,3.057,38.045,38.045,0,0,0-3.627,3.377v-.126c2.408,2.545,4.5,4.468,5.882,5.869.694.7,1.222,1.248,1.577,1.625l.391.431a1.876,1.876,0,0,1,.135.158" transform="translate(-26.459 -31.608)" fill="#1a2e35"/>
        <path id="Trazado_214829" data-name="Trazado 214829" d="M174.754,211.75a64.517,64.517,0,0,1,5.368,5.976,64.8,64.8,0,0,1-5.368-5.976" transform="translate(-27.309 -33.09)" fill="#1a2e35"/>
        <path id="Trazado_214830" data-name="Trazado 214830" d="M177.439,209.42a64.433,64.433,0,0,1,4.817,6.428,64.71,64.71,0,0,1-4.817-6.428" transform="translate(-27.728 -32.726)" fill="#1a2e35"/>
        <path id="Trazado_214831" data-name="Trazado 214831" d="M181.153,207.467a5.948,5.948,0,0,1,.648.971c.379.611.91,1.449,1.505,2.37s1.122,1.77,1.469,2.4a4.747,4.747,0,0,1,.5,1.057,6.424,6.424,0,0,1-.654-.967l-1.527-2.358c-.6-.924-1.107-1.782-1.448-2.417a5.017,5.017,0,0,1-.5-1.06" transform="translate(-28.309 -32.421)" fill="#1a2e35"/>
        <path id="Trazado_214832" data-name="Trazado 214832" d="M188.376,213.717a4.792,4.792,0,0,1-.624-.983,27.648,27.648,0,0,1-1.214-2.529c-.429-1.009-.769-1.94-1.009-2.615a5.548,5.548,0,0,1-.34-1.111,37.606,37.606,0,0,1,1.579,3.628c.424,1,.836,1.9,1.141,2.546a6.178,6.178,0,0,1,.467,1.063" transform="translate(-28.939 -32.267)" fill="#1a2e35"/>
        <path id="Trazado_214833" data-name="Trazado 214833" d="M191.282,213.2a4.149,4.149,0,0,1-.49-.948c-.267-.6-.6-1.449-.923-2.4s-.558-1.833-.705-2.475a4.12,4.12,0,0,1-.178-1.053c.071-.017.485,1.553,1.12,3.448s1.243,3.4,1.176,3.43" transform="translate(-29.532 -32.243)" fill="#1a2e35"/>
        <path id="Trazado_214834" data-name="Trazado 214834" d="M194.831,212.739a4.511,4.511,0,0,1-.5-.967c-.278-.611-.635-1.467-1-2.427s-.655-1.839-.849-2.482a4.486,4.486,0,0,1-.258-1.058,4.963,4.963,0,0,1,.426,1l.915,2.451c.343.908.654,1.73.926,2.447a5.007,5.007,0,0,1,.338,1.034" transform="translate(-30.038 -32.161)" fill="#1a2e35"/>
        <path id="Trazado_214835" data-name="Trazado 214835" d="M118.615,209.8c2.52,1.871,6.032,1.917,9.008.919s5.548-2.9,8.091-4.742,5.177-3.68,8.2-4.516l-7.061-14.145a33.36,33.36,0,0,0-11.286,7.783c-3.658,4.146-11.98,2.26-11.98,2.26Z" transform="translate(-17.751 -29.273)" fill="#fafafa"/>
        <path id="Trazado_214836" data-name="Trazado 214836" d="M118.588,209.775s-.037-.068-.1-.211l-.271-.635c-.237-.574-.58-1.4-1.02-2.46l-3.721-9.1-.064-.157.169.034a21.462,21.462,0,0,0,5.566.364,14.178,14.178,0,0,0,3.019-.566,7.752,7.752,0,0,0,2.793-1.569c.4-.37.789-.786,1.18-1.21s.822-.815,1.254-1.212a31.021,31.021,0,0,1,2.811-2.229,35.992,35.992,0,0,1,6.578-3.648l.105-.045.052.1c.29.581.6,1.207.915,1.835l6.139,12.313.064.128-.138.038a19.791,19.791,0,0,0-5.32,2.517c-1.593,1.023-3.037,2.117-4.435,3.1a33.983,33.983,0,0,1-4.088,2.555,15.261,15.261,0,0,1-3.878,1.423,11.513,11.513,0,0,1-3.35.213,9.1,9.1,0,0,1-2.438-.558,7.337,7.337,0,0,1-1.391-.708l-.328-.236a.662.662,0,0,1-.1-.084,8.813,8.813,0,0,0,1.852.954,9.148,9.148,0,0,0,2.419.517,11.479,11.479,0,0,0,3.31-.243A15.15,15.15,0,0,0,130,209.568a34.164,34.164,0,0,0,4.052-2.562c1.391-.99,2.832-2.091,4.431-3.125a19.948,19.948,0,0,1,5.377-2.559l-.074.167c-1.9-3.809-3.984-7.972-6.152-12.307-.313-.629-.625-1.253-.915-1.835l.157.061a36,36,0,0,0-6.53,3.615,31.091,31.091,0,0,0-2.792,2.206c-.429.393-.851.786-1.244,1.2s-.771.829-1.195,1.218a7.957,7.957,0,0,1-2.879,1.608,14.324,14.324,0,0,1-3.071.565,21.5,21.5,0,0,1-5.622-.395l.105-.123,3.636,9.111c.422,1.071.75,1.906.978,2.485.106.278.189.494.25.651s.078.227.078.227" transform="translate(-17.723 -29.243)" fill="#1a2e35"/>
        <path id="Trazado_214837" data-name="Trazado 214837" d="M123.857,211.2a49.871,49.871,0,0,1-2.1-4.535,49.824,49.824,0,0,1-1.867-4.635c.063-.027,1,2,2.1,4.536s1.93,4.608,1.867,4.635" transform="translate(-18.735 -31.572)" fill="#1a2e35"/>
        <path id="Trazado_214838" data-name="Trazado 214838" d="M127.377,210.9a48.231,48.231,0,0,1-2.37-4.3,48.323,48.323,0,0,1-2.148-4.413,48.34,48.34,0,0,1,2.37,4.3,48.35,48.35,0,0,1,2.148,4.413" transform="translate(-19.199 -31.596)" fill="#1a2e35"/>
        <path id="Trazado_214839" data-name="Trazado 214839" d="M130.064,209.862a8.809,8.809,0,0,1-.668-1.245c-.391-.778-.933-1.85-1.559-3.021s-1.218-2.217-1.649-2.974a8.847,8.847,0,0,1-.665-1.246,7.179,7.179,0,0,1,.817,1.155c.47.735,1.088,1.772,1.718,2.947s1.147,2.264,1.5,3.064a7.184,7.184,0,0,1,.509,1.32" transform="translate(-19.615 -31.469)" fill="#1a2e35"/>
        <path id="Trazado_214840" data-name="Trazado 214840" d="M132.783,207.592a7.716,7.716,0,0,1-.754-1.117c-.49-.77-1.085-1.7-1.743-2.736l-1.79-2.706a7.751,7.751,0,0,1-.715-1.143,6.769,6.769,0,0,1,.859,1.041c.5.666,1.164,1.606,1.856,2.672s1.28,2.054,1.685,2.782a6.763,6.763,0,0,1,.6,1.207" transform="translate(-19.968 -31.237)" fill="#1a2e35"/>
        <path id="Trazado_214841" data-name="Trazado 214841" d="M135.444,205.587a7,7,0,0,1-.883-1.046c-.516-.668-1.206-1.61-1.933-2.674s-1.354-2.049-1.79-2.772a7.014,7.014,0,0,1-.654-1.2,7.938,7.938,0,0,1,.8,1.107l1.846,2.727,1.87,2.711a7.866,7.866,0,0,1,.74,1.15" transform="translate(-20.344 -30.925)" fill="#1a2e35"/>
        <path id="Trazado_214842" data-name="Trazado 214842" d="M137.686,203.527a7.057,7.057,0,0,1-.883-1.046c-.516-.668-1.206-1.61-1.933-2.674s-1.354-2.049-1.79-2.772a7.015,7.015,0,0,1-.654-1.2,7.938,7.938,0,0,1,.8,1.107l1.846,2.727,1.87,2.711a7.96,7.96,0,0,1,.74,1.15" transform="translate(-20.694 -30.603)" fill="#1a2e35"/>
        <path id="Trazado_214843" data-name="Trazado 214843" d="M140.132,201.856a43.391,43.391,0,0,1-2.783-3.724,43.212,43.212,0,0,1-2.578-3.868,43.38,43.38,0,0,1,2.783,3.724,43.208,43.208,0,0,1,2.578,3.868" transform="translate(-21.06 -30.358)" fill="#1a2e35"/>
        <path id="Trazado_214844" data-name="Trazado 214844" d="M142.354,200.817a7.859,7.859,0,0,1-.726-1.279l-1.58-3.17c-.62-1.235-1.207-2.339-1.666-3.116s-.775-1.24-.744-1.264a5.846,5.846,0,0,1,.894,1.17,31.762,31.762,0,0,1,1.739,3.1c.62,1.24,1.142,2.379,1.517,3.205a9.409,9.409,0,0,1,.567,1.356" transform="translate(-21.508 -30.002)" fill="#1a2e35"/>
        <path id="Trazado_214845" data-name="Trazado 214845" d="M30.009,192.751c2.52,1.871,6.032,1.917,9.008.919s5.548-2.9,8.091-4.742,5.177-3.68,8.2-4.516l-7.061-14.145a33.36,33.36,0,0,0-11.286,7.783c-3.658,4.146-11.98,2.26-11.98,2.26Z" transform="translate(-3.904 -26.608)" fill="#fafafa"/>
        <path id="Trazado_214846" data-name="Trazado 214846" d="M29.982,192.721s-.037-.068-.1-.211l-.271-.635c-.237-.574-.58-1.4-1.02-2.46l-3.721-9.1-.064-.157.169.034a21.462,21.462,0,0,0,5.566.364,14.178,14.178,0,0,0,3.019-.566,7.752,7.752,0,0,0,2.793-1.569c.4-.37.789-.786,1.18-1.21s.822-.815,1.254-1.212A31.021,31.021,0,0,1,41.6,173.77a36.046,36.046,0,0,1,6.578-3.649l.105-.044.052.1c.29.581.6,1.207.915,1.835,2.162,4.338,4.24,8.5,6.139,12.313l.064.128-.138.038a19.766,19.766,0,0,0-5.32,2.517c-1.593,1.023-3.037,2.117-4.435,3.1a33.982,33.982,0,0,1-4.088,2.555,15.26,15.26,0,0,1-3.878,1.423,11.513,11.513,0,0,1-3.35.213,9.1,9.1,0,0,1-2.438-.558,7.336,7.336,0,0,1-1.391-.708l-.328-.236a.73.73,0,0,1-.1-.084,8.813,8.813,0,0,0,1.852.954,9.148,9.148,0,0,0,2.419.517,11.479,11.479,0,0,0,3.31-.243,15.15,15.15,0,0,0,3.828-1.435,34.166,34.166,0,0,0,4.052-2.562c1.391-.99,2.832-2.091,4.431-3.125a19.947,19.947,0,0,1,5.377-2.559l-.074.167c-1.9-3.809-3.984-7.972-6.152-12.307-.313-.629-.625-1.254-.915-1.835l.157.061a36,36,0,0,0-6.53,3.615,31.1,31.1,0,0,0-2.792,2.206c-.429.393-.851.786-1.244,1.2s-.771.829-1.195,1.218a7.957,7.957,0,0,1-2.879,1.608,14.377,14.377,0,0,1-3.071.565,21.5,21.5,0,0,1-5.622-.395l.105-.123,3.636,9.111c.422,1.071.75,1.905.978,2.485.106.278.189.494.25.651s.078.227.078.227" transform="translate(-3.877 -26.578)" fill="#1a2e35"/>
        <path id="Trazado_214847" data-name="Trazado 214847" d="M35.251,194.15c-.063.027-1-2-2.1-4.535a49.824,49.824,0,0,1-1.867-4.635c.063-.027,1,2,2.1,4.536s1.93,4.608,1.866,4.635" transform="translate(-4.889 -28.907)" fill="#1a2e35"/>
        <path id="Trazado_214848" data-name="Trazado 214848" d="M38.771,193.844a48.238,48.238,0,0,1-2.37-4.3,48.323,48.323,0,0,1-2.148-4.413,48.341,48.341,0,0,1,2.37,4.3,48.076,48.076,0,0,1,2.148,4.413" transform="translate(-5.352 -28.931)" fill="#1a2e35"/>
        <path id="Trazado_214849" data-name="Trazado 214849" d="M41.458,192.809a8.809,8.809,0,0,1-.668-1.244c-.391-.778-.933-1.85-1.559-3.021s-1.218-2.217-1.649-2.974a8.846,8.846,0,0,1-.665-1.246,7.179,7.179,0,0,1,.817,1.155c.47.735,1.088,1.772,1.718,2.947s1.147,2.264,1.5,3.064a7.185,7.185,0,0,1,.509,1.32" transform="translate(-5.769 -28.804)" fill="#1a2e35"/>
        <path id="Trazado_214850" data-name="Trazado 214850" d="M44.177,190.539a7.586,7.586,0,0,1-.755-1.117c-.49-.77-1.084-1.7-1.743-2.736l-1.79-2.706a7.752,7.752,0,0,1-.715-1.143,6.769,6.769,0,0,1,.859,1.041c.5.666,1.164,1.606,1.856,2.672s1.281,2.054,1.685,2.782a6.887,6.887,0,0,1,.6,1.207" transform="translate(-6.121 -28.572)" fill="#1a2e35"/>
        <path id="Trazado_214851" data-name="Trazado 214851" d="M46.838,188.534a7,7,0,0,1-.883-1.046c-.516-.668-1.206-1.61-1.933-2.674s-1.354-2.049-1.79-2.772a7.015,7.015,0,0,1-.654-1.2,7.937,7.937,0,0,1,.8,1.107l1.846,2.727,1.87,2.711a7.958,7.958,0,0,1,.74,1.15" transform="translate(-6.497 -28.26)" fill="#1a2e35"/>
        <path id="Trazado_214852" data-name="Trazado 214852" d="M49.08,186.474a7.057,7.057,0,0,1-.883-1.046c-.516-.668-1.206-1.61-1.933-2.674s-1.354-2.049-1.79-2.773a7.014,7.014,0,0,1-.654-1.2,7.937,7.937,0,0,1,.8,1.107l1.846,2.727,1.87,2.711a7.866,7.866,0,0,1,.74,1.15" transform="translate(-6.848 -27.938)" fill="#1a2e35"/>
        <path id="Trazado_214853" data-name="Trazado 214853" d="M51.526,184.8a42.973,42.973,0,0,1-2.783-3.724,42.634,42.634,0,0,1-2.578-3.868,43.425,43.425,0,0,1,2.782,3.725,43.487,43.487,0,0,1,2.579,3.868" transform="translate(-7.214 -27.693)" fill="#1a2e35"/>
        <path id="Trazado_214854" data-name="Trazado 214854" d="M53.747,183.764a7.858,7.858,0,0,1-.726-1.279l-1.58-3.17c-.62-1.235-1.207-2.339-1.666-3.116s-.775-1.24-.744-1.264a5.847,5.847,0,0,1,.894,1.17,31.756,31.756,0,0,1,1.739,3.1c.62,1.24,1.142,2.379,1.517,3.205a9.41,9.41,0,0,1,.567,1.356" transform="translate(-7.662 -27.337)" fill="#1a2e35"/>
      </g>
    </g>
  </g>
</svg>
