<svg id="Grupo_149095" data-name="Grupo 149095" xmlns="http://www.w3.org/2000/svg" xmlns:xlink="http://www.w3.org/1999/xlink" width="261.53" height="197.479" viewBox="0 0 261.53 197.479">
  <defs>
    <clipPath id="clip-path">
      <rect id="Rectángulo_44978" data-name="Rectángulo 44978" width="261.53" height="197.479" fill="none"/>
    </clipPath>
    <clipPath id="clip-path-3">
      <rect id="Rectángulo_44973" data-name="Rectángulo 44973" width="106.101" height="92.43" fill="none"/>
    </clipPath>
    <clipPath id="clip-path-4">
      <rect id="Rectángulo_44974" data-name="Rectángulo 44974" width="16.25" height="16.25" fill="none"/>
    </clipPath>
    <clipPath id="clip-path-5">
      <rect id="Rectángulo_44975" data-name="Rectángulo 44975" width="7.283" height="23.615" fill="none"/>
    </clipPath>
    <clipPath id="clip-path-6">
      <rect id="Rectángulo_44976" data-name="Rectángulo 44976" width="89.946" height="53.806" fill="none"/>
    </clipPath>
  </defs>
  <g id="Grupo_149094" data-name="Grupo 149094" clip-path="url(#clip-path)">
    <g id="Grupo_149093" data-name="Grupo 149093">
      <g id="Grupo_149092" data-name="Grupo 149092" clip-path="url(#clip-path)">
        <path id="Trazado_213881" data-name="Trazado 213881" d="M361.588,187.384a2.706,2.706,0,0,1,.321.429l.811,1.211c.678,1.028,1.6,2.455,2.61,4.038s1.914,3.024,2.559,4.071l.755,1.246a2.618,2.618,0,0,1,.253.472,2.657,2.657,0,0,1-.321-.429l-.811-1.211c-.677-1.027-1.6-2.455-2.61-4.039s-1.914-3.022-2.559-4.071l-.755-1.246a2.552,2.552,0,0,1-.252-.472" transform="translate(-125.751 -65.167)" fill="#e1e1e1"/>
        <path id="Trazado_213882" data-name="Trazado 213882" d="M30.08,50.941a1.512,1.512,0,0,0,.164-.291l.422-.859c.363-.747.863-1.841,1.463-3.2,1.2-2.716,2.748-6.518,4.4-10.736s3.168-8.028,4.323-10.762l1.38-3.232.373-.88a1.545,1.545,0,0,0,.113-.315,1.434,1.434,0,0,0-.164.291l-.421.859c-.364.747-.863,1.84-1.463,3.2-1.2,2.717-2.748,6.518-4.4,10.738S33.1,43.78,31.947,46.514c-.573,1.34-1.04,2.436-1.38,3.232-.153.36-.277.652-.374.881a1.5,1.5,0,0,0-.113.314" transform="translate(-10.461 -7.188)" fill="#e1e1e1"/>
        <path id="Trazado_213883" data-name="Trazado 213883" d="M271.21,77.181h53.045L313.877,84.56v6.158a11.475,11.475,0,0,1-11.559,11.389H269.03a11.475,11.475,0,0,1-11.559-11.389A13.639,13.639,0,0,1,271.21,77.181" transform="translate(-89.542 -26.842)" fill="#fff"/>
        <path id="Trazado_213884" data-name="Trazado 213884" d="M309.139,89.747c0,.061-8.856.11-19.778.11s-19.781-.049-19.781-.11,8.855-.11,19.781-.11,19.778.049,19.778.11" transform="translate(-93.753 -31.174)" fill="#e1e1e1"/>
        <path id="Trazado_213885" data-name="Trazado 213885" d="M309.139,96.031c0,.061-8.856.11-19.778.11s-19.781-.049-19.781-.11,8.855-.11,19.781-.11,19.778.049,19.778.11" transform="translate(-93.753 -33.359)" fill="#e1e1e1"/>
        <path id="Trazado_213886" data-name="Trazado 213886" d="M125.681,172.745H62.912l10.225,7.379V194.64a3.031,3.031,0,0,0,3.031,3.031h49.513a3.031,3.031,0,0,0,3.032-3.031V175.776a3.031,3.031,0,0,0-3.032-3.031" transform="translate(-21.879 -60.076)" fill="#fff"/>
        <path id="Trazado_213887" data-name="Trazado 213887" d="M132.587,188.416c0,.061-9.467.11-21.142.11s-21.144-.049-21.144-.11,9.465-.11,21.144-.11,21.142.049,21.142.11" transform="translate(-31.404 -65.488)" fill="#e1e1e1"/>
        <path id="Trazado_213888" data-name="Trazado 213888" d="M132.587,196.961c0,.061-9.467.11-21.142.11s-21.144-.049-21.144-.11,9.465-.11,21.144-.11,21.142.049,21.142.11" transform="translate(-31.404 -68.46)" fill="#e1e1e1"/>
        <path id="Trazado_213889" data-name="Trazado 213889" d="M294.788,253.492h-55.5a25.3,25.3,0,0,1-25.3-25.3V186.36a25.3,25.3,0,0,1,25.3-25.3h55.5a25.3,25.3,0,0,1,25.3,25.3v41.834a25.3,25.3,0,0,1-25.3,25.3" transform="translate(-74.419 -56.013)" fill="#54a813"/>
        <g id="Grupo_149082" data-name="Grupo 149082" transform="translate(139.566 105.049)" opacity="0.4">
          <g id="Grupo_149081" data-name="Grupo 149081">
            <g id="Grupo_149080" data-name="Grupo 149080" clip-path="url(#clip-path-3)">
              <path id="Trazado_213890" data-name="Trazado 213890" d="M294.788,253.492h-55.5a25.3,25.3,0,0,1-25.3-25.3V186.36a25.3,25.3,0,0,1,25.3-25.3h55.5a25.3,25.3,0,0,1,25.3,25.3v41.834a25.3,25.3,0,0,1-25.3,25.3" transform="translate(-213.985 -161.062)"/>
            </g>
          </g>
        </g>
        <path id="Trazado_213891" data-name="Trazado 213891" d="M376.426,210.469h15.89l-16.251,16.25Z" transform="translate(-130.786 -73.196)" fill="#54a813"/>
        <g id="Grupo_149085" data-name="Grupo 149085" transform="translate(245.28 137.273)" opacity="0.4">
          <g id="Grupo_149084" data-name="Grupo 149084">
            <g id="Grupo_149083" data-name="Grupo 149083" clip-path="url(#clip-path-4)">
              <path id="Trazado_213892" data-name="Trazado 213892" d="M376.426,210.469h15.89l-16.251,16.25Z" transform="translate(-376.066 -210.469)"/>
            </g>
          </g>
        </g>
        <path id="Trazado_213893" data-name="Trazado 213893" d="M205.392,217.7l-6.662-7.555c-1.8-1.8-2.418-2.67-2.059-2.986.479-.421.275-.28,4.016,2.527,0,0-5.3-4.054-3.465-4.08a7.236,7.236,0,0,1,2.188,1.154c-1.312-1.117-1.676-1.867-1.426-2.227.428-.619,3.671,1.629,5.164,2.713a36.146,36.146,0,0,1-3.957-3.229c-.561-.756.576-.7,1.5-.38,1.04.355,6.782,3.286,8.483,4.045a1.1,1.1,0,0,0,1.581-.537,6.935,6.935,0,0,1,3.25-4.569.827.827,0,0,1,.766,1.376,10.1,10.1,0,0,0-1.121,2.5,6.475,6.475,0,0,0-.34,2.157c.014.85.059,1.569.114,2.178l6.085,8.354-10.181,5.9Z" transform="translate(-68.363 -70.442)" fill="#b78876"/>
        <path id="Trazado_213894" data-name="Trazado 213894" d="M203.743,213.156a24.191,24.191,0,0,1-5.022-3.969,24.187,24.187,0,0,1,5.022,3.969" transform="translate(-69.109 -72.748)" fill="#aa6550"/>
        <path id="Trazado_213895" data-name="Trazado 213895" d="M205.421,211.152a27.533,27.533,0,0,1-5.607-3.906,27.485,27.485,0,0,1,5.607,3.906" transform="translate(-69.49 -72.073)" fill="#aa6550"/>
        <path id="Trazado_213896" data-name="Trazado 213896" d="M207,209.134a24.671,24.671,0,0,1-5.353-3.625A24.668,24.668,0,0,1,207,209.134" transform="translate(-70.127 -71.468)" fill="#aa6550"/>
        <path id="Trazado_213897" data-name="Trazado 213897" d="M218.7,216.95l24.267,30.775-5.557,12.938s-6.657-1.473-8.675-4.278-18.638-33.672-18.638-33.672Z" transform="translate(-73.065 -75.45)" fill="#b78876"/>
        <path id="Trazado_213898" data-name="Trazado 213898" d="M314.8,150.925c1.747,1.513,1.741,4.181,1.539,6.484s-.355,4.924,1.239,6.6c1.314,1.379,3.7,1.983,4.006,3.862A2.166,2.166,0,0,1,318,169.832a3.747,3.747,0,0,1-1.13,4.241c-1.288.9-3.443.346-3.842-1.173a1.906,1.906,0,1,1-3.744.68" transform="translate(-107.562 -52.488)" fill="#1a2e35"/>
        <path id="Trazado_213899" data-name="Trazado 213899" d="M275.5,163.815a2.294,2.294,0,1,1-4.231-1.769c.4-.875,1.347-1.507,1.438-2.465.11-1.16-1.073-1.987-2.123-2.492s-2.278-1.164-2.392-2.323c-.11-1.12.892-1.991,1.731-2.74s1.665-1.907,1.148-2.906c-.265-.511-.815-.8-1.171-1.257a2.526,2.526,0,0,1,.627-3.381,4.608,4.608,0,0,1,3.648-.67,34.412,34.412,0,0,1,3.654,1.109,15.231,15.231,0,0,0,12.135-1.59" transform="translate(-93.266 -49.847)" fill="#1a2e35"/>
        <path id="Trazado_213900" data-name="Trazado 213900" d="M284.951,190.342a8.446,8.446,0,0,0,9.927-6.479l5.969-27.375A12.148,12.148,0,0,0,291.48,141.8l-.627-.092a12.23,12.23,0,0,0-13.693,9.362c-1.328,5.778-2.721,12.179-3.142,15.321-.871,6.507,5.477,8.468,5.477,8.468l-1.139,5.481A8.446,8.446,0,0,0,284.951,190.342Z" transform="translate(-95.268 -49.239)" fill="#b78876"/>
        <path id="Trazado_213901" data-name="Trazado 213901" d="M280.664,162.331a.938.938,0,0,0,.757,1.067.9.9,0,0,0,1.079-.7.938.938,0,0,0-.757-1.067.9.9,0,0,0-1.079.7" transform="translate(-97.603 -56.206)" fill="#1a2e35"/>
        <path id="Trazado_213902" data-name="Trazado 213902" d="M280.3,160.929c.1.138.876-.279,1.874-.13s1.656.755,1.782.648c.061-.046-.024-.282-.309-.56a2.575,2.575,0,0,0-1.4-.669,2.472,2.472,0,0,0-1.514.255c-.341.19-.477.394-.428.457" transform="translate(-97.478 -55.711)" fill="#1a2e35"/>
        <path id="Trazado_213903" data-name="Trazado 213903" d="M295.622,164.813a.938.938,0,0,0,.757,1.067.9.9,0,0,0,1.079-.7.938.938,0,0,0-.757-1.067.9.9,0,0,0-1.079.7" transform="translate(-102.805 -57.069)" fill="#1a2e35"/>
        <path id="Trazado_213904" data-name="Trazado 213904" d="M295.3,163.417c.1.138.877-.279,1.874-.13s1.657.755,1.783.649c.061-.046-.023-.282-.309-.561a2.573,2.573,0,0,0-1.4-.669,2.476,2.476,0,0,0-1.514.255c-.34.191-.477.394-.428.457" transform="translate(-102.695 -56.576)" fill="#1a2e35"/>
        <path id="Trazado_213905" data-name="Trazado 213905" d="M286.785,169.947a6.662,6.662,0,0,0-1.578-.53c-.251-.063-.485-.149-.5-.329a1.311,1.311,0,0,1,.281-.73l1.038-1.83a33.684,33.684,0,0,0,2.436-4.829,33.788,33.788,0,0,0-2.819,4.622c-.352.644-.688,1.258-1.008,1.846a1.5,1.5,0,0,0-.278.981.647.647,0,0,0,.365.434,1.76,1.76,0,0,0,.424.124,6.582,6.582,0,0,0,1.643.243" transform="translate(-98.886 -56.234)" fill="#1a2e35"/>
        <path id="Trazado_213906" data-name="Trazado 213906" d="M295.788,157.483c.059.286,1.074.3,2.224.616,1.157.29,2.051.77,2.242.55.086-.106-.041-.385-.385-.7a4.008,4.008,0,0,0-3.4-.888c-.455.11-.7.292-.68.427" transform="translate(-102.867 -54.591)" fill="#1a2e35"/>
        <path id="Trazado_213907" data-name="Trazado 213907" d="M281.509,156.545c.142.252.864.117,1.693.228.832.081,1.5.376,1.7.162.087-.1.01-.348-.264-.607a2.473,2.473,0,0,0-2.734-.314c-.326.19-.457.41-.4.532" transform="translate(-97.897 -54.162)" fill="#1a2e35"/>
        <path id="Trazado_213908" data-name="Trazado 213908" d="M305.982,150.167l.031.033a5.164,5.164,0,0,1,1.415,3.582c0,.047,0,.091,0,.134-.017,1.889-.339,3.767-.338,5.657a8.486,8.486,0,0,0,1.548,5.34c.486.607,1.428,1.113,1.981.567a1.6,1.6,0,0,0,.355-.815c1-4.423,2.8-8.212,3.481-12.891a3.987,3.987,0,0,0-1.167-3.45c-.877-.845-1.966-1.748-3.129-1.392s-2.872,2.186-3.843,2.927" transform="translate(-106.413 -51.072)" fill="#1a2e35"/>
        <path id="Trazado_213909" data-name="Trazado 213909" d="M310.545,168.424c.117-.032,4.656-.667,3.864,3.753s-5.066,2.713-5.051,2.585,1.187-6.338,1.187-6.338" transform="translate(-107.587 -58.557)" fill="#b78876"/>
        <path id="Trazado_213910" data-name="Trazado 213910" d="M311.884,174.18c.022-.01.067.068.187.151a.781.781,0,0,0,.573.115,1.936,1.936,0,0,0,1.188-1.551,2.592,2.592,0,0,0-.018-1.141.9.9,0,0,0-.473-.695.4.4,0,0,0-.492.129c-.082.113-.069.206-.094.209s-.082-.091-.013-.267a.5.5,0,0,1,.223-.246.592.592,0,0,1,.446-.036,1.1,1.1,0,0,1,.682.83,2.651,2.651,0,0,1,.046,1.28,2.031,2.031,0,0,1-1.465,1.708.836.836,0,0,1-.683-.243c-.117-.134-.123-.237-.106-.242" transform="translate(-108.463 -59.408)" fill="#aa6550"/>
        <path id="Trazado_213911" data-name="Trazado 213911" d="M298.664,144.183c1.353-1.616-1.269-4.606-3.359-5.618s-5.134-.367-7.42.038a12.225,12.225,0,0,1-4.348.419,9.9,9.9,0,0,1-2.709-1.13,7.264,7.264,0,0,0-2.759-.976,2.705,2.705,0,0,0-2.553,1.139,1.7,1.7,0,0,0,.79,2.431,2.2,2.2,0,1,0-1.173,3.956c-.562-.571-1.645.078-1.683.877a2.322,2.322,0,0,0,1.272,1.9,8.4,8.4,0,0,0,5.941.776c2.011-.364,3.936-1.109,5.937-1.523s5.366-1.192,7.174-.24c1.332.7,2.062,2.536,2.909,2.278a2.742,2.742,0,0,0,1.7-1.791,7.941,7.941,0,0,0,.283-2.54" transform="translate(-94.869 -47.612)" fill="#1a2e35"/>
        <path id="Trazado_213912" data-name="Trazado 213912" d="M321.311,169.233a.678.678,0,0,0,.232-.1,1.294,1.294,0,0,0,.479-.547,1.915,1.915,0,0,0,.145-1.142,2.316,2.316,0,0,0-.794-1.3,5.746,5.746,0,0,0-1.593-.928,10.608,10.608,0,0,1-1.863-.9,3.733,3.733,0,0,1-1.353-1.756,6.139,6.139,0,0,1-.392-2.391c.045-1.685.511-3.26.626-4.746a6.117,6.117,0,0,0-.709-3.841,3.575,3.575,0,0,0-2.1-1.579,2.543,2.543,0,0,0-.722-.072,1.024,1.024,0,0,0-.249.038,3.68,3.68,0,0,1,.948.118,3.554,3.554,0,0,1,1.986,1.578,6.034,6.034,0,0,1,.638,3.739c-.122,1.457-.6,3.03-.645,4.759a6.307,6.307,0,0,0,.412,2.477,3.923,3.923,0,0,0,1.44,1.844,10.508,10.508,0,0,0,1.908.9,5.655,5.655,0,0,1,1.56.876,2.2,2.2,0,0,1,.776,1.2,1.854,1.854,0,0,1-.1,1.082,1.447,1.447,0,0,1-.631.684" transform="translate(-108.861 -52.143)" fill="#375a64"/>
        <path id="Trazado_213913" data-name="Trazado 213913" d="M275.917,142.075a1,1,0,0,0-.192-.1,1.3,1.3,0,0,0-.248-.1,1.827,1.827,0,0,0-.355-.091,2.663,2.663,0,0,0-2.23.682h0l0,0a3.566,3.566,0,0,0-.794,2.634,4.392,4.392,0,0,0,1.624,3,6.775,6.775,0,0,0,3.677,1.479,15.008,15.008,0,0,0,4.368-.267,19.726,19.726,0,0,0,6.438-2.488,20,20,0,0,1,2.657-1.379,7.141,7.141,0,0,1,2.526-.517,7.515,7.515,0,0,1,3.627.857,12.951,12.951,0,0,1,1.173.741,5.21,5.21,0,0,0-1.131-.818,7.412,7.412,0,0,0-3.671-.939,7.219,7.219,0,0,0-2.591.5,19.725,19.725,0,0,0-2.693,1.374,19.815,19.815,0,0,1-6.377,2.446,14.963,14.963,0,0,1-4.3.272,6.612,6.612,0,0,1-3.574-1.415,4.229,4.229,0,0,1-1.584-2.862,3.442,3.442,0,0,1,.724-2.536l0,0a2.62,2.62,0,0,1,2.128-.7,5.094,5.094,0,0,1,.806.221" transform="translate(-94.623 -49.296)" fill="#375a64"/>
        <path id="Trazado_213914" data-name="Trazado 213914" d="M281.735,136.608a2.522,2.522,0,0,0,.155.995,4.178,4.178,0,0,0,1.742,2.1,5.251,5.251,0,0,0,1.764.73,7.491,7.491,0,0,0,2.185.114,29.152,29.152,0,0,0,4.858-1.084,9.8,9.8,0,0,1,4.853-.277,6.362,6.362,0,0,1,3.3,2.141,6.607,6.607,0,0,1,1.263,2.374c.17.619.189.979.217.976a1.138,1.138,0,0,0-.012-.26,5.1,5.1,0,0,0-.12-.738,6.6,6.6,0,0,0-4.594-4.693,9.862,9.862,0,0,0-4.961.259,30.392,30.392,0,0,1-4.821,1.1,7.426,7.426,0,0,1-2.13-.091,5.151,5.151,0,0,1-1.717-.683,4.2,4.2,0,0,1-1.745-1.992,5.732,5.732,0,0,1-.237-.965" transform="translate(-97.979 -47.509)" fill="#375a64"/>
        <path id="Trazado_213915" data-name="Trazado 213915" d="M284.973,179.086a4.577,4.577,0,0,0,.342,1.259,1.545,1.545,0,0,0,.944.849,1.387,1.387,0,0,0,1.278-.385,2.215,2.215,0,0,0,.593-1.237c.067-.415-.018-.945-.417-1.079a1.061,1.061,0,0,0-.519.006l-2.331.421" transform="translate(-99.068 -62.064)" fill="#aa6550"/>
        <path id="Trazado_213916" data-name="Trazado 213916" d="M285.2,180.789a3.171,3.171,0,0,0,1.159.219,1.674,1.674,0,0,0,1.088-.5,1.761,1.761,0,0,0,.465-1.359,1.548,1.548,0,0,0-.082-.37c-.055-.113-.041-.1-.135-.12s-.251.016-.377.024l-.388.03c-.505.037-.961.066-1.344.084a4,4,0,0,1-1.248-.022,4.027,4.027,0,0,1,1.222-.254c.38-.054.833-.11,1.336-.168l.387-.043a3.9,3.9,0,0,1,.432-.035.5.5,0,0,1,.307.108.589.589,0,0,1,.172.256,1.868,1.868,0,0,1,.108.472,2.056,2.056,0,0,1-.6,1.652,1.874,1.874,0,0,1-1.335.519,1.769,1.769,0,0,1-.917-.255c-.19-.121-.265-.223-.251-.241" transform="translate(-98.885 -62.001)" fill="#1a2e35"/>
        <path id="Trazado_213917" data-name="Trazado 213917" d="M282.233,192.61a15.019,15.019,0,0,0,8.369.44s-3.114,2.61-8.795,1.608Z" transform="translate(-98.005 -66.985)" fill="#aa6550"/>
        <path id="Trazado_213918" data-name="Trazado 213918" d="M283.186,282.175a4.7,4.7,0,0,1-.582-.443c-.181-.15-.4-.33-.676-.522s-.567-.431-.924-.653-.731-.485-1.162-.725c-.419-.259-.892-.49-1.383-.745a21.711,21.711,0,0,0-6.869-2.054c-.55-.057-1.072-.123-1.565-.137-.491-.036-.95-.035-1.369-.031s-.8.025-1.13.039-.619.038-.852.065a4.71,4.71,0,0,1-.729.05,4.639,4.639,0,0,1,.719-.135,8.411,8.411,0,0,1,.852-.1c.334-.025.714-.072,1.137-.072s.884-.023,1.381.005c.5.006,1.025.066,1.582.118a20.744,20.744,0,0,1,6.933,2.073c.494.262.968.5,1.387.77.431.249.811.511,1.157.754s.645.479.91.684a8.391,8.391,0,0,1,.656.554,4.684,4.684,0,0,1,.528.508" transform="translate(-92.489 -96.228)" fill="#fafafa"/>
        <path id="Trazado_213919" data-name="Trazado 213919" d="M239.814,237.774l3.452-14.95c1.321-5.622,2.885-11.024,5.514-11.664v1.74l-1.124,42.712s-7.034,8.01-16,3.557c-2.8-1.391-7.914-11.173-7.914-11.173s-11.878-21.226-11.386-22.189,7.763-10.329,8.5-10.795Z" transform="translate(-73.846 -73.437)" fill="#54a813"/>
        <path id="Trazado_213920" data-name="Trazado 213920" d="M293.894,204.207c6.858,1.314,14.581,5.315,18.133,15.561,1.3,3.742,10.742,31.346,10.742,31.346l-16.1-.335-2.622-5.691,1.279,9.232,1.092,13.172-40.66.684.285-19.84.39-39.466s.457-.6,7.467-4.466c4.356-2.4,20-.2,20-.2" transform="translate(-92.422 -70.696)" fill="#54a813"/>
        <g id="Grupo_149088" data-name="Grupo 149088" transform="translate(205.529 159.892)" opacity="0.2">
          <g id="Grupo_149087" data-name="Grupo 149087">
            <g id="Grupo_149086" data-name="Grupo 149086" clip-path="url(#clip-path-5)">
              <path id="Trazado_213921" data-name="Trazado 213921" d="M315.12,245.148c.667,8.332,1.436,10.9,2.1,19.236a7.351,7.351,0,0,0,.439,2.315,2.491,2.491,0,0,0,1.682,1.533c1.184.241,2.724,1.1,3.058-.064l-1.124-8.024a15.8,15.8,0,0,0-1.11-3.387c-2.495-5.539-3.418-5.864-5.049-11.61" transform="translate(-315.12 -245.148)"/>
            </g>
          </g>
        </g>
        <path id="Trazado_213922" data-name="Trazado 213922" d="M278.237,206.216l.136-.866,1.3-8.313a.968.968,0,0,1,1.037-.815l16.009,1.336a1.841,1.841,0,0,1,1.682,1.97l-.357,4.83-5,6.522-7.2,1.123" transform="translate(-96.764 -68.24)" fill="#54a813"/>
        <path id="Trazado_213923" data-name="Trazado 213923" d="M265.856,235.514c.061,0,.11,6.512.11,14.545s-.049,14.546-.11,14.546-.11-6.511-.11-14.546.049-14.545.11-14.545" transform="translate(-92.42 -81.906)" fill="#1a2e35"/>
        <path id="Trazado_213924" data-name="Trazado 213924" d="M322.291,257.449a.426.426,0,0,1-.052-.095l-.132-.286-.488-1.106-1.756-4.086-5.72-13.512-3.125-7.449a13.988,13.988,0,0,1-1.034-3.382,18.611,18.611,0,0,1-.279-3.069,12.446,12.446,0,0,1,.641-4.4c.047-.123.087-.241.132-.349l.145-.294a2.571,2.571,0,0,1,.252-.447l.179-.26a.392.392,0,0,1,.067-.084,8.177,8.177,0,0,0-.7,1.462,12.793,12.793,0,0,0-.566,4.367,16.039,16.039,0,0,0,1.344,6.374c.967,2.289,2.027,4.8,3.141,7.443l5.661,13.536c.709,1.724,1.286,3.125,1.693,4.113q.285.712.45,1.122l.112.294a.405.405,0,0,1,.031.1" transform="translate(-107.708 -76.036)" fill="#1a2e35"/>
        <path id="Trazado_213925" data-name="Trazado 213925" d="M297.271,206.924a5.04,5.04,0,0,1-.468.406,7.2,7.2,0,0,1-1.534.894,11.571,11.571,0,0,1-2.7.759,33.2,33.2,0,0,1-3.7.365c-1.378.062-2.887.034-4.5.066a20.859,20.859,0,0,0-5.091.62,9.409,9.409,0,0,0-4.788,2.824,6.562,6.562,0,0,0-1.329,2.626,5.6,5.6,0,0,0,.048,3.009,4.784,4.784,0,0,0,.705,1.346,3.515,3.515,0,0,0,1.137.957,2.446,2.446,0,0,0,1.4.3,1.914,1.914,0,0,0,1.234-.633,3.331,3.331,0,0,0,.622-2.662,4.432,4.432,0,0,0-.4-1.314,6.51,6.51,0,0,0-.748-1.129,7.929,7.929,0,0,0-4.314-2.556,9.171,9.171,0,0,0-4.416.05,12.08,12.08,0,0,0-3.381,1.445,15.73,15.73,0,0,0-2.239,1.666c-.578.505-.987.941-1.271,1.229l-.314.337a.821.821,0,0,1-.113.11,14.01,14.01,0,0,1,1.64-1.74,15.3,15.3,0,0,1,2.232-1.706,12.074,12.074,0,0,1,3.407-1.492,9.292,9.292,0,0,1,4.5-.077,8.1,8.1,0,0,1,4.428,2.6,6.687,6.687,0,0,1,.777,1.167,4.644,4.644,0,0,1,.423,1.376,4.377,4.377,0,0,1-.026,1.471,2.862,2.862,0,0,1-.644,1.364,2.131,2.131,0,0,1-1.369.7,2.672,2.672,0,0,1-1.53-.318,3.75,3.75,0,0,1-1.209-1.016,4.99,4.99,0,0,1-.741-1.414,5.818,5.818,0,0,1-.052-3.129,6.778,6.778,0,0,1,1.377-2.712,9.588,9.588,0,0,1,4.9-2.881,20.888,20.888,0,0,1,5.14-.606c1.621-.024,3.127.012,4.5-.039a34.157,34.157,0,0,0,3.688-.331,11.743,11.743,0,0,0,2.691-.716,7.593,7.593,0,0,0,1.541-.851c.168-.112.281-.218.366-.278a.9.9,0,0,1,.128-.092" transform="translate(-90.808 -71.963)" fill="#fafafa"/>
        <path id="Trazado_213926" data-name="Trazado 213926" d="M328.949,233.288a.564.564,0,0,1-.179.03c-.118.009-.292.032-.517.037a15.982,15.982,0,0,1-1.907-.045c-.8-.058-1.754-.181-2.806-.326s-2.206-.3-3.424-.368a13.347,13.347,0,0,0-3.407.256,8.674,8.674,0,0,0-2.6.989,7.493,7.493,0,0,0-1.919,1.7.567.567,0,0,1,.09-.158,3.68,3.68,0,0,1,.305-.421,5.823,5.823,0,0,1,1.443-1.256,8.5,8.5,0,0,1,2.635-1.053,13.031,13.031,0,0,1,3.462-.278c1.231.066,2.391.234,3.441.388s1.994.294,2.792.372,1.445.11,1.892.114a5.059,5.059,0,0,1,.7.018" transform="translate(-108.572 -80.816)" fill="#fafafa"/>
        <path id="Trazado_213927" data-name="Trazado 213927" d="M302.8,256.468a8.676,8.676,0,0,0-2.416-.2,13.208,13.208,0,0,0-2.8.5c-1.076.29-2.273.716-3.619,1.13a14.894,14.894,0,0,1-4.535.79,13.06,13.06,0,0,1-5.168-1.073,12.838,12.838,0,0,1-4.712-3.426,9.884,9.884,0,0,1-1.669-2.618,6.02,6.02,0,0,1-.481-3.159,4.577,4.577,0,0,1,1.494-2.814,3.282,3.282,0,0,1,1.416-.725,3.334,3.334,0,0,1,2.915.787,2.53,2.53,0,0,1,.759,1.31,2.588,2.588,0,0,1-.114,1.477,3.6,3.6,0,0,1-.788,1.207,6.322,6.322,0,0,1-2.31,1.468,6.874,6.874,0,0,1-1.267.348c-.212.039-.421.084-.629.117l-.625.072a13.6,13.6,0,0,1-4.591-.322,14.3,14.3,0,0,1-3.546-1.364,12.928,12.928,0,0,1-2.36-1.631l-.419-.367-.344-.348a6.094,6.094,0,0,1-.52-.564l-.3-.362a.931.931,0,0,1-.1-.128.8.8,0,0,1,.114.113l.317.347a6.679,6.679,0,0,0,.534.547l.35.339.423.358a13.161,13.161,0,0,0,2.363,1.588,14.364,14.364,0,0,0,3.523,1.321,13.528,13.528,0,0,0,4.538.292l.616-.074c.205-.033.411-.079.619-.118a6.673,6.673,0,0,0,1.237-.344,6.14,6.14,0,0,0,2.233-1.427,3.408,3.408,0,0,0,.74-1.139,2.391,2.391,0,0,0,.1-1.362,2.635,2.635,0,0,0-1.961-1.886,3.012,3.012,0,0,0-1.462-.044,3.076,3.076,0,0,0-1.322.68,4.365,4.365,0,0,0-1.418,2.68,5.8,5.8,0,0,0,.465,3.043,9.7,9.7,0,0,0,1.631,2.563,12.675,12.675,0,0,0,4.629,3.379,12.912,12.912,0,0,0,5.088,1.077,14.853,14.853,0,0,0,4.491-.756c1.343-.4,2.548-.819,3.632-1.1a12.976,12.976,0,0,1,2.831-.468,8.69,8.69,0,0,1,1.048.018c.3.044.558.065.76.112l.458.114a.854.854,0,0,1,.154.046" transform="translate(-92.53 -85.133)" fill="#fafafa"/>
        <path id="Trazado_213928" data-name="Trazado 213928" d="M262.337,252.679c-.035.015-.228-.445-.637-1.131a11,11,0,0,0-4.492-4.187c-.713-.359-1.185-.519-1.173-.556a1.1,1.1,0,0,1,.344.077,6.954,6.954,0,0,1,.9.339,9.8,9.8,0,0,1,4.56,4.251,6.929,6.929,0,0,1,.4.87,1.091,1.091,0,0,1,.1.337" transform="translate(-89.042 -85.831)" fill="#fafafa"/>
        <path id="Trazado_213929" data-name="Trazado 213929" d="M238.841,269.155a.534.534,0,0,1-.066-.1l-.173-.317c-.15-.28-.369-.7-.638-1.235a28.764,28.764,0,0,1-1.926-4.738,15.366,15.366,0,0,1-.6-3.489,10.882,10.882,0,0,1,.081-1.978,11.447,11.447,0,0,1,.5-2.041,8.919,8.919,0,0,1,2.469-3.737,6.043,6.043,0,0,1,4.491-1.575,3.336,3.336,0,0,1,2.213,1.076,2.719,2.719,0,0,1,.623,2.3,2.029,2.029,0,0,1-.6,1.04,2.407,2.407,0,0,1-1.028.561,3.021,3.021,0,0,1-2.2-.266,5.06,5.06,0,0,1-1.607-1.368,7.424,7.424,0,0,1-1.01-1.709,7.551,7.551,0,0,1-.562-3.491,7.086,7.086,0,0,1,.835-2.8,7.378,7.378,0,0,1,1.318-1.768,6.837,6.837,0,0,1,1.084-.876c.131-.09.241-.145.31-.187a.52.52,0,0,1,.11-.055c.005.008-.137.1-.4.278a7.568,7.568,0,0,0-1.048.9,7.481,7.481,0,0,0-1.271,1.765,7.028,7.028,0,0,0-.789,2.752,7.433,7.433,0,0,0,.575,3.408,7.262,7.262,0,0,0,.993,1.66,4.865,4.865,0,0,0,1.548,1.309,2.815,2.815,0,0,0,2.05.244,1.976,1.976,0,0,0,1.469-1.446,2.507,2.507,0,0,0-.58-2.111,3.121,3.121,0,0,0-2.07-1,5.84,5.84,0,0,0-4.327,1.52,8.746,8.746,0,0,0-2.419,3.643,11.338,11.338,0,0,0-.5,2,10.864,10.864,0,0,0-.09,1.944,15.407,15.407,0,0,0,.571,3.454,30.773,30.773,0,0,0,1.854,4.744l.6,1.252.155.327a.542.542,0,0,1,.046.115" transform="translate(-81.873 -84.3)" fill="#fafafa"/>
        <path id="Trazado_213930" data-name="Trazado 213930" d="M227.838,226.469a.537.537,0,0,1,.038.175c.015.116.048.287.062.51a10.937,10.937,0,0,1,0,1.889,12.025,12.025,0,0,1-6.781,9.86,10.985,10.985,0,0,1-1.764.679c-.213.066-.384.1-.5.125a.559.559,0,0,1-.177.027,5.16,5.16,0,0,1,.65-.233,13.154,13.154,0,0,0,1.72-.736,12.3,12.3,0,0,0,6.7-9.736,13.259,13.259,0,0,0,.072-1.87,5.314,5.314,0,0,1-.015-.69" transform="translate(-76.064 -78.76)" fill="#fafafa"/>
        <path id="Trazado_213931" data-name="Trazado 213931" d="M337.594,254.44a6.053,6.053,0,0,0-1.625,1.483c-.418.541-.838,1.243-1.318,2.02a15.651,15.651,0,0,1-1.8,2.377,15.172,15.172,0,0,1-4.311,3.242,13.152,13.152,0,0,1-1.507.645,3.189,3.189,0,0,1-.577.166,3.1,3.1,0,0,1,.547-.246c.352-.156.864-.374,1.466-.7a16.212,16.212,0,0,0,4.222-3.253,16.413,16.413,0,0,0,1.788-2.336,21.511,21.511,0,0,1,1.368-2.008,5.274,5.274,0,0,1,1.207-1.118,2.949,2.949,0,0,1,.393-.215c.093-.042.143-.061.147-.054" transform="translate(-113.534 -88.488)" fill="#fafafa"/>
        <path id="Trazado_213932" data-name="Trazado 213932" d="M298.536,205.088a.706.706,0,0,1-.193.05l-.56.1c-.487.08-1.193.187-2.068.305-1.749.237-4.173.511-6.859.708a34.141,34.141,0,0,1-3.8.137,10.806,10.806,0,0,1-3.067-.524,6.963,6.963,0,0,1-1.873-.946,4.668,4.668,0,0,1-.443-.361c-.1-.09-.142-.14-.137-.145s.218.166.628.435a7.546,7.546,0,0,0,1.873.869,11.147,11.147,0,0,0,3.028.47,37.171,37.171,0,0,0,3.778-.154c2.682-.2,5.1-.446,6.856-.643l2.075-.236a5.309,5.309,0,0,1,.764-.065" transform="translate(-97.215 -71.089)" fill="#1a2e35"/>
        <path id="Trazado_213933" data-name="Trazado 213933" d="M330,280.48a11.306,11.306,0,0,1-10.988,13.44l-31.87-.354.837-10.319,27.324-4.076" transform="translate(-99.861 -97.089)" fill="#b78876"/>
        <path id="Trazado_213934" data-name="Trazado 213934" d="M280.931,284.733a28.779,28.779,0,0,1-3.635-1.539,11.89,11.89,0,0,0-5.6-1.085l-7.6.387a3.721,3.721,0,0,0,1.274,1.7c.805.445,5.529.541,5.529.541l-.242.249a5.464,5.464,0,0,1-3.782,1.655l-.726.018a7.107,7.107,0,0,1-1.586-.31l-1.873-.757c-.567-.256-1.166-.215-1.413.357-.223.517-.06,1.228,1.487,2.007.865.436,4.071,1.545,4.071,1.545a7.715,7.715,0,0,0,.187,1.353c.14.466,1.4.933,1.4.933a16.647,16.647,0,0,0,1.12,2.006,11.555,11.555,0,0,0,2.5.863,10.762,10.762,0,0,0,5.986-.046l2.9-.864v-8.819" transform="translate(-90.84 -98.105)" fill="#b78876"/>
        <path id="Trazado_213935" data-name="Trazado 213935" d="M273.472,294.434a8.655,8.655,0,0,1-3.834-1.008c.022-.051.851.267,1.907.543s1.933.41,1.927.466" transform="translate(-93.773 -102.044)" fill="#aa6550"/>
        <path id="Trazado_213936" data-name="Trazado 213936" d="M274.024,297.4a2.8,2.8,0,0,1-2.029-.551,36.189,36.189,0,0,0,2.029.551" transform="translate(-94.593 -103.235)" fill="#aa6550"/>
        <path id="Trazado_213937" data-name="Trazado 213937" d="M274.548,285.092a3.326,3.326,0,0,1-.587.627,9.435,9.435,0,0,1-1.655,1.253,6.589,6.589,0,0,1-1.94.749,2.747,2.747,0,0,1-.855.093,11.071,11.071,0,0,0,2.7-1.006,12.868,12.868,0,0,0,1.662-1.19,4.492,4.492,0,0,1,.676-.526" transform="translate(-93.729 -99.148)" fill="#aa6550"/>
        <path id="Trazado_213938" data-name="Trazado 213938" d="M292.224,279.642l-.773,11.67,30.021.011a11.226,11.226,0,0,0,11.019-13.393,34.544,34.544,0,0,0-1.937-6.473L315.46,273.94l.483,1.88Z" transform="translate(-101.359 -94.406)" fill="#54a813"/>
        <path id="Trazado_213939" data-name="Trazado 213939" d="M323.564,276.65a1.708,1.708,0,0,1-.3.07l-.876.157-3.229.539-10.67,1.7L297.8,280.749l-3.241.47-.883.117a1.719,1.719,0,0,1-.31.026,1.6,1.6,0,0,1,.3-.07l.876-.158,3.23-.539,10.671-1.7,10.68-1.634,3.24-.471.884-.117a1.717,1.717,0,0,1,.31-.026" transform="translate(-102.027 -96.211)" fill="#1a2e35"/>
        <path id="Trazado_213940" data-name="Trazado 213940" d="M312.821,295.106c-.052-.01.179-.843.209-2.217a8.832,8.832,0,0,0-.044-1.12,10.542,10.542,0,0,0-.184-1.271,12.031,12.031,0,0,0-.976-2.769,12.758,12.758,0,0,0-1.641-2.44l-.442-.494c-.145-.158-.3-.3-.445-.439-.282-.29-.579-.521-.841-.744-1.072-.861-1.835-1.261-1.81-1.3a3.162,3.162,0,0,1,.537.273,5.806,5.806,0,0,1,.6.367c.224.16.5.316.765.541a10.588,10.588,0,0,1,.869.734c.148.142.309.28.46.438l.455.5a12.316,12.316,0,0,1,1.684,2.473,11.674,11.674,0,0,1,.978,2.828,9.986,9.986,0,0,1,.167,1.3,8.424,8.424,0,0,1,.018,1.138,7.591,7.591,0,0,1-.084.935,4.736,4.736,0,0,1-.123.7,3.149,3.149,0,0,1-.156.582" transform="translate(-106.644 -98.18)" fill="#fafafa"/>
        <path id="Trazado_213941" data-name="Trazado 213941" d="M338.554,293.12a6.225,6.225,0,0,1-1.393-.168,7.085,7.085,0,0,1-1.557-.549,6.146,6.146,0,0,1-1.754-1.306,5.6,5.6,0,0,1-1.291-2.315,6.263,6.263,0,0,1-.222-1.469,5.7,5.7,0,0,1,.125-1.573,4.757,4.757,0,0,1,.622-1.544,3.489,3.489,0,0,1,1.261-1.2,3.127,3.127,0,0,1,1.761-.4,2.361,2.361,0,0,1,1.648.852,2.322,2.322,0,0,1,.553,1.774,2.1,2.1,0,0,1-1.033,1.478,4.932,4.932,0,0,1-3.318.455,6.919,6.919,0,0,1-5.851-6.631,4.861,4.861,0,0,1,.119-1.4,10.777,10.777,0,0,0-.035,1.393,7.09,7.09,0,0,0,1.2,3.542,6.883,6.883,0,0,0,4.6,2.893,4.755,4.755,0,0,0,3.172-.439,1.891,1.891,0,0,0,.931-1.326,2.106,2.106,0,0,0-.505-1.6,2.144,2.144,0,0,0-1.5-.775,2.912,2.912,0,0,0-1.638.375,3.825,3.825,0,0,0-1.79,2.6,5.533,5.533,0,0,0-.129,1.522,6.121,6.121,0,0,0,.2,1.428,5.458,5.458,0,0,0,1.23,2.259,6.1,6.1,0,0,0,1.7,1.3,7.354,7.354,0,0,0,1.522.575c.872.212,1.376.221,1.373.25" transform="translate(-114.105 -97.072)" fill="#fafafa"/>
        <path id="Trazado_213942" data-name="Trazado 213942" d="M107.975,7.632H32.79A16.567,16.567,0,0,0,16.223,24.2V50.993H0L16.223,67.215V85.427A16.567,16.567,0,0,0,32.79,102h75.185a16.568,16.568,0,0,0,16.568-16.568V24.2A16.568,16.568,0,0,0,107.975,7.632" transform="translate(0 -2.654)" fill="#54a813"/>
        <path id="Trazado_213943" data-name="Trazado 213943" d="M115.954,11.282c-.476,1.23.341,2.573,1.257,3.523s2.025,1.852,2.312,3.14c.241,1.08-.158,2.205-.061,3.307a15.4,15.4,0,0,0,1.053,3.219,10.588,10.588,0,0,1-.184,6.059,11.206,11.206,0,0,1-2.255,4.464,5.945,5.945,0,0,1-4.411,2.111,1.728,1.728,0,0,1-1.3-.472,2.081,2.081,0,0,1-.377-1.157,112.852,112.852,0,0,1,0-25.495" transform="translate(-38.694 -3.471)" fill="#1a2e35"/>
        <path id="Trazado_213944" data-name="Trazado 213944" d="M112.422,53.5a6.769,6.769,0,0,1,6.751,7,7.8,7.8,0,0,1,5.6,8.727,29.033,29.033,0,0,0-.865,3.669,16.3,16.3,0,0,0,.668,4.052,12.758,12.758,0,0,1-.731,7.3c-.578,1.393-1.653,2.831-3.161,2.874a3.1,3.1,0,0,1-2.539-1.484,7.835,7.835,0,0,1-1.021-2.875c-.653-3.287-.849-6.666-1.751-9.894s-2.654-6.408-5.574-8.053c-1.613-.909-3.549-1.338-4.829-2.674a5.25,5.25,0,0,1-.949-5.428,6.926,6.926,0,0,1,4.125-3.85" transform="translate(-36.05 -18.382)" fill="#1a2e35"/>
        <path id="Trazado_213945" data-name="Trazado 213945" d="M77.97,10.825c-.045-1.564,1.4-2.773,2.857-3.345S83.9,6.691,85.2,5.817a20.907,20.907,0,0,0,2.895-2.966,9.631,9.631,0,0,1,16.2,4.419c.56,2.227.177,4.861-1.578,6.341-2.038,1.718-5.059,1.336-7.669.8s-5.566-1.062-7.746.472a11.175,11.175,0,0,0-2.872,3.821,6.823,6.823,0,0,1-3.332,3.337c-1.52.523-3.583-.38-3.643-1.987" transform="translate(-26.936 0)" fill="#1a2e35"/>
        <path id="Trazado_213946" data-name="Trazado 213946" d="M86.457,15.185a2.617,2.617,0,0,0-2.336,2.66l1.561,35.344c.065,4.174,6.167,6.52,10.636,6.416,4.513-.105,4.659-2.319,4.716-6.29.094-6.635.086-9.125.089-9.087,0,0,5.7-.959,6.866-8.4.579-3.7.38-9.768.057-14.727-.291-4.464-3.261-9.934-7.708-9.453Z" transform="translate(-29.255 -4.039)" fill="#ffc19d"/>
        <path id="Trazado_213947" data-name="Trazado 213947" d="M117.821,32.858a.954.954,0,0,1-.918.965.913.913,0,0,1-.986-.858.956.956,0,0,1,.917-.965.914.914,0,0,1,.987.859" transform="translate(-40.313 -11.128)" fill="#1a2e35"/>
        <path id="Trazado_213948" data-name="Trazado 213948" d="M116.785,30.464c-.118.125-.842-.409-1.869-.4s-1.778.52-1.89.395c-.055-.055.066-.28.393-.52a2.616,2.616,0,0,1,1.513-.47,2.514,2.514,0,0,1,1.488.477c.316.242.424.466.366.522" transform="translate(-39.303 -10.247)" fill="#1a2e35"/>
        <path id="Trazado_213949" data-name="Trazado 213949" d="M102.693,32.858a.954.954,0,0,1-.918.965.913.913,0,0,1-.986-.858.956.956,0,0,1,.918-.965.914.914,0,0,1,.986.859" transform="translate(-35.052 -11.128)" fill="#1a2e35"/>
        <path id="Trazado_213950" data-name="Trazado 213950" d="M101.31,30.792c-.118.125-.843-.409-1.869-.4s-1.779.52-1.89.395c-.055-.055.064-.28.393-.52a2.616,2.616,0,0,1,1.513-.47,2.52,2.52,0,0,1,1.488.477c.316.242.424.466.366.522" transform="translate(-33.921 -10.361)" fill="#1a2e35"/>
        <path id="Trazado_213951" data-name="Trazado 213951" d="M108.795,38.427a6.813,6.813,0,0,1,1.667-.3c.262-.028.51-.08.554-.26a1.336,1.336,0,0,0-.177-.777q-.373-.951-.78-1.994a34.293,34.293,0,0,1-1.753-5.219,34.424,34.424,0,0,1,2.169,5.066q.39,1.05.747,2.007a1.513,1.513,0,0,1,.138,1.029.657.657,0,0,1-.43.384,1.78,1.78,0,0,1-.445.063,6.707,6.707,0,0,1-1.691.006" transform="translate(-37.662 -10.389)" fill="#1a2e35"/>
        <path id="Trazado_213952" data-name="Trazado 213952" d="M104.873,60.211A18.928,18.928,0,0,1,94.9,57.575s2.429,5.106,9.875,4.393Z" transform="translate(-33.005 -20.023)" fill="#ff9c6a"/>
        <path id="Trazado_213953" data-name="Trazado 213953" d="M106.77,46.414a1.852,1.852,0,0,0-1.661-.684,1.689,1.689,0,0,0-1.165.628,1.071,1.071,0,0,0-.079,1.224,1.243,1.243,0,0,0,1.348.338,3.9,3.9,0,0,0,1.31-.787,1.137,1.137,0,0,0,.293-.3.343.343,0,0,0,0-.382" transform="translate(-36.067 -15.9)" fill="#ff9c6a"/>
        <path id="Trazado_213954" data-name="Trazado 213954" d="M104.342,44.088c.167-.01.172,1.1,1.128,1.893s2.142.664,2.15.82c.016.07-.264.217-.765.232a2.774,2.774,0,0,1-1.8-.621,2.419,2.419,0,0,1-.874-1.588c-.044-.466.08-.742.157-.736" transform="translate(-36.23 -15.333)" fill="#1a2e35"/>
        <path id="Trazado_213955" data-name="Trazado 213955" d="M101.525,28.159c-.1.279-1.126.149-2.33.3-1.208.123-2.178.478-2.339.228-.072-.12.1-.383.489-.654a4.088,4.088,0,0,1,3.558-.4c.442.177.665.4.622.529" transform="translate(-33.678 -9.527)" fill="#1a2e35"/>
        <path id="Trazado_213956" data-name="Trazado 213956" d="M116.342,25.877c-.18.233-.888-.007-1.739-.016-.85-.039-1.571.16-1.737-.083-.073-.118.04-.352.354-.574a2.519,2.519,0,0,1,2.8.081c.3.239.4.479.321.593" transform="translate(-39.245 -8.631)" fill="#1a2e35"/>
        <path id="Trazado_213957" data-name="Trazado 213957" d="M79.706,38.82a6.607,6.607,0,0,0,7.861-7.307c-.232-1.828-1.217-3.686-.583-5.416.837-2.287,4.043-2.99,4.894-5.273.494-1.327.051-2.878.611-4.178a4.963,4.963,0,0,1,3.065-2.379A12.783,12.783,0,0,0,99.2,12.686a2.864,2.864,0,0,0,1.029-3.5,70.511,70.511,0,0,0-16.26,3.951,6.272,6.272,0,0,0-3.208,2.078A6.565,6.565,0,0,0,80.1,19.2c.312,6.681-.705,12.94-.393,19.622" transform="translate(-27.699 -3.193)" fill="#1a2e35"/>
        <path id="Trazado_213958" data-name="Trazado 213958" d="M76.107,35.074a.556.556,0,0,1-.121-.04,1.745,1.745,0,0,1-.339-.165,2.481,2.481,0,0,1-.928-1.1,3.674,3.674,0,0,1-.242-2.26,7.2,7.2,0,0,1,1.352-2.7,19.783,19.783,0,0,0,2.041-3,4.621,4.621,0,0,0,.493-1.918,6.279,6.279,0,0,0-.438-2.07,6.352,6.352,0,0,1-.439-2.25A5.025,5.025,0,0,1,79.9,15.5a5.775,5.775,0,0,1,2.451-.7,10.322,10.322,0,0,0,2.455-.429,3.183,3.183,0,0,0,1.724-1.554,12.041,12.041,0,0,0,.818-2.194A11.772,11.772,0,0,1,88.192,8.5a7.959,7.959,0,0,1,2.79-3.136,6.035,6.035,0,0,1,3.532-.916,4.521,4.521,0,0,1,2.779,1.14A4.44,4.44,0,0,1,98.537,7.5a3.59,3.59,0,0,1,.173,1.432,2.264,2.264,0,0,1-.087.5c-.014,0,.029-.172.043-.5a3.7,3.7,0,0,0-.209-1.4A4.36,4.36,0,0,0,94.5,4.607a5.888,5.888,0,0,0-3.426.916A7.8,7.8,0,0,0,88.371,8.6a11.611,11.611,0,0,0-.819,2.094,12.066,12.066,0,0,1-.829,2.235,3.84,3.84,0,0,1-.752.994,3.269,3.269,0,0,1-1.084.661,10.467,10.467,0,0,1-2.508.442,5.565,5.565,0,0,0-2.365.669,4.822,4.822,0,0,0-2.32,3.883,6.18,6.18,0,0,0,.422,2.18,6.447,6.447,0,0,1,.439,2.136,4.8,4.8,0,0,1-.521,1.993A19.561,19.561,0,0,1,75.953,28.9,7.143,7.143,0,0,0,74.6,31.538a3.613,3.613,0,0,0,.2,2.2,2.5,2.5,0,0,0,.875,1.1c.271.183.444.225.436.242" transform="translate(-25.874 -1.545)" fill="#375a64"/>
        <path id="Trazado_213959" data-name="Trazado 213959" d="M110.175,1.663a.709.709,0,0,1,.289.087,3.132,3.132,0,0,1,.7.426,3.7,3.7,0,0,1,1.353,2.316A3.7,3.7,0,0,1,111.9,7.1a3.115,3.115,0,0,1-.549.613c-.149.124-.243.177-.251.167a9.921,9.921,0,0,0,.67-.864,3.788,3.788,0,0,0,.532-2.494,3.789,3.789,0,0,0-1.237-2.229,10.147,10.147,0,0,0-.893-.631" transform="translate(-38.316 -0.577)" fill="#375a64"/>
        <path id="Trazado_213960" data-name="Trazado 213960" d="M128.671,72.7a5.6,5.6,0,0,0,.213-.787,3.634,3.634,0,0,0-.364-2.143,4.935,4.935,0,0,0-2.349-2.188,9.343,9.343,0,0,0-1.828-.652c-.657-.17-1.351-.31-2.048-.534a4.66,4.66,0,0,1-1.879-1.027,3.121,3.121,0,0,1-.886-1.787c-.115-.625-.153-1.218-.292-1.748a3.455,3.455,0,0,0-.677-1.34,3.86,3.86,0,0,0-1.8-1.225c-.5-.15-.8-.151-.8-.173a.758.758,0,0,1,.214,0,3.268,3.268,0,0,1,.609.1,3.81,3.81,0,0,1,1.9,1.207,3.589,3.589,0,0,1,.734,1.392c.151.55.2,1.151.314,1.757a2.928,2.928,0,0,0,.837,1.671,4.492,4.492,0,0,0,1.8.972c.681.22,1.372.361,2.035.535a9.417,9.417,0,0,1,1.864.679,5.03,5.03,0,0,1,2.4,2.3,3.606,3.606,0,0,1,.309,2.225,2.688,2.688,0,0,1-.19.586.8.8,0,0,1-.107.186" transform="translate(-40.329 -20.55)" fill="#375a64"/>
        <path id="Trazado_213961" data-name="Trazado 213961" d="M80.751,42.393c-3.769-1.008-7.025-4.7-8.347-8.372s-1.322-7.683-.983-11.569c.245-2.818.739-5.8,2.61-7.917,2.82-3.2,5.871-4.829,10.132-4.7" transform="translate(-24.773 -3.419)" fill="#1a2e35"/>
        <path id="Trazado_213962" data-name="Trazado 213962" d="M102.864,68.527l-3.514-.883a2,2,0,0,0,.7-2.45A3.217,3.217,0,0,0,97.363,63.2L81.339,61.395A1.285,1.285,0,0,0,80,62.185a5.065,5.065,0,0,0-.073,4.461h-.076l-3.086.614-5.22,46.174,34.282-1.6Z" transform="translate(-24.88 -21.349)" fill="#fff"/>
        <path id="Trazado_213963" data-name="Trazado 213963" d="M103.028,70.812a3.745,3.745,0,0,1-.643.123c-.416.068-1.022.143-1.772.215a41.365,41.365,0,0,1-11.734-.583c-.74-.147-1.334-.281-1.742-.39a3.769,3.769,0,0,1-.627-.187,3.729,3.729,0,0,1,.646.1c.412.083,1.01.194,1.751.321A48.633,48.633,0,0,0,100.6,71c.749-.052,1.356-.1,1.775-.145a3.73,3.73,0,0,1,.654-.038" transform="translate(-30.086 -24.34)" fill="#1a2e35"/>
        <path id="Trazado_213964" data-name="Trazado 213964" d="M88.075,80.438a12.468,12.468,0,0,1,1.2-1.994,12.442,12.442,0,0,1,1.382-1.873,12.4,12.4,0,0,1-1.2,2,12.456,12.456,0,0,1-1.382,1.873" transform="translate(-30.629 -26.629)" fill="#e1e1e1"/>
        <path id="Trazado_213965" data-name="Trazado 213965" d="M103.486,81.794a12.147,12.147,0,0,1-1.522-1.719,12.142,12.142,0,0,1-1.352-1.856,11.991,11.991,0,0,1,1.523,1.719,12.165,12.165,0,0,1,1.351,1.856" transform="translate(-34.989 -27.202)" fill="#e1e1e1"/>
        <path id="Trazado_213966" data-name="Trazado 213966" d="M96.705,90.228a12.743,12.743,0,0,1-.518-2.3,12.752,12.752,0,0,1-.3-2.335,12.643,12.643,0,0,1,.518,2.3,12.747,12.747,0,0,1,.3,2.335" transform="translate(-33.342 -29.768)" fill="#e1e1e1"/>
        <path id="Trazado_213967" data-name="Trazado 213967" d="M107.925,93.255a18.454,18.454,0,0,1-1.946,2.07,18.5,18.5,0,0,1-2.1,1.915,36.858,36.858,0,0,1,4.046-3.985" transform="translate(-36.126 -32.431)" fill="#e1e1e1"/>
        <path id="Trazado_213968" data-name="Trazado 213968" d="M90.791,103.256a9.693,9.693,0,0,1-3.649-3.867c.057-.036.7.974,1.713,2.038s1.974,1.775,1.935,1.829" transform="translate(-30.305 -34.565)" fill="#e1e1e1"/>
        <path id="Trazado_213969" data-name="Trazado 213969" d="M96.158,114.628c.019.063-.96.373-2.071.963s-1.922,1.216-1.964,1.165a7.972,7.972,0,0,1,4.035-2.128" transform="translate(-32.038 -39.862)" fill="#e1e1e1"/>
        <path id="Trazado_213970" data-name="Trazado 213970" d="M105.3,112.335a4.135,4.135,0,0,1-.67-.72c-.389-.465-.9-1.126-1.443-1.878s-1-1.456-1.309-1.975a4.122,4.122,0,0,1-.464-.867,4.752,4.752,0,0,1,.594.782l1.357,1.933,1.387,1.91a4.664,4.664,0,0,1,.548.815" transform="translate(-35.269 -37.175)" fill="#e1e1e1"/>
        <path id="Trazado_213971" data-name="Trazado 213971" d="M105.552,123.175a19.918,19.918,0,0,1-5.119.845,21.379,21.379,0,0,1,2.552-.471,21.235,21.235,0,0,1,2.567-.374" transform="translate(-34.928 -42.833)" fill="#e1e1e1"/>
        <path id="Trazado_213972" data-name="Trazado 213972" d="M93.446,67.553c-.029-.023.173-.254.346-.7a3.7,3.7,0,0,0,.183-1.828,7.415,7.415,0,0,0-.543-1.794,3.528,3.528,0,0,1-.284-.74,2.464,2.464,0,0,1,.425.674A5.881,5.881,0,0,1,94.19,65a3.394,3.394,0,0,1-.257,1.92,1.4,1.4,0,0,1-.488.638" transform="translate(-32.393 -21.733)" fill="#e1e1e1"/>
        <path id="Trazado_213973" data-name="Trazado 213973" d="M103.42,64.95a3.825,3.825,0,0,1,.678,2.894c-.065,0-.07-.672-.26-1.466s-.475-1.4-.418-1.428" transform="translate(-35.964 -22.588)" fill="#e1e1e1"/>
        <path id="Trazado_213974" data-name="Trazado 213974" d="M147.165,90.915l15.95-28.01,1.921-4.858s4.971-10.689,5.318-11.777c.4-1.257,1.1-1.366,1.556-1.187.706.279.933,1.332.622,2.421-.108.377-2.04,6.248-2.04,6.248a14.582,14.582,0,0,1,1.649-1.224c1.224-.822,3.469-.8,5.545-.058s2.593,1.13,2.343,1.95a1.088,1.088,0,0,1-.665.66,2.157,2.157,0,0,1-1.536.034c-3.341-1.139-4.821.367-4.821.367l-.252.636s2.51-.8,3.939.333a2.065,2.065,0,0,1,.52.609,2.761,2.761,0,0,1,1.022,4.652,1.148,1.148,0,0,1-1.267.321,1.467,1.467,0,0,1-.479-.552,2.246,2.246,0,0,0-.228-.317l-.954,1.682s-2.344,3.664-3.184,5.374L161.149,97.47a7.746,7.746,0,1,1-13.984-6.555" transform="translate(-50.827 -15.655)" fill="#ffc19d"/>
        <path id="Trazado_213975" data-name="Trazado 213975" d="M173.844,69.21a1.608,1.608,0,0,0,1.848-.322c.508-.439.852-1.038,1.327-1.513,1.421-1.42,3.8-1.553,5.149-3.039.188-.207.355-.522.193-.75-.151-.211-.467-.183-.721-.133l-6.526,1.292" transform="translate(-60.459 -22.055)" fill="#ffc19d"/>
        <path id="Trazado_213976" data-name="Trazado 213976" d="M175.113,64.647a2.678,2.678,0,0,1,.691-.212c.45-.112,1.1-.263,1.912-.44l2.846-.605.824-.17a1.318,1.318,0,0,1,1,.033.561.561,0,0,1,.213.592,1.148,1.148,0,0,1-.256.481,4.319,4.319,0,0,1-.735.649,25.453,25.453,0,0,1-3.227,1.559,5.016,5.016,0,0,0-1.239.845c-.337.325-.6.7-.879,1.012a2.343,2.343,0,0,1-1.729.971c-.5-.01-.705-.245-.689-.249a1.947,1.947,0,0,0,.682.1,2.268,2.268,0,0,0,1.53-1c.257-.314.508-.7.863-1.062a5.156,5.156,0,0,1,1.3-.931,29.755,29.755,0,0,0,3.169-1.558,4.076,4.076,0,0,0,.667-.584c.183-.207.247-.457.115-.525-.132-.1-.432-.039-.711.019l-.826.157-2.862.525c-.815.144-1.477.254-1.936.322a2.636,2.636,0,0,1-.72.067" transform="translate(-60.458 -21.956)" fill="#ff9c6a"/>
        <path id="Trazado_213977" data-name="Trazado 213977" d="M186.8,60.927a2.747,2.747,0,0,1,.749-1.009,2.119,2.119,0,0,1,1.261-.414,5.423,5.423,0,0,1,1.663.28,8.656,8.656,0,0,0,1.708.387,2.8,2.8,0,0,0,1.434-.221,1.09,1.09,0,0,0,.61-.764.638.638,0,0,0-.008-.359c-.023,0-.022.127-.085.335a1.025,1.025,0,0,1-.593.631,2.764,2.764,0,0,1-1.338.153,9.5,9.5,0,0,1-1.661-.4,5.271,5.271,0,0,0-1.74-.27,2.223,2.223,0,0,0-1.361.5,1.972,1.972,0,0,0-.568.8.677.677,0,0,0-.072.349" transform="translate(-64.964 -20.459)" fill="#ff9c6a"/>
        <path id="Trazado_213978" data-name="Trazado 213978" d="M185.425,48.185a6.9,6.9,0,0,0-.392,1.165l-.872,2.826c-.343,1.056-.654,2.011-.914,2.813a6.962,6.962,0,0,0-.35,1.178,5.508,5.508,0,0,0,.513-1.119c.28-.706.635-1.694.985-2.8s.629-2.116.805-2.854a5.484,5.484,0,0,0,.225-1.211" transform="translate(-63.605 -16.757)" fill="#ff9c6a"/>
        <path id="Trazado_213979" data-name="Trazado 213979" d="M188.192,64.49a1.514,1.514,0,0,0,.384-.023,1.138,1.138,0,0,1,.918.246.612.612,0,0,1,.148.586,3.252,3.252,0,0,1-.3.744,1.377,1.377,0,0,0-.155.966,1.173,1.173,0,0,0,.747.753,1.33,1.33,0,0,0,1.048-.1,1.661,1.661,0,0,0,.7-.679,5.4,5.4,0,0,0,.459-1.513,3.18,3.18,0,0,0,.011-1.064.709.709,0,0,0-.147-.363c-.02.009.031.136.053.376a3.8,3.8,0,0,1-.087,1.021,5.8,5.8,0,0,1-.487,1.437,1.318,1.318,0,0,1-1.467.659.944.944,0,0,1-.6-.588,1.178,1.178,0,0,1,.13-.806,3.237,3.237,0,0,0,.294-.8.794.794,0,0,0-.229-.745,1.19,1.19,0,0,0-1.051-.215.991.991,0,0,0-.371.117" transform="translate(-65.448 -22.271)" fill="#ff9c6a"/>
        <path id="Trazado_213980" data-name="Trazado 213980" d="M192.372,67.315c-.01-.005-.083.109-.074.342a1.07,1.07,0,0,0,.489.823,1.425,1.425,0,0,0,1.416.015,2.337,2.337,0,0,0,1.072-1.364,2.828,2.828,0,0,0,0-1.732,2.7,2.7,0,0,0-.78-1.179,2.555,2.555,0,0,0-.812-.489.73.73,0,0,0-.339-.073,4.461,4.461,0,0,1,1.032.688,2.63,2.63,0,0,1,.665,2.709A2.168,2.168,0,0,1,194.1,68.3a1.264,1.264,0,0,1-1.219.036,1.016,1.016,0,0,1-.485-.685c-.037-.207,0-.327-.021-.332" transform="translate(-66.876 -22.137)" fill="#ff9c6a"/>
        <path id="Trazado_213981" data-name="Trazado 213981" d="M183.114,71.509a1,1,0,0,0-.565-.172,2.315,2.315,0,0,0-1.462.349l.179.121a6.889,6.889,0,0,0,.121-.826,5.276,5.276,0,0,0-.427-2.845,13.336,13.336,0,0,1,.183,2.824c-.024.282-.062.552-.108.8l-.05.275.23-.154a2.431,2.431,0,0,1,1.327-.4c.353,0,.562.057.571.025" transform="translate(-62.931 -23.696)" fill="#ff9c6a"/>
        <path id="Trazado_213982" data-name="Trazado 213982" d="M189.346,58.005c-.064.01.028.5.474.892s.945.416.946.352-.4-.194-.785-.536-.568-.73-.635-.707" transform="translate(-65.844 -20.173)" fill="#ff9c6a"/>
        <path id="Trazado_213983" data-name="Trazado 213983" d="M113.013,123.188l16.68.164-2.807-12.1.938,2.283a11.5,11.5,0,0,0,10.636,7.131c5.275,0,8.92-3.925,11.152-8.7,5.218-11.175,10.247-29.17,10.247-29.17l-10.173-8.936c-7.36,13.924-14.279,26.019-14.279,26.019s-2-6.073-3.54-11.489-1.533-8.266-3.9-10.968c-3.645-4.155-8.842-5.188-13.666-6.431l-.18,22.484Z" transform="translate(-39.303 -24.686)" fill="#54a813"/>
        <path id="Trazado_213984" data-name="Trazado 213984" d="M70.953,106.035l30.376,5.917,1.481,11.67H56.232a9.177,9.177,0,0,1-9.271-9.9c.67-8.506,1.4-18.986,1.951-23.414a30.381,30.381,0,0,1,3.441-10.1C54.7,75.782,62.54,70.1,69.412,69.816l1.3,28.936" transform="translate(-16.322 -24.28)" fill="#54a813"/>
        <g id="Grupo_149091" data-name="Grupo 149091" transform="translate(30.61 45.536)" opacity="0.4">
          <g id="Grupo_149090" data-name="Grupo 149090">
            <g id="Grupo_149089" data-name="Grupo 149089" clip-path="url(#clip-path-6)">
              <path id="Trazado_213985" data-name="Trazado 213985" d="M113.013,123.188l16.68.164-2.807-12.1.938,2.283a11.5,11.5,0,0,0,10.636,7.131c5.275,0,8.92-3.925,11.152-8.7,5.218-11.175,10.247-29.17,10.247-29.17l-10.173-8.936c-7.36,13.924-14.279,26.019-14.279,26.019s-2-6.073-3.54-11.489-1.533-8.266-3.9-10.968c-3.645-4.155-8.842-5.188-13.666-6.431l-.18,22.484Z" transform="translate(-69.913 -70.222)"/>
              <path id="Trazado_213986" data-name="Trazado 213986" d="M70.953,106.035l27.4,5.026a2.861,2.861,0,0,1,2.283,2.225l2.175,10.336H56.232a9.177,9.177,0,0,1-9.271-9.9c.67-8.506,1.4-18.986,1.951-23.414a30.381,30.381,0,0,1,3.441-10.1C54.7,75.782,62.54,70.1,69.412,69.816l1.3,28.936" transform="translate(-46.932 -69.816)"/>
            </g>
          </g>
        </g>
        <path id="Trazado_213987" data-name="Trazado 213987" d="M73.118,109.938a1.24,1.24,0,0,1-.014-.278c0-.2,0-.469,0-.8,0-.718.01-1.711.017-2.927,0-2.471-.043-5.884-.235-9.648-.095-1.883-.218-3.675-.348-5.3a21.807,21.807,0,0,0-.61-4.274,6.076,6.076,0,0,0-1.338-2.538,8.912,8.912,0,0,0-.8-.7,3.262,3.262,0,0,1,.863.643,5.947,5.947,0,0,1,1.426,2.555,20.958,20.958,0,0,1,.663,4.3c.142,1.629.271,3.423.366,5.308.193,3.769.214,7.188.172,9.661-.022,1.237-.055,2.236-.087,2.928-.018.327-.033.59-.044.8a1.414,1.414,0,0,1-.029.277" transform="translate(-24.271 -29.029)" fill="#1a2e35"/>
        <path id="Trazado_213988" data-name="Trazado 213988" d="M110.466,131.637a4.7,4.7,0,0,0-1.106-.9,6.929,6.929,0,0,0-1.552-.62c-.629-.179-1.365-.318-2.176-.484-3.246-.661-7.728-1.583-12.695-2.51s-9.483-1.678-12.754-2.2L76.31,124.3l-1.052-.176a2.444,2.444,0,0,1-.365-.076,2.337,2.337,0,0,1,.371.032l1.059.136c.918.122,2.246.309,3.884.553,3.277.485,7.8,1.209,12.77,2.139s9.449,1.874,12.687,2.574c.808.176,1.545.326,2.179.519a6.783,6.783,0,0,1,1.561.664,3.624,3.624,0,0,1,.833.674,2.155,2.155,0,0,1,.177.215c.037.05.055.077.052.08" transform="translate(-26.046 -43.141)" fill="#1a2e35"/>
        <path id="Trazado_213989" data-name="Trazado 213989" d="M70.935,124.049c.01.039-.56.171-1.426.523a11.953,11.953,0,0,0-1.469.725,11.691,11.691,0,0,0-3.057,2.569,11.811,11.811,0,0,0-.967,1.323c-.5.792-.724,1.331-.761,1.315a1.484,1.484,0,0,1,.132-.39,7.762,7.762,0,0,1,.5-1,10.273,10.273,0,0,1,.945-1.372,10.844,10.844,0,0,1,3.112-2.615,10.227,10.227,0,0,1,1.514-.694,7.625,7.625,0,0,1,1.075-.316,1.458,1.458,0,0,1,.407-.063" transform="translate(-21.997 -43.139)" fill="#1a2e35"/>
        <path id="Trazado_213990" data-name="Trazado 213990" d="M133.786,119.775a1.534,1.534,0,0,1-.063-.289c-.035-.213-.081-.49-.138-.836-.116-.726-.27-1.779-.447-3.082-.355-2.606-.785-6.215-1.145-10.212s-.579-7.626-.695-10.254c-.058-1.314-.1-2.377-.11-3.112-.005-.35-.01-.631-.013-.847a1.469,1.469,0,0,1,.01-.3,1.556,1.556,0,0,1,.034.294c.014.215.032.5.054.845.044.759.105,1.814.179,3.108.155,2.624.4,6.247.759,10.243s.765,7.6,1.08,10.211c.157,1.286.286,2.336.378,3.09.04.348.072.627.1.841a1.542,1.542,0,0,1,.019.3" transform="translate(-45.619 -31.595)" fill="#1a2e35"/>
        <path id="Trazado_213991" data-name="Trazado 213991" d="M149.381,123.545c-.012.009-.1-.09-.245-.277a7.72,7.72,0,0,1-.56-.835,11.052,11.052,0,0,1-1.493-6.381,7.8,7.8,0,0,1,.131-1,1.216,1.216,0,0,1,.1-.356c.038.006-.046.522-.072,1.361a12.474,12.474,0,0,0,1.473,6.3c.4.74.7,1.166.669,1.188" transform="translate(-51.142 -39.89)" fill="#1a2e35"/>
        <path id="Trazado_213992" data-name="Trazado 213992" d="M66.741,98c0,.008-.053.019-.157.033a4.045,4.045,0,0,1-.458.044,7.024,7.024,0,0,1-1.686-.132,12.233,12.233,0,0,1-2.393-.75c-.872-.361-1.8-.826-2.767-1.308a20.716,20.716,0,0,0-2.8-1.173,9.554,9.554,0,0,0-2.418-.472,7.848,7.848,0,0,0-2.257.255c0-.007.047-.031.145-.069a3.405,3.405,0,0,1,.436-.147,5.717,5.717,0,0,1,1.681-.194,9.167,9.167,0,0,1,2.473.434,19.394,19.394,0,0,1,2.837,1.169c.971.483,1.889.951,2.748,1.318a13.043,13.043,0,0,0,2.346.784,10.612,10.612,0,0,0,2.27.206" transform="translate(-18.017 -32.72)" fill="#fafafa"/>
        <path id="Trazado_213993" data-name="Trazado 213993" d="M80.02,98.5a14.751,14.751,0,0,1-2.475.533,14.734,14.734,0,0,1-2.512.317,14.654,14.654,0,0,1,2.475-.533A14.724,14.724,0,0,1,80.02,98.5" transform="translate(-26.094 -34.252)" fill="#fafafa"/>
        <path id="Trazado_213994" data-name="Trazado 213994" d="M65.668,112.358a3.831,3.831,0,0,1-.612.264c-.4.154-.984.365-1.713.6a43.858,43.858,0,0,1-5.814,1.438c-1.153.2-2.259.349-3.268.45a13.149,13.149,0,0,1-2.7.073,4.615,4.615,0,0,1-1.754-.5,2.625,2.625,0,0,1-.417-.271c-.089-.071-.132-.111-.128-.117s.2.13.583.312a4.9,4.9,0,0,0,1.729.423,14.021,14.021,0,0,0,2.665-.12c1-.112,2.1-.264,3.252-.465a53.107,53.107,0,0,0,5.806-1.37c.733-.217,1.322-.405,1.73-.534a3.876,3.876,0,0,1,.64-.184" transform="translate(-17.132 -39.075)" fill="#fafafa"/>
        <path id="Trazado_213995" data-name="Trazado 213995" d="M80.052,115.715a12.1,12.1,0,0,1-2.291.148,12.088,12.088,0,0,1-2.3-.072,12.078,12.078,0,0,1,2.291-.147,12.06,12.06,0,0,1,2.3.071" transform="translate(-26.245 -40.216)" fill="#fafafa"/>
        <path id="Trazado_213996" data-name="Trazado 213996" d="M49.3,137.752a.919.919,0,0,1,.044-.224l.169-.631c.039-.14.082-.292.128-.455s.124-.339.193-.528a12.408,12.408,0,0,1,.521-1.269l.342-.721c.122-.249.278-.494.423-.755a18.082,18.082,0,0,1,1.034-1.605,19.208,19.208,0,0,1,6.554-5.7,18.2,18.2,0,0,1,1.733-.8c.279-.108.543-.228.807-.314l.762-.239a12.462,12.462,0,0,1,1.328-.34c.2-.042.38-.089.55-.118l.468-.063.649-.08a.843.843,0,0,1,.227-.013.927.927,0,0,1-.222.057l-.64.12-.463.082c-.168.035-.348.087-.542.136a13.267,13.267,0,0,0-1.31.369l-.751.25c-.26.089-.519.213-.794.324a18.714,18.714,0,0,0-1.708.811,19.685,19.685,0,0,0-6.486,5.642c-.378.548-.755,1.058-1.04,1.578-.147.257-.305.5-.43.742l-.352.708a13.434,13.434,0,0,0-.547,1.246c-.074.187-.151.357-.209.519l-.145.447-.208.617a.9.9,0,0,1-.087.212" transform="translate(-17.145 -43.086)" fill="#fafafa"/>
        <path id="Trazado_213997" data-name="Trazado 213997" d="M78.2,125.329a7.529,7.529,0,0,0-1.728,2.171,10.594,10.594,0,0,0-.967,2.856,29.214,29.214,0,0,0-.4,3.7,26.162,26.162,0,0,1-.43,3.725,10.17,10.17,0,0,1-1.055,2.88,6.442,6.442,0,0,1-1.283,1.622,4.3,4.3,0,0,1-.442.348.691.691,0,0,1-.168.1,7.445,7.445,0,0,0,1.758-2.147,10.424,10.424,0,0,0,.993-2.847,27.918,27.918,0,0,0,.41-3.7,27.327,27.327,0,0,1,.419-3.725,10.321,10.321,0,0,1,1.029-2.89,6.507,6.507,0,0,1,1.261-1.638,4.274,4.274,0,0,1,.437-.355.676.676,0,0,1,.166-.1" transform="translate(-24.945 -43.586)" fill="#fafafa"/>
        <path id="Trazado_213998" data-name="Trazado 213998" d="M92.652,143.788c-.061,0,.009-3.628.156-8.1s.314-8.093.374-8.091-.009,3.627-.156,8.1-.314,8.091-.374,8.09" transform="translate(-32.215 -44.376)" fill="#fafafa"/>
        <path id="Trazado_213999" data-name="Trazado 213999" d="M109.767,144.25a2.7,2.7,0,0,1-.187-.525,6.154,6.154,0,0,1-.172-.631c-.055-.249-.132-.53-.177-.849a15.061,15.061,0,0,1-.224-2.247,15.7,15.7,0,0,1,.835-5.447,15.058,15.058,0,0,1,.886-2.077c.139-.29.3-.536.423-.757a6.174,6.174,0,0,1,.352-.551,2.656,2.656,0,0,1,.336-.445c.037.023-.417.676-.972,1.822a16.819,16.819,0,0,0-.834,2.071A16.673,16.673,0,0,0,109.21,140a17.031,17.031,0,0,0,.175,2.225c.187,1.259.424,2.018.382,2.03" transform="translate(-37.91 -45.462)" fill="#fafafa"/>
        <path id="Trazado_214000" data-name="Trazado 214000" d="M73.81,79.213c-.016.036-.667-.257-1.758-.609a19.911,19.911,0,0,0-8.839-.781c-1.136.155-1.828.329-1.837.292a2.151,2.151,0,0,1,.477-.156,12.956,12.956,0,0,1,1.336-.289,17.86,17.86,0,0,1,8.913.787,12.806,12.806,0,0,1,1.265.519,2.2,2.2,0,0,1,.443.237" transform="translate(-21.345 -26.928)" fill="#fafafa"/>
        <path id="Trazado_214001" data-name="Trazado 214001" d="M125.724,107.078a12.077,12.077,0,0,1-1.561-.024c-.963-.038-2.291-.089-3.76-.126s-2.8-.051-3.761-.061a12.028,12.028,0,0,1-1.56-.053,1.587,1.587,0,0,1,.417-.051c.269-.019.659-.037,1.141-.051.965-.029,2.3-.038,3.769,0s2.8.113,3.763.189c.481.038.869.076,1.137.108a1.569,1.569,0,0,1,.415.072" transform="translate(-40.023 -37.103)" fill="#fafafa"/>
        <path id="Trazado_214002" data-name="Trazado 214002" d="M140.2,104.874c.012.037-.528.218-1.347.623a13.207,13.207,0,0,0-5.258,4.686c-.5.768-.738,1.284-.773,1.267a1.421,1.421,0,0,1,.138-.377,8.378,8.378,0,0,1,.5-.972,11.855,11.855,0,0,1,5.323-4.745,8.444,8.444,0,0,1,1.023-.389,1.419,1.419,0,0,1,.391-.094" transform="translate(-46.192 -36.472)" fill="#fafafa"/>
        <path id="Trazado_214003" data-name="Trazado 214003" d="M130.214,84.152a6.292,6.292,0,0,0-2.139.3,14.783,14.783,0,0,0-2.157.959,17.547,17.547,0,0,1-2.668,1.2,10.869,10.869,0,0,1-5.273.344,10,10,0,0,1-1.555-.421,2.729,2.729,0,0,1-.54-.239A21.671,21.671,0,0,0,118,86.8a11.3,11.3,0,0,0,5.179-.4,18.745,18.745,0,0,0,2.644-1.17,13.519,13.519,0,0,1,2.2-.927,4.939,4.939,0,0,1,1.6-.228,2.585,2.585,0,0,1,.437.042c.1.016.151.028.149.035" transform="translate(-40.301 -29.238)" fill="#fafafa"/>
        <path id="Trazado_214004" data-name="Trazado 214004" d="M127.536,127.22a2.556,2.556,0,0,1-.49.229,6.286,6.286,0,0,1-.593.223c-.235.078-.5.177-.8.252a15.614,15.614,0,0,1-2.142.445,16.227,16.227,0,0,1-5.342-.16,15.7,15.7,0,0,1-2.112-.573c-.3-.094-.555-.209-.785-.3a6.3,6.3,0,0,1-.579-.259,2.5,2.5,0,0,1-.475-.258c.017-.038.71.3,1.887.669a17.9,17.9,0,0,0,2.1.522,17.387,17.387,0,0,0,5.278.158,17.713,17.713,0,0,0,2.128-.4c1.2-.3,1.909-.594,1.924-.554" transform="translate(-39.722 -44.104)" fill="#fafafa"/>
        <path id="Trazado_214005" data-name="Trazado 214005" d="M147.429,136.088a.76.76,0,0,1-.163-.134c-.1-.1-.259-.227-.432-.424a9.979,9.979,0,0,1-1.331-1.786,14.533,14.533,0,0,1-1.875-7.046,28.262,28.262,0,0,1,.954-7.264c.226-.911.43-1.641.578-2.145l.175-.577a.768.768,0,0,1,.076-.2.727.727,0,0,1-.033.209l-.136.588-.509,2.158a30.431,30.431,0,0,0-.886,7.223,14.931,14.931,0,0,0,1.79,6.974,11.216,11.216,0,0,0,1.261,1.806c.341.395.546.6.532.615" transform="translate(-49.949 -40.521)" fill="#fafafa"/>
        <path id="Trazado_214006" data-name="Trazado 214006" d="M164.8,120.4a8.445,8.445,0,0,0-2.225-1.251,17.892,17.892,0,0,0-2.694-.7,30.176,30.176,0,0,1-3.352-.772,13.786,13.786,0,0,1-5.332-3.206,12.6,12.6,0,0,1-1.259-1.416c-.137-.177-.23-.324-.3-.421a.6.6,0,0,1-.09-.156,4.74,4.74,0,0,1,.454.523,15.822,15.822,0,0,0,1.3,1.357,14.328,14.328,0,0,0,5.292,3.11,33.216,33.216,0,0,0,3.325.783,16.579,16.579,0,0,1,2.709.753,6.476,6.476,0,0,1,1.659.924,3.476,3.476,0,0,1,.389.339c.085.082.127.127.122.133" transform="translate(-52.011 -39.115)" fill="#fafafa"/>
        <path id="Trazado_214007" data-name="Trazado 214007" d="M173.088,99.983a3.157,3.157,0,0,1-.451-.391c-.138-.132-.308-.292-.517-.466s-.432-.386-.706-.592a19.775,19.775,0,0,0-1.954-1.382,19.461,19.461,0,0,0-5.369-2.3,19.937,19.937,0,0,0-2.35-.459c-.337-.055-.645-.074-.915-.1s-.5-.044-.694-.053a3.039,3.039,0,0,1-.594-.056,3.082,3.082,0,0,1,.6-.029c.192-.005.427,0,.7.015s.584.025.926.07a17.662,17.662,0,0,1,2.381.417,18.255,18.255,0,0,1,5.426,2.322,17.643,17.643,0,0,1,1.946,1.434c.269.215.49.436.69.621s.365.353.494.5a3.105,3.105,0,0,1,.391.451" transform="translate(-55.484 -32.744)" fill="#fafafa"/>
        <path id="Trazado_214008" data-name="Trazado 214008" d="M120.756,73.478a3.066,3.066,0,0,1-.8.385,15.125,15.125,0,0,1-4.153.969,3.078,3.078,0,0,1-.887.008c0-.067,1.338-.179,2.949-.558s2.866-.864,2.891-.8" transform="translate(-39.965 -25.552)" fill="#fafafa"/>
        <path id="Trazado_214009" data-name="Trazado 214009" d="M139.133,154.456a1.172,1.172,0,0,1-2.249.661l-.355-1.325.052.018a1.222,1.222,0,0,1-1.364,1.444c-.554-.014-1.03-.805-1.186-1.229A2.288,2.288,0,0,1,131.894,153l-2.469-3.853-4.573-3.345,2.765-9.883,9.844,6.371c.387.3.445.427,1.06,1l6.353,5.842a2.315,2.315,0,0,1-2.33,0c-1-.4-5.389-3.36-5.389-3.36Z" transform="translate(-43.42 -47.268)" fill="#ffc19d"/>
        <path id="Trazado_214010" data-name="Trazado 214010" d="M133.839,151.873a1.05,1.05,0,0,1,.293.172l.325.227a2.008,2.008,0,0,1,.406.354,1.843,1.843,0,0,1,.334.571l.241.688c.168.494.349,1.025.538,1.583.376,1.124.7,2.146.932,2.889a7.175,7.175,0,0,1,.324,1.216,7.189,7.189,0,0,1-.472-1.169c-.265-.73-.616-1.743-.992-2.867l-.52-1.586-.221-.694a1.765,1.765,0,0,0-.283-.532,2.029,2.029,0,0,0-.361-.355l-.3-.256c-.164-.143-.25-.228-.241-.24" transform="translate(-46.546 -52.817)" fill="#ff9c6a"/>
        <path id="Trazado_214011" data-name="Trazado 214011" d="M140.662,158.443a1.684,1.684,0,0,1-.141-.408l-.316-1.127c-.265-.951-.627-2.267-1.084-3.7a13.6,13.6,0,0,0-1.513-3.506,2.994,2.994,0,0,0-.807-.8c-.23-.145-.379-.187-.372-.208s.04,0,.112.018a1.44,1.44,0,0,1,.3.116,2.772,2.772,0,0,1,.889.786,12.128,12.128,0,0,1,1.6,3.532c.46,1.441.8,2.766,1.026,3.729.113.482.2.873.249,1.145a1.582,1.582,0,0,1,.058.428" transform="translate(-47.446 -51.709)" fill="#ff9c6a"/>
        <path id="Trazado_214012" data-name="Trazado 214012" d="M144.677,158.661a1.986,1.986,0,0,1-.172-.442l-.39-1.227c-.32-1.038-.747-2.477-1.205-4.07l-1.155-4.08a2,2,0,0,0-.674-1.029,2.71,2.71,0,0,0-.408-.217c0-.006.044-.008.125.009a1.06,1.06,0,0,1,.331.138,1.977,1.977,0,0,1,.772,1.047c.347,1.04.755,2.478,1.22,4.072s.863,3.038,1.145,4.088q.19.736.323,1.246a2,2,0,0,1,.089.465" transform="translate(-48.923 -51.329)" fill="#ff9c6a"/>
        <path id="Trazado_214013" data-name="Trazado 214013" d="M234.482,121.89a1.473,1.473,0,1,0,1.473-1.473,1.473,1.473,0,0,0-1.473,1.473" transform="translate(-81.547 -41.878)" fill="#375a64"/>
        <path id="Trazado_214014" data-name="Trazado 214014" d="M225.445,121.89a1.473,1.473,0,1,0,1.473-1.473,1.473,1.473,0,0,0-1.473,1.473" transform="translate(-78.404 -41.878)" fill="#375a64"/>
        <path id="Trazado_214015" data-name="Trazado 214015" d="M216.326,121.153a1.473,1.473,0,1,0,2.012-.539,1.473,1.473,0,0,0-2.012.539" transform="translate(-75.164 -41.878)" fill="#375a64"/>
        <path id="Trazado_214016" data-name="Trazado 214016" d="M218.306,96.3a1.682,1.682,0,0,0-.3-.005l-.875.025c-.192.009-.409.009-.646.029l-.772.108-.9.13-1.007.25a16.3,16.3,0,0,0-4.879,2.127,17.215,17.215,0,0,0-7.908,12.941,17.7,17.7,0,0,0-.048,2.358c.027.4.02.8.078,1.207s.121.807.183,1.216a17.3,17.3,0,0,0,1.64,4.8,18.5,18.5,0,0,0,3.135,4.314,18.127,18.127,0,0,0,4.518,3.245,16.418,16.418,0,0,0,5.507,1.691,11,11,0,0,0,1.469.125,13.248,13.248,0,0,0,1.484.027,17.72,17.72,0,0,0,2.973-.376,17.385,17.385,0,0,0,5.921-2.492l-.18.018,6.03,2.42.357.143-.1-.37q-.912-3.319-1.772-6.447l-.031.159a17.3,17.3,0,0,0,3.218-7.367,15.677,15.677,0,0,0,.234-3.774,12.107,12.107,0,0,0-.171-1.813q-.069-.444-.137-.882c-.054-.29-.142-.571-.211-.854a17.25,17.25,0,0,0-6.728-9.808,16.526,16.526,0,0,0-4-2.113l-.9-.323-.856-.217-.783-.194c-.251-.048-.494-.074-.721-.109-.456-.058-.856-.136-1.208-.154l-.886-.03-.541-.012a.834.834,0,0,0-.183.007.83.83,0,0,0,.183.025l.539.043.88.059c.348.027.746.115,1.2.182a17.151,17.151,0,0,1,13.712,12.72c.066.278.151.554.2.839s.086.576.13.866a11.776,11.776,0,0,1,.16,1.781,15.37,15.37,0,0,1-.245,3.7,16.989,16.989,0,0,1-3.174,7.206l-.054.072.023.087q.853,3.125,1.76,6.451l.255-.227-6.027-2.428-.095-.038-.085.056a17.024,17.024,0,0,1-5.788,2.433,17.258,17.258,0,0,1-2.906.368,12.978,12.978,0,0,1-1.452-.026,10.628,10.628,0,0,1-1.436-.121A16.068,16.068,0,0,1,210.7,128.7a17.8,17.8,0,0,1-4.425-3.167,18.146,18.146,0,0,1-3.08-4.216,17,17,0,0,1-1.621-4.7q-.093-.6-.184-1.19c-.059-.394-.052-.792-.082-1.183a17.627,17.627,0,0,1,.037-2.315,17.038,17.038,0,0,1,7.7-12.786,16.414,16.414,0,0,1,4.8-2.164l.994-.265.892-.146.764-.126c.235-.026.449-.033.64-.048l.87-.063a1.687,1.687,0,0,0,.3-.035" transform="translate(-69.884 -33.487)" fill="#375a64"/>
      </g>
    </g>
  </g>
</svg>
