<svg xmlns="http://www.w3.org/2000/svg" xmlns:xlink="http://www.w3.org/1999/xlink" width="769" height="772" viewBox="0 0 769 772">
  <defs>
    <clipPath id="clip-path">
      <rect id="Rectángulo_44244" data-name="Rectángulo 44244" width="769" height="772" fill="none"/>
    </clipPath>
    <clipPath id="clip-path-2">
      <rect id="Rectángulo_44247" data-name="Rectángulo 44247" width="62.238" height="52.798" fill="none"/>
    </clipPath>
    <clipPath id="clip-path-3">
      <rect id="Rectángulo_44250" data-name="Rectángulo 44250" width="52.856" height="56.27" fill="none"/>
    </clipPath>
    <clipPath id="clip-path-4">
      <rect id="Rectángulo_44251" data-name="Rectángulo 44251" width="51.909" height="63.459" fill="none"/>
    </clipPath>
    <clipPath id="clip-path-5">
      <rect id="Rectángulo_44252" data-name="Rectángulo 44252" width="63.025" height="53.638" fill="none"/>
    </clipPath>
    <clipPath id="clip-path-6">
      <rect id="Rectángulo_44256" data-name="Rectángulo 44256" width="49.576" height="56.423" fill="none"/>
    </clipPath>
  </defs>
  <g id="Grupo_150093" data-name="Grupo 150093" transform="translate(-400 -862.826)">
    <g id="Grupo_147575" data-name="Grupo 147575" transform="translate(0 -49)">
      <g id="Grupo_147564" data-name="Grupo 147564" transform="translate(400 911.826)">
        <g id="Grupo_147563" data-name="Grupo 147563" clip-path="url(#clip-path)">
          <path id="Trazado_211549" data-name="Trazado 211549" d="M745.295,470H532.7A23.7,23.7,0,0,1,509,446.3V373.7A23.7,23.7,0,0,1,532.7,350H745.295A23.7,23.7,0,0,1,769,373.7V446.3A23.7,23.7,0,0,1,745.295,470" fill="#727997"/>
          <path id="Trazado_211550" data-name="Trazado 211550" d="M687.295,772H474.7A23.7,23.7,0,0,1,451,748.295v-72.59A23.7,23.7,0,0,1,474.7,652H687.295A23.7,23.7,0,0,1,711,675.705v72.59A23.7,23.7,0,0,1,687.295,772" fill="#2432ff"/>
          <path id="Trazado_211551" data-name="Trazado 211551" d="M659.337,494.228A248.469,248.469,0,0,1,638.484,560.8" fill="none" stroke="#727997" stroke-linecap="round" stroke-miterlimit="10" stroke-width="25"/>
          <path id="Trazado_211552" data-name="Trazado 211552" d="M627.164,574.886l-5.544-31.307a7.4,7.4,0,0,1,9.808-8.243l29.885,10.852a7.4,7.4,0,0,1,2.234,12.616l-24.34,20.455a7.4,7.4,0,0,1-12.043-4.373" fill="#727997"/>
          <path id="Trazado_211553" data-name="Trazado 211553" d="M421.845,703.149a248.454,248.454,0,0,1-69.759-1.09" fill="none" stroke="#2432ff" stroke-linecap="round" stroke-miterlimit="10" stroke-width="25"/>
          <path id="Trazado_211554" data-name="Trazado 211554" d="M335.371,695.2,363.815,681a7.4,7.4,0,0,1,10.689,7.065l-1.92,31.736a7.4,7.4,0,0,1-11.462,5.724L334.6,707.992a7.4,7.4,0,0,1,.774-12.789" fill="#2432ff"/>
          <path id="Trazado_211555" data-name="Trazado 211555" d="M126.859,570.178a248.431,248.431,0,0,1-19.1-67.1" fill="none" stroke="#54a813" stroke-linecap="round" stroke-miterlimit="10" stroke-width="25"/>
          <path id="Trazado_211556" data-name="Trazado 211556" d="M109.5,485.1l21.814,23.13a7.4,7.4,0,0,1-3.676,12.273l-30.939,7.327A7.4,7.4,0,0,1,87.9,518.5l9.124-30.457A7.4,7.4,0,0,1,109.5,485.1" fill="#54a813"/>
          <path id="Trazado_211557" data-name="Trazado 211557" d="M175.471,256.476A248.464,248.464,0,0,1,230,212.953" fill="none" stroke="#f47409" stroke-linecap="round" stroke-miterlimit="10" stroke-width="25"/>
          <path id="Trazado_211558" data-name="Trazado 211558" d="M247.257,207.613l-12.916,29.052a7.4,7.4,0,0,1-12.742,1.346L202.9,212.3a7.4,7.4,0,0,1,5.2-11.707l31.619-3.34a7.4,7.4,0,0,1,7.536,10.361" fill="#f47409"/>
          <path id="Trazado_211559" data-name="Trazado 211559" d="M530.412,210.736A248.449,248.449,0,0,1,585.6,253.412" fill="none" stroke="#fccc10" stroke-linecap="round" stroke-miterlimit="10" stroke-width="25"/>
          <path id="Trazado_211560" data-name="Trazado 211560" d="M594.877,268.917l-31.284-5.673a7.4,7.4,0,0,1-4.323-12.061l20.555-24.256a7.4,7.4,0,0,1,12.606,2.286l10.729,29.929a7.4,7.4,0,0,1-8.283,9.775" fill="#fccc10"/>
          <path id="Trazado_211561" data-name="Trazado 211561" d="M288.3,772H75.7A23.7,23.7,0,0,1,52,748.295v-72.59A23.7,23.7,0,0,1,75.7,652H288.3A23.7,23.7,0,0,1,312,675.705v72.59A23.7,23.7,0,0,1,288.3,772" fill="#54a813"/>
          <path id="Trazado_211562" data-name="Trazado 211562" d="M236.295,470H23.7A23.7,23.7,0,0,1,0,446.3V373.7A23.7,23.7,0,0,1,23.7,350H236.295A23.7,23.7,0,0,1,260,373.7V446.3A23.7,23.7,0,0,1,236.295,470" fill="#f47409"/>
          <path id="Trazado_211563" data-name="Trazado 211563" d="M491.3,198H278.7A23.7,23.7,0,0,1,255,174.295v-72.59A23.7,23.7,0,0,1,278.7,78H491.3A23.7,23.7,0,0,1,515,101.705v72.59A23.7,23.7,0,0,1,491.3,198" fill="#fccc10"/>
          <path id="Trazado_211564" data-name="Trazado 211564" d="M439.5,60a55,55,0,1,1-55-55,55,55,0,0,1,55,55" fill="#fff"/>
          <circle id="Elipse_6687" data-name="Elipse 6687" cx="55" cy="55" r="55" transform="translate(329.5 5)" fill="none" stroke="#fccc10" stroke-miterlimit="10" stroke-width="10"/>
          <path id="Trazado_211565" data-name="Trazado 211565" d="M186.5,332a55,55,0,1,1-55-55,55,55,0,0,1,55,55" fill="#fff"/>
          <circle id="Elipse_6688" data-name="Elipse 6688" cx="55" cy="55" r="55" transform="translate(76.5 277)" fill="none" stroke="#f47409" stroke-miterlimit="10" stroke-width="10"/>
          <path id="Trazado_211566" data-name="Trazado 211566" d="M236.5,634a55,55,0,1,1-55-55,55,55,0,0,1,55,55" fill="#fff"/>
          <circle id="Elipse_6689" data-name="Elipse 6689" cx="55" cy="55" r="55" transform="translate(126.5 579)" fill="none" stroke="#54a813" stroke-miterlimit="10" stroke-width="10"/>
          <path id="Trazado_211567" data-name="Trazado 211567" d="M637,634a55,55,0,1,1-55-55,55,55,0,0,1,55,55" fill="#fff"/>
          <circle id="Elipse_6690" data-name="Elipse 6690" cx="55" cy="55" r="55" transform="translate(527 579)" fill="none" stroke="#2432ff" stroke-miterlimit="10" stroke-width="10"/>
          <path id="Trazado_211568" data-name="Trazado 211568" d="M693.956,329.8a55,55,0,1,1-57.16-52.751,55,55,0,0,1,57.16,52.751" fill="#fff"/>
          <path id="Trazado_211569" data-name="Trazado 211569" d="M693.956,329.8a55,55,0,1,1-57.16-52.751A55,55,0,0,1,693.956,329.8Z" fill="none" stroke="#727997" stroke-miterlimit="10" stroke-width="10"/>
        </g>
      </g>
      <path id="Trazado_216359" data-name="Trazado 216359" d="M37.908,13.528l.158.7h.053l.149-.677L41.054,4.2h2.707L39.411,17H36.774L32.432,4.2h2.707ZM50.01,17a5.4,5.4,0,0,1-.242-.686,4.769,4.769,0,0,1-.145-.738,3.518,3.518,0,0,1-1.046,1.151,2.621,2.621,0,0,1-1.547.457,3.211,3.211,0,0,1-2.3-.769,2.755,2.755,0,0,1-.809-2.1A2.508,2.508,0,0,1,45,12.153a5.377,5.377,0,0,1,3.142-.769H49.58v-.756a1.48,1.48,0,0,0-.36-1.063,1.414,1.414,0,0,0-1.072-.378,1.394,1.394,0,0,0-.962.3,1.059,1.059,0,0,0-.338.831h-2.47l-.018-.053a2.412,2.412,0,0,1,1.05-2.079,4.562,4.562,0,0,1,2.9-.875,4.257,4.257,0,0,1,2.773.861,3,3,0,0,1,1.059,2.47v3.929a7.431,7.431,0,0,0,.1,1.257A6.307,6.307,0,0,0,52.568,17Zm-2.347-1.714a2.187,2.187,0,0,0,1.2-.334,1.8,1.8,0,0,0,.721-.773V12.834H48.138a1.708,1.708,0,0,0-1.235.4,1.329,1.329,0,0,0-.417.993A.992.992,0,0,0,46.8,15,1.234,1.234,0,0,0,47.664,15.286ZM56.769,17H54.2V3.289h2.566Zm1.714-4.843a5.1,5.1,0,0,1,1.187-3.485,4.136,4.136,0,0,1,3.287-1.358,4.18,4.18,0,0,1,3.3,1.354,5.076,5.076,0,0,1,1.2,3.489v.185a5.084,5.084,0,0,1-1.191,3.494,4.7,4.7,0,0,1-6.592,0,5.084,5.084,0,0,1-1.191-3.494Zm2.558.185a4.137,4.137,0,0,0,.457,2.087,1.756,1.756,0,0,0,2.931,0,4.11,4.11,0,0,0,.461-2.083v-.185a4.068,4.068,0,0,0-.466-2.065,1.576,1.576,0,0,0-1.468-.8,1.557,1.557,0,0,0-1.455.8,4.1,4.1,0,0,0-.461,2.061Zm13-2.646L73.1,9.67a1.709,1.709,0,0,0-.94.237,1.5,1.5,0,0,0-.562.668V17H69.039V7.49H71.42L71.535,8.9A3,3,0,0,1,72.4,7.732a2.022,2.022,0,0,1,1.582-.387q.163.031.33.075Zm14.4,2.813A5.462,5.462,0,0,1,87.46,15.9a3.227,3.227,0,0,1-2.725,1.283,3.045,3.045,0,0,1-1.327-.277,2.726,2.726,0,0,1-.993-.813v4.562H79.858V7.49h2.312l.149,1.125a3.047,3.047,0,0,1,1.015-.962,2.746,2.746,0,0,1,1.384-.338,3.165,3.165,0,0,1,2.742,1.38,6.159,6.159,0,0,1,.976,3.63Zm-2.566-.185a4.6,4.6,0,0,0-.448-2.18A1.462,1.462,0,0,0,84.05,9.31a1.938,1.938,0,0,0-.989.237,1.693,1.693,0,0,0-.646.677V14.39a1.573,1.573,0,0,0,.646.615,2.176,2.176,0,0,0,1.006.211,1.476,1.476,0,0,0,1.367-.729,3.851,3.851,0,0,0,.435-1.978Zm3.753-.167a5.1,5.1,0,0,1,1.187-3.485A4.136,4.136,0,0,1,94.1,7.314a4.18,4.18,0,0,1,3.3,1.354,5.076,5.076,0,0,1,1.2,3.489v.185a5.084,5.084,0,0,1-1.191,3.494,4.7,4.7,0,0,1-6.592,0,5.084,5.084,0,0,1-1.191-3.494Zm2.558.185a4.137,4.137,0,0,0,.457,2.087,1.756,1.756,0,0,0,2.931,0,4.11,4.11,0,0,0,.461-2.083v-.185a4.068,4.068,0,0,0-.466-2.065,1.576,1.576,0,0,0-1.468-.8,1.557,1.557,0,0,0-1.455.8,4.1,4.1,0,0,0-.461,2.061Zm13-2.646-.94-.026a1.709,1.709,0,0,0-.94.237,1.5,1.5,0,0,0-.562.668V17h-2.558V7.49h2.382l.114,1.406a3,3,0,0,1,.866-1.165,2.022,2.022,0,0,1,1.582-.387q.163.031.33.075Zm11.646,5.9a3.229,3.229,0,0,1-1.116,1.178,2.959,2.959,0,0,1-1.573.413,2.892,2.892,0,0,1-2.351-1.02A4.89,4.89,0,0,1,110.936,13V7.49h2.558v5.528a3.07,3.07,0,0,0,.338,1.709,1.216,1.216,0,0,0,1.05.461,2.557,2.557,0,0,0,1.055-.2,1.778,1.778,0,0,0,.721-.584V7.49h2.566V17H117.1Zm6.68-8.1.114,1.362a3.478,3.478,0,0,1,1.169-1.134,3.034,3.034,0,0,1,1.556-.4,2.828,2.828,0,0,1,2.25.927,4.4,4.4,0,0,1,.809,2.931V17h-2.575V11.182a2.277,2.277,0,0,0-.356-1.446A1.312,1.312,0,0,0,125.4,9.31a2.241,2.241,0,0,0-1.006.215,1.964,1.964,0,0,0-.716.593V17h-2.566V7.49ZM134.016,17H131.45V7.49h2.566Zm0-11.786H131.45V3.289h2.566Zm1.714,7.11a6.18,6.18,0,0,1,.971-3.63,3.154,3.154,0,0,1,2.738-1.38,2.663,2.663,0,0,1,1.283.308,3.087,3.087,0,0,1,1,.879V3.289H144.3V17h-2.188l-.22-1.169a3.179,3.179,0,0,1-1.063,1.006,2.812,2.812,0,0,1-1.406.347A3.215,3.215,0,0,1,136.7,15.9a5.479,5.479,0,0,1-.971-3.393Zm2.558.185a3.874,3.874,0,0,0,.422,1.964,1.469,1.469,0,0,0,1.371.716,2,2,0,0,0,.967-.224,1.788,1.788,0,0,0,.677-.655V10.259a1.975,1.975,0,0,0-.672-.7,1.788,1.788,0,0,0-.954-.25,1.448,1.448,0,0,0-1.375.835,4.718,4.718,0,0,0-.435,2.18ZM151.893,17a5.4,5.4,0,0,1-.242-.686,4.769,4.769,0,0,1-.145-.738,3.518,3.518,0,0,1-1.046,1.151,2.621,2.621,0,0,1-1.547.457,3.211,3.211,0,0,1-2.3-.769,2.755,2.755,0,0,1-.809-2.1,2.508,2.508,0,0,1,1.077-2.167,5.377,5.377,0,0,1,3.142-.769h1.441v-.756a1.48,1.48,0,0,0-.36-1.063,1.414,1.414,0,0,0-1.072-.378,1.394,1.394,0,0,0-.962.3,1.059,1.059,0,0,0-.338.831h-2.47l-.018-.053a2.412,2.412,0,0,1,1.05-2.079,4.562,4.562,0,0,1,2.9-.875,4.257,4.257,0,0,1,2.773.861,3,3,0,0,1,1.059,2.47v3.929a7.431,7.431,0,0,0,.1,1.257A6.307,6.307,0,0,0,154.451,17Zm-2.347-1.714a2.187,2.187,0,0,0,1.2-.334,1.8,1.8,0,0,0,.721-.773V12.834h-1.441a1.708,1.708,0,0,0-1.235.4,1.329,1.329,0,0,0-.417.993.992.992,0,0,0,.312.769A1.234,1.234,0,0,0,149.546,15.286Zm6.012-2.962a6.18,6.18,0,0,1,.971-3.63,3.154,3.154,0,0,1,2.738-1.38,2.663,2.663,0,0,1,1.283.308,3.087,3.087,0,0,1,1,.879V3.289h2.575V17h-2.188l-.22-1.169a3.179,3.179,0,0,1-1.063,1.006,2.812,2.812,0,0,1-1.406.347,3.215,3.215,0,0,1-2.72-1.283,5.479,5.479,0,0,1-.971-3.393Zm2.558.185a3.874,3.874,0,0,0,.422,1.964,1.469,1.469,0,0,0,1.371.716,2,2,0,0,0,.967-.224,1.788,1.788,0,0,0,.677-.655V10.259a1.975,1.975,0,0,0-.672-.7,1.788,1.788,0,0,0-.954-.25,1.448,1.448,0,0,0-1.375.835,4.718,4.718,0,0,0-.435,2.18Z" transform="translate(685 1046.325)" fill="#12263f"/>
      <path id="Trazado_216356" data-name="Trazado 216356" d="M15.209,13.66a1.5,1.5,0,0,0-.514-1.187,5.166,5.166,0,0,0-1.806-.844,10.264,10.264,0,0,1-3.362-1.573A2.977,2.977,0,0,1,8.38,7.587,3.106,3.106,0,0,1,9.672,5.016a5.236,5.236,0,0,1,3.3-1,5.2,5.2,0,0,1,3.423,1.072A3.354,3.354,0,0,1,17.644,7.9l-.018.053H15.139a1.864,1.864,0,0,0-.58-1.472,2.369,2.369,0,0,0-1.626-.514,2.148,2.148,0,0,0-1.468.457A1.488,1.488,0,0,0,10.947,7.6a1.277,1.277,0,0,0,.563,1.068,7.525,7.525,0,0,0,1.942.883,8.357,8.357,0,0,1,3.217,1.56,3.2,3.2,0,0,1,1.107,2.536,3.052,3.052,0,0,1-1.283,2.593,5.571,5.571,0,0,1-3.393.949,6.062,6.062,0,0,1-3.546-1.028,3.392,3.392,0,0,1-1.437-3.067l.018-.053h2.487a2.013,2.013,0,0,0,.668,1.67,2.812,2.812,0,0,0,1.811.536,2.471,2.471,0,0,0,1.569-.431A1.4,1.4,0,0,0,15.209,13.66Zm8.385,3.524a4.279,4.279,0,0,1-3.322-1.305,4.784,4.784,0,0,1-1.2-3.362v-.352a5.207,5.207,0,0,1,1.16-3.5,3.944,3.944,0,0,1,3.19-1.354,3.692,3.692,0,0,1,2.94,1.173,4.637,4.637,0,0,1,1.024,3.16v1.327H21.722l-.026.053a2.569,2.569,0,0,0,.593,1.582,1.987,1.987,0,0,0,1.578.606,5.279,5.279,0,0,0,1.463-.176,5.971,5.971,0,0,0,1.244-.536l.694,1.582a4.764,4.764,0,0,1-1.547.782A6.86,6.86,0,0,1,23.594,17.185Zm-.167-7.893a1.425,1.425,0,0,0-1.191.532,2.667,2.667,0,0,0-.505,1.411l.018.044h3.129v-.193a2.221,2.221,0,0,0-.343-1.314A1.268,1.268,0,0,0,23.427,9.292Zm10.459.4-.94-.026a1.709,1.709,0,0,0-.94.237,1.5,1.5,0,0,0-.562.668V17H28.885V7.49h2.382L31.381,8.9a3,3,0,0,1,.866-1.165,2.022,2.022,0,0,1,1.582-.387q.163.031.33.075Zm4.931,3.762.167.879h.053l.176-.879L40.777,7.49h2.681L40.223,17H37.771L34.537,7.49h2.681ZM47.272,17H44.706V7.49h2.566Zm0-11.786H44.706V3.289h2.566Zm6.082,10a1.428,1.428,0,0,0,1.063-.4,1.452,1.452,0,0,0,.4-1.068h2.338l.018.053A2.976,2.976,0,0,1,56.1,16.213a4.01,4.01,0,0,1-2.742.971,4.052,4.052,0,0,1-3.261-1.349,5.128,5.128,0,0,1-1.151-3.45v-.264a5.161,5.161,0,0,1,1.147-3.45,4.016,4.016,0,0,1,3.248-1.358,3.922,3.922,0,0,1,2.8,1,3.348,3.348,0,0,1,1.028,2.637l-.018.053H54.813a1.9,1.9,0,0,0-.391-1.226,1.314,1.314,0,0,0-1.085-.488,1.465,1.465,0,0,0-1.411.8,4.362,4.362,0,0,0-.417,2.035v.264a4.346,4.346,0,0,0,.417,2.048A1.485,1.485,0,0,0,53.354,15.216ZM61.361,17H58.794V7.49h2.566Zm0-11.786H58.794V3.289h2.566Zm1.714,6.943a5.1,5.1,0,0,1,1.187-3.485,4.136,4.136,0,0,1,3.287-1.358,4.18,4.18,0,0,1,3.3,1.354,5.076,5.076,0,0,1,1.2,3.489v.185a5.084,5.084,0,0,1-1.191,3.494,4.7,4.7,0,0,1-6.592,0,5.084,5.084,0,0,1-1.191-3.494Zm2.558.185a4.137,4.137,0,0,0,.457,2.087,1.756,1.756,0,0,0,2.931,0,4.11,4.11,0,0,0,.461-2.083v-.185a4.068,4.068,0,0,0-.466-2.065,1.576,1.576,0,0,0-1.468-.8,1.557,1.557,0,0,0-1.455.8,4.1,4.1,0,0,0-.461,2.061Zm12.085-.018a6.18,6.18,0,0,1,.971-3.63,3.154,3.154,0,0,1,2.738-1.38,2.663,2.663,0,0,1,1.283.308,3.087,3.087,0,0,1,1,.879V3.289h2.575V17H84.1l-.22-1.169a3.179,3.179,0,0,1-1.063,1.006,2.812,2.812,0,0,1-1.406.347,3.215,3.215,0,0,1-2.72-1.283,5.479,5.479,0,0,1-.971-3.393Zm2.558.185a3.874,3.874,0,0,0,.422,1.964,1.469,1.469,0,0,0,1.371.716,2,2,0,0,0,.967-.224,1.788,1.788,0,0,0,.677-.655V10.259a1.975,1.975,0,0,0-.672-.7,1.788,1.788,0,0,0-.954-.25,1.448,1.448,0,0,0-1.375.835,4.718,4.718,0,0,0-.435,2.18ZM92.4,17.185a4.279,4.279,0,0,1-3.322-1.305,4.784,4.784,0,0,1-1.2-3.362v-.352a5.207,5.207,0,0,1,1.16-3.5,3.944,3.944,0,0,1,3.19-1.354,3.692,3.692,0,0,1,2.94,1.173,4.637,4.637,0,0,1,1.024,3.16v1.327H90.523l-.026.053a2.569,2.569,0,0,0,.593,1.582,1.987,1.987,0,0,0,1.578.606,5.279,5.279,0,0,0,1.463-.176,5.971,5.971,0,0,0,1.244-.536l.694,1.582a4.764,4.764,0,0,1-1.547.782A6.86,6.86,0,0,1,92.4,17.185Zm-.167-7.893a1.425,1.425,0,0,0-1.191.532,2.667,2.667,0,0,0-.505,1.411l.018.044h3.129v-.193a2.221,2.221,0,0,0-.343-1.314A1.268,1.268,0,0,0,92.228,9.292Zm18.519,3.217a5.462,5.462,0,0,1-.976,3.393,3.227,3.227,0,0,1-2.725,1.283,3.045,3.045,0,0,1-1.327-.277,2.726,2.726,0,0,1-.993-.813v4.562h-2.558V7.49h2.312l.149,1.125a3.047,3.047,0,0,1,1.015-.962,2.746,2.746,0,0,1,1.384-.338,3.165,3.165,0,0,1,2.742,1.38,6.159,6.159,0,0,1,.976,3.63Zm-2.566-.185a4.6,4.6,0,0,0-.448-2.18,1.462,1.462,0,0,0-1.371-.835,1.938,1.938,0,0,0-.989.237,1.693,1.693,0,0,0-.646.677V14.39a1.573,1.573,0,0,0,.646.615,2.176,2.176,0,0,0,1.006.211,1.476,1.476,0,0,0,1.367-.729,3.851,3.851,0,0,0,.435-1.978Zm3.753-.167a5.1,5.1,0,0,1,1.187-3.485,4.136,4.136,0,0,1,3.287-1.358,4.18,4.18,0,0,1,3.3,1.354,5.076,5.076,0,0,1,1.2,3.489v.185a5.084,5.084,0,0,1-1.191,3.494,4.7,4.7,0,0,1-6.592,0,5.084,5.084,0,0,1-1.191-3.494Zm2.558.185a4.137,4.137,0,0,0,.457,2.087,1.756,1.756,0,0,0,2.931,0,4.11,4.11,0,0,0,.461-2.083v-.185a4.068,4.068,0,0,0-.466-2.065,1.576,1.576,0,0,0-1.468-.8,1.557,1.557,0,0,0-1.455.8,4.1,4.1,0,0,0-.461,2.061Zm13.14,2.021a.885.885,0,0,0-.409-.725,4.151,4.151,0,0,0-1.516-.532A6.047,6.047,0,0,1,123.17,12.1a2.208,2.208,0,0,1-.866-1.837,2.62,2.62,0,0,1,1.037-2.083,4.182,4.182,0,0,1,2.76-.861,4.513,4.513,0,0,1,2.887.861,2.517,2.517,0,0,1,1.042,2.145l-.018.053h-2.479a1.245,1.245,0,0,0-.369-.932,1.726,1.726,0,0,0-2.039-.053.957.957,0,0,0-.36.756.854.854,0,0,0,.374.716,4.158,4.158,0,0,0,1.516.5,6.17,6.17,0,0,1,2.606,1.033,2.265,2.265,0,0,1,.857,1.876,2.51,2.51,0,0,1-1.1,2.1,4.742,4.742,0,0,1-2.9.817,4.408,4.408,0,0,1-3-.962,2.691,2.691,0,0,1-1.05-2.193l.018-.053h2.347a1.334,1.334,0,0,0,.5,1.107,2.068,2.068,0,0,0,1.239.343,1.762,1.762,0,0,0,1.085-.286A.927.927,0,0,0,127.63,14.363Zm7.216-9.2V7.49h1.608v1.8h-1.608v4.843a1.105,1.105,0,0,0,.233.791.818.818,0,0,0,.611.237,2.45,2.45,0,0,0,.352-.022,2.961,2.961,0,0,0,.343-.075l.211,1.854a5.2,5.2,0,0,1-.751.2,4.48,4.48,0,0,1-.8.066A2.735,2.735,0,0,1,133,16.455a3.2,3.2,0,0,1-.716-2.312V9.292H130.9V7.49h1.389V5.161Zm6.627,8.3.167.879h.053l.176-.879,1.564-5.968h2.681L142.879,17h-2.452l-3.234-9.51h2.681Zm9.765,3.727a4.279,4.279,0,0,1-3.322-1.305,4.784,4.784,0,0,1-1.2-3.362v-.352a5.207,5.207,0,0,1,1.16-3.5,3.944,3.944,0,0,1,3.19-1.354,3.692,3.692,0,0,1,2.94,1.173,4.637,4.637,0,0,1,1.024,3.16v1.327h-5.669l-.026.053a2.569,2.569,0,0,0,.593,1.582,1.987,1.987,0,0,0,1.578.606,5.279,5.279,0,0,0,1.463-.176,5.971,5.971,0,0,0,1.244-.536l.694,1.582a4.764,4.764,0,0,1-1.547.782A6.86,6.86,0,0,1,151.238,17.185Zm-.167-7.893a1.425,1.425,0,0,0-1.191.532,2.667,2.667,0,0,0-.505,1.411l.018.044h3.129v-.193a2.221,2.221,0,0,0-.343-1.314A1.268,1.268,0,0,0,151.071,9.292Zm7.8-1.8.114,1.362a3.478,3.478,0,0,1,1.169-1.134,3.034,3.034,0,0,1,1.556-.4,2.828,2.828,0,0,1,2.25.927,4.4,4.4,0,0,1,.809,2.931V17H162.2V11.182a2.277,2.277,0,0,0-.356-1.446,1.312,1.312,0,0,0-1.068-.426,2.241,2.241,0,0,0-1.006.215,1.964,1.964,0,0,0-.716.593V17h-2.566V7.49Zm10.89-2.329V7.49h1.608v1.8h-1.608v4.843a1.105,1.105,0,0,0,.233.791.818.818,0,0,0,.611.237,2.45,2.45,0,0,0,.352-.022,2.961,2.961,0,0,0,.343-.075l.211,1.854a5.2,5.2,0,0,1-.751.2,4.48,4.48,0,0,1-.8.066,2.735,2.735,0,0,1-2.043-.729,3.2,3.2,0,0,1-.716-2.312V9.292h-1.389V7.49h1.389V5.161ZM178.563,17a5.4,5.4,0,0,1-.242-.686,4.769,4.769,0,0,1-.145-.738,3.518,3.518,0,0,1-1.046,1.151,2.621,2.621,0,0,1-1.547.457,3.211,3.211,0,0,1-2.3-.769,2.755,2.755,0,0,1-.809-2.1,2.508,2.508,0,0,1,1.077-2.167,5.377,5.377,0,0,1,3.142-.769h1.441v-.756a1.48,1.48,0,0,0-.36-1.063,1.414,1.414,0,0,0-1.072-.378,1.394,1.394,0,0,0-.962.3,1.059,1.059,0,0,0-.338.831h-2.47l-.018-.053a2.412,2.412,0,0,1,1.05-2.079,4.562,4.562,0,0,1,2.9-.875,4.257,4.257,0,0,1,2.773.861,3,3,0,0,1,1.059,2.47v3.929a7.431,7.431,0,0,0,.1,1.257A6.307,6.307,0,0,0,181.121,17Zm-2.347-1.714a2.187,2.187,0,0,0,1.2-.334,1.8,1.8,0,0,0,.721-.773V12.834h-1.441a1.708,1.708,0,0,0-1.235.4,1.329,1.329,0,0,0-.417.993.992.992,0,0,0,.312.769A1.234,1.234,0,0,0,176.216,15.286Z" transform="translate(944.895 1321.219)" fill="#fff"/>
      <path id="Trazado_216357" data-name="Trazado 216357" d="M5.382,17V4.2H9.847a5.28,5.28,0,0,1,3.867,1.5,5.166,5.166,0,0,1,1.521,3.845v2.118a5.147,5.147,0,0,1-1.521,3.845A5.3,5.3,0,0,1,9.847,17ZM7.949,6.181v8.851h1.9a2.506,2.506,0,0,0,2.039-.945,3.7,3.7,0,0,0,.773-2.421V9.529a3.667,3.667,0,0,0-.773-2.408,2.51,2.51,0,0,0-2.039-.94Zm13.271,11A4.279,4.279,0,0,1,17.9,15.879a4.784,4.784,0,0,1-1.2-3.362v-.352a5.207,5.207,0,0,1,1.16-3.5,3.944,3.944,0,0,1,3.19-1.354,3.692,3.692,0,0,1,2.94,1.173,4.637,4.637,0,0,1,1.024,3.16v1.327H19.348l-.026.053a2.569,2.569,0,0,0,.593,1.582,1.987,1.987,0,0,0,1.578.606,5.279,5.279,0,0,0,1.463-.176A5.971,5.971,0,0,0,24.2,14.5l.694,1.582a4.764,4.764,0,0,1-1.547.782A6.86,6.86,0,0,1,21.22,17.185Zm-.167-7.893a1.425,1.425,0,0,0-1.191.532,2.667,2.667,0,0,0-.505,1.411l.018.044H22.5v-.193a2.221,2.221,0,0,0-.343-1.314A1.268,1.268,0,0,0,21.053,9.292Zm8.534-4.131V7.49H31.2v1.8H29.587v4.843a1.105,1.105,0,0,0,.233.791.818.818,0,0,0,.611.237,2.45,2.45,0,0,0,.352-.022,2.961,2.961,0,0,0,.343-.075l.211,1.854a5.2,5.2,0,0,1-.751.2,4.48,4.48,0,0,1-.8.066,2.735,2.735,0,0,1-2.043-.729,3.2,3.2,0,0,1-.716-2.312V9.292H25.641V7.49H27.03V5.161ZM36.9,17.185a4.279,4.279,0,0,1-3.322-1.305,4.784,4.784,0,0,1-1.2-3.362v-.352a5.207,5.207,0,0,1,1.16-3.5,3.944,3.944,0,0,1,3.19-1.354,3.692,3.692,0,0,1,2.94,1.173,4.637,4.637,0,0,1,1.024,3.16v1.327H35.028L35,13.027a2.569,2.569,0,0,0,.593,1.582,1.987,1.987,0,0,0,1.578.606,5.279,5.279,0,0,0,1.463-.176,5.971,5.971,0,0,0,1.244-.536l.694,1.582a4.764,4.764,0,0,1-1.547.782A6.86,6.86,0,0,1,36.9,17.185Zm-.167-7.893a1.425,1.425,0,0,0-1.191.532,2.667,2.667,0,0,0-.505,1.411l.018.044h3.129v-.193a2.221,2.221,0,0,0-.343-1.314A1.268,1.268,0,0,0,36.733,9.292Zm10.459.4-.94-.026a1.709,1.709,0,0,0-.94.237,1.5,1.5,0,0,0-.562.668V17H42.191V7.49h2.382L44.687,8.9a3,3,0,0,1,.866-1.165,2.022,2.022,0,0,1,1.582-.387q.163.031.33.075ZM51.226,17H48.66V7.49h2.566Zm0-11.786H48.66V3.289h2.566Zm1.714,6.943a5.1,5.1,0,0,1,1.187-3.485,4.136,4.136,0,0,1,3.287-1.358,4.18,4.18,0,0,1,3.3,1.354,5.076,5.076,0,0,1,1.2,3.489v.185a5.084,5.084,0,0,1-1.191,3.494,4.7,4.7,0,0,1-6.592,0,5.084,5.084,0,0,1-1.191-3.494Zm2.558.185a4.137,4.137,0,0,0,.457,2.087,1.756,1.756,0,0,0,2.931,0,4.11,4.11,0,0,0,.461-2.083v-.185a4.068,4.068,0,0,0-.466-2.065,1.576,1.576,0,0,0-1.468-.8,1.557,1.557,0,0,0-1.455.8,4.1,4.1,0,0,0-.461,2.061ZM68.5,9.7l-.94-.026a1.709,1.709,0,0,0-.94.237,1.5,1.5,0,0,0-.562.668V17H63.5V7.49h2.382L65.992,8.9a3,3,0,0,1,.866-1.165,2.022,2.022,0,0,1,1.582-.387q.163.031.33.075Zm.765,2.461a5.1,5.1,0,0,1,1.187-3.485,4.136,4.136,0,0,1,3.287-1.358,4.18,4.18,0,0,1,3.3,1.354,5.076,5.076,0,0,1,1.2,3.489v.185a5.084,5.084,0,0,1-1.191,3.494,4.7,4.7,0,0,1-6.592,0,5.084,5.084,0,0,1-1.191-3.494Zm2.558.185a4.137,4.137,0,0,0,.457,2.087,1.756,1.756,0,0,0,2.931,0,4.11,4.11,0,0,0,.461-2.083v-.185a4.068,4.068,0,0,0-.466-2.065,1.576,1.576,0,0,0-1.468-.8,1.557,1.557,0,0,0-1.455.8,4.1,4.1,0,0,0-.461,2.061Zm20.153-.659H87.059V17H84.493V4.2h8.376V6.181h-5.81V9.705h4.913ZM97.061,17H94.495V7.49h2.566ZM96.3,3.614h2.856l.018.053L96.736,5.952H94.547Zm8.095,10.749a.885.885,0,0,0-.409-.725,4.151,4.151,0,0,0-1.516-.532A6.047,6.047,0,0,1,99.931,12.1a2.208,2.208,0,0,1-.866-1.837A2.62,2.62,0,0,1,100.1,8.176a4.182,4.182,0,0,1,2.76-.861,4.513,4.513,0,0,1,2.887.861,2.517,2.517,0,0,1,1.042,2.145l-.018.053h-2.479a1.245,1.245,0,0,0-.369-.932,1.726,1.726,0,0,0-2.039-.053.957.957,0,0,0-.36.756.854.854,0,0,0,.374.716,4.158,4.158,0,0,0,1.516.5,6.17,6.17,0,0,1,2.606,1.033,2.265,2.265,0,0,1,.857,1.876,2.51,2.51,0,0,1-1.1,2.1,4.742,4.742,0,0,1-2.9.817,4.408,4.408,0,0,1-3-.962,2.691,2.691,0,0,1-1.05-2.193l.018-.053h2.347a1.334,1.334,0,0,0,.5,1.107,2.068,2.068,0,0,0,1.239.343,1.762,1.762,0,0,0,1.085-.286A.927.927,0,0,0,104.391,14.363ZM111.229,17h-2.566V7.49h2.566Zm0-11.786h-2.566V3.289h2.566Zm6.082,10a1.428,1.428,0,0,0,1.063-.4,1.452,1.452,0,0,0,.4-1.068h2.338l.018.053a2.976,2.976,0,0,1-1.072,2.413,4.01,4.01,0,0,1-2.742.971,4.052,4.052,0,0,1-3.261-1.349,5.128,5.128,0,0,1-1.151-3.45v-.264a5.161,5.161,0,0,1,1.147-3.45,4.016,4.016,0,0,1,3.248-1.358,3.922,3.922,0,0,1,2.8,1,3.348,3.348,0,0,1,1.028,2.637l-.018.053H118.77a1.9,1.9,0,0,0-.391-1.226,1.314,1.314,0,0,0-1.085-.488,1.465,1.465,0,0,0-1.411.8,4.362,4.362,0,0,0-.417,2.035v.264a4.346,4.346,0,0,0,.417,2.048A1.485,1.485,0,0,0,117.311,15.216Zm4.913-3.059a5.1,5.1,0,0,1,1.187-3.485A4.136,4.136,0,0,1,126.7,7.314,4.18,4.18,0,0,1,130,8.668a5.076,5.076,0,0,1,1.2,3.489v.185a5.084,5.084,0,0,1-1.191,3.494,4.7,4.7,0,0,1-6.592,0,5.084,5.084,0,0,1-1.191-3.494Zm2.558.185a4.137,4.137,0,0,0,.457,2.087,1.756,1.756,0,0,0,2.931,0,4.11,4.11,0,0,0,.461-2.083v-.185a4.068,4.068,0,0,0-.466-2.065,1.576,1.576,0,0,0-1.468-.8,1.557,1.557,0,0,0-1.455.8,4.1,4.1,0,0,0-.461,2.061Z" transform="translate(458 1321.219)" fill="#fff"/>
      <path id="Trazado_216358" data-name="Trazado 216358" d="M57.8,15.251a4.862,4.862,0,0,1-1.784,1.358,7.023,7.023,0,0,1-3.059.576,5.173,5.173,0,0,1-3.8-1.459,5.092,5.092,0,0,1-1.477-3.788V9.266a5.18,5.18,0,0,1,1.433-3.784A4.929,4.929,0,0,1,52.8,4.019,5.234,5.234,0,0,1,56.4,5.13,3.652,3.652,0,0,1,57.6,8.1l-.018.053H55.165a2.1,2.1,0,0,0-.589-1.586A2.376,2.376,0,0,0,52.862,6a2.3,2.3,0,0,0-1.9.91,3.657,3.657,0,0,0-.721,2.342v2.689a3.645,3.645,0,0,0,.738,2.364,2.411,2.411,0,0,0,1.978.914,4.55,4.55,0,0,0,1.446-.185,2.2,2.2,0,0,0,.822-.466V12.087H52.766V10.312H57.8ZM64.789,9.7l-.94-.026a1.709,1.709,0,0,0-.94.237,1.5,1.5,0,0,0-.562.668V17H59.788V7.49H62.17L62.284,8.9a3,3,0,0,1,.866-1.165,2.022,2.022,0,0,1,1.582-.387q.163.031.33.075ZM71.732,17a5.4,5.4,0,0,1-.242-.686,4.769,4.769,0,0,1-.145-.738A3.518,3.518,0,0,1,70.3,16.728a2.621,2.621,0,0,1-1.547.457,3.211,3.211,0,0,1-2.3-.769,2.755,2.755,0,0,1-.809-2.1,2.508,2.508,0,0,1,1.077-2.167,5.377,5.377,0,0,1,3.142-.769H71.3v-.756a1.48,1.48,0,0,0-.36-1.063,1.414,1.414,0,0,0-1.072-.378,1.394,1.394,0,0,0-.962.3,1.059,1.059,0,0,0-.338.831H66.1l-.018-.053a2.412,2.412,0,0,1,1.05-2.079,4.562,4.562,0,0,1,2.9-.875,4.257,4.257,0,0,1,2.773.861,3,3,0,0,1,1.059,2.47v3.929a7.431,7.431,0,0,0,.1,1.257A6.307,6.307,0,0,0,74.29,17Zm-2.347-1.714a2.187,2.187,0,0,0,1.2-.334,1.8,1.8,0,0,0,.721-.773V12.834H69.86a1.708,1.708,0,0,0-1.235.4,1.329,1.329,0,0,0-.417.993A.992.992,0,0,0,68.52,15,1.234,1.234,0,0,0,69.386,15.286ZM75.4,12.324a6.18,6.18,0,0,1,.971-3.63,3.154,3.154,0,0,1,2.738-1.38,2.663,2.663,0,0,1,1.283.308,3.087,3.087,0,0,1,1,.879V3.289h2.575V17H81.778l-.22-1.169A3.179,3.179,0,0,1,80.5,16.837a2.812,2.812,0,0,1-1.406.347,3.215,3.215,0,0,1-2.72-1.283,5.479,5.479,0,0,1-.971-3.393Zm2.558.185a3.874,3.874,0,0,0,.422,1.964,1.469,1.469,0,0,0,1.371.716,2,2,0,0,0,.967-.224,1.788,1.788,0,0,0,.677-.655V10.259a1.975,1.975,0,0,0-.672-.7,1.788,1.788,0,0,0-.954-.25,1.448,1.448,0,0,0-1.375.835,4.718,4.718,0,0,0-.435,2.18Zm7.6-.352a5.1,5.1,0,0,1,1.187-3.485,4.136,4.136,0,0,1,3.287-1.358,4.18,4.18,0,0,1,3.3,1.354,5.076,5.076,0,0,1,1.2,3.489v.185a5.084,5.084,0,0,1-1.191,3.494,4.7,4.7,0,0,1-6.592,0,5.084,5.084,0,0,1-1.191-3.494Zm2.558.185a4.137,4.137,0,0,0,.457,2.087,1.756,1.756,0,0,0,2.931,0,4.11,4.11,0,0,0,.461-2.083v-.185a4.068,4.068,0,0,0-.466-2.065,1.576,1.576,0,0,0-1.468-.8,1.557,1.557,0,0,0-1.455.8,4.1,4.1,0,0,0-.461,2.061Zm12.085-.018a6.18,6.18,0,0,1,.971-3.63,3.154,3.154,0,0,1,2.738-1.38,2.663,2.663,0,0,1,1.283.308,3.087,3.087,0,0,1,1,.879V3.289h2.575V17h-2.188l-.22-1.169a3.179,3.179,0,0,1-1.063,1.006,2.812,2.812,0,0,1-1.406.347,3.215,3.215,0,0,1-2.72-1.283,5.479,5.479,0,0,1-.971-3.393Zm2.558.185a3.874,3.874,0,0,0,.422,1.964,1.469,1.469,0,0,0,1.371.716,2,2,0,0,0,.967-.224,1.788,1.788,0,0,0,.677-.655V10.259a1.975,1.975,0,0,0-.672-.7,1.788,1.788,0,0,0-.954-.25,1.448,1.448,0,0,0-1.375.835,4.718,4.718,0,0,0-.435,2.18Zm12.12,4.676a4.279,4.279,0,0,1-3.322-1.305,4.784,4.784,0,0,1-1.2-3.362v-.352a5.207,5.207,0,0,1,1.16-3.5,3.944,3.944,0,0,1,3.19-1.354,3.692,3.692,0,0,1,2.94,1.173,4.637,4.637,0,0,1,1.024,3.16v1.327h-5.669l-.026.053a2.569,2.569,0,0,0,.593,1.582,1.987,1.987,0,0,0,1.578.606,5.279,5.279,0,0,0,1.463-.176,5.971,5.971,0,0,0,1.244-.536l.694,1.582a4.764,4.764,0,0,1-1.547.782A6.86,6.86,0,0,1,114.878,17.185Zm-.167-7.893a1.425,1.425,0,0,0-1.191.532,2.667,2.667,0,0,0-.505,1.411l.018.044h3.129v-.193a2.221,2.221,0,0,0-.343-1.314A1.268,1.268,0,0,0,114.711,9.292ZM6.794,40.216a1.428,1.428,0,0,0,1.063-.4,1.452,1.452,0,0,0,.4-1.068h2.338l.018.053a2.976,2.976,0,0,1-1.072,2.413,4.01,4.01,0,0,1-2.742.971,4.052,4.052,0,0,1-3.261-1.349,5.128,5.128,0,0,1-1.151-3.45v-.264a5.161,5.161,0,0,1,1.147-3.45,4.016,4.016,0,0,1,3.248-1.358,3.922,3.922,0,0,1,2.8,1,3.348,3.348,0,0,1,1.028,2.637l-.018.053H8.253a1.9,1.9,0,0,0-.391-1.226,1.314,1.314,0,0,0-1.085-.488,1.465,1.465,0,0,0-1.411.8,4.362,4.362,0,0,0-.417,2.035v.264a4.346,4.346,0,0,0,.417,2.048A1.485,1.485,0,0,0,6.794,40.216Zm4.913-3.059a5.1,5.1,0,0,1,1.187-3.485,4.136,4.136,0,0,1,3.287-1.358,4.18,4.18,0,0,1,3.3,1.354,5.076,5.076,0,0,1,1.2,3.489v.185a5.084,5.084,0,0,1-1.191,3.494A4.162,4.162,0,0,1,16.2,42.185a4.173,4.173,0,0,1-3.3-1.349,5.084,5.084,0,0,1-1.191-3.494Zm2.558.185a4.137,4.137,0,0,0,.457,2.087,1.578,1.578,0,0,0,1.477.787,1.562,1.562,0,0,0,1.455-.791,4.11,4.11,0,0,0,.461-2.083v-.185a4.068,4.068,0,0,0-.466-2.065,1.576,1.576,0,0,0-1.468-.8,1.557,1.557,0,0,0-1.455.8,4.1,4.1,0,0,0-.461,2.061Zm10.38-4.852.105,1.257A3.2,3.2,0,0,1,25.9,32.688a3.3,3.3,0,0,1,1.6-.374,2.905,2.905,0,0,1,1.564.4,2.494,2.494,0,0,1,.984,1.222,3.3,3.3,0,0,1,1.143-1.2,3.1,3.1,0,0,1,1.652-.431,2.71,2.71,0,0,1,2.219,1,4.762,4.762,0,0,1,.813,3.045V42H33.3V36.349a2.665,2.665,0,0,0-.352-1.591A1.248,1.248,0,0,0,31.9,34.31a1.792,1.792,0,0,0-.945.242,1.761,1.761,0,0,0-.637.672q0,.167.009.286t.009.242V42H27.783V36.349a2.673,2.673,0,0,0-.352-1.578,1.242,1.242,0,0,0-1.055-.461,1.991,1.991,0,0,0-.91.2,1.745,1.745,0,0,0-.646.558V42H22.263V32.49Zm21.771,5.019A5.462,5.462,0,0,1,45.44,40.9a3.227,3.227,0,0,1-2.725,1.283,3.045,3.045,0,0,1-1.327-.277,2.726,2.726,0,0,1-.993-.813v4.562H37.837V32.49h2.312l.149,1.125a3.047,3.047,0,0,1,1.015-.962,2.746,2.746,0,0,1,1.384-.338,3.165,3.165,0,0,1,2.742,1.38,6.159,6.159,0,0,1,.976,3.63Zm-2.566-.185a4.6,4.6,0,0,0-.448-2.18,1.462,1.462,0,0,0-1.371-.835,1.938,1.938,0,0,0-.989.237,1.693,1.693,0,0,0-.646.677V39.39a1.573,1.573,0,0,0,.646.615,2.176,2.176,0,0,0,1.006.211,1.476,1.476,0,0,0,1.367-.729,3.851,3.851,0,0,0,.435-1.978ZM50.7,42H48.129V28.289H50.7Zm6.231.185A4.279,4.279,0,0,1,53.6,40.879a4.784,4.784,0,0,1-1.2-3.362v-.352a5.207,5.207,0,0,1,1.16-3.5,3.944,3.944,0,0,1,3.19-1.354,3.692,3.692,0,0,1,2.94,1.173,4.637,4.637,0,0,1,1.024,3.16v1.327H55.055l-.026.053a2.569,2.569,0,0,0,.593,1.582,1.987,1.987,0,0,0,1.578.606,5.279,5.279,0,0,0,1.463-.176,5.971,5.971,0,0,0,1.244-.536l.694,1.582a4.764,4.764,0,0,1-1.547.782A6.86,6.86,0,0,1,56.927,42.185Zm-.167-7.893a1.425,1.425,0,0,0-1.191.532,2.667,2.667,0,0,0-.505,1.411l.018.044H58.21v-.193a2.221,2.221,0,0,0-.343-1.314A1.268,1.268,0,0,0,56.76,34.292Zm8.227-1.8v9.861a3.54,3.54,0,0,1-.888,2.58,3.292,3.292,0,0,1-2.47.91,4.924,4.924,0,0,1-1.257-.149l.123-1.96a3.282,3.282,0,0,0,.4.079,3.334,3.334,0,0,0,.431.026.951.951,0,0,0,.8-.365,1.828,1.828,0,0,0,.281-1.121V32.49ZM64.934,30.2H62.359V28.289h2.575ZM69.689,42H67.123V32.49h2.566Zm0-11.786H67.123V28.289h2.566Zm1.714,7.11a6.18,6.18,0,0,1,.971-3.63,3.154,3.154,0,0,1,2.738-1.38,2.663,2.663,0,0,1,1.283.308,3.087,3.087,0,0,1,1,.879V28.289h2.575V42H77.784l-.22-1.169A3.179,3.179,0,0,1,76.5,41.837a2.812,2.812,0,0,1-1.406.347,3.215,3.215,0,0,1-2.72-1.283,5.479,5.479,0,0,1-.971-3.393Zm2.558.185a3.874,3.874,0,0,0,.422,1.964,1.469,1.469,0,0,0,1.371.716,2,2,0,0,0,.967-.224,1.788,1.788,0,0,0,.677-.655V35.259a1.975,1.975,0,0,0-.672-.7,1.788,1.788,0,0,0-.954-.25,1.448,1.448,0,0,0-1.375.835,4.718,4.718,0,0,0-.435,2.18ZM87.566,42a5.4,5.4,0,0,1-.242-.686,4.769,4.769,0,0,1-.145-.738,3.518,3.518,0,0,1-1.046,1.151,2.621,2.621,0,0,1-1.547.457,3.211,3.211,0,0,1-2.3-.769,2.755,2.755,0,0,1-.809-2.1,2.508,2.508,0,0,1,1.077-2.167,5.377,5.377,0,0,1,3.142-.769h1.441v-.756a1.48,1.48,0,0,0-.36-1.063,1.414,1.414,0,0,0-1.072-.378,1.394,1.394,0,0,0-.962.3,1.059,1.059,0,0,0-.338.831h-2.47l-.018-.053a2.412,2.412,0,0,1,1.05-2.079,4.562,4.562,0,0,1,2.9-.875,4.257,4.257,0,0,1,2.773.861,3,3,0,0,1,1.059,2.47v3.929a7.431,7.431,0,0,0,.1,1.257A6.307,6.307,0,0,0,90.124,42Zm-2.347-1.714a2.187,2.187,0,0,0,1.2-.334,1.8,1.8,0,0,0,.721-.773V37.834H85.694a1.708,1.708,0,0,0-1.235.4,1.329,1.329,0,0,0-.417.993.992.992,0,0,0,.312.769A1.234,1.234,0,0,0,85.219,40.286Zm6.012-2.962a6.18,6.18,0,0,1,.971-3.63,3.154,3.154,0,0,1,2.738-1.38,2.663,2.663,0,0,1,1.283.308,3.087,3.087,0,0,1,1,.879V28.289H99.8V42H97.612l-.22-1.169a3.179,3.179,0,0,1-1.063,1.006,2.812,2.812,0,0,1-1.406.347A3.215,3.215,0,0,1,92.2,40.9a5.479,5.479,0,0,1-.971-3.393Zm2.558.185a3.874,3.874,0,0,0,.422,1.964,1.469,1.469,0,0,0,1.371.716,2,2,0,0,0,.967-.224,1.788,1.788,0,0,0,.677-.655V35.259a1.975,1.975,0,0,0-.672-.7,1.788,1.788,0,0,0-.954-.25,1.448,1.448,0,0,0-1.375.835,4.718,4.718,0,0,0-.435,2.18Zm15.557-7.348V32.49h1.608v1.8h-1.608v4.843a1.105,1.105,0,0,0,.233.791.818.818,0,0,0,.611.237,2.45,2.45,0,0,0,.352-.022,2.961,2.961,0,0,0,.343-.075l.211,1.854a5.2,5.2,0,0,1-.751.2,4.48,4.48,0,0,1-.8.066,2.735,2.735,0,0,1-2.043-.729,3.2,3.2,0,0,1-.716-2.312V34.292H105.4v-1.8h1.389V30.161Zm7.313,12.023a4.279,4.279,0,0,1-3.322-1.305,4.784,4.784,0,0,1-1.2-3.362v-.352a5.207,5.207,0,0,1,1.16-3.5,3.944,3.944,0,0,1,3.19-1.354,3.692,3.692,0,0,1,2.94,1.173,4.637,4.637,0,0,1,1.024,3.16v1.327h-5.669l-.026.053a2.569,2.569,0,0,0,.593,1.582,1.987,1.987,0,0,0,1.578.606,5.279,5.279,0,0,0,1.463-.176,5.971,5.971,0,0,0,1.244-.536l.694,1.582a4.764,4.764,0,0,1-1.547.782A6.86,6.86,0,0,1,116.658,42.185Zm-.167-7.893a1.425,1.425,0,0,0-1.191.532,2.667,2.667,0,0,0-.505,1.411l.018.044h3.129v-.193a2.221,2.221,0,0,0-.343-1.314A1.268,1.268,0,0,0,116.491,34.292Zm.308-5.871h2.856l.018.053-2.435,2.285h-2.188Zm9.123,11.795a1.428,1.428,0,0,0,1.063-.4,1.452,1.452,0,0,0,.4-1.068h2.338l.018.053a2.976,2.976,0,0,1-1.072,2.413,4.01,4.01,0,0,1-2.742.971,4.052,4.052,0,0,1-3.261-1.349,5.128,5.128,0,0,1-1.151-3.45v-.264a5.161,5.161,0,0,1,1.147-3.45,4.016,4.016,0,0,1,3.248-1.358,3.922,3.922,0,0,1,2.8,1,3.348,3.348,0,0,1,1.028,2.637l-.018.053H127.38a1.9,1.9,0,0,0-.391-1.226,1.314,1.314,0,0,0-1.085-.488,1.465,1.465,0,0,0-1.411.8,4.362,4.362,0,0,0-.417,2.035v.264a4.346,4.346,0,0,0,.417,2.048A1.485,1.485,0,0,0,125.921,40.216Zm7.655-7.726.114,1.362a3.478,3.478,0,0,1,1.169-1.134,3.034,3.034,0,0,1,1.556-.4,2.828,2.828,0,0,1,2.25.927,4.4,4.4,0,0,1,.809,2.931V42H136.9V36.182a2.277,2.277,0,0,0-.356-1.446,1.312,1.312,0,0,0-1.068-.426,2.241,2.241,0,0,0-1.006.215,1.964,1.964,0,0,0-.716.593V42h-2.566V32.49ZM144.088,42h-2.566V32.49h2.566Zm0-11.786h-2.566V28.289h2.566Zm6.082,10a1.428,1.428,0,0,0,1.063-.4,1.452,1.452,0,0,0,.4-1.068h2.338l.018.053a2.976,2.976,0,0,1-1.072,2.413,4.01,4.01,0,0,1-2.742.971,4.052,4.052,0,0,1-3.261-1.349,5.128,5.128,0,0,1-1.151-3.45v-.264a5.161,5.161,0,0,1,1.147-3.45,4.016,4.016,0,0,1,3.248-1.358,3.922,3.922,0,0,1,2.8,1,3.348,3.348,0,0,1,1.028,2.637l-.018.053h-2.338a1.9,1.9,0,0,0-.391-1.226,1.314,1.314,0,0,0-1.085-.488,1.465,1.465,0,0,0-1.411.8,4.362,4.362,0,0,0-.417,2.035v.264a4.346,4.346,0,0,0,.417,2.048A1.485,1.485,0,0,0,150.17,40.216ZM161.086,42a5.4,5.4,0,0,1-.242-.686,4.769,4.769,0,0,1-.145-.738,3.518,3.518,0,0,1-1.046,1.151,2.621,2.621,0,0,1-1.547.457,3.211,3.211,0,0,1-2.3-.769,2.755,2.755,0,0,1-.809-2.1,2.508,2.508,0,0,1,1.077-2.167,5.377,5.377,0,0,1,3.142-.769h1.441v-.756a1.48,1.48,0,0,0-.36-1.063,1.414,1.414,0,0,0-1.072-.378,1.394,1.394,0,0,0-.962.3,1.059,1.059,0,0,0-.338.831h-2.47l-.018-.053a2.412,2.412,0,0,1,1.05-2.079,4.562,4.562,0,0,1,2.9-.875,4.257,4.257,0,0,1,2.773.861,3,3,0,0,1,1.059,2.47v3.929a7.431,7.431,0,0,0,.1,1.257A6.307,6.307,0,0,0,163.644,42Zm-2.347-1.714a2.187,2.187,0,0,0,1.2-.334,1.8,1.8,0,0,0,.721-.773V37.834h-1.441a1.708,1.708,0,0,0-1.235.4,1.329,1.329,0,0,0-.417.993.992.992,0,0,0,.312.769A1.234,1.234,0,0,0,158.74,40.286Z" transform="translate(498 1612.113)" fill="#fff"/>
      <path id="Trazado_216355" data-name="Trazado 216355" d="M21.606,17V4.2h4.465a5.28,5.28,0,0,1,3.867,1.5,5.166,5.166,0,0,1,1.521,3.845v2.118a5.147,5.147,0,0,1-1.521,3.845A5.3,5.3,0,0,1,26.071,17ZM24.173,6.181v8.851h1.9a2.506,2.506,0,0,0,2.039-.945,3.7,3.7,0,0,0,.773-2.421V9.529a3.667,3.667,0,0,0-.773-2.408,2.51,2.51,0,0,0-2.039-.94ZM36.02,17H33.454V7.49H36.02Zm0-11.786H33.454V3.289H36.02ZM40.511,7.49l.105,1.257a3.2,3.2,0,0,1,1.147-1.059,3.3,3.3,0,0,1,1.6-.374,2.905,2.905,0,0,1,1.564.4,2.494,2.494,0,0,1,.984,1.222,3.3,3.3,0,0,1,1.143-1.2A3.1,3.1,0,0,1,48.7,7.314a2.71,2.71,0,0,1,2.219,1,4.762,4.762,0,0,1,.813,3.045V17H49.169V11.349a2.665,2.665,0,0,0-.352-1.591,1.248,1.248,0,0,0-1.046-.448,1.792,1.792,0,0,0-.945.242,1.761,1.761,0,0,0-.637.672q0,.167.009.286t.009.242V17H43.649V11.349A2.673,2.673,0,0,0,43.3,9.771a1.242,1.242,0,0,0-1.055-.461,1.991,1.991,0,0,0-.91.2,1.745,1.745,0,0,0-.646.558V17H38.13V7.49Zm17.314,9.694A4.279,4.279,0,0,1,54.5,15.879a4.784,4.784,0,0,1-1.2-3.362v-.352a5.207,5.207,0,0,1,1.16-3.5,3.944,3.944,0,0,1,3.19-1.354A3.692,3.692,0,0,1,60.6,8.488a4.637,4.637,0,0,1,1.024,3.16v1.327H55.954l-.026.053a2.569,2.569,0,0,0,.593,1.582,1.987,1.987,0,0,0,1.578.606,5.279,5.279,0,0,0,1.463-.176,5.971,5.971,0,0,0,1.244-.536l.694,1.582a4.764,4.764,0,0,1-1.547.782A6.86,6.86,0,0,1,57.826,17.185Zm-.167-7.893a1.425,1.425,0,0,0-1.191.532,2.667,2.667,0,0,0-.505,1.411l.018.044h3.129v-.193a2.221,2.221,0,0,0-.343-1.314A1.268,1.268,0,0,0,57.659,9.292Zm7.8-1.8.114,1.362a3.478,3.478,0,0,1,1.169-1.134,3.034,3.034,0,0,1,1.556-.4,2.828,2.828,0,0,1,2.25.927,4.4,4.4,0,0,1,.809,2.931V17H68.786V11.182a2.277,2.277,0,0,0-.356-1.446,1.312,1.312,0,0,0-1.068-.426,2.241,2.241,0,0,0-1.006.215,1.964,1.964,0,0,0-.716.593V17H63.073V7.49Zm12.955,6.873a.885.885,0,0,0-.409-.725,4.151,4.151,0,0,0-1.516-.532A6.047,6.047,0,0,1,73.958,12.1a2.208,2.208,0,0,1-.866-1.837A2.62,2.62,0,0,1,74.13,8.176a4.182,4.182,0,0,1,2.76-.861,4.513,4.513,0,0,1,2.887.861,2.517,2.517,0,0,1,1.042,2.145l-.018.053H78.322a1.245,1.245,0,0,0-.369-.932,1.726,1.726,0,0,0-2.039-.053.957.957,0,0,0-.36.756.854.854,0,0,0,.374.716,4.158,4.158,0,0,0,1.516.5,6.17,6.17,0,0,1,2.606,1.033,2.265,2.265,0,0,1,.857,1.876,2.51,2.51,0,0,1-1.1,2.1,4.742,4.742,0,0,1-2.9.817,4.408,4.408,0,0,1-3-.962,2.691,2.691,0,0,1-1.05-2.193l.018-.053h2.347a1.334,1.334,0,0,0,.5,1.107,2.068,2.068,0,0,0,1.239.343,1.762,1.762,0,0,0,1.085-.286A.927.927,0,0,0,78.419,14.363ZM85.257,17H82.69V7.49h2.566Zm0-11.786H82.69V3.289h2.566Zm1.714,6.943a5.1,5.1,0,0,1,1.187-3.485,4.136,4.136,0,0,1,3.287-1.358,4.18,4.18,0,0,1,3.3,1.354,5.076,5.076,0,0,1,1.2,3.489v.185a5.084,5.084,0,0,1-1.191,3.494,4.7,4.7,0,0,1-6.592,0,5.084,5.084,0,0,1-1.191-3.494Zm2.558.185a4.137,4.137,0,0,0,.457,2.087,1.756,1.756,0,0,0,2.931,0,4.11,4.11,0,0,0,.461-2.083v-.185a4.068,4.068,0,0,0-.466-2.065,1.576,1.576,0,0,0-1.468-.8,1.557,1.557,0,0,0-1.455.8,4.1,4.1,0,0,0-.461,2.061ZM99.873,7.49l.114,1.362a3.478,3.478,0,0,1,1.169-1.134,3.034,3.034,0,0,1,1.556-.4,2.828,2.828,0,0,1,2.25.927,4.4,4.4,0,0,1,.809,2.931V17H103.2V11.182a2.277,2.277,0,0,0-.356-1.446,1.312,1.312,0,0,0-1.068-.426,2.241,2.241,0,0,0-1.006.215,1.964,1.964,0,0,0-.716.593V17H97.482V7.49Zm11.936,9.694a4.279,4.279,0,0,1-3.322-1.305,4.784,4.784,0,0,1-1.2-3.362v-.352a5.207,5.207,0,0,1,1.16-3.5,3.944,3.944,0,0,1,3.19-1.354,3.692,3.692,0,0,1,2.94,1.173,4.637,4.637,0,0,1,1.024,3.16v1.327h-5.669l-.026.053a2.569,2.569,0,0,0,.593,1.582,1.987,1.987,0,0,0,1.578.606,5.279,5.279,0,0,0,1.463-.176,5.971,5.971,0,0,0,1.244-.536l.694,1.582a4.764,4.764,0,0,1-1.547.782A6.86,6.86,0,0,1,111.808,17.185Zm-.167-7.893a1.425,1.425,0,0,0-1.191.532,2.667,2.667,0,0,0-.505,1.411l.018.044h3.129v-.193a2.221,2.221,0,0,0-.343-1.314A1.268,1.268,0,0,0,111.641,9.292Zm10.6,5.071a.885.885,0,0,0-.409-.725,4.151,4.151,0,0,0-1.516-.532,6.047,6.047,0,0,1-2.536-1.011,2.208,2.208,0,0,1-.866-1.837,2.62,2.62,0,0,1,1.037-2.083,4.182,4.182,0,0,1,2.76-.861,4.513,4.513,0,0,1,2.887.861,2.517,2.517,0,0,1,1.042,2.145l-.018.053h-2.479a1.245,1.245,0,0,0-.369-.932,1.726,1.726,0,0,0-2.039-.053.957.957,0,0,0-.36.756.854.854,0,0,0,.374.716,4.158,4.158,0,0,0,1.516.5,6.17,6.17,0,0,1,2.606,1.033,2.265,2.265,0,0,1,.857,1.876,2.51,2.51,0,0,1-1.1,2.1,4.742,4.742,0,0,1-2.9.817,4.408,4.408,0,0,1-3-.962,2.691,2.691,0,0,1-1.05-2.193l.018-.053h2.347a1.334,1.334,0,0,0,.5,1.107,2.068,2.068,0,0,0,1.239.343,1.762,1.762,0,0,0,1.085-.286A.927.927,0,0,0,122.241,14.363Zm12.05-1.354.105.527h.053l1.819-6.047h2.76L135.17,18.424a5.034,5.034,0,0,1-1.1,1.718,2.818,2.818,0,0,1-2.083.7,3.221,3.221,0,0,1-.6-.053q-.277-.053-.672-.149l.3-1.872.246.035a1.813,1.813,0,0,0,.237.018,1.4,1.4,0,0,0,.976-.312,2.059,2.059,0,0,0,.527-.778l.3-.738-3.375-9.5h2.76ZM16.878,37.509A5.462,5.462,0,0,1,15.9,40.9a3.227,3.227,0,0,1-2.725,1.283,3.045,3.045,0,0,1-1.327-.277,2.726,2.726,0,0,1-.993-.813v4.562H8.3V32.49h2.312l.149,1.125a3.047,3.047,0,0,1,1.015-.962,2.746,2.746,0,0,1,1.384-.338,3.165,3.165,0,0,1,2.742,1.38,6.159,6.159,0,0,1,.976,3.63Zm-2.566-.185a4.6,4.6,0,0,0-.448-2.18,1.462,1.462,0,0,0-1.371-.835,1.938,1.938,0,0,0-.989.237,1.693,1.693,0,0,0-.646.677V39.39A1.573,1.573,0,0,0,11.5,40a2.176,2.176,0,0,0,1.006.211,1.476,1.476,0,0,0,1.367-.729,3.851,3.851,0,0,0,.435-1.978Zm8.271,4.86a4.279,4.279,0,0,1-3.322-1.305,4.784,4.784,0,0,1-1.2-3.362v-.352a5.207,5.207,0,0,1,1.16-3.5,3.944,3.944,0,0,1,3.19-1.354,3.692,3.692,0,0,1,2.94,1.173,4.637,4.637,0,0,1,1.024,3.16v1.327H20.71l-.026.053a2.569,2.569,0,0,0,.593,1.582,1.987,1.987,0,0,0,1.578.606,5.279,5.279,0,0,0,1.463-.176,5.971,5.971,0,0,0,1.244-.536l.694,1.582a4.764,4.764,0,0,1-1.547.782A6.86,6.86,0,0,1,22.582,42.185Zm-.167-7.893a1.425,1.425,0,0,0-1.191.532,2.667,2.667,0,0,0-.505,1.411l.018.044h3.129v-.193a2.221,2.221,0,0,0-.343-1.314A1.268,1.268,0,0,0,22.415,34.292Zm10.6,5.071a.885.885,0,0,0-.409-.725,4.151,4.151,0,0,0-1.516-.532A6.047,6.047,0,0,1,28.554,37.1a2.208,2.208,0,0,1-.866-1.837,2.62,2.62,0,0,1,1.037-2.083,4.182,4.182,0,0,1,2.76-.861,4.513,4.513,0,0,1,2.887.861,2.517,2.517,0,0,1,1.042,2.145l-.018.053H32.918a1.245,1.245,0,0,0-.369-.932,1.726,1.726,0,0,0-2.039-.053.957.957,0,0,0-.36.756.854.854,0,0,0,.374.716,4.158,4.158,0,0,0,1.516.5,6.17,6.17,0,0,1,2.606,1.033,2.265,2.265,0,0,1,.857,1.876,2.51,2.51,0,0,1-1.1,2.1,4.742,4.742,0,0,1-2.9.817,4.408,4.408,0,0,1-3-.962,2.691,2.691,0,0,1-1.05-2.193l.018-.053h2.347a1.334,1.334,0,0,0,.5,1.107,2.068,2.068,0,0,0,1.239.343,1.762,1.762,0,0,0,1.085-.286A.927.927,0,0,0,33.014,39.363Zm3.744-2.206a5.1,5.1,0,0,1,1.187-3.485,4.136,4.136,0,0,1,3.287-1.358,4.18,4.18,0,0,1,3.3,1.354,5.076,5.076,0,0,1,1.2,3.489v.185a5.084,5.084,0,0,1-1.191,3.494,4.162,4.162,0,0,1-3.292,1.349,4.173,4.173,0,0,1-3.3-1.349,5.084,5.084,0,0,1-1.191-3.494Zm2.558.185a4.137,4.137,0,0,0,.457,2.087,1.756,1.756,0,0,0,2.931,0,4.11,4.11,0,0,0,.461-2.083v-.185a4.068,4.068,0,0,0-.466-2.065,1.576,1.576,0,0,0-1.468-.8,1.557,1.557,0,0,0-1.455.8,4.1,4.1,0,0,0-.461,2.061ZM51.4,37.324a6.18,6.18,0,0,1,.971-3.63,3.154,3.154,0,0,1,2.738-1.38,2.663,2.663,0,0,1,1.283.308,3.087,3.087,0,0,1,1,.879V28.289H59.97V42H57.782l-.22-1.169A3.179,3.179,0,0,1,56.5,41.837a2.812,2.812,0,0,1-1.406.347,3.215,3.215,0,0,1-2.72-1.283,5.479,5.479,0,0,1-.971-3.393Zm2.558.185a3.874,3.874,0,0,0,.422,1.964,1.469,1.469,0,0,0,1.371.716,2,2,0,0,0,.967-.224,1.788,1.788,0,0,0,.677-.655V35.259a1.975,1.975,0,0,0-.672-.7,1.788,1.788,0,0,0-.954-.25,1.448,1.448,0,0,0-1.375.835,4.718,4.718,0,0,0-.435,2.18Zm12.12,4.676a4.279,4.279,0,0,1-3.322-1.305,4.784,4.784,0,0,1-1.2-3.362v-.352a5.207,5.207,0,0,1,1.16-3.5,3.944,3.944,0,0,1,3.19-1.354,3.692,3.692,0,0,1,2.94,1.173,4.637,4.637,0,0,1,1.024,3.16v1.327H64.207l-.026.053a2.569,2.569,0,0,0,.593,1.582,1.987,1.987,0,0,0,1.578.606,5.279,5.279,0,0,0,1.463-.176,5.971,5.971,0,0,0,1.244-.536l.694,1.582a4.764,4.764,0,0,1-1.547.782A6.86,6.86,0,0,1,66.079,42.185Zm-.167-7.893a1.425,1.425,0,0,0-1.191.532,2.667,2.667,0,0,0-.505,1.411l.018.044h3.129v-.193a2.221,2.221,0,0,0-.343-1.314A1.268,1.268,0,0,0,65.912,34.292ZM74.068,42H71.5V28.289h2.566Zm15.17-4.491a5.462,5.462,0,0,1-.976,3.393,3.227,3.227,0,0,1-2.725,1.283,3.045,3.045,0,0,1-1.327-.277,2.726,2.726,0,0,1-.993-.813v4.562H80.66V32.49h2.312l.149,1.125a3.047,3.047,0,0,1,1.015-.962,2.746,2.746,0,0,1,1.384-.338,3.165,3.165,0,0,1,2.742,1.38,6.159,6.159,0,0,1,.976,3.63Zm-2.566-.185a4.6,4.6,0,0,0-.448-2.18,1.462,1.462,0,0,0-1.371-.835,1.938,1.938,0,0,0-.989.237,1.693,1.693,0,0,0-.646.677V39.39a1.573,1.573,0,0,0,.646.615,2.176,2.176,0,0,0,1.006.211,1.476,1.476,0,0,0,1.367-.729,3.851,3.851,0,0,0,.435-1.978ZM95.821,34.7l-.94-.026a1.709,1.709,0,0,0-.94.237,1.5,1.5,0,0,0-.562.668V42H90.82V32.49H93.2l.114,1.406a3,3,0,0,1,.866-1.165,2.022,2.022,0,0,1,1.582-.387q.163.031.33.075Zm.765,2.461a5.1,5.1,0,0,1,1.187-3.485,4.136,4.136,0,0,1,3.287-1.358,4.18,4.18,0,0,1,3.3,1.354,5.076,5.076,0,0,1,1.2,3.489v.185a5.084,5.084,0,0,1-1.191,3.494,4.7,4.7,0,0,1-6.592,0,5.084,5.084,0,0,1-1.191-3.494Zm2.558.185a4.137,4.137,0,0,0,.457,2.087,1.756,1.756,0,0,0,2.931,0,4.11,4.11,0,0,0,.461-2.083v-.185a4.068,4.068,0,0,0-.466-2.065,1.576,1.576,0,0,0-1.468-.8,1.557,1.557,0,0,0-1.455.8,4.1,4.1,0,0,0-.461,2.061Zm7.6-.018a6.18,6.18,0,0,1,.971-3.63,3.154,3.154,0,0,1,2.738-1.38,2.663,2.663,0,0,1,1.283.308,3.087,3.087,0,0,1,1,.879V28.289h2.575V42h-2.188l-.22-1.169a3.179,3.179,0,0,1-1.063,1.006,2.812,2.812,0,0,1-1.406.347,3.215,3.215,0,0,1-2.72-1.283,5.479,5.479,0,0,1-.971-3.393Zm2.558.185a3.874,3.874,0,0,0,.422,1.964,1.469,1.469,0,0,0,1.371.716,2,2,0,0,0,.967-.224,1.788,1.788,0,0,0,.677-.655V35.259a1.975,1.975,0,0,0-.672-.7,1.788,1.788,0,0,0-.954-.25,1.448,1.448,0,0,0-1.375.835,4.718,4.718,0,0,0-.435,2.18Zm13.825,3.085a3.229,3.229,0,0,1-1.116,1.178,2.959,2.959,0,0,1-1.573.413,2.892,2.892,0,0,1-2.351-1.02A4.89,4.89,0,0,1,117.24,38V32.49H119.8v5.528a3.07,3.07,0,0,0,.338,1.709,1.216,1.216,0,0,0,1.05.461,2.557,2.557,0,0,0,1.055-.2,1.778,1.778,0,0,0,.721-.584V32.49h2.566V42H123.4Zm8.306-.378a1.428,1.428,0,0,0,1.063-.4,1.452,1.452,0,0,0,.4-1.068h2.338l.018.053a2.976,2.976,0,0,1-1.072,2.413,4.01,4.01,0,0,1-2.742.971,4.052,4.052,0,0,1-3.261-1.349,5.128,5.128,0,0,1-1.151-3.45v-.264a5.161,5.161,0,0,1,1.147-3.45,4.016,4.016,0,0,1,3.248-1.358,3.922,3.922,0,0,1,2.8,1,3.348,3.348,0,0,1,1.028,2.637l-.018.053h-2.338a1.9,1.9,0,0,0-.391-1.226,1.314,1.314,0,0,0-1.085-.488,1.465,1.465,0,0,0-1.411.8,4.362,4.362,0,0,0-.417,2.035v.264a4.346,4.346,0,0,0,.417,2.048A1.485,1.485,0,0,0,131.434,40.216Zm8.385-10.055V32.49h1.608v1.8h-1.608v4.843a1.105,1.105,0,0,0,.233.791.818.818,0,0,0,.611.237,2.45,2.45,0,0,0,.352-.022,2.961,2.961,0,0,0,.343-.075l.211,1.854a5.2,5.2,0,0,1-.751.2,4.48,4.48,0,0,1-.8.066,2.735,2.735,0,0,1-2.043-.729,3.2,3.2,0,0,1-.716-2.312V34.292h-1.389v-1.8h1.389V30.161Zm2.795,7a5.1,5.1,0,0,1,1.187-3.485,4.136,4.136,0,0,1,3.287-1.358,4.18,4.18,0,0,1,3.3,1.354,5.076,5.076,0,0,1,1.2,3.489v.185a5.084,5.084,0,0,1-1.191,3.494,4.7,4.7,0,0,1-6.592,0,5.084,5.084,0,0,1-1.191-3.494Zm2.558.185a4.137,4.137,0,0,0,.457,2.087,1.756,1.756,0,0,0,2.931,0,4.11,4.11,0,0,0,.461-2.083v-.185a4.068,4.068,0,0,0-.466-2.065,1.576,1.576,0,0,0-1.468-.8,1.557,1.557,0,0,0-1.455.8,4.1,4.1,0,0,0-.461,2.061Z" transform="translate(903 1611.832)" fill="#fff"/>
      <g id="Grupo_147566" data-name="Grupo 147566" transform="translate(753.38 945.764)">
        <g id="Grupo_147565" data-name="Grupo 147565" transform="translate(0 0)" clip-path="url(#clip-path-2)">
          <rect id="Rectángulo_44245" data-name="Rectángulo 44245" width="45.312" height="26.432" rx="3.204" transform="translate(8.463 25.455)" fill="#54a813"/>
          <path id="Trazado_211570" data-name="Trazado 211570" d="M58.359,44.727H16.694a1.823,1.823,0,0,0-1.823,1.823V66.038H60.183V46.55A1.823,1.823,0,0,0,58.359,44.727Z" transform="translate(-6.408 -19.272)" fill="#81b823"/>
          <path id="Trazado_211571" data-name="Trazado 211571" d="M55.489,52.707V51.362H25.282v1.345a2.431,2.431,0,0,1-2.431,2.431H21.506V66.466h1.345A2.431,2.431,0,0,1,25.282,68.9v1.345H55.489V68.9a2.432,2.432,0,0,1,2.431-2.431h1.345V55.138H57.92a2.432,2.432,0,0,1-2.431-2.431" transform="translate(-9.267 -22.131)" fill="#dbf4b2"/>
          <path id="Trazado_211572" data-name="Trazado 211572" d="M57.92,66.466h1.345V55.138H57.92a2.432,2.432,0,0,1-2.431-2.431V51.362H25.282v1.345a2.432,2.432,0,0,1-2.431,2.431H21.506V66.466h1.345A2.432,2.432,0,0,1,25.282,68.9H55.489a2.432,2.432,0,0,1,2.431-2.431" transform="translate(-9.267 -22.131)" fill="#d1f19e"/>
          <path id="Trazado_211573" data-name="Trazado 211573" d="M47.533,51.362a9.44,9.44,0,1,1-9.44,9.44,9.44,9.44,0,0,1,9.44-9.44" transform="translate(-16.414 -22.131)" fill="#54a813"/>
          <path id="Trazado_211574" data-name="Trazado 211574" d="M56.972,60.8a9.44,9.44,0,1,0-14.3,8.1h9.717a9.435,9.435,0,0,0,4.581-8.1" transform="translate(-16.414 -22.131)" fill="#81b823"/>
          <path id="Trazado_211575" data-name="Trazado 211575" d="M59.277,24.823H10.06a1.823,1.823,0,0,0-1.823,1.823V53.207a1.823,1.823,0,0,0,1.823,1.823H59.277A1.824,1.824,0,0,0,61.1,53.207V26.646a1.823,1.823,0,0,0-1.823-1.823" transform="translate(-3.549 -10.696)" fill="#54a813"/>
          <path id="Trazado_211576" data-name="Trazado 211576" d="M59.277,24.823H10.06a1.823,1.823,0,0,0-1.823,1.823V48.022H61.1V26.646a1.823,1.823,0,0,0-1.823-1.823" transform="translate(-3.549 -10.696)" fill="#81b823"/>
          <path id="Trazado_211577" data-name="Trazado 211577" d="M54.519,32.867V31.458H20.536v1.409a4.255,4.255,0,0,1-4.255,4.255H14.872V48.45h1.409A4.255,4.255,0,0,1,20.536,52.7v1.41H54.519V52.7a4.255,4.255,0,0,1,4.255-4.254h1.409V37.122H58.774A4.255,4.255,0,0,1,54.519,32.867Z" transform="translate(-6.408 -13.555)" fill="#dbf4b2"/>
          <path id="Trazado_211578" data-name="Trazado 211578" d="M46.1,31.458A11.328,11.328,0,1,1,34.776,42.786,11.328,11.328,0,0,1,46.1,31.458" transform="translate(-14.984 -13.555)" fill="#54a813"/>
          <path id="Trazado_211579" data-name="Trazado 211579" d="M54.519,32.867V31.458H20.536v1.409a4.255,4.255,0,0,1-4.255,4.255H14.872V48.45h1.409a4.255,4.255,0,0,1,3.845,2.431h34.8a4.254,4.254,0,0,1,3.845-2.431h1.409V37.122H58.774A4.255,4.255,0,0,1,54.519,32.867Z" transform="translate(-6.408 -13.555)" fill="#d1f19e"/>
          <path id="Trazado_211580" data-name="Trazado 211580" d="M34.775,42.786a11.293,11.293,0,0,0,3.4,8.1H54.027a11.328,11.328,0,1,0-19.252-8.1Z" transform="translate(-14.984 -13.555)" fill="#81b823"/>
          <rect id="Rectángulo_44246" data-name="Rectángulo 44246" width="60.415" height="33.983" rx="3.204" transform="translate(0.912 0.912)" fill="#7fcf00"/>
          <path id="Trazado_211581" data-name="Trazado 211581" d="M60.193,1.6H57.154V23.837a9.317,9.317,0,0,1-9.318,9.317H1.6v.608a1.823,1.823,0,0,0,1.823,1.823H60.193a1.823,1.823,0,0,0,1.823-1.823V3.425A1.823,1.823,0,0,0,60.193,1.6" transform="translate(-0.69 -0.69)" fill="#54a813"/>
          <path id="Trazado_211582" data-name="Trazado 211582" d="M53.548,9.71V8.237H15.789V9.71a6.078,6.078,0,0,1-6.078,6.079H8.237V27.116H9.71a6.078,6.078,0,0,1,6.078,6.078v1.474H53.548V33.195a6.078,6.078,0,0,1,6.078-6.078H61.1V15.789H59.626A6.078,6.078,0,0,1,53.548,9.71" transform="translate(-3.549 -3.549)" fill="#dbf4b2"/>
          <path id="Trazado_211583" data-name="Trazado 211583" d="M65.287,20.725A6.048,6.048,0,0,1,61.9,19.693v9.191a.737.737,0,0,1-.737.737,6.815,6.815,0,0,0-6.815,6.815.737.737,0,0,1-.737.736H21.375a6.172,6.172,0,0,1,.075.957V39.6H59.209V38.13a6.078,6.078,0,0,1,6.078-6.078h1.474V20.725Z" transform="translate(-9.21 -8.485)" fill="#d1f19e"/>
          <path id="Trazado_211584" data-name="Trazado 211584" d="M44.674,8.237A13.216,13.216,0,1,1,31.458,21.453,13.216,13.216,0,0,1,44.674,8.237" transform="translate(-13.555 -3.549)" fill="#7fcf00"/>
          <path id="Trazado_211585" data-name="Trazado 211585" d="M51.812,8.988A13.22,13.22,0,0,1,40.254,32.133,13.217,13.217,0,1,0,51.812,8.988Z" transform="translate(-17.345 -3.873)" fill="#54a813"/>
          <path id="Trazado_211586" data-name="Trazado 211586" d="M49.539,32.085h.108v.976a.912.912,0,0,0,1.824,0v-.976h.108a4.423,4.423,0,0,0,1.4-8.619l-1.507-.5V16.981h.108a2.6,2.6,0,0,1,2.6,2.6V20.6A.911.911,0,1,0,56,20.6V19.58a4.428,4.428,0,0,0-4.423-4.423h-.108v-.977a.912.912,0,0,0-1.824,0v.977h-.108a4.423,4.423,0,0,0-1.4,8.618l1.506.5v5.983h-.108a2.6,2.6,0,0,1-2.6-2.6v-1.02a.911.911,0,1,0-1.823,0v1.02A4.428,4.428,0,0,0,49.539,32.085Zm-.822-10.039a2.6,2.6,0,0,1,.822-5.065h.108v5.375Zm2.754,2.84.931.31a2.6,2.6,0,0,1-.822,5.065h-.108Z" transform="translate(-19.44 -5.718)"/>
          <path id="Trazado_211587" data-name="Trazado 211587" d="M52.858,6.635H15.1a.912.912,0,0,0-.912.912V9.02a5.172,5.172,0,0,1-5.166,5.166H7.547a.912.912,0,0,0-.912.912V26.426a.912.912,0,0,0,.912.912H9.021A5.172,5.172,0,0,1,14.187,32.5v1.474a.912.912,0,0,0,.912.912H52.858a.912.912,0,0,0,.912-.912V32.5a5.172,5.172,0,0,1,5.166-5.166H60.41a.912.912,0,0,0,.912-.912V15.1a.912.912,0,0,0-.912-.912H58.936A5.172,5.172,0,0,1,53.769,9.02V7.547A.912.912,0,0,0,52.858,6.635ZM16.011,33.067V32.5a7,7,0,0,0-6.99-6.99H8.458v-9.5h.562a7,7,0,0,0,6.99-6.99V8.458H27.041a14.123,14.123,0,0,0,0,24.609ZM33.978,8.458a12.3,12.3,0,1,1-12.3,12.3,12.318,12.318,0,0,1,12.3-12.3M58.936,16.01H59.5v9.5h-.562a7,7,0,0,0-6.99,6.99v.562H40.915a14.123,14.123,0,0,0,0-24.608H51.946V9.02a7,7,0,0,0,6.99,6.99" transform="translate(-2.859 -2.859)"/>
          <path id="Trazado_211588" data-name="Trazado 211588" d="M59.5,0H9.2a.912.912,0,1,0,0,1.823H59.5a.913.913,0,0,1,.912.912V33.071a.913.913,0,0,1-.912.912H2.735a.913.913,0,0,1-.912-.912V2.735a.913.913,0,0,1,.912-.912h2.21A.912.912,0,1,0,4.945,0H2.735A2.738,2.738,0,0,0,0,2.735V33.071a2.738,2.738,0,0,0,2.735,2.735H3.776v6.7a2.738,2.738,0,0,0,2.735,2.735H7.552v4.816A2.738,2.738,0,0,0,10.287,52.8H12.8a.912.912,0,0,0,0-1.823H10.287a.912.912,0,0,1-.912-.912V45.247h4.209a1.521,1.521,0,0,1,1.52,1.52V48.11a.912.912,0,0,0,.912.912H46.223a.912.912,0,0,0,.912-.912V46.766a1.521,1.521,0,0,1,1.52-1.52h4.209v4.816a.912.912,0,0,1-.912.912H17.05a.912.912,0,0,0,0,1.823h34.9a2.738,2.738,0,0,0,2.735-2.735V45.247h1.041a2.738,2.738,0,0,0,2.735-2.735v-6.7H59.5a2.738,2.738,0,0,0,2.735-2.735V2.735A2.738,2.738,0,0,0,59.5,0ZM13.809,35.807h6.985a12.265,12.265,0,0,0,3.909,3.84H15.04v-.5a5.143,5.143,0,0,0-1.23-3.343m9.233,0H39.2a10.415,10.415,0,0,1-16.155,0M16.927,47.2v-.433a3.32,3.32,0,0,0-.366-1.52h6.563A10.408,10.408,0,0,0,25.238,47.2Zm8.755-1.953H36.557a8.547,8.547,0,0,1-10.875,0m19.629,1.52V47.2H37a10.427,10.427,0,0,0,2.115-1.953h6.562a3.326,3.326,0,0,0-.365,1.52m11.328-4.255a.913.913,0,0,1-.912.912H6.511a.913.913,0,0,1-.912-.912v-6.7H9.873a3.347,3.347,0,0,1,3.343,3.343v1.409a.912.912,0,0,0,.912.912H42.512a.912.912,0,0,0,0-1.823H37.535a12.257,12.257,0,0,0,3.909-3.84H48.43A5.147,5.147,0,0,0,47.2,39.15v.5h-.433a.912.912,0,0,0,0,1.823h1.345a.912.912,0,0,0,.912-.912V39.15a3.347,3.347,0,0,1,3.343-3.343h4.274Z" transform="translate(0 0)"/>
        </g>
      </g>
      <g id="Grupo_147568" data-name="Grupo 147568" transform="translate(1011.361 1213.766)">
        <g id="Grupo_147567" data-name="Grupo 147567" transform="translate(0 0)" clip-path="url(#clip-path-3)">
          <path id="Trazado_211589" data-name="Trazado 211589" d="M51.395,1.675H13.726a1.649,1.649,0,0,0-1.649,1.649V6.8L32.56,8.5,53.044,6.8V3.324a1.648,1.648,0,0,0-1.649-1.649" transform="translate(-6.132 -0.85)" fill="#685e68"/>
          <path id="Trazado_211590" data-name="Trazado 211590" d="M92.6,18.906a2.758,2.758,0,0,0-.212-.58l-3.124-6.248H83.41l.731,8.535Z" transform="translate(-42.351 -6.133)" fill="#7fcf00"/>
          <path id="Trazado_211591" data-name="Trazado 211591" d="M67.4,20.612l-3.17-8.535H58.375l-1.219,8.535Z" transform="translate(-29.021 -6.132)" fill="#7fcf00"/>
          <path id="Trazado_211592" data-name="Trazado 211592" d="M14.488,12.077H8.636L5.512,18.325a2.758,2.758,0,0,0-.212.58l8.457,1.707Z" transform="translate(-2.691 -6.132)" fill="#7fcf00"/>
          <path id="Trazado_211593" data-name="Trazado 211593" d="M52.989,67.021,30.8,68.728,8.609,67.021V63.607l1.707-3.414L8.609,58.487v-25.6h44.38v25.6L51.283,61.9l1.707,1.707Z" transform="translate(-4.371 -16.696)" fill="#f2fbff"/>
          <path id="Trazado_211594" data-name="Trazado 211594" d="M8.61,39.778a2.74,2.74,0,0,0,1.041.2h1.333a2.748,2.748,0,0,0,2.748-2.747,2.747,2.747,0,0,0,2.747,2.747h1.333a2.748,2.748,0,0,0,2.748-2.747,2.748,2.748,0,0,0,2.748,2.747h1.333a2.747,2.747,0,0,0,2.747-2.747,2.748,2.748,0,0,0,2.748,2.747h1.333a2.747,2.747,0,0,0,2.747-2.747,2.748,2.748,0,0,0,2.748,2.747h1.333a2.748,2.748,0,0,0,2.748-2.747,2.747,2.747,0,0,0,2.747,2.747h1.333a2.748,2.748,0,0,0,2.748-2.747,2.748,2.748,0,0,0,2.748,2.747H51.95a2.74,2.74,0,0,0,1.041-.2v-6.9H8.61Z" transform="translate(-4.372 -16.696)" fill="#dff6fd"/>
          <path id="Trazado_211595" data-name="Trazado 211595" d="M52.989,32.883H48.044V56.574a8.25,8.25,0,0,1-8.25,8.25H8.609v2.2L30.8,68.729l22.19-1.707V63.608L51.283,61.9l1.707-3.414Z" transform="translate(-4.371 -16.696)" fill="#dff6fd"/>
          <path id="Trazado_211596" data-name="Trazado 211596" d="M50.684,102.234H3.872a2.2,2.2,0,0,0-2.2,2.2v2.923H52.882v-2.923a2.2,2.2,0,0,0-2.2-2.2" transform="translate(-0.85 -51.909)" fill="#685e68"/>
          <path id="Trazado_211597" data-name="Trazado 211597" d="M39.657,20.612l-1.219-8.535H32.585l-3.17,8.535Z" transform="translate(-14.936 -6.132)" fill="#7fcf00"/>
          <path id="Trazado_211598" data-name="Trazado 211598" d="M25.84,18.905,27.3,12.078H21.451l-2.438,6.828,3.414,1.707Z" transform="translate(-9.654 -6.132)" fill="#fff"/>
          <path id="Trazado_211599" data-name="Trazado 211599" d="M53.581,18.905l-.488-6.828H47.241l-.488,6.828,3.414,1.707Z" transform="translate(-23.739 -6.132)" fill="#fff"/>
          <path id="Trazado_211600" data-name="Trazado 211600" d="M79.812,18.905l-2.439-6.828H71.521l1.463,6.828L76.4,20.612Z" transform="translate(-36.315 -6.132)" fill="#fff"/>
          <rect id="Rectángulo_44248" data-name="Rectángulo 44248" width="44.38" height="5.121" transform="translate(4.238 41.791)" fill="#7fcf00"/>
          <rect id="Rectángulo_44249" data-name="Rectángulo 44249" width="44.38" height="5.121" transform="translate(4.238 41.791)" fill="#7fcf00"/>
          <path id="Trazado_211601" data-name="Trazado 211601" d="M84.435,84.9a8.263,8.263,0,0,1-3.714,5.121H89.6V84.9Z" transform="translate(-40.986 -43.105)" fill="#54a813"/>
          <path id="Trazado_211602" data-name="Trazado 211602" d="M15.545,75.825H29.2V52.968a2.747,2.747,0,0,0-2.747-2.747h-8.16a2.748,2.748,0,0,0-2.748,2.747Z" transform="translate(-7.893 -25.499)" fill="#62dbfb"/>
          <path id="Trazado_211603" data-name="Trazado 211603" d="M26.453,50.221h-.6a2.769,2.769,0,0,1,.055.549V69.838a3.789,3.789,0,0,1-3.789,3.788h-6.57v2.2H29.2V52.969A2.748,2.748,0,0,0,26.453,50.221Z" transform="translate(-7.893 -25.499)" fill="#01d0fb"/>
          <path id="Trazado_211604" data-name="Trazado 211604" d="M51.869,50.221A1.648,1.648,0,0,0,50.22,51.87v6.886l5.121-3.414,3.414-5.121Z" transform="translate(-25.499 -25.499)" fill="#62dbfb"/>
          <path id="Trazado_211605" data-name="Trazado 211605" d="M72.576,50.221H69.1l-6.828,5.121L57.155,62.17H72.576a1.649,1.649,0,0,0,1.649-1.649V51.87A1.648,1.648,0,0,0,72.576,50.221Z" transform="translate(-29.02 -25.499)" fill="#62dbfb"/>
          <path id="Trazado_211606" data-name="Trazado 211606" d="M90.251,51.874a1.649,1.649,0,0,0-1.532-1.645V62.17a1.649,1.649,0,0,0,1.532-1.645Z" transform="translate(-45.047 -25.503)" fill="#01d0fb"/>
          <path id="Trazado_211607" data-name="Trazado 211607" d="M58.755,50.221,50.22,58.756v1.765a1.648,1.648,0,0,0,1.649,1.649h1.765L65.582,50.221Z" transform="translate(-25.499 -25.499)" fill="#c8effe"/>
          <path id="Trazado_211608" data-name="Trazado 211608" d="M23.092,34.482H21.76a2.748,2.748,0,0,1-2.748-2.748V25.947H25.84v5.787a2.748,2.748,0,0,1-2.748,2.748" transform="translate(-9.653 -13.174)" fill="#f2fbff"/>
          <path id="Trazado_211609" data-name="Trazado 211609" d="M77.241,34.482h1.333a2.748,2.748,0,0,0,2.748-2.748V25.947H74.493v5.787a2.748,2.748,0,0,0,2.748,2.748" transform="translate(-37.823 -13.174)" fill="#f2fbff"/>
          <path id="Trazado_211610" data-name="Trazado 211610" d="M63.371,34.482H64.7a2.748,2.748,0,0,0,2.748-2.748V25.947H60.623v5.787a2.748,2.748,0,0,0,2.748,2.748" transform="translate(-30.781 -13.174)" fill="#54a813"/>
          <path id="Trazado_211611" data-name="Trazado 211611" d="M36.962,34.482H35.63a2.748,2.748,0,0,1-2.748-2.748V25.947H39.71v5.787a2.748,2.748,0,0,1-2.748,2.748" transform="translate(-16.696 -13.174)" fill="#54a813"/>
          <path id="Trazado_211612" data-name="Trazado 211612" d="M50.832,34.482H49.5a2.748,2.748,0,0,1-2.748-2.748V25.947H53.58v5.787a2.748,2.748,0,0,1-2.748,2.748" transform="translate(-23.738 -13.174)" fill="#f2fbff"/>
          <path id="Trazado_211613" data-name="Trazado 211613" d="M88.364,25.948v5.787a2.747,2.747,0,0,0,2.747,2.748h1.333a2.748,2.748,0,0,0,2.747-2.748V26.6a2.758,2.758,0,0,0-.077-.648Z" transform="translate(-44.866 -13.175)" fill="#54a813"/>
          <path id="Trazado_211614" data-name="Trazado 211614" d="M5.22,25.948a2.759,2.759,0,0,0-.078.649v5.138A2.748,2.748,0,0,0,7.89,34.483H9.222a2.748,2.748,0,0,0,2.747-2.748V25.948Z" transform="translate(-2.611 -13.175)" fill="#54a813"/>
          <path id="Trazado_211615" data-name="Trazado 211615" d="M21.63,76.067a.824.824,0,0,0,.824-.824V66.709a.824.824,0,1,0-1.648,0v8.535a.824.824,0,0,0,.824.824" transform="translate(-10.564 -33.452)"/>
          <path id="Trazado_211616" data-name="Trazado 211616" d="M69.916,49.236a2.465,2.465,0,0,0-1.712-.69H51.019a2.476,2.476,0,0,0-2.473,2.473V59.67a2.475,2.475,0,0,0,2.473,2.473H68.2a2.475,2.475,0,0,0,2.473-2.473V51.019a2.463,2.463,0,0,0-.69-1.712.757.757,0,0,0-.071-.072M54.774,60.495l10.3-10.3h2.79l-10.3,10.3Zm-3.755-10.3h4.9l-5.721,5.721v-4.9A.825.825,0,0,1,51.019,50.195Zm-.824,9.476V58.246l8.052-8.052h4.5l-10.3,10.3H51.019A.825.825,0,0,1,50.195,59.67Zm18.01.824h-8.31l9.134-9.134v8.31a.825.825,0,0,1-.824.824" transform="translate(-24.649 -24.649)"/>
          <path id="Trazado_211617" data-name="Trazado 211617" d="M49.834,49.5h-.391V27.449a.824.824,0,1,0-1.649,0V40.967H27.062a.824.824,0,1,0,0,1.648H47.794v3.472H22.132V42.615h1.084a.824.824,0,1,0,0-1.648H22.132v-13.5A3.576,3.576,0,0,0,18.56,23.9H10.4a3.576,3.576,0,0,0-3.572,3.572v13.5H5.062V22.125c.072,0,.144.006.217.006H6.611A3.565,3.565,0,0,0,9.359,20.84a3.566,3.566,0,0,0,2.748,1.292h1.333a3.566,3.566,0,0,0,2.748-1.292,3.565,3.565,0,0,0,2.747,1.292h1.333a3.566,3.566,0,0,0,2.748-1.292,3.566,3.566,0,0,0,2.748,1.292h1.333a3.565,3.565,0,0,0,2.747-1.292,3.566,3.566,0,0,0,2.748,1.292h1.333A3.565,3.565,0,0,0,36.67,20.84a3.566,3.566,0,0,0,2.748,1.292H40.75A3.566,3.566,0,0,0,43.5,20.84a3.565,3.565,0,0,0,2.747,1.292h1.333c.073,0,.145,0,.217-.006V23.6a.824.824,0,1,0,1.649,0v-2a3.572,3.572,0,0,0,1.707-3.045V13.421a3.571,3.571,0,0,0-.377-1.6L47.736,5.751V2.473A2.475,2.475,0,0,0,45.263,0H7.594A2.475,2.475,0,0,0,5.121,2.473V5.751L2.084,11.824a3.57,3.57,0,0,0-.377,1.6V18.56a3.573,3.573,0,0,0,1.707,3.045V49.5H3.022A3.026,3.026,0,0,0,0,52.523v2.923a.824.824,0,0,0,.824.825H52.032a.825.825,0,0,0,.825-.825V52.523A3.026,3.026,0,0,0,49.834,49.5ZM6.454,6.769h4.173l-.127.354a.824.824,0,0,0,1.553.554l.324-.909H16.63l-1.11,5.18H10.528l.2-.571a.824.824,0,1,0-1.553-.554l-.4,1.125H3.865Zm11.861,0h4.3l-.37,5.179H17.206Zm28.086,0,2.59,5.179H44.079l-1.85-5.179Zm-5.924,0,1.85,5.179H37.336l-1.11-5.179Zm-5.938,0,1.11,5.179H30.609l-.37-5.179Zm-5.954,0,.37,5.179H23.9l.37-5.179ZM13.439,20.483H12.107a1.926,1.926,0,0,1-1.923-1.923V13.6h5.179V18.56a1.926,1.926,0,0,1-1.923,1.923m6.828,0H18.934a1.926,1.926,0,0,1-1.923-1.923V13.6H22.19V18.56a1.925,1.925,0,0,1-1.923,1.923m6.828,0H25.762a1.926,1.926,0,0,1-1.923-1.923V13.6h5.18V18.56a1.926,1.926,0,0,1-1.924,1.923m6.828,0H32.59a1.926,1.926,0,0,1-1.923-1.923V13.6h5.179V18.56a1.926,1.926,0,0,1-1.923,1.923m6.828,0H39.417a1.926,1.926,0,0,1-1.923-1.923V13.6h5.179V18.56a1.926,1.926,0,0,1-1.923,1.923M49.5,18.56a1.925,1.925,0,0,1-1.923,1.923H46.245a1.926,1.926,0,0,1-1.923-1.923V13.6H49.5ZM7.594,1.649H45.263a.825.825,0,0,1,.824.824V5.121H6.769V2.473a.825.825,0,0,1,.824-.824M3.355,13.6h5.18V18.56a1.926,1.926,0,0,1-1.923,1.923H5.279A1.926,1.926,0,0,1,3.355,18.56ZM47.794,49.5H22.132V47.736H47.794ZM8.476,27.469A1.926,1.926,0,0,1,10.4,25.546H18.56a1.926,1.926,0,0,1,1.923,1.923V49.5H8.476ZM6.828,46.087H5.062V42.615H6.828ZM5.062,47.736H6.828V49.5H5.062Zm46.146,6.886H1.649v-2.1a1.375,1.375,0,0,1,1.374-1.374H49.834a1.375,1.375,0,0,1,1.374,1.374Z" transform="translate(0 0)"/>
        </g>
      </g>
      <g id="Grupo_147570" data-name="Grupo 147570" transform="translate(503.916 1210.91)">
        <g id="Grupo_147569" data-name="Grupo 147569" clip-path="url(#clip-path-4)">
          <path id="Trazado_211618" data-name="Trazado 211618" d="M49.513,92.9H4.421a2.479,2.479,0,0,1-2.479-2.479V60.727a2.479,2.479,0,0,1,2.479-2.479H19.267l7.7,1.925,7.7-1.925H49.513a2.479,2.479,0,0,1,2.479,2.479V90.419A2.479,2.479,0,0,1,49.513,92.9" transform="translate(-1.012 -30.368)" fill="#fccc10"/>
          <path id="Trazado_211619" data-name="Trazado 211619" d="M58.244,1.942H51.1L45.323,3.867,35.7,1.942H28.552a2.479,2.479,0,0,0-2.479,2.479V26.413a2.479,2.479,0,0,0,2.479,2.479H58.244a2.479,2.479,0,0,0,2.479-2.479V4.421a2.479,2.479,0,0,0-2.479-2.479" transform="translate(-13.594 -1.012)" fill="#fccc10"/>
          <path id="Trazado_211620" data-name="Trazado 211620" d="M49.513,58.248H47.034V80.977a9.442,9.442,0,0,1-9.442,9.442H1.942A2.479,2.479,0,0,0,4.421,92.9H49.513a2.479,2.479,0,0,0,2.479-2.479V60.727A2.479,2.479,0,0,0,49.513,58.248Z" transform="translate(-1.012 -30.368)" fill="#feb237"/>
          <path id="Trazado_211621" data-name="Trazado 211621" d="M58.244,1.942H55.765V16.971a9.442,9.442,0,0,1-9.442,9.442H26.073a2.479,2.479,0,0,0,2.479,2.479H58.244a2.479,2.479,0,0,0,2.479-2.479V4.421A2.479,2.479,0,0,0,58.244,1.942Z" transform="translate(-13.594 -1.012)" fill="#feb237"/>
          <path id="Trazado_211622" data-name="Trazado 211622" d="M61.582,9.642l-3.85-1.925-3.85,1.925-3.85-1.925-3.85,1.925v-7.7h15.4Z" transform="translate(-24.078 -1.013)" fill="#685e68"/>
          <path id="Trazado_211623" data-name="Trazado 211623" d="M53.539,65.948l-3.85-1.925-3.85,1.925-3.85-1.925-3.85,1.925v-7.7h15.4Z" transform="translate(-19.884 -30.368)" fill="#685e68"/>
          <path id="Trazado_211624" data-name="Trazado 211624" d="M48.5,26.95h-.815a3.388,3.388,0,0,0,.373-1.549V3.408A3.412,3.412,0,0,0,44.651,0H14.958A3.412,3.412,0,0,0,11.55,3.408V6.869a.93.93,0,1,0,1.859,0V3.408a1.551,1.551,0,0,1,1.549-1.549h6.217v6.77a.93.93,0,0,0,1.345.831l3.434-1.717,3.434,1.717a.928.928,0,0,0,.831,0l3.434-1.717,3.434,1.717a.93.93,0,0,0,1.345-.831V1.859h6.217A1.551,1.551,0,0,1,46.2,3.408V25.4a1.551,1.551,0,0,1-1.549,1.549H30.8a.93.93,0,1,0,0,1.859h1.929v5.266l-2.5-1.253a.931.931,0,0,0-.831,0L25.955,34.54,22.52,32.823a.931.931,0,0,0-.831,0l-2.5,1.253V28.809h7.273a.93.93,0,0,0,0-1.859h-11.5A1.551,1.551,0,0,1,13.409,25.4V11.207a.93.93,0,1,0-1.859,0V25.4a3.388,3.388,0,0,0,.373,1.549H3.408A3.412,3.412,0,0,0,0,30.358v17.1a.93.93,0,1,0,1.859,0v-17.1a1.551,1.551,0,0,1,1.549-1.549H17.325v6.77a.93.93,0,0,0,1.345.831L22.1,34.694l3.434,1.717a.929.929,0,0,0,.832,0L29.8,34.694l3.434,1.717a.93.93,0,0,0,1.345-.831v-6.77H48.5a1.551,1.551,0,0,1,1.549,1.549V60.051A1.551,1.551,0,0,1,48.5,61.6H3.408a1.551,1.551,0,0,1-1.549-1.549V51.8A.93.93,0,1,0,0,51.8v8.253a3.412,3.412,0,0,0,3.408,3.408H48.5a3.412,3.412,0,0,0,3.408-3.408V30.358A3.412,3.412,0,0,0,48.5,26.95ZM36.575,7.125l-2.5-1.252a.928.928,0,0,0-.831,0L29.8,7.59,26.37,5.873a.928.928,0,0,0-.831,0l-2.5,1.252V1.859H36.575Z" transform="translate(0)"/>
          <path id="Trazado_211625" data-name="Trazado 211625" d="M74.252,47.095V45.17a.93.93,0,0,0-1.859,0v1.925a.93.93,0,0,0,1.859,0" transform="translate(-37.743 -23.065)"/>
          <path id="Trazado_211626" data-name="Trazado 211626" d="M82.3,47.095V45.17a.93.93,0,1,0-1.859,0v1.925a.93.93,0,1,0,1.859,0" transform="translate(-41.937 -23.065)"/>
          <path id="Trazado_211627" data-name="Trazado 211627" d="M90.34,47.095V45.17a.93.93,0,0,0-1.859,0v1.925a.93.93,0,0,0,1.859,0" transform="translate(-46.131 -23.065)"/>
          <path id="Trazado_211628" data-name="Trazado 211628" d="M82.3,119.488v-1.925a.93.93,0,1,0-1.859,0v1.925a.93.93,0,1,0,1.859,0" transform="translate(-41.937 -60.808)"/>
          <path id="Trazado_211629" data-name="Trazado 211629" d="M90.34,119.488v-1.925a.93.93,0,1,0-1.859,0v1.925a.93.93,0,1,0,1.859,0" transform="translate(-46.131 -60.808)"/>
          <path id="Trazado_211630" data-name="Trazado 211630" d="M98.383,119.488v-1.925a.93.93,0,1,0-1.859,0v1.925a.93.93,0,1,0,1.859,0" transform="translate(-50.324 -60.808)"/>
        </g>
      </g>
      <g id="Grupo_147572" data-name="Grupo 147572" transform="translate(549.561 1520.662)">
        <g id="Grupo_147571" data-name="Grupo 147571" clip-path="url(#clip-path-5)">
          <path id="Trazado_211631" data-name="Trazado 211631" d="M53.091,1.76H11.608A9.848,9.848,0,0,0,1.76,11.608V35.885a9.848,9.848,0,0,0,9.848,9.848H13.3a1.847,1.847,0,0,1,1.847,1.846V51.7a1.846,1.846,0,0,0,2.919,1.5l9.34-6.671a4.306,4.306,0,0,1,2.5-.8H53.091a9.848,9.848,0,0,0,9.848-9.848V11.608A9.848,9.848,0,0,0,53.091,1.76Z" transform="translate(-0.837 -0.837)" fill="#e2e0e2"/>
          <path id="Trazado_211632" data-name="Trazado 211632" d="M37.772,52.35l1.377,2.79a.613.613,0,0,0,.463.337l3.079.447A.923.923,0,0,1,43.2,57.5l-2.228,2.172a.616.616,0,0,0-.177.545l.526,3.066a.923.923,0,0,1-1.339.973L37.23,62.807a.614.614,0,0,0-.573,0L33.9,64.255a.923.923,0,0,1-1.34-.973l.526-3.066a.617.617,0,0,0-.177-.545L30.685,57.5a.923.923,0,0,1,.512-1.575l3.079-.447a.615.615,0,0,0,.464-.337l1.377-2.79A.923.923,0,0,1,37.772,52.35Z" transform="translate(-14.461 -24.653)" fill="#ccc8cc"/>
          <path id="Trazado_211633" data-name="Trazado 211633" d="M72.209,52.35l1.377,2.79a.613.613,0,0,0,.463.337l3.079.447A.923.923,0,0,1,77.64,57.5l-2.228,2.172a.616.616,0,0,0-.177.545l.526,3.066a.923.923,0,0,1-1.339.973l-2.754-1.447a.614.614,0,0,0-.573,0l-2.754,1.447A.923.923,0,0,1,67,63.282l.526-3.066a.617.617,0,0,0-.177-.545L65.122,57.5a.923.923,0,0,1,.512-1.575l3.079-.447a.615.615,0,0,0,.464-.337l1.377-2.79A.923.923,0,0,1,72.209,52.35Z" transform="translate(-30.839 -24.653)" fill="#ccc8cc"/>
          <path id="Trazado_211634" data-name="Trazado 211634" d="M54.9,19.716l1.377,2.79a.613.613,0,0,0,.463.337l3.079.447a.923.923,0,0,1,.512,1.575L58.1,27.037a.616.616,0,0,0-.177.545l.526,3.066a.923.923,0,0,1-1.339.973l-2.754-1.447a.614.614,0,0,0-.573,0l-2.754,1.447a.923.923,0,0,1-1.34-.973l.526-3.066a.617.617,0,0,0-.177-.545L47.81,24.865a.923.923,0,0,1,.512-1.575l3.079-.447a.615.615,0,0,0,.464-.337l1.377-2.79A.923.923,0,0,1,54.9,19.716Z" transform="translate(-22.606 -9.132)" fill="#ccc8cc"/>
          <path id="Trazado_211635" data-name="Trazado 211635" d="M20.648,19.716l1.377,2.79a.613.613,0,0,0,.463.337l3.079.447a.923.923,0,0,1,.512,1.575l-2.228,2.172a.616.616,0,0,0-.177.545l.526,3.066a.923.923,0,0,1-1.339.973l-2.754-1.447a.614.614,0,0,0-.573,0L16.78,31.621a.923.923,0,0,1-1.34-.973l.526-3.066a.617.617,0,0,0-.177-.545l-2.228-2.172a.923.923,0,0,1,.512-1.575l3.079-.447a.615.615,0,0,0,.464-.337l1.377-2.79A.923.923,0,0,1,20.648,19.716Z" transform="translate(-6.317 -9.132)" fill="#ccc8cc"/>
          <path id="Trazado_211636" data-name="Trazado 211636" d="M89.334,19.716l1.377,2.79a.613.613,0,0,0,.463.337l3.079.447a.923.923,0,0,1,.512,1.575l-2.228,2.172a.616.616,0,0,0-.177.545l.526,3.066a.923.923,0,0,1-1.339.973l-2.754-1.447a.614.614,0,0,0-.573,0l-2.754,1.447a.923.923,0,0,1-1.34-.973l.526-3.066a.617.617,0,0,0-.177-.545l-2.228-2.172a.923.923,0,0,1,.512-1.575l3.079-.447a.615.615,0,0,0,.464-.337l1.377-2.79A.923.923,0,0,1,89.334,19.716Z" transform="translate(-38.984 -9.132)" fill="#ccc8cc"/>
          <path id="Trazado_211637" data-name="Trazado 211637" d="M57.722,2.061a9.822,9.822,0,0,1,3.16,7.228V27.908A15.505,15.505,0,0,1,45.376,43.414H9.55a9.92,9.92,0,0,1-1.764-.157,9.813,9.813,0,0,0,6.688,2.619h1.689a1.846,1.846,0,0,1,1.846,1.846v4.125a1.846,1.846,0,0,0,2.92,1.5l9.34-6.671a4.31,4.31,0,0,1,2.5-.8H55.957a9.848,9.848,0,0,0,9.848-9.848V11.751A9.851,9.851,0,0,0,57.722,2.061Z" transform="translate(-3.703 -0.98)" fill="#ccc8cc"/>
          <path id="Trazado_211638" data-name="Trazado 211638" d="M20.648,15.021l1.52,3.08,3.4.494a.923.923,0,0,1,.512,1.575l-2.459,2.4.581,3.385a.923.923,0,0,1-1.339.973l-3.04-1.6-3.04,1.6a.923.923,0,0,1-1.339-.973l.581-3.385-2.459-2.4a.923.923,0,0,1,.511-1.575l3.4-.494,1.52-3.08A.923.923,0,0,1,20.648,15.021Z" transform="translate(-6.317 -6.9)" fill="#fccc10"/>
          <path id="Trazado_211639" data-name="Trazado 211639" d="M87.678,15.021l-1.52,3.08-3.4.494a.923.923,0,0,0-.512,1.575l2.459,2.4-.581,3.385a.923.923,0,0,0,1.339.973l3.04-1.6,3.04,1.6a.923.923,0,0,0,1.339-.973L92.3,22.568l2.459-2.4a.923.923,0,0,0-.511-1.575l-3.4-.494-1.52-3.08A.923.923,0,0,0,87.678,15.021Z" transform="translate(-38.984 -6.9)" fill="#fccc10"/>
          <path id="Trazado_211640" data-name="Trazado 211640" d="M54.9,15.021l1.52,3.08,3.4.494a.923.923,0,0,1,.512,1.575l-2.459,2.4.581,3.385a.923.923,0,0,1-1.339.973l-3.04-1.6-3.04,1.6a.923.923,0,0,1-1.34-.973l.581-3.385-2.46-2.4a.923.923,0,0,1,.512-1.575l3.4-.494,1.52-3.08A.923.923,0,0,1,54.9,15.021Z" transform="translate(-22.606 -6.9)" fill="#fccc10"/>
          <path id="Trazado_211641" data-name="Trazado 211641" d="M70.554,47.656l-1.52,3.08-3.4.494a.923.923,0,0,0-.512,1.575l2.459,2.4L67,58.588a.923.923,0,0,0,1.339.973l3.04-1.6,3.04,1.6a.923.923,0,0,0,1.339-.973L75.181,55.2l2.459-2.4a.923.923,0,0,0-.511-1.575l-3.4-.494-1.52-3.08A.923.923,0,0,0,70.554,47.656Z" transform="translate(-30.84 -22.421)" fill="#fccc10"/>
          <path id="Trazado_211642" data-name="Trazado 211642" d="M37.772,47.656l1.52,3.08,3.4.494A.923.923,0,0,1,43.2,52.8l-2.459,2.4.581,3.385a.923.923,0,0,1-1.339.973l-3.04-1.6-3.04,1.6a.923.923,0,0,1-1.339-.973l.581-3.385-2.459-2.4A.923.923,0,0,1,31.2,51.23l3.4-.494,1.52-3.08A.923.923,0,0,1,37.772,47.656Z" transform="translate(-14.461 -22.421)" fill="#fccc10"/>
          <path id="Trazado_211643" data-name="Trazado 211643" d="M67.766,0H33.537a.923.923,0,0,0,0,1.846H67.766a8.935,8.935,0,0,1,8.925,8.925V35.048a8.935,8.935,0,0,1-8.925,8.924H64.149a.923.923,0,1,0,0,1.846h3.617A10.784,10.784,0,0,0,78.538,35.048V10.771A10.784,10.784,0,0,0,67.766,0" transform="translate(-15.512)"/>
          <path id="Trazado_211644" data-name="Trazado 211644" d="M44.328,43.972H29.07a5.2,5.2,0,0,0-3.04.974l-9.34,6.671a.924.924,0,0,1-1.46-.751V46.742a2.772,2.772,0,0,0-2.769-2.769H10.771a8.935,8.935,0,0,1-8.924-8.925V10.771a8.934,8.934,0,0,1,8.924-8.925h2.947a.923.923,0,0,0,0-1.846H10.771A10.783,10.783,0,0,0,0,10.771V35.048A10.783,10.783,0,0,0,10.771,45.819H12.46a.924.924,0,0,1,.923.923v4.124a2.77,2.77,0,0,0,4.38,2.254L27.1,46.45a3.365,3.365,0,0,1,1.968-.631H44.328a.923.923,0,1,0,0-1.846Z" transform="translate(0)"/>
          <path id="Trazado_211645" data-name="Trazado 211645" d="M17.327,13.776l-1.305,2.645-2.919.424a1.847,1.847,0,0,0-1.024,3.15l2.112,2.059-.5,2.907a1.847,1.847,0,0,0,2.679,1.947l2.61-1.372,2.61,1.372a1.847,1.847,0,0,0,2.679-1.947l-.5-2.907,2.112-2.059a1.847,1.847,0,0,0-1.023-3.15l-2.919-.424-1.305-2.645a1.847,1.847,0,0,0-3.312,0Zm3.176,3.9a.923.923,0,0,0,.7.5l3.4.494-2.459,2.4a.923.923,0,0,0-.265.817l.581,3.386-3.04-1.6a.926.926,0,0,0-.859,0l-3.04,1.6.581-3.386a.923.923,0,0,0-.265-.817l-2.459-2.4,3.4-.494a.922.922,0,0,0,.7-.5l1.517-3.086,0,.006Z" transform="translate(-5.479 -6.062)"/>
          <path id="Trazado_211646" data-name="Trazado 211646" d="M95.039,18.1a1.835,1.835,0,0,0-1.491-1.257l-2.918-.424-1.305-2.645a1.847,1.847,0,0,0-3.312,0l-1.306,2.645-2.918.424a1.847,1.847,0,0,0-1.024,3.15l2.112,2.059-.5,2.907a1.847,1.847,0,0,0,2.679,1.947l2.61-1.372,2.61,1.372a1.846,1.846,0,0,0,2.679-1.947l-.5-2.907,2.112-2.059A1.835,1.835,0,0,0,95.039,18.1ZM90.823,21.07a.922.922,0,0,0-.265.817l.581,3.386-3.04-1.6a.923.923,0,0,0-.859,0l-3.04,1.6.581-3.386a.922.922,0,0,0-.265-.817l-2.459-2.4,3.4-.494a.923.923,0,0,0,.7-.5l1.52-3.08,1.52,3.08a.923.923,0,0,0,.7.5l3.4.494Z" transform="translate(-38.146 -6.062)"/>
          <path id="Trazado_211647" data-name="Trazado 211647" d="M60.6,18.1a1.835,1.835,0,0,0-1.49-1.257l-2.919-.424-1.305-2.645a1.847,1.847,0,0,0-3.312,0l-1.305,2.645-2.919.424a1.847,1.847,0,0,0-1.024,3.15l2.112,2.059-.5,2.907a1.847,1.847,0,0,0,2.679,1.947l2.61-1.372,2.61,1.372a1.846,1.846,0,0,0,2.679-1.947l-.5-2.907,2.112-2.059A1.835,1.835,0,0,0,60.6,18.1M56.386,21.07a.922.922,0,0,0-.265.817l.581,3.386-3.04-1.6a.923.923,0,0,0-.859,0l-3.04,1.6.581-3.386a.922.922,0,0,0-.265-.817l-2.459-2.4,3.4-.494a.922.922,0,0,0,.7-.5l1.517-3.086,0,.006,1.52,3.08a.923.923,0,0,0,.7.5l3.4.494Z" transform="translate(-21.768 -6.062)"/>
          <path id="Trazado_211648" data-name="Trazado 211648" d="M77.914,50.736a1.834,1.834,0,0,0-1.49-1.256L73.5,49.055,72.2,46.41a1.846,1.846,0,0,0-3.312,0l-1.305,2.645-2.919.424a1.846,1.846,0,0,0-1.023,3.149l2.112,2.059-.5,2.907a1.847,1.847,0,0,0,2.679,1.947l2.61-1.373,2.61,1.373a1.847,1.847,0,0,0,2.68-1.947l-.5-2.907,2.112-2.058A1.836,1.836,0,0,0,77.914,50.736ZM73.7,53.7a.922.922,0,0,0-.265.817l.581,3.386-3.04-1.6a.923.923,0,0,0-.859,0l-3.04,1.6.581-3.386a.923.923,0,0,0-.265-.817l-2.459-2.4,3.4-.494a.923.923,0,0,0,.7-.5l1.52-3.08,1.52,3.08a.923.923,0,0,0,.7.5l3.4.494Z" transform="translate(-30.002 -21.583)"/>
          <path id="Trazado_211649" data-name="Trazado 211649" d="M36.107,45.38a1.835,1.835,0,0,0-1.656,1.029l-1.305,2.645-2.919.424a1.847,1.847,0,0,0-1.024,3.15l2.112,2.059-.5,2.907A1.847,1.847,0,0,0,33.5,59.54l2.61-1.372,2.611,1.372A1.846,1.846,0,0,0,41.4,57.593l-.5-2.907,2.112-2.059a1.847,1.847,0,0,0-1.023-3.15l-2.919-.424-1.305-2.645A1.835,1.835,0,0,0,36.107,45.38Zm2.216,5.432,3.4.494-2.459,2.4A.922.922,0,0,0,39,54.52l.581,3.386-3.04-1.6a.922.922,0,0,0-.859,0l-3.04,1.6.581-3.386a.922.922,0,0,0-.265-.817l-2.459-2.4,3.4-.494a.922.922,0,0,0,.695-.5L36.1,47.221l0,.006,1.52,3.08A.921.921,0,0,0,38.322,50.812Z" transform="translate(-13.623 -21.583)"/>
        </g>
      </g>
      <g id="Grupo_147574" data-name="Grupo 147574" transform="translate(956.464 1517.215)">
        <g id="Grupo_147573" data-name="Grupo 147573" transform="translate(0 0)" clip-path="url(#clip-path-6)">
          <path id="Trazado_211650" data-name="Trazado 211650" d="M28.157,13.58,12.419,11.868A1.653,1.653,0,0,1,11.043,9.3l1.1-1.648a1.652,1.652,0,0,0,0-1.834L10.758,3.74A1.377,1.377,0,0,1,11.9,1.6h3.7a13.773,13.773,0,0,1,9.74,4.035l1.1,1.1Z" transform="translate(-5.081 -0.772)" fill="#ca2e43"/>
          <path id="Trazado_211651" data-name="Trazado 211651" d="M26.669,7.247l-1.1-1.1a13.77,13.77,0,0,0-5.883-3.483A13.694,13.694,0,0,1,21.16,3.943l.037.037a3.631,3.631,0,0,1-2.567,6.2H11.081a1.655,1.655,0,0,0,1.561,2.2L28.38,14.094Z" transform="translate(-5.303 -1.286)" fill="#ac2638"/>
          <path id="Trazado_211652" data-name="Trazado 211652" d="M51.231,13.58,66.97,11.868A1.653,1.653,0,0,0,68.345,9.3l-1.1-1.648a1.652,1.652,0,0,1,0-1.834L68.63,3.74A1.377,1.377,0,0,0,67.484,1.6h-3.7a13.774,13.774,0,0,0-9.74,4.035l-1.1,1.1Z" transform="translate(-24.732 -0.772)" fill="#ca2e43"/>
          <path id="Trazado_211653" data-name="Trazado 211653" d="M68.63,3.74A1.377,1.377,0,0,0,67.484,1.6h-3.3L62.838,3.613a1.654,1.654,0,0,0,0,1.834l1.1,1.648a1.653,1.653,0,0,1-1.375,2.57H52.21l-.979,3.916L66.97,11.868A1.653,1.653,0,0,0,68.345,9.3l-1.1-1.648a1.652,1.652,0,0,1,0-1.834Z" transform="translate(-24.732 -0.772)" fill="#ac2638"/>
          <path id="Trazado_211654" data-name="Trazado 211654" d="M48.151,15.115l-3.423,1.712-3.423-1.712V9.98A1.653,1.653,0,0,1,43.7,8.5l.292.146a1.655,1.655,0,0,0,1.478,0l.292-.146A1.653,1.653,0,0,1,48.151,9.98Z" transform="translate(-19.94 -4.019)" fill="#e53950"/>
          <path id="Trazado_211655" data-name="Trazado 211655" d="M41.3,17.191v2.2l3.423,1.712,3.423-1.712v-2.2Z" transform="translate(-19.94 -8.299)" fill="#ca2e43"/>
          <path id="Trazado_211656" data-name="Trazado 211656" d="M46.652,77.133H30.58l-3.423-1.712-3.423,1.712H7.662a2.755,2.755,0,0,1-2.755-2.755V46.326l22.25-1.712,22.25,1.712V74.378a2.755,2.755,0,0,1-2.755,2.755" transform="translate(-2.369 -21.537)" fill="#7fcf00"/>
          <path id="Trazado_211657" data-name="Trazado 211657" d="M45.05,47.268v20.8a8.141,8.141,0,0,1-8.141,8.141H5.013a2.756,2.756,0,0,0,2.7,2.2H23.785L27.208,76.7l3.423,1.712H46.7a2.755,2.755,0,0,0,2.755-2.755V47.607Z" transform="translate(-2.42 -22.818)" fill="#54a813"/>
          <path id="Trazado_211658" data-name="Trazado 211658" d="M48.151,77.133H41.305V46.326l3.423-1.712,3.423,1.712Z" transform="translate(-19.94 -21.537)" fill="#e53950"/>
          <rect id="Rectángulo_44253" data-name="Rectángulo 44253" width="6.846" height="2.204" transform="translate(21.365 53.392)" fill="#ca2e43"/>
          <path id="Trazado_211659" data-name="Trazado 211659" d="M46.766,21.452H30.694l-5.135,1.712-5.134-1.712H4.353A2.755,2.755,0,0,0,1.6,24.207v9.284a1.653,1.653,0,0,0,1.653,1.653H20.425l5.134-1.712,5.135,1.712H47.868a1.653,1.653,0,0,0,1.653-1.653V24.207a2.755,2.755,0,0,0-2.755-2.755" transform="translate(-0.771 -10.356)" fill="#fccc10"/>
          <path id="Trazado_211660" data-name="Trazado 211660" d="M46.766,21.452H45.058a2.764,2.764,0,0,1,.055.551v2.851a8.086,8.086,0,0,1-8.086,8.086H1.6v.551a1.653,1.653,0,0,0,1.653,1.653H20.425l5.134-1.712,5.135,1.712H47.868a1.653,1.653,0,0,0,1.653-1.653V24.207a2.755,2.755,0,0,0-2.755-2.755" transform="translate(-0.771 -10.356)" fill="#feb237"/>
          <rect id="Rectángulo_44254" data-name="Rectángulo 44254" width="10.27" height="13.692" transform="translate(19.654 11.096)" fill="#e53950"/>
          <rect id="Rectángulo_44255" data-name="Rectángulo 44255" width="10.27" height="2.204" transform="translate(19.654 22.584)" fill="#ca2e43"/>
          <path id="Trazado_211661" data-name="Trazado 211661" d="M26.086,13.905a.827.827,0,0,0,1.169-1.169l-.583-.583A7.554,7.554,0,0,0,21.3,9.927h-.617a.827.827,0,0,0,0,1.653H21.3A5.91,5.91,0,0,1,25.5,13.322Z" transform="translate(-9.584 -4.792)"/>
          <path id="Trazado_211662" data-name="Trazado 211662" d="M62.626,13.905l.582-.583a5.911,5.911,0,0,1,4.206-1.743h.617a.826.826,0,1,0,0-1.653h-.617a7.553,7.553,0,0,0-5.375,2.226l-.583.583a.827.827,0,0,0,1.17,1.169Z" transform="translate(-29.551 -4.792)"/>
          <path id="Trazado_211663" data-name="Trazado 211663" d="M45.995,10.27H44.576a2.475,2.475,0,0,0-.275-2.2L43.2,6.42a.825.825,0,0,1,0-.917l1.384-2.076A2.2,2.2,0,0,0,42.753,0h-3.7A14.505,14.505,0,0,0,28.727,4.277l-.189.189a2.491,2.491,0,0,0-.677-.613,2.463,2.463,0,0,0-2.412-.109l-.292.146a.829.829,0,0,1-.739,0l-.292-.146a2.464,2.464,0,0,0-2.412.109,2.491,2.491,0,0,0-.677.613l-.188-.189A14.506,14.506,0,0,0,10.525,0h-3.7A2.2,2.2,0,0,0,4.989,3.426L6.374,5.5a.825.825,0,0,1,0,.917l-1.1,1.648A2.474,2.474,0,0,0,5,10.269H3.581A3.585,3.585,0,0,0,0,13.851v9.285a2.484,2.484,0,0,0,1.711,2.358V31a.827.827,0,0,0,1.653,0V25.614H20.538V54.77H5.293a1.931,1.931,0,0,1-1.929-1.928V34.858a.826.826,0,0,0-1.653,0V52.841a3.585,3.585,0,0,0,3.581,3.581h38.99a3.585,3.585,0,0,0,3.581-3.581V25.493a2.484,2.484,0,0,0,1.711-2.358V13.851a3.585,3.585,0,0,0-3.581-3.581M39.052,1.653h3.7a.551.551,0,0,1,.458.857L41.827,4.586a2.475,2.475,0,0,0,0,2.751l1.1,1.648a.826.826,0,0,1-.687,1.285h-13.2V6.3l.858-.858a12.865,12.865,0,0,1,9.156-3.793M22.583,5.258a.814.814,0,0,1,.8-.036l.291.145a2.489,2.489,0,0,0,2.218,0l.292-.145a.826.826,0,0,1,1.2.738v4.31h-1.77v-2.6a.827.827,0,1,0-1.653,0v2.6h-1.77V5.96a.813.813,0,0,1,.392-.7M1.653,13.851a1.931,1.931,0,0,1,1.929-1.929H11.44a.826.826,0,1,0,0-1.653h-4.1A.827.827,0,0,1,6.65,8.985l1.1-1.648a2.473,2.473,0,0,0,0-2.751L6.365,2.51a.551.551,0,0,1,.458-.857h3.7a12.864,12.864,0,0,1,9.156,3.793l.858.858v3.965H15.3a.827.827,0,0,0,0,1.653h3.53v12.04H2.479a.828.828,0,0,1-.827-.827ZM22.191,25.615h5.193V54.77H22.191ZM44.283,54.77H29.038V25.615H46.212V52.841a1.931,1.931,0,0,1-1.928,1.928m3.64-31.634a.828.828,0,0,1-.827.827H30.749V21.267a.827.827,0,1,0-1.653,0v2.694H20.48V11.922H29.1V17.41a.827.827,0,1,0,1.653,0V11.922H45.995a1.931,1.931,0,0,1,1.928,1.929Z" transform="translate(0 0)"/>
        </g>
      </g>
    </g>
  </g>
</svg>
