<svg id="Grupo_149159" data-name="Grupo 149159" xmlns="http://www.w3.org/2000/svg" xmlns:xlink="http://www.w3.org/1999/xlink" width="221.12" height="215.752" viewBox="0 0 221.12 215.752">
  <defs>
    <clipPath id="clip-path">
      <rect id="Rectángulo_45000" data-name="Rectángulo 45000" width="221.12" height="215.752" fill="none"/>
    </clipPath>
    <clipPath id="clip-path-3">
      <rect id="Rectángulo_44979" data-name="Rectángulo 44979" width="16.187" height="6.567" fill="none"/>
    </clipPath>
    <clipPath id="clip-path-4">
      <rect id="Rectángulo_44980" data-name="Rectángulo 44980" width="8.977" height="31.961" fill="none"/>
    </clipPath>
    <clipPath id="clip-path-5">
      <rect id="Rectángulo_44981" data-name="Rectángulo 44981" width="9.934" height="41.304" fill="none"/>
    </clipPath>
    <clipPath id="clip-path-6">
      <rect id="Rectángulo_44982" data-name="Rectángulo 44982" width="48.904" height="17.356" fill="none"/>
    </clipPath>
    <clipPath id="clip-path-7">
      <rect id="Rectángulo_44983" data-name="Rectángulo 44983" width="12.17" height="10.109" fill="none"/>
    </clipPath>
    <clipPath id="clip-path-8">
      <rect id="Rectángulo_44984" data-name="Rectángulo 44984" width="6.745" height="24.543" fill="none"/>
    </clipPath>
    <clipPath id="clip-path-9">
      <rect id="Rectángulo_44985" data-name="Rectángulo 44985" width="5.694" height="4.58" fill="none"/>
    </clipPath>
    <clipPath id="clip-path-10">
      <rect id="Rectángulo_44986" data-name="Rectángulo 44986" width="3.503" height="5.989" fill="none"/>
    </clipPath>
    <clipPath id="clip-path-11">
      <rect id="Rectángulo_44987" data-name="Rectángulo 44987" width="3.782" height="5.367" fill="none"/>
    </clipPath>
    <clipPath id="clip-path-12">
      <rect id="Rectángulo_44988" data-name="Rectángulo 44988" width="6.407" height="5.473" fill="none"/>
    </clipPath>
    <clipPath id="clip-path-13">
      <rect id="Rectángulo_44989" data-name="Rectángulo 44989" width="5.562" height="1.985" fill="none"/>
    </clipPath>
    <clipPath id="clip-path-14">
      <rect id="Rectángulo_44990" data-name="Rectángulo 44990" width="5.001" height="4.158" fill="none"/>
    </clipPath>
    <clipPath id="clip-path-15">
      <rect id="Rectángulo_44991" data-name="Rectángulo 44991" width="7.149" height="1.892" fill="none"/>
    </clipPath>
    <clipPath id="clip-path-16">
      <rect id="Rectángulo_44992" data-name="Rectángulo 44992" width="2.729" height="8.761" fill="none"/>
    </clipPath>
    <clipPath id="clip-path-17">
      <rect id="Rectángulo_44993" data-name="Rectángulo 44993" width="0.56" height="7.642" fill="none"/>
    </clipPath>
    <clipPath id="clip-path-18">
      <rect id="Rectángulo_44994" data-name="Rectángulo 44994" width="4.359" height="6.286" fill="none"/>
    </clipPath>
    <clipPath id="clip-path-19">
      <rect id="Rectángulo_44995" data-name="Rectángulo 44995" width="1.016" height="5.367" fill="none"/>
    </clipPath>
    <clipPath id="clip-path-20">
      <rect id="Rectángulo_44996" data-name="Rectángulo 44996" width="3.988" height="6.963" fill="none"/>
    </clipPath>
    <clipPath id="clip-path-21">
      <rect id="Rectángulo_44997" data-name="Rectángulo 44997" width="6.296" height="8.219" fill="none"/>
    </clipPath>
    <clipPath id="clip-path-22">
      <rect id="Rectángulo_44998" data-name="Rectángulo 44998" width="7.805" height="1.251" fill="none"/>
    </clipPath>
  </defs>
  <g id="Grupo_149158" data-name="Grupo 149158" clip-path="url(#clip-path)">
    <g id="Grupo_149157" data-name="Grupo 149157">
      <g id="Grupo_149156" data-name="Grupo 149156" clip-path="url(#clip-path)">
        <path id="Trazado_214017" data-name="Trazado 214017" d="M10.064,58.775,2.431,95.621c3.395,3.446,7,6.7,12.808,7.932L43.2,108.467l6.565-43.311Z" transform="translate(-0.838 -20.25)" fill="#fafafa"/>
        <path id="Trazado_214018" data-name="Trazado 214018" d="M7.633,55.307,0,92.153l12.808,7.932L40.769,105l8.254-41.577Z" transform="translate(0 -19.055)" fill="#f5f5f5"/>
        <path id="Trazado_214019" data-name="Trazado 214019" d="M5.212,108.521,0,110.487a16.2,16.2,0,0,0,4.624,4.73,23.382,23.382,0,0,0,8.183,3.2,15.547,15.547,0,0,1-7.6-9.9" transform="translate(0 -37.39)" fill="#e1e1e1"/>
        <path id="Trazado_214020" data-name="Trazado 214020" d="M4.356,62.144l19.109-5.927-1.22-4.024L2.822,57.84Z" transform="translate(-0.972 -17.982)" fill="#cce5b8"/>
        <path id="Trazado_214021" data-name="Trazado 214021" d="M71.583,74.6,59.2,58.884l-3.319,2.582L68.115,77.572Z" transform="translate(-19.252 -20.288)" fill="#cce5b8"/>
        <path id="Trazado_214022" data-name="Trazado 214022" d="M47.281,83.126c-.014.074-7.072-1.244-15.761-2.944S15.8,77.045,15.81,76.971s7.07,1.244,15.762,2.944S47.3,83.053,47.281,83.126" transform="translate(-5.447 -26.519)" fill="#e1e1e1"/>
        <path id="Trazado_214023" data-name="Trazado 214023" d="M45.375,91.743C45.36,91.818,38.3,90.5,29.614,88.8S13.89,85.662,13.9,85.588s7.07,1.245,15.763,2.944,15.723,3.137,15.708,3.21" transform="translate(-4.79 -29.487)" fill="#e1e1e1"/>
        <path id="Trazado_214024" data-name="Trazado 214024" d="M44.143,99.472c-.014.074-7.072-1.244-15.761-2.944s-15.725-3.138-15.71-3.211,7.07,1.244,15.762,2.944S44.157,99.4,44.143,99.472" transform="translate(-4.366 -32.15)" fill="#e1e1e1"/>
        <path id="Trazado_214025" data-name="Trazado 214025" d="M42.646,106.853c-.014.074-7.072-1.244-15.761-2.944s-15.725-3.138-15.71-3.211,7.07,1.244,15.762,2.944,15.723,3.138,15.709,3.211" transform="translate(-3.85 -34.693)" fill="#e1e1e1"/>
        <path id="Trazado_214026" data-name="Trazado 214026" d="M266.926,26.776l-9.88,24.09c-3.281.663-6.607,1.138-10.417-.406l-17.941-8,12.994-27.385Z" transform="translate(-78.792 -5.193)" fill="#fafafa"/>
        <path id="Trazado_214027" data-name="Trazado 214027" d="M269.663,25.908,259.783,50l-10.417-.406-17.941-8,11.354-27.043Z" transform="translate(-79.735 -5.012)" fill="#f5f5f5"/>
        <path id="Trazado_214028" data-name="Trazado 214028" d="M266.984,63.834l2.229,3.145a11.209,11.209,0,0,1-4.483.924,16.186,16.186,0,0,1-5.933-1.33,10.759,10.759,0,0,0,8.188-2.739" transform="translate(-89.165 -21.993)" fill="#e1e1e1"/>
        <path id="Trazado_214029" data-name="Trazado 214029" d="M284.254,34.672l-8.668-10.795,2.257-1.836L286.8,32.8Z" transform="translate(-94.95 -7.594)" fill="#cce5b8"/>
        <path id="Trazado_214030" data-name="Trazado 214030" d="M239.984,19.076l13.185-4.219.9,2.765-13.252,4.5Z" transform="translate(-82.683 -5.119)" fill="#cce5b8"/>
        <path id="Trazado_214031" data-name="Trazado 214031" d="M247.813,29.5c.029-.069,4.628,1.81,10.27,4.2s10.194,4.38,10.164,4.449-4.627-1.81-10.27-4.2-10.193-4.379-10.164-4.449" transform="translate(-85.381 -10.164)" fill="#e1e1e1"/>
        <path id="Trazado_214032" data-name="Trazado 214032" d="M245.571,35.183c.03-.069,4.628,1.81,10.27,4.2s10.194,4.38,10.164,4.449-4.627-1.81-10.27-4.2-10.193-4.379-10.164-4.449" transform="translate(-84.608 -12.121)" fill="#e1e1e1"/>
        <path id="Trazado_214033" data-name="Trazado 214033" d="M243.288,40.093c.03-.069,4.628,1.81,10.27,4.2s10.194,4.38,10.164,4.449-4.626-1.81-10.27-4.2-10.193-4.38-10.164-4.449" transform="translate(-83.822 -13.813)" fill="#e1e1e1"/>
        <path id="Trazado_214034" data-name="Trazado 214034" d="M241.29,44.906c.03-.069,4.628,1.81,10.27,4.2s10.194,4.38,10.164,4.449-4.627-1.81-10.27-4.2-10.193-4.379-10.164-4.449" transform="translate(-83.133 -15.471)" fill="#e1e1e1"/>
        <path id="Trazado_214035" data-name="Trazado 214035" d="M266.226,160.1c-8-6.523-9.108-17.612-8.044-27.427.178-1.638.125-3.383,1.013-4.767s2.784-2.232,4.2-1.432c1.177.665,1.6,2.123,2.2,3.347a9.635,9.635,0,0,0,3.579,3.965,3.671,3.671,0,0,0,3.35.555c1.475-.676,1.787-2.621,1.9-4.256q.31-4.57.621-9.138a15.274,15.274,0,0,1,.852-4.815,5.082,5.082,0,0,1,3.439-3.19,3.081,3.081,0,0,1,3.651,2.342,14.987,14.987,0,0,1-.1,2.037,1.725,1.725,0,0,0,.886,1.692,1.981,1.981,0,0,0,1.85-.617,21.777,21.777,0,0,0,4.336-5.6,30.234,30.234,0,0,1,4.088-5.806,8.86,8.86,0,0,1,6.234-2.914,5.3,5.3,0,0,1,5.156,4.011c.422,2.347-1.095,4.584-2.695,6.34a36.582,36.582,0,0,1-8.129,6.675,3.006,3.006,0,0,0-1.371,1.271c-.436,1.063.516,2.221,1.565,2.659a18.981,18.981,0,0,0,3.781.712,3.683,3.683,0,0,1,2.993,2.148c.545,1.719-.981,3.366-2.44,4.41a31.34,31.34,0,0,1-9.641,4.652,10.556,10.556,0,0,0-3.559,1.414,3.032,3.032,0,0,0-1.225,3.391,3.087,3.087,0,0,0,3.252,1.535,21.849,21.849,0,0,0,3.686-1.1c2.308-.681,5.2-.311,6.49,1.736a5.187,5.187,0,0,1,.211,4.612,11.946,11.946,0,0,1-2.776,3.853,31.489,31.489,0,0,1-14.111,8.431c-5.341,1.42-10.2,1.551-15.238-.726" transform="translate(-88.836 -35.858)" fill="#f5f5f5"/>
        <path id="Trazado_214036" data-name="Trazado 214036" d="M269.611,168.221a71.958,71.958,0,0,1,3.667-13.266,146.672,146.672,0,0,1,6.979-15.329l2.036-3.924c.671-1.287,1.336-2.562,2.065-3.77a73.2,73.2,0,0,1,4.58-6.7c1.561-2.061,3.116-3.959,4.584-5.723s2.874-3.378,4.216-4.8a58.211,58.211,0,0,1,6.821-6.218c.86-.669,1.544-1.165,2.012-1.5l.535-.373a1.3,1.3,0,0,1,.187-.118,1.089,1.089,0,0,1-.17.144l-.517.4c-.456.347-1.128.858-1.976,1.54a61.6,61.6,0,0,0-6.739,6.272c-1.328,1.424-2.718,3.045-4.179,4.811s-3,3.671-4.554,5.731a73.9,73.9,0,0,0-4.548,6.683c-.722,1.2-1.38,2.467-2.052,3.757s-1.347,2.6-2.034,3.922a150.367,150.367,0,0,0-6.987,15.289,73.173,73.173,0,0,0-3.716,13.2" transform="translate(-92.891 -36.696)" fill="#e1e1e1"/>
        <path id="Trazado_214037" data-name="Trazado 214037" d="M291.683,135.748a3.338,3.338,0,0,1-.108-.709c-.052-.458-.106-1.122-.161-1.945-.11-1.644-.185-3.919-.258-6.427s-.18-4.777-.315-6.414c-.066-.819-.125-1.481-.172-1.938a3.3,3.3,0,0,1-.039-.716,3.228,3.228,0,0,1,.155.7c.083.454.175,1.114.267,1.933.19,1.638.332,3.914.4,6.426.066,2.476.125,4.715.17,6.426.026.773.047,1.424.065,1.947a3.271,3.271,0,0,1-.009.717" transform="translate(-100.13 -40.517)" fill="#e1e1e1"/>
        <path id="Trazado_214038" data-name="Trazado 214038" d="M313.536,141.609a4.532,4.532,0,0,1-.846.038c-.542.008-1.327.016-2.3.056-1.939.065-4.614.248-7.557.581s-5.594.755-7.5,1.113c-.956.172-1.725.333-2.258.44a4.534,4.534,0,0,1-.834.14,4.422,4.422,0,0,1,.808-.256c.526-.143,1.291-.336,2.244-.536,1.9-.413,4.558-.867,7.51-1.2a74.33,74.33,0,0,1,7.586-.493c.973-.012,1.761.012,2.3.042a4.418,4.418,0,0,1,.842.08" transform="translate(-100.688 -48.747)" fill="#e1e1e1"/>
        <path id="Trazado_214039" data-name="Trazado 214039" d="M271.13,165.348a1.083,1.083,0,0,1-.125-.267l-.3-.787c-.26-.684-.61-1.684-1.026-2.925-.835-2.481-1.88-5.945-2.982-9.782s-2.115-7.308-2.9-9.8l-.935-2.953c-.1-.322-.182-.587-.25-.8a1.079,1.079,0,0,1-.068-.288,1.1,1.1,0,0,1,.125.267l.3.786c.26.684.61,1.684,1.027,2.925.835,2.481,1.88,5.944,2.982,9.784s2.114,7.306,2.9,9.8c.385,1.213.7,2.211.935,2.952l.25.8a1.1,1.1,0,0,1,.068.288" transform="translate(-90.455 -47.456)" fill="#e1e1e1"/>
        <path id="Trazado_214040" data-name="Trazado 214040" d="M304.22,169.292a1.136,1.136,0,0,1-.285.094l-.831.212-3.06.747c-2.585.632-6.143,1.544-10.074,2.558s-7.5,1.9-10.1,2.474c-1.3.289-2.352.513-3.083.652l-.843.156a1.1,1.1,0,0,1-.3.033,1.185,1.185,0,0,1,.286-.094l.83-.211,3.06-.747c2.584-.631,6.144-1.544,10.076-2.558s7.5-1.9,10.1-2.473c1.3-.29,2.352-.513,3.083-.653l.843-.156a1.094,1.094,0,0,1,.3-.033" transform="translate(-94.969 -58.326)" fill="#e1e1e1"/>
        <path id="Trazado_214041" data-name="Trazado 214041" d="M221.257,328.728c0,.075-49.445.136-110.425.136-61,0-110.436-.061-110.436-.136s49.435-.136,110.436-.136c60.98,0,110.425.061,110.425.136" transform="translate(-0.136 -113.212)" fill="#1a2e35"/>
        <path id="Trazado_214042" data-name="Trazado 214042" d="M102.168,16.939l12.606,38.439c5.01,1.4,10.11,2.5,16.187.539l28.7-10.386L142.6,1.637Z" transform="translate(-35.201 -0.564)" fill="#e1e1e1"/>
        <path id="Trazado_214043" data-name="Trazado 214043" d="M98.045,15.383l12.607,38.439,16.187.539,28.7-10.386L140.979.794Z" transform="translate(-33.78 -0.274)" fill="#54a813"/>
        <path id="Trazado_214044" data-name="Trazado 214044" d="M121.084,74.642l-3.806,4.623a17.4,17.4,0,0,0,6.844,1.934,25.125,25.125,0,0,0,9.343-1.395,16.713,16.713,0,0,1-12.38-5.162" transform="translate(-40.407 -25.717)" fill="#54a813"/>
        <g id="Grupo_149098" data-name="Grupo 149098" transform="translate(76.871 48.925)" opacity="0.3">
          <g id="Grupo_149097" data-name="Grupo 149097">
            <g id="Grupo_149096" data-name="Grupo 149096" clip-path="url(#clip-path-3)">
              <path id="Trazado_214045" data-name="Trazado 214045" d="M121.084,74.642c-1.157,2.339-2.324,5.079-3.806,4.623a17.4,17.4,0,0,0,6.844,1.934,25.125,25.125,0,0,0,9.343-1.395,16.713,16.713,0,0,1-12.38-5.162" transform="translate(-117.278 -74.642)"/>
            </g>
          </g>
        </g>
        <path id="Trazado_214046" data-name="Trazado 214046" d="M96.5,27.863l14.643-15.755-3.291-3.1L92.764,24.671Z" transform="translate(-31.961 -3.104)" fill="#e1e1e1"/>
        <path id="Trazado_214047" data-name="Trazado 214047" d="M164.979,8.018,145.02,0l-1.711,4.183,20.03,8.466Z" transform="translate(-49.375 0)" fill="#e1e1e1"/>
        <path id="Trazado_214048" data-name="Trazado 214048" d="M146.161,24.075c.024.071-7.263,2.615-16.273,5.682s-16.339,5.5-16.363,5.425,7.261-2.615,16.275-5.683,16.337-5.5,16.361-5.425" transform="translate(-39.114 -8.294)" fill="#1a2e35"/>
        <path id="Trazado_214049" data-name="Trazado 214049" d="M149,33.13c.024.071-7.263,2.615-16.273,5.682s-16.339,5.5-16.363,5.425,7.261-2.615,16.275-5.683,16.337-5.5,16.361-5.425" transform="translate(-40.091 -11.414)" fill="#1a2e35"/>
        <path id="Trazado_214050" data-name="Trazado 214050" d="M151.985,41c.024.071-7.262,2.615-16.273,5.682s-16.339,5.5-16.363,5.425,7.261-2.615,16.275-5.683,16.337-5.5,16.361-5.425" transform="translate(-41.12 -14.124)" fill="#1a2e35"/>
        <path id="Trazado_214051" data-name="Trazado 214051" d="M154.541,48.677c.024.072-7.263,2.616-16.273,5.683s-16.339,5.5-16.363,5.425,7.261-2.615,16.275-5.684,16.337-5.5,16.361-5.425" transform="translate(-42.001 -16.771)" fill="#1a2e35"/>
        <path id="Trazado_214052" data-name="Trazado 214052" d="M190.935,207.313l-2.528,23.54s-4.927-7.449-8.261-4.129c-3.177,3.163-8.787,26.26-8.787,26.26s-.078,7.531,3.929,9.521c12.829,6.368,27.118-5.64,27.118-5.64l-2.025-67.315a27,27,0,0,0-9.445,17.762" transform="translate(-59.039 -65.307)" fill="#54a813"/>
        <path id="Trazado_214053" data-name="Trazado 214053" d="M250.729,161.145l-22.217-1.774c-.138-2.594.047-12.629.047-12.629s-9.244-1.437-9.358-10.679,1.488-30.465,1.488-30.465a32.12,32.12,0,0,1,32.276,4.057l1.37,1.054Z" transform="translate(-75.521 -35.483)" fill="#b78876"/>
        <path id="Trazado_214054" data-name="Trazado 214054" d="M233.446,167.737a21.489,21.489,0,0,0,12.048-3.424s-2.848,6.651-12.07,5.819Z" transform="translate(-80.423 -56.612)" fill="#aa6550"/>
        <path id="Trazado_214055" data-name="Trazado 214055" d="M270.878,129.219c.157-.068,6.349-1.879,6.148,4.44s-6.5,4.813-6.509,4.632.361-9.072.361-9.072" transform="translate(-93.203 -44.42)" fill="#b78876"/>
        <path id="Trazado_214056" data-name="Trazado 214056" d="M273.576,137.046c.028-.019.107.081.291.172a1.1,1.1,0,0,0,.822.043,2.724,2.724,0,0,0,1.338-2.4,3.639,3.639,0,0,0-.258-1.586,1.271,1.271,0,0,0-.8-.871.561.561,0,0,0-.659.281c-.09.174-.054.3-.088.311-.018.015-.132-.11-.073-.37a.705.705,0,0,1,.262-.388.831.831,0,0,1,.614-.142,1.55,1.55,0,0,1,1.118,1.017,3.741,3.741,0,0,1,.325,1.774,2.859,2.859,0,0,1-1.692,2.677,1.18,1.18,0,0,1-1-.2c-.191-.162-.22-.3-.2-.315" transform="translate(-94.255 -45.508)" fill="#aa6550"/>
        <path id="Trazado_214057" data-name="Trazado 214057" d="M224.582,128.194a1.32,1.32,0,0,0,1.273,1.332,1.263,1.263,0,0,0,1.36-1.19A1.32,1.32,0,0,0,225.944,127a1.264,1.264,0,0,0-1.362,1.191" transform="translate(-77.377 -43.757)" fill="#1a2e35"/>
        <path id="Trazado_214058" data-name="Trazado 214058" d="M224.132,126.075c.164.172,1.163-.568,2.583-.564,1.419-.016,2.461.714,2.615.54.075-.077-.09-.387-.545-.718a3.625,3.625,0,0,0-2.094-.646,3.484,3.484,0,0,0-2.057.664c-.437.335-.584.646-.5.724" transform="translate(-77.215 -42.959)" fill="#1a2e35"/>
        <path id="Trazado_214059" data-name="Trazado 214059" d="M245.8,128.95a1.32,1.32,0,0,0,1.272,1.332,1.263,1.263,0,0,0,1.361-1.19,1.321,1.321,0,0,0-1.272-1.333,1.263,1.263,0,0,0-1.361,1.191" transform="translate(-84.688 -44.017)" fill="#1a2e35"/>
        <path id="Trazado_214060" data-name="Trazado 214060" d="M245.431,126.48c.164.172,1.165-.568,2.584-.564,1.418-.017,2.461.714,2.615.539.075-.077-.09-.387-.545-.718a3.625,3.625,0,0,0-2.094-.646,3.486,3.486,0,0,0-2.057.664c-.435.336-.584.646-.5.724" transform="translate(-84.553 -43.099)" fill="#1a2e35"/>
        <path id="Trazado_214061" data-name="Trazado 214061" d="M235.676,137.057a9.408,9.408,0,0,0-2.307-.416c-.362-.037-.705-.109-.767-.357a1.846,1.846,0,0,1,.242-1.075q.511-1.316,1.072-2.761c1.49-3.932,2.567-7.165,2.409-7.224s-1.5,3.081-2.984,7.013q-.538,1.454-1.028,2.778a2.1,2.1,0,0,0-.188,1.424.912.912,0,0,0,.6.53,2.453,2.453,0,0,0,.616.085,9.254,9.254,0,0,0,2.338,0" transform="translate(-79.952 -43.144)" fill="#1a2e35"/>
        <path id="Trazado_214062" data-name="Trazado 214062" d="M244.878,118.157c.14.386,1.558.2,3.224.4,1.671.168,3.014.655,3.235.309.1-.166-.136-.529-.679-.9a5.648,5.648,0,0,0-4.921-.543c-.612.246-.92.55-.859.733" transform="translate(-84.367 -40.343)" fill="#1a2e35"/>
        <path id="Trazado_214063" data-name="Trazado 214063" d="M224.92,119.76c.25.322,1.228-.012,2.4-.028,1.176-.057,2.173.217,2.4-.121.1-.164-.056-.487-.492-.792a3.483,3.483,0,0,0-3.873.12c-.416.332-.552.664-.442.821" transform="translate(-77.481 -40.755)" fill="#1a2e35"/>
        <path id="Trazado_214064" data-name="Trazado 214064" d="M214.6,93.958a3.411,3.411,0,0,1,1.26-3.049,2.421,2.421,0,0,1,3.136.235,2.824,2.824,0,0,1,2.427-3.425c1.508-.1,2.793,1.043,4.25,1.443a6.862,6.862,0,0,0,4.315-.5c1.367-.551,2.646-1.311,4.031-1.817a11.818,11.818,0,0,1,15.116,6.94,5.245,5.245,0,0,1,5.564,2.107,8.6,8.6,0,0,1,1.318,6.064,19.226,19.226,0,0,1-1.057,4.147c0,.119.012.235.01.355-.1,5.082-.67,11.05-2.838,11.084-3.779.058-2.879-7.063-2.879-7.063-4.638-1.791-2.91-8.74-4.07-9.795s-3.585-3.5-13.3,1.46a18.815,18.815,0,0,1-11.52,1.246c-.08-.018-.162-.03-.241-.049-.017,0-.04-.007-.056-.012s-.051-.024-.081-.032a8.746,8.746,0,0,1-2.49-1.057,4.925,4.925,0,0,1-2.052-2.282,2.7,2.7,0,0,1,.53-2.893,5.924,5.924,0,0,1-1.376-3.109" transform="translate(-73.932 -29.679)" fill="#1a2e35"/>
        <path id="Trazado_214065" data-name="Trazado 214065" d="M263.7,246.895l.7,13.115,1.561,18.839h-59.38l2.579-27.835-5.057-43.976c.439-15.54,6.406-22,18.615-23.486l-.962.121c1.681-.2,0,0,.962-.121a39.308,39.308,0,0,0,23.689-.014h0c3.661.155,6.694,1.282,9.808,1.879,9.808,1.879,17.884,9.458,19.845,16.055C277.679,206.9,289.358,254,289.358,254H266.123Z" transform="translate(-70.323 -63.236)" fill="#54a813"/>
        <path id="Trazado_214066" data-name="Trazado 214066" d="M235.635,149.107a6.371,6.371,0,0,0,.823,1.614,2.146,2.146,0,0,0,1.525.885,1.924,1.924,0,0,0,1.628-.888,3.068,3.068,0,0,0,.454-1.851c-.026-.583-.293-1.279-.873-1.348a1.452,1.452,0,0,0-.7.156l-3.049,1.236" transform="translate(-81.117 -50.824)" fill="#aa6550"/>
        <path id="Trazado_214067" data-name="Trazado 214067" d="M236.549,151.449a4.413,4.413,0,0,0,1.626-.2,2.327,2.327,0,0,0,1.23-1.117,2.449,2.449,0,0,0,.04-1.995,2.162,2.162,0,0,0-.266-.456c-.121-.127-.1-.121-.23-.1s-.324.128-.488.191l-.5.2c-.652.263-1.243.494-1.742.681a5.526,5.526,0,0,1-1.66.5,5.57,5.57,0,0,1,1.508-.853c.48-.232,1.055-.5,1.7-.789l.494-.221a5.471,5.471,0,0,1,.556-.229.713.713,0,0,1,.452.013.838.838,0,0,1,.336.265,2.646,2.646,0,0,1,.343.578,2.859,2.859,0,0,1-.093,2.44,2.606,2.606,0,0,1-1.548,1.251,2.462,2.462,0,0,1-1.321.052c-.3-.08-.445-.184-.433-.214" transform="translate(-80.813 -50.659)" fill="#1a2e35"/>
        <path id="Trazado_214068" data-name="Trazado 214068" d="M185.5,239.453l-13.986-42.937-1.266-7.209s-3.8-16.071-3.973-17.661c-.2-1.839-1.129-2.186-1.8-2.068-1.048.184-1.656,1.565-1.537,3.147.041.547,1.037,9.15,1.037,9.15a20.318,20.318,0,0,0-1.918-2.145c-1.447-1.474-4.535-2.073-7.594-1.645s-3.876.819-3.764,2.015a1.528,1.528,0,0,0,.726,1.094,3.023,3.023,0,0,0,2.1.48c4.906-.62,6.513,1.864,6.513,1.864l.165.943s-3.218-1.812-5.5-.655a2.89,2.89,0,0,0-.886.688,3.869,3.869,0,0,0-2.715,6.1,1.608,1.608,0,0,0,1.648.8,2.062,2.062,0,0,0,.813-.621,3.167,3.167,0,0,1,.4-.371l.834,2.577s2.183,5.689,2.853,8.273l6.809,43.236a10.853,10.853,0,1,0,21.04-5.049" transform="translate(-51.816 -58.419)" fill="#b78876"/>
        <path id="Trazado_214069" data-name="Trazado 214069" d="M174.97,204.624a2.254,2.254,0,0,1-2.445-.964c-.574-.746-.876-1.664-1.395-2.45-1.548-2.349-4.773-3.2-6.207-5.623-.2-.338-.341-.817-.054-1.083.266-.248.693-.12,1.028.021l8.59,3.614" transform="translate(-56.748 -66.966)" fill="#b78876"/>
        <path id="Trazado_214070" data-name="Trazado 214070" d="M174.348,198.005a3.719,3.719,0,0,0-.889-.486c-.586-.281-1.44-.671-2.5-1.144l-3.735-1.633-1.082-.465a1.845,1.845,0,0,0-1.377-.235.785.785,0,0,0-.459.753,1.614,1.614,0,0,0,.215.731,6.128,6.128,0,0,0,.825,1.1,35.723,35.723,0,0,0,3.988,3.049,7.016,7.016,0,0,1,1.462,1.509c.369.541.627,1.123.92,1.635a3.279,3.279,0,0,0,2.1,1.82,1.178,1.178,0,0,0,1.015-.147,2.709,2.709,0,0,1-.965-.053,3.176,3.176,0,0,1-1.819-1.8c-.263-.5-.5-1.1-.884-1.7a7.243,7.243,0,0,0-1.52-1.645,41.507,41.507,0,0,1-3.909-3.032,5.667,5.667,0,0,1-.75-.99c-.192-.336-.21-.7-.01-.753.208-.1.6.069.97.227l1.089.449,3.779,1.528c1.079.428,1.955.766,2.566.988a3.7,3.7,0,0,0,.969.3" transform="translate(-56.609 -66.832)" fill="#aa6550"/>
        <path id="Trazado_214071" data-name="Trazado 214071" d="M160.445,189.763a3.839,3.839,0,0,0-.743-1.6,2.963,2.963,0,0,0-1.613-.924,7.587,7.587,0,0,0-2.362-.085,12.113,12.113,0,0,1-2.453.049,3.9,3.9,0,0,1-1.9-.708,1.522,1.522,0,0,1-.622-1.22.894.894,0,0,1,.111-.49c.033.005-.006.18.022.483a1.439,1.439,0,0,0,.636,1.034,3.871,3.871,0,0,0,1.793.587,13.409,13.409,0,0,0,2.391-.077,7.389,7.389,0,0,1,2.465.121,3.108,3.108,0,0,1,1.725,1.077,2.769,2.769,0,0,1,.555,1.251.954.954,0,0,1,0,.5" transform="translate(-51.937 -63.667)" fill="#aa6550"/>
        <path id="Trazado_214072" data-name="Trazado 214072" d="M169.451,173.459a9.658,9.658,0,0,1,.209,1.709c.114,1.176.25,2.576.4,4.124.173,1.546.33,2.945.461,4.119a9.618,9.618,0,0,1,.148,1.715,7.74,7.74,0,0,1-.388-1.68c-.186-1.047-.393-2.5-.562-4.118s-.266-3.081-.3-4.144a7.723,7.723,0,0,1,.033-1.725" transform="translate(-58.365 -59.763)" fill="#aa6550"/>
        <path id="Trazado_214073" data-name="Trazado 214073" d="M159.9,194.763a2.083,2.083,0,0,1-.52-.14,1.6,1.6,0,0,0-1.33.079.857.857,0,0,0-.368.763,4.586,4.586,0,0,0,.2,1.1,1.929,1.929,0,0,1-.059,1.369,1.642,1.642,0,0,1-1.238.822,1.863,1.863,0,0,1-1.409-.438,2.331,2.331,0,0,1-.765-1.129,7.571,7.571,0,0,1-.2-2.206,4.457,4.457,0,0,1,.285-1.464c.144-.329.294-.468.3-.457s-.081.178-.18.5a5.289,5.289,0,0,0-.168,1.426,8.152,8.152,0,0,0,.263,2.109,1.847,1.847,0,0,0,1.827,1.317,1.321,1.321,0,0,0,.986-.638,1.646,1.646,0,0,0,.048-1.142,4.557,4.557,0,0,1-.177-1.184,1.112,1.112,0,0,1,.524-.958,1.67,1.67,0,0,1,1.5,0,1.386,1.386,0,0,1,.476.266" transform="translate(-53.128 -66.519)" fill="#aa6550"/>
        <path id="Trazado_214074" data-name="Trazado 214074" d="M153.783,197.871c.016,0,.083.173,0,.491a1.5,1.5,0,0,1-.9.991,2,2,0,0,1-1.947-.379,3.268,3.268,0,0,1-1.085-2.175,3.953,3.953,0,0,1,.488-2.377,3.784,3.784,0,0,1,1.4-1.4,3.57,3.57,0,0,1,1.252-.442,1.017,1.017,0,0,1,.485,0,6.224,6.224,0,0,0-1.611.653,3.736,3.736,0,0,0-1.253,1.344,3.777,3.777,0,0,0-.423,2.186,3.038,3.038,0,0,0,.947,1.97,1.773,1.773,0,0,0,1.663.393,1.423,1.423,0,0,0,.859-.8c.108-.273.092-.449.122-.45" transform="translate(-51.622 -66.343)" fill="#aa6550"/>
        <path id="Trazado_214075" data-name="Trazado 214075" d="M165.85,206.353a1.4,1.4,0,0,1,.823-.077,3.252,3.252,0,0,1,1.909.891l-.281.115a9.628,9.628,0,0,1,.067-1.167,7.39,7.39,0,0,1,1.388-3.783,18.6,18.6,0,0,0-1.047,3.823c-.048.394-.071.776-.079,1.129l-.009.391-.271-.275a3.4,3.4,0,0,0-1.708-.92c-.484-.1-.789-.081-.791-.126" transform="translate(-57.142 -69.71)" fill="#aa6550"/>
        <path id="Trazado_214076" data-name="Trazado 214076" d="M161.987,186.143c.085.031-.18.684-.9,1.089s-1.414.3-1.4.216c0-.1.606-.152,1.229-.514s.986-.843,1.071-.791" transform="translate(-55.018 -64.132)" fill="#aa6550"/>
        <path id="Trazado_214077" data-name="Trazado 214077" d="M213.535,186.139c.013.015-.191.208-.541.61a6.252,6.252,0,0,0-1.213,1.946,2.583,2.583,0,0,0-.138.754,1.739,1.739,0,0,0,.2.791,2.787,2.787,0,0,0,1.508,1.119,14.892,14.892,0,0,0,4.78.675c.9.017,1.871.051,2.866.11l1.521.178c.518.056,1.034.195,1.565.292a15.84,15.84,0,0,1,6.283,2.791,11.544,11.544,0,0,1,2.6,2.721,9.287,9.287,0,0,1,.492.848c.152.305.258.607.385.907a10.982,10.982,0,0,1,.543,1.91,12.117,12.117,0,0,1-1.23,8.032,11.7,11.7,0,0,1-6.176,5.273,12.138,12.138,0,0,1-3.848.764,14.839,14.839,0,0,1-3.718-.452,23.736,23.736,0,0,0-3.42-.611,5.931,5.931,0,0,0-3.1.548,8,8,0,0,0-2.325,1.886c-.652.731-1.205,1.5-1.754,2.229a11.079,11.079,0,0,1-3.572,3.414,4.373,4.373,0,0,1-1.991.52,4.478,4.478,0,0,1-1.7-.317,3.707,3.707,0,0,1-1.165-.736,2.792,2.792,0,0,1-.584-.824,1.824,1.824,0,0,1-.184-.8,7.786,7.786,0,0,0,.282.754,2.837,2.837,0,0,0,.6.754,3.63,3.63,0,0,0,1.131.657,4.146,4.146,0,0,0,3.473-.275,10.929,10.929,0,0,0,3.4-3.374c.534-.731,1.086-1.518,1.747-2.278a8.374,8.374,0,0,1,2.436-2.011,6.384,6.384,0,0,1,3.338-.623,23.892,23.892,0,0,1,3.5.6,14.414,14.414,0,0,0,3.6.423,11.674,11.674,0,0,0,3.675-.743,11.213,11.213,0,0,0,5.886-5.035,11.628,11.628,0,0,0,1.184-7.67,10.577,10.577,0,0,0-.513-1.827c-.122-.292-.229-.594-.361-.859a8.921,8.921,0,0,0-.457-.794,11.115,11.115,0,0,0-2.467-2.609,15.491,15.491,0,0,0-6.077-2.748c-.519-.1-1.022-.241-1.53-.3l-1.493-.191c-.985-.068-1.921-.113-2.837-.144a14.907,14.907,0,0,1-4.883-.777,3.034,3.034,0,0,1-1.624-1.28,1.969,1.969,0,0,1-.206-.918,2.777,2.777,0,0,1,.174-.819,5.923,5.923,0,0,1,1.332-1.951,2.911,2.911,0,0,1,.622-.536" transform="translate(-68.772 -64.131)" fill="#fafafa"/>
        <path id="Trazado_214078" data-name="Trazado 214078" d="M281.344,231.132a3.875,3.875,0,0,1-.25-1.175,9.679,9.679,0,0,1,.218-3.277,12.617,12.617,0,0,1,2.029-4.434,14.576,14.576,0,0,1,4.389-4.047,18.526,18.526,0,0,1,5.579-2.107,24.236,24.236,0,0,1,4.831-.5,27.256,27.256,0,0,1,3.262.165,4.728,4.728,0,0,1,1.18.206c-.008.1-1.7-.091-4.432.014a26.46,26.46,0,0,0-4.735.6,18.894,18.894,0,0,0-5.409,2.086,14.581,14.581,0,0,0-4.259,3.872,12.83,12.83,0,0,0-2.062,4.234,10.814,10.814,0,0,0-.379,3.169,7.284,7.284,0,0,1,.039,1.19" transform="translate(-96.828 -74.28)" fill="#fafafa"/>
        <path id="Trazado_214079" data-name="Trazado 214079" d="M312,253.158a3.767,3.767,0,0,1-.614.919,15.059,15.059,0,0,1-2.1,2.159,17.113,17.113,0,0,1-3.768,2.427,16.859,16.859,0,0,1-10.764,1.3,17.135,17.135,0,0,1-4.238-1.46,15.125,15.125,0,0,1-2.558-1.6,3.787,3.787,0,0,1-.815-.747,40.366,40.366,0,0,0,3.538,2,17.55,17.55,0,0,0,18.361-2.215,40.423,40.423,0,0,0,2.962-2.78" transform="translate(-98.931 -87.221)" fill="#fafafa"/>
        <path id="Trazado_214080" data-name="Trazado 214080" d="M268.792,250.607a2.637,2.637,0,0,1-.477.195,3.591,3.591,0,0,0-1.2.8,5.789,5.789,0,0,0-1.2,1.93,17.869,17.869,0,0,0-.84,2.949,34.656,34.656,0,0,1-.851,3.684,8.592,8.592,0,0,1-.9,1.947,7.567,7.567,0,0,1-1.524,1.7,11.958,11.958,0,0,1-4.318,2.183c-1.609.477-3.315.739-5.026,1.074a21.105,21.105,0,0,0-8.934,3.722,14.649,14.649,0,0,0-2.978,3,13.227,13.227,0,0,0-1.7,3.269,11.329,11.329,0,0,0-.552,5.29c.189,1.259.473,1.921.419,1.939a1.862,1.862,0,0,1-.222-.47,4.665,4.665,0,0,1-.2-.6,6.745,6.745,0,0,1-.2-.837,11.01,11.01,0,0,1,.4-5.446,13.325,13.325,0,0,1,1.7-3.408,14.838,14.838,0,0,1,3.041-3.138,21.229,21.229,0,0,1,9.134-3.857c1.728-.338,3.415-.595,4.981-1.051a11.567,11.567,0,0,0,4.147-2.058,7.129,7.129,0,0,0,1.443-1.578,8.25,8.25,0,0,0,.878-1.83,36.537,36.537,0,0,0,.9-3.621,17.285,17.285,0,0,1,.935-2.986,5.8,5.8,0,0,1,1.338-1.964,3.36,3.36,0,0,1,1.3-.746,1.454,1.454,0,0,1,.514-.091" transform="translate(-81.967 -86.342)" fill="#fafafa"/>
        <path id="Trazado_214081" data-name="Trazado 214081" d="M259.036,245.563a2.193,2.193,0,0,1,.271,1.069,4.584,4.584,0,0,1-.834,2.891,4.461,4.461,0,0,1-1.574,1.429,4.161,4.161,0,0,1-1.133.412,4.592,4.592,0,0,1-1.276.052,5,5,0,0,1-2.509-1.015,4.49,4.49,0,0,1-1.619-2.423,3.933,3.933,0,0,1,.808-3.564,8.757,8.757,0,0,1,1.147-1.253,4.336,4.336,0,0,1,.665-.5,1.771,1.771,0,0,1,.819-.286l.07.467-.258.064-.13-.45a4.447,4.447,0,0,1,2.88.156,4.717,4.717,0,0,1,1.818,1.257,3.936,3.936,0,0,1,.744,1.2c.106.309.132.481.111.487a7.061,7.061,0,0,0-1.053-1.5,4.649,4.649,0,0,0-1.753-1.085,4.12,4.12,0,0,0-2.607-.069l-.13-.45.257-.071.07.467a2.377,2.377,0,0,0-1.167.684,8.444,8.444,0,0,0-1.062,1.192,3.436,3.436,0,0,0-.7,3.118,4,4,0,0,0,1.419,2.134,4.559,4.559,0,0,0,2.236.937,4.186,4.186,0,0,0,1.133-.025,3.786,3.786,0,0,0,1.013-.341,4.172,4.172,0,0,0,1.47-1.253,4.631,4.631,0,0,0,.935-2.663c.011-.684-.109-1.061-.06-1.074" transform="translate(-86.216 -83.478)" fill="#fafafa"/>
        <path id="Trazado_214082" data-name="Trazado 214082" d="M211.459,221.241a.564.564,0,0,1,0,.14c0,.109-.008.244-.013.411-.019.381-.045.908-.077,1.576-.082,1.368-.164,3.349-.273,5.8-.205,4.895-.405,11.661-.563,19.136s-.258,14.246-.328,19.146c-.037,2.434-.067,4.411-.088,5.8-.014.669-.026,1.2-.033,1.578-.007.167-.011.3-.015.41a.565.565,0,0,1-.014.14.515.515,0,0,1-.014-.14c0-.108-.007-.243-.012-.41,0-.381-.01-.909-.017-1.578,0-1.392,0-3.369,0-5.8.021-4.9.088-11.671.248-19.15s.389-14.244.644-19.139c.134-2.447.244-4.428.359-5.794.054-.667.1-1.193.128-1.573.016-.166.03-.3.04-.409a.546.546,0,0,1,.023-.138" transform="translate(-72.358 -76.226)" fill="#1a2e35"/>
        <g id="Grupo_149101" data-name="Grupo 149101" transform="translate(129.112 162.027)" opacity="0.2">
          <g id="Grupo_149100" data-name="Grupo 149100">
            <g id="Grupo_149099" data-name="Grupo 149099" clip-path="url(#clip-path-4)">
              <path id="Trazado_214083" data-name="Trazado 214083" d="M196.979,278.776c2.915,1.395,6.728-1.285,8.218-4.152a85.8,85.8,0,0,0,.67-9.551c-.2-5.979.236-11.9.035-17.878a18.807,18.807,0,0,1-4.266,9.712,6.537,6.537,0,0,0-1.6,2.47c-.427,1.723.889,4.826,1.736,6.386,2.59,4.776-3.083,13.046-4.6,12.891" transform="translate(-196.979 -247.195)"/>
            </g>
          </g>
        </g>
        <g id="Grupo_149104" data-name="Grupo 149104" transform="translate(183.685 154.597)" opacity="0.2">
          <g id="Grupo_149103" data-name="Grupo 149103">
            <g id="Grupo_149102" data-name="Grupo 149102" clip-path="url(#clip-path-5)">
              <path id="Trazado_214084" data-name="Trazado 214084" d="M280.238,235.859q1.433,17.873,2.864,35.748a10.512,10.512,0,0,0,.628,3.312,3.567,3.567,0,0,0,2.406,2.194c1.694.344,3.336-1.112,3.813-2.773a9.977,9.977,0,0,0-.319-5.114c-.709-2.858-1.512-5.692-2.316-8.525l-7-24.658" transform="translate(-280.238 -235.859)"/>
            </g>
          </g>
        </g>
        <path id="Trazado_214085" data-name="Trazado 214085" d="M223.563,305.2a6.922,6.922,0,0,0,.8-1.9,8.957,8.957,0,0,0-.889-5.448c-.493-1.08-1.188-2.2-1.888-3.438a14.962,14.962,0,0,1-1.769-4.223,10.044,10.044,0,0,1,.37-5.057c.512-1.685,1.276-3.321,1.892-5.035a15.05,15.05,0,0,0,.261-9.995,14.688,14.688,0,0,0-1.981-3.966,15.4,15.4,0,0,0-2.642-2.834,15.648,15.648,0,0,0-4.907-2.737c-1.27-.425-2.01-.539-2-.59a2.037,2.037,0,0,1,.542.048,11.151,11.151,0,0,1,1.523.34,14.9,14.9,0,0,1,5.085,2.639,15.427,15.427,0,0,1,2.766,2.87,14.926,14.926,0,0,1,2.092,4.074,15.372,15.372,0,0,1-.225,10.335c-.629,1.745-1.392,3.372-1.894,5.006a9.618,9.618,0,0,0-.389,4.8,14.752,14.752,0,0,0,1.673,4.1c.678,1.237,1.358,2.377,1.845,3.5a8.9,8.9,0,0,1,.743,5.653,4.953,4.953,0,0,1-.644,1.434,1.987,1.987,0,0,1-.357.414" transform="translate(-72.63 -89.571)" fill="#fafafa"/>
        <path id="Trazado_214086" data-name="Trazado 214086" d="M294.638,194.051a2.921,2.921,0,0,1-.507,1.04,7.6,7.6,0,0,1-2.269,2.2,9.662,9.662,0,0,1-4.455,1.474,14.771,14.771,0,0,1-5.693-.726,11.869,11.869,0,0,1-4.967-2.884,7.38,7.38,0,0,1-1.449-2.092,6.884,6.884,0,0,1-.562-2.143,5.44,5.44,0,0,1,.581-3.11,2.967,2.967,0,0,1,.265-.424,1.857,1.857,0,0,1,.227-.286c.134-.145.21-.214.224-.2.041.032-.231.345-.526,1a5.591,5.591,0,0,0-.388,2.975,6.69,6.69,0,0,0,.589,1.995,7.1,7.1,0,0,0,1.4,1.93,11.723,11.723,0,0,0,4.776,2.718,14.82,14.82,0,0,0,5.488.745,9.63,9.63,0,0,0,4.292-1.3,8.232,8.232,0,0,0,2.3-2c.448-.574.638-.937.679-.916" transform="translate(-94.648 -64.394)" fill="#fafafa"/>
        <path id="Trazado_214087" data-name="Trazado 214087" d="M287.542,253.686a.677.677,0,0,1-.055-.147l-.136-.438c-.119-.405-.285-.971-.5-1.691l-1.779-6.233-5.77-20.59-3.146-11.346a39.225,39.225,0,0,1-1.113-5.027,15.431,15.431,0,0,1-.014-4.49,9.668,9.668,0,0,1,2.956-5.687,7.135,7.135,0,0,1,1.468-.986l.423-.18a.679.679,0,0,1,.147-.052,8.18,8.18,0,0,0-1.968,1.3,9.679,9.679,0,0,0-2.837,5.638,15.378,15.378,0,0,0,.047,4.429,39.643,39.643,0,0,0,1.131,4.991l3.166,11.34,5.693,20.612c.712,2.627,1.29,4.759,1.7,6.256.191.726.34,1.3.448,1.7.045.184.081.33.11.445a.674.674,0,0,1,.028.154" transform="translate(-94.705 -67.812)" fill="#1a2e35"/>
        <path id="Trazado_214088" data-name="Trazado 214088" d="M248.663,104.21a5.51,5.51,0,0,0,0-1.118,4.364,4.364,0,0,0-1.445-2.6,5.88,5.88,0,0,0-4.161-1.374,18.117,18.117,0,0,0-5.406,1.209c-.945.311-1.875.608-2.8.811a14.562,14.562,0,0,1-7.256-.27,14.124,14.124,0,0,1-2.85-1.208c-.32-.177-.557-.333-.716-.442a1.163,1.163,0,0,1-.235-.176c.015-.024.353.2,1,.524a15.664,15.664,0,0,0,2.853,1.117,14.948,14.948,0,0,0,4.492.533,14.541,14.541,0,0,0,2.653-.338c.907-.2,1.828-.5,2.771-.81a17.9,17.9,0,0,1,5.488-1.2,6.023,6.023,0,0,1,4.295,1.483,4.371,4.371,0,0,1,1.42,2.725,2.547,2.547,0,0,1-.11,1.131" transform="translate(-77.108 -34.064)" fill="#375a64"/>
        <path id="Trazado_214089" data-name="Trazado 214089" d="M269.67,121.369a.738.738,0,0,1-.121-.195c-.074-.13-.171-.329-.288-.589a11.871,11.871,0,0,1-.736-2.3,12.647,12.647,0,0,1-.238-3.573,31.749,31.749,0,0,1,.825-4.293,8.417,8.417,0,0,0,.009-4.248,4.307,4.307,0,0,0-.885-1.61,3.239,3.239,0,0,0-1.328-.87,3.031,3.031,0,0,0-2.281.058,4.388,4.388,0,0,0-.71.5,1.765,1.765,0,0,1,.661-.591,3.067,3.067,0,0,1,2.391-.146,3.388,3.388,0,0,1,1.433.9,4.485,4.485,0,0,1,.958,1.686,8.515,8.515,0,0,1,.019,4.378,33.976,33.976,0,0,0-.842,4.259,13.085,13.085,0,0,0,.177,3.515,13.809,13.809,0,0,0,.646,2.3,8.57,8.57,0,0,1,.311.823" transform="translate(-90.929 -35.605)" fill="#375a64"/>
        <path id="Trazado_214090" data-name="Trazado 214090" d="M249.033,100.415a1.9,1.9,0,0,1,0-.371c.01-.269.023-.621.039-1.06a12.3,12.3,0,0,0-.427-3.838,6.783,6.783,0,0,0-1.235-2.331,4.773,4.773,0,0,0-2.478-1.637,6.261,6.261,0,0,0-3.307.136,15.265,15.265,0,0,0-3.307,1.5,27.274,27.274,0,0,1-3.28,1.687,10.028,10.028,0,0,1-3.38.679,10.7,10.7,0,0,1-3.1-.38,11.96,11.96,0,0,1-2.511-1.035,10.254,10.254,0,0,1-2.973-2.538,6.449,6.449,0,0,1-.6-.878,1.945,1.945,0,0,1-.179-.325,1.9,1.9,0,0,1,.225.3,8.046,8.046,0,0,0,.638.841,10.631,10.631,0,0,0,2.985,2.437,12,12,0,0,0,2.476.984,10.553,10.553,0,0,0,3.03.347,9.851,9.851,0,0,0,3.288-.676,27.646,27.646,0,0,0,3.245-1.677,15.348,15.348,0,0,1,3.368-1.518A6.471,6.471,0,0,1,245,90.935a4.988,4.988,0,0,1,2.588,1.736,6.913,6.913,0,0,1,1.244,2.419,11.748,11.748,0,0,1,.349,3.9c-.028.462-.064.819-.091,1.06a1.883,1.883,0,0,1-.058.367" transform="translate(-76.591 -31.016)" fill="#375a64"/>
        <path id="Trazado_214091" data-name="Trazado 214091" d="M241.4,300.346l39.081-5.829-.631-3.475h21.034l.616,5.347a16.171,16.171,0,0,1-15.717,19.223l-45.582-.506Z" transform="translate(-82.758 -100.275)" fill="#b78876"/>
        <path id="Trazado_214092" data-name="Trazado 214092" d="M231.5,304.278a41.274,41.274,0,0,1-5.2-2.2,17.006,17.006,0,0,0-8.005-1.551l-10.866.553a5.32,5.32,0,0,0,1.823,2.43c1.152.637,7.908.773,7.908.773l-.345.357A7.815,7.815,0,0,1,211.4,307l-1.038.026a10.165,10.165,0,0,1-2.268-.443l-2.68-1.083c-.811-.366-1.668-.307-2.021.51-.319.739-.085,1.757,2.128,2.872,1.237.623,5.822,2.208,5.822,2.208a11.09,11.09,0,0,0,.267,1.936c.2.667,2,1.335,2,1.335a23.819,23.819,0,0,0,1.6,2.87,16.518,16.518,0,0,0,3.578,1.234,15.384,15.384,0,0,0,8.562-.065l4.141-1.236V304.553" transform="translate(-70.038 -103.534)" fill="#b78876"/>
        <path id="Trazado_214093" data-name="Trazado 214093" d="M220.77,318.072a12.353,12.353,0,0,1-5.483-1.443c.031-.073,1.217.383,2.727.777s2.765.587,2.756.666" transform="translate(-74.174 -109.088)" fill="#aa6550"/>
        <path id="Trazado_214094" data-name="Trazado 214094" d="M221.543,322.3a4,4,0,0,1-2.9-.789,10.055,10.055,0,0,1,1.445.415,10.212,10.212,0,0,1,1.457.374" transform="translate(-75.329 -110.768)" fill="#aa6550"/>
        <path id="Trazado_214095" data-name="Trazado 214095" d="M311.956,305.36c-.05.018-.309-.756-.936-1.9a15.25,15.25,0,0,0-1.251-1.913,15.163,15.163,0,0,0-4.143-3.72,15.372,15.372,0,0,0-2.037-1.038c-1.206-.5-2-.674-1.991-.726a2.3,2.3,0,0,1,.566.094,5.505,5.505,0,0,1,.651.17,8.909,8.909,0,0,1,.845.284,13.59,13.59,0,0,1,2.1,1,14.282,14.282,0,0,1,4.214,3.784,13.628,13.628,0,0,1,1.222,1.975c.16.29.267.57.373.809a5.45,5.45,0,0,1,.239.629,2.292,2.292,0,0,1,.154.552" transform="translate(-103.912 -102.003)" fill="#aa6550"/>
        <path id="Trazado_214096" data-name="Trazado 214096" d="M222.31,304.77a4.809,4.809,0,0,1-.84.9,13.5,13.5,0,0,1-2.367,1.792,9.421,9.421,0,0,1-2.775,1.071,3.975,3.975,0,0,1-1.223.132,15.861,15.861,0,0,0,3.861-1.439,18.521,18.521,0,0,0,2.377-1.7,6.412,6.412,0,0,1,.966-.752" transform="translate(-74.112 -105.004)" fill="#aa6550"/>
        <path id="Trazado_214097" data-name="Trazado 214097" d="M49.537,251.486c.932,0-7.118,21.623-9.19,27.146-.229.612-.39,1.15-.39,1.15l56.348.1-.665-52.428a.917.917,0,0,0-.007-.1l-4.713-37.5a.922.922,0,0,0-.673-.777c-2.231-.605-10.271-2.68-16.422-2.908a127.665,127.665,0,0,0-17.638,1.163s-9.357.965-14.506,2.822a.926.926,0,0,0-.6,1Z" transform="translate(-13.767 -64.128)" fill="#54a813"/>
        <path id="Trazado_214098" data-name="Trazado 214098" d="M86.464,250.387a3.8,3.8,0,0,1-.283.681,6.551,6.551,0,0,1-.4.769,10.774,10.774,0,0,1-.6.979,12.318,12.318,0,0,1-.823,1.122c-.3.4-.674.785-1.057,1.2a16.9,16.9,0,0,1-6.086,3.986c-.532.186-1.034.374-1.522.49a12.3,12.3,0,0,1-1.357.306,11.052,11.052,0,0,1-1.137.157,6.587,6.587,0,0,1-.863.056,3.754,3.754,0,0,1-.737-.014c0-.06,1.05-.053,2.7-.388a12.983,12.983,0,0,0,1.333-.334c.479-.123.97-.317,1.492-.506a17.6,17.6,0,0,0,6-3.928c.381-.4.756-.776,1.06-1.166a13.006,13.006,0,0,0,.839-1.087c.966-1.378,1.381-2.347,1.435-2.32" transform="translate(-24.672 -86.267)" fill="#1a2e35"/>
        <g id="Grupo_149107" data-name="Grupo 149107" transform="translate(28.103 194.315)" opacity="0.2">
          <g id="Grupo_149106" data-name="Grupo 149106">
            <g id="Grupo_149105" data-name="Grupo 149105" clip-path="url(#clip-path-6)">
              <path id="Trazado_214099" data-name="Trazado 214099" d="M42.876,312.557a16.585,16.585,0,0,0,16.166-2.022c2.032-1.475,3.737-3.4,5.929-4.627,3.04-1.7,6.665-1.858,10.138-2.105a49.408,49.408,0,0,0,13.7-2.521,5.478,5.478,0,0,0,2.4-1.449,2.134,2.134,0,0,0,.218-2.606,3.2,3.2,0,0,0-2.68-.767c-14.572.43-27.887,1.6-42.071,4.968" transform="translate(-42.876 -296.454)"/>
            </g>
          </g>
        </g>
        <path id="Trazado_214100" data-name="Trazado 214100" d="M66.835,100.882c4.5-4.585,11.612-7.292,17.5-4.716,3.959,1.732,6.644,5.448,10.119,8.016,2.531,1.871,5.657,3.317,6.983,6.171,1.169,2.516.606,5.445.323,8.205s-.085,5.943,2.053,7.712c1.123.929,2.6,1.3,3.863,2.02a10.341,10.341,0,0,1,4.6,7.177,30.644,30.644,0,0,1-.045,8.765L100.1,146.544l-1.993-3.351-.694,5.268-15.479,1.4Z" transform="translate(-23.027 -32.789)" fill="#1a2e35"/>
        <path id="Trazado_214101" data-name="Trazado 214101" d="M63.267,110.8l-.026,3.374-.954,50.59c-.083,5.864,5.528,10.857,11.807,10.9,6.342.041,8.929-4.723,9.11-10.645.191-6.216.505-12.757.505-12.757s8.045-1.109,9.993-11.512c.968-5.174.942-13.7.7-20.677a11.037,11.037,0,0,0-11.886-10.622Z" transform="translate(-21.46 -37.696)" fill="#ffc19d"/>
        <path id="Trazado_214102" data-name="Trazado 214102" d="M105.664,135.265a1.34,1.34,0,0,1-1.329,1.316,1.282,1.282,0,0,1-1.348-1.246,1.342,1.342,0,0,1,1.328-1.317,1.284,1.284,0,0,1,1.35,1.247" transform="translate(-35.483 -46.174)" fill="#1a2e35"/>
        <path id="Trazado_214103" data-name="Trazado 214103" d="M105.487,131.573c-.171.17-1.165-.609-2.607-.645-1.44-.056-2.519.656-2.67.475-.075-.081.1-.391.574-.714a3.674,3.674,0,0,1,2.143-.6,3.528,3.528,0,0,1,2.069.731c.434.352.576.673.492.749" transform="translate(-34.52 -44.821)" fill="#1a2e35"/>
        <path id="Trazado_214104" data-name="Trazado 214104" d="M83.993,135.265a1.34,1.34,0,0,1-1.329,1.316,1.282,1.282,0,0,1-1.348-1.246,1.342,1.342,0,0,1,1.328-1.317,1.283,1.283,0,0,1,1.35,1.247" transform="translate(-28.016 -46.174)" fill="#1a2e35"/>
        <path id="Trazado_214105" data-name="Trazado 214105" d="M83.851,131.388c-.171.17-1.167-.609-2.608-.645-1.439-.056-2.518.656-2.67.475-.074-.081.1-.391.574-.714a3.674,3.674,0,0,1,2.143-.6,3.531,3.531,0,0,1,2.07.731c.433.352.575.673.492.749" transform="translate(-27.066 -44.758)" fill="#1a2e35"/>
        <path id="Trazado_214106" data-name="Trazado 214106" d="M93.986,142.376a9.6,9.6,0,0,1,2.354-.358c.369-.028.72-.091.789-.341a1.87,1.87,0,0,0-.216-1.1L95.9,137.745c-1.4-4.034-2.406-7.346-2.244-7.4s1.432,3.17,2.834,7.2q.5,1.492.965,2.849a2.132,2.132,0,0,1,.151,1.451.925.925,0,0,1-.62.522,2.5,2.5,0,0,1-.628.069,9.415,9.415,0,0,1-2.374-.062" transform="translate(-32.263 -44.908)" fill="#1a2e35"/>
        <path id="Trazado_214107" data-name="Trazado 214107" d="M87.669,172.612a26.588,26.588,0,0,1-13.891-4.119s3.2,7.272,13.681,6.582Z" transform="translate(-25.419 -58.052)" fill="#ff9c6a"/>
        <path id="Trazado_214108" data-name="Trazado 214108" d="M90.816,153.433a2.6,2.6,0,0,0-2.3-1.029,2.371,2.371,0,0,0-1.662.833,1.5,1.5,0,0,0-.162,1.716,1.745,1.745,0,0,0,1.877.53,5.467,5.467,0,0,0,1.873-1.049,1.6,1.6,0,0,0,.424-.415.483.483,0,0,0,.012-.537" transform="translate(-29.799 -52.506)" fill="#ff9c6a"/>
        <path id="Trazado_214109" data-name="Trazado 214109" d="M87.517,150.045c.235-.007.195,1.558,1.5,2.706s2.98,1.022,2.986,1.241c.019.1-.38.293-1.085.293a3.9,3.9,0,0,1-2.495-.947,3.394,3.394,0,0,1-1.161-2.267c-.042-.655.144-1.038.25-1.026" transform="translate(-30.065 -51.696)" fill="#1a2e35"/>
        <path id="Trazado_214110" data-name="Trazado 214110" d="M83.865,125.157c-.153.388-1.588.163-3.285.32-1.7.123-3.078.581-3.293.223-.1-.171.152-.533.714-.9a5.736,5.736,0,0,1,5.012-.414c.614.267.918.585.852.769" transform="translate(-26.621 -42.722)" fill="#1a2e35"/>
        <path id="Trazado_214111" data-name="Trazado 214111" d="M105.214,127.077c-.318.319-1.518-.054-2.972-.11-1.451-.1-2.69.146-2.965-.2-.119-.17.085-.493.631-.788a4.789,4.789,0,0,1,2.43-.47,4.707,4.707,0,0,1,2.351.724c.5.351.665.693.524.849" transform="translate(-34.193 -43.239)" fill="#1a2e35"/>
        <path id="Trazado_214112" data-name="Trazado 214112" d="M36.108,190.8S19.3,194.743,16.042,210.68c-1.5,7.322-3.6,49.371,6.2,55.9,12.643,8.431,28.714.758,28.714.758L48.892,247H38.457l-1.408-22.281c.393,1.708-.941-33.924-.941-33.924" transform="translate(-5.084 -65.737)" fill="#54a813"/>
        <path id="Trazado_214113" data-name="Trazado 214113" d="M131.325,260.822a13,13,0,0,0,11.658-13.491l-6.864-29.172s-4.451-25.035-18.528-27.292l4.8,38.166-.458,8.043s.218,5.321.759,15.29Z" transform="translate(-40.515 -65.761)" fill="#54a813"/>
        <path id="Trazado_214114" data-name="Trazado 214114" d="M135.58,269.706a17.765,17.765,0,0,0-2.534.278,10.294,10.294,0,0,0-8.076,8.244,17.8,17.8,0,0,0-.225,2.539,2.819,2.819,0,0,1-.08-.688,9.133,9.133,0,0,1,.116-1.885,10.119,10.119,0,0,1,8.228-8.4,9.085,9.085,0,0,1,1.882-.155,2.819,2.819,0,0,1,.689.066" transform="translate(-42.948 -92.9)" fill="#1a2e35"/>
        <path id="Trazado_214115" data-name="Trazado 214115" d="M58.941,101.724c1.892,2.541,2.792,4.493,3.927,9.011.555,2.213-1.245,3.776-3.032,5.127a1.442,1.442,0,0,1-2.278-.834s.621,6.924-1.882,10.029a5.991,5.991,0,0,0-.945,4.895,8.293,8.293,0,0,0,2.236,4.235,10.45,10.45,0,0,1,1.706,11.773,31.108,31.108,0,0,0-1.591,2.843,4.3,4.3,0,0,0-.333,1.837,1.456,1.456,0,0,1-1.235,1.546,114.284,114.284,0,0,1-25.973.781,1.425,1.425,0,0,1-1.272-1.077c-.678-2.869.452-6,1.9-8.64,1.619-2.95,3.681-5.781,4.238-9.1.524-3.123-.328-6.492.927-9.4,1.54-3.57,5.727-5.257,7.823-8.531,1.978-3.089,1.819-7.14,3.589-10.351a9.9,9.9,0,0,1,12.192-4.144" transform="translate(-9.67 -34.797)" fill="#1a2e35"/>
        <path id="Trazado_214116" data-name="Trazado 214116" d="M75.692,105.8c3.286,1.69,4.805,5.709,8,7.57,2.908,1.694,6.536,1.247,9.864.747q-.185-1.107-.37-2.215a5.972,5.972,0,0,0,1.233,1.793,2.027,2.027,0,0,0,2.023.478c1.117-.45,1.265-1.986.978-3.155a10.828,10.828,0,0,0-2.905-4.921,14.735,14.735,0,0,0-19.223-1.536" transform="translate(-25.94 -35.042)" fill="#1a2e35"/>
        <path id="Trazado_214117" data-name="Trazado 214117" d="M122.9,221.453a2.425,2.425,0,0,1,.03.41c.009.295.021.687.036,1.178.02,1.022.072,2.5.15,4.327.149,3.654.491,8.693.9,14.258s.723,10.615.824,14.273c.053,1.829.075,3.31.063,4.333q-.009.736-.015,1.178a2.352,2.352,0,0,1-.023.411,2.353,2.353,0,0,1-.032-.411q-.013-.441-.035-1.177c-.02-1.023-.072-2.5-.15-4.327-.149-3.653-.491-8.693-.9-14.26s-.723-10.612-.824-14.271c-.053-1.829-.075-3.309-.063-4.333q.009-.736.015-1.178a2.331,2.331,0,0,1,.024-.411" transform="translate(-42.329 -76.299)" fill="#1a2e35"/>
        <path id="Trazado_214118" data-name="Trazado 214118" d="M49.932,261.417a1.2,1.2,0,0,1-.037-.292c-.014-.222-.033-.5-.054-.839-.043-.767-.1-1.812-.172-3.086-.148-2.605-.377-6.2-.648-10.176l-.708-10.175c-.083-1.274-.152-2.318-.2-3.085-.018-.34-.031-.617-.043-.84a1.238,1.238,0,0,1,0-.294,1.216,1.216,0,0,1,.052.29c.025.221.056.5.094.836.072.765.17,1.807.289,3.078.229,2.6.516,6.2.787,10.171s.47,7.576.569,10.185c.047,1.3.081,2.361.086,3.092,0,.34,0,.618,0,.841a1.2,1.2,0,0,1-.017.294" transform="translate(-16.559 -80.15)" fill="#1a2e35"/>
        <path id="Trazado_214119" data-name="Trazado 214119" d="M47.913,276.537c0,.049-.545.073-1.368.35a6.083,6.083,0,0,0-4.124,4.893c-.134.857-.065,1.4-.113,1.407a.972.972,0,0,1-.081-.379,4.955,4.955,0,0,1,0-1.054,5.862,5.862,0,0,1,4.257-5.051,4.981,4.981,0,0,1,1.038-.182.972.972,0,0,1,.387.016" transform="translate(-14.54 -95.27)" fill="#1a2e35"/>
        <path id="Trazado_214120" data-name="Trazado 214120" d="M62.771,296.818a1.482,1.482,0,0,1-.06-.322c-.031-.241-.071-.548-.12-.927-.1-.842-.228-2-.39-3.418-.307-2.919-.724-6.895-1.185-11.286-.153-1.527-.3-3-.438-4.372l.13.118-8.358-.048-2.427-.038-.649-.022a.827.827,0,0,1-.224-.023.866.866,0,0,1,.224-.023l.649-.021,2.427-.039,8.358-.048h.118l.012.118c.14,1.369.292,2.845.449,4.371.43,4.395.819,8.373,1.106,11.294.126,1.421.229,2.583.3,3.427.028.382.051.691.069.933a1.479,1.479,0,0,1,.006.327" transform="translate(-16.9 -95.212)" fill="#1a2e35"/>
        <path id="Trazado_214121" data-name="Trazado 214121" d="M52.146,301.881a2.387,2.387,0,0,1-.395.145l-1.147.366c-1,.309-2.446.751-4.253,1.234a53.545,53.545,0,0,1-6.437,1.337,22.252,22.252,0,0,1-8.029-.38,34.024,34.024,0,0,1-4.021-1.133c-.636-.226-1.257-.459-1.856-.709-.3-.126-.6-.242-.882-.4l-.428-.216-.4-.257A9.8,9.8,0,0,1,21.78,299.4a17.234,17.234,0,0,1-1.552-2.649,31.3,31.3,0,0,1-1.58-4.142c-.153-.5-.267-.89-.338-1.156a2.38,2.38,0,0,1-.1-.409,2.362,2.362,0,0,1,.149.393l.386,1.14a35.187,35.187,0,0,0,1.652,4.09,17.428,17.428,0,0,0,1.561,2.6,9.664,9.664,0,0,0,2.476,2.4l.387.246.415.206c.273.146.572.262.869.386.6.245,1.213.475,1.844.7a34.625,34.625,0,0,0,3.99,1.119,22.322,22.322,0,0,0,7.939.4,56.818,56.818,0,0,0,6.422-1.274c1.81-.458,3.264-.871,4.272-1.149l1.161-.317a2.453,2.453,0,0,1,.41-.093" transform="translate(-6.275 -100.275)" fill="#1a2e35"/>
        <path id="Trazado_214122" data-name="Trazado 214122" d="M49.8,116.124a6.68,6.68,0,0,0-1.527-7.309,7.518,7.518,0,0,0-7.4-1.6,5.7,5.7,0,0,0-2.888,1.976,5.276,5.276,0,0,0,.293,6.11,7.7,7.7,0,0,0,5.714,2.777,14.652,14.652,0,0,0,6.364-1.317" transform="translate(-12.798 -36.813)" fill="#1a2e35"/>
        <path id="Trazado_214123" data-name="Trazado 214123" d="M82.6,245.647c3.655,3.016,12.256,10.154,12.256,10.154l4.816-.857L85.08,242.669a1.938,1.938,0,1,0-2.482,2.978" transform="translate(-28.215 -83.452)" fill="#375a64"/>
        <path id="Trazado_214124" data-name="Trazado 214124" d="M81.223,243.314l-1.895-1.71a.925.925,0,1,1,1.245-1.369L82.4,241.9Z" transform="translate(-27.226 -82.686)" fill="#375a64"/>
        <path id="Trazado_214125" data-name="Trazado 214125" d="M89.639,246.46a12.7,12.7,0,0,1-2.545,2.689,12.659,12.659,0,0,1,2.545-2.689" transform="translate(-30.006 -84.914)" fill="#1a2e35"/>
        <path id="Trazado_214126" data-name="Trazado 214126" d="M87.791,251.153a9.287,9.287,0,0,1-1.456-.952c-.871-.628-2.046-1.537-3.283-2.614a5.43,5.43,0,0,1-1.536-1.769,2.528,2.528,0,0,1-.049-1.92,2.4,2.4,0,0,1,.773-1.039.966.966,0,0,1,.415-.226,4.313,4.313,0,0,1-.347.307,2.531,2.531,0,0,0-.66,1.024,2.392,2.392,0,0,0,.1,1.751,5.448,5.448,0,0,0,1.487,1.666c1.23,1.072,2.381,2,3.22,2.666a13.208,13.208,0,0,1,1.34,1.105" transform="translate(-28.012 -83.595)" fill="#1a2e35"/>
        <path id="Trazado_214127" data-name="Trazado 214127" d="M67.087,272.946c3.465-1.164,7.148-.38,10.613-1.544a9.193,9.193,0,0,0,3.275-1.614c1.1-.979,1.66-2.415,2.539-3.6,2.623-3.532,7.523-4.264,11.9-4.713a8.87,8.87,0,0,1,3.064.044,3,3,0,0,1,2.227,1.922,1.844,1.844,0,0,1-1.381,2.324,2.216,2.216,0,0,1,1.807,1.96c.176.944.02,1.921.146,2.872.178,1.337.909,2.588.867,3.936a4.959,4.959,0,0,1-3.291,4.074,21.766,21.766,0,0,1-5.417,1.06c-8.973,1.262-15.8,6.357-24.451,10.207" transform="translate(-23.114 -90.05)" fill="#ffc19d"/>
        <path id="Trazado_214128" data-name="Trazado 214128" d="M117.2,269.768a1.238,1.238,0,0,0,1.768.364,1.9,1.9,0,0,0,.677-1.826,4.253,4.253,0,0,0-.865-1.838,23.611,23.611,0,0,0-2.511-2.773l-2.78,2.328Z" transform="translate(-39.103 -90.852)" fill="#ffc19d"/>
        <path id="Trazado_214129" data-name="Trazado 214129" d="M113.687,268.24c-.005.085-1.7-.054-3.759.265-2.059.3-3.64.937-3.67.857a3.651,3.651,0,0,1,1.015-.468,13.936,13.936,0,0,1,5.307-.8,3.657,3.657,0,0,1,1.108.147" transform="translate(-36.61 -92.363)" fill="#ff9c6a"/>
        <path id="Trazado_214130" data-name="Trazado 214130" d="M116.111,276.4c-.016.083-1.43-.207-3.19-.157s-3.158.4-3.178.315a10.231,10.231,0,0,1,6.368-.158" transform="translate(-37.81 -95.082)" fill="#ff9c6a"/>
        <path id="Trazado_214131" data-name="Trazado 214131" d="M118.3,270.649c-.044,0,0-.409-.076-1.047a5.512,5.512,0,0,0-.842-2.321,5.35,5.35,0,0,0-.357-.484l-.079-.1.087-.086a2.515,2.515,0,0,0,.722-1.839c-.013-.519-.157-.817-.116-.833a1.379,1.379,0,0,1,.292.822,2.54,2.54,0,0,1-.711,2.042l.009-.183a5.218,5.218,0,0,1,.38.509,5,5,0,0,1,.806,2.454,2.334,2.334,0,0,1-.115,1.063" transform="translate(-40.292 -90.938)" fill="#ff9c6a"/>
        <path id="Trazado_214132" data-name="Trazado 214132" d="M119.148,272.506l4.559,4.278.583,2.541-4.216-.952a18.26,18.26,0,0,1-.926-5.867" transform="translate(-41.044 -93.889)" fill="#375a64"/>
        <path id="Trazado_214133" data-name="Trazado 214133" d="M96.813,280.2c-.093.167-24.6,12.25-24.6,12.25v2.6l25.008-13.008,31.03-1.171v-1.84Z" transform="translate(-24.88 -96.137)" fill="#f5f5f5"/>
        <path id="Trazado_214134" data-name="Trazado 214134" d="M72.213,296.393c.172-.117,27.057-2.541,27.057-2.541l28.981-12.013-31.03,1.171L72.213,296.02Z" transform="translate(-24.88 -97.104)" fill="#1a2e35"/>
        <path id="Trazado_214135" data-name="Trazado 214135" d="M111.476,290.941c-.218-1.408,1.131-2.615,2.505-2.991s2.844-.227,4.234-.543a19.286,19.286,0,0,0,2.583-.92c4.286-1.645,8.988-1.73,13.579-1.794a2.915,2.915,0,0,1-1.042,3.562,4.794,4.794,0,0,1-.142,3.442,10.733,10.733,0,0,1-1.915,2.942,6.687,6.687,0,0,1-2.265,1.9,7.558,7.558,0,0,1-2.907.446c-3.079.065-6.382.068-8.929-1.664-1.979-1.345-3.353-3.654-5.646-4.336l.544.022" transform="translate(-38.4 -98.087)" fill="#ffc19d"/>
        <path id="Trazado_214136" data-name="Trazado 214136" d="M136.036,290.3a2.436,2.436,0,0,1-.589.056l-1.608.052c-1.358.031-3.233.056-5.305.066H125.61a4.02,4.02,0,0,1-1.291-.2,1.986,1.986,0,0,1-.935-.68,1.243,1.243,0,0,1-.244-.926,1.158,1.158,0,0,1,.324-.643.65.65,0,0,1,.551-.229,1.184,1.184,0,0,0-.474.3,1.071,1.071,0,0,0,0,1.381,1.814,1.814,0,0,0,.854.582,3.921,3.921,0,0,0,1.221.161l2.919-.023c2.071-.01,3.947,0,5.305.014l1.609.035a2.486,2.486,0,0,1,.59.05" transform="translate(-42.421 -99.155)" fill="#ff9c6a"/>
        <path id="Trazado_214137" data-name="Trazado 214137" d="M130.429,294.944a3.945,3.945,0,0,1-.74.145c-.479.074-1.174.173-2.039.256a19.851,19.851,0,0,1-3.055.073,22.514,22.514,0,0,1-3.689-.62,28.7,28.7,0,0,0-6.675-.819c-.863,0-1.561.03-2.044.056a4.481,4.481,0,0,1-.753.023,3.637,3.637,0,0,1,.744-.128c.482-.059,1.182-.123,2.052-.144a26.036,26.036,0,0,1,6.737.746,23.971,23.971,0,0,0,3.646.636,21.753,21.753,0,0,0,3.023-.014c.862-.058,1.559-.128,2.041-.17a4.079,4.079,0,0,1,.753-.039" transform="translate(-38.393 -101.217)" fill="#ff9c6a"/>
        <path id="Trazado_214138" data-name="Trazado 214138" d="M128.944,298.47a2.393,2.393,0,0,1-.577.108c-.373.049-.914.116-1.586.173a19.071,19.071,0,0,1-5.269-.17,23.264,23.264,0,0,1-4.9-1.934,12.512,12.512,0,0,0-2.063-.634,1.822,1.822,0,0,1,.588.031,7.493,7.493,0,0,1,1.547.424,27.29,27.29,0,0,0,4.88,1.846,21.532,21.532,0,0,0,5.2.245l1.589-.087a2.419,2.419,0,0,1,.587,0" transform="translate(-39.467 -101.984)" fill="#ff9c6a"/>
        <g id="Grupo_149110" data-name="Grupo 149110" transform="translate(82.526 172.349)" opacity="0.2">
          <g id="Grupo_149109" data-name="Grupo 149109">
            <g id="Grupo_149108" data-name="Grupo 149108" clip-path="url(#clip-path-7)">
              <path id="Trazado_214139" data-name="Trazado 214139" d="M125.905,273.052a17.621,17.621,0,0,1,1.527-5.524,8.528,8.528,0,0,1,3.947-4.038,5.676,5.676,0,0,1,5.493.337,2.857,2.857,0,0,1,1.095,1.307,1.6,1.6,0,0,1-.263,1.624c-.578.613-1.553.515-2.394.478a10.078,10.078,0,0,0-9.317,5.613" transform="translate(-125.905 -262.943)"/>
            </g>
          </g>
        </g>
        <g id="Grupo_149113" data-name="Grupo 149113" transform="translate(31.674 156.712)" opacity="0.2">
          <g id="Grupo_149112" data-name="Grupo 149112">
            <g id="Grupo_149111" data-name="Grupo 149111" clip-path="url(#clip-path-8)">
              <path id="Trazado_214140" data-name="Trazado 214140" d="M53.794,263.241c2.076-3.745,1.34-8.443-.253-12.418s-3.974-7.63-5.191-11.736a72.462,72.462,0,0,0,3.579,24.543" transform="translate(-48.323 -239.087)"/>
            </g>
          </g>
        </g>
        <path id="Trazado_214141" data-name="Trazado 214141" d="M59.247,187.509s2.535,5.975,11.678,5.594,9.439-7.475,9.439-7.475l6.117,6.5L80.67,204.109l-7.806,5.827L62.23,205.566l-8.762-6.8Z" transform="translate(-18.422 -63.956)" fill="#54a813"/>
        <g id="Grupo_149116" data-name="Grupo 149116" transform="translate(13.722 149.076)" opacity="0.5">
          <g id="Grupo_149115" data-name="Grupo 149115">
            <g id="Grupo_149114" data-name="Grupo 149114" clip-path="url(#clip-path-9)">
              <path id="Trazado_214142" data-name="Trazado 214142" d="M26.625,227.448a12.412,12.412,0,0,1-2.672,2.492,12.429,12.429,0,0,1-3.012,2.068,12.424,12.424,0,0,1,2.672-2.493,12.447,12.447,0,0,1,3.012-2.067" transform="translate(-20.936 -227.437)" fill="#fafafa"/>
            </g>
          </g>
        </g>
        <path id="Trazado_214143" data-name="Trazado 214143" d="M33.236,215.829a6.769,6.769,0,0,1-3.053-1.236A6.765,6.765,0,0,1,27.7,212.43a19.852,19.852,0,0,1,2.769,1.7,19.772,19.772,0,0,1,2.768,1.7" transform="translate(-9.541 -73.186)" fill="#fafafa"/>
        <path id="Trazado_214144" data-name="Trazado 214144" d="M45.606,218.686a31.3,31.3,0,0,1-2.347,3.907,31.323,31.323,0,0,1-2.449,3.843,14.056,14.056,0,0,1,1.986-4.129,14.048,14.048,0,0,1,2.809-3.62" transform="translate(-14.056 -75.344)" fill="#fafafa"/>
        <path id="Trazado_214145" data-name="Trazado 214145" d="M35.9,242.983a8.759,8.759,0,0,1-2.369-2.962,8.751,8.751,0,0,1-1.4-3.526A27.766,27.766,0,0,1,34,239.747a27.9,27.9,0,0,1,1.9,3.235" transform="translate(-11.064 -81.481)" fill="#fafafa"/>
        <path id="Trazado_214146" data-name="Trazado 214146" d="M26.723,256.639a17.055,17.055,0,0,1-.819-6.014,8.7,8.7,0,0,1,.679,2.971,8.7,8.7,0,0,1,.14,3.044" transform="translate(-8.897 -86.35)" fill="#fafafa"/>
        <g id="Grupo_149119" data-name="Grupo 149119" transform="translate(24.414 166.698)" opacity="0.5">
          <g id="Grupo_149118" data-name="Grupo 149118">
            <g id="Grupo_149117" data-name="Grupo 149117" clip-path="url(#clip-path-10)">
              <path id="Trazado_214147" data-name="Trazado 214147" d="M37.264,260.307a11.226,11.226,0,0,1,1.5-3.128,11.193,11.193,0,0,1,1.971-2.855,11.227,11.227,0,0,1-1.5,3.128,11.235,11.235,0,0,1-1.97,2.855" transform="translate(-37.247 -254.321)" fill="#fafafa"/>
            </g>
          </g>
        </g>
        <path id="Trazado_214148" data-name="Trazado 214148" d="M23.425,274.225a9.11,9.11,0,0,1-2.4-2.7,9.109,9.109,0,0,1-1.652-3.215,18.131,18.131,0,0,1,2.1,2.908,18.137,18.137,0,0,1,1.956,3.006" transform="translate(-6.667 -92.442)" fill="#fafafa"/>
        <path id="Trazado_214149" data-name="Trazado 214149" d="M38.448,275.042a15.533,15.533,0,0,1-2.679,3.09A15.554,15.554,0,0,1,32.7,280.84a15.534,15.534,0,0,1,2.68-3.091,15.545,15.545,0,0,1,3.066-2.707" transform="translate(-11.265 -94.76)" fill="#fafafa"/>
        <g id="Grupo_149122" data-name="Grupo 149122" transform="translate(17.483 193.701)" opacity="0.5">
          <g id="Grupo_149121" data-name="Grupo 149121">
            <g id="Grupo_149120" data-name="Grupo 149120" clip-path="url(#clip-path-11)">
              <path id="Trazado_214150" data-name="Trazado 214150" d="M30.447,300.877a6.965,6.965,0,0,1-2.311-2.374,6.975,6.975,0,0,1-1.443-2.982,18.905,18.905,0,0,1,1.888,2.67,18.9,18.9,0,0,1,1.865,2.686" transform="translate(-26.673 -295.518)" fill="#fafafa"/>
            </g>
          </g>
        </g>
        <path id="Trazado_214151" data-name="Trazado 214151" d="M49.794,297.886a11.21,11.21,0,0,1-2.869,1.949,11.207,11.207,0,0,1-3.139,1.477,11.23,11.23,0,0,1,2.869-1.949,11.235,11.235,0,0,1,3.139-1.477" transform="translate(-15.085 -102.627)" fill="#fafafa"/>
        <path id="Trazado_214152" data-name="Trazado 214152" d="M58.887,288.474a6.826,6.826,0,0,1-2.419-2.341,6.83,6.83,0,0,1-1.494-3.017,22.99,22.99,0,0,1,1.933,2.7,22.943,22.943,0,0,1,1.979,2.662" transform="translate(-18.934 -97.544)" fill="#fafafa"/>
        <path id="Trazado_214153" data-name="Trazado 214153" d="M71.638,245.374a15.439,15.439,0,0,1-3.09,2.654,15.458,15.458,0,0,1-3.417,2.218,15.386,15.386,0,0,1,3.09-2.654,15.447,15.447,0,0,1,3.416-2.218" transform="translate(-22.439 -84.537)" fill="#fafafa"/>
        <path id="Trazado_214154" data-name="Trazado 214154" d="M60.141,241.086a18.773,18.773,0,0,1,.65-6.34,18.817,18.817,0,0,1-.65,6.34" transform="translate(-20.687 -80.879)" fill="#fafafa"/>
        <g id="Grupo_149125" data-name="Grupo 149125" transform="translate(42.037 142.501)" opacity="0.5">
          <g id="Grupo_149124" data-name="Grupo 149124">
            <g id="Grupo_149123" data-name="Grupo 149123" clip-path="url(#clip-path-12)">
              <path id="Trazado_214155" data-name="Trazado 214155" d="M70.536,222.869a12.785,12.785,0,0,1-3.481-2.4,12.8,12.8,0,0,1-2.916-3.06,23.355,23.355,0,0,1,3.269,2.645,23.323,23.323,0,0,1,3.128,2.811" transform="translate(-64.133 -217.405)" fill="#fafafa"/>
            </g>
          </g>
        </g>
        <path id="Trazado_214156" data-name="Trazado 214156" d="M60.7,202.443a16.952,16.952,0,0,1-2.553,3.43,16.961,16.961,0,0,1-2.968,3.079,16.966,16.966,0,0,1,2.553-3.431,16.969,16.969,0,0,1,2.968-3.078" transform="translate(-19.009 -69.748)" fill="#fafafa"/>
        <g id="Grupo_149128" data-name="Grupo 149128" transform="translate(28.404 129.094)" opacity="0.5">
          <g id="Grupo_149127" data-name="Grupo 149127">
            <g id="Grupo_149126" data-name="Grupo 149126" clip-path="url(#clip-path-13)">
              <path id="Trazado_214157" data-name="Trazado 214157" d="M48.892,198.916a18.629,18.629,0,0,1-2.768-.975,18.674,18.674,0,0,1-2.79-.909,5.365,5.365,0,0,1,2.965.394,5.371,5.371,0,0,1,2.593,1.491" transform="translate(-43.334 -196.951)" fill="#fafafa"/>
            </g>
          </g>
        </g>
        <path id="Trazado_214158" data-name="Trazado 214158" d="M81.765,207.784a15.372,15.372,0,0,1,1.625-5.528,15.373,15.373,0,0,1-1.625,5.528" transform="translate(-28.157 -69.685)" fill="#fafafa"/>
        <path id="Trazado_214159" data-name="Trazado 214159" d="M88.869,226.135a14.221,14.221,0,0,1,.318-5.528,14.219,14.219,0,0,1-.318,5.528" transform="translate(-30.565 -76.007)" fill="#fafafa"/>
        <path id="Trazado_214160" data-name="Trazado 214160" d="M98.22,240.791a8.83,8.83,0,0,1-2.555-1.7,8.816,8.816,0,0,1-2.214-2.129,8.814,8.814,0,0,1,2.555,1.7,8.831,8.831,0,0,1,2.214,2.129" transform="translate(-32.195 -81.636)" fill="#fafafa"/>
        <path id="Trazado_214161" data-name="Trazado 214161" d="M110.69,223.578a10.117,10.117,0,0,1-2.28,2.374,10.107,10.107,0,0,1-2.641,1.966,10.158,10.158,0,0,1,2.28-2.374,10.117,10.117,0,0,1,2.64-1.966" transform="translate(-36.439 -77.028)" fill="#fafafa"/>
        <g id="Grupo_149131" data-name="Grupo 149131" transform="translate(65.473 136.456)" opacity="0.5">
          <g id="Grupo_149130" data-name="Grupo 149130">
            <g id="Grupo_149129" data-name="Grupo 149129" clip-path="url(#clip-path-14)">
              <path id="Trazado_214162" data-name="Trazado 214162" d="M104.885,212.328a12.615,12.615,0,0,1-4.988-4.136,13.551,13.551,0,0,1,2.571,1.974,13.572,13.572,0,0,1,2.417,2.162" transform="translate(-99.889 -208.183)" fill="#fafafa"/>
            </g>
          </g>
        </g>
        <path id="Trazado_214163" data-name="Trazado 214163" d="M119.937,198.32a7.662,7.662,0,0,1-3.941,3.7c-.085-.13.864-.876,1.935-1.889s1.881-1.907,2.006-1.814" transform="translate(-39.963 -68.326)" fill="#fafafa"/>
        <g id="Grupo_149134" data-name="Grupo 149134" transform="translate(66.29 127.165)" opacity="0.5">
          <g id="Grupo_149133" data-name="Grupo 149133">
            <g id="Grupo_149132" data-name="Grupo 149132" clip-path="url(#clip-path-15)">
              <path id="Trazado_214164" data-name="Trazado 214164" d="M108.283,195.843a9.875,9.875,0,0,1-3.68-.48,9.887,9.887,0,0,1-3.467-1.327,18.063,18.063,0,0,1,3.6.8,18.1,18.1,0,0,1,3.547,1.008" transform="translate(-101.134 -194.008)" fill="#fafafa"/>
            </g>
          </g>
        </g>
        <g id="Grupo_149137" data-name="Grupo 149137" transform="translate(85.543 137.129)" opacity="0.5">
          <g id="Grupo_149136" data-name="Grupo 149136">
            <g id="Grupo_149135" data-name="Grupo 149135" clip-path="url(#clip-path-16)">
              <path id="Trazado_214165" data-name="Trazado 214165" d="M130.542,217.969a24.7,24.7,0,0,1,2.676-8.759,27.1,27.1,0,0,1-1.226,4.414,27.153,27.153,0,0,1-1.449,4.345" transform="translate(-130.508 -209.209)" fill="#fafafa"/>
            </g>
          </g>
        </g>
        <path id="Trazado_214166" data-name="Trazado 214166" d="M131.835,237.167a28.226,28.226,0,0,1-5.368-5.687,14.288,14.288,0,0,1,2.881,2.657,14.275,14.275,0,0,1,2.486,3.03" transform="translate(-43.57 -79.751)" fill="#fafafa"/>
        <g id="Grupo_149140" data-name="Grupo 149140" transform="translate(92.215 156.306)" opacity="0.5">
          <g id="Grupo_149139" data-name="Grupo 149139">
            <g id="Grupo_149138" data-name="Grupo 149138" clip-path="url(#clip-path-17)">
              <path id="Trazado_214167" data-name="Trazado 214167" d="M140.9,246.107a26.939,26.939,0,0,1,.13-7.641,26.941,26.941,0,0,1-.13,7.641" transform="translate(-140.687 -238.466)" fill="#fafafa"/>
            </g>
          </g>
        </g>
        <path id="Trazado_214168" data-name="Trazado 214168" d="M132.6,262.928a16.223,16.223,0,0,1-3.709-6.849,22.333,22.333,0,0,1,1.917,3.391,22.38,22.38,0,0,1,1.793,3.458" transform="translate(-44.402 -88.228)" fill="#fafafa"/>
        <path id="Trazado_214169" data-name="Trazado 214169" d="M149.127,269.518c.1.108-.62.986-1.619,1.962s-1.894,1.679-2,1.572.62-.986,1.62-1.962,1.894-1.679,2-1.572" transform="translate(-50.129 -92.855)" fill="#fafafa"/>
        <g id="Grupo_149143" data-name="Grupo 149143" transform="translate(72.696 158.123)" opacity="0.5">
          <g id="Grupo_149142" data-name="Grupo 149142">
            <g id="Grupo_149141" data-name="Grupo 149141" clip-path="url(#clip-path-18)">
              <path id="Trazado_214170" data-name="Trazado 214170" d="M110.93,247.523a10.656,10.656,0,0,1,4.331-6.276c.107.119-1.116,1.32-2.3,3.047s-1.883,3.288-2.033,3.229" transform="translate(-110.908 -241.239)" fill="#fafafa"/>
            </g>
          </g>
        </g>
        <path id="Trazado_214171" data-name="Trazado 214171" d="M64.427,269.12A22.748,22.748,0,0,1,66.1,262.3a22.736,22.736,0,0,1-1.677,6.815" transform="translate(-22.184 -90.374)" fill="#fafafa"/>
        <path id="Trazado_214172" data-name="Trazado 214172" d="M81.133,272.755a10.2,10.2,0,0,1-2.907-1.57,10.178,10.178,0,0,1-2.609-2.025,10.2,10.2,0,0,1,2.906,1.57,10.2,10.2,0,0,1,2.609,2.025" transform="translate(-26.051 -92.73)" fill="#fafafa"/>
        <path id="Trazado_214173" data-name="Trazado 214173" d="M81.841,258.727c-.125.083-.737-.613-1.366-1.555s-1.039-1.773-.914-1.857.736.613,1.366,1.555,1.039,1.774.914,1.857" transform="translate(-27.404 -87.963)" fill="#fafafa"/>
        <path id="Trazado_214174" data-name="Trazado 214174" d="M90.227,263.73c.087.123-.463.658-1.228,1.195s-1.454.872-1.541.749.463-.657,1.228-1.195,1.454-.872,1.54-.749" transform="translate(-30.13 -90.856)" fill="#fafafa"/>
        <g id="Grupo_149146" data-name="Grupo 149146" transform="translate(45.272 205.079)" opacity="0.5">
          <g id="Grupo_149145" data-name="Grupo 149145">
            <g id="Grupo_149144" data-name="Grupo 149144" clip-path="url(#clip-path-19)">
              <path id="Trazado_214175" data-name="Trazado 214175" d="M69.114,318.242a39.722,39.722,0,0,1,.8-5.366,8.367,8.367,0,0,1-.8,5.366" transform="translate(-69.069 -312.876)" fill="#fafafa"/>
            </g>
          </g>
        </g>
        <g id="Grupo_149149" data-name="Grupo 149149" transform="translate(54.368 199.244)" opacity="0.5">
          <g id="Grupo_149148" data-name="Grupo 149148">
            <g id="Grupo_149147" data-name="Grupo 149147" clip-path="url(#clip-path-20)">
              <path id="Trazado_214176" data-name="Trazado 214176" d="M86.919,310.935a29.589,29.589,0,0,1-3.96-6.958,14.924,14.924,0,0,1,2.217,3.344,14.989,14.989,0,0,1,1.743,3.614" transform="translate(-82.945 -303.975)" fill="#fafafa"/>
            </g>
          </g>
        </g>
        <g id="Grupo_149152" data-name="Grupo 149152" transform="translate(65.867 200.374)" opacity="0.5">
          <g id="Grupo_149151" data-name="Grupo 149151">
            <g id="Grupo_149150" data-name="Grupo 149150" clip-path="url(#clip-path-21)">
              <path id="Trazado_214177" data-name="Trazado 214177" d="M106.779,305.7a24.809,24.809,0,0,1-2.925,4.271,24.75,24.75,0,0,1-3.357,3.941,24.791,24.791,0,0,1,2.925-4.271,24.818,24.818,0,0,1,3.357-3.941" transform="translate(-100.49 -305.699)" fill="#fafafa"/>
            </g>
          </g>
        </g>
        <g id="Grupo_149155" data-name="Grupo 149155" transform="translate(68.243 211.412)" opacity="0.5">
          <g id="Grupo_149154" data-name="Grupo 149154">
            <g id="Grupo_149153" data-name="Grupo 149153" clip-path="url(#clip-path-22)">
              <path id="Trazado_214178" data-name="Trazado 214178" d="M111.92,322.6a14.526,14.526,0,0,1-3.863.834,14.5,14.5,0,0,1-3.941.295,14.522,14.522,0,0,1,3.863-.834,14.531,14.531,0,0,1,3.941-.295" transform="translate(-104.115 -322.539)" fill="#fafafa"/>
            </g>
          </g>
        </g>
        <path id="Trazado_214179" data-name="Trazado 214179" d="M116.9,311.458a46.077,46.077,0,0,1,.219-5.032,6.9,6.9,0,0,1-.219,5.032" transform="translate(-40.253 -105.575)" fill="#fafafa"/>
        <path id="Trazado_214180" data-name="Trazado 214180" d="M85.74,322.068a9.177,9.177,0,0,1-5.2-3.739,21.912,21.912,0,0,1,2.583,1.9,21.884,21.884,0,0,1,2.62,1.843" transform="translate(-27.745 -109.674)" fill="#fafafa"/>
        <path id="Trazado_214181" data-name="Trazado 214181" d="M54.64,320.044a13.322,13.322,0,0,1,1.309-5.2,13.344,13.344,0,0,1-1.309,5.2" transform="translate(-18.808 -108.475)" fill="#fafafa"/>
        <path id="Trazado_214182" data-name="Trazado 214182" d="M50.993,121.112c.034-.043.627.468,1.721,1.068a12.642,12.642,0,0,0,2,.874,12.766,12.766,0,0,0,5.278.608,12.585,12.585,0,0,0,2.149-.4c1.2-.336,1.9-.7,1.919-.649a2.133,2.133,0,0,1-.475.275,4.66,4.66,0,0,1-.587.267,7.6,7.6,0,0,1-.8.292,11.369,11.369,0,0,1-2.177.461,12.112,12.112,0,0,1-5.385-.619,11.405,11.405,0,0,1-2.016-.944,7.888,7.888,0,0,1-.716-.467,4.641,4.641,0,0,1-.511-.393,2.121,2.121,0,0,1-.4-.376" transform="translate(-17.569 -41.727)" fill="#375a64"/>
        <path id="Trazado_214183" data-name="Trazado 214183" d="M64.65,128.161a2.44,2.44,0,0,1-.57.176c-.371.094-.912.216-1.588.334a14.492,14.492,0,0,1-5.353.032,8.332,8.332,0,0,1-4.625-2.637,5.691,5.691,0,0,1-.876-1.378,2,2,0,0,1-.191-.566,9.274,9.274,0,0,0,1.212,1.818,8.529,8.529,0,0,0,4.536,2.5,15.68,15.68,0,0,0,5.269.045c.674-.092,1.219-.185,1.6-.248a2.608,2.608,0,0,1,.591-.073" transform="translate(-17.725 -42.764)" fill="#375a64"/>
        <path id="Trazado_214184" data-name="Trazado 214184" d="M42.815,162.748s-.027-.022-.069-.072a2.753,2.753,0,0,1-.178-.233,3,3,0,0,1-.417-1.046,4.8,4.8,0,0,1,1.149-3.882,9.837,9.837,0,0,1,2.186-1.844c.857-.566,1.82-1.085,2.765-1.722a8.43,8.43,0,0,0,2.518-2.459,4.462,4.462,0,0,0,.626-1.727,5.393,5.393,0,0,0-.1-1.9,23.681,23.681,0,0,0-1.323-3.6,9.994,9.994,0,0,1-.884-3.518,9.385,9.385,0,0,1,1.793-5.792,8.778,8.778,0,0,1,3.082-2.717l.585-.281.449-.157a2.068,2.068,0,0,1,.374-.111,2.129,2.129,0,0,1-.355.163l-.435.18-.568.3a8.966,8.966,0,0,0-2.976,2.735,9.28,9.28,0,0,0-1.7,5.67,9.823,9.823,0,0,0,.88,3.429A23.375,23.375,0,0,1,51.56,147.8a5.649,5.649,0,0,1,.1,2A4.71,4.71,0,0,1,51,151.629a8.605,8.605,0,0,1-2.6,2.527c-.965.641-1.93,1.152-2.782,1.7a9.772,9.772,0,0,0-2.162,1.78,4.743,4.743,0,0,0-1.191,3.738,3.611,3.611,0,0,0,.559,1.371" transform="translate(-14.499 -45.369)" fill="#375a64"/>
        <path id="Trazado_214185" data-name="Trazado 214185" d="M62.493,163.619a1.643,1.643,0,0,1-.3-.17,2.453,2.453,0,0,1-.674-.734,3.512,3.512,0,0,1-.471-1.506,5.716,5.716,0,0,1,.228-2.078c.425-1.534,1.707-2.93,2.669-4.683a5.864,5.864,0,0,0,.786-2.978,7.984,7.984,0,0,0-.84-3.226c-.992-2.1-2.519-3.771-3.573-5.52a11.378,11.378,0,0,1-1.233-2.627,6.346,6.346,0,0,1-.256-2.52,4.989,4.989,0,0,1,1.521-3.268,3.54,3.54,0,0,1,.838-.537,1.679,1.679,0,0,1,.326-.117,5.349,5.349,0,0,0-1.093.733,4.968,4.968,0,0,0-1.4,3.207,6.219,6.219,0,0,0,.281,2.435,11.307,11.307,0,0,0,1.23,2.562c.534.855,1.167,1.708,1.812,2.606a18.53,18.53,0,0,1,1.795,2.931A8.2,8.2,0,0,1,65,151.466a6.083,6.083,0,0,1-.831,3.1c-1,1.784-2.28,3.152-2.706,4.619a5.653,5.653,0,0,0-.26,2.01,3.478,3.478,0,0,0,.41,1.464,3.1,3.1,0,0,0,.886.958" transform="translate(-20.258 -46.049)" fill="#375a64"/>
        <path id="Trazado_214186" data-name="Trazado 214186" d="M88.185,112.709c0,.009-.072-.02-.2-.083a3.953,3.953,0,0,1-.518-.33,6.315,6.315,0,0,1-1.5-1.676,18.642,18.642,0,0,1-1.447-3c-.241-.575-.5-1.175-.813-1.768a10.9,10.9,0,0,0-1.154-1.723,11.821,11.821,0,0,0-6.04-3.893,16.321,16.321,0,0,0-3.005-.431,4.432,4.432,0,0,1,.823-.047,10.869,10.869,0,0,1,2.231.291,11.59,11.59,0,0,1,6.2,3.907,10.935,10.935,0,0,1,1.179,1.77c.32.609.574,1.219.809,1.8a20.086,20.086,0,0,0,1.378,2.995,6.786,6.786,0,0,0,1.406,1.7c.4.336.661.474.649.5" transform="translate(-25.326 -34.37)" fill="#375a64"/>
        <path id="Trazado_214187" data-name="Trazado 214187" d="M95.573,112.363a1.121,1.121,0,0,1-.281-.029,4.248,4.248,0,0,1-.785-.2,6.791,6.791,0,0,1-2.491-1.619,15.025,15.025,0,0,1-2.586-3.572,27.444,27.444,0,0,0-2.841-4.526,8.921,8.921,0,0,0-4.434-2.766,17.3,17.3,0,0,0-4.315-.576c-1.247-.028-2.257.025-2.956.052l-.8.031a1.127,1.127,0,0,1-.282-.007,1.069,1.069,0,0,1,.278-.048c.183-.022.453-.053.8-.082.7-.06,1.709-.142,2.965-.138a16.8,16.8,0,0,1,4.38.526,9.069,9.069,0,0,1,4.572,2.83,26.476,26.476,0,0,1,2.855,4.582,15.382,15.382,0,0,0,2.5,3.557,7.039,7.039,0,0,0,2.393,1.656c.646.254,1.034.3,1.028.332" transform="translate(-25.426 -34.067)" fill="#375a64"/>
        <path id="Trazado_214188" data-name="Trazado 214188" d="M121.313,158.032c-.03-.012.134-.371.307-1.055a9.893,9.893,0,0,0-2.291-9.289c-.6-.672-1.3-1.311-2-1.98a18.127,18.127,0,0,1-1.937-2.078A12.9,12.9,0,0,1,114,141.373a13.253,13.253,0,0,1-1.236-4.3,12.189,12.189,0,0,1,.03-3.012,7.441,7.441,0,0,1,.144-.806,1.127,1.127,0,0,1,.076-.276c.028.005-.052.391-.115,1.094a13.4,13.4,0,0,0,.056,2.978,12.74,12.74,0,0,0,.419,2.012,12.551,12.551,0,0,0,.851,2.2,12.929,12.929,0,0,0,1.378,2.2,18.418,18.418,0,0,0,1.915,2.045c.7.667,1.395,1.312,2.008,2a10.1,10.1,0,0,1,1.518,2.178,9.924,9.924,0,0,1,1.08,4.333,9.388,9.388,0,0,1-.4,2.986,6.091,6.091,0,0,1-.283.77,1.133,1.133,0,0,1-.126.257" transform="translate(-38.825 -45.818)" fill="#375a64"/>
        <path id="Trazado_214189" data-name="Trazado 214189" d="M38.5,116.317a1.569,1.569,0,0,1,.067-.513,4.99,4.99,0,0,1,.513-1.314,5.584,5.584,0,0,1,8.119-1.942,5.038,5.038,0,0,1,1.053.94,1.566,1.566,0,0,1,.291.427,9.372,9.372,0,0,0-1.449-1.2,5.558,5.558,0,0,0-7.848,1.877,9.439,9.439,0,0,0-.746,1.73" transform="translate(-13.263 -38.434)" fill="#375a64"/>
        <path id="Trazado_214190" data-name="Trazado 214190" d="M46.224,119.742a4.25,4.25,0,0,1,.146-1.186,5.232,5.232,0,0,1,1.236-2.62,2.769,2.769,0,0,1,2.77-.7,1.624,1.624,0,0,1,.741.507c.131.167.171.279.159.285a2.445,2.445,0,0,0-.958-.609,2.686,2.686,0,0,0-2.517.708,5.65,5.65,0,0,0-1.243,2.475,6.675,6.675,0,0,1-.333,1.141" transform="translate(-15.922 -39.659)" fill="#375a64"/>
        <path id="Trazado_214191" data-name="Trazado 214191" d="M55.239,110.5a23.591,23.591,0,0,0-1.373,2.847,23.408,23.408,0,0,0-.709,3.08,8.217,8.217,0,0,1,2.082-5.927" transform="translate(-18.299 -38.07)" fill="#54a813"/>
        <path id="Trazado_214192" data-name="Trazado 214192" d="M183.909,129.08a1.627,1.627,0,1,0,1.626-1.626,1.626,1.626,0,0,0-1.626,1.626" transform="translate(-63.364 -43.913)" fill="#375a64"/>
        <path id="Trazado_214193" data-name="Trazado 214193" d="M173.979,129.08a1.627,1.627,0,1,0,1.626-1.626,1.626,1.626,0,0,0-1.626,1.626" transform="translate(-59.942 -43.913)" fill="#375a64"/>
        <path id="Trazado_214194" data-name="Trazado 214194" d="M163.959,128.266a1.627,1.627,0,1,0,2.222-.6,1.627,1.627,0,0,0-2.222.6" transform="translate(-56.415 -43.912)" fill="#375a64"/>
        <path id="Trazado_214195" data-name="Trazado 214195" d="M166.23,100.948a1.869,1.869,0,0,0-.329-.005l-.966.027c-.212.01-.451.01-.712.032l-.853.119-.995.143-1.111.276a17.992,17.992,0,0,0-5.388,2.349,19.008,19.008,0,0,0-8.733,14.29,19.649,19.649,0,0,0-.052,2.6c.031.44.022.889.086,1.333s.134.891.2,1.342a19.1,19.1,0,0,0,1.81,5.3,20.428,20.428,0,0,0,3.463,4.765,20.014,20.014,0,0,0,4.989,3.584,18.137,18.137,0,0,0,6.081,1.866,12.154,12.154,0,0,0,1.622.138,14.69,14.69,0,0,0,1.639.029,19.489,19.489,0,0,0,3.285-.415,19.194,19.194,0,0,0,6.538-2.751l-.2.02,6.66,2.673.394.159-.112-.41q-1.009-3.665-1.958-7.12l-.033.176a19.106,19.106,0,0,0,3.553-8.136,17.266,17.266,0,0,0,.259-4.167,13.423,13.423,0,0,0-.189-2q-.076-.49-.151-.974c-.06-.32-.157-.631-.233-.943a19.044,19.044,0,0,0-7.43-10.832,18.18,18.18,0,0,0-4.422-2.333l-1-.357-.946-.24-.865-.215c-.278-.053-.545-.081-.8-.12-.5-.064-.946-.151-1.333-.17l-.979-.033-.6-.013a.914.914,0,0,0-.2.007.91.91,0,0,0,.2.028l.6.047.972.066c.385.03.823.127,1.321.2a18.941,18.941,0,0,1,15.143,14.048c.072.307.167.612.224.927s.1.636.144.957a13.122,13.122,0,0,1,.176,1.966,16.971,16.971,0,0,1-.27,4.086,18.754,18.754,0,0,1-3.505,7.958l-.06.08.026.1,1.943,7.124.281-.251-6.656-2.681-.1-.042-.094.062a18.816,18.816,0,0,1-6.392,2.687,19.139,19.139,0,0,1-3.21.406,14.207,14.207,0,0,1-1.6-.029,11.722,11.722,0,0,1-1.586-.134,17.735,17.735,0,0,1-5.947-1.819,19.639,19.639,0,0,1-4.886-3.5,20.057,20.057,0,0,1-3.4-4.656,18.773,18.773,0,0,1-1.79-5.187q-.1-.663-.2-1.315c-.066-.435-.058-.874-.09-1.306a18.776,18.776,0,0,1,8.547-16.677,18.125,18.125,0,0,1,5.3-2.389l1.1-.293.985-.161.844-.139c.259-.029.5-.035.707-.052l.961-.07a1.854,1.854,0,0,0,.328-.039" transform="translate(-50.667 -34.778)" fill="#375a64"/>
      </g>
    </g>
  </g>
</svg>
