<svg xmlns="http://www.w3.org/2000/svg" xmlns:xlink="http://www.w3.org/1999/xlink" width="535" height="530" viewBox="0 0 535 530">
  <defs>
    <filter id="Trazado_211534" x="0" y="0" width="535" height="530" filterUnits="userSpaceOnUse">
      <feOffset dy="3" input="SourceAlpha"/>
      <feGaussianBlur stdDeviation="5" result="blur"/>
      <feFlood flood-opacity="0.161"/>
      <feComposite operator="in" in2="blur"/>
      <feComposite in="SourceGraphic"/>
    </filter>
    <clipPath id="clip-path">
      <rect id="Rectángulo_45227" data-name="Rectángulo 45227" width="330.142" height="311.364" fill="none"/>
    </clipPath>
    <clipPath id="clip-path-2">
      <path id="Trazado_215210" data-name="Trazado 215210" d="M260.424,141.495a31.165,31.165,0,0,1-6.084,1.05,28.429,28.429,0,0,1-7.255-.229.132.132,0,1,0-.049.259,23.742,23.742,0,0,0,4.355.355c.951,0,1.949-.041,2.97-.123a31.5,31.5,0,0,0,6.138-1.059.132.132,0,0,0-.038-.258.152.152,0,0,0-.037,0" transform="translate(-246.929 -141.49)" fill="none"/>
    </clipPath>
    <linearGradient id="linear-gradient" x1="-73.341" y1="15.144" x2="-73.052" y2="15.144" gradientUnits="objectBoundingBox">
      <stop offset="0" stop-color="#53d8ff"/>
      <stop offset="1" stop-color="#3840f7"/>
    </linearGradient>
    <clipPath id="clip-path-3">
      <path id="Trazado_215211" data-name="Trazado 215211" d="M262.027,137.332a30.513,30.513,0,0,1-16.166,1.284.132.132,0,1,0-.072.254,20.729,20.729,0,0,0,5.347.579c.946,0,1.936-.039,2.942-.12a26.029,26.029,0,0,0,8.059-1.758.132.132,0,0,0-.055-.251.126.126,0,0,0-.055.012" transform="translate(-245.692 -137.32)" fill="none"/>
    </clipPath>
    <linearGradient id="linear-gradient-2" x1="-54.172" y1="12.758" x2="-53.959" y2="12.758" xlink:href="#linear-gradient"/>
    <clipPath id="clip-path-4">
      <path id="Trazado_215212" data-name="Trazado 215212" d="M261.934,134.059a25.752,25.752,0,0,1-7.97,1.734,24.091,24.091,0,0,1-8.5-.543.132.132,0,0,0-.082.251,19.263,19.263,0,0,0,5.636.678c.949,0,1.948-.04,2.969-.122a26.026,26.026,0,0,0,8.059-1.758.132.132,0,0,0-.056-.251.137.137,0,0,0-.055.012" transform="translate(-245.289 -134.047)" fill="none"/>
    </clipPath>
    <linearGradient id="linear-gradient-3" x1="-53.672" y1="12.682" x2="-53.461" y2="12.682" xlink:href="#linear-gradient"/>
    <clipPath id="clip-path-5">
      <path id="Trazado_215213" data-name="Trazado 215213" d="M262.158,130.81a25.92,25.92,0,0,1-7.928,1.716,27.5,27.5,0,0,1-7.622-.3.132.132,0,1,0-.057.257,22.724,22.724,0,0,0,4.748.432c.949,0,1.943-.04,2.952-.122a26.209,26.209,0,0,0,8.018-1.738.132.132,0,0,0-.056-.252.137.137,0,0,0-.055.012" transform="translate(-246.447 -130.798)" fill="none"/>
    </clipPath>
    <linearGradient id="linear-gradient-4" x1="-55.382" y1="13.548" x2="-55.165" y2="13.548" xlink:href="#linear-gradient"/>
    <clipPath id="clip-path-7">
      <path id="Trazado_215215" data-name="Trazado 215215" d="M264,87.592l-4.709,30.63c-.034.221.016.436.116.485s.218-.093.258-.322l5.365-30.345c0-.016.006-.037.009-.054.1-.633-.056-1.234-.344-1.342a.25.25,0,0,0-.091-.017c-.258,0-.517.4-.6.966" transform="translate(-259.282 -86.626)" fill="none"/>
    </clipPath>
    <linearGradient id="linear-gradient-5" x1="-6.365" y1="10.225" x2="-6.339" y2="10.225" gradientUnits="objectBoundingBox">
      <stop offset="0" stop-color="#e1473d"/>
      <stop offset="1" stop-color="#e9605a"/>
    </linearGradient>
    <clipPath id="clip-path-8">
      <path id="Trazado_215216" data-name="Trazado 215216" d="M245.832,86.958c-.288.109-.44.709-.344,1.342,0,.017.007.038.009.054l5.364,30.346c.04.228.156.372.259.322s.15-.264.116-.485l-4.708-30.631c-.088-.567-.347-.966-.605-.966a.25.25,0,0,0-.091.017" transform="translate(-245.46 -86.941)" fill="none"/>
    </clipPath>
    <linearGradient id="linear-gradient-6" x1="-6.003" y1="10.215" x2="-5.977" y2="10.215" xlink:href="#linear-gradient-5"/>
    <clipPath id="clip-path-10">
      <path id="Trazado_215221" data-name="Trazado 215221" d="M152.482,372.325l.544,5s3.39,1.617,5.731-.145L157.4,371.6Z" transform="translate(-152.482 -371.6)" fill="none"/>
    </clipPath>
    <linearGradient id="linear-gradient-7" x1="-15.813" y1="3.838" x2="-15.709" y2="3.838" gradientUnits="objectBoundingBox">
      <stop offset="0" stop-color="#febbba"/>
      <stop offset="1" stop-color="#ff928e"/>
    </linearGradient>
    <clipPath id="clip-path-12">
      <path id="Trazado_215224" data-name="Trazado 215224" d="M122.948,369.86l1.311,7.561s1.358,1.031,4.073.319l-.584-8.128Z" transform="translate(-122.948 -369.613)" fill="none"/>
    </clipPath>
    <linearGradient id="linear-gradient-8" x1="-10.464" y1="4.521" x2="-10.377" y2="4.521" xlink:href="#linear-gradient-7"/>
    <clipPath id="clip-path-14">
      <path id="Trazado_215227" data-name="Trazado 215227" d="M216.986,138.042c-2.556,10.357-15.521,18.65-28.8,22.638.83,3.689,2.76,9.936,6.936,14.87,22.087-12.143,25.57-36.428,25.57-36.428a3.2,3.2,0,0,0-2.552-1.29,3.139,3.139,0,0,0-1.156.21" transform="translate(-188.187 -137.832)" fill="none"/>
    </clipPath>
    <linearGradient id="linear-gradient-9" x1="-3.742" y1="6.168" x2="-3.722" y2="6.168" xlink:href="#linear-gradient-7"/>
    <clipPath id="clip-path-15">
      <path id="Trazado_215228" data-name="Trazado 215228" d="M225.893,127.464c-.648.866-.041,5.454-.011,6.525,1.15,2.243,3.145,1.431,2.979.883a4.433,4.433,0,0,0,3.348-1.933c.734-1.023,1.513-2.332,2.085-3.339a4.485,4.485,0,0,0,.479-3.3,15.513,15.513,0,0,0-1.835-3.713l3.234-3.3A1.571,1.571,0,0,0,236,117.1s-6.656,5.755-10.1,10.362" transform="translate(-225.596 -117.102)" fill="none"/>
    </clipPath>
    <linearGradient id="linear-gradient-10" x1="-7.544" y1="11.829" x2="-7.509" y2="11.829" xlink:href="#linear-gradient-7"/>
    <clipPath id="clip-path-16">
      <path id="Trazado_215229" data-name="Trazado 215229" d="M229.184,129.456l-.94,2.454,2.574,2.91s.921-4.878,1.582-5.929.327-1.566-.275-1.881Z" transform="translate(-228.244 -127.011)" fill="none"/>
    </clipPath>
    <linearGradient id="linear-gradient-11" x1="-18.951" y1="25.653" x2="-18.867" y2="25.653" xlink:href="#linear-gradient-7"/>
    <clipPath id="clip-path-18">
      <path id="Trazado_215231" data-name="Trazado 215231" d="M98.362,219.743c10.169,19.033,38.51-.678,38.51-.678l-2.276-4.341s-17.607,9.731-23.435,1.223a6.646,6.646,0,0,1-1.169-5.173,36.914,36.914,0,0,0-13.525-3.763,18.548,18.548,0,0,0,1.895,12.732" transform="translate(-96.076 -207.011)" fill="none"/>
    </clipPath>
    <linearGradient id="linear-gradient-12" x1="-2.431" y1="3.771" x2="-2.407" y2="3.771" xlink:href="#linear-gradient-7"/>
    <clipPath id="clip-path-19">
      <path id="Trazado_215232" data-name="Trazado 215232" d="M137.2,168.322a.554.554,0,0,0,.246.669c1.441.815,6.637,3.179,12.964-.748a2.606,2.606,0,0,0,1.218-1.85l1.848-13.283-10.815-.1Z" transform="translate(-137.163 -153.007)" fill="none"/>
    </clipPath>
    <linearGradient id="linear-gradient-13" x1="-5.394" y1="11.607" x2="-5.354" y2="11.607" xlink:href="#linear-gradient-7"/>
    <clipPath id="clip-path-20">
      <path id="Trazado_215233" data-name="Trazado 215233" d="M141.744,138.636l4.3,11.9c6.28,3.663,13.509,4.051,14.3-.378s-4.94-15.468-4.94-15.468Z" transform="translate(-141.744 -134.691)" fill="none"/>
    </clipPath>
    <linearGradient id="linear-gradient-14" x1="-3.883" y1="7.826" x2="-3.855" y2="7.826" xlink:href="#linear-gradient-7"/>
    <clipPath id="clip-path-22">
      <path id="Trazado_215235" data-name="Trazado 215235" d="M142.826,147.667c-.326,2.4,3.707,3.513,5.719,2.637l-1.266-2.145s-2.062-1.443-3.386-1.443a.976.976,0,0,0-1.068.95" transform="translate(-142.808 -146.717)" fill="none"/>
    </clipPath>
    <linearGradient id="linear-gradient-15" x1="-15.648" y1="26.668" x2="-15.537" y2="26.668" xlink:href="#linear-gradient-7"/>
    <clipPath id="clip-path-24">
      <path id="Trazado_215237" data-name="Trazado 215237" d="M143.312,215.631c-.538,1.949.8,7.443.8,7.443a5.052,5.052,0,0,0,4.57-1.6c1.05-1.029,1.672-2.058,2.524-1.5a1.778,1.778,0,0,0,2.6-.6l-1.526-1.683c2.234,1.085,2.469-.947,2.469-.947l-1.64-1.269a1.993,1.993,0,0,0,2.853-1.72,50.9,50.9,0,0,0-7.587-2.023,5.924,5.924,0,0,0-.94-.079c-2.737,0-3.636,2.216-4.123,3.978" transform="translate(-143.184 -211.653)" fill="none"/>
    </clipPath>
    <linearGradient id="linear-gradient-16" x1="-8.338" y1="12.624" x2="-8.279" y2="12.624" xlink:href="#linear-gradient-7"/>
    <clipPath id="clip-path-26">
      <path id="Trazado_215245" data-name="Trazado 215245" d="M82.5,380.54s3.285,1.495,6.173.294l.567-4.369-5.258-.969Z" transform="translate(-82.502 -375.497)" fill="none"/>
    </clipPath>
    <linearGradient id="linear-gradient-17" x1="-9.435" y1="3.344" x2="-9.321" y2="3.344" xlink:href="#linear-gradient-7"/>
    <clipPath id="clip-path-28">
      <path id="Trazado_215249" data-name="Trazado 215249" d="M123.916,376.247c.34.309,3.632,6.952,3.632,6.952s3.666-.794,4.415-3.114l-3.3-6Z" transform="translate(-123.916 -374.09)" fill="none"/>
    </clipPath>
    <linearGradient id="linear-gradient-18" x1="-11.87" y1="2.524" x2="-11.775" y2="2.524" xlink:href="#linear-gradient-7"/>
    <clipPath id="clip-path-30">
      <path id="Trazado_215251" data-name="Trazado 215251" d="M57.846,225.65l9.757,5.444s2.2-8.666,7.222-11.2L67.2,213.5s-4.631,8.187-9.351,12.153" transform="translate(-57.846 -213.497)" fill="none"/>
    </clipPath>
    <linearGradient id="linear-gradient-19" x1="-1.847" y1="6.697" x2="-1.813" y2="6.697" xlink:href="#linear-gradient-7"/>
    <clipPath id="clip-path-32">
      <path id="Trazado_215254" data-name="Trazado 215254" d="M119.626,280.556l-7.316,1.694-2.41.643,1.216,2.026,17.371.029-6.29-3.958a3.4,3.4,0,0,0-2.571-.433" transform="translate(-109.901 -280.469)" fill="none"/>
    </clipPath>
    <linearGradient id="linear-gradient-20" x1="-4.558" y1="21.251" x2="-4.517" y2="21.251" xlink:href="#linear-gradient-7"/>
    <clipPath id="clip-path-33">
      <path id="Trazado_215255" data-name="Trazado 215255" d="M62.547,204.47c-.427,2.72,3.858,8.659,3.858,8.659,2.745,3.858,7.117,5.723,11.823,4.25s3.452-4.057,2.671-8.191-5.28-11.615-5.28-11.615-12.644,4.177-13.072,6.9" transform="translate(-62.517 -197.573)" fill="none"/>
    </clipPath>
    <linearGradient id="linear-gradient-21" x1="-1.455" y1="5.486" x2="-1.43" y2="5.486" xlink:href="#linear-gradient-7"/>
    <clipPath id="clip-path-35">
      <path id="Trazado_215257" data-name="Trazado 215257" d="M64.055,210.336c-2.085,1.721,1.928,5.524,3.78,5.474l.291-2.3s-1.437-3.541-3.149-3.541a1.436,1.436,0,0,0-.923.366" transform="translate(-63.469 -209.97)" fill="none"/>
    </clipPath>
    <linearGradient id="linear-gradient-22" x1="-5.429" y1="17.702" x2="-5.338" y2="17.702" xlink:href="#linear-gradient-7"/>
    <clipPath id="clip-path-37">
      <path id="Trazado_215261" data-name="Trazado 215261" d="M237.626,303.228a3.264,3.264,0,0,0-1.44,3.118c.784,6.206,4.005,26.3,14.63,45.917a4.937,4.937,0,0,1,.474,3.39l-1.846,8.59-3.422,3.208h8.816l5.87-15.885-2.51-.794a4.747,4.747,0,0,1-3.316-4.446l-.3-17.041a19.389,19.389,0,0,0-4.655-12.83l14.081-.685-14.021-17.817a34.08,34.08,0,0,0-12.365,5.277" transform="translate(-236.161 -297.951)" fill="none"/>
    </clipPath>
    <linearGradient id="linear-gradient-23" x1="-2.14" y1="1.566" x2="-2.13" y2="1.566" xlink:href="#linear-gradient-7"/>
    <clipPath id="clip-path-39">
      <path id="Trazado_215263" data-name="Trazado 215263" d="M229.852,306.02c-8.25,8.188-21.718,54.087-21.718,54.087l-14.392,8.637a37.354,37.354,0,0,0,21.193-1.275l-2.323-7.362s22.148-27.354,23.691-33.668a34.888,34.888,0,0,0,1.048-10.9s15.084,1.684,15.159,1.814l-7.538-16.564Z" transform="translate(-193.741 -300.789)" fill="none"/>
    </clipPath>
    <linearGradient id="linear-gradient-24" x1="-1.937" y1="1.206" x2="-1.926" y2="1.206" xlink:href="#linear-gradient-7"/>
    <clipPath id="clip-path-41">
      <path id="Trazado_215268" data-name="Trazado 215268" d="M267.7,211.66c.118.395,3.08,10.212,3.311,10.417s6.5.54,9.444-1.475L273.142,206.3Z" transform="translate(-267.7 -206.297)" fill="none"/>
    </clipPath>
    <linearGradient id="linear-gradient-25" x1="-13.574" y1="8.47" x2="-13.523" y2="8.47" xlink:href="#linear-gradient-7"/>
    <clipPath id="clip-path-42">
      <path id="Trazado_215269" data-name="Trazado 215269" d="M252.221,195.8s-1.432,5.625,2.529,13.19,8.443,7.557,10.893,5.136,5.474-6.53,4.756-13.845c-.46-4.685-6.94-8.143-12.083-8.143-2.886,0-5.351,1.089-6.094,3.662" transform="translate(-251.969 -192.138)" fill="none"/>
    </clipPath>
    <linearGradient id="linear-gradient-26" x1="-7.008" y1="5.596" x2="-6.98" y2="5.596" xlink:href="#linear-gradient-7"/>
    <clipPath id="clip-path-44">
      <path id="Trazado_215271" data-name="Trazado 215271" d="M270.594,195.353c-3.492.767-.084,5.91-.084,5.91l2.657,1.24c.354-2.007.853-7.22-1.973-7.219a2.811,2.811,0,0,0-.6.069" transform="translate(-269.02 -195.284)" fill="none"/>
    </clipPath>
    <linearGradient id="linear-gradient-27" x1="-23.073" y1="17.869" x2="-22.986" y2="17.869" xlink:href="#linear-gradient-7"/>
    <clipPath id="clip-path-45">
      <path id="Trazado_215272" data-name="Trazado 215272" d="M296.308,279.4l-5.86,1.586c-5.86,1.587-16.1,0-16.1,0l-10.286-4.345-7.436,7.167L264,286.773s41.246,1.291,42.99.528a23.383,23.383,0,0,0,3.345-2.084,3.539,3.539,0,0,0,1.293-4.066l-2.08-5.879Z" transform="translate(-256.627 -275.273)" fill="none"/>
    </clipPath>
    <linearGradient id="linear-gradient-28" x1="-3.562" y1="7.752" x2="-3.549" y2="7.752" xlink:href="#linear-gradient-7"/>
    <clipPath id="clip-path-47">
      <path id="Trazado_215277" data-name="Trazado 215277" d="M349.984,378.888a2.4,2.4,0,0,0,1.593,2.979,10.065,10.065,0,0,0,1.823.353,1.824,1.824,0,0,0,1.872-1.132l2.232-5.472-5.836-2.364Z" transform="translate(-349.883 -373.253)" fill="none"/>
    </clipPath>
    <linearGradient id="linear-gradient-29" x1="-26.892" y1="2.627" x2="-26.815" y2="2.627" xlink:href="#linear-gradient-7"/>
    <clipPath id="clip-path-49">
      <path id="Trazado_215279" data-name="Trazado 215279" d="M407.654,388.763a.651.651,0,0,0,.718.649,7.706,7.706,0,0,1,3.348.607.843.843,0,0,0,1.1-.575c.695-2.641,1.6-6.637,1.6-6.637l-6.854-.682Z" transform="translate(-407.568 -382.125)" fill="none"/>
    </clipPath>
    <linearGradient id="linear-gradient-30" x1="-35.323" y1="2.135" x2="-35.236" y2="2.135" xlink:href="#linear-gradient-7"/>
    <clipPath id="clip-path-51">
      <path id="Trazado_215284" data-name="Trazado 215284" d="M371.038,268.485a.925.925,0,0,1-1.142.795l-2.552-.636a5.243,5.243,0,0,0-3.788.493l-7.589,4.821h21.272l6.079-27.714c-1.571.114-6.336.3-9.638-1.267Z" transform="translate(-355.966 -244.977)" fill="none"/>
    </clipPath>
    <linearGradient id="linear-gradient-31" x1="-10.033" y1="4.228" x2="-10.004" y2="4.228" xlink:href="#linear-gradient-7"/>
    <clipPath id="clip-path-52">
      <path id="Trazado_215285" data-name="Trazado 215285" d="M304.776,193.4c2.632,1.014,2.457,2.5,2.457,2.5L295.6,200.579a4.224,4.224,0,0,0-2.471,2.7l-.643,2.137a53.217,53.217,0,0,0,21.733-1.711L328.5,231.081a8.26,8.26,0,0,0,11.975,2.939l3.094-2.125-26.351-32.124a12.332,12.332,0,0,0-5.6-6.093c-5.266-2.6-8.863-4.243-8.863-4.243s-.615,2.949,2.017,3.962" transform="translate(-292.491 -189.435)" fill="none"/>
    </clipPath>
    <linearGradient id="linear-gradient-32" x1="-4.414" y1="3.489" x2="-4.399" y2="3.489" xlink:href="#linear-gradient-7"/>
    <clipPath id="clip-path-53">
      <path id="Trazado_215286" data-name="Trazado 215286" d="M360.649,163.367l3.414,10.87c4.378,1.586,10.377-3.1,10.377-3.1l-6.775-18.962a2.173,2.173,0,0,0-.935-.223c-3.84,0-6.081,11.419-6.081,11.419" transform="translate(-360.649 -151.948)" fill="none"/>
    </clipPath>
    <linearGradient id="linear-gradient-33" x1="-10.235" y1="7.322" x2="-10.206" y2="7.322" xlink:href="#linear-gradient-7"/>
    <clipPath id="clip-path-54">
      <path id="Trazado_215287" data-name="Trazado 215287" d="M343.52,142.282c0,.292,6.526,18.475,6.526,18.475l10.3-3.948-3.625-18.152s-1.538-.147-3.564-.147c-3.911,0-9.641.549-9.641,3.772" transform="translate(-343.52 -138.51)" fill="none"/>
    </clipPath>
    <linearGradient id="linear-gradient-34" x1="-9.68" y1="7.436" x2="-9.651" y2="7.436" xlink:href="#linear-gradient-7"/>
    <clipPath id="clip-path-55">
      <path id="Trazado_215288" data-name="Trazado 215288" d="M350.518,132.849a1.367,1.367,0,0,1-1.693.452,1.08,1.08,0,0,0-1.211.216,1.345,1.345,0,0,1-1.967-.3,4.077,4.077,0,0,0-5.025-1.66c-4.655,1.506-4.432,6.873-2.727,9.791s6.66,1,9.005-.936c1.783-1.47,4.5-.59,5.7-.085a1.352,1.352,0,0,1,.775.883l2.656,9.406a1.289,1.289,0,0,1,.052.368c0,.767-.189,3.407-2.878,3.048-2.441-.326-4.672-.587-6.091.082a1.363,1.363,0,0,0-.7,1.7,59.181,59.181,0,0,0,3.711,8.376,1.362,1.362,0,0,0,1.752.56,44.023,44.023,0,0,0,8.833-5.2,1.366,1.366,0,0,0,.483-1.311c-.452-2.406-1.8-9.725-1.856-11.822-.056-1.969,2.154-3.471,3.127-4.036a1.342,1.342,0,0,0,.631-.849c.306-1.267.564-4.135-3.093-4.767a1.367,1.367,0,0,1-1.11-1.626c.31-1.516.21-3.746-2.667-4.567a5.357,5.357,0,0,0-1.471-.216,5.221,5.221,0,0,0-4.231,2.491" transform="translate(-336.777 -130.358)" fill="none"/>
    </clipPath>
    <linearGradient id="linear-gradient-35" x1="-6.02" y1="5.663" x2="-6.002" y2="5.663" xlink:href="#linear-gradient-5"/>
    <clipPath id="clip-path-56">
      <path id="Trazado_215289" data-name="Trazado 215289" d="M365.85,146.485c-1.822,1.637.934,6.848.934,6.848s3.789.927,3.892-4.141c.052-2.593-1.179-3.645-2.55-3.645a3.5,3.5,0,0,0-2.276.938" transform="translate(-365.227 -145.547)" fill="none"/>
    </clipPath>
    <linearGradient id="linear-gradient-36" x1="-25.576" y1="18.345" x2="-25.506" y2="18.345" xlink:href="#linear-gradient-7"/>
  </defs>
  <g id="Grupo_150099" data-name="Grupo 150099" transform="translate(-794.499 -3357.313)">
    <g transform="matrix(1, 0, 0, 1, 794.5, 3357.31)" filter="url(#Trazado_211534)">
      <path id="Trazado_211534-2" data-name="Trazado 211534" d="M34.695,0H470.305C489.467,0,505,12.064,505,26.946V473.054C505,487.936,489.467,500,470.305,500H34.695C15.533,500,0,487.936,0,473.054V26.946C0,12.064,15.533,0,34.695,0Z" transform="translate(15 12)" fill="#feeeab"/>
    </g>
    <path id="Rectángulo_44200" data-name="Rectángulo 44200" d="M0,0H505a0,0,0,0,1,0,0V62a32,32,0,0,1-32,32H32A32,32,0,0,1,0,62V0A0,0,0,0,1,0,0Z" transform="translate(809.501 3775.313)" fill="#fbdb5e"/>
    <path id="Trazado_216366" data-name="Trazado 216366" d="M-100.044-4.814a5.193,5.193,0,0,1-.8,2.622A4.833,4.833,0,0,1-102.9-.43,7,7,0,0,1-105.923.2a5.584,5.584,0,0,1-4.414-1.826,7.54,7.54,0,0,1-1.611-5.156v-.7a8.607,8.607,0,0,1,.728-3.657,5.513,5.513,0,0,1,2.095-2.422,5.844,5.844,0,0,1,3.164-.854,6.129,6.129,0,0,1,4.16,1.362,5.383,5.383,0,0,1,1.787,3.755h-3.418a2.547,2.547,0,0,0-.654-1.865,2.691,2.691,0,0,0-1.875-.566,2.048,2.048,0,0,0-1.875.957,6.151,6.151,0,0,0-.625,3.057v1.006a6.806,6.806,0,0,0,.571,3.252,2.091,2.091,0,0,0,1.968.977,2.632,2.632,0,0,0,1.807-.557,2.363,2.363,0,0,0,.664-1.768Zm1.055-.566A6.236,6.236,0,0,1-98.374-8.2a4.4,4.4,0,0,1,1.768-1.9,5.323,5.323,0,0,1,2.705-.664,4.858,4.858,0,0,1,3.74,1.47,5.64,5.64,0,0,1,1.367,4v.117a5.472,5.472,0,0,1-1.372,3.921A4.871,4.871,0,0,1-93.882.2,4.927,4.927,0,0,1-97.5-1.157a5.29,5.29,0,0,1-1.475-3.667Zm3.291.205a3.932,3.932,0,0,0,.459,2.148,1.529,1.529,0,0,0,1.357.684q1.758,0,1.8-2.705v-.332q0-2.842-1.816-2.842-1.65,0-1.787,2.451Zm11.465-5.391.107,1.24a3.633,3.633,0,0,1,3.018-1.436A2.675,2.675,0,0,1-78.4-9.17,3.517,3.517,0,0,1-75.3-10.762q3.213,0,3.3,3.887V0h-3.3V-6.67a2.014,2.014,0,0,0-.273-1.182,1.164,1.164,0,0,0-1-.371,1.559,1.559,0,0,0-1.455.869l.01.137V0h-3.3V-6.65a2.117,2.117,0,0,0-.264-1.2,1.161,1.161,0,0,0-1.006-.371,1.578,1.578,0,0,0-1.445.869V0h-3.291V-10.566Zm20.41,9.424A3.393,3.393,0,0,1-66.646.2,3.328,3.328,0,0,1-69.277-.815a4.251,4.251,0,0,1-.894-2.905v-6.846h3.291V-3.7a1.183,1.183,0,0,0,1.318,1.357,1.72,1.72,0,0,0,1.611-.811v-7.412h3.311V0h-3.086Zm8.008-9.424.107,1.24a3.583,3.583,0,0,1,3.018-1.436,3.015,3.015,0,0,1,2.466.986,4.7,4.7,0,0,1,.845,2.969V0h-3.3V-6.67A1.783,1.783,0,0,0-53-7.847a1.491,1.491,0,0,0-1.172-.376,1.569,1.569,0,0,0-1.436.762V0H-58.9V-10.566ZM-44.087,0h-3.3V-10.566h3.3Zm-3.5-13.291a1.469,1.469,0,0,1,.508-1.152,1.916,1.916,0,0,1,1.318-.449,1.916,1.916,0,0,1,1.318.449,1.469,1.469,0,0,1,.508,1.152,1.469,1.469,0,0,1-.508,1.152,1.916,1.916,0,0,1-1.318.449,1.916,1.916,0,0,1-1.318-.449A1.469,1.469,0,0,1-47.583-13.291Zm9.99,10.947a1.464,1.464,0,0,0,1.074-.376,1.379,1.379,0,0,0,.371-1.05h3.086A3.653,3.653,0,0,1-34.307-.918,4.631,4.631,0,0,1-37.515.2,4.689,4.689,0,0,1-41.147-1.25a5.7,5.7,0,0,1-1.328-4v-.137a6.436,6.436,0,0,1,.591-2.827,4.3,4.3,0,0,1,1.7-1.885,5.081,5.081,0,0,1,2.637-.659,4.573,4.573,0,0,1,3.271,1.143,4.053,4.053,0,0,1,1.211,3.1h-3.086a1.807,1.807,0,0,0-.4-1.26,1.382,1.382,0,0,0-1.074-.439q-1.279,0-1.494,1.631a11.507,11.507,0,0,0-.068,1.426A4.52,4.52,0,0,0-38.8-2.959,1.319,1.319,0,0,0-37.593-2.344ZM-25.718,0a3.716,3.716,0,0,1-.312-.947A3.06,3.06,0,0,1-28.569.2a3.749,3.749,0,0,1-2.539-.9,2.875,2.875,0,0,1-1.045-2.271,2.955,2.955,0,0,1,1.27-2.6,6.468,6.468,0,0,1,3.691-.879h1.016v-.559q0-1.462-1.26-1.462a1.03,1.03,0,0,0-1.172,1.158H-31.9a2.95,2.95,0,0,1,1.3-2.487,5.479,5.479,0,0,1,3.325-.956,4.8,4.8,0,0,1,3.193.986,3.429,3.429,0,0,1,1.2,2.705v4.678a4.79,4.79,0,0,0,.449,2.227V0Zm-2.061-2.148a1.836,1.836,0,0,0,1.021-.264,1.653,1.653,0,0,0,.581-.6V-4.7h-.957q-1.719,0-1.719,1.543a.942.942,0,0,0,.3.728A1.1,1.1,0,0,0-27.778-2.148Zm11.191-.2a1.464,1.464,0,0,0,1.074-.376,1.379,1.379,0,0,0,.371-1.05h3.086A3.653,3.653,0,0,1-13.3-.918,4.631,4.631,0,0,1-16.509.2,4.689,4.689,0,0,1-20.142-1.25a5.7,5.7,0,0,1-1.328-4v-.137a6.436,6.436,0,0,1,.591-2.827,4.3,4.3,0,0,1,1.7-1.885,5.081,5.081,0,0,1,2.637-.659,4.573,4.573,0,0,1,3.271,1.143,4.053,4.053,0,0,1,1.211,3.1h-3.086a1.807,1.807,0,0,0-.4-1.26,1.382,1.382,0,0,0-1.074-.439q-1.279,0-1.494,1.631a11.508,11.508,0,0,0-.068,1.426A4.52,4.52,0,0,0-17.8-2.959,1.319,1.319,0,0,0-16.587-2.344ZM-7.192,0h-3.3V-10.566h3.3Zm-3.5-13.291a1.469,1.469,0,0,1,.508-1.152,1.916,1.916,0,0,1,1.318-.449,1.916,1.916,0,0,1,1.318.449,1.469,1.469,0,0,1,.508,1.152,1.469,1.469,0,0,1-.508,1.152,1.916,1.916,0,0,1-1.318.449,1.916,1.916,0,0,1-1.318-.449A1.469,1.469,0,0,1-10.688-13.291Zm5.107,7.91A6.236,6.236,0,0,1-4.966-8.2,4.4,4.4,0,0,1-3.2-10.1a5.323,5.323,0,0,1,2.705-.664,4.858,4.858,0,0,1,3.74,1.47,5.64,5.64,0,0,1,1.367,4v.117A5.472,5.472,0,0,1,3.242-1.255,4.871,4.871,0,0,1-.474.2,4.927,4.927,0,0,1-4.1-1.157,5.29,5.29,0,0,1-5.571-4.824Zm3.291.205a3.932,3.932,0,0,0,.459,2.148,1.529,1.529,0,0,0,1.357.684q1.758,0,1.8-2.705v-.332q0-2.842-1.816-2.842-1.65,0-1.787,2.451ZM-.044-15H3.433L.718-11.934l-2.686,0Zm9.131,4.434.107,1.24a3.583,3.583,0,0,1,3.018-1.436,3.015,3.015,0,0,1,2.466.986,4.7,4.7,0,0,1,.845,2.969V0h-3.3V-6.67A1.783,1.783,0,0,0,11.9-7.847a1.491,1.491,0,0,0-1.172-.376,1.569,1.569,0,0,0-1.436.762V0H6V-10.566ZM25.542-9.434a3.294,3.294,0,0,1,2.7-1.328,3.284,3.284,0,0,1,2.637,1.035,4.651,4.651,0,0,1,.908,3.057V0h-3.3V-6.592a1.86,1.86,0,0,0-.342-1.235,1.469,1.469,0,0,0-1.162-.4,1.582,1.582,0,0,0-1.436.645V0H22.251V-15h3.291ZM33.2-5.381A6.236,6.236,0,0,1,33.813-8.2a4.4,4.4,0,0,1,1.768-1.9,5.323,5.323,0,0,1,2.705-.664,4.858,4.858,0,0,1,3.74,1.47,5.64,5.64,0,0,1,1.367,4v.117a5.472,5.472,0,0,1-1.372,3.921A4.871,4.871,0,0,1,38.306.2a4.927,4.927,0,0,1-3.623-1.353,5.29,5.29,0,0,1-1.475-3.667Zm3.291.205a3.932,3.932,0,0,0,.459,2.148,1.529,1.529,0,0,0,1.357.684q1.758,0,1.8-2.705v-.332q0-2.842-1.816-2.842-1.65,0-1.787,2.451ZM51.235-7.588l-1.084-.078a1.947,1.947,0,0,0-1.992.977V0H44.868V-10.566h3.086l.107,1.357a2.548,2.548,0,0,1,2.314-1.553,3.209,3.209,0,0,1,.918.117ZM55.894,0h-3.3V-10.566h3.3ZM52.4-13.291a1.469,1.469,0,0,1,.508-1.152,1.916,1.916,0,0,1,1.318-.449,1.916,1.916,0,0,1,1.318.449,1.469,1.469,0,0,1,.508,1.152,1.469,1.469,0,0,1-.508,1.152,1.916,1.916,0,0,1-1.318.449,1.916,1.916,0,0,1-1.318-.449A1.469,1.469,0,0,1,52.4-13.291ZM61.8-2.539h4.814V0H57.642V-1.836l4.688-6.191H57.847v-2.539h8.662v1.777Zm5.84-2.842A6.236,6.236,0,0,1,68.257-8.2a4.4,4.4,0,0,1,1.768-1.9,5.323,5.323,0,0,1,2.705-.664,4.858,4.858,0,0,1,3.74,1.47,5.64,5.64,0,0,1,1.367,4v.117a5.472,5.472,0,0,1-1.372,3.921A4.871,4.871,0,0,1,72.749.2a4.927,4.927,0,0,1-3.623-1.353,5.29,5.29,0,0,1-1.475-3.667Zm3.291.205a3.932,3.932,0,0,0,.459,2.148,1.529,1.529,0,0,0,1.357.684q1.758,0,1.8-2.705v-.332q0-2.842-1.816-2.842-1.65,0-1.787,2.451ZM82.31-10.566l.107,1.24a3.583,3.583,0,0,1,3.018-1.436,3.015,3.015,0,0,1,2.466.986,4.7,4.7,0,0,1,.845,2.969V0h-3.3V-6.67a1.783,1.783,0,0,0-.322-1.177,1.491,1.491,0,0,0-1.172-.376,1.569,1.569,0,0,0-1.436.762V0H79.224V-10.566ZM94.4-13.193v2.627h1.738v2.285H94.4v4.834a1.234,1.234,0,0,0,.215.83,1.152,1.152,0,0,0,.85.234,4.828,4.828,0,0,0,.82-.059V-.088A6.074,6.074,0,0,1,94.429.2a3.448,3.448,0,0,1-2.51-.8,3.282,3.282,0,0,1-.811-2.432V-8.281H89.761v-2.285h1.348v-2.627ZM103.384,0a3.716,3.716,0,0,1-.312-.947A3.06,3.06,0,0,1,100.532.2a3.749,3.749,0,0,1-2.539-.9,2.875,2.875,0,0,1-1.045-2.271,2.955,2.955,0,0,1,1.27-2.6,6.468,6.468,0,0,1,3.691-.879h1.016v-.559q0-1.462-1.26-1.462a1.03,1.03,0,0,0-1.172,1.158H97.2a2.95,2.95,0,0,1,1.3-2.487,5.479,5.479,0,0,1,3.325-.956,4.8,4.8,0,0,1,3.193.986,3.429,3.429,0,0,1,1.2,2.705v4.678a4.79,4.79,0,0,0,.449,2.227V0Zm-2.061-2.148a1.836,1.836,0,0,0,1.021-.264,1.653,1.653,0,0,0,.581-.6V-4.7h-.957q-1.719,0-1.719,1.543a.942.942,0,0,0,.3.728A1.1,1.1,0,0,0,101.323-2.148ZM111.519,0h-3.3V-15h3.3Z" transform="translate(1060.999 3829.313)" fill="#12263f"/>
    <g id="Grupo_149789" data-name="Grupo 149789" transform="translate(893.285 3441.022)">
      <g id="Grupo_149676" data-name="Grupo 149676">
        <g id="Grupo_149675" data-name="Grupo 149675" clip-path="url(#clip-path)">
          <path id="Trazado_215191" data-name="Trazado 215191" d="M6.784,118.861a.937.937,0,0,1-.55-.844c0-1.227.016-2.474.063-3.708a.907.907,0,0,1,.966-.867c1.248.06.823,1.28.836,4.6a.907.907,0,0,1-.929.906.966.966,0,0,1-.386-.087" transform="translate(-1.428 -25.993)" fill="#aab1ba"/>
          <path id="Trazado_215192" data-name="Trazado 215192" d="M7.849,77.474c.394-2.325.887-4.661,1.465-6.946a.916.916,0,0,1,1.129-.651c1.361.365.406,1.078-.755,7.929a.914.914,0,0,1-1.073.737.939.939,0,0,1-.767-1.07m5-17.908c.87-2.2,1.842-4.41,2.861-6.487a.936.936,0,0,1,1.682.822c-1.013,2.071-1.952,4.2-2.8,6.357a.936.936,0,0,1-1.74-.691m8.579-16.48c1.3-1.963,2.7-3.9,4.15-5.753a.935.935,0,0,1,1.483,1.139c-1.425,1.818-2.794,3.714-4.066,5.637a.936.936,0,0,1-1.567-1.022m11.86-13.052a.909.909,0,0,1-.008-1.3c1.685-1.652,3.46-3.258,5.277-4.776.934-.779,2.154.631,1.22,1.411-1.779,1.485-3.519,3.06-5.171,4.678a.941.941,0,0,1-1.318-.015M47.642,18.394a.9.9,0,0,1,.261-1.27c2-1.274,4.075-2.485,6.169-3.6a.929.929,0,0,1,.908,1.62c-2.053,1.092-4.086,2.279-6.045,3.527a.95.95,0,0,1-1.294-.278m16.983-7.98a.938.938,0,0,1-.482-.5.9.9,0,0,1,.517-1.186c2.228-.845,4.515-1.612,6.8-2.281a.951.951,0,0,1,1.169.621.9.9,0,0,1-.61,1.142c-2.239.655-4.482,1.408-6.665,2.236a.944.944,0,0,1-.731-.028m18.008-4.8a.944.944,0,0,1-.536-.684.9.9,0,0,1,.752-1.055C85.209,3.5,87.615,3.2,90,3.01a.946.946,0,0,1,1.021.84.9.9,0,0,1-.835.991c-2.337.191-4.695.476-7.006.847a.948.948,0,0,1-.547-.076M100.77,3.668a.908.908,0,0,1,.958-.876c2.394.106,4.819.308,7.208.6a.917.917,0,1,1-.2,1.823c-2.339-.285-4.715-.483-7.061-.587a.944.944,0,0,1-.907-.959m58.252,24.108c-5.277-4.655-6.535-4.675-5.688-5.775a.938.938,0,0,1,1.305-.164c1.921,1.447,3.81,2.988,5.613,4.579a.917.917,0,1,1-1.23,1.36M119.377,6.208a.916.916,0,0,1,1.123-.661c2.33.586,4.671,1.27,6.956,2.033a.916.916,0,1,1-.571,1.74c-2.239-.748-4.533-1.418-6.816-1.993a.935.935,0,0,1-.691-1.118m24.514,10.728c-6.1-3.5-7.348-3.272-6.747-4.527a.95.95,0,0,1,1.239-.423c2.18,1.038,4.342,2.172,6.426,3.366a.92.92,0,0,1,.353,1.257.93.93,0,0,1-1.27.327" transform="translate(-1.796 -0.639)" fill="#aab1ba"/>
          <path id="Trazado_215193" data-name="Trazado 215193" d="M216.877,48.184c-1.977-2.436-3.249-3.3-2.3-4.113a.943.943,0,0,1,1.316.106c2.146,2.437,3.238,3.425,2.294,4.163a1.064,1.064,0,0,1-1.312-.156" transform="translate(-49.093 -10.048)" fill="#aab1ba"/>
          <path id="Trazado_215194" data-name="Trazado 215194" d="M243.679,136.7a.935.935,0,0,1-.542-.959c.15-1.2.276-2.413.375-3.611a.91.91,0,0,1,1.006-.823.944.944,0,0,1,.853,1.005c-.1,1.223-.231,2.461-.384,3.685a.911.911,0,0,1-1.039.782.951.951,0,0,1-.27-.079" transform="translate(-55.708 -30.086)" fill="#aab1ba"/>
          <path id="Trazado_215195" data-name="Trazado 215195" d="M66.9,209.353c-2.326-1.149-4.632-2.409-6.852-3.743a.92.92,0,0,1-.327-1.264c.741-1.216,1.185,0,7.992,3.368a.925.925,0,0,1,.433,1.236.949.949,0,0,1-1.246.4m11.119,3.689c.45-1.349,1.19-.242,8.51,1.593a.933.933,0,0,1,.692,1.117.917.917,0,0,1-1.122.664c-2.5-.628-5.022-1.371-7.484-2.205a.93.93,0,0,1-.6-1.169M49.651,198.364c-2.018-1.62-3.995-3.345-5.874-5.126a.911.911,0,0,1-.037-1.3c1-1.023,1.156.261,7.074,5.008a.913.913,0,0,1,.148,1.293.939.939,0,0,1-1.31.125m48.618,20.221a.935.935,0,0,1-.545-.935.909.909,0,0,1,1.017-.809c2.523.281,5.082.46,7.608.53a.944.944,0,0,1,.923.944.908.908,0,0,1-.943.893c-2.578-.072-5.19-.254-7.766-.541a.954.954,0,0,1-.294-.082m20.161.04a.942.942,0,0,1-.543-.733.9.9,0,0,1,.808-1.013c2.508-.27,5.035-.65,7.511-1.129a.952.952,0,0,1,1.107.726.9.9,0,0,1-.717,1.078c-2.528.488-5.107.876-7.666,1.151a.943.943,0,0,1-.5-.081m19.606-4.32a.944.944,0,0,1-.494-.535.9.9,0,0,1,.561-1.166c2.379-.8,4.752-1.721,7.053-2.721a.955.955,0,0,1,1.236.473.9.9,0,0,1-.459,1.21c-2.348,1.021-4.769,1.955-7.2,2.777a.952.952,0,0,1-.7-.039m18.112-8.444a.965.965,0,0,1-.4-.352.9.9,0,0,1,.288-1.263c2.137-1.3,4.241-2.707,6.258-4.18a.946.946,0,0,1,1.306.2.9.9,0,0,1-.178,1.284c-2.057,1.5-4.205,2.94-6.386,4.266a.944.944,0,0,1-.883.047M171.615,193.5c-1.025-1.026.274-1.125,5.149-6.747a.935.935,0,0,1,1.427,1.206c-1.663,1.919-3.432,3.79-5.257,5.56a.944.944,0,0,1-1.319-.02m12.744-15.2c-1.226-.781.008-1.152,3.491-7.721a.937.937,0,0,1,1.657.873c-1.189,2.241-2.488,4.456-3.862,6.582a.934.934,0,0,1-1.286.266m8.917-17.669a.926.926,0,0,1-.494-1.153c.853-2.345,1.613-4.745,2.259-7.134a.919.919,0,0,1,1.141-.633.937.937,0,0,1,.662,1.136c-.659,2.436-1.435,4.885-2.306,7.277a.921.921,0,0,1-1.191.537.573.573,0,0,1-.071-.03" transform="translate(-9.964 -34.753)" fill="#aab1ba"/>
          <path id="Trazado_215196" data-name="Trazado 215196" d="M31.97,192.142c-2.034-2.534-3.077-3.567-2.1-4.261,1.018-.722,1.471.542,3.553,3.137a.905.905,0,0,1-.145,1.289.947.947,0,0,1-1.31-.165" transform="translate(-6.759 -43.003)" fill="#aab1ba"/>
          <path id="Trazado_215197" data-name="Trazado 215197" d="M45.7,134.2l13.351-.7A59.419,59.419,0,0,0,72.54,146.764c-.387,12.8-1.321,13.668.011,14.219l14.893,6.161a1.1,1.1,0,0,0,1.241-.274l8.767-9.8a59.142,59.142,0,0,0,18.888.13l8.974,9.937a1.118,1.118,0,0,0,1.246.292l14.77-5.944a1.062,1.062,0,0,0,.666-1.062l-.944-13.168A56.4,56.4,0,0,0,154.279,134.2l13.358.9a1.078,1.078,0,0,0,1.076-.658l6-14.569a1.084,1.084,0,0,0-.3-1.228l-10.1-8.81a56.607,56.607,0,0,0-.2-18.61c9.518-8.671,10.764-8.591,10.206-9.893-6.424-14.268-5.919-15.408-7.382-15.332l-13.351.7A59.413,59.413,0,0,0,140.1,53.433c.387-12.79,1.321-13.668-.01-14.219-14.9-5.867-15.193-6.941-16.135-5.887l-8.767,9.8A59.164,59.164,0,0,0,96.3,43c-8.86-9.414-8.889-10.764-10.221-10.228-14.512,6.141-15.537,5.585-15.436,7.007l.945,13.168A56.394,56.394,0,0,0,58.36,66c-12.769-.594-13.887-1.567-14.434-.237-5.672,14.519-6.788,14.843-5.7,15.8l10.1,8.81a56.627,56.627,0,0,0,.2,18.61c-9.486,8.641-10.767,8.584-10.206,9.893,6.424,14.269,5.919,15.409,7.381,15.332" transform="translate(-8.674 -7.485)" fill="#aab1ba"/>
          <path id="Trazado_215198" data-name="Trazado 215198" d="M106.506,113.209a15.326,15.326,0,0,1,17.624-12.9,15.8,15.8,0,0,1,13.4,17.591A15.327,15.327,0,0,1,119.9,130.8a15.794,15.794,0,0,1-13.4-17.591m13.587,16.229.008,0Zm3.66-26.4a12.573,12.573,0,0,0-14.475,10.591,12.971,12.971,0,0,0,11,14.448,12.587,12.587,0,0,0,14.475-10.591,12.972,12.972,0,0,0-11-14.448" transform="translate(-24.371 -22.943)" fill="#e8eaed"/>
          <path id="Trazado_215199" data-name="Trazado 215199" d="M98.632,143.976h0a41.408,41.408,0,0,1-6.035-3.418,1.361,1.361,0,0,1-.375-1.92,1.4,1.4,0,0,1,1.942-.335,38.776,38.776,0,0,0,7.023,3.8c18.625,7.7,39.811-.445,47.982-18.178q.313-.68.6-1.378c7.735-18.8-1.628-40.319-20.7-48.213-19.041-7.878-40.858.809-48.582,19.555-4.591,11.16-1.829,19.062-2.356,20.208a1.411,1.411,0,0,1-2.658-.395,38.727,38.727,0,0,1,3.064-22.367c14.313-31.058,59.862-29.788,73.515,2.02a38.756,38.756,0,0,1,.308,30.266q-.31.755-.65,1.493a38.623,38.623,0,0,1-20.854,19.75,40.43,40.43,0,0,1-30.718-.224q-.762-.315-1.51-.66" transform="translate(-17.181 -15.753)" fill="#e8eaed"/>
          <path id="Trazado_215200" data-name="Trazado 215200" d="M252.338,72.769a32.526,32.526,0,0,0,8.029,6.831l.15,7.463c.016.829.725.508,8.952,3.322.762.246.678-.466,5.161-6.185a32.542,32.542,0,0,0,10.507-.853l5.387,5.175c.6.574.871-.153,8.678-3.982a.615.615,0,0,0,.328-.633l-1.053-7.395a32.521,32.521,0,0,0,6.831-8.028c7.129-.292,7.784.2,8.035-.575,2.575-8.491,3.179-8.722,2.535-9.207l-5.97-4.482a32.542,32.542,0,0,0-.853-10.507l5.175-5.386c.574-.6-.153-.872-3.982-8.679-.362-.709-.777-.153-8.027.725a32.557,32.557,0,0,0-8.029-6.831l-.15-7.463c-.016-.829-.725-.508-8.952-3.322-.757-.244-.654.437-5.161,6.185a32.542,32.542,0,0,0-10.507.853l-5.386-5.174a.615.615,0,0,0-.705-.1L255.357,18.6a.614.614,0,0,0-.328.633l1.052,7.395a32.528,32.528,0,0,0-6.831,8.029c-7.129.291-7.785-.2-8.034.575-2.574,8.487-3.18,8.721-2.535,9.206l5.969,4.482a32.542,32.542,0,0,0,.853,10.507c-4.834,5.247-5.65,5.364-5.278,6.091l4.086,7.974c.365.713.813.149,8.027-.725" transform="translate(-54.634 -2.914)" fill="#aab1ba"/>
          <path id="Trazado_215201" data-name="Trazado 215201" d="M276.714,59.737a9.349,9.349,0,1,1,8.725,9.933,9.344,9.344,0,0,1-8.725-9.933m8.814,8.544.008,0Zm-6.034-8.364a6.562,6.562,0,1,0,11.479-3.906,6.572,6.572,0,0,0-11.479,3.906" transform="translate(-63.399 -11.684)" fill="#e8eaed"/>
          <path id="Trazado_215202" data-name="Trazado 215202" d="M227.667,79.835c-.359-1.2-.675-2.437-.94-3.668a.929.929,0,0,1,.713-1.1c1.262-.271,1.082,1.138,2.007,4.24a.929.929,0,1,1-1.78.531" transform="translate(-51.945 -17.192)" fill="#aab1ba"/>
          <path id="Trazado_215203" data-name="Trazado 215203" d="M225.376,46.6a49.64,49.64,0,0,1,.91-7.6.929.929,0,0,1,1.822.364c-1.329,6.65-.291,8.266-1.844,8.2a.929.929,0,0,1-.889-.968m5.3-18.122a.93.93,0,0,1-.43-1.242,49.078,49.078,0,0,1,3.879-6.6.929.929,0,0,1,1.522,1.065,46.951,46.951,0,0,0-3.73,6.346.944.944,0,0,1-1.241.429M242.68,13a.929.929,0,0,1-.216-1.549,49.343,49.343,0,0,1,6.182-4.507.928.928,0,1,1,.974,1.581,47.534,47.534,0,0,0-5.948,4.337.927.927,0,0,1-.992.138m17.156-9.44a.929.929,0,0,1,.116-1.731,48.683,48.683,0,0,1,7.47-1.659.929.929,0,0,1,.259,1.84A46.727,46.727,0,0,0,260.5,3.6a.927.927,0,0,1-.661-.044M278.806.825a.928.928,0,0,1,1.027-.819,49.138,49.138,0,0,1,7.514,1.449.929.929,0,0,1-.493,1.791,47.266,47.266,0,0,0-7.229-1.394.928.928,0,0,1-.818-1.028" transform="translate(-51.64 0)" fill="#aab1ba"/>
          <path id="Trazado_215204" data-name="Trazado 215204" d="M322.394,11.662c-2.806-1.933-4.042-2.133-3.413-3.218a.919.919,0,0,1,1.269-.337c1.083.627,2.158,1.309,3.2,2.025a.929.929,0,0,1-1.055,1.529" transform="translate(-73.051 -1.828)" fill="#aab1ba"/>
          <path id="Trazado_215205" data-name="Trazado 215205" d="M349.272,53.918c-.434-3.393-1.109-4.436.12-4.691a.929.929,0,0,1,1.1.721c.254,1.226.465,2.482.624,3.734a.929.929,0,0,1-1.842.236" transform="translate(-79.896 -11.275)" fill="#aab1ba"/>
          <path id="Trazado_215206" data-name="Trazado 215206" d="M268.038,109.876c.485-1.465,1.584.044,8.2,1.149a.929.929,0,0,1-.306,1.832,49.108,49.108,0,0,1-7.3-1.808.929.929,0,0,1-.59-1.174m19.09,2.643a.929.929,0,0,1,.849-1c6.745-.554,7.9-1.969,8.267-.464a.929.929,0,0,1-.685,1.121,48.621,48.621,0,0,1-7.43,1.194.929.929,0,0,1-1-.849m18.589-5.058c-.726-1.367,1.108-1.105,6.5-5.13a.929.929,0,0,1,1.112,1.489,49.361,49.361,0,0,1-6.355,4.026.929.929,0,0,1-1.256-.385M320.822,95.5c-1.2-.976.591-1.452,3.974-7.265a.929.929,0,0,1,1.606.934,49.028,49.028,0,0,1-4.274,6.195.928.928,0,0,1-1.306.136m8.56-18.078c1.837-6.507.918-8.1,2.458-7.908a.928.928,0,0,1,.809,1.034,49.084,49.084,0,0,1-1.481,7.379.928.928,0,1,1-1.787-.5" transform="translate(-61.405 -15.923)" fill="#aab1ba"/>
          <path id="Trazado_215207" data-name="Trazado 215207" d="M253.444,115.394c-1.057-.681-2.1-1.411-3.1-2.171a.93.93,0,0,1-.177-1.3c.782-1.028,1.558.155,4.284,1.911a.929.929,0,1,1-1.006,1.562" transform="translate(-57.277 -25.557)" fill="#aab1ba"/>
          <path id="Trazado_215208" data-name="Trazado 215208" d="M270.7,76.091a1.394,1.394,0,1,1,1.348-2.44,20.263,20.263,0,0,0,19.367.5c15.962-8.179,14.076-31.741-3.013-37.251a20.257,20.257,0,0,0-24.573,10.774c-4.25,9.223.554,14.022-2.387,14.7a1.393,1.393,0,0,1-1.672-1.042,23.017,23.017,0,1,1,15.36,16.716h0a23.192,23.192,0,0,1-4.429-1.96" transform="translate(-59.385 -7.592)" fill="#e8eaed"/>
          <path id="Trazado_215209" data-name="Trazado 215209" d="M263.271,130.752c-.035-.436-.479-.812-1.233-1.114.818-.451,1.271-.935,1.233-1.409-.116-1.435-4.66-2.239-10.151-1.8s-9.847,1.965-9.731,3.4c.035.435.479.812,1.233,1.114-.818.451-1.27.934-1.233,1.409.035.435.479.812,1.233,1.114-.818.451-1.27.934-1.233,1.408.035.436.479.813,1.233,1.115-.818.451-1.27.934-1.233,1.408.052.635.97,1.146,2.452,1.481a12.685,12.685,0,0,0,.038,1.55c.215,2.645,3.189,4.718,7.123,4.718s7.339-2.827,7.378-5.479a13.474,13.474,0,0,0-.077-1.731c1.883-.628,3.029-1.4,2.969-2.141-.035-.436-.479-.812-1.233-1.114.818-.452,1.271-.935,1.233-1.409-.035-.436-.479-.812-1.233-1.114.818-.451,1.271-.935,1.233-1.409" transform="translate(-55.767 -28.941)" fill="#394a5f"/>
        </g>
      </g>
      <g id="Grupo_149678" data-name="Grupo 149678" transform="translate(190.35 109.07)">
        <g id="Grupo_149677" data-name="Grupo 149677" clip-path="url(#clip-path-2)">
          <rect id="Rectángulo_45228" data-name="Rectángulo 45228" width="2.67" height="13.765" transform="matrix(0.09, -0.996, 0.996, 0.09, -0.141, 1.428)" fill="url(#linear-gradient)"/>
        </g>
      </g>
      <g id="Grupo_149680" data-name="Grupo 149680" transform="translate(189.397 105.856)">
        <g id="Grupo_149679" data-name="Grupo 149679" clip-path="url(#clip-path-3)">
          <rect id="Rectángulo_45229" data-name="Rectángulo 45229" width="3.615" height="16.679" transform="translate(-0.206 2.112) rotate(-84.819)" fill="url(#linear-gradient-2)"/>
        </g>
      </g>
      <g id="Grupo_149682" data-name="Grupo 149682" transform="translate(189.086 103.333)">
        <g id="Grupo_149681" data-name="Grupo 149681" clip-path="url(#clip-path-4)">
          <rect id="Rectángulo_45230" data-name="Rectángulo 45230" width="3.646" height="16.99" transform="translate(-0.208 2.114) rotate(-84.819)" fill="url(#linear-gradient-3)"/>
        </g>
      </g>
      <g id="Grupo_149684" data-name="Grupo 149684" transform="translate(189.979 100.828)">
        <g id="Grupo_149683" data-name="Grupo 149683" clip-path="url(#clip-path-5)">
          <rect id="Rectángulo_45231" data-name="Rectángulo 45231" width="3.542" height="16.054" transform="translate(-0.202 2.095) rotate(-84.819)" fill="url(#linear-gradient-4)"/>
        </g>
      </g>
      <g id="Grupo_149686" data-name="Grupo 149686">
        <g id="Grupo_149685" data-name="Grupo 149685" clip-path="url(#clip-path)">
          <path id="Trazado_215214" data-name="Trazado 215214" d="M234.856,99.4a18.562,18.562,0,0,0-3.325-6.492,42.97,42.97,0,0,1-9.257-23.93c-.955-16.631,13.795-24.957,27.254-23.827s26.74,11.151,25.286,26.624c-.895,9.519-6.223,16.74-10.19,20.887a22.033,22.033,0,0,0-5.289,9.371c-1.191,4.3-4.024,9.655-10.758,9.982-8.715.422-12.334-7.7-13.721-12.615" transform="translate(-50.92 -10.321)" fill="#fccc10"/>
        </g>
      </g>
      <g id="Grupo_149688" data-name="Grupo 149688" transform="translate(199.873 66.777)">
        <g id="Grupo_149687" data-name="Grupo 149687" clip-path="url(#clip-path-7)">
          <rect id="Rectángulo_45233" data-name="Rectángulo 45233" width="29.54" height="23.498" transform="matrix(0.583, -0.813, 0.813, 0.583, -15.238, 21.225)" fill="url(#linear-gradient-5)"/>
        </g>
      </g>
      <g id="Grupo_149690" data-name="Grupo 149690" transform="translate(189.217 67.02)">
        <g id="Grupo_149689" data-name="Grupo 149689" clip-path="url(#clip-path-8)">
          <rect id="Rectángulo_45234" data-name="Rectángulo 45234" width="29.54" height="23.498" transform="translate(-15.282 21.225) rotate(-54.367)" fill="url(#linear-gradient-6)"/>
        </g>
      </g>
      <g id="Grupo_149692" data-name="Grupo 149692">
        <g id="Grupo_149691" data-name="Grupo 149691" clip-path="url(#clip-path)">
          <path id="Trazado_215217" data-name="Trazado 215217" d="M261.254,83.366a.494.494,0,0,0-.618-.16l-2.622,1.225-.91-2.593a.557.557,0,0,0-.319-.321.647.647,0,0,0-.806.248l0,.008L253.817,85.7l-2-5.6,0-.009a.644.644,0,0,0-.3-.341.787.787,0,0,0-.991.2L247.5,84.1a.364.364,0,0,0,.106.524.506.506,0,0,0,.641-.07l2.654-2.961,2.39,5.324,0,0a.421.421,0,0,0,.21.206.5.5,0,0,0,.626-.161l2.306-3.7.868,1.872.008.016a.289.289,0,0,0,.022.04.494.494,0,0,0,.617.16l3.113-1.455a.37.37,0,0,0,.185-.536" transform="translate(-56.695 -18.253)" fill="#fff"/>
          <path id="Trazado_215218" data-name="Trazado 215218" d="M277.18,100.329a.591.591,0,0,1-.356-.118.6.6,0,0,1-.123-.836,34.807,34.807,0,0,0,2.185-3.318.6.6,0,0,1,1.035.6,35.943,35.943,0,0,1-2.26,3.433.6.6,0,0,1-.48.241" transform="translate(-63.373 -21.941)" fill="#fff"/>
          <path id="Trazado_215219" data-name="Trazado 215219" d="M282.206,86.269a.6.6,0,0,1-.548-.836,27.9,27.9,0,0,0,.641-21.175.6.6,0,0,1,1.087-.5,28.653,28.653,0,0,1-.631,22.149.6.6,0,0,1-.549.36" transform="translate(-64.525 -14.529)" fill="#fff"/>
          <path id="Trazado_215220" data-name="Trazado 215220" d="M152.88,375.727s-.777,4.166-1.178,8.293a2.846,2.846,0,0,0,2.693,3.109c5.5.281,17.26.839,21.484.691a.926.926,0,0,0,.826-1.261,2.073,2.073,0,0,0-1.049-1.127l-19.35-9.118Z" transform="translate(-34.756 -86.09)" fill="#394a5f"/>
        </g>
      </g>
      <g id="Grupo_149694" data-name="Grupo 149694" transform="translate(117.544 286.455)">
        <g id="Grupo_149693" data-name="Grupo 149693" clip-path="url(#clip-path-10)">
          <rect id="Rectángulo_45236" data-name="Rectángulo 45236" width="7.398" height="6.345" transform="translate(-0.07 7.338) rotate(-89.456)" fill="url(#linear-gradient-7)"/>
        </g>
      </g>
      <g id="Grupo_149696" data-name="Grupo 149696">
        <g id="Grupo_149695" data-name="Grupo 149695" clip-path="url(#clip-path)">
          <path id="Trazado_215222" data-name="Trazado 215222" d="M149.612,250.78c-.268,1.3-1.993,65.029,4.547,93.658a.97.97,0,0,1-.58,1.122,16.869,16.869,0,0,1-5.56,1.075,1.67,1.67,0,0,1-1.645-1.214c-1.884-6.646-10.9-39.939-11.814-71.669-1.022-35.455.012-1.206.012-1.206l1.007-21.9Z" transform="translate(-30.729 -57.43)" fill="#394a5f"/>
          <path id="Trazado_215223" data-name="Trazado 215223" d="M123.485,378.275s-1.193,2.1-2.383,7.682a1.737,1.737,0,0,0,1.508,2.094c1.815.2,4.609.452,6.848.458a1.732,1.732,0,0,0,1.733-1.915,14.606,14.606,0,0,0-3.332-8.04Z" transform="translate(-27.739 -86.674)" fill="#394a5f"/>
        </g>
      </g>
      <g id="Grupo_149698" data-name="Grupo 149698" transform="translate(94.777 284.924)">
        <g id="Grupo_149697" data-name="Grupo 149697" clip-path="url(#clip-path-12)">
          <rect id="Rectángulo_45238" data-name="Rectángulo 45238" width="8.89" height="5.467" transform="translate(-0.084 8.839) rotate(-89.456)" fill="url(#linear-gradient-8)"/>
        </g>
      </g>
      <g id="Grupo_149700" data-name="Grupo 149700">
        <g id="Grupo_149699" data-name="Grupo 149699" clip-path="url(#clip-path)">
          <path id="Trazado_215225" data-name="Trazado 215225" d="M118.486,252.054c-5.894,33.576.415,83.129,2.609,92.837a1.512,1.512,0,0,0,1.209,1.159,10.142,10.142,0,0,0,4.36-.133,1.384,1.384,0,0,0,1.008-1.265c.382-7.828.289-55.907,5.661-74.857a4.318,4.318,0,0,1,1.687-2.365l10.147-7.067.882-11.573Z" transform="translate(-26.587 -57.005)" fill="#394a5f"/>
          <path id="Trazado_215226" data-name="Trazado 215226" d="M154.782,170.04c-16.7-.436-35.166,4.049-35.166,4.049-5.255,29-1.467,62.537-1.467,62.537,12.9,3.514,27.531-1.81,27.531-1.81,2.265-12.12,12.616-46.19,12.616-46.19a55,55,0,0,0,20.477-6.284c-4.175-4.934-6.106-11.181-6.936-14.87a56.018,56.018,0,0,1-17.056,2.568" transform="translate(-26.769 -38.373)" fill="#fccc10"/>
        </g>
      </g>
      <g id="Grupo_149702" data-name="Grupo 149702" transform="translate(145.068 106.251)">
        <g id="Grupo_149701" data-name="Grupo 149701" clip-path="url(#clip-path-14)">
          <rect id="Rectángulo_45240" data-name="Rectángulo 45240" width="38.026" height="32.863" transform="translate(-0.358 37.715) rotate(-89.456)" fill="url(#linear-gradient-9)"/>
        </g>
      </g>
      <g id="Grupo_149704" data-name="Grupo 149704" transform="translate(173.905 90.27)">
        <g id="Grupo_149703" data-name="Grupo 149703" clip-path="url(#clip-path-15)">
          <rect id="Rectángulo_45241" data-name="Rectángulo 45241" width="22.312" height="18.671" transform="matrix(0.411, -0.912, 0.912, 0.411, -7.519, 15.898)" fill="url(#linear-gradient-10)"/>
        </g>
      </g>
      <g id="Grupo_149706" data-name="Grupo 149706" transform="translate(175.946 97.909)">
        <g id="Grupo_149705" data-name="Grupo 149705" clip-path="url(#clip-path-16)">
          <rect id="Rectángulo_45242" data-name="Rectángulo 45242" width="9.169" height="8.331" transform="matrix(0.553, -0.833, 0.833, 0.553, -3.599, 5.42)" fill="url(#linear-gradient-11)"/>
        </g>
      </g>
      <g id="Grupo_149708" data-name="Grupo 149708">
        <g id="Grupo_149707" data-name="Grupo 149707" clip-path="url(#clip-path)">
          <path id="Trazado_215230" data-name="Trazado 215230" d="M121.227,192.287l-6.251-16.231s-15.7,10.449-18.392,23.862a36.9,36.9,0,0,1,13.525,3.763c1.214-6.334,11.118-11.4,11.118-11.4" transform="translate(-22.13 -40.34)" fill="#fccc10"/>
        </g>
      </g>
      <g id="Grupo_149710" data-name="Grupo 149710" transform="translate(74.062 159.579)">
        <g id="Grupo_149709" data-name="Grupo 149709" clip-path="url(#clip-path-18)">
          <rect id="Rectángulo_45244" data-name="Rectángulo 45244" width="32.155" height="41.517" transform="translate(-0.722 31.762) rotate(-89.456)" fill="url(#linear-gradient-12)"/>
        </g>
      </g>
      <g id="Grupo_149712" data-name="Grupo 149712" transform="translate(105.735 117.949)">
        <g id="Grupo_149711" data-name="Grupo 149711" clip-path="url(#clip-path-19)">
          <rect id="Rectángulo_45245" data-name="Rectángulo 45245" width="19.318" height="16.547" transform="translate(-0.24 19.161) rotate(-89.456)" fill="url(#linear-gradient-13)"/>
        </g>
      </g>
      <g id="Grupo_149714" data-name="Grupo 149714" transform="translate(109.266 103.829)">
        <g id="Grupo_149713" data-name="Grupo 149713" clip-path="url(#clip-path-20)">
          <rect id="Rectángulo_45246" data-name="Rectángulo 45246" width="27.141" height="26.977" transform="matrix(0.529, -0.849, 0.849, 0.529, -8.93, 14.334)" fill="url(#linear-gradient-14)"/>
        </g>
      </g>
      <g id="Grupo_149716" data-name="Grupo 149716">
        <g id="Grupo_149715" data-name="Grupo 149715" clip-path="url(#clip-path)">
          <path id="Trazado_215234" data-name="Trazado 215234" d="M143.979,142.341a.453.453,0,0,0,.2-.661,11.81,11.81,0,0,1-1.591-3.462s-1.042-.682,2.685-1.536,9.285-2.183,10.482-5.337c1.166-3.075-1.746-10.864-6.569-4.726a.452.452,0,0,1-.717,0c-.771-1.024-2.8-3.153-5.667-1.9-2.679,1.172-3,3.124-2.971,4.109a.45.45,0,0,1-.537.456,5.22,5.22,0,0,0-6.123,2.784c-1.27,2.723-.476,4.278.253,5.042a.451.451,0,0,1-.2.748,2.716,2.716,0,0,0-1.946,3.081c.131,2.872,3.343,2.649,4.258,2.528a.455.455,0,0,1,.4.146c.775.875,4.27,4.591,8.087,5.071a.456.456,0,0,0,.484-.6l-1.607-4.823a.455.455,0,0,1,.251-.561Z" transform="translate(-30.079 -28.487)" fill="#394a5f"/>
        </g>
      </g>
      <g id="Grupo_149718" data-name="Grupo 149718" transform="translate(110.086 113.1)">
        <g id="Grupo_149717" data-name="Grupo 149717" clip-path="url(#clip-path-22)">
          <rect id="Rectángulo_45248" data-name="Rectángulo 45248" width="6.986" height="7.491" transform="translate(-2.311 3.215) rotate(-58.076)" fill="url(#linear-gradient-15)"/>
        </g>
      </g>
      <g id="Grupo_149720" data-name="Grupo 149720">
        <g id="Grupo_149719" data-name="Grupo 149719" clip-path="url(#clip-path)">
          <path id="Trazado_215236" data-name="Trazado 215236" d="M141.368,226.182l9.591-33.494a.976.976,0,0,1,.826-.7c1.738-.2,6.773-.772,12.587-1.263,7-.593,15.135-1.072,20-.664a.981.981,0,0,1,.8,1.411c-2.764,5.591-14.131,28.333-19.824,35.784a.984.984,0,0,1-.791.389l-22.253-.207a.98.98,0,0,1-.933-1.25" transform="translate(-32.383 -43.513)" fill="#394a5f"/>
        </g>
      </g>
      <g id="Grupo_149722" data-name="Grupo 149722" transform="translate(110.376 163.157)">
        <g id="Grupo_149721" data-name="Grupo 149721" clip-path="url(#clip-path-24)">
          <rect id="Rectángulo_45250" data-name="Rectángulo 45250" width="13.189" height="11.74" transform="translate(-0.41)" fill="url(#linear-gradient-16)"/>
        </g>
      </g>
      <g id="Grupo_149724" data-name="Grupo 149724">
        <g id="Grupo_149723" data-name="Grupo 149723" clip-path="url(#clip-path)">
          <path id="Trazado_215238" data-name="Trazado 215238" d="M170.391,203.1a2.816,2.816,0,1,0,2.815-2.815,2.815,2.815,0,0,0-2.815,2.815" transform="translate(-39.042 -45.891)" fill="#aab1ba"/>
          <path id="Trazado_215239" data-name="Trazado 215239" d="M155.015,203.216,154.3,203l1.953-6.624a3.017,3.017,0,0,1,2.273-2.115c6.189-1.292,22.492-1.556,23.183-1.566l.012.749c-.17,0-16.922.274-23.042,1.55a2.273,2.273,0,0,0-1.707,1.594Z" transform="translate(-35.354 -44.153)" fill="#aab1ba"/>
          <path id="Trazado_215240" data-name="Trazado 215240" d="M6.278,327.941c-1.022,1.513-5.085,35.767-5.722,48.418a1.5,1.5,0,0,0,2.979.3l7.433-47.629Z" transform="translate(-0.127 -75.141)" fill="#586678"/>
          <path id="Trazado_215241" data-name="Trazado 215241" d="M48.966,327.941c1.022,1.513,5.086,35.767,5.722,48.418a1.5,1.5,0,0,1-2.979.3L44.276,329.03Z" transform="translate(-10.145 -75.141)" fill="#586678"/>
          <path id="Trazado_215242" data-name="Trazado 215242" d="M0,323.029l0,.373a5.092,5.092,0,0,0,5.189,4.941l34.354.584a5.136,5.136,0,0,0,5.378-4.661l.018-.342a5.073,5.073,0,0,0-5.178-5.137l-34.368-.616A5.117,5.117,0,0,0,0,323.029" transform="translate(0 -72.902)" fill="#586678"/>
          <path id="Trazado_215243" data-name="Trazado 215243" d="M90.906,388.837c-6.107,0-8.809-.524-10.017-1a2.316,2.316,0,0,0,2.256,1.795h21.6a1.052,1.052,0,0,0,1.013-1.327c-2.463.2-7.693.534-14.857.534" transform="translate(-18.534 -88.865)" fill="#aab1ba"/>
          <path id="Trazado_215244" data-name="Trazado 215244" d="M105.744,386.747a1.018,1.018,0,0,0-.177-.368c-1.646-2.1-4.952-5.4-9.449-5.337-6.588.092-8.884.807-14,.04l-1.208,4a2.293,2.293,0,0,0-.036,1.194c1.208.478,3.91,1,10.017,1,7.164,0,12.394-.336,14.857-.534" transform="translate(-18.516 -87.308)" fill="#2432ff"/>
        </g>
      </g>
      <g id="Grupo_149726" data-name="Grupo 149726" transform="translate(63.598 289.459)">
        <g id="Grupo_149725" data-name="Grupo 149725" clip-path="url(#clip-path-26)">
          <rect id="Rectángulo_45252" data-name="Rectángulo 45252" width="6.74" height="6.538" fill="url(#linear-gradient-17)"/>
        </g>
      </g>
      <g id="Grupo_149728" data-name="Grupo 149728">
        <g id="Grupo_149727" data-name="Grupo 149727" clip-path="url(#clip-path)">
          <path id="Trazado_215246" data-name="Trazado 215246" d="M140.006,382.127c-4.761,3.825-7.194,5.111-8.433,5.5a2.314,2.314,0,0,0,2.878-.022l16.841-13.532a1.046,1.046,0,0,0-.038-1.664c-1.8,1.7-5.664,5.233-11.249,9.72" transform="translate(-30.147 -85.33)" fill="#aab1ba"/>
          <path id="Trazado_215247" data-name="Trazado 215247" d="M150.58,372.219a1,1,0,0,0-.367-.174c-2.593-.6-7.227-1.089-10.693,1.777-5.078,4.2-6.423,6.192-10.892,8.8l1.554,3.862a2.277,2.277,0,0,0,.716.95c1.24-.386,3.672-1.672,8.433-5.5,5.584-4.487,9.452-8.024,11.249-9.72" transform="translate(-29.473 -85.141)" fill="#2432ff"/>
          <path id="Trazado_215248" data-name="Trazado 215248" d="M41.194,300.978s36.562,2.986,44.063,6.516-6.121,53.017-6.121,53.017-2.041.983-6.585-.43c0,0,4.659-36.518,1.192-44.438l-39.587-6.475Z" transform="translate(-7.826 -68.963)" fill="#394a5f"/>
        </g>
      </g>
      <g id="Grupo_149730" data-name="Grupo 149730" transform="translate(95.523 288.375)">
        <g id="Grupo_149729" data-name="Grupo 149729" clip-path="url(#clip-path-28)">
          <rect id="Rectángulo_45254" data-name="Rectángulo 45254" width="8.047" height="9.109" transform="translate(0)" fill="url(#linear-gradient-18)"/>
        </g>
      </g>
      <g id="Grupo_149732" data-name="Grupo 149732">
        <g id="Grupo_149731" data-name="Grupo 149731" clip-path="url(#clip-path)">
          <path id="Trazado_215250" data-name="Trazado 215250" d="M14.38,300.582a18.512,18.512,0,0,0-1.143,6.677,10.026,10.026,0,0,0,9.566,9.808l43.222,1.97a2.074,2.074,0,0,1,1.914,1.559c1.015,3.928,5.98,15.992,30.248,40.066a1.957,1.957,0,0,0,2.421.264l3.454-2.182a.8.8,0,0,0,.261-1.075L79.158,314.693A9.741,9.741,0,0,0,73.24,310.3L36.4,300.887Z" transform="translate(-3.033 -68.872)" fill="#394a5f"/>
        </g>
      </g>
      <g id="Grupo_149734" data-name="Grupo 149734" transform="translate(44.592 164.578)">
        <g id="Grupo_149733" data-name="Grupo 149733" clip-path="url(#clip-path-30)">
          <rect id="Rectángulo_45256" data-name="Rectángulo 45256" width="22.616" height="22.27" transform="translate(-6.03 15.206) rotate(-68.369)" fill="url(#linear-gradient-19)"/>
        </g>
      </g>
      <g id="Grupo_149736" data-name="Grupo 149736">
        <g id="Grupo_149735" data-name="Grupo 149735" clip-path="url(#clip-path)">
          <path id="Trazado_215252" data-name="Trazado 215252" d="M13.7,284.138s11.669,2.844,22.806,0c0,0,15.585-20.95,21.614-26.652,0,0,9.617,15.176,31.024,17.326l1.193-2.667S73.3,264.289,68.05,252.218,60.7,235,55.924,231.849c-2.972-1.96-4.752-3.3-5.671-4.032a1.525,1.525,0,0,0-1.749-.112c-5.065,3.087-28.9,19.411-34.8,56.432" transform="translate(-3.139 -52.123)" fill="#2432ff"/>
          <path id="Trazado_215253" data-name="Trazado 215253" d="M68.567,262.537a.747.747,0,0,1-.594-.293A46.555,46.555,0,0,1,62.1,251.834a.749.749,0,0,1,1.4-.537,45.884,45.884,0,0,0,5.662,10.036.748.748,0,0,1-.594,1.2" transform="translate(-14.218 -57.47)" fill="#394a5f"/>
        </g>
      </g>
      <g id="Grupo_149738" data-name="Grupo 149738" transform="translate(84.719 216.205)">
        <g id="Grupo_149737" data-name="Grupo 149737" clip-path="url(#clip-path-32)">
          <rect id="Rectángulo_45258" data-name="Rectángulo 45258" width="18.586" height="4.478" transform="translate(0)" fill="url(#linear-gradient-20)"/>
        </g>
      </g>
      <g id="Grupo_149740" data-name="Grupo 149740" transform="translate(48.193 152.303)">
        <g id="Grupo_149739" data-name="Grupo 149739" clip-path="url(#clip-path-33)">
          <rect id="Rectángulo_45259" data-name="Rectángulo 45259" width="29.764" height="29.764" transform="matrix(0.708, -0.706, 0.706, 0.708, -11.037, 10.612)" fill="url(#linear-gradient-21)"/>
        </g>
      </g>
      <g id="Grupo_149742" data-name="Grupo 149742">
        <g id="Grupo_149741" data-name="Grupo 149741" clip-path="url(#clip-path)">
          <path id="Trazado_215256" data-name="Trazado 215256" d="M65.789,207.3l.609-.08s-3.187-4.815-1.1-6.009,10.581-4.125,12.056-7.471a5.81,5.81,0,0,0-3.271-7.63.327.327,0,0,0-.392.207l-.15.406a.33.33,0,0,1-.612.018.328.328,0,0,0-.6-.012c-.455,1-1.818,2.714-5.9,4.039-5.8,1.879-9.409,4.8-8.964,8.921a.33.33,0,0,1-.471.335c-.474-.209-1.193-.242-2.027.671-1.451,1.586-.315,5.057,3.648,7.514a.328.328,0,0,1,.053.527c-.592.507-1.426,1.639,1.254,2.648,2.743,1.031,4.239.682,4.792.461a.33.33,0,0,0,.2-.371l-.7-3.61a.33.33,0,0,1,.281-.39Z" transform="translate(-12.455 -42.64)" fill="#394a5f"/>
        </g>
      </g>
      <g id="Grupo_149744" data-name="Grupo 149744" transform="translate(48.927 161.86)">
        <g id="Grupo_149743" data-name="Grupo 149743" clip-path="url(#clip-path-35)">
          <rect id="Rectángulo_45261" data-name="Rectángulo 45261" width="8.519" height="8.518" transform="matrix(0.708, -0.706, 0.706, 0.708, -4.445, 2.937)" fill="url(#linear-gradient-22)"/>
        </g>
      </g>
      <g id="Grupo_149746" data-name="Grupo 149746">
        <g id="Grupo_149745" data-name="Grupo 149745" clip-path="url(#clip-path)">
          <path id="Trazado_215258" data-name="Trazado 215258" d="M100.726,289.7l.085,0,37.111-.037a1.658,1.658,0,1,0,0-3.316l-37.111.037a1.658,1.658,0,0,0-.08,3.314" transform="translate(-22.718 -65.612)" fill="#394a5f"/>
          <path id="Trazado_215259" data-name="Trazado 215259" d="M163.391,243.289c-.013.026-.026.052-.038.077l-15.615,33.666a1.658,1.658,0,1,0,3.009,1.394l15.615-33.665a1.658,1.658,0,0,0-2.971-1.472" transform="translate(-33.816 -55.542)" fill="#394a5f"/>
          <rect id="Rectángulo_45262" data-name="Rectángulo 45262" width="3.917" height="42.358" transform="translate(222.836 257.925)" fill="#586678"/>
          <path id="Trazado_215260" data-name="Trazado 215260" d="M303.666,389.839H269.361a2.549,2.549,0,0,1,2.549-2.549h29.207a2.549,2.549,0,0,1,2.549,2.549" transform="translate(-61.719 -88.74)" fill="#586678"/>
          <rect id="Rectángulo_45263" data-name="Rectángulo 45263" width="43.132" height="12.233" rx="5.464" transform="translate(203.906 248.434)" fill="#586678"/>
        </g>
      </g>
      <g id="Grupo_149748" data-name="Grupo 149748" transform="translate(182.05 229.682)">
        <g id="Grupo_149747" data-name="Grupo 149747" clip-path="url(#clip-path-37)">
          <rect id="Rectángulo_45265" data-name="Rectángulo 45265" width="74.21" height="44.001" transform="translate(-16.482 65.411) rotate(-75.964)" fill="url(#linear-gradient-23)"/>
        </g>
      </g>
      <g id="Grupo_149750" data-name="Grupo 149750">
        <g id="Grupo_149749" data-name="Grupo 149749" clip-path="url(#clip-path)">
          <path id="Trazado_215262" data-name="Trazado 215262" d="M244.472,384.689c-.8,1.051,8.641,2.438,13.413.139,0,0,6.615-11.508,6.615-17.433,0,0-.525-1.209-4.409-.934,0,0-2.221,13.627-4.567,15.153s-6.561.154-6.561.154-3.307,1.371-4.492,2.922" transform="translate(-56.005 -83.958)" fill="#394a5f"/>
        </g>
      </g>
      <g id="Grupo_149752" data-name="Grupo 149752" transform="translate(149.349 231.869)">
        <g id="Grupo_149751" data-name="Grupo 149751" clip-path="url(#clip-path-39)">
          <rect id="Rectángulo_45267" data-name="Rectángulo 45267" width="73.356" height="63.291" transform="translate(-4.644 69.27) rotate(-86.165)" fill="url(#linear-gradient-24)"/>
        </g>
      </g>
      <g id="Grupo_149754" data-name="Grupo 149754">
        <g id="Grupo_149753" data-name="Grupo 149753" clip-path="url(#clip-path)">
          <path id="Trazado_215264" data-name="Trazado 215264" d="M297.118,287.631s8.691,12.927,9.4,18.823-2.38,8.292-11.5,8.688-33.463.389-33.463.389l-20.777-17.757s15.142-5.4,19.078-6.93,37.258-3.212,37.258-3.212" transform="translate(-55.17 -65.905)" fill="#394a5f"/>
          <path id="Trazado_215265" data-name="Trazado 215265" d="M212.851,384.073s2.5,2.421.811,5.116c0,0-19.805,3.51-25.182,1.918,0,0,1.116-2.549,7.171-5.449l-.446.343a.723.723,0,0,0,.477,1.3c3.99-.227,12.248-.958,17.169-3.225" transform="translate(-43.186 -88.003)" fill="#394a5f"/>
          <path id="Trazado_215266" data-name="Trazado 215266" d="M263.172,181.164c17.765-3.02,26.129,11.469,25.518,14.513a.557.557,0,0,0,.7.639c2.039-.549,6.545-1.241,9.338,2.259,2.466,3.09.623,6.006-.88,7.606a.561.561,0,0,0,.468.948c3.75-.473,11.9-.587,13.231,7.046,1.243,7.118-3.711,9.126-6.65,9.691a.558.558,0,0,0-.186,1.021c1.466.93,3.164,2.851,2.478,6.643-1.076,5.944-12.729,5.458-14.092,5.38a.549.549,0,0,1-.243-.072l-18.666-10.646a.559.559,0,0,1-.274-.392l-3.769-21.763a.563.563,0,0,1,.149-.485L258.125,186.38c-4.417-.65,4.837-5.181,5.047-5.216" transform="translate(-58.871 -41.416)" fill="#394a5f"/>
          <path id="Trazado_215267" data-name="Trazado 215267" d="M278.035,271.484s-10.121-9.637-15.1-16.019a13.54,13.54,0,0,1-2.293-12.188c2.274-7.663,6.316-15.6,6.685-16.834.565-1.894,11.913-1.815,11.913-1.815s22.33,14.492,31.1,39.041l-9.853,3.067s-5.831-9.782-11.592-16c0,0,9.968,13.168,10.32,18.559Z" transform="translate(-59.591 -51.469)" fill="#2432ff"/>
        </g>
      </g>
      <g id="Grupo_149756" data-name="Grupo 149756" transform="translate(206.362 159.028)">
        <g id="Grupo_149755" data-name="Grupo 149755" clip-path="url(#clip-path-41)">
          <rect id="Rectángulo_45269" data-name="Rectángulo 45269" width="15.116" height="18.089" transform="translate(-2.483 0.387) rotate(-8.858)" fill="url(#linear-gradient-25)"/>
        </g>
      </g>
      <g id="Grupo_149758" data-name="Grupo 149758" transform="translate(194.235 148.113)">
        <g id="Grupo_149757" data-name="Grupo 149757" clip-path="url(#clip-path-42)">
          <rect id="Rectángulo_45270" data-name="Rectángulo 45270" width="27.066" height="29.634" transform="translate(-8.575 2.495) rotate(-18.641)" fill="url(#linear-gradient-26)"/>
        </g>
      </g>
      <g id="Grupo_149760" data-name="Grupo 149760">
        <g id="Grupo_149759" data-name="Grupo 149759" clip-path="url(#clip-path)">
          <path id="Trazado_215270" data-name="Trazado 215270" d="M263.14,198.595s-6.57-10.044-12.732-2.139l-.111,2.875s-7.216-.856-5.953-7.474,7.5-10.753,15.531-7.887,12.634,5.805,13.152,11.562-4.061,4.493-4.061,4.493-1.493-4.052-3.617-4.474-1.572,2.739-1.572,2.739Z" transform="translate(-55.952 -41.942)" fill="#394a5f"/>
        </g>
      </g>
      <g id="Grupo_149762" data-name="Grupo 149762" transform="translate(207.38 150.539)">
        <g id="Grupo_149761" data-name="Grupo 149761" clip-path="url(#clip-path-44)">
          <rect id="Rectángulo_45272" data-name="Rectángulo 45272" width="8.863" height="9.052" transform="matrix(0.948, -0.32, 0.32, 0.948, -4.105, 0.737)" fill="url(#linear-gradient-27)"/>
        </g>
      </g>
      <g id="Grupo_149764" data-name="Grupo 149764" transform="translate(197.826 212.2)">
        <g id="Grupo_149763" data-name="Grupo 149763" clip-path="url(#clip-path-45)">
          <rect id="Rectángulo_45273" data-name="Rectángulo 45273" width="55.532" height="12.791" transform="translate(0)" fill="url(#linear-gradient-28)"/>
        </g>
      </g>
      <g id="Grupo_149766" data-name="Grupo 149766">
        <g id="Grupo_149765" data-name="Grupo 149765" clip-path="url(#clip-path)">
          <path id="Trazado_215273" data-name="Trazado 215273" d="M279.706,289.562l-.1,0-43.133-.047a1.931,1.931,0,1,1,0-3.861l43.133.047a1.931,1.931,0,0,1,.095,3.859" transform="translate(-53.741 -65.452)" fill="#394a5f"/>
          <path id="Trazado_215274" data-name="Trazado 215274" d="M185.893,239.92h35.922a6.846,6.846,0,0,1,6.192,3.926l16.607,35.213H199.973a4.159,4.159,0,0,1-3.869-2.632l-12.878-32.585a2.869,2.869,0,0,1,2.668-3.923" transform="translate(-41.936 -54.973)" fill="#394a5f"/>
          <path id="Trazado_215275" data-name="Trazado 215275" d="M217.872,262.273c.779,2.418.2,4.767-1.284,5.246s-3.326-1.093-4.1-3.511-.2-4.768,1.284-5.247,3.325,1.094,4.1,3.512" transform="translate(-48.607 -59.27)" fill="#586678"/>
          <path id="Trazado_215276" data-name="Trazado 215276" d="M349.991,383.115a52.5,52.5,0,0,1,.631,5.5,2.367,2.367,0,0,1-2.134,2.5c-4.415.429-14.465,1.219-20.881.293a1.077,1.077,0,0,1-.592-1.853c2.646-2.464,9.036-7.26,19.553-8.308Z" transform="translate(-74.85 -87.354)" fill="#394a5f"/>
        </g>
      </g>
      <g id="Grupo_149768" data-name="Grupo 149768" transform="translate(269.714 287.73)">
        <g id="Grupo_149767" data-name="Grupo 149767" clip-path="url(#clip-path-47)">
          <rect id="Rectángulo_45275" data-name="Rectángulo 45275" width="9.981" height="8.983" transform="translate(-1.416 8.906) rotate(-82.711)" fill="url(#linear-gradient-29)"/>
        </g>
      </g>
      <g id="Grupo_149770" data-name="Grupo 149770">
        <g id="Grupo_149769" data-name="Grupo 149769" clip-path="url(#clip-path)">
          <path id="Trazado_215278" data-name="Trazado 215278" d="M407.394,389.324s-4.47,3.74-6.212,8.537a2.039,2.039,0,0,0,1.937,2.709h9.2a2.169,2.169,0,0,0,2.144-2.536c-.586-3.313-2.276-8.7-7.068-8.71" transform="translate(-91.895 -89.206)" fill="#394a5f"/>
        </g>
      </g>
      <g id="Grupo_149772" data-name="Grupo 149772" transform="translate(314.182 294.569)">
        <g id="Grupo_149771" data-name="Grupo 149771" clip-path="url(#clip-path-49)">
          <rect id="Rectángulo_45277" data-name="Rectángulo 45277" width="8.866" height="7.821" transform="translate(-1.015 7.932) rotate(-82.711)" fill="url(#linear-gradient-30)"/>
        </g>
      </g>
      <g id="Grupo_149774" data-name="Grupo 149774">
        <g id="Grupo_149773" data-name="Grupo 149773" clip-path="url(#clip-path)">
          <path id="Trazado_215280" data-name="Trazado 215280" d="M377.539,263.283l-27.188,82.944s5.215,3.415,7.7,3.272l32.293-66.659s5.651,41.073,2.913,70.56l9.25.706s15.04-75.355,3.648-101.164Z" transform="translate(-80.276 -57.957)" fill="#394a5f"/>
          <path id="Trazado_215281" data-name="Trazado 215281" d="M401.612,288.153l.033,0a.262.262,0,0,0,.228-.294l-1.055-8.375a.263.263,0,0,0-.522.066l1.055,8.375a.264.264,0,0,0,.261.23" transform="translate(-91.719 -63.985)" fill="#2432ff"/>
          <path id="Trazado_215282" data-name="Trazado 215282" d="M371.141,171.677s22.028,1.956,18.912,17.651c0,0,12.176,22.914,17.869,49.907a1.587,1.587,0,0,1-1.288,1.886L369.95,247.4a1.975,1.975,0,0,1-2.246-1.452l-8.765-33.874-3.416,15.749L344.672,225l9.136-46.278s1.274-6.753,17.332-7.043" transform="translate(-78.975 -39.336)" fill="#2432ff"/>
          <path id="Trazado_215283" data-name="Trazado 215283" d="M361.949,217.783a.255.255,0,0,0,.059-.006.274.274,0,0,0,.209-.325l-3.058-14.04a.273.273,0,0,0-.534.116l3.058,14.041a.273.273,0,0,0,.267.215" transform="translate(-82.17 -46.559)" fill="#aab1ba"/>
        </g>
      </g>
      <g id="Grupo_149776" data-name="Grupo 149776" transform="translate(274.404 188.845)">
        <g id="Grupo_149775" data-name="Grupo 149775" clip-path="url(#clip-path-51)">
          <rect id="Rectángulo_45279" data-name="Rectángulo 45279" width="27.351" height="28.981" transform="translate(0 0)" fill="url(#linear-gradient-31)"/>
        </g>
      </g>
      <g id="Grupo_149778" data-name="Grupo 149778" transform="translate(225.473 146.03)">
        <g id="Grupo_149777" data-name="Grupo 149777" clip-path="url(#clip-path-52)">
          <rect id="Rectángulo_45280" data-name="Rectángulo 45280" width="51.078" height="47.381" transform="translate(0 0)" fill="url(#linear-gradient-32)"/>
        </g>
      </g>
      <g id="Grupo_149780" data-name="Grupo 149780" transform="translate(278.014 117.132)">
        <g id="Grupo_149779" data-name="Grupo 149779" clip-path="url(#clip-path-53)">
          <rect id="Rectángulo_45281" data-name="Rectángulo 45281" width="26.54" height="26.723" transform="translate(-11.933 11.631) rotate(-44.266)" fill="url(#linear-gradient-33)"/>
        </g>
      </g>
      <g id="Grupo_149782" data-name="Grupo 149782" transform="translate(264.809 106.773)">
        <g id="Grupo_149781" data-name="Grupo 149781" clip-path="url(#clip-path-54)">
          <rect id="Rectángulo_45282" data-name="Rectángulo 45282" width="26.84" height="27.895" transform="translate(-10.702 8.09) rotate(-37.086)" fill="url(#linear-gradient-34)"/>
        </g>
      </g>
      <g id="Grupo_149784" data-name="Grupo 149784" transform="translate(259.611 100.489)">
        <g id="Grupo_149783" data-name="Grupo 149783" clip-path="url(#clip-path-55)">
          <rect id="Rectángulo_45283" data-name="Rectángulo 45283" width="41.816" height="37.486" transform="matrix(0.326, -0.945, 0.945, 0.326, -11.505, 30.991)" fill="url(#linear-gradient-35)"/>
        </g>
      </g>
      <g id="Grupo_149786" data-name="Grupo 149786" transform="translate(281.543 112.198)">
        <g id="Grupo_149785" data-name="Grupo 149785" clip-path="url(#clip-path-56)">
          <rect id="Rectángulo_45284" data-name="Rectángulo 45284" width="10.879" height="10.916" transform="translate(-5.554 4.245) rotate(-44.266)" fill="url(#linear-gradient-36)"/>
        </g>
      </g>
      <g id="Grupo_149788" data-name="Grupo 149788">
        <g id="Grupo_149787" data-name="Grupo 149787" clip-path="url(#clip-path)">
          <path id="Trazado_215290" data-name="Trazado 215290" d="M385.968,235.819a26.3,26.3,0,0,0,2.693-.127l.2-.022,8.021-37.4a.273.273,0,1,0-.533-.114l-7.938,37.008c-1.194.1-7.568.528-10.933-1.856l6.948-32.49-1.45-2.733a.273.273,0,0,0-.483.256l1.358,2.558-6.98,32.639.14.1c2.431,1.826,6.347,2.172,8.964,2.172" transform="translate(-86.351 -45.355)" fill="#aab1ba"/>
          <path id="Trazado_215291" data-name="Trazado 215291" d="M76.329,371.972a1.293,1.293,0,0,1-.552-.125,1.581,1.581,0,0,1-.732-2l29.31-74.368a1.357,1.357,0,0,1,1.836-.8,1.582,1.582,0,0,1,.732,2l-29.31,74.368a1.4,1.4,0,0,1-1.284.923" transform="translate(-17.169 -67.491)" fill="#2432ff"/>
          <path id="Trazado_215292" data-name="Trazado 215292" d="M110.449,371.972a1.4,1.4,0,0,1-1.284-.923l-29.31-74.368a1.582,1.582,0,0,1,.732-2,1.357,1.357,0,0,1,1.836.8l29.309,74.368a1.58,1.58,0,0,1-.732,2,1.287,1.287,0,0,1-.551.125" transform="translate(-18.271 -67.491)" fill="#2432ff"/>
          <path id="Trazado_215293" data-name="Trazado 215293" d="M334.371,371.972a1.292,1.292,0,0,1-.552-.125,1.58,1.58,0,0,1-.731-2L362.4,295.476a1.357,1.357,0,0,1,1.836-.8,1.582,1.582,0,0,1,.732,2l-29.31,74.368a1.4,1.4,0,0,1-1.284.923" transform="translate(-76.294 -67.491)" fill="#2432ff"/>
          <path id="Trazado_215294" data-name="Trazado 215294" d="M368.49,371.972a1.4,1.4,0,0,1-1.284-.923L337.9,296.681a1.582,1.582,0,0,1,.732-2,1.357,1.357,0,0,1,1.836.8l29.309,74.368a1.58,1.58,0,0,1-.731,2,1.293,1.293,0,0,1-.552.125" transform="translate(-77.396 -67.491)" fill="#2432ff"/>
          <path id="Trazado_215295" data-name="Trazado 215295" d="M329.269,287.634H371.72v-4.381H329.269c.909,0,.909,4.381,0,4.381" transform="translate(-75.445 -64.902)" fill="#aab1ba"/>
          <path id="Trazado_215296" data-name="Trazado 215296" d="M370.936,287.339a.4.4,0,0,0,.4-.4v-3.584a.4.4,0,0,0-.4-.4H327.988a.4.4,0,0,1-.4-.4v-.193a.4.4,0,0,1,.4-.4h45.777A1.833,1.833,0,0,1,375.6,283.8v2.8a1.728,1.728,0,0,1-1.728,1.728H327.988a.4.4,0,0,1-.4-.4v-.194a.4.4,0,0,1,.4-.4Z" transform="translate(-75.06 -64.607)" fill="#394a5f"/>
          <path id="Trazado_215297" data-name="Trazado 215297" d="M315.12,292.177a1.291,1.291,0,0,0-.53-1.379,3.152,3.152,0,0,0-1.94-.607H58.29a3.44,3.44,0,0,0-2.439.886,1.384,1.384,0,0,0-.19,1.84l2.757,3.958a4.3,4.3,0,0,0,3.5,1.486H310.905a2.869,2.869,0,0,0,2.869-1.57Z" transform="translate(-12.693 -66.491)" fill="#2432ff"/>
        </g>
      </g>
    </g>
  </g>
</svg>
