<svg xmlns="http://www.w3.org/2000/svg" xmlns:xlink="http://www.w3.org/1999/xlink" width="535" height="530" viewBox="0 0 535 530">
  <defs>
    <filter id="Trazado_211521" x="0" y="0" width="535" height="530" filterUnits="userSpaceOnUse">
      <feOffset dy="3" input="SourceAlpha"/>
      <feGaussianBlur stdDeviation="5" result="blur"/>
      <feFlood flood-opacity="0.161"/>
      <feComposite operator="in" in2="blur"/>
      <feComposite in="SourceGraphic"/>
    </filter>
    <clipPath id="clip-path">
      <rect id="Rectángulo_44895" data-name="Rectángulo 44895" width="314" height="303.538" fill="none"/>
    </clipPath>
    <clipPath id="clip-path-3">
      <rect id="Rectángulo_44888" data-name="Rectángulo 44888" width="27.584" height="33.607" fill="none"/>
    </clipPath>
    <clipPath id="clip-path-4">
      <rect id="Rectángulo_44890" data-name="Rectángulo 44890" width="5.922" height="5.899" fill="none"/>
    </clipPath>
    <clipPath id="clip-path-5">
      <rect id="Rectángulo_44891" data-name="Rectángulo 44891" width="45.859" height="3.342" fill="none"/>
    </clipPath>
    <clipPath id="clip-path-6">
      <rect id="Rectángulo_44892" data-name="Rectángulo 44892" width="7.013" height="63.248" fill="none"/>
    </clipPath>
    <clipPath id="clip-path-7">
      <rect id="Rectángulo_44893" data-name="Rectángulo 44893" width="52.769" height="12.624" fill="none"/>
    </clipPath>
  </defs>
  <g id="Grupo_150095" data-name="Grupo 150095" transform="translate(-270.498 -10427.834)">
    <g transform="matrix(1, 0, 0, 1, 270.5, 10427.83)" filter="url(#Trazado_211521)">
      <path id="Trazado_211521-2" data-name="Trazado 211521" d="M34.695,0H470.305C489.467,0,505,12.064,505,26.946V473.054C505,487.936,489.467,500,470.305,500H34.695C15.533,500,0,487.936,0,473.054V26.946C0,12.064,15.533,0,34.695,0Z" transform="translate(15 12)" fill="#feeeab"/>
    </g>
    <path id="Rectángulo_44155" data-name="Rectángulo 44155" d="M0,0H505a0,0,0,0,1,0,0V62a32,32,0,0,1-32,32H32A32,32,0,0,1,0,62V0A0,0,0,0,1,0,0Z" transform="translate(285.5 10845.834)" fill="#fbdb5e"/>
    <path id="Trazado_216362" data-name="Trazado 216362" d="M-87.061-4.814a5.193,5.193,0,0,1-.8,2.622A4.833,4.833,0,0,1-89.917-.43,7,7,0,0,1-92.939.2a5.584,5.584,0,0,1-4.414-1.826,7.54,7.54,0,0,1-1.611-5.156v-.7a8.607,8.607,0,0,1,.728-3.657,5.513,5.513,0,0,1,2.095-2.422,5.844,5.844,0,0,1,3.164-.854,6.129,6.129,0,0,1,4.16,1.362,5.383,5.383,0,0,1,1.787,3.755h-3.418a2.547,2.547,0,0,0-.654-1.865,2.691,2.691,0,0,0-1.875-.566,2.048,2.048,0,0,0-1.875.957,6.151,6.151,0,0,0-.625,3.057v1.006a6.806,6.806,0,0,0,.571,3.252,2.091,2.091,0,0,0,1.968.977,2.632,2.632,0,0,0,1.807-.557,2.363,2.363,0,0,0,.664-1.768Zm1.055-.566A6.236,6.236,0,0,1-85.391-8.2a4.4,4.4,0,0,1,1.768-1.9,5.323,5.323,0,0,1,2.705-.664,4.858,4.858,0,0,1,3.74,1.47,5.64,5.64,0,0,1,1.367,4v.117a5.472,5.472,0,0,1-1.372,3.921A4.871,4.871,0,0,1-80.9.2a4.927,4.927,0,0,1-3.623-1.353A5.29,5.29,0,0,1-86-4.824Zm3.291.205a3.932,3.932,0,0,0,.459,2.148,1.529,1.529,0,0,0,1.357.684q1.758,0,1.8-2.705v-.332q0-2.842-1.816-2.842-1.65,0-1.787,2.451Zm11.465-5.391.107,1.24a3.633,3.633,0,0,1,3.018-1.436A2.675,2.675,0,0,1-65.42-9.17a3.517,3.517,0,0,1,3.105-1.592q3.213,0,3.3,3.887V0h-3.3V-6.67a2.014,2.014,0,0,0-.273-1.182,1.164,1.164,0,0,0-1-.371,1.559,1.559,0,0,0-1.455.869l.01.137V0h-3.3V-6.65a2.117,2.117,0,0,0-.264-1.2A1.161,1.161,0,0,0-69.6-8.223a1.578,1.578,0,0,0-1.445.869V0h-3.291V-10.566Zm23.926,5.361a6.372,6.372,0,0,1-1.108,3.931A3.554,3.554,0,0,1-51.426.2,3.046,3.046,0,0,1-53.818-.869V4.063h-3.291V-10.566h3.076l.1.977a3.046,3.046,0,0,1,2.49-1.172,3.582,3.582,0,0,1,3.037,1.44,6.45,6.45,0,0,1,1.084,3.96Zm-3.291-.205q0-2.812-1.641-2.812a1.549,1.549,0,0,0-1.562.84v4.16a1.6,1.6,0,0,0,1.582.879q1.572,0,1.621-2.715Zm11.133-2.178-1.084-.078a1.947,1.947,0,0,0-1.992.977V0H-45.85V-10.566h3.086l.107,1.357a2.548,2.548,0,0,1,2.314-1.553,3.209,3.209,0,0,1,.918.117ZM-32.637,0a3.716,3.716,0,0,1-.312-.947A3.06,3.06,0,0,1-35.488.2a3.749,3.749,0,0,1-2.539-.9,2.875,2.875,0,0,1-1.045-2.271,2.955,2.955,0,0,1,1.27-2.6,6.468,6.468,0,0,1,3.691-.879H-33.1v-.559q0-1.462-1.26-1.462a1.03,1.03,0,0,0-1.172,1.158h-3.291a2.95,2.95,0,0,1,1.3-2.487,5.479,5.479,0,0,1,3.325-.956A4.8,4.8,0,0,1-31-9.775a3.429,3.429,0,0,1,1.2,2.705v4.678a4.79,4.79,0,0,0,.449,2.227V0ZM-34.7-2.148a1.836,1.836,0,0,0,1.021-.264,1.653,1.653,0,0,0,.581-.6V-4.7h-.957q-1.719,0-1.719,1.543a.942.942,0,0,0,.3.728A1.1,1.1,0,0,0-34.7-2.148ZM-17.881.2a5.432,5.432,0,0,1-3.936-1.45,5.008,5.008,0,0,1-1.5-3.774V-5.3a6.489,6.489,0,0,1,.6-2.861,4.395,4.395,0,0,1,1.753-1.919,5.292,5.292,0,0,1,2.734-.679A4.574,4.574,0,0,1-14.717-9.38a5.43,5.43,0,0,1,1.289,3.853v1.279h-6.543a2.372,2.372,0,0,0,.771,1.4,2.3,2.3,0,0,0,1.543.508,2.958,2.958,0,0,0,2.441-1.094l1.5,1.777A4.2,4.2,0,0,1-15.454-.308,5.891,5.891,0,0,1-17.881.2Zm-.371-8.418q-1.445,0-1.719,1.914h3.32v-.254a1.63,1.63,0,0,0-.4-1.226A1.593,1.593,0,0,0-18.252-8.223Zm11.68,5.254a.76.76,0,0,0-.439-.674,6.685,6.685,0,0,0-1.67-.527,7.615,7.615,0,0,1-2.031-.718,3.4,3.4,0,0,1-1.221-1.079,2.577,2.577,0,0,1-.42-1.455,2.92,2.92,0,0,1,1.2-2.4,4.948,4.948,0,0,1,3.145-.942,5.482,5.482,0,0,1,3.359.947,2.962,2.962,0,0,1,1.27,2.49h-3.3q0-1.27-1.338-1.27a1.326,1.326,0,0,0-.869.288.892.892,0,0,0-.352.718.819.819,0,0,0,.43.713,4.06,4.06,0,0,0,1.372.449,11.857,11.857,0,0,1,1.655.42A3.007,3.007,0,0,1-3.4-3.066,2.767,2.767,0,0,1-4.683-.713,5.631,5.631,0,0,1-8.008.2,5.747,5.747,0,0,1-10.43-.293a4.05,4.05,0,0,1-1.66-1.328,3.007,3.007,0,0,1-.6-1.768h3.076a1.272,1.272,0,0,0,.488,1.069,2.009,2.009,0,0,0,1.2.337,1.58,1.58,0,0,0,1.011-.273A.875.875,0,0,0-6.572-2.969ZM7.949-5.205A6.372,6.372,0,0,1,6.841-1.274,3.554,3.554,0,0,1,3.848.2,3.046,3.046,0,0,1,1.455-.869V4.063H-1.836V-10.566H1.24l.1.977a3.046,3.046,0,0,1,2.49-1.172,3.582,3.582,0,0,1,3.037,1.44,6.45,6.45,0,0,1,1.084,3.96ZM4.658-5.41q0-2.812-1.641-2.812a1.549,1.549,0,0,0-1.562.84v4.16a1.6,1.6,0,0,0,1.582.879q1.572,0,1.621-2.715ZM14.512.2a5.432,5.432,0,0,1-3.936-1.45,5.008,5.008,0,0,1-1.5-3.774V-5.3a6.489,6.489,0,0,1,.6-2.861,4.395,4.395,0,0,1,1.753-1.919,5.292,5.292,0,0,1,2.734-.679A4.574,4.574,0,0,1,17.676-9.38a5.43,5.43,0,0,1,1.289,3.853v1.279H12.422a2.372,2.372,0,0,0,.771,1.4,2.3,2.3,0,0,0,1.543.508,2.958,2.958,0,0,0,2.441-1.094l1.5,1.777A4.2,4.2,0,0,1,16.938-.308,5.891,5.891,0,0,1,14.512.2Zm-.371-8.418q-1.445,0-1.719,1.914h3.32v-.254a1.63,1.63,0,0,0-.4-1.226A1.593,1.593,0,0,0,14.141-8.223ZM24.756-2.344A1.464,1.464,0,0,0,25.83-2.72,1.379,1.379,0,0,0,26.2-3.77h3.086A3.653,3.653,0,0,1,28.042-.918,4.631,4.631,0,0,1,24.834.2,4.689,4.689,0,0,1,21.2-1.25a5.7,5.7,0,0,1-1.328-4v-.137a6.436,6.436,0,0,1,.591-2.827,4.3,4.3,0,0,1,1.7-1.885,5.081,5.081,0,0,1,2.637-.659,4.573,4.573,0,0,1,3.271,1.143,4.053,4.053,0,0,1,1.211,3.1H26.2a1.807,1.807,0,0,0-.4-1.26,1.382,1.382,0,0,0-1.074-.439q-1.279,0-1.494,1.631a11.508,11.508,0,0,0-.068,1.426,4.52,4.52,0,0,0,.381,2.207A1.319,1.319,0,0,0,24.756-2.344ZM34.15,0h-3.3V-10.566h3.3Zm-3.5-13.291a1.469,1.469,0,0,1,.508-1.152,1.916,1.916,0,0,1,1.318-.449,1.916,1.916,0,0,1,1.318.449,1.469,1.469,0,0,1,.508,1.152,1.469,1.469,0,0,1-.508,1.152,1.916,1.916,0,0,1-1.318.449,1.916,1.916,0,0,1-1.318-.449A1.469,1.469,0,0,1,30.654-13.291ZM42.129,0a3.716,3.716,0,0,1-.312-.947A3.06,3.06,0,0,1,39.277.2a3.749,3.749,0,0,1-2.539-.9,2.875,2.875,0,0,1-1.045-2.271,2.955,2.955,0,0,1,1.27-2.6,6.468,6.468,0,0,1,3.691-.879H41.67v-.559q0-1.462-1.26-1.462a1.03,1.03,0,0,0-1.172,1.158H35.947a2.95,2.95,0,0,1,1.3-2.487,5.479,5.479,0,0,1,3.325-.956,4.8,4.8,0,0,1,3.193.986,3.429,3.429,0,0,1,1.2,2.705v4.678A4.79,4.79,0,0,0,45.42-.166V0ZM40.068-2.148a1.836,1.836,0,0,0,1.021-.264,1.653,1.653,0,0,0,.581-.6V-4.7h-.957q-1.719,0-1.719,1.543a.942.942,0,0,0,.3.728A1.1,1.1,0,0,0,40.068-2.148ZM50.264,0h-3.3V-15h3.3Zm5.5,0h-3.3V-10.566h3.3Zm-3.5-13.291a1.469,1.469,0,0,1,.508-1.152,1.916,1.916,0,0,1,1.318-.449,1.916,1.916,0,0,1,1.318.449,1.469,1.469,0,0,1,.508,1.152,1.469,1.469,0,0,1-.508,1.152,1.916,1.916,0,0,1-1.318.449,1.916,1.916,0,0,1-1.318-.449A1.469,1.469,0,0,1,52.266-13.291Zm9.4,10.752h4.814V0H57.51V-1.836L62.2-8.027H57.715v-2.539h8.662v1.777ZM74.033,0a3.716,3.716,0,0,1-.312-.947A3.06,3.06,0,0,1,71.182.2a3.749,3.749,0,0,1-2.539-.9A2.875,2.875,0,0,1,67.6-2.979a2.955,2.955,0,0,1,1.27-2.6,6.468,6.468,0,0,1,3.691-.879h1.016v-.559q0-1.462-1.26-1.462a1.03,1.03,0,0,0-1.172,1.158H67.852a2.95,2.95,0,0,1,1.3-2.487,5.479,5.479,0,0,1,3.325-.956,4.8,4.8,0,0,1,3.193.986,3.429,3.429,0,0,1,1.2,2.705v4.678a4.79,4.79,0,0,0,.449,2.227V0ZM71.973-2.148a1.836,1.836,0,0,0,1.021-.264,1.653,1.653,0,0,0,.581-.6V-4.7h-.957Q70.9-4.7,70.9-3.154a.942.942,0,0,0,.3.728A1.1,1.1,0,0,0,71.973-2.148Zm6.309-3.213a6.455,6.455,0,0,1,1.084-3.955,3.568,3.568,0,0,1,3.027-1.445,3.035,3.035,0,0,1,2.383,1.113V-15h3.3V0H85.117l-.166-1.133A3.116,3.116,0,0,1,82.373.2,3.562,3.562,0,0,1,79.385-1.25,6.659,6.659,0,0,1,78.281-5.361Zm3.291.205q0,2.813,1.641,2.813a1.62,1.62,0,0,0,1.563-.918V-7.285a1.576,1.576,0,0,0-1.543-.937q-1.523,0-1.65,2.461ZM95.9,0a3.716,3.716,0,0,1-.312-.947A3.06,3.06,0,0,1,93.047.2a3.749,3.749,0,0,1-2.539-.9,2.875,2.875,0,0,1-1.045-2.271,2.955,2.955,0,0,1,1.27-2.6,6.468,6.468,0,0,1,3.691-.879h1.016v-.559q0-1.462-1.26-1.462a1.03,1.03,0,0,0-1.172,1.158H89.717a2.95,2.95,0,0,1,1.3-2.487,5.479,5.479,0,0,1,3.325-.956,4.8,4.8,0,0,1,3.193.986,3.429,3.429,0,0,1,1.2,2.705v4.678a4.79,4.79,0,0,0,.449,2.227V0ZM93.838-2.148a1.836,1.836,0,0,0,1.021-.264,1.653,1.653,0,0,0,.581-.6V-4.7h-.957q-1.719,0-1.719,1.543a.942.942,0,0,0,.3.728A1.1,1.1,0,0,0,93.838-2.148Z" transform="translate(537.998 10899.834)" fill="#12263f"/>
    <g id="Grupo_148926" data-name="Grupo 148926" transform="translate(379 10505.297)">
      <g id="Grupo_148925" data-name="Grupo 148925" clip-path="url(#clip-path)">
        <rect id="Rectángulo_44880" data-name="Rectángulo 44880" width="154.225" height="217.137" transform="translate(142.23 45.451)" fill="#fccc10"/>
        <g id="Grupo_148924" data-name="Grupo 148924">
          <g id="Grupo_148923" data-name="Grupo 148923" clip-path="url(#clip-path)">
            <path id="Trazado_213074" data-name="Trazado 213074" d="M244.774,19.717a20.509,20.509,0,0,1,5.012-2.179l1.033-4.962,8.383-.147,1.207,4.922a20.506,20.506,0,0,1,5.087,2l4.237-2.777,6.032,5.824-2.627,4.331a20.5,20.5,0,0,1,2.179,5.015l4.961,1.033.148,8.383L275.5,42.367a20.567,20.567,0,0,1-2,5.086l2.777,4.238-5.823,6.031L266.125,55.1a20.532,20.532,0,0,1-5.013,2.178l-1.033,4.962-8.383.147-1.207-4.922a20.542,20.542,0,0,1-5.086-2l-4.237,2.777-6.032-5.824,2.626-4.331a20.569,20.569,0,0,1-2.179-5.015l-4.961-1.032-.148-8.383,4.924-1.208a20.559,20.559,0,0,1,2-5.086l-2.777-4.237,5.824-6.032Zm4.469,11.168a8.995,8.995,0,1,0,12.718-.224,8.994,8.994,0,0,0-12.718.224" transform="translate(31.655 1.707)" fill="#e1e1e1"/>
            <path id="Trazado_213075" data-name="Trazado 213075" d="M247.3,29.007a6.8,6.8,0,0,1,1.675-1.469,8.948,8.948,0,0,1,5.868-1.388,9.06,9.06,0,0,1,3.989,1.417,9.2,9.2,0,0,1,3.224,3.634,9.208,9.208,0,0,1,.869,5.293,9.174,9.174,0,0,1-7.592,7.865,9.214,9.214,0,0,1-5.323-.681,9.215,9.215,0,0,1-3.745-3.1,9.079,9.079,0,0,1-1.556-3.936,8.955,8.955,0,0,1,1.181-5.913,6.808,6.808,0,0,1,1.41-1.725c.049.041-.543.59-1.236,1.825a8.968,8.968,0,0,0-.994,5.757,8.788,8.788,0,0,0,5.135,6.653,8.777,8.777,0,0,0,5.043.619,8.715,8.715,0,0,0,7.177-7.435,8.782,8.782,0,0,0-.795-5.018,8.785,8.785,0,0,0-6.829-4.9,8.968,8.968,0,0,0-5.72,1.2c-1.21.736-1.738,1.347-1.781,1.3" transform="translate(33.597 3.585)" fill="#e1e1e1"/>
            <path id="Trazado_213076" data-name="Trazado 213076" d="M244.8,19.735a1.98,1.98,0,0,1-.28-.148l-.83-.48-3.265-1.928.1-.014-5.789,6.065.016-.163,2.794,4.226.05.076-.044.081a20.509,20.509,0,0,0-1.969,5.052l-.024.1-.1.025-4.918,1.22.14-.182c.052,2.64.108,5.441.166,8.382l-.162-.194,4.963,1.022.126.026.035.125a20.389,20.389,0,0,0,2.164,4.957l.069.115-.069.116-2.62,4.334-.036-.284c1.9,1.828,3.942,3.8,6.039,5.816l-.3-.027,4.234-2.782.124-.082.13.073a20.421,20.421,0,0,0,5.027,1.973l.147.035.036.147,1.209,4.922-.25-.192L260.1,62l-.247.2c.325-1.567.678-3.257,1.032-4.961l.032-.154.15-.042a20.355,20.355,0,0,0,4.945-2.148l0,0,.135-.081.132.081,4.332,2.626-.32.041q2.953-3.057,5.826-6.03l-.03.317q-1.4-2.141-2.775-4.239l-.084-.129.075-.133a20.34,20.34,0,0,0,1.979-5.023l.036-.148.147-.035,4.924-1.2-.188.243q-.07-4.292-.139-8.383l.189.229-4.96-1.04-.138-.028-.038-.134a20.357,20.357,0,0,0-2.147-4.961l-.069-.117.069-.115,2.634-4.326.034.265-6.02-5.836.246.023-4.243,2.767-.094.061-.1-.055a20.443,20.443,0,0,0-5.037-2l-.1-.025-.024-.1c-.432-1.79-.822-3.4-1.191-4.926l.151.116-8.383.109.11-.092c-.425,1.98-.773,3.6-1.065,4.955l-.01.05-.048.014A21.288,21.288,0,0,0,246,19.11l-.9.472a2.063,2.063,0,0,1-.3.152,2.421,2.421,0,0,1,.28-.19c.191-.118.482-.3.884-.51a19.869,19.869,0,0,1,3.827-1.559l-.058.064,1-4.969.018-.09.093,0,8.382-.184.122,0,.03.119c.379,1.521.778,3.13,1.223,4.918l-.124-.124a20.659,20.659,0,0,1,5.136,2l-.191.007,4.23-2.788.132-.086.114.109,6.044,5.812.123.118-.089.148-2.618,4.334v-.23a20.767,20.767,0,0,1,2.21,5.066l-.175-.164,4.962,1.027.187.039,0,.19q.077,4.088.156,8.382l0,.2-.191.047-4.921,1.21.183-.182a20.82,20.82,0,0,1-2.023,5.149l-.009-.262q1.375,2.1,2.779,4.237l.113.171-.142.147-5.822,6.034-.142.148-.176-.107-4.332-2.626h.267l0,0a20.82,20.82,0,0,1-5.073,2.2l.182-.194-1.034,4.961-.042.2-.2,0-8.383.143-.2,0-.048-.2c-.415-1.7-.827-3.38-1.2-4.922l.182.183a20.857,20.857,0,0,1-5.145-2.03l.254-.009-4.24,2.774-.161.1-.138-.133L235,52.6l-.132-.129.1-.156,2.632-4.328v.23a20.8,20.8,0,0,1-2.193-5.07l.161.15-4.96-1.042-.159-.034,0-.162c-.045-2.941-.088-5.744-.128-8.383l0-.148.143-.034,4.925-1.193-.123.124a20.742,20.742,0,0,1,2.032-5.119l.006.157c-.994-1.531-1.923-2.962-2.76-4.248l-.057-.089.073-.074,5.858-6,.047-.048.056.034,3.19,1.986.821.521a2.408,2.408,0,0,1,.278.19" transform="translate(31.632 1.688)" fill="#e1e1e1"/>
            <path id="Trazado_213077" data-name="Trazado 213077" d="M211.917,4.444a12.33,12.33,0,0,1,3-1.3l.619-2.97,5.018-.089.722,2.947a12.308,12.308,0,0,1,3.045,1.2l2.536-1.662,3.611,3.486L228.9,8.642a12.346,12.346,0,0,1,1.3,3l2.97.618.088,5.018L230.312,18a12.269,12.269,0,0,1-1.2,3.045l1.663,2.537-3.486,3.61L224.7,25.622a12.319,12.319,0,0,1-3,1.3l-.618,2.97-5.018.088-.722-2.946a12.293,12.293,0,0,1-3.046-1.2L209.756,27.5l-3.61-3.486,1.572-2.593a12.275,12.275,0,0,1-1.3-3l-2.97-.618-.089-5.018,2.947-.723a12.318,12.318,0,0,1,1.2-3.044l-1.662-2.537,3.486-3.61Zm2.675,6.685a5.384,5.384,0,1,0,7.613-.134,5.384,5.384,0,0,0-7.613.134" transform="translate(27.93 0.011)" fill="#fff"/>
            <path id="Trazado_213078" data-name="Trazado 213078" d="M213.429,10.005a4.09,4.09,0,0,1,1-.88,5.37,5.37,0,0,1,3.513-.83,5.437,5.437,0,0,1,2.387.848,5.518,5.518,0,0,1,1.931,2.176,5.529,5.529,0,0,1,.52,3.169,5.493,5.493,0,0,1-4.545,4.707,5.512,5.512,0,0,1-3.186-.408,5.529,5.529,0,0,1-2.243-1.853,5.432,5.432,0,0,1-.93-2.357,5.36,5.36,0,0,1,.706-3.539,4.078,4.078,0,0,1,.844-1.033c.03.025-.325.354-.739,1.093a5.364,5.364,0,0,0-.6,3.446,5.264,5.264,0,0,0,3.074,3.983,5.259,5.259,0,0,0,3.019.37,5.216,5.216,0,0,0,4.3-4.45,5.274,5.274,0,0,0-.475-3,5.263,5.263,0,0,0-4.088-2.931,5.362,5.362,0,0,0-3.425.715c-.724.44-1.041.806-1.066.778" transform="translate(29.093 1.135)" fill="#fff"/>
            <path id="Trazado_213079" data-name="Trazado 213079" d="M211.93,4.455a1.09,1.09,0,0,1-.167-.089l-.5-.287-1.955-1.154.061-.008-3.466,3.63.009-.1,1.673,2.529.031.045-.027.048a12.307,12.307,0,0,0-1.178,3.025l-.015.059-.059.015L203.4,12.9l.083-.109c.032,1.58.065,3.257.1,5.018l-.1-.117,2.971.613.076.016.02.074a12.28,12.28,0,0,0,1.3,2.967l.042.068-.042.069-1.568,2.6-.022-.171,3.615,3.481-.179-.016,2.535-1.665.074-.049.078.043a12.2,12.2,0,0,0,3.008,1.181l.088.022.022.089c.227.922.474,1.929.725,2.946l-.15-.115,5.019-.091-.148.123c.2-.938.406-1.951.618-2.971l.019-.091.09-.026a12.148,12.148,0,0,0,2.961-1.286h0l.081-.048.08.048,2.592,1.572-.19.025,3.487-3.61-.018.19L229,21.141l-.05-.076.044-.08a12.154,12.154,0,0,0,1.185-3.007l.023-.088.088-.022,2.947-.72-.113.144q-.043-2.569-.083-5.018l.114.136-2.97-.621-.082-.018-.023-.08A12.212,12.212,0,0,0,228.8,8.722l-.042-.069.042-.068,1.576-2.591.02.159-3.6-3.494.148.015L224.4,4.33l-.057.036-.058-.033a12.206,12.206,0,0,0-3.015-1.2l-.06-.016-.014-.059c-.259-1.071-.492-2.037-.713-2.948l.091.069L215.55.25l.067-.056-.638,2.966-.006.03-.028.008a12.733,12.733,0,0,0-2.3.884l-.54.282a1.239,1.239,0,0,1-.18.091,1.608,1.608,0,0,1,.167-.114c.115-.071.289-.176.529-.3a11.848,11.848,0,0,1,2.292-.934l-.035.038c.164-.811.359-1.786.6-2.974l.011-.053h.056L220.566,0h.073l.017.071c.226.911.466,1.874.732,2.945l-.074-.075a12.449,12.449,0,0,1,3.074,1.2l-.115,0,2.533-1.668.078-.052.068.066,3.618,3.479.074.071-.053.088q-.764,1.264-1.567,2.6V8.585a12.445,12.445,0,0,1,1.323,3.032l-.1-.1,2.971.615.11.023,0,.114q.046,2.448.093,5.018l0,.117-.115.028-2.946.724.109-.109a12.441,12.441,0,0,1-1.21,3.082l-.006-.157,1.664,2.536.067.1-.085.089q-1.718,1.779-3.485,3.612l-.085.088-.106-.064-2.593-1.572h.16l0,0a12.514,12.514,0,0,1-3.036,1.318l.108-.117c-.213,1.02-.423,2.032-.619,2.97l-.025.121-.122,0-5.019.085-.121,0-.028-.117c-.249-1.017-.495-2.023-.721-2.947l.109.109a12.472,12.472,0,0,1-3.08-1.215l.151-.006-2.537,1.661-.1.063-.082-.08-3.607-3.491-.08-.076.057-.094,1.576-2.59V21.5a12.466,12.466,0,0,1-1.313-3.036l.1.09-2.97-.623-.094-.02,0-.1c-.026-1.761-.052-3.438-.076-5.018v-.089l.085-.02,2.948-.714-.074.074a12.364,12.364,0,0,1,1.217-3.064l0,.093c-.595-.916-1.152-1.772-1.653-2.543l-.034-.052.043-.044L209.3,2.849l.027-.03.033.022,1.911,1.189.491.312a1.491,1.491,0,0,1,.166.114" transform="translate(27.917)" fill="#fff"/>
            <rect id="Rectángulo_44881" data-name="Rectángulo 44881" width="90.711" height="150.153" transform="translate(14.713 15.509)" fill="#e1e1e1"/>
            <rect id="Rectángulo_44882" data-name="Rectángulo 44882" width="90.711" height="150.153" transform="translate(11.695 15.509)" fill="#fccc10"/>
            <rect id="Rectángulo_44883" data-name="Rectángulo 44883" width="82.985" height="144.063" transform="translate(15.559 18.554)" fill="#fafafa"/>
            <rect id="Rectángulo_44884" data-name="Rectángulo 44884" width="51.029" height="106.623" transform="translate(31.357 37.274)" fill="#fccc10"/>
            <path id="Trazado_213080" data-name="Trazado 213080" d="M27.57,98.1c-.118-9.959,8.837-19.683,18.7-21.074,4.7-.663,9.7.271,14.1-1.532C68.21,72.273,70.705,61.852,78.6,58.76l.361,77.067H27.57Z" transform="translate(3.787 8.071)" fill="#e1e1e1"/>
            <path id="Trazado_213081" data-name="Trazado 213081" d="M203.674,238.49a13.5,13.5,0,0,1,3.3-1.433l.68-3.264,5.514-.1.793,3.238a13.46,13.46,0,0,1,3.346,1.316l2.786-1.827,3.967,3.831L222.33,243.1a13.529,13.529,0,0,1,1.433,3.3l3.263.679.1,5.514-3.238.794a13.452,13.452,0,0,1-1.316,3.345l1.827,2.788-3.829,3.967-2.849-1.728a13.514,13.514,0,0,1-3.3,1.433l-.679,3.263-5.514.1-.794-3.237A13.558,13.558,0,0,1,204.087,262l-2.786,1.827-3.968-3.831,1.728-2.849a13.528,13.528,0,0,1-1.433-3.3l-3.263-.68-.1-5.513,3.237-.794a13.523,13.523,0,0,1,1.317-3.346l-1.827-2.786,3.829-3.967Zm2.939,7.345a5.916,5.916,0,1,0,8.365-.147,5.916,5.916,0,0,0-8.365.147" transform="translate(26.682 32.098)" fill="#fff"/>
            <path id="Trazado_213082" data-name="Trazado 213082" d="M309.991,266.745s.326-.014.992-.02l3.017-.019v.08c-15.59.081-79.083.141-154.987.141l-112.444-.053-34.075-.057-9.264-.034-2.41-.018c-.543-.006-.82-.018-.82-.018s.278-.013.82-.018l2.41-.018,9.264-.034,34.075-.057,112.444-.053c75.9,0,139.4.06,154.987.141v.08l-3.017-.019c-.665-.007-.992-.02-.992-.02" transform="translate(0 36.612)" fill="#1a2e35"/>
            <rect id="Rectángulo_44885" data-name="Rectángulo 44885" width="155.303" height="219.132" transform="translate(128.768 34.133)" fill="#fff"/>
            <path id="Trazado_213083" data-name="Trazado 213083" d="M268.542,249.164c0-1.457-.067-89.678-.164-219.132l.164.164-155.284.017h-.018l.18-.181c-.013,82.116-.024,158.051-.034,219.132l-.146-.146,155.3.146-155.3.146h-.147v-.147c-.009-61.08-.022-137.015-.034-219.132v-.181h.2l155.284.017h.164v.164c-.1,129.454-.163,217.676-.164,219.132" transform="translate(15.528 4.1)" fill="#1a2e35"/>
            <path id="Trazado_213084" data-name="Trazado 213084" d="M181.113,173.133h-51.1a7.6,7.6,0,0,1,0-15.2h51.1a7.6,7.6,0,0,1,0,15.2" transform="translate(16.814 21.692)" fill="#fff"/>
            <path id="Trazado_213085" data-name="Trazado 213085" d="M241.757,173.133H192.131a7.6,7.6,0,1,1,0-15.2h49.626a7.6,7.6,0,0,1,0,15.2" transform="translate(25.345 21.692)" fill="#fff"/>
            <path id="Trazado_213086" data-name="Trazado 213086" d="M251.244,200.528h-121.5a7.6,7.6,0,0,1,0-15.2h121.5a7.6,7.6,0,0,1,0,15.2" transform="translate(16.776 25.454)" fill="#fff"/>
            <path id="Trazado_213087" data-name="Trazado 213087" d="M152.636,152.576c0,.1-6.408.181-14.31.181s-14.311-.081-14.311-.181,6.406-.181,14.311-.181,14.31.081,14.31.181" transform="translate(17.033 20.931)" fill="#1a2e35"/>
            <path id="Trazado_213088" data-name="Trazado 213088" d="M211.433,152.576c0,.1-5.045.181-11.268.181s-11.269-.081-11.269-.181,5.044-.181,11.269-.181,11.268.081,11.268.181" transform="translate(25.944 20.931)" fill="#1a2e35"/>
            <path id="Trazado_213089" data-name="Trazado 213089" d="M170.758,179.833c0,.1-10.394.181-23.212.181s-23.214-.081-23.214-.181,10.392-.181,23.214-.181,23.212.081,23.212.181" transform="translate(17.077 24.675)" fill="#1a2e35"/>
            <path id="Trazado_213090" data-name="Trazado 213090" d="M251.736,144.207H127.4a7.4,7.4,0,0,1-7.4-7.4v-1.813a7.4,7.4,0,0,1,7.4-7.4H251.736a7.4,7.4,0,0,1,7.4,7.4V136.8a7.4,7.4,0,0,1-7.4,7.4" transform="translate(16.481 17.524)" fill="#e1e1e1"/>
            <path id="Trazado_213091" data-name="Trazado 213091" d="M213.883,134.917c0,.1-12.346.181-27.572.181s-27.573-.081-27.573-.181,12.343-.181,27.573-.181,27.572.081,27.572.181" transform="translate(21.802 18.506)" fill="#1a2e35"/>
            <path id="Trazado_213092" data-name="Trazado 213092" d="M251.736,55.377H127.4a7.4,7.4,0,0,1-7.4-7.4V46.162a7.4,7.4,0,0,1,7.4-7.4H251.736a7.4,7.4,0,0,1,7.4,7.4v1.813a7.4,7.4,0,0,1-7.4,7.4" transform="translate(16.481 5.324)" fill="#e1e1e1"/>
            <path id="Trazado_213093" data-name="Trazado 213093" d="M213.883,46.087c0,.1-12.346.181-27.572.181s-27.573-.081-27.573-.181,12.343-.181,27.573-.181,27.572.081,27.572.181" transform="translate(21.802 6.305)" fill="#1a2e35"/>
            <path id="Trazado_213094" data-name="Trazado 213094" d="M268.537,56.93c0,.1-34.8.181-77.717.181s-77.725-.081-77.725-.181,34.793-.181,77.725-.181,77.717.081,77.717.181" transform="translate(15.533 7.794)" fill="#fccc10"/>
            <path id="Trazado_213095" data-name="Trazado 213095" d="M268.537,121.562c0,.1-34.8.181-77.717.181s-77.725-.081-77.725-.181,34.793-.181,77.725-.181,77.717.081,77.717.181" transform="translate(15.533 16.671)" fill="#fccc10"/>
            <path id="Trazado_213096" data-name="Trazado 213096" d="M181.113,86.756h-51.1a7.6,7.6,0,0,1,0-15.2h51.1a7.6,7.6,0,0,1,0,15.2" transform="translate(16.814 9.828)" fill="#fff"/>
            <path id="Trazado_213097" data-name="Trazado 213097" d="M241.757,86.756H192.131a7.6,7.6,0,1,1,0-15.2h49.626a7.6,7.6,0,0,1,0,15.2" transform="translate(25.345 9.828)" fill="#fff"/>
            <path id="Trazado_213098" data-name="Trazado 213098" d="M251.244,114.151h-121.5a7.6,7.6,0,0,1,0-15.2h121.5a7.6,7.6,0,0,1,0,15.2" transform="translate(16.776 13.591)" fill="#fff"/>
            <path id="Trazado_213099" data-name="Trazado 213099" d="M152.636,66.2c0,.1-6.408.181-14.31.181s-14.311-.081-14.311-.181,6.406-.181,14.311-.181,14.31.081,14.31.181" transform="translate(17.033 9.068)" fill="#1a2e35"/>
            <path id="Trazado_213100" data-name="Trazado 213100" d="M211.433,66.2c0,.1-5.045.181-11.268.181S188.9,66.3,188.9,66.2s5.044-.181,11.269-.181,11.268.081,11.268.181" transform="translate(25.944 9.068)" fill="#1a2e35"/>
            <path id="Trazado_213101" data-name="Trazado 213101" d="M170.758,93.456c0,.1-10.394.181-23.212.181s-23.214-.081-23.214-.181,10.392-.181,23.214-.181,23.212.081,23.212.181" transform="translate(17.077 12.811)" fill="#1a2e35"/>
            <path id="Trazado_213102" data-name="Trazado 213102" d="M243.588,206.836c0,.1-10.138.181-22.641.181s-22.643-.081-22.643-.181,10.136-.181,22.643-.181,22.641.081,22.641.181" transform="translate(27.236 28.384)" fill="#1a2e35"/>
            <path id="Trazado_213103" data-name="Trazado 213103" d="M177.8,80.322a8.085,8.085,0,0,1-1.074.268,12.683,12.683,0,0,1-8-1.145,4.641,4.641,0,0,1-1.231-.931,2.94,2.94,0,0,1-.74-1.477,2.184,2.184,0,0,1,.357-1.717,1.666,1.666,0,0,1,1.752-.557,1.258,1.258,0,0,1,.769.649,1.615,1.615,0,0,1,.132,1.01A3.645,3.645,0,0,1,168.8,78.2a8.7,8.7,0,0,1-3.477,2.375,8.393,8.393,0,0,1-4.49.408,5.009,5.009,0,0,1-2.2-.966,2.614,2.614,0,0,1-1.067-2.221,2.427,2.427,0,0,1,.479-1.208,1.885,1.885,0,0,1,1.091-.762,1.359,1.359,0,0,1,1.3.427,1.933,1.933,0,0,1,.464,1.281,2.626,2.626,0,0,1-.318,1.319,2.965,2.965,0,0,1-.942.987,8.517,8.517,0,0,1-2.478,1,10.926,10.926,0,0,1-5.394.573,5.079,5.079,0,0,1-2.481-1.345,3.561,3.561,0,0,1-1.076-2.65,2.353,2.353,0,0,1,.751-1.683,1.722,1.722,0,0,1,1.829-.194,1.411,1.411,0,0,1,.69.672,1.453,1.453,0,0,1,.083.958,2.724,2.724,0,0,1-1.082,1.427,14.022,14.022,0,0,1-6.236,2.37A6.317,6.317,0,0,1,141,80.678a3.267,3.267,0,0,1-2-2.446,2.231,2.231,0,0,1,1.653-2.493,1.543,1.543,0,0,1,1.477.531,2.36,2.36,0,0,1,.52,1.44,2.871,2.871,0,0,1-.316,1.46,3.445,3.445,0,0,1-.985,1.076,7.586,7.586,0,0,1-2.542,1.066,8.529,8.529,0,0,1-5.074.183,4.364,4.364,0,0,1-1.927-1.4,3.136,3.136,0,0,1-.684-2.137,2.994,2.994,0,0,1,.926-1.882,2.038,2.038,0,0,1,1.85-.553l.074.019,0,.074a5.359,5.359,0,0,1-1.358,3.685,5.623,5.623,0,0,1-2.429,1.655,4.59,4.59,0,0,1-1.819.232,5.349,5.349,0,0,1-.622-.116,4.842,4.842,0,0,0,2.407-.217A5.546,5.546,0,0,0,132.5,79.2a5.2,5.2,0,0,0,1.276-3.572l.077.093a1.831,1.831,0,0,0-1.651.516,2.779,2.779,0,0,0-.84,1.741,3.487,3.487,0,0,0,2.468,3.27,8.288,8.288,0,0,0,4.9-.217A7.285,7.285,0,0,0,141.172,80a3.115,3.115,0,0,0,.889-.976,2.559,2.559,0,0,0,.276-1.3,2.045,2.045,0,0,0-.448-1.244,1.219,1.219,0,0,0-1.171-.421,1.905,1.905,0,0,0-1.381,2.125,2.932,2.932,0,0,0,1.8,2.178,5.984,5.984,0,0,0,3.071.254,13.7,13.7,0,0,0,6.064-2.309,2.4,2.4,0,0,0,.949-1.227,1.029,1.029,0,0,0-.58-1.22A1.369,1.369,0,0,0,149.2,76a1.989,1.989,0,0,0-.623,1.427,3.2,3.2,0,0,0,.971,2.379,4.734,4.734,0,0,0,2.305,1.249,10.6,10.6,0,0,0,5.214-.564,8.229,8.229,0,0,0,2.38-.944,2.611,2.611,0,0,0,.834-.867,2.273,2.273,0,0,0,.279-1.144,1.6,1.6,0,0,0-.372-1.057,1.015,1.015,0,0,0-.972-.326,1.942,1.942,0,0,0-1.311,1.674,2.294,2.294,0,0,0,.943,1.933,4.693,4.693,0,0,0,2.052.906,8.1,8.1,0,0,0,4.324-.376,8.448,8.448,0,0,0,3.372-2.28,3.387,3.387,0,0,0,.9-1.637,1.145,1.145,0,0,0-.713-1.373,1.421,1.421,0,0,0-1.484.463,1.956,1.956,0,0,0-.321,1.53,3.316,3.316,0,0,0,1.84,2.27,12.576,12.576,0,0,0,4.748,1.361,13.33,13.33,0,0,0,3.143-.11c.356-.059.628-.108.808-.149a1.66,1.66,0,0,1,.279-.048" transform="translate(17.546 10.26)" fill="#f47409"/>
            <path id="Trazado_213104" data-name="Trazado 213104" d="M236.516,79.556a4.557,4.557,0,0,1-.871.434,7.991,7.991,0,0,1-2.729.571,8.358,8.358,0,0,1-4.281-1,5.337,5.337,0,0,1-2.085-1.831,2.485,2.485,0,0,1-.374-1.507,2.109,2.109,0,0,1,.8-1.428,1.381,1.381,0,0,1,.844-.28,1.31,1.31,0,0,1,.84.358,2.058,2.058,0,0,1,.562,1.707,3.007,3.007,0,0,1-.87,1.648,7.228,7.228,0,0,1-1.516,1.159,9.03,9.03,0,0,1-3.785,1.209,7.213,7.213,0,0,1-4.139-.772,4.041,4.041,0,0,1-1.6-1.551,2.988,2.988,0,0,1-.367-1.106A2.668,2.668,0,0,1,217.115,76a2.72,2.72,0,0,1,1.65-1.665,1.591,1.591,0,0,1,1.245.125,1.937,1.937,0,0,1,.835.931,2.877,2.877,0,0,1-.092,2.427A5,5,0,0,1,219.1,79.63a9.046,9.046,0,0,1-4.651,1.608,9.243,9.243,0,0,1-4.812-1.035,7.26,7.26,0,0,1-1.957-1.458,3.3,3.3,0,0,1-.97-2.225,2.194,2.194,0,0,1,1.334-1.976,1.346,1.346,0,0,1,1.244.149,1.813,1.813,0,0,1,.687,1.012,2.607,2.607,0,0,1-.467,2.241,6.936,6.936,0,0,1-1.595,1.537,9.748,9.748,0,0,1-7.827,1.674,5.286,5.286,0,0,1-3.175-1.9,2.94,2.94,0,0,1-.588-1.687,3.208,3.208,0,0,1,.417-1.657,2.108,2.108,0,0,1,1.28-1.02,1.818,1.818,0,0,1,1.516.339,2.779,2.779,0,0,1,1.021,2.54,3.428,3.428,0,0,1-1.224,2.073,4.61,4.61,0,0,1-1.81.919,8.935,8.935,0,0,1-2.784.174c-.3-.028-.54-.049-.722-.064a1.689,1.689,0,0,1-.245-.036.982.982,0,0,1,.248,0l.722.026a9.271,9.271,0,0,0,2.744-.238,4.47,4.47,0,0,0,1.734-.913,3.248,3.248,0,0,0,1.136-1.969,2.579,2.579,0,0,0-.96-2.329,1.578,1.578,0,0,0-1.32-.287,1.873,1.873,0,0,0-1.117.912,2.787,2.787,0,0,0,.176,3.053,5.009,5.009,0,0,0,3.015,1.772,9.46,9.46,0,0,0,7.564-1.65,6.65,6.65,0,0,0,1.514-1.463,2.269,2.269,0,0,0,.414-1.952,1.474,1.474,0,0,0-.552-.821.994.994,0,0,0-.928-.108,1.858,1.858,0,0,0-1.1,1.653,2.97,2.97,0,0,0,.881,1.98,6.938,6.938,0,0,0,1.862,1.382,8.891,8.891,0,0,0,4.623.991,8.72,8.72,0,0,0,4.463-1.539,4.691,4.691,0,0,0,1.538-1.682,2.52,2.52,0,0,0,.089-2.125,1.381,1.381,0,0,0-1.657-.866,2.383,2.383,0,0,0-1.429,1.454,2.324,2.324,0,0,0-.151,1.015,2.7,2.7,0,0,0,.324.976,3.716,3.716,0,0,0,1.471,1.425,6.9,6.9,0,0,0,3.949.745,8.722,8.722,0,0,0,3.66-1.152,6.971,6.971,0,0,0,1.459-1.1,2.756,2.756,0,0,0,.8-1.483,1.792,1.792,0,0,0-.469-1.479,1.024,1.024,0,0,0-1.35-.067,1.87,1.87,0,0,0-.714,1.251,2.258,2.258,0,0,0,.331,1.361,5.169,5.169,0,0,0,1.984,1.772,8.369,8.369,0,0,0,6.887.537c.6-.215.886-.389.9-.366" transform="translate(26.615 10.199)" fill="#f47409"/>
            <path id="Trazado_213105" data-name="Trazado 213105" d="M181.337,106.266a1.814,1.814,0,0,1-.266.134l-.8.361c-.7.31-1.74.765-3.107,1.28a25.331,25.331,0,0,1-5.142,1.368,19.868,19.868,0,0,1-3.324.2,11.252,11.252,0,0,1-3.7-.56,4.4,4.4,0,0,1-2.81-2.926,2.854,2.854,0,0,1,.273-2.21,2.494,2.494,0,0,1,1.915-1.291,2.117,2.117,0,0,1,1.988,1.284,3.26,3.26,0,0,1,.175,2.465,4.832,4.832,0,0,1-1.45,2.082,9.454,9.454,0,0,1-2.177,1.4,7.455,7.455,0,0,1-5.261.614A5.328,5.328,0,0,1,154,106.443a4.374,4.374,0,0,1-.01-1.466,2.819,2.819,0,0,1,.6-1.373,1.865,1.865,0,0,1,1.335-.77,1.342,1.342,0,0,1,1.28.894,3.583,3.583,0,0,1-.511,2.945,8.913,8.913,0,0,1-1.943,2.3,8.2,8.2,0,0,1-10.859-.166,4.636,4.636,0,0,1-1.407-2.479,2.835,2.835,0,0,1,.093-1.443,2.906,2.906,0,0,1,.811-1.181,2.424,2.424,0,0,1,1.291-.607,1.706,1.706,0,0,1,1.365.427,2.637,2.637,0,0,1,.62,2.6,4.856,4.856,0,0,1-1.438,2.177,11.687,11.687,0,0,1-6.54,3.042,10.165,10.165,0,0,1-4.447-.4,4.954,4.954,0,0,1-1.829-1.1,3.433,3.433,0,0,1-.992-1.79,3.122,3.122,0,0,1,.18-1.946,1.92,1.92,0,0,1,1.456-1.134,2.179,2.179,0,0,1,1.69.464,1.6,1.6,0,0,1,.538,1.542,2.421,2.421,0,0,1-.8,1.309,5.1,5.1,0,0,1-1.173.778,13.453,13.453,0,0,1-2.277.87,12.869,12.869,0,0,1-3.324.494,8.415,8.415,0,0,1-1.17-.049,1.79,1.79,0,0,1,.3-.007c.2,0,.489,0,.871-.016a13.708,13.708,0,0,0,5.526-1.446,4.952,4.952,0,0,0,1.124-.762,2.23,2.23,0,0,0,.728-1.208,1.389,1.389,0,0,0-.478-1.341,1.962,1.962,0,0,0-1.516-.4,1.679,1.679,0,0,0-1.27,1.01,2.872,2.872,0,0,0-.15,1.789,3.772,3.772,0,0,0,2.663,2.677,9.911,9.911,0,0,0,4.318.364A11.4,11.4,0,0,0,145,108.061a4.538,4.538,0,0,0,1.341-2.029,2.311,2.311,0,0,0-.527-2.258,1.638,1.638,0,0,0-2.2.189A2.58,2.58,0,0,0,142.9,105a2.485,2.485,0,0,0-.075,1.268,4.29,4.29,0,0,0,1.309,2.285,7.846,7.846,0,0,0,10.379.144,8.549,8.549,0,0,0,1.864-2.208,4.075,4.075,0,0,0,.531-1.3,2.442,2.442,0,0,0-.043-1.335.98.98,0,0,0-.935-.665,1.517,1.517,0,0,0-1.067.636,3.2,3.2,0,0,0-.516,2.551,4.987,4.987,0,0,0,3.405,3.762,7.129,7.129,0,0,0,5.02-.586,6.3,6.3,0,0,0,3.469-3.285,2.953,2.953,0,0,0-.151-2.227,1.811,1.811,0,0,0-1.694-1.123,2.209,2.209,0,0,0-1.684,1.138,2.57,2.57,0,0,0-.252,1.994,4.143,4.143,0,0,0,2.632,2.758,11.074,11.074,0,0,0,3.615.568,19.723,19.723,0,0,0,3.291-.172,25.774,25.774,0,0,0,5.121-1.3c1.369-.492,2.416-.926,3.127-1.214l.809-.328a1.8,1.8,0,0,1,.281-.1" transform="translate(17.379 14.094)" fill="#f47409"/>
            <path id="Trazado_213106" data-name="Trazado 213106" d="M235.61,246.271s-15.944-18.351-21.961-36.7-3.16-16.246-3.16-16.246,8.123,17.827,14.291,26.438,17.148,21.246,17.148,21.246Z" transform="translate(28.817 26.542)" fill="#375a64"/>
            <path id="Trazado_213107" data-name="Trazado 213107" d="M235.5,195.887a.929.929,0,0,0-1.73.591c.972,6.445,3.074,21.572,2.991,31.383-.107,12.745,0,17.672,0,17.672H243.4s-1.178-26.347-2.678-34.38a55.127,55.127,0,0,0-5.224-15.267" transform="translate(32.106 26.839)" fill="#375a64"/>
            <path id="Trazado_213108" data-name="Trazado 213108" d="M238.469,243.665a70.268,70.268,0,0,0,5.463-19.814c.546-4.692-.429-11.032-1.879-19.493a52.475,52.475,0,0,1-.839-9.379,1.583,1.583,0,0,1,2.973-.743,42.141,42.141,0,0,1,3.708,9.372c1.606,8.354,3.427,12.531,2.035,20.456S243.4,244.2,243.4,244.2Z" transform="translate(32.753 26.565)" fill="#375a64"/>
            <path id="Trazado_213109" data-name="Trazado 213109" d="M243.725,245.427s17.506-37.621,18.72-43.2,5.339-18.442,5.824-17.714,1.214,7.522-1.941,15.288S249.7,246.573,249.7,246.573h-5.978" transform="translate(33.475 25.338)" fill="#375a64"/>
            <path id="Trazado_213110" data-name="Trazado 213110" d="M240.463,242.479a3.509,3.509,0,0,1-.49-.337c-.312-.235-.783-.566-1.357-1.036a62.092,62.092,0,0,1-4.7-4.152,78.92,78.92,0,0,1-12.7-16.3,106.78,106.78,0,0,1-8.67-18.78c-.88-2.5-1.523-4.544-1.939-5.964-.214-.709-.362-1.265-.465-1.641a3.468,3.468,0,0,1-.135-.579,3.529,3.529,0,0,1,.208.557q.2.6.531,1.62c.458,1.406,1.138,3.436,2.049,5.919a113.531,113.531,0,0,0,8.742,18.678,82.353,82.353,0,0,0,12.565,16.3c1.873,1.862,3.477,3.281,4.611,4.229.558.486,1.015.835,1.31,1.088a3.547,3.547,0,0,1,.445.4" transform="translate(28.843 26.603)" fill="#1a2e35"/>
            <path id="Trazado_213111" data-name="Trazado 213111" d="M239.011,224.09a6.253,6.253,0,0,1-.157-1.1c-.083-.779-.192-1.794-.323-3.015-.278-2.545-.71-6.055-1.328-9.911s-1.31-7.327-1.845-9.83c-.259-1.2-.474-2.2-.639-2.965a6.4,6.4,0,0,1-.2-1.1,6.363,6.363,0,0,1,.338,1.063c.2.689.456,1.695.756,2.941.6,2.493,1.333,5.962,1.956,9.828s1.012,7.389,1.223,9.945c.106,1.278.174,2.313.2,3.031a6.247,6.247,0,0,1,.013,1.115" transform="translate(32.21 26.943)" fill="#1a2e35"/>
            <path id="Trazado_213112" data-name="Trazado 213112" d="M242.29,193.878a2.677,2.677,0,0,1,.207.478l.524,1.4c.232.606.5,1.353.751,2.239s.6,1.88.852,3.013q.208.846.433,1.77c.147.615.251,1.267.386,1.936.285,1.336.463,2.784.674,4.3a64.256,64.256,0,0,1-.712,19.887c-.321,1.5-.6,2.933-.982,4.246-.182.657-.332,1.3-.523,1.9l-.56,1.733c-.333,1.112-.742,2.081-1.065,2.943s-.635,1.592-.909,2.18c-.259.562-.466,1.013-.624,1.357a2.58,2.58,0,0,1-.24.462,2.773,2.773,0,0,1,.172-.494l.558-1.382c.253-.595.552-1.327.847-2.2s.693-1.838,1.009-2.95l.533-1.733c.183-.6.326-1.245.5-1.9.366-1.309.633-2.736.943-4.231a66.442,66.442,0,0,0,.709-19.783c-.2-1.514-.366-2.957-.637-4.288-.127-.668-.224-1.317-.363-1.932s-.278-1.2-.408-1.766c-.235-1.133-.554-2.129-.8-3.016s-.478-1.641-.688-2.253c-.19-.587-.341-1.059-.457-1.418a2.68,2.68,0,0,1-.136-.5" transform="translate(33.032 26.629)" fill="#1a2e35"/>
            <path id="Trazado_213113" data-name="Trazado 213113" d="M267.723,185.171a.568.568,0,0,1-.014.168c-.022.133-.047.293-.077.489-.077.429-.174,1.063-.346,1.873-.338,1.618-.9,3.947-1.776,6.773s-2.068,6.139-3.486,9.78-3.054,7.61-4.609,11.834c-1.577,4.217-2.793,8.334-3.936,12.07s-2.205,7.092-3.244,9.863a63.233,63.233,0,0,1-2.764,6.433c-.358.746-.681,1.3-.889,1.684-.1.172-.179.313-.245.43-.057.1-.089.143-.1.14a.6.6,0,0,1,.061-.158c.058-.121.127-.268.213-.447.185-.394.487-.959.823-1.712.705-1.491,1.655-3.684,2.648-6.461s2.048-6.129,3.162-9.872,2.333-7.869,3.916-12.1c1.557-4.234,3.21-8.2,4.638-11.832s2.652-6.925,3.554-9.735,1.506-5.118,1.887-6.724c.193-.8.313-1.432.414-1.855l.114-.482a.546.546,0,0,1,.051-.161" transform="translate(33.821 25.433)" fill="#1a2e35"/>
            <path id="Trazado_213114" data-name="Trazado 213114" d="M217.973,177.917a1.507,1.507,0,0,0-2.482,1.537,43.194,43.194,0,0,0,2.2,5.657c2.407,5.115,9.476,23.466,12.786,33.544s7.973,28.881,7.973,28.881l7.066-1.146s-6.465-30.894-12.783-42.024c-5.076-8.944-10.152-21.869-14.76-26.448" transform="translate(29.587 24.377)" fill="#375a64"/>
            <path id="Trazado_213115" data-name="Trazado 213115" d="M230.361,219.224a4.437,4.437,0,0,1,.364.847c.209.554.494,1.363.815,2.373.651,2.015,1.447,4.831,2.25,7.959s1.466,5.976,1.931,8.04c.212.977.39,1.8.531,2.449a4.358,4.358,0,0,1,.147.91,4.377,4.377,0,0,1-.288-.876c-.172-.645-.389-1.456-.647-2.42-.54-2.126-1.251-4.92-2.037-8.009-.8-3.125-1.556-5.946-2.14-7.976l-.7-2.4a4.451,4.451,0,0,1-.226-.893" transform="translate(31.639 30.11)" fill="#1a2e35"/>
            <path id="Trazado_213116" data-name="Trazado 213116" d="M241.9,246.923a.747.747,0,0,1-.04-.189c-.022-.147-.048-.33-.081-.556-.074-.489-.14-1.214-.289-2.139-.259-1.857-.722-4.532-1.482-7.8a111.435,111.435,0,0,0-3.307-11.289c-1.449-4.187-3.268-8.711-5.327-13.392-4.158-9.352-8.311-17.648-11.04-23.782-1.38-3.059-2.448-5.557-3.15-7.3-.359-.867-.615-1.549-.8-2.01l-.2-.527a.8.8,0,0,1-.056-.184.659.659,0,0,1,.091.169c.06.135.136.3.231.513q.311.72.859,1.982c.744,1.722,1.848,4.2,3.257,7.245,2.788,6.1,6.976,14.374,11.14,23.74,2.063,4.689,3.876,9.227,5.311,13.431a106.249,106.249,0,0,1,3.24,11.343,79.287,79.287,0,0,1,1.368,7.835c.127.93.169,1.659.219,2.151.018.229.032.413.043.561a.7.7,0,0,1,0,.192" transform="translate(29.686 24.415)" fill="#1a2e35"/>
            <path id="Trazado_213117" data-name="Trazado 213117" d="M242.817,241.653a7.376,7.376,0,0,1-.238-1.187c-.141-.83-.326-1.926-.55-3.249-.488-2.738-1.231-6.508-2.3-10.613s-2.251-7.764-3.168-10.389l-1.105-3.1a7.57,7.57,0,0,1-.376-1.151,7.3,7.3,0,0,1,.512,1.1c.3.718.73,1.762,1.218,3.067a102.893,102.893,0,0,1,3.281,10.384,107.862,107.862,0,0,1,2.2,10.665c.2,1.378.355,2.5.433,3.271a7.551,7.551,0,0,1,.094,1.208" transform="translate(32.287 29.112)" fill="#1a2e35"/>
            <rect id="Rectángulo_44886" data-name="Rectángulo 44886" width="27.583" height="33.607" transform="translate(262.026 269.749)" fill="#f47409"/>
            <g id="Grupo_148910" data-name="Grupo 148910" transform="translate(262.024 269.75)" opacity="0.3">
              <g id="Grupo_148909" data-name="Grupo 148909">
                <g id="Grupo_148908" data-name="Grupo 148908" clip-path="url(#clip-path-3)">
                  <rect id="Rectángulo_44887" data-name="Rectángulo 44887" width="27.583" height="33.607" transform="translate(0.001 -0.001)"/>
                </g>
              </g>
            </g>
            <rect id="Rectángulo_44889" data-name="Rectángulo 44889" width="24.472" height="33.607" transform="translate(256.336 269.749)" fill="#f47409"/>
            <path id="Trazado_213118" data-name="Trazado 213118" d="M49.909,84.181l-.785,63.135c-.133,10.735,1.865,26.534,18.849,25.971,14.7-1.6,18.6-15.515,18.713-25.535.055-4.752.109-8.715.147-9.2,0,0,16.091-1.312,17.449-17.206.656-7.681.72-23.609.611-38.022a29.711,29.711,0,0,0-27.556-29.39L75.8,53.82c-16.62-.242-26.111,13.739-25.893,30.36" transform="translate(6.746 7.392)" fill="#ffc19d"/>
            <path id="Trazado_213119" data-name="Trazado 213119" d="M84.726,129.238A38.535,38.535,0,0,1,64.461,121.6s4.2,11.989,20.182,11.715Z" transform="translate(8.854 16.702)" fill="#ff9c6a"/>
            <path id="Trazado_213120" data-name="Trazado 213120" d="M75.448,85.825c-.316.322-2.151-1.156-4.814-1.227-2.659-.11-4.651,1.235-4.93.892-.138-.151.191-.739,1.059-1.348a6.667,6.667,0,0,1,3.959-1.125,6.438,6.438,0,0,1,3.82,1.39c.8.669,1.061,1.275.906,1.418" transform="translate(9.02 11.402)" fill="#1a2e35"/>
            <path id="Trazado_213121" data-name="Trazado 213121" d="M74.718,90.582a2.155,2.155,0,0,1-2.23,2.017,2.061,2.061,0,0,1-2.073-2.1,2.156,2.156,0,0,1,2.228-2.018,2.062,2.062,0,0,1,2.076,2.1" transform="translate(9.671 12.153)" fill="#1a2e35"/>
            <path id="Trazado_213122" data-name="Trazado 213122" d="M80.132,104.241c0-.14,1.538-.291,4.023-.427.629-.018,1.228-.1,1.365-.517a3.186,3.186,0,0,0-.282-1.881q-.715-2.33-1.5-4.888C81.67,89.572,80.221,83.873,80.5,83.791s2.187,5.491,4.256,12.446c.5,1.714.969,3.347,1.419,4.911a3.625,3.625,0,0,1,.144,2.474,1.568,1.568,0,0,1-1.093.837,4.261,4.261,0,0,1-1.07.071c-2.489-.048-4.026-.149-4.025-.289" transform="translate(11.006 11.508)" fill="#1a2e35"/>
            <path id="Trazado_213123" data-name="Trazado 213123" d="M74.469,76.924c-.257.59-2.388.146-4.942.278-2.554.076-4.651.694-4.946.125-.131-.271.266-.815,1.134-1.342a8.364,8.364,0,0,1,7.534-.307c.9.455,1.333.966,1.22,1.247" transform="translate(8.867 10.291)" fill="#1a2e35"/>
            <path id="Trazado_213124" data-name="Trazado 213124" d="M96.687,81.271c-.28.481-2.358-.053-4.875-.131-2.518-.123-4.609.245-4.875-.258-.116-.24.3-.672,1.177-1.054a8.791,8.791,0,0,1,3.724-.615,9.074,9.074,0,0,1,3.7.912c.866.452,1.269.917,1.145,1.146" transform="translate(11.938 10.879)" fill="#1a2e35"/>
            <path id="Trazado_213125" data-name="Trazado 213125" d="M51.547,91.048c-.263-.138-10.694-4.031-11.14,6.87s10.589,9.1,10.621,8.789.52-15.659.52-15.659" transform="translate(5.548 12.397)" fill="#ffc19d"/>
            <path id="Trazado_213126" data-name="Trazado 213126" d="M47.532,102.022c-.047-.036-.2.125-.522.259a1.9,1.9,0,0,1-1.422-.03c-1.134-.47-2.028-2.337-2-4.3a6.274,6.274,0,0,1,.643-2.7,2.2,2.2,0,0,1,1.489-1.4.968.968,0,0,1,1.1.566c.134.311.056.525.113.547.03.028.241-.173.172-.628a1.209,1.209,0,0,0-.4-.7,1.437,1.437,0,0,0-1.038-.32,2.665,2.665,0,0,0-2.053,1.608,6.45,6.45,0,0,0-.784,3.012c-.02,2.2,1.02,4.3,2.577,4.821a2.041,2.041,0,0,0,1.749-.217c.348-.256.415-.5.379-.519" transform="translate(5.882 12.816)" fill="#ff9c6a"/>
            <path id="Trazado_213127" data-name="Trazado 213127" d="M78.568,109.255c.119-.275-2.017-.914-3.518-2.918a12.177,12.177,0,0,1-1.508-2.847c-.318-.792-.56-1.287-.677-1.251s-.084.57.091,1.431a8.061,8.061,0,0,0,1.4,3.189,6.525,6.525,0,0,0,2.784,2.131c.833.337,1.4.358,1.424.265" transform="translate(9.999 14.042)" fill="#1a2e35"/>
            <path id="Trazado_213128" data-name="Trazado 213128" d="M96.791,86.707c-.316.322-2.151-1.156-4.814-1.227-2.658-.111-4.651,1.235-4.93.892-.138-.152.191-.739,1.059-1.349A6.675,6.675,0,0,1,92.065,83.9a6.437,6.437,0,0,1,3.82,1.39c.8.669,1.061,1.275.906,1.418" transform="translate(11.951 11.523)" fill="#1a2e35"/>
            <path id="Trazado_213129" data-name="Trazado 213129" d="M95.748,91.262a2.155,2.155,0,0,1-2.23,2.017,2.061,2.061,0,0,1-2.073-2.1,2.155,2.155,0,0,1,2.228-2.018,2.062,2.062,0,0,1,2.076,2.1" transform="translate(12.559 12.246)" fill="#1a2e35"/>
            <path id="Trazado_213130" data-name="Trazado 213130" d="M117.073,63.383a8.6,8.6,0,0,0-10.727-3.395A11.773,11.773,0,0,0,86.066,49.822,4.805,4.805,0,0,0,83.721,46.6a9.487,9.487,0,0,0-3.912-1.168,18.712,18.712,0,0,0-17.094,7.454,20.369,20.369,0,0,0-17.26,6.3C40.332,64.854,39.368,78,44.976,89.355l1.32,7.12c1.758-.006,3.368.121,4.453,1.1,1.473,1.325,2.131,3.817,4.58,2.871,1.245-.481,2.383-3.1,2.8-4.365A62.029,62.029,0,0,0,60.815,69.82a19.935,19.935,0,0,1,6.156-4.444l-.188.169c4.441-1.543,9.466-3.061,13.68-.976,3.27,1.618,5.191,5.01,7.635,7.717A24.953,24.953,0,0,0,105.885,80.5c.234,4.475-.141,10.8.093,15.276l3.765-7.169,0,.035c.308-.524.563-1.053.81-1.583l.084-.162v-.019l0-.006c.689-.56,1.211-1.584,2.375-2.916a9.39,9.39,0,0,0,1.542-9.608,8.6,8.6,0,0,0,2.514-10.967" transform="translate(5.655 6.225)" fill="#1a2e35"/>
            <path id="Trazado_213131" data-name="Trazado 213131" d="M103.4,79.659l-.016-.013Z" transform="translate(14.199 10.939)" fill="#1a2e35"/>
            <path id="Trazado_213132" data-name="Trazado 213132" d="M104.424,61.347c.011,0,.038.077.08.234a3.243,3.243,0,0,1,.1.705,4.73,4.73,0,0,1-.635,2.554,4.863,4.863,0,0,1-1.217,1.41,4.362,4.362,0,0,1-1.987.847,4.921,4.921,0,0,1-4.545-1.711l.271-.233a3.009,3.009,0,0,1,.768,2.138,3.947,3.947,0,0,1-1.218,2.746,4.452,4.452,0,0,1-2.578,1.1A6.93,6.93,0,0,1,88.981,69.9a14.684,14.684,0,0,1-2.4-2.036,6.226,6.226,0,0,1-.763-.86,7.93,7.93,0,0,1,.861.76,16.965,16.965,0,0,0,2.435,1.921,6.771,6.771,0,0,0,4.308,1.117A4.146,4.146,0,0,0,95.8,69.782a3.618,3.618,0,0,0,1.1-2.5,2.657,2.657,0,0,0-.668-1.886l.271-.232a4.628,4.628,0,0,0,4.216,1.62,4.274,4.274,0,0,0,3.048-2.067,4.827,4.827,0,0,0,.71-2.432c0-.606-.084-.935-.051-.942" transform="translate(11.787 8.426)" fill="#375a64"/>
            <path id="Trazado_213133" data-name="Trazado 213133" d="M91.469,50.843c.007-.01.086.025.234.1a4.833,4.833,0,0,1,.608.409,5.315,5.315,0,0,1,1.643,2.135,4.183,4.183,0,0,1-.374,3.927,3.223,3.223,0,0,1-1.987,1.364,3.274,3.274,0,0,1-2.54-.492,2.885,2.885,0,0,1-.6-.6l.312-.176a3.044,3.044,0,0,1-.082,2.449,3.355,3.355,0,0,1-1.585,1.625,4.419,4.419,0,0,1-3.713-.008,5.916,5.916,0,0,1-2-1.509,2.906,2.906,0,0,1-.531-.742c.024-.018.218.24.629.649a6.288,6.288,0,0,0,2,1.374,4.206,4.206,0,0,0,3.47-.057,3.034,3.034,0,0,0,1.414-1.476,2.713,2.713,0,0,0,.068-2.163l-.575-1.338.887,1.162a2.532,2.532,0,0,0,.522.517,2.939,2.939,0,0,0,2.257.44,2.9,2.9,0,0,0,1.787-1.208,3.949,3.949,0,0,0,.409-3.644,5.5,5.5,0,0,0-1.5-2.12c-.465-.417-.77-.594-.752-.622" transform="translate(11.104 6.983)" fill="#375a64"/>
            <path id="Trazado_213134" data-name="Trazado 213134" d="M174.709,120.921l-25.15,19.205a3.258,3.258,0,1,0,3.976,5.161L178.478,125.9l3.375-6.655Z" transform="translate(20.366 16.379)" fill="#f47409"/>
            <g id="Grupo_148913" data-name="Grupo 148913" transform="translate(194.849 136.384)" opacity="0.5">
              <g id="Grupo_148912" data-name="Grupo 148912">
                <g id="Grupo_148911" data-name="Grupo 148911" clip-path="url(#clip-path-4)">
                  <path id="Trazado_213135" data-name="Trazado 213135" d="M175.457,119.914l1.783,2.077-1.927,3.821a1.53,1.53,0,0,1-1.678-1.739,1.347,1.347,0,0,1-1.522-1.746s-1.307-.116-.57-1.5Z" transform="translate(-171.319 -119.914)" fill="#fff"/>
                </g>
              </g>
            </g>
            <path id="Trazado_213136" data-name="Trazado 213136" d="M149.4,137.749l4.127,5.043,1.385-1.077-3.958-5.153Z" transform="translate(20.52 18.756)" fill="#1a2e35"/>
            <path id="Trazado_213137" data-name="Trazado 213137" d="M147.882,187.879l-.9-.163,18.53-32.389-2.929-9.338s-3.4-13.3-.566-16.7c0,0,6.189-7.285,8.2-7.183s3.614.5,4.016,2.007c0,0,3.413-.4,4.316.7a17.389,17.389,0,0,1,1.607,2.409s3.713-.3,4.718,2.912c0,0,3.513,1.807,3.815,4.416s-.7,14.757-1.807,17.87-5.22,9.637-6.425,19.273-5.45,15.892-9.224,29.978l-10.251,4.054Z" transform="translate(20.187 16.771)" fill="#ffc19d"/>
            <path id="Trazado_213138" data-name="Trazado 213138" d="M171.206,123.7a18.773,18.773,0,0,0-2.162,2.5,18.93,18.93,0,0,0-1.32,3.034,6.283,6.283,0,0,1,3.483-5.539" transform="translate(23.031 16.988)" fill="#ff9c6a"/>
            <path id="Trazado_213139" data-name="Trazado 213139" d="M176.395,126.609a19.987,19.987,0,0,0-2.118,2.242,20.215,20.215,0,0,0-1.393,2.75,5.827,5.827,0,0,1,3.511-4.992" transform="translate(23.741 17.388)" fill="#ff9c6a"/>
            <path id="Trazado_213140" data-name="Trazado 213140" d="M180.5,129.084c.078.1-.845.9-1.69,2.128s-1.3,2.36-1.416,2.32a6.542,6.542,0,0,1,3.106-4.448" transform="translate(24.361 17.728)" fill="#ff9c6a"/>
            <path id="Trazado_213141" data-name="Trazado 213141" d="M165.309,130.114a4.448,4.448,0,0,0-4.048.274c-.036-.035.1-.262.436-.511a3.038,3.038,0,0,1,3.112-.212c.367.2.532.408.5.448" transform="translate(22.148 17.764)" fill="#ff9c6a"/>
            <path id="Trazado_213142" data-name="Trazado 213142" d="M171.762,134.432a5.375,5.375,0,0,0-3.7-2.821c0-.051.285-.118.752-.058a3.7,3.7,0,0,1,2.8,2.138c.182.433.193.728.143.74" transform="translate(23.083 18.065)" fill="#ff9c6a"/>
            <path id="Trazado_213143" data-name="Trazado 213143" d="M178.352,135.67a6.022,6.022,0,0,0-4.843-1.311c-.019-.048.245-.217.732-.333a4.145,4.145,0,0,1,3.645.987c.363.347.5.626.465.657" transform="translate(23.831 18.395)" fill="#ff9c6a"/>
            <path id="Trazado_213144" data-name="Trazado 213144" d="M14.705,166.522S3.35,231.02,3.9,237.05s3.568,15.626,10.419,17.271a30.141,30.141,0,0,0,13.155,0L19.249,175.1Z" transform="translate(0.533 22.871)" fill="#f47409"/>
            <path id="Trazado_213145" data-name="Trazado 213145" d="M46.666,138.795s-13.59,9.661-16.6,12.5c-12.563,11.883-15.194,16.746-16.655,20.767s8.722,97.4,8.722,97.4L24.2,285.781l95.39.246V202.669L105.26,144l-8.819-2.51-1.78-6.992s-10.957-8.09-29.029-8.323c-5.559-.073-13.424,2.112-17.818,5.521Z" transform="translate(1.823 17.33)" fill="#f47409"/>
            <path id="Trazado_213146" data-name="Trazado 213146" d="M85.722,142.1s9.8-.441,10.669-.241c3.021.7,11.319,8.3,20.769,17.677,9.017,8.943,26.756,27.549,26.756,27.549s3.189-3.22,6.825,1.077l14-20.371s21.022,2.582,24.327,18.448c0,0-6.443,12.3-11.72,21.1,0,0-19.536,32.42-34.968,26.549-14.1-5.361-31.768-19.7-34.258-22.766L87.374,196.309s-14.213-27.1-7.933-40.656Z" transform="translate(10.691 19.477)" fill="#f47409"/>
            <path id="Trazado_213147" data-name="Trazado 213147" d="M92.408,140.188a2.327,2.327,0,0,1-.5-.1l-1.415-.373c-1.232-.313-3.02-.742-5.251-1.163a146.492,146.492,0,0,0-17.605-2.17,120.283,120.283,0,0,0-17.731.052c-2.262.194-4.08.477-5.327.7l-1.434.283a2.42,2.42,0,0,1-.508.072,2.3,2.3,0,0,1,.489-.154c.366-.094.838-.214,1.422-.362a46.631,46.631,0,0,1,5.331-.838,108.914,108.914,0,0,1,17.786-.177,129.724,129.724,0,0,1,17.637,2.3c2.231.459,4.016.935,5.236,1.3l1.4.45a2.4,2.4,0,0,1,.478.184" transform="translate(5.856 18.636)" fill="#1a2e35"/>
            <path id="Trazado_213148" data-name="Trazado 213148" d="M53.855,136.247a15.867,15.867,0,0,1-.709-3.566,15.774,15.774,0,0,1-.29-3.624,15.814,15.814,0,0,1,.707,3.566,15.815,15.815,0,0,1,.291,3.624" transform="translate(7.254 17.726)" fill="#1a2e35"/>
            <path id="Trazado_213149" data-name="Trazado 213149" d="M56.966,135.982a11.375,11.375,0,0,1-.5-7.218c.124.017-.064,1.634.081,3.62s.54,3.562.42,3.6" transform="translate(7.704 17.685)" fill="#1a2e35"/>
            <g id="Grupo_148916" data-name="Grupo 148916" transform="translate(48.803 154.596)" opacity="0.3">
              <g id="Grupo_148915" data-name="Grupo 148915">
                <g id="Grupo_148914" data-name="Grupo 148914" clip-path="url(#clip-path-5)">
                  <path id="Trazado_213150" data-name="Trazado 213150" d="M42.909,137.375c14.929,2.642,30.061.024,45.859,1.894-15.254-3.157-31.141-4.654-45.859-1.894" transform="translate(-42.909 -135.927)"/>
                </g>
              </g>
            </g>
            <g id="Grupo_148919" data-name="Grupo 148919" transform="translate(15.593 214.066)" opacity="0.3">
              <g id="Grupo_148918" data-name="Grupo 148918">
                <g id="Grupo_148917" data-name="Grupo 148917" clip-path="url(#clip-path-6)">
                  <path id="Trazado_213151" data-name="Trazado 213151" d="M20.723,251.464c-8.4-19.666-7.4-41.9-6.265-63.248Z" transform="translate(-13.71 -188.215)"/>
                </g>
              </g>
            </g>
            <path id="Trazado_213152" data-name="Trazado 213152" d="M13.4,178.886a1.092,1.092,0,0,1,.044.248c.023.188.052.429.089.731.071.672.171,1.615.3,2.815.245,2.475.595,6.006,1.026,10.359.853,8.748,2.018,20.835,3.407,34.173s2.783,25.4,3.9,34.123c.548,4.359,1.019,7.885,1.35,10.32.158,1.2.282,2.135.371,2.8.035.3.064.544.086.731a1.132,1.132,0,0,1,.015.251,1.026,1.026,0,0,1-.058-.245c-.033-.186-.074-.425-.127-.724l-.448-2.8c-.381-2.428-.9-5.948-1.483-10.3-1.189-8.711-2.626-20.774-4.021-34.118s-2.508-25.432-3.285-34.189c-.375-4.357-.679-7.893-.893-10.371-.093-1.2-.167-2.148-.22-2.823-.019-.3-.034-.546-.047-.735a1.141,1.141,0,0,1,0-.251" transform="translate(1.84 24.57)" fill="#1a2e35"/>
            <path id="Trazado_213153" data-name="Trazado 213153" d="M77.407,169.63a3.4,3.4,0,0,1-.615.033l-1.762.011c-1.529-.006-3.742.017-6.474.081-5.465.123-13.012.523-21.295,1.5s-15.715,2.373-21.056,3.535c-2.67.579-4.827,1.077-6.312,1.441l-1.715.4a3.312,3.312,0,0,1-.605.111,3.515,3.515,0,0,1,.583-.194l1.7-.478c1.474-.414,3.622-.956,6.288-1.573a199.274,199.274,0,0,1,42.409-5.048c2.738-.025,4.953,0,6.482.053l1.762.067a3.368,3.368,0,0,1,.613.052" transform="translate(2.414 23.273)" fill="#1a2e35"/>
            <path id="Trazado_213154" data-name="Trazado 213154" d="M37.977,192.786c-.116,0,.1-8.936.489-19.947s.8-19.938.911-19.933-.1,8.933-.49,19.948-.794,19.937-.91,19.932" transform="translate(5.212 21.001)" fill="#1a2e35"/>
            <path id="Trazado_213155" data-name="Trazado 213155" d="M82.132,193.348a4.039,4.039,0,0,1-.358-.561l-.955-1.643c-.853-1.464-2.05-3.52-3.52-6.046a52.327,52.327,0,0,1-4.414-9.407,30.777,30.777,0,0,1-1.317-6.013,36.2,36.2,0,0,1-.019-6.609A35.109,35.109,0,0,1,74.7,150.756a20.332,20.332,0,0,1,3.1-4.632,17.608,17.608,0,0,1,3.73-3.114,14.212,14.212,0,0,1,6.617-2.217,9.33,9.33,0,0,1,2.565.142,23.776,23.776,0,0,0-2.552.022,14.435,14.435,0,0,0-6.472,2.305,17.585,17.585,0,0,0-3.629,3.095,20.226,20.226,0,0,0-3.016,4.571,35.214,35.214,0,0,0-3.078,12.181,36.318,36.318,0,0,0,.01,6.525,30.859,30.859,0,0,0,1.275,5.938,54.1,54.1,0,0,0,4.3,9.382c1.422,2.552,2.579,4.63,3.4,6.111q.558,1.054.888,1.683a3.959,3.959,0,0,1,.283.6" transform="translate(9.808 19.335)" fill="#1a2e35"/>
            <g id="Grupo_148922" data-name="Grupo 148922" transform="translate(21.173 193.091)" opacity="0.3">
              <g id="Grupo_148921" data-name="Grupo 148921">
                <g id="Grupo_148920" data-name="Grupo 148920" clip-path="url(#clip-path-7)">
                  <path id="Trazado_213156" data-name="Trazado 213156" d="M18.973,176.656A113.643,113.643,0,0,0,36.9,174.292a27.361,27.361,0,0,0-1,8.019,18.387,18.387,0,0,0,3.985-7.335A11.1,11.1,0,0,0,44.4,182.4a24.239,24.239,0,0,0,.4-8.171q13.379-1.612,26.58-4.4A180.234,180.234,0,0,0,18.616,176.4" transform="translate(-18.616 -169.773)"/>
                </g>
              </g>
            </g>
            <path id="Trazado_213157" data-name="Trazado 213157" d="M124.308,218.31a2.355,2.355,0,0,1-.412-.245l-1.14-.761c-.986-.666-2.4-1.646-4.142-2.867-3.483-2.444-8.255-5.874-13.459-9.755S95.3,197.2,91.965,194.564c-1.669-1.32-3.011-2.4-3.93-3.153l-1.054-.875a2.4,2.4,0,0,1-.353-.325,2.485,2.485,0,0,1,.4.267l1.1.822,4,3.062c3.375,2.589,8.047,6.151,13.249,10.031s9.948,7.339,13.391,9.836l4.075,2.961,1.1.815a2.417,2.417,0,0,1,.37.3" transform="translate(11.898 26.125)" fill="#1a2e35"/>
            <path id="Trazado_213158" data-name="Trazado 213158" d="M140.885,198.329c-.064,0-.023-1.047-.144-2.723a28.585,28.585,0,0,0-3.857-12.41c-.85-1.449-1.475-2.287-1.424-2.325a2.934,2.934,0,0,1,.488.552,18.1,18.1,0,0,1,1.154,1.641,25.4,25.4,0,0,1,3.893,12.527,17.937,17.937,0,0,1-.022,2.006,2.842,2.842,0,0,1-.089.731" transform="translate(18.605 24.842)" fill="#1a2e35"/>
            <path id="Trazado_213159" data-name="Trazado 213159" d="M144.2,196.573c-.058-.011.074-.82.175-2.134a26.638,26.638,0,0,0-1.169-10.151c-.4-1.257-.709-2.014-.654-2.038a1.782,1.782,0,0,1,.288.5,15.118,15.118,0,0,1,.608,1.454,22.309,22.309,0,0,1,1.181,10.258,14.935,14.935,0,0,1-.263,1.554,1.846,1.846,0,0,1-.166.555" transform="translate(19.579 25.032)" fill="#1a2e35"/>
            <path id="Trazado_213160" data-name="Trazado 213160" d="M175.51,189.428c-.021.006.01-.133-.16-.26a.832.832,0,0,1-.281-.3c-.082-.144-.134-.324-.234-.49-.184-.347-.645-.616-.979-1.128a7.383,7.383,0,0,1-.836-1.829,12.2,12.2,0,0,0-2.378-4.488,19.9,19.9,0,0,0-2.143-2.135,22.434,22.434,0,0,0-2.584-1.973,21.235,21.235,0,0,0-2.765-1.716l-2.744-1.343c-.877-.413-1.689-.842-2.486-1.183l-2.219-.946a9.653,9.653,0,0,1-.966-.44c-.295-.175-.539-.366-.788-.5l-.719-.382c-.226-.121-.408-.276-.574-.381-.341-.213-.643-.331-.834-.433a1,1,0,0,1-.284-.175,1.4,1.4,0,0,1,.314.108,6.771,6.771,0,0,1,.877.38,9.334,9.334,0,0,0,1.318.706c.267.138.524.325.8.482s.621.263.955.407l2.229.9c.8.328,1.632.753,2.519,1.161l2.754,1.324a21.017,21.017,0,0,1,2.808,1.732,22.158,22.158,0,0,1,2.618,2.01,19.424,19.424,0,0,1,2.166,2.188,12.133,12.133,0,0,1,2.365,4.619,7.5,7.5,0,0,0,.761,1.8c.29.486.738.77.935,1.171.1.193.141.373.207.511a.812.812,0,0,0,.233.3c.179.167.116.328.113.314" transform="translate(20.813 23.255)" fill="#1a2e35"/>
            <path id="Trazado_213161" data-name="Trazado 213161" d="M94.48,274.761c-.1,0-.181-17.532-.181-39.153s.081-39.157.181-39.157.181,17.528.181,39.157-.081,39.153-.181,39.153" transform="translate(12.952 26.982)" fill="#1a2e35"/>
          </g>
        </g>
      </g>
    </g>
  </g>
</svg>
