<svg id="Grupo_150001" data-name="Grupo 150001" xmlns="http://www.w3.org/2000/svg" xmlns:xlink="http://www.w3.org/1999/xlink" width="219.709" height="203.688" viewBox="0 0 219.709 203.688">
  <defs>
    <clipPath id="clip-path">
      <rect id="Rectángulo_45395" data-name="Rectángulo 45395" width="219.709" height="203.689" fill="none"/>
    </clipPath>
    <clipPath id="clip-path-3">
      <rect id="Rectángulo_45386" data-name="Rectángulo 45386" width="9.782" height="12.491" fill="none"/>
    </clipPath>
    <clipPath id="clip-path-4">
      <rect id="Rectángulo_45387" data-name="Rectángulo 45387" width="2.164" height="26.242" fill="none"/>
    </clipPath>
    <clipPath id="clip-path-5">
      <rect id="Rectángulo_45388" data-name="Rectángulo 45388" width="6.203" height="12.915" fill="none"/>
    </clipPath>
    <clipPath id="clip-path-6">
      <rect id="Rectángulo_45389" data-name="Rectángulo 45389" width="18.069" height="5.245" fill="none"/>
    </clipPath>
    <clipPath id="clip-path-7">
      <rect id="Rectángulo_45390" data-name="Rectángulo 45390" width="9.299" height="11.619" fill="none"/>
    </clipPath>
    <clipPath id="clip-path-8">
      <rect id="Rectángulo_45391" data-name="Rectángulo 45391" width="18.114" height="9.207" fill="none"/>
    </clipPath>
    <clipPath id="clip-path-9">
      <rect id="Rectángulo_45392" data-name="Rectángulo 45392" width="14.949" height="7.149" fill="none"/>
    </clipPath>
    <clipPath id="clip-path-10">
      <rect id="Rectángulo_45393" data-name="Rectángulo 45393" width="12.313" height="17.555" fill="none"/>
    </clipPath>
  </defs>
  <g id="Grupo_150000" data-name="Grupo 150000" clip-path="url(#clip-path)">
    <rect id="Rectángulo_45379" data-name="Rectángulo 45379" width="76.324" height="126.338" transform="translate(138.087)" fill="#e1e1e1"/>
    <rect id="Rectángulo_45380" data-name="Rectángulo 45380" width="76.324" height="126.338" transform="translate(135.549)" fill="#ececec"/>
    <rect id="Rectángulo_45381" data-name="Rectángulo 45381" width="69.824" height="121.214" transform="translate(138.799 2.562)" fill="#fafafa"/>
    <rect id="Rectángulo_45382" data-name="Rectángulo 45382" width="42.936" height="89.713" transform="translate(152.092 18.313)" fill="#ececec"/>
    <g id="Grupo_149999" data-name="Grupo 149999">
      <g id="Grupo_149998" data-name="Grupo 149998" clip-path="url(#clip-path)">
        <path id="Trazado_215777" data-name="Trazado 215777" d="M315.095,122.56c-.1-8.38,7.436-16.561,15.735-17.731,3.958-.558,8.162.227,11.859-1.289,6.6-2.706,8.7-11.475,15.342-14.077l.3,64.843H315.095Z" transform="translate(-163.003 -46.281)" fill="#e1e1e1"/>
        <rect id="Rectángulo_45383" data-name="Rectángulo 45383" width="47.934" height="49.967" transform="translate(65.308 1.311)" fill="#e1e1e1"/>
        <rect id="Rectángulo_45384" data-name="Rectángulo 45384" width="47.934" height="49.967" transform="translate(62.062 1.311)" fill="#fafafa"/>
        <path id="Trazado_215778" data-name="Trazado 215778" d="M176.509,52.683H128.546v-50h47.963Zm-47.934-.029h47.9V2.717h-47.9Z" transform="translate(-66.499 -1.39)" fill="#e1e1e1"/>
        <rect id="Rectángulo_45385" data-name="Rectángulo 45385" width="35.046" height="36.533" transform="translate(68.506 8.028)" fill="#fafafa"/>
        <path id="Trazado_215779" data-name="Trazado 215779" d="M135.07,92.822a5.705,5.705,0,0,1-.865,1.005c-.559.591-1.346,1.39-2.228,2.258s-1.692,1.643-2.29,2.192a5.6,5.6,0,0,1-1.013.843,5.569,5.569,0,0,1,.86-1c.559-.591,1.348-1.392,2.233-2.263s1.7-1.646,2.294-2.2a5.475,5.475,0,0,1,1.008-.839" transform="translate(-66.565 -48.017)" fill="#e1e1e1"/>
        <path id="Trazado_215780" data-name="Trazado 215780" d="M214.532,92.636a5.709,5.709,0,0,1,1.005.865c.591.559,1.39,1.346,2.258,2.228s1.643,1.692,2.192,2.29a5.557,5.557,0,0,1,.843,1.013,5.621,5.621,0,0,1-1-.86c-.591-.56-1.392-1.349-2.263-2.233s-1.646-1.7-2.2-2.294a5.476,5.476,0,0,1-.839-1.008" transform="translate(-110.979 -47.921)" fill="#e1e1e1"/>
        <path id="Trazado_215781" data-name="Trazado 215781" d="M214.333,10.082a5.727,5.727,0,0,1,.865-1.005c.559-.591,1.346-1.39,2.228-2.258s1.692-1.643,2.29-2.192a5.583,5.583,0,0,1,1.013-.843,5.6,5.6,0,0,1-.86,1c-.56.591-1.348,1.392-2.233,2.263s-1.7,1.646-2.294,2.2a5.473,5.473,0,0,1-1.008.839" transform="translate(-110.877 -1.956)" fill="#e1e1e1"/>
        <path id="Trazado_215782" data-name="Trazado 215782" d="M134.974,10.165a5.73,5.73,0,0,1-1.005-.865c-.591-.559-1.39-1.346-2.258-2.228s-1.643-1.692-2.192-2.29a5.583,5.583,0,0,1-.843-1.013,5.622,5.622,0,0,1,1,.86c.591.56,1.392,1.349,2.263,2.233s1.646,1.7,2.2,2.294a5.473,5.473,0,0,1,.839,1.008" transform="translate(-66.565 -1.949)" fill="#e1e1e1"/>
        <path id="Trazado_215783" data-name="Trazado 215783" d="M176.711,53s0-.062-.008-.178,0-.293-.008-.51c0-.458-.009-1.117-.015-1.972-.008-1.73-.02-4.249-.036-7.445-.016-6.4-.04-15.514-.069-26.428l.135.135-34.947.02h0l.155-.155c-.008,13.409-.016,25.953-.022,36.533l-.133-.133,25.307.068,7.108.035,1.881.015.486.007a1.68,1.68,0,0,1,.169.008,1.2,1.2,0,0,1-.154.008l-.472.007-1.855.015-7.079.035-25.391.068h-.133V53c-.006-10.579-.014-23.124-.022-36.533v-.155h.158l34.947.02h.136v.135c-.028,10.95-.052,20.095-.069,26.514-.015,3.184-.028,5.691-.036,7.415q-.01,1.266-.015,1.946c0,.211-.006.374-.008.5a1.206,1.206,0,0,1-.008.162" transform="translate(-73.255 -8.438)" fill="#e1e1e1"/>
        <path id="Trazado_215784" data-name="Trazado 215784" d="M168.041,43.342a6.265,6.265,0,0,0-10.982,1.027,7.216,7.216,0,0,0,.088,5.529,9.9,9.9,0,0,0,3.62,4.273,11.839,11.839,0,0,0,13.849-.51,7.606,7.606,0,0,0,2.81-4.611,5.74,5.74,0,0,0-8.493-5.818" transform="translate(-80.986 -20.978)" fill="#e1e1e1"/>
        <path id="Trazado_215785" data-name="Trazado 215785" d="M177.516,44.586a2.184,2.184,0,0,0-2.317-1.6l1.371,1.633a2.128,2.128,0,0,0-1.685,1.322c-.065.168-.084.4.075.486a.417.417,0,0,0,.344-.035l1.666-.692a5.733,5.733,0,0,0,.993,2.587,6.793,6.793,0,0,0,.628-2.6l1.84.816a2.749,2.749,0,0,0-.865-1.363,4.578,4.578,0,0,0,1.54-.6c.142-.088.3-.24.234-.394-.05-.118-.2-.151-.327-.164a6.071,6.071,0,0,0-3.51.729" transform="translate(-90.446 -22.231)" fill="#ececec"/>
        <path id="Trazado_215786" data-name="Trazado 215786" d="M179.647,41.7a11.983,11.983,0,0,0-.458-5.556c.438-.1.979-.164,1.263.185a1.178,1.178,0,0,1,.186.742,13.013,13.013,0,0,1-.984,5.125" transform="translate(-92.697 -18.658)" fill="#ececec"/>
        <path id="Trazado_215787" data-name="Trazado 215787" d="M159.945,52.063a1.357,1.357,0,0,1-.288-.288,5.092,5.092,0,0,1-.616-.926,5.677,5.677,0,0,1,1.123-6.791,5.05,5.05,0,0,1,.881-.678,1.363,1.363,0,0,1,.365-.181,11.762,11.762,0,0,0-1.146.96,5.778,5.778,0,0,0-1.1,6.626,11.791,11.791,0,0,0,.776,1.278" transform="translate(-81.934 -22.347)" fill="#fff"/>
        <path id="Trazado_215788" data-name="Trazado 215788" d="M164.359,63.68c-.018.051-.309-.012-.6-.222s-.447-.464-.405-.5.252.142.523.334.506.333.485.386" transform="translate(-84.5 -32.568)" fill="#fff"/>
        <path id="Trazado_215789" data-name="Trazado 215789" d="M49.051,65.008s.341.253.989.747l2.86,2.188L63.792,76.3l.374.286-.436-.18c-2.517-1.039-5.38-2.067-8.518-3.161s-6.553-2.257-10.118-3.722l.118-.067-2.731,17.8-.03.195-.14-.138L29.979,75.22l.141.012L14.786,85.89l-.243.169.06-.29c1.016-4.912,2.1-10.14,3.206-15.49l.1.136L.348,67.657,0,67.6l.3-.177,11.933-6.938,1.855-1.079-.04.181c-1.527-2.221-2.868-4.531-4.179-6.83S7.313,48.151,6.1,45.848l-.2-.374.369.208,13.945,7.846-.181.1q.352-5.115.692-10.065.151-2.475.3-4.905.062-1.215.124-2.419.022-.6.045-1.2l.012-.6,0-.3c0-.086-.019-.219-.01-.231l.144-.2.043.06,10.152,13.9-.173,0,11.008-14.4.136-.179.036.222q1.586,9.864,2.866,17.825l-.085-.067,14.592-.456.128,0-.077.1L51.874,61.329l-2.1,2.745c-.474.618-.723.934-.723.934s.228-.314.691-.931l2.068-2.752L59.867,50.64l.051.1-14.584.494-.074,0-.012-.07q-1.3-7.971-2.9-17.82l.172.043L31.533,47.806l-.088.115L31.36,47.8,21.2,33.914l.187-.137a1.009,1.009,0,0,1,.055.361l0,.3-.011.6q-.022.6-.044,1.2-.061,1.2-.123,2.422-.147,2.431-.3,4.907-.337,4.949-.687,10.068l-.013.192-.168-.095L6.149,45.9l.172-.167q1.818,3.448,3.772,6.9c1.309,2.3,2.65,4.6,4.166,6.81l.077.112-.117.068-1.855,1.079L.43,67.642.387,67.41l17.561,2.763.126.02-.024.116c-1.111,5.356-2.2,10.591-3.217,15.508l-.182-.121L29.994,75.05,30.069,75l.066.064L42.453,87.174l-.17.056c1-6.447,1.931-12.457,2.759-17.8l.016-.109.1.042c3.554,1.469,6.968,2.633,10.1,3.74s6,2.138,8.516,3.187l-.062.107L52.838,67.964l-2.831-2.2c-.637-.5-.956-.753-.956-.753" transform="translate(0 -17.119)" fill="#1a2e35"/>
        <path id="Trazado_215790" data-name="Trazado 215790" d="M55.679,73.358l.521,8.227a1.335,1.335,0,0,0,2.659.062l.914-8.269a1.048,1.048,0,0,0-1.056-1.162l-2.007.028a1.048,1.048,0,0,0-1.031,1.114" transform="translate(-28.802 -37.359)" fill="#1a2e35"/>
        <path id="Trazado_215791" data-name="Trazado 215791" d="M59.679,100.969a2.008,2.008,0,1,1-1.273-2.538,2.008,2.008,0,0,1,1.273,2.538" transform="translate(-28.848 -50.867)" fill="#1a2e35"/>
        <path id="Trazado_215792" data-name="Trazado 215792" d="M68.671,73.358l.521,8.227a1.335,1.335,0,0,0,2.659.062l.913-8.269a1.047,1.047,0,0,0-1.056-1.162l-2.007.028a1.047,1.047,0,0,0-1.031,1.114" transform="translate(-35.523 -37.359)" fill="#1a2e35"/>
        <path id="Trazado_215793" data-name="Trazado 215793" d="M72.671,100.969A2.008,2.008,0,1,1,71.4,98.431a2.008,2.008,0,0,1,1.273,2.538" transform="translate(-35.569 -50.867)" fill="#1a2e35"/>
        <path id="Trazado_215794" data-name="Trazado 215794" d="M238.7,99.646c.64-4.7,5.852-8.783,4.125-13.2-1.158-2.962-4.992-4.177-6.18-7.127-.823-2.043-.178-4.5-1.181-6.456-1.371-2.681-5.074-3.184-7.069-5.439-1.374-1.553-1.771-3.75-2.967-5.445s-4.049-2.618-5.2-.9L232.17,94.706c1.792,8.316,2.646,16.652,4.438,24.968,2.52,1.246,5.609-1.171,6.124-3.935s-.7-5.526-1.916-8.061-2.5-5.246-2.118-8.031" transform="translate(-113.924 -31.124)" fill="#1a2e35"/>
        <path id="Trazado_215795" data-name="Trazado 215795" d="M177.058,106.635,163.04,69.878l-6.058-7.9c-1.38-3.979-6.828-1.811-9.61,1.352s-2.126,12.042-1.338,16.179.419,5.2.089,9.4c-.446,5.667-4.123,11.2-2.546,16.661,1.111,3.846,4.575,6.529,6.392,10.1,2.27,4.457,1.752,9.766,2.7,14.676s4.7,10.205,9.663,9.565q-.211-2.082-.422-4.163a14.151,14.151,0,0,0,16.887-6.118c3.864-6.95,1.09-15.564-1.743-22.994" transform="translate(-74.074 -30.947)" fill="#1a2e35"/>
        <path id="Trazado_215796" data-name="Trazado 215796" d="M161.245,76.305a20.23,20.23,0,0,1,15.92-22.346l1.025-.215c11.192-1.672,18.863,6.9,20.225,18.132L208.732,131.7H182.46l-4.02-19.791s-10.975.576-13.334-10.023c-1.139-5.119-2.627-15.851-3.861-25.579" transform="translate(-83.33 -27.694)" fill="#ffc19d"/>
        <path id="Trazado_215797" data-name="Trazado 215797" d="M196.855,166.979a26.337,26.337,0,0,0,13.07-6.995s-1.672,8.335-12.475,9.6Z" transform="translate(-101.836 -82.762)" fill="#ff9c6a"/>
        <path id="Trazado_215798" data-name="Trazado 215798" d="M171.369,116.714a1.55,1.55,0,0,0,1.784,1.224,1.483,1.483,0,0,0,1.278-1.7,1.551,1.551,0,0,0-1.783-1.226,1.484,1.484,0,0,0-1.279,1.7" transform="translate(-88.641 -59.49)" fill="#1a2e35"/>
        <path id="Trazado_215799" data-name="Trazado 215799" d="M168.364,108.015c.229.158,1.2-.934,2.835-1.271,1.627-.362,3,.228,3.137-.01.069-.107-.2-.424-.8-.694a4.251,4.251,0,0,0-2.563-.237,4.085,4.085,0,0,0-2.2,1.259c-.421.49-.516.884-.4.953" transform="translate(-87.075 -54.684)" fill="#1a2e35"/>
        <path id="Trazado_215800" data-name="Trazado 215800" d="M201.829,110.154a1.55,1.55,0,0,0,1.784,1.224,1.483,1.483,0,0,0,1.278-1.7,1.552,1.552,0,0,0-1.783-1.226,1.484,1.484,0,0,0-1.279,1.7" transform="translate(-104.399 -56.097)" fill="#1a2e35"/>
        <path id="Trazado_215801" data-name="Trazado 215801" d="M201.751,101.674c.23.158,1.2-.933,2.836-1.271,1.627-.361,3,.228,3.137-.009.068-.107-.2-.424-.8-.694a4.248,4.248,0,0,0-2.563-.237,4.085,4.085,0,0,0-2.2,1.259c-.42.49-.516.884-.405.953" transform="translate(-104.347 -51.404)" fill="#1a2e35"/>
        <path id="Trazado_215802" data-name="Trazado 215802" d="M190.014,117.062a11.015,11.015,0,0,0-2.753.077c-.426.045-.838.044-.968-.225a2.172,2.172,0,0,1,.019-1.295q.271-1.636.567-3.434c.765-4.88,1.225-8.857,1.029-8.886s-.976,3.9-1.741,8.783c-.179,1.2-.35,2.346-.512,3.442a2.467,2.467,0,0,0,.126,1.682,1.069,1.069,0,0,0,.814.466,2.89,2.89,0,0,0,.729-.05,10.9,10.9,0,0,0,2.689-.56" transform="translate(-95.997 -53.438)" fill="#1a2e35"/>
        <path id="Trazado_215803" data-name="Trazado 215803" d="M199.075,93.331c.371.308,1.7-.719,3.509-1.5,1.793-.822,3.445-1.125,3.464-1.607,0-.227-.452-.456-1.225-.513a6.636,6.636,0,0,0-5.311,2.37c-.474.613-.606,1.1-.436,1.253" transform="translate(-102.948 -46.401)" fill="#1a2e35"/>
        <path id="Trazado_215804" data-name="Trazado 215804" d="M168.745,99.117c.2.435,1.409.309,2.76.6,1.361.245,2.43.821,2.782.495.158-.161.064-.572-.354-1.037a4.092,4.092,0,0,0-4.466-.883c-.563.27-.807.614-.722.823" transform="translate(-87.286 -50.684)" fill="#1a2e35"/>
        <path id="Trazado_215805" data-name="Trazado 215805" d="M229.7,67.373s-.472-2.364-3.9-4.5l-6.438,1.419c2.229.684,1.868,3.574,1.557,4.252a9.991,9.991,0,0,0,5.36,10.8l1.031,6.543c.089,1.7.985,2.9,2.657,2.563h0s.874-5.252.912-7.335c.074-4.04.094-9.913-1.177-13.748" transform="translate(-113.477 -32.527)" fill="#1a2e35"/>
        <path id="Trazado_215806" data-name="Trazado 215806" d="M238.517,107.484c.165-.116,6.849-3.691,8.14,3.623s-6.318,7.1-6.368,6.894-1.772-10.517-1.772-10.517" transform="translate(-123.389 -55.099)" fill="#ffc19d"/>
        <path id="Trazado_215807" data-name="Trazado 215807" d="M244.041,117.553c.028-.029.143.067.376.127a1.294,1.294,0,0,0,.956-.149,3.2,3.2,0,0,0,.96-3.086,4.28,4.28,0,0,0-.679-1.761,1.494,1.494,0,0,0-1.131-.808.659.659,0,0,0-.69.482c-.062.222.01.36-.026.379-.017.022-.179-.095-.173-.407a.825.825,0,0,1,.207-.509.975.975,0,0,1,.671-.31,1.818,1.818,0,0,1,1.531.9,4.389,4.389,0,0,1,.8,1.961c.213,1.482-.3,2.994-1.3,3.486a1.386,1.386,0,0,1-1.2.012c-.259-.141-.326-.3-.3-.315" transform="translate(-126.035 -57.683)" fill="#ff9c6a"/>
        <path id="Trazado_215808" data-name="Trazado 215808" d="M218.261,65.292l-.012,0c-.048.008-.094.021-.144.025Z" transform="translate(-112.829 -33.774)" fill="#1a2e35"/>
        <path id="Trazado_215809" data-name="Trazado 215809" d="M193.207,61.228c-.573-1.788-.281-3.77-1.173-5.422a9.492,9.492,0,0,0-4.523-4.243,12.61,12.61,0,0,0-3.787-.7s0,.085-.037-.086c-.611-3.052-6.874-6.521-8.793-7-6.113-1.518-8.523,1.479-14.456,3.593s-11.79,6.4-12.618,12.642a4.483,4.483,0,0,0,2.916.557,22.382,22.382,0,0,0-1.323,12.213A44.9,44.9,0,0,0,153.8,85.6c-1.123-2.165-.7-4.808.112-7.11s1.973-4.513,2.29-6.931c.47-3.592-.16-6.327,1-9.758,1.206-3.553,5.512-4.581,5.512-4.581,2.643.043,4.85-1.964,6.956-3.562a8.966,8.966,0,0,1,6.564-1.443c2.274.3,2.6.99,4.72,1.858a6.942,6.942,0,0,1,2.067,2.868,9.586,9.586,0,0,1-.058,2.752c-1.087,3.959,1.337,8.209,4.724,10.53s7.551,3.14,11.584,3.908a55.447,55.447,0,0,1-6.064-12.9" transform="translate(-76.47 -22.433)" fill="#1a2e35"/>
        <path id="Trazado_215810" data-name="Trazado 215810" d="M241.721,132.408l-4.558-17.15a22.59,22.59,0,0,0-1.621-4.684,35.507,35.507,0,0,1-1.779-3.255,12.452,12.452,0,0,1-.59-4.953,20.9,20.9,0,0,0-.182-5.006,5.754,5.754,0,0,0-2.742-4.012l-5.078-.329c2.126,2.368,2.3,5.882,2.006,9.05s-.924,6.431-.009,9.478c1.175,3.911,4.746,6.88,5.41,10.909.35,2.123-.159,4.279-.448,6.411s-.315,4.453.86,6.256a2.936,2.936,0,0,0,1.834,1.387,4.013,4.013,0,0,0,2-.339l3.609-1.274a1.669,1.669,0,0,0,1.288-2.489" transform="translate(-116.485 -48.12)" fill="#1a2e35"/>
        <path id="Trazado_215811" data-name="Trazado 215811" d="M165.69,137.962s-.094.015-.28.031a2.4,2.4,0,0,1-.818-.123,3.54,3.54,0,0,1-2.139-2.243,4.7,4.7,0,0,1-.116-2.293,9.079,9.079,0,0,1,.936-2.571c.453-.873,1.03-1.75,1.566-2.717a9.036,9.036,0,0,0,1.171-3.256,10.773,10.773,0,0,0-2.242-7.472c-1.688-2.35-4.14-4.284-6.623-6.382a32.181,32.181,0,0,1-3.61-3.482,13.992,13.992,0,0,1-2.7-4.479,13.018,13.018,0,0,1-.571-5.386,31.828,31.828,0,0,1,1.116-5.468c.5-1.814,1.028-3.594,1.4-5.38a19.01,19.01,0,0,0,.435-5.335c-.3-3.523-1.64-6.728-2.313-9.924a15.866,15.866,0,0,1-.4-4.757,11.735,11.735,0,0,1,1.212-4.335,15.986,15.986,0,0,1,2.345-3.492,16.265,16.265,0,0,1,2.867-2.613,9.283,9.283,0,0,1,6.273-1.915,5.793,5.793,0,0,1,2.562.946,6.3,6.3,0,0,1,1.658,1.59,4.971,4.971,0,0,1,.8,1.653,4.8,4.8,0,0,1,.14.725c.011.225.014.43.012.612l-.059.478a3.185,3.185,0,0,1-.086.336c-.051.18-.084.269-.084.269s.016-.095.059-.275c.018-.091.056-.2.073-.336l.046-.474c0-.18-.01-.382-.024-.6a4.832,4.832,0,0,0-.149-.711,4.935,4.935,0,0,0-.8-1.616,6.232,6.232,0,0,0-1.645-1.547,5.679,5.679,0,0,0-2.511-.906,9.152,9.152,0,0,0-6.156,1.92,16.174,16.174,0,0,0-2.824,2.6,15.844,15.844,0,0,0-2.3,3.456,11.537,11.537,0,0,0-1.178,4.262,15.666,15.666,0,0,0,.4,4.691c.671,3.17,2.021,6.377,2.332,9.954a19.238,19.238,0,0,1-.435,5.4c-.373,1.8-.906,3.585-1.4,5.4a31.638,31.638,0,0,0-1.11,5.425,12.788,12.788,0,0,0,.555,5.282,13.77,13.77,0,0,0,2.653,4.4,32.093,32.093,0,0,0,3.578,3.462c2.473,2.1,4.938,4.049,6.643,6.436a10.939,10.939,0,0,1,2.248,7.617,8.116,8.116,0,0,1-.458,1.761,12.379,12.379,0,0,1-.749,1.55c-.546.971-1.127,1.842-1.581,2.7a8.977,8.977,0,0,0-.943,2.527,4.6,4.6,0,0,0,.091,2.24,3.5,3.5,0,0,0,2.063,2.226,2.718,2.718,0,0,0,1.082.14" transform="translate(-77.697 -28.103)" fill="#375a64"/>
        <path id="Trazado_215812" data-name="Trazado 215812" d="M190.048,46.651a1.2,1.2,0,0,1,.433.005,3.934,3.934,0,0,1,1.138.322,4.563,4.563,0,0,1,1.439,1.013,4.251,4.251,0,0,1,1.1,4.027,4.562,4.562,0,0,1-.721,1.605,3.928,3.928,0,0,1-.814.858,1.184,1.184,0,0,1-.37.225,7.465,7.465,0,0,0,1.037-1.183,4.343,4.343,0,0,0-1.752-6.384,7.423,7.423,0,0,0-1.5-.488" transform="translate(-98.315 -24.126)" fill="#375a64"/>
        <path id="Trazado_215813" data-name="Trazado 215813" d="M208.11,49a2.019,2.019,0,0,1,.428.826,4.544,4.544,0,0,1-.85,4.27,2.009,2.009,0,0,1-.712.6c-.028-.034.242-.262.573-.709a4.983,4.983,0,0,0,.819-4.111c-.134-.539-.3-.853-.257-.874" transform="translate(-107.071 -25.351)" fill="#375a64"/>
        <path id="Trazado_215814" data-name="Trazado 215814" d="M235.443,119.813c-.007-.021.254-.066.689-.3a3.871,3.871,0,0,0,1.482-1.5,5.388,5.388,0,0,0,.654-3.258,10.256,10.256,0,0,0-1.651-4.14,51.262,51.262,0,0,1-2.912-4.658,8.3,8.3,0,0,1-.849-2.959,8.969,8.969,0,0,1,.375-3.241,45.312,45.312,0,0,1,2.851-6.356,15.831,15.831,0,0,0,1.157-3.455,7.4,7.4,0,0,0-.12-3.685,6.13,6.13,0,0,0-2.15-2.961,17.832,17.832,0,0,0-3.139-1.861A30.272,30.272,0,0,1,228.7,79.73a8.476,8.476,0,0,1-2.454-2.4,10.643,10.643,0,0,1-1.3-2.993,26.11,26.11,0,0,1-.612-3.007,28.713,28.713,0,0,0-1.11-5.347,7.419,7.419,0,0,0-2.5-3.637,5.814,5.814,0,0,0-3.142-1.116,3.939,3.939,0,0,0-2.056.481,2.879,2.879,0,0,0-.464.308,1.144,1.144,0,0,1-.158.11,1.083,1.083,0,0,1,.141-.13,2.493,2.493,0,0,1,.455-.333,3.907,3.907,0,0,1,2.084-.534,5.867,5.867,0,0,1,3.221,1.1,7.538,7.538,0,0,1,2.583,3.691A28.531,28.531,0,0,1,224.54,71.3a15,15,0,0,0,1.9,5.905,8.242,8.242,0,0,0,2.393,2.323,30.36,30.36,0,0,0,3.108,1.688,18.008,18.008,0,0,1,3.184,1.884,6.381,6.381,0,0,1,2.234,3.081,7.641,7.641,0,0,1,.126,3.809,16.037,16.037,0,0,1-1.177,3.509,45.676,45.676,0,0,0-2.853,6.319,8.759,8.759,0,0,0-.377,3.159,8.094,8.094,0,0,0,.816,2.886,52.4,52.4,0,0,0,2.875,4.655,10.341,10.341,0,0,1,1.639,4.217,5.459,5.459,0,0,1-.709,3.324,3.847,3.847,0,0,1-1.543,1.5,2.935,2.935,0,0,1-.527.2,1.051,1.051,0,0,1-.186.047" transform="translate(-111.175 -31.627)" fill="#375a64"/>
        <path id="Trazado_215815" data-name="Trazado 215815" d="M232.945,119.3a1.63,1.63,0,0,1-.629-.124,2.739,2.739,0,0,1-1.353-1.224,3.743,3.743,0,0,1-.46-1.257,6.352,6.352,0,0,1-.042-1.589c.046-.569.149-1.168.245-1.8a17.669,17.669,0,0,0,.185-2.013,16.583,16.583,0,0,0-2.654-9.429,18.944,18.944,0,0,0-1.77-2.264,18.184,18.184,0,0,1-1.888-2.376,4.949,4.949,0,0,1-.83-3.036,12.127,12.127,0,0,1,.889-3.118,10.034,10.034,0,0,0,.442-1.536,5.564,5.564,0,0,0,.056-1.557,9.612,9.612,0,0,0-.912-2.934c-.429-.925-.91-1.812-1.317-2.717a11.558,11.558,0,0,1-.9-2.771,29.757,29.757,0,0,1-.318-5.352,21.452,21.452,0,0,0-.4-4.614,8.11,8.11,0,0,0-1.574-3.429,6.238,6.238,0,0,0-2.241-1.76,4.719,4.719,0,0,0-1.757-.424c-.417-.017-.636.022-.638,0a2.768,2.768,0,0,1,.639-.055,4.593,4.593,0,0,1,1.8.385,6.261,6.261,0,0,1,2.31,1.761,8.2,8.2,0,0,1,1.638,3.479A21.343,21.343,0,0,1,221.9,74.2a29.9,29.9,0,0,0,.336,5.311,21.736,21.736,0,0,0,2.213,5.428,9.815,9.815,0,0,1,.937,3.011,5.817,5.817,0,0,1-.057,1.628,10.226,10.226,0,0,1-.453,1.576A12.015,12.015,0,0,0,224,94.206a4.708,4.708,0,0,0,.79,2.887,18.061,18.061,0,0,0,1.859,2.347,19.02,19.02,0,0,1,1.783,2.3,16.66,16.66,0,0,1,2.638,9.561,17.573,17.573,0,0,1-.2,2.032c-.1.635-.21,1.229-.263,1.789a6.278,6.278,0,0,0,.021,1.557,3.671,3.671,0,0,0,.427,1.227,2.735,2.735,0,0,0,1.287,1.226,3.529,3.529,0,0,0,.611.171" transform="translate(-111.265 -33.068)" fill="#375a64"/>
        <path id="Trazado_215816" data-name="Trazado 215816" d="M200.7,140.394a3,3,0,0,0-3.266-1.763c-1.015.2-1.865.936-2.882,1.131l-.083.512,1.1,3.3a1.243,1.243,0,0,0,1.713,1.038,5.835,5.835,0,0,0,2.283-.682,3,3,0,0,0,1.137-3.534" transform="translate(-100.601 -71.689)" fill="#ff9c6a"/>
        <path id="Trazado_215817" data-name="Trazado 215817" d="M196.216,144.625c-.008-.034.187-.11.542-.223a15.1,15.1,0,0,0,1.466-.521,4.22,4.22,0,0,0,1.758-1.321,2.581,2.581,0,0,0,.494-1.146,2.2,2.2,0,0,0-.219-1.292,2.59,2.59,0,0,0-2.068-1.416,3.67,3.67,0,0,0-2.135.452,4.926,4.926,0,0,1-1.511.546c-.39.043-.6-.039-.594-.066s.212-.029.556-.126a6.4,6.4,0,0,0,1.386-.67,3.856,3.856,0,0,1,2.345-.6,3.161,3.161,0,0,1,1.4.464,2.961,2.961,0,0,1,1.067,1.19,2.641,2.641,0,0,1,.254,1.588,2.975,2.975,0,0,1-.612,1.353,4.336,4.336,0,0,1-2,1.37,8.424,8.424,0,0,1-1.553.381c-.371.055-.579.066-.586.032" transform="translate(-100.333 -71.508)" fill="#1a2e35"/>
        <path id="Trazado_215818" data-name="Trazado 215818" d="M184.734,182.727c.2.548,5.22,13.874,14.946,12.225s12.807-18.3,12.807-18.3l14.831,12.364L216.66,294.905H180.67l-7.2-68.485Z" transform="translate(-89.738 -91.386)" fill="#375a64"/>
        <path id="Trazado_215819" data-name="Trazado 215819" d="M132,192.2s-17.312,3.738-19.8,6.787c-2,2.447-16.367,27.326-16.367,27.326l-6.509,15.1s-4.847,2.77-5.678,6.093-.277,11.634,2.077,14.542c0,0,1.523,9.971,7.756,10.387a22.237,22.237,0,0,0,16.065-5.955c3.654-3.256,9.874-25.458,9.556-26.59Z" transform="translate(-43.082 -99.429)" fill="#f37409"/>
        <path id="Trazado_215820" data-name="Trazado 215820" d="M157.329,187.465l-1.109,41.564V294.86h19.662l.99-63.619s4.333-35.866,3.779-39.051-4.371-15.624-4.371-15.624l-6.55,7.547Z" transform="translate(-80.815 -91.34)" fill="#f37409"/>
        <g id="Grupo_149976" data-name="Grupo 149976" transform="translate(60.21 143.173)" opacity="0.3">
          <g id="Grupo_149975" data-name="Grupo 149975">
            <g id="Grupo_149974" data-name="Grupo 149974" clip-path="url(#clip-path-3)">
              <path id="Trazado_215821" data-name="Trazado 215821" d="M133.489,301.089a11.671,11.671,0,0,0-6.873-4.4c-.666-.141-1.542-.12-1.809.506a1.432,1.432,0,0,0,.463,1.428l.851,1.025a15.422,15.422,0,0,1,4.693,9.461,8.328,8.328,0,0,0-3.063-9.21c2.685.54,4.732,2.651,6.6,4.656a3.689,3.689,0,0,0-.859-3.469" transform="translate(-124.74 -296.619)"/>
            </g>
          </g>
        </g>
        <g id="Grupo_149979" data-name="Grupo 149979" transform="translate(73.739 116.357)" opacity="0.3">
          <g id="Grupo_149978" data-name="Grupo 149978">
            <g id="Grupo_149977" data-name="Grupo 149977" clip-path="url(#clip-path-4)">
              <path id="Trazado_215822" data-name="Trazado 215822" d="M154.521,241.063a46.782,46.782,0,0,0,.253,26.242c-.02-8.45.5-17.826-.253-26.242" transform="translate(-152.768 -241.063)"/>
            </g>
          </g>
        </g>
        <path id="Trazado_215823" data-name="Trazado 215823" d="M138.078,308.607c-.039.022-.326-.487-.9-1.229a12.936,12.936,0,0,0-5.8-4.267c-.878-.323-1.449-.447-1.44-.489a1.317,1.317,0,0,1,.41.045,8.119,8.119,0,0,1,1.088.276,11.548,11.548,0,0,1,5.885,4.33,8.175,8.175,0,0,1,.587.957,1.331,1.331,0,0,1,.165.378" transform="translate(-67.221 -156.547)" fill="#1a2e35"/>
        <path id="Trazado_215824" data-name="Trazado 215824" d="M159.51,206.129a.852.852,0,0,1-.227.073l-.66.162-2.432.575-8.019,1.912c-3.134.744-5.975,1.4-8.04,1.841-1.032.222-1.869.39-2.45.5l-.67.116a.848.848,0,0,1-.237.024.875.875,0,0,1,.227-.073l.66-.162,2.431-.575,8.021-1.913c3.133-.743,5.973-1.4,8.038-1.841,1.032-.222,1.87-.39,2.45-.5l.67-.116a.849.849,0,0,1,.237-.024" transform="translate(-70.756 -106.632)" fill="#fff"/>
        <path id="Trazado_215825" data-name="Trazado 215825" d="M191.048,183.8a11.579,11.579,0,0,1-1.069,1.023c-.667.621-1.564,1.5-2.483,2.544s-1.684,2.042-2.217,2.78a11.69,11.69,0,0,1-.882,1.187,6.89,6.89,0,0,1,.736-1.288,25.36,25.36,0,0,1,4.729-5.356,6.9,6.9,0,0,1,1.187-.89" transform="translate(-95.39 -95.08)" fill="#fff"/>
        <path id="Trazado_215826" data-name="Trazado 215826" d="M196.021,200.565a15.6,15.6,0,0,1-1.269,1.147c-.79.7-1.857,1.689-2.964,2.854s-2.04,2.284-2.7,3.108A15.308,15.308,0,0,1,188.012,209a1.66,1.66,0,0,1,.226-.4c.158-.251.4-.6.712-1.032a33.015,33.015,0,0,1,5.686-5.99c.411-.334.752-.594.994-.765a1.658,1.658,0,0,1,.39-.246" transform="translate(-97.261 -103.755)" fill="#fff"/>
        <path id="Trazado_215827" data-name="Trazado 215827" d="M178.939,246.544c0,.07-4.974.407-11.117.754s-11.128.572-11.132.5,4.973-.407,11.118-.754,11.127-.572,11.131-.5" transform="translate(-81.059 -127.534)" fill="#fff"/>
        <path id="Trazado_215828" data-name="Trazado 215828" d="M176.462,288.588a4.337,4.337,0,0,1-.747.122c-.483.064-1.184.139-2.051.218-1.734.158-4.138.308-6.8.346s-5.066-.05-6.8-.161c-.869-.055-1.572-.111-2.056-.162a4.353,4.353,0,0,1-.751-.1,4.348,4.348,0,0,1,.757,0l2.058.082c1.738.066,4.139.122,6.792.087s5.051-.159,6.786-.272l2.055-.138a4.322,4.322,0,0,1,.757-.025" transform="translate(-81.352 -149.287)" fill="#fff"/>
        <path id="Trazado_215829" data-name="Trazado 215829" d="M176.285,336.946a4.8,4.8,0,0,1-.8.032l-2.168.018c-1.83.02-4.357.086-7.142.266s-5.3.444-7.118.662l-2.152.264a4.8,4.8,0,0,1-.793.071,4.845,4.845,0,0,1,.779-.168c.5-.094,1.236-.212,2.143-.343,1.814-.263,4.332-.554,7.124-.737s5.326-.219,7.159-.194c.916.013,1.658.035,2.17.062a4.819,4.819,0,0,1,.794.066" transform="translate(-80.762 -174.237)" fill="#fff"/>
        <path id="Trazado_215830" data-name="Trazado 215830" d="M176.079,398.633a5.02,5.02,0,0,1-.764.263c-.248.08-.554.17-.914.253s-.766.2-1.226.277a26.616,26.616,0,0,1-3.241.44,27.4,27.4,0,0,1-7.973-.583,26.719,26.719,0,0,1-3.144-.907c-.443-.145-.829-.315-1.172-.452s-.634-.268-.867-.383a5,5,0,0,1-.718-.371,4.943,4.943,0,0,1,.757.281c.239.1.532.221.88.342s.734.281,1.178.415a29.921,29.921,0,0,0,3.135.849,29.113,29.113,0,0,0,7.908.578,29.793,29.793,0,0,0,3.225-.384c.459-.067.865-.167,1.226-.239s.669-.145.92-.21a5.015,5.015,0,0,1,.79-.168" transform="translate(-80.732 -205.462)" fill="#fff"/>
        <path id="Trazado_215831" data-name="Trazado 215831" d="M108.106,318.531a2.028,2.028,0,0,1,.059.365c.013.121.038.269.048.447s.01.387.015.614a9.76,9.76,0,0,1-.852,3.8,11,11,0,0,1-3.649,4.459A11.8,11.8,0,0,1,97,330.284a13.761,13.761,0,0,1-6.828-1.781,16.242,16.242,0,0,1-4.428-3.718,18.1,18.1,0,0,1-2.157-3.251c-.208-.412-.362-.735-.452-.96a2.1,2.1,0,0,1-.134-.345,2.012,2.012,0,0,1,.18.323c.106.218.273.532.493.935a19.552,19.552,0,0,0,2.206,3.183,16.391,16.391,0,0,0,4.4,3.631A13.672,13.672,0,0,0,97,330.032a11.667,11.667,0,0,0,6.594-2,10.953,10.953,0,0,0,3.62-4.343,10.051,10.051,0,0,0,.917-3.731q0-.337.008-.608c0-.176-.019-.324-.023-.445a2.048,2.048,0,0,1-.009-.37" transform="translate(-42.938 -164.781)" fill="#fff"/>
        <path id="Trazado_215832" data-name="Trazado 215832" d="M109.794,353.2a2.719,2.719,0,0,1-.537.262,6.98,6.98,0,0,1-.653.256c-.259.089-.55.2-.883.289a16.765,16.765,0,0,1-2.365.513,17.44,17.44,0,0,1-5.906-.172,16.721,16.721,0,0,1-2.331-.649c-.328-.106-.612-.237-.864-.34a6.962,6.962,0,0,1-.637-.293,2.734,2.734,0,0,1-.521-.292c.021-.043.782.335,2.08.757a18.9,18.9,0,0,0,2.318.59,18.642,18.642,0,0,0,5.831.169,19.06,19.06,0,0,0,2.348-.454c1.32-.347,2.1-.681,2.12-.636" transform="translate(-49.195 -182.492)" fill="#fff"/>
        <path id="Trazado_215833" data-name="Trazado 215833" d="M139.017,316.7c-.049,0-.076-.81-.33-2.088a16.508,16.508,0,0,0-.605-2.2,16.291,16.291,0,0,0-2.713-4.857,16.412,16.412,0,0,0-1.557-1.669c-.954-.886-1.632-1.336-1.6-1.376a2.49,2.49,0,0,1,.49.292,5.973,5.973,0,0,1,.545.39c.2.162.447.336.688.561a14.641,14.641,0,0,1,1.617,1.655,15.289,15.289,0,0,1,2.753,4.928,14.664,14.664,0,0,1,.561,2.243c.065.323.087.621.117.88a6.025,6.025,0,0,1,.046.669,2.5,2.5,0,0,1-.009.571" transform="translate(-68.393 -157.53)" fill="#fff"/>
        <path id="Trazado_215834" data-name="Trazado 215834" d="M149.484,283.672a11.009,11.009,0,0,0-5.962-2.89,2.826,2.826,0,0,1,1,.04,8.142,8.142,0,0,1,4.309,2.089,2.85,2.85,0,0,1,.651.762" transform="translate(-74.246 -145.24)" fill="#fff"/>
        <path id="Trazado_215835" data-name="Trazado 215835" d="M140.105,244.751a3.4,3.4,0,0,1-.6-.3l-1.585-.883c-1.338-.746-3.194-1.761-5.274-2.827s-3.989-1.978-5.376-2.628l-1.643-.771a3.376,3.376,0,0,1-.591-.309,3.438,3.438,0,0,1,.63.219c.4.155.973.394,1.677.7,1.408.609,3.333,1.5,5.418,2.566s3.93,2.109,5.247,2.9c.659.393,1.187.719,1.547.953a3.355,3.355,0,0,1,.546.383" transform="translate(-64.685 -122.621)" fill="#fff"/>
        <path id="Trazado_215836" data-name="Trazado 215836" d="M131.3,313.9c-.049,0,.038-.789-.034-2.052a15.751,15.751,0,0,0-.287-2.2A15.544,15.544,0,0,0,129,304.631a15.742,15.742,0,0,0-1.288-1.8c-.808-.972-1.407-1.488-1.374-1.524a2.322,2.322,0,0,1,.438.34,5.827,5.827,0,0,1,.477.442c.178.181.39.379.594.626a13.963,13.963,0,0,1,1.35,1.8,14.619,14.619,0,0,1,2.009,5.1,14.013,14.013,0,0,1,.237,2.234c.019.32,0,.609-.008.863a5.743,5.743,0,0,1-.048.649,2.329,2.329,0,0,1-.088.548" transform="translate(-65.358 -155.869)" fill="#1a2e35"/>
        <path id="Trazado_215837" data-name="Trazado 215837" d="M112.786,333.825a.814.814,0,0,1-.146.181c-.1.111-.25.284-.46.482a14.72,14.72,0,0,1-1.891,1.564,16.055,16.055,0,0,1-15.48,1.673,14.671,14.671,0,0,1-2.181-1.125c-.249-.148-.428-.286-.553-.372a.814.814,0,0,1-.181-.146,7.844,7.844,0,0,1,.784.434,17.524,17.524,0,0,0,2.2,1.044,16.409,16.409,0,0,0,15.313-1.655,17.542,17.542,0,0,0,1.924-1.489,7.889,7.889,0,0,1,.673-.592" transform="translate(-47.538 -172.693)" fill="#1a2e35"/>
        <path id="Trazado_215838" data-name="Trazado 215838" d="M156.063,240.845a.486.486,0,0,1,.017.124l.024.365q.024.512.067,1.406c.057,1.22.111,2.988.167,5.172.1,4.368.131,10.406.02,17.071s-.23,12.7-.262,17.068c-.014,2.169-.025,3.931-.032,5.173-.006.6-.011,1.065-.014,1.407,0,.148-.007.269-.01.366a.471.471,0,0,1-.012.125.457.457,0,0,1-.014-.125c0-.1-.009-.217-.015-.365-.008-.341-.019-.811-.033-1.406-.027-1.221-.042-2.989-.047-5.174-.014-4.369.079-10.406.188-17.072s.112-12.7.053-17.064c-.037-2.168-.067-3.93-.088-5.172-.008-.6-.014-1.065-.019-1.407,0-.149,0-.269,0-.366a.475.475,0,0,1,.009-.125" transform="translate(-80.658 -124.593)" fill="#1a2e35"/>
        <g id="Grupo_149982" data-name="Grupo 149982" transform="translate(92.839 101.19)" opacity="0.3">
          <g id="Grupo_149981" data-name="Grupo 149981">
            <g id="Grupo_149980" data-name="Grupo 149980" clip-path="url(#clip-path-5)">
              <path id="Trazado_215839" data-name="Trazado 215839" d="M192.339,219.195l1,2.665c.128.343.374.757.734.689.224-.043.363-.263.473-.463a38.84,38.84,0,0,0,3.889-10.475,2.728,2.728,0,0,0,.069-1.182.974.974,0,0,0-.794-.785c-.568-.045-1.385,1.184-1.633,1.7-1.465,3.03-2.382,4.773-3.735,7.854" transform="translate(-192.339 -209.641)"/>
            </g>
          </g>
        </g>
        <path id="Trazado_215840" data-name="Trazado 215840" d="M193.678,199.85a2.859,2.859,0,0,0-1,.362,5.371,5.371,0,0,0-1.772,2.314l-4.232,9.207-.163.355-.07-.386c-.188-1.032-.383-2.1-.583-3.2-.844-4.735-1.608-9.019-2.167-12.154l-.628-3.688c-.066-.417-.118-.751-.158-1a1.847,1.847,0,0,1-.039-.353,1.887,1.887,0,0,1,.088.345l.2,1,.707,3.674c.578,3.131,1.367,7.411,2.239,12.14.2,1.1.392,2.17.579,3.2l-.234-.03c1.71-3.666,3.212-6.88,4.311-9.173a5.3,5.3,0,0,1,1.871-2.318,2.363,2.363,0,0,1,.763-.274,1.278,1.278,0,0,1,.28-.013" transform="translate(-94.599 -98.963)" fill="#1a2e35"/>
        <g id="Grupo_149985" data-name="Grupo 149985" transform="translate(44.82 163.171)" opacity="0.3">
          <g id="Grupo_149984" data-name="Grupo 149984">
            <g id="Grupo_149983" data-name="Grupo 149983" clip-path="url(#clip-path-6)">
              <path id="Trazado_215841" data-name="Trazado 215841" d="M101.643,340.986a17.669,17.669,0,0,1-8.788-2.116,8.185,8.185,0,0,0,5.126,4.084,10.952,10.952,0,0,0,7.122-.615,17.142,17.142,0,0,0,5.821-4.289,17.664,17.664,0,0,1-9.282,2.936" transform="translate(-92.855 -338.05)"/>
            </g>
          </g>
        </g>
        <path id="Trazado_215842" data-name="Trazado 215842" d="M252.96,251.575l2.177,38.995,29.594-.169s-3.8-43.149-3.8-43.565c0-.257,1.8-48.464,1.8-48.464-.494-10.027,1.087-19.067-.509-19.608-3.145-1.066-17.719-.42-17.719-.42l-10.8-10.4-1.079,2.483,1.8,9.289-.418,26.711c-.037-.436-1.05,45.145-1.05,45.145" transform="translate(-130.689 -86.881)" fill="#f37409"/>
        <path id="Trazado_215843" data-name="Trazado 215843" d="M306.472,189.989s6.8,2.09,10.756,13.544c2.37,6.854,8.265,40.953,8.265,40.953l18.035,6.9s-5.194,17.3-11.874,19.337l-11.133-5.4s-7.72.984-10.391-2.8a43.669,43.669,0,0,1-4.44-8.476L300.748,214.6Z" transform="translate(-155.582 -98.284)" fill="#f37409"/>
        <g id="Grupo_149988" data-name="Grupo 149988" transform="translate(125.077 99.935)" opacity="0.3">
          <g id="Grupo_149987" data-name="Grupo 149987">
            <g id="Grupo_149986" data-name="Grupo 149986" clip-path="url(#clip-path-7)">
              <path id="Trazado_215844" data-name="Trazado 215844" d="M268.075,214.615a15.855,15.855,0,0,1,.084-7.575,15.5,15.5,0,0,0-1.32,9.709,9.493,9.493,0,0,1-3.969-6.275,3.226,3.226,0,0,0-.665-1.91c-.385-.371-1.112-.646-1.488-.267a2.633,2.633,0,0,0-.816,1.272,8.341,8.341,0,0,0-.477,5.6A2.713,2.713,0,0,0,261,217.084a12.406,12.406,0,0,0,2.03.032,5.7,5.7,0,0,1,2.123,1.014,2.509,2.509,0,0,0,2.245.393,2.012,2.012,0,0,0,1.028-1.78,7.866,7.866,0,0,0-.349-2.128" transform="translate(-259.128 -207.04)"/>
            </g>
          </g>
        </g>
        <path id="Trazado_215845" data-name="Trazado 215845" d="M259.938,200.3a1.092,1.092,0,0,1,.071-.263,4.576,4.576,0,0,1,.312-.722,2.525,2.525,0,0,1,.826-.951,1.236,1.236,0,0,1,1.594.252,3.95,3.95,0,0,1,.691,1.93,9.451,9.451,0,0,0,3.924,6.4l-.19.136a9.535,9.535,0,0,1-.333-2.909,28.7,28.7,0,0,1,1.3-6.384,19.563,19.563,0,0,0,.851-5.2,8.5,8.5,0,0,0-.659-3.461c-.348-.764-.649-1.13-.621-1.149a4.89,4.89,0,0,1,.71,1.108,8.274,8.274,0,0,1,.749,3.5,19.2,19.2,0,0,1-.8,5.258,29.292,29.292,0,0,0-1.27,6.332,9.361,9.361,0,0,0,.32,2.832l.095.334-.284-.2a9.557,9.557,0,0,1-3.972-6.575,3.848,3.848,0,0,0-.623-1.854,1.1,1.1,0,0,0-1.407-.249,2.5,2.5,0,0,0-.814.884c-.336.586-.436.951-.46.942" transform="translate(-134.469 -97.248)" fill="#1a2e35"/>
        <g id="Grupo_149991" data-name="Grupo 149991" transform="translate(126.905 142.681)" opacity="0.3">
          <g id="Grupo_149990" data-name="Grupo 149990">
            <g id="Grupo_149989" data-name="Grupo 149989" clip-path="url(#clip-path-8)">
              <path id="Trazado_215846" data-name="Trazado 215846" d="M274.122,301.864l-11.131-4.182-.076.111a46.266,46.266,0,0,0,9.508,6.3c1.051.523,2.3,1.008,3.359.5a3.789,3.789,0,0,0,1.334-1.3,28.953,28.953,0,0,0,3.913-7.689,66.726,66.726,0,0,1-6.907,6.265" transform="translate(-262.915 -295.599)"/>
            </g>
          </g>
        </g>
        <path id="Trazado_215847" data-name="Trazado 215847" d="M262.212,252.845s.11-.012.333-.023l1-.043,3.812-.144,13.772-.471.108,0v.109c.006,5.964.013,13.086.021,20.763v.058l-.044.038-1.787,1.53-5.643,4.828-.055.047-.068-.024-11.484-4.152-.073-.027v-.077c0-6.679.008-12.278.01-16.22.017-1.955.03-3.5.04-4.568q.018-.778.028-1.206c0-.135.015-.247.02-.314a.621.621,0,0,1,.012-.1c0,.951.045,9.172.111,22.406l-.073-.1,11.493,4.128-.122.023,5.64-4.831,1.787-1.53-.044.1c.008-7.677.014-14.8.021-20.763l.108.1-13.719.366-3.833.089-1.013.018c-.23,0-.354,0-.354,0" transform="translate(-135.589 -130.447)" fill="#1a2e35"/>
        <path id="Trazado_215848" data-name="Trazado 215848" d="M313.176,226.6a.513.513,0,0,1,0,.131c0,.1-.008.227-.013.384-.018.356-.043.848-.074,1.473-.072,1.3-.174,3.144-.3,5.416-.251,4.573-.571,10.892-.84,17.874s-.435,13.311-.536,17.89c-.049,2.275-.089,4.122-.118,5.422-.016.626-.029,1.118-.039,1.475-.007.156-.013.282-.017.383a.5.5,0,0,1-.014.131.519.519,0,0,1-.012-.131c0-.1,0-.227-.008-.384,0-.356,0-.85-.008-1.475,0-1.281.009-3.135.038-5.425.055-4.581.194-10.909.463-17.9s.617-13.3.914-17.875c.148-2.286.279-4.135.379-5.412.052-.623.092-1.115.121-1.47.015-.156.028-.281.038-.382a.5.5,0,0,1,.021-.129" transform="translate(-160.989 -117.223)" fill="#1a2e35"/>
        <path id="Trazado_215849" data-name="Trazado 215849" d="M317.637,310.414a4.134,4.134,0,0,1,.483-.559c.16-.177.361-.388.609-.616s.518-.505.849-.775a22.827,22.827,0,0,1,2.386-1.8,23.578,23.578,0,0,1,6.654-3.021,22.767,22.767,0,0,1,2.928-.609c.42-.071.805-.1,1.142-.129s.627-.049.865-.053a4.193,4.193,0,0,1,.739,0,4.185,4.185,0,0,1-.732.094c-.236.019-.524.045-.857.1s-.714.083-1.129.165a25.511,25.511,0,0,0-2.892.656,25.056,25.056,0,0,0-6.591,2.992,25.512,25.512,0,0,0-2.4,1.745c-.335.258-.613.522-.867.741s-.466.418-.636.583a4.166,4.166,0,0,1-.552.49" transform="translate(-164.319 -156.664)" fill="#1a2e35"/>
        <path id="Trazado_215850" data-name="Trazado 215850" d="M341.549,328.469a1.136,1.136,0,0,1-.049-.272c-.017-.18-.067-.444-.078-.788a13.613,13.613,0,0,1,.14-2.909,14.61,14.61,0,0,1,12.974-12.367,13.59,13.59,0,0,1,2.912,0c.343.027.6.089.783.115a1.131,1.131,0,0,1,.269.061c0,.023-.38-.03-1.061-.079a15.305,15.305,0,0,0-7,1.184,14.246,14.246,0,0,0-7.4,7.057,15.309,15.309,0,0,0-1.517,6.936c.017.683.052,1.061.028,1.063" transform="translate(-176.61 -161.431)" fill="#1a2e35"/>
        <g id="Grupo_149994" data-name="Grupo 149994" transform="translate(154.788 144.907)" opacity="0.3">
          <g id="Grupo_149993" data-name="Grupo 149993">
            <g id="Grupo_149992" data-name="Grupo 149992" clip-path="url(#clip-path-9)">
              <path id="Trazado_215851" data-name="Trazado 215851" d="M326.8,300.987a10.958,10.958,0,0,0-6.12,6.373c4.7-2.425,9.464-4.872,14.617-6.066l.334.014a10.959,10.959,0,0,0-8.83-.321" transform="translate(-320.682 -300.211)"/>
            </g>
          </g>
        </g>
        <g id="Grupo_149997" data-name="Grupo 149997" transform="translate(175 154.886)" opacity="0.3">
          <g id="Grupo_149996" data-name="Grupo 149996">
            <g id="Grupo_149995" data-name="Grupo 149995" clip-path="url(#clip-path-10)">
              <path id="Trazado_215852" data-name="Trazado 215852" d="M363.629,338.44c-1.469-3.942-1.571-8.56.591-12.168A10.837,10.837,0,0,1,374.869,321c-2.253,8.17-7.434,16.464-11.241,17.436" transform="translate(-362.556 -320.885)"/>
            </g>
          </g>
        </g>
        <path id="Trazado_215853" data-name="Trazado 215853" d="M266.306,199.371a1.974,1.974,0,0,1-.385-.33c-.236-.224-.572-.554-.982-.965-.827-.813-1.932-1.992-3.184-3.23a6.351,6.351,0,0,0-2.016-1.37,3.344,3.344,0,0,0-1.944-.151,2.54,2.54,0,0,0-1.173.609c-.228.223-.317.382-.338.369s.009-.046.05-.124a1.616,1.616,0,0,1,.217-.313,2.46,2.46,0,0,1,1.2-.714,3.432,3.432,0,0,1,2.069.107,6.319,6.319,0,0,1,2.106,1.4c1.27,1.256,2.342,2.441,3.14,3.29.394.427.711.776.925,1.02a1.972,1.972,0,0,1,.314.4" transform="translate(-132.579 -99.863)" fill="#fff"/>
        <path id="Trazado_215854" data-name="Trazado 215854" d="M256.369,173.948c.015.074-.854.279-1.821.775s-1.651,1.068-1.7,1.012a5.264,5.264,0,0,1,3.523-1.786" transform="translate(-130.8 -89.977)" fill="#fff"/>
        <path id="Trazado_215855" data-name="Trazado 215855" d="M283.844,243.459c.006.069-6.431.733-14.376,1.483s-14.395,1.3-14.4,1.233,6.429-.733,14.377-1.483,14.393-1.3,14.4-1.233" transform="translate(-131.95 -125.942)" fill="#fff"/>
        <path id="Trazado_215856" data-name="Trazado 215856" d="M325.127,225.353c.018.067-2.306.737-5.19,1.495s-5.238,1.319-5.255,1.252,2.306-.736,5.191-1.495,5.237-1.319,5.255-1.252" transform="translate(-162.79 -116.576)" fill="#fff"/>
        <path id="Trazado_215857" data-name="Trazado 215857" d="M297,193.066a4.119,4.119,0,0,1-.732.068l-2,.111c-1.685.1-4.011.256-6.572.516s-4.873.574-6.543.82l-1.978.293a4.151,4.151,0,0,1-.73.082,4.051,4.051,0,0,1,.713-.178c.462-.1,1.134-.227,1.967-.373,1.665-.292,3.977-.632,6.545-.894s4.9-.393,6.59-.443c.845-.026,1.529-.036,2-.031a4.117,4.117,0,0,1,.735.03" transform="translate(-144.045 -99.86)" fill="#fff"/>
        <path id="Trazado_215858" data-name="Trazado 215858" d="M271.648,278c-.07,0-.365-5.417-.66-12.1s-.478-12.114-.408-12.117.364,5.416.66,12.106.478,12.112.408,12.115" transform="translate(-139.968 -131.281)" fill="#fff"/>
        <path id="Trazado_215859" data-name="Trazado 215859" d="M287.749,278.141a.979.979,0,0,1-.048-.252c-.024-.195-.054-.435-.089-.727-.073-.632-.166-1.548-.272-2.681-.211-2.266-.46-5.4-.662-8.866s-.32-6.61-.374-8.885c-.027-1.138-.042-2.058-.042-2.695,0-.294,0-.537,0-.733a.129.129,0,1,1,.051,0c.012.2.026.438.043.732.03.672.072,1.583.122,2.691.1,2.272.245,5.411.447,8.876s.423,6.6.588,8.866c.079,1.107.144,2.016.192,2.687.017.294.031.536.042.732a.992.992,0,0,1,0,.257" transform="translate(-148.087 -130.905)" fill="#fff"/>
        <path id="Trazado_215860" data-name="Trazado 215860" d="M330.554,283.569a4.122,4.122,0,0,1-.733.04c-.471,0-1.153.032-1.992.092s-1.835.171-2.932.347a31.367,31.367,0,0,0-6.938,1.985c-1.025.431-1.931.86-2.673,1.256s-1.337.729-1.739.975a4.1,4.1,0,0,1-.643.354,4.1,4.1,0,0,1,.591-.437c.387-.272.969-.633,1.707-1.048a28.14,28.14,0,0,1,2.668-1.314,28.92,28.92,0,0,1,6.991-2,28.081,28.081,0,0,1,2.958-.3c.846-.037,1.531-.039,2-.013a4.109,4.109,0,0,1,.733.058" transform="translate(-161.87 -146.656)" fill="#fff"/>
        <path id="Trazado_215861" data-name="Trazado 215861" d="M280.348,336.641a1.3,1.3,0,0,1-.293.045l-.843.082c-.732.068-1.794.143-3.107.214-2.626.144-6.262.237-10.275.126s-7.64-.41-10.254-.7c-1.308-.145-2.363-.279-3.091-.388l-.837-.129a1.279,1.279,0,0,1-.29-.062,1.31,1.31,0,0,1,.3.012l.843.082,3.1.308c2.615.246,6.236.513,10.243.627s7.636.047,10.261-.052l3.109-.135.846-.034a1.3,1.3,0,0,1,.3,0" transform="translate(-130.032 -173.727)" fill="#fff"/>
        <path id="Trazado_215862" data-name="Trazado 215862" d="M285.849,394.562a1.415,1.415,0,0,1-.3.068l-.867.144c-.753.124-1.847.276-3.2.442-2.709.333-6.468.674-10.632.81s-7.939.035-10.664-.122c-1.363-.078-2.464-.159-3.223-.234l-.874-.088a1.4,1.4,0,0,1-.3-.048,1.46,1.46,0,0,1,.308,0l.877.042c.761.044,1.863.1,3.225.153,2.723.111,6.49.181,10.647.048s7.91-.449,10.621-.736c1.355-.143,2.452-.268,3.208-.362l.873-.1a1.4,1.4,0,0,1,.307-.017" transform="translate(-132.321 -204.111)" fill="#fff"/>
        <path id="Trazado_215863" data-name="Trazado 215863" d="M345.066,307.758a1.042,1.042,0,0,1-.245.093l-.712.218-.515.152c-.186.061-.384.143-.6.223a15.09,15.09,0,0,0-1.439.586l-.82.381c-.284.135-.562.308-.86.469-.6.311-1.2.725-1.834,1.142a22.426,22.426,0,0,0-6.629,7.249,21.515,21.515,0,0,0-.974,1.928c-.134.311-.282.6-.391.9s-.209.579-.307.851a15.184,15.184,0,0,0-.456,1.486c-.06.221-.124.425-.168.616s-.073.365-.105.527c-.062.293-.113.534-.154.728a1.02,1.02,0,0,1-.071.252.992.992,0,0,1,.021-.259c.028-.2.064-.441.108-.739q.038-.245.084-.534c.038-.194.1-.4.15-.625a14.041,14.041,0,0,1,.424-1.508q.14-.414.294-.864c.1-.3.25-.6.381-.913a20.723,20.723,0,0,1,.963-1.959,21.895,21.895,0,0,1,6.7-7.325,20.748,20.748,0,0,1,1.865-1.134c.3-.158.586-.329.875-.461l.834-.37a14.178,14.178,0,0,1,1.464-.557c.219-.073.419-.15.609-.2l.524-.132.726-.173a.992.992,0,0,1,.257-.044" transform="translate(-170.086 -159.207)" fill="#fff"/>
        <path id="Trazado_215864" data-name="Trazado 215864" d="M359.243,324.755a12.208,12.208,0,0,1-.741-1.034,13.328,13.328,0,0,0-4.566-3.96,12.277,12.277,0,0,1-1.129-.588,4.39,4.39,0,0,1,1.208.429,11.236,11.236,0,0,1,4.633,4.018,4.383,4.383,0,0,1,.6,1.135" transform="translate(-182.513 -165.112)" fill="#fff"/>
        <path id="Trazado_215865" data-name="Trazado 215865" d="M367.514,313.834s-4.561-2.146-4.558-4.408c0-1.27.892-3.389,2.476-5.463a10.513,10.513,0,0,1,5.125-3.479l4.459.03s-.07-.35,1.192-3.084,3.506-3.645,4.627-6.87a42.032,42.032,0,0,0,1.823-6.415c.49-2.278,1.262-4.17,2.874-3.54s1.753,2.594,1.332,4.837-2.033,6.029-.7,7.921,1.753,2.174,5.047,2.243,11.5-.981,11.5-.981,2.734-.491,3.084.911-4.276,2.8-4.276,2.8,5.888-2.1,5.959.911l-.351,1.122-7.43,2.734s3.715-.771,4.486-.28,1.332,1.683.7,2.453-7.29,1.683-7.29,1.683l-5.469.14s-.21.561,1.192.631,5.328-.14,4.907,1.472-4.206,1.472-4.206,1.472-5.538-.28-6.87.14a70.661,70.661,0,0,1-7.781,1.893c-2.033.28-11.847,1.122-11.847,1.122" transform="translate(-187.763 -145.098)" fill="#ffc19d"/>
        <path id="Trazado_215866" data-name="Trazado 215866" d="M384.559,331.407c-.013.01-.11-.093-.26-.3a4.536,4.536,0,0,1-.5-.959,5.206,5.206,0,0,1-.06-3.529,8.784,8.784,0,0,1,.916-1.735,6.6,6.6,0,0,0,.7-1.39,3.548,3.548,0,0,0,.159-1.414,2.007,2.007,0,0,1,.011,1.466,6.1,6.1,0,0,1-.672,1.457,9.487,9.487,0,0,0-.877,1.7,5.348,5.348,0,0,0-.01,3.387,12.543,12.543,0,0,0,.593,1.318" transform="translate(-198.369 -166.617)" fill="#ff9c6a"/>
        <path id="Trazado_215867" data-name="Trazado 215867" d="M409.674,310.752a2.83,2.83,0,0,1,.263,1,7.138,7.138,0,0,1-1.087,4.817,2.827,2.827,0,0,1-.669.794,8.953,8.953,0,0,0,1.493-6.614" transform="translate(-211.157 -160.757)" fill="#ff9c6a"/>
        <path id="Trazado_215868" data-name="Trazado 215868" d="M436.026,316.533c.013.068-2.325.594-5.222,1.174s-5.258,1-5.272.927,2.324-.594,5.222-1.174,5.258-1,5.271-.927" transform="translate(-220.135 -163.744)" fill="#ff9c6a"/>
        <path id="Trazado_215869" data-name="Trazado 215869" d="M431,327.422a5.36,5.36,0,0,1-1.225.253,27.6,27.6,0,0,1-6.022.189,5.322,5.322,0,0,1-1.238-.176,7.266,7.266,0,0,1,1.247,0c.768.019,1.829.033,3,0s2.228-.117,2.993-.184a7.3,7.3,0,0,1,1.245-.076" transform="translate(-218.573 -169.374)" fill="#ff9c6a"/>
        <path id="Trazado_215870" data-name="Trazado 215870" d="M197.591,75.793a5.912,5.912,0,0,0,.843-.155,2.044,2.044,0,0,0,1-3.26c-.317-.419-.635-.56-.612-.6a1.276,1.276,0,0,1,.749.488,2.139,2.139,0,0,1-1.085,3.543,1.276,1.276,0,0,1-.893-.015" transform="translate(-102.217 -37.13)" fill="#1a2e35"/>
        <path id="Trazado_215871" data-name="Trazado 215871" d="M208.016,70.535a1.55,1.55,0,0,1-.771.34,3.237,3.237,0,0,1-3.544-1.543,1.554,1.554,0,0,1-.276-.8c.039-.013.142.29.427.7a3.4,3.4,0,0,0,3.36,1.463c.5-.072.787-.2.8-.165" transform="translate(-105.232 -35.454)" fill="#1a2e35"/>
        <path id="Trazado_215872" data-name="Trazado 215872" d="M204.468,81.695c-.04.009-.1-.237-.31-.569a2.233,2.233,0,0,0-2.623-.959c-.374.117-.58.267-.6.234s.152-.227.542-.4a2.186,2.186,0,0,1,2.841,1.038c.186.383.183.653.155.655" transform="translate(-103.944 -41.292)" fill="#1a2e35"/>
        <path id="Trazado_215873" data-name="Trazado 215873" d="M210.576,77.392c0,.026-.284.028-.64-.226a1.6,1.6,0,0,1,.308-2.789c.4-.17.679-.106.673-.081,0,.042-.256.048-.595.24a1.5,1.5,0,0,0-.275,2.492c.288.261.54.323.528.364" transform="translate(-108.25 -38.417)" fill="#1a2e35"/>
        <path id="Trazado_215874" data-name="Trazado 215874" d="M87.638,220.855a2.235,2.235,0,0,0-1.105,1.376,2.076,2.076,0,0,0,.15,1.357l6.553,14.578,4.257,8.57,12.6-3.041-8.141-20.306s-.667-2.814-3.236-2.814H88.72a2.174,2.174,0,0,0-1.082.28" transform="translate(-44.736 -114.107)" fill="#375a64"/>
        <path id="Trazado_215875" data-name="Trazado 215875" d="M92.321,227.362H90.686a.659.659,0,1,1,0-1.318h1.635a.659.659,0,0,1,0,1.318" transform="translate(-46.572 -116.936)" fill="#fff"/>
        <path id="Trazado_215876" data-name="Trazado 215876" d="M91.207,238.156a4.363,4.363,0,0,0-.814,3.122c.271,1.765.385,3.936.385,3.936s1.243,1.222,1.379,4.615-.271,5.429.543,7.058-1.175,11.265-1.175,11.265-1.626,1.493-1.175,2.443-.092,7.872,3.3,10.994l7.193,2.036s3.122-.272,4.072-2.986,0-11.265,0-11.265a11.247,11.247,0,0,0,4.578-3.988s5.1-3.57,6.28-4.5,1.9-4.748,1.765-5.462-2.267-.877-2.267-.877,1.1-3.148-1.017-4.759c0,0,.6-2.624-.736-3.222a2.223,2.223,0,0,0-2.3.23,16.7,16.7,0,0,1-4.1,3.222c-1.7.691-5.248,3.637-6.168,3.084s-1.427-.875-.92-2.348,1.987-5.511,2.9-6.139,2.405-2.358,2.029-3.357-1.343-2.288-2.632-1.6a27.039,27.039,0,0,0-6.491,6.767l-.644.829Z" transform="translate(-46.698 -123.202)" fill="#ffc19d"/>
        <path id="Trazado_215877" data-name="Trazado 215877" d="M129.5,261.847c.009,0,.014.044.018.128a1.68,1.68,0,0,1-.021.369,2.992,2.992,0,0,1-.519,1.254,6.281,6.281,0,0,1-1.416,1.425,23.283,23.283,0,0,1-2.042,1.341,28.58,28.58,0,0,1-3.972,1.961c-.526.211-.96.36-1.261.459a1.845,1.845,0,0,1-.478.122c-.013-.036.641-.286,1.671-.745a37.524,37.524,0,0,0,3.912-2.013,11.73,11.73,0,0,0,3.442-2.653,3.624,3.624,0,0,0,.667-1.648" transform="translate(-61.979 -135.457)" fill="#ff9c6a"/>
        <path id="Trazado_215878" data-name="Trazado 215878" d="M133.422,272.322a5.436,5.436,0,0,1-.883,1.085,14.761,14.761,0,0,1-5.633,3.648,5.421,5.421,0,0,1-1.351.362,13.121,13.121,0,0,1,1.287-.528,17.956,17.956,0,0,0,5.571-3.608,13.259,13.259,0,0,1,1.008-.958" transform="translate(-64.952 -140.876)" fill="#ff9c6a"/>
        <path id="Trazado_215879" data-name="Trazado 215879" d="M98.487,264.327a1.59,1.59,0,0,1-.6-.99,7.067,7.067,0,0,1,.065-2.782,22.012,22.012,0,0,1,.6-2.706,4.446,4.446,0,0,1,.393-1.08,6.317,6.317,0,0,1-.221,1.124c-.154.688-.354,1.64-.52,2.7a8.133,8.133,0,0,0-.14,2.7,3.671,3.671,0,0,0,.423,1.03" transform="translate(-50.581 -132.831)" fill="#ff9c6a"/>
        <path id="Trazado_215880" data-name="Trazado 215880" d="M108.231,279.136c0,.031-.16.059-.4-.015a1.374,1.374,0,0,1-.929-1.575c.053-.249.154-.374.182-.361a2.373,2.373,0,0,0,.2,1.2c.348.588.972.687.951.753" transform="translate(-55.286 -143.392)" fill="#ff9c6a"/>
        <path id="Trazado_215881" data-name="Trazado 215881" d="M116.158,286.8c0,.03-.189.089-.507.047a1.853,1.853,0,0,1-1.584-1.7c-.019-.32.055-.507.084-.5s.031.194.092.478a2,2,0,0,0,1.445,1.554c.279.081.468.088.47.126" transform="translate(-59.007 -147.25)" fill="#ff9c6a"/>
        <path id="Trazado_215882" data-name="Trazado 215882" d="M124.351,291.749c0,.029-.161.06-.409-.008a1.618,1.618,0,0,1-1.126-1.507c0-.258.08-.4.108-.394a2.091,2.091,0,0,0,1.427,1.91" transform="translate(-63.534 -149.938)" fill="#ff9c6a"/>
        <path id="Trazado_215883" data-name="Trazado 215883" d="M113.747,303.479a3.106,3.106,0,0,1-.873.376,16.013,16.013,0,0,1-4.493.818,3.093,3.093,0,0,1-.949-.044c0-.075,1.439-.13,3.18-.451s3.109-.77,3.135-.7" transform="translate(-55.577 -156.991)" fill="#ff9c6a"/>
        <path id="Trazado_215884" data-name="Trazado 215884" d="M107.143,241.213a1.628,1.628,0,0,1-.134-.3l-.338-.88-1.2-3.254L101.6,226.015a4.9,4.9,0,0,0-1.75-2.585,5.242,5.242,0,0,0-2.88-.51l-5.143.058L88.36,223l-.943-.008a1.6,1.6,0,0,1-.329-.02,1.631,1.631,0,0,1,.328-.031l.942-.039,3.466-.1,5.142-.112a11.037,11.037,0,0,1,1.5.042,3.615,3.615,0,0,1,1.513.49,5.117,5.117,0,0,1,1.855,2.706c1.505,4.21,2.842,8.025,3.8,10.791l1.125,3.28.293.9a1.606,1.606,0,0,1,.086.318" transform="translate(-45.052 -115.197)" fill="#1a2e35"/>
        <path id="Trazado_215885" data-name="Trazado 215885" d="M217.15,421.506c0,.07-43.489.126-97.123.126-53.653,0-97.132-.056-97.132-.126s43.479-.125,97.132-.125c53.634,0,97.123.056,97.123.125" transform="translate(-11.844 -217.987)" fill="#1a2e35"/>
      </g>
    </g>
  </g>
</svg>
