<svg xmlns="http://www.w3.org/2000/svg" xmlns:xlink="http://www.w3.org/1999/xlink" width="535" height="530" viewBox="0 0 535 530">
  <defs>
    <filter id="Trazado_211533" x="0" y="0" width="535" height="530" filterUnits="userSpaceOnUse">
      <feOffset dy="3" input="SourceAlpha"/>
      <feGaussianBlur stdDeviation="5" result="blur"/>
      <feFlood flood-opacity="0.161"/>
      <feComposite operator="in" in2="blur"/>
      <feComposite in="SourceGraphic"/>
    </filter>
    <clipPath id="clip-path">
      <rect id="Rectángulo_45226" data-name="Rectángulo 45226" width="310.856" height="308.778" fill="none"/>
    </clipPath>
    <clipPath id="clip-path-3">
      <rect id="Rectángulo_45202" data-name="Rectángulo 45202" width="57.969" height="203.897" fill="none"/>
    </clipPath>
    <clipPath id="clip-path-4">
      <rect id="Rectángulo_45203" data-name="Rectángulo 45203" width="48.417" height="143.142" fill="none"/>
    </clipPath>
    <clipPath id="clip-path-5">
      <path id="Trazado_215142" data-name="Trazado 215142" d="M231.3,240.552c-3.686,9.886,7.787,12.919,7.787,12.919s-7.153,19.778,8.77,30.749,27.088.342,27.088.342l4.8-26.282s-13.4,23.214-25.733,17.307-10.666-16.322-9.665-24.165a5.069,5.069,0,0,0-1.789-5.522,5.267,5.267,0,0,1-2.127-3.152s-1.734,2.6-.4,4.176a1.851,1.851,0,0,1,.436,1.633c-.177-.06-.359-.119-.551-.177-3.814-1.133-6.1-5.385-7.131-7.857a.8.8,0,0,0-1.486.028" transform="translate(-230.573 -240.034)" fill="none"/>
    </clipPath>
    <linearGradient id="linear-gradient" x1="-2.214" y1="1.725" x2="-2.204" y2="1.725" gradientUnits="objectBoundingBox">
      <stop offset="0" stop-color="#febbba"/>
      <stop offset="1" stop-color="#ff928e"/>
    </linearGradient>
    <clipPath id="clip-path-6">
      <path id="Trazado_215145" data-name="Trazado 215145" d="M277.233,192.232c-28.9,6.128-69.265,26.127-63.137,55.022,1.772,8.355,22.114,30.232,27.082,36.5,12.215,15.409,34.038,24.3,54.578,19.94,16-3.394,26.854-5.662,34.05-19.016,5.8-10.759,17.482-37.005,14.747-49.9-5.372-25.336-30.865-43.665-56.543-43.665a51.913,51.913,0,0,0-10.777,1.116" transform="translate(-213.472 -191.116)" fill="none"/>
    </clipPath>
    <clipPath id="clip-path-7">
      <path id="Trazado_215146" data-name="Trazado 215146" d="M294.824,237.277c1.118,2.453,3.462,16.643,3.462,16.643a10.879,10.879,0,0,0,11.054.383c-1.172-6.25-8.013-19.892-8.013-19.892Z" transform="translate(-294.824 -234.411)" fill="none"/>
    </clipPath>
    <linearGradient id="linear-gradient-2" x1="-8.557" y1="5.971" x2="-8.527" y2="5.971" xlink:href="#linear-gradient"/>
    <clipPath id="clip-path-8">
      <path id="Trazado_215147" data-name="Trazado 215147" d="M289.533,210.581s-10.878,20.133-2.313,24.507,16.312-9.936,16.312-9.936,1.792-10.5-1.842-13.524c-1.574-1.312-4.067-1.683-6.385-1.683a28.763,28.763,0,0,0-5.772.636" transform="translate(-283.933 -209.945)" fill="none"/>
    </clipPath>
    <linearGradient id="linear-gradient-3" x1="-5.542" y1="3.795" x2="-5.521" y2="3.795" xlink:href="#linear-gradient"/>
    <clipPath id="clip-path-10">
      <path id="Trazado_215150" data-name="Trazado 215150" d="M305.408,226.875l.6,2.785c2.548,1.614,8.851-2.137,6.319-5.759a2.2,2.2,0,0,0-1.833-1.086c-2.387,0-5.089,4.061-5.089,4.061" transform="translate(-305.408 -222.814)" fill="none"/>
    </clipPath>
    <linearGradient id="linear-gradient-4" x1="-19.074" y1="11.133" x2="-19.011" y2="11.133" xlink:href="#linear-gradient"/>
    <clipPath id="clip-path-11">
      <path id="Trazado_215151" data-name="Trazado 215151" d="M319.684,277.014A8.343,8.343,0,0,0,322.51,280c20.186,12.911,17.021,23.5,10.267,27.646-4.383,2.691-5.24,1.916-6.592,1.142a5.225,5.225,0,0,0-3.651-.669c-5.2.63-8.194,9.928-3.94,7.879,3.621-1.742,7.249.682,8.252,1.444a55.3,55.3,0,0,0,12.61-4.408c6.258-3.55,11.918-9.431,8.675-18.595-6.3-17.806-24.112-29.179-24.112-29.179a8.153,8.153,0,0,0-3.134-.742c-4.309,0-5.07,5.469-1.2,12.5" transform="translate(-316.569 -264.515)" fill="none"/>
    </clipPath>
    <linearGradient id="linear-gradient-5" x1="-3.698" y1="1.648" x2="-3.686" y2="1.648" xlink:href="#linear-gradient"/>
    <clipPath id="clip-path-13">
      <path id="Trazado_215154" data-name="Trazado 215154" d="M155.114,348.359a11.4,11.4,0,0,0,2.781.1c9.451-.853,11.338-10.274,11.338-10.274l-1.879-4.26a9.089,9.089,0,0,1-10.623-1.137c-2.747,3.078-6,8.735-1.617,15.567" transform="translate(-152.969 -332.792)" fill="none"/>
    </clipPath>
    <linearGradient id="linear-gradient-6" x1="-6.374" y1="3.005" x2="-6.332" y2="3.005" gradientUnits="objectBoundingBox">
      <stop offset="0" stop-color="#a22b25"/>
      <stop offset="1" stop-color="#c0423c"/>
    </linearGradient>
    <clipPath id="clip-path-14">
      <path id="Trazado_215157" data-name="Trazado 215157" d="M90.775,214.926c-29.87,6.335-66.468,28.167-60.133,58.038,1.831,8.637,17.732,30.078,22.868,36.558,12.627,15.928,35.187,25.115,56.421,20.612,16.543-3.508,34.856-5.373,42.295-19.179,5.995-11.123,10.977-38.734,8.151-52.061-5.555-26.191-31.909-45.124-58.454-45.123a53.7,53.7,0,0,0-11.148,1.156" transform="translate(-29.919 -213.77)" fill="none"/>
    </clipPath>
    <clipPath id="clip-path-15">
      <path id="Trazado_215158" data-name="Trazado 215158" d="M114.329,264.8l.927,14.4a3.124,3.124,0,0,0,2.17,2.835c2.8.83,8.09,1.83,13.274-.26a2.062,2.062,0,0,0,1.117-2.531l-6.858-22.026Z" transform="translate(-114.329 -257.225)" fill="none"/>
    </clipPath>
    <linearGradient id="linear-gradient-7" x1="-4.925" y1="3.971" x2="-4.882" y2="3.971" xlink:href="#linear-gradient-6"/>
    <clipPath id="clip-path-16">
      <path id="Trazado_215159" data-name="Trazado 215159" d="M108.8,251.012c.288,3.449,7.294,9.426,7.294,9.426,4.5,3.9,10.4,4.869,15.707,1.667s3.006-5.984.82-10.8-9.913-12.611-9.913-12.611-14.2,8.871-13.908,12.321" transform="translate(-108.797 -238.691)" fill="none"/>
    </clipPath>
    <linearGradient id="linear-gradient-8" x1="-2.11" y1="3.295" x2="-2.089" y2="3.295" xlink:href="#linear-gradient-6"/>
    <clipPath id="clip-path-18">
      <path id="Trazado_215162" data-name="Trazado 215162" d="M111.843,258.381c-2.034,2.724,4,6.173,6.249,5.559l-.33-2.895s-2.475-3.432-4.509-3.432a1.7,1.7,0,0,0-1.41.768" transform="translate(-111.431 -257.613)" fill="none"/>
    </clipPath>
    <linearGradient id="linear-gradient-9" x1="-8.153" y1="10.068" x2="-8.078" y2="10.068" xlink:href="#linear-gradient-6"/>
    <clipPath id="clip-path-20">
      <path id="Trazado_215166" data-name="Trazado 215166" d="M76.79,348.974a58.784,58.784,0,0,0,36.277,9.607v-4.143S92.315,350.583,90.191,342.7a7.329,7.329,0,0,1-.172-.881c-3.851.306-11.078,1.623-13.229,7.156" transform="translate(-76.79 -341.818)" fill="none"/>
    </clipPath>
    <linearGradient id="linear-gradient-10" x1="-1.451" y1="1.566" x2="-1.432" y2="1.566" xlink:href="#linear-gradient-6"/>
    <clipPath id="clip-path-21">
      <path id="Trazado_215167" data-name="Trazado 215167" d="M119.865,361.612a52.764,52.764,0,0,0,9.354-1.119c2.152-.456,4.334-.885,6.517-1.315a17.963,17.963,0,0,0-5.01-2.892,10.68,10.68,0,0,0-4.111-.939c-4.69,0-6.292,4.456-6.75,6.264" transform="translate(-119.865 -355.348)" fill="none"/>
    </clipPath>
    <linearGradient id="linear-gradient-11" x1="-5.484" y1="2.806" x2="-5.438" y2="2.806" xlink:href="#linear-gradient-6"/>
    <clipPath id="clip-path-23">
      <rect id="Rectángulo_45217" data-name="Rectángulo 45217" width="18.879" height="11.902" fill="none"/>
    </clipPath>
    <clipPath id="clip-path-24">
      <path id="Trazado_215174" data-name="Trazado 215174" d="M168.363,324.117c-2.56,1.8,1.617,12.691,3.12,13.754s6.643-7.382,3.637-13.146a9.6,9.6,0,0,0-4.343-1.317,4.11,4.11,0,0,0-2.414.709" transform="translate(-167.551 -323.408)" fill="none"/>
    </clipPath>
    <linearGradient id="linear-gradient-12" x1="-10.538" y1="3.522" x2="-10.475" y2="3.522" xlink:href="#linear-gradient-6"/>
    <clipPath id="clip-path-26">
      <path id="Trazado_215178" data-name="Trazado 215178" d="M145.193,58.377c-2.663,12.557-5.647,35.669,0,46.149,7.01,13.007,6.572,13.925,22.21,16.97,19.691,3.835,101.325,4.068,113.222-10.939,4.84-6.1-34.088-21.955-32.362-30.092,5.968-28.144-11.628-50.342-39.771-56.311a67.987,67.987,0,0,0-14.086-1.492c-23.167,0-44.243,12.274-49.213,35.715" transform="translate(-141.982 -22.662)" fill="none"/>
    </clipPath>
    <clipPath id="clip-path-27">
      <path id="Trazado_215179" data-name="Trazado 215179" d="M292.313,126.227c-1.3.89-4.823,1.425-8.3,1.3-.108,0-.214-.006-.316,0a2.854,2.854,0,0,0-2.449,4.135l.375.761a3.807,3.807,0,0,0,2,1.862c9.646,3.829,16.484,1.111,19.686-1.609,2.573-2.184,2.8-4.368.253-3.158-5.867,2.789-13.151-.051-13.151-.051,3.292-1.434,3.576-2.42,3.217-3a.874.874,0,0,0-.757-.405,1,1,0,0,0-.563.174" transform="translate(-280.951 -126.053)" fill="none"/>
    </clipPath>
    <linearGradient id="linear-gradient-13" x1="-8.206" y1="14.722" x2="-8.177" y2="14.722" xlink:href="#linear-gradient"/>
    <clipPath id="clip-path-29">
      <path id="Trazado_215182" data-name="Trazado 215182" d="M183.19,67.721a2.639,2.639,0,0,0,.693,2.836c3.53,3.221,9.331,2.9,12.831,2.315a3.757,3.757,0,0,0,3.121-3.205,62.923,62.923,0,0,1,3.675-12.7L196.32,44.109c-4.118,2.6-11.676,19.542-13.13,23.612" transform="translate(-183.035 -44.109)" fill="none"/>
    </clipPath>
    <linearGradient id="linear-gradient-14" x1="-6.944" y1="9.239" x2="-6.906" y2="9.239" xlink:href="#linear-gradient"/>
    <clipPath id="clip-path-30">
      <path id="Trazado_215183" data-name="Trazado 215183" d="M157.323,137.4a20.5,20.5,0,0,0,9.134,5.619c1.009.22,2.105.445,3.3.681,9.815,1.24,18.891-4.2,18.891-4.2l9.746-1.561s-6.1-7.155-10.487-6.969-7.816,5.877-7.816,5.877-11.97-.845-11.908-9.7c0-.03,0-.063,0-.093-3.245.3-8.613,2.1-10.864,10.347" transform="translate(-157.323 -127.049)" fill="none"/>
    </clipPath>
    <linearGradient id="linear-gradient-15" x1="-3.009" y1="11.682" x2="-2.99" y2="11.682" xlink:href="#linear-gradient"/>
    <clipPath id="clip-path-32">
      <path id="Trazado_215186" data-name="Trazado 215186" d="M175.591,97.607c-1.488,4.589-4.958,16.022-5.037,23.053a.47.47,0,0,0,.465.475h.006a.47.47,0,0,0,.47-.464c.076-6.9,3.515-18.226,4.991-22.774a.47.47,0,0,0-.894-.29" transform="translate(-170.554 -97.283)" fill="none"/>
    </clipPath>
    <linearGradient id="linear-gradient-16" x1="-10.74" y1="9.464" x2="-10.676" y2="9.464" gradientUnits="objectBoundingBox">
      <stop offset="0" stop-color="#e1473d"/>
      <stop offset="1" stop-color="#e9605a"/>
    </linearGradient>
    <clipPath id="clip-path-33">
      <path id="Trazado_215187" data-name="Trazado 215187" d="M204.34,32.008l-4.393,22,12.485,4.782S220.34,36.755,220.34,36.4c0-3.905-6.944-4.571-11.683-4.571-2.455,0-4.317.178-4.317.178" transform="translate(-199.947 -31.83)" fill="none"/>
    </clipPath>
    <linearGradient id="linear-gradient-17" x1="-4.448" y1="8.811" x2="-4.425" y2="8.811" xlink:href="#linear-gradient"/>
    <clipPath id="clip-path-35">
      <path id="Trazado_215190" data-name="Trazado 215190" d="M192.531,45c.125,6.142,4.686,4.742,4.686,4.742s2.708-6.4.5-8.379a3.66,3.66,0,0,0-2.381-1.036c-1.545,0-2.872,1.4-2.805,4.673" transform="translate(-192.529 -40.327)" fill="none"/>
    </clipPath>
    <linearGradient id="linear-gradient-18" x1="-11.46" y1="21.573" x2="-11.399" y2="21.573" xlink:href="#linear-gradient"/>
  </defs>
  <g id="Grupo_150098" data-name="Grupo 150098" transform="translate(-794.499 -2802.402)">
    <g transform="matrix(1, 0, 0, 1, 794.5, 2802.4)" filter="url(#Trazado_211533)">
      <path id="Trazado_211533-2" data-name="Trazado 211533" d="M34.695,0H470.305C489.467,0,505,12.064,505,26.946V473.054C505,487.936,489.467,500,470.305,500H34.695C15.533,500,0,487.936,0,473.054V26.946C0,12.064,15.533,0,34.695,0Z" transform="translate(15 12)" fill="#feeeab"/>
    </g>
    <path id="Rectángulo_44201" data-name="Rectángulo 44201" d="M0,0H505a0,0,0,0,1,0,0V62a32,32,0,0,1-32,32H32A32,32,0,0,1,0,62V0A0,0,0,0,1,0,0Z" transform="translate(809.501 3224.138)" fill="#fbdb5e"/>
    <path id="Trazado_216364" data-name="Trazado 216364" d="M-112.49-4.814a5.193,5.193,0,0,1-.8,2.622A4.833,4.833,0,0,1-115.347-.43,7,7,0,0,1-118.369.2a5.584,5.584,0,0,1-4.414-1.826,7.54,7.54,0,0,1-1.611-5.156v-.7a8.607,8.607,0,0,1,.728-3.657,5.513,5.513,0,0,1,2.095-2.422,5.844,5.844,0,0,1,3.164-.854,6.129,6.129,0,0,1,4.16,1.362,5.383,5.383,0,0,1,1.787,3.755h-3.418a2.547,2.547,0,0,0-.654-1.865,2.691,2.691,0,0,0-1.875-.566,2.048,2.048,0,0,0-1.875.957,6.151,6.151,0,0,0-.625,3.057v1.006a6.806,6.806,0,0,0,.571,3.252,2.091,2.091,0,0,0,1.968.977,2.632,2.632,0,0,0,1.807-.557,2.363,2.363,0,0,0,.664-1.768Zm1.055-.566A6.236,6.236,0,0,1-110.82-8.2a4.4,4.4,0,0,1,1.768-1.9,5.323,5.323,0,0,1,2.705-.664,4.858,4.858,0,0,1,3.74,1.47,5.64,5.64,0,0,1,1.367,4v.117a5.472,5.472,0,0,1-1.372,3.921A4.871,4.871,0,0,1-106.328.2a4.927,4.927,0,0,1-3.623-1.353,5.29,5.29,0,0,1-1.475-3.667Zm3.291.205a3.932,3.932,0,0,0,.459,2.148,1.529,1.529,0,0,0,1.357.684q1.758,0,1.8-2.705v-.332q0-2.842-1.816-2.842-1.65,0-1.787,2.451Zm11.465-5.391.107,1.24a3.633,3.633,0,0,1,3.018-1.436A2.675,2.675,0,0,1-90.85-9.17a3.517,3.517,0,0,1,3.105-1.592q3.213,0,3.3,3.887V0h-3.3V-6.67a2.014,2.014,0,0,0-.273-1.182,1.164,1.164,0,0,0-1-.371,1.559,1.559,0,0,0-1.455.869l.01.137V0h-3.3V-6.65a2.117,2.117,0,0,0-.264-1.2,1.161,1.161,0,0,0-1.006-.371,1.578,1.578,0,0,0-1.445.869V0h-3.291V-10.566Zm20.41,9.424A3.393,3.393,0,0,1-79.092.2,3.328,3.328,0,0,1-81.724-.815a4.251,4.251,0,0,1-.894-2.905v-6.846h3.291V-3.7a1.183,1.183,0,0,0,1.318,1.357A1.72,1.72,0,0,0-76.4-3.154v-7.412h3.311V0h-3.086Zm8.008-9.424.107,1.24a3.583,3.583,0,0,1,3.018-1.436,3.015,3.015,0,0,1,2.466.986,4.7,4.7,0,0,1,.845,2.969V0h-3.3V-6.67a1.783,1.783,0,0,0-.322-1.177,1.491,1.491,0,0,0-1.172-.376,1.569,1.569,0,0,0-1.436.762V0h-3.291V-10.566ZM-56.533,0h-3.3V-10.566h3.3Zm-3.5-13.291a1.469,1.469,0,0,1,.508-1.152,1.916,1.916,0,0,1,1.318-.449,1.916,1.916,0,0,1,1.318.449,1.469,1.469,0,0,1,.508,1.152,1.469,1.469,0,0,1-.508,1.152,1.916,1.916,0,0,1-1.318.449,1.916,1.916,0,0,1-1.318-.449A1.469,1.469,0,0,1-60.029-13.291Zm9.99,10.947a1.464,1.464,0,0,0,1.074-.376,1.379,1.379,0,0,0,.371-1.05h3.086A3.653,3.653,0,0,1-46.753-.918,4.631,4.631,0,0,1-49.961.2,4.689,4.689,0,0,1-53.594-1.25a5.7,5.7,0,0,1-1.328-4v-.137a6.436,6.436,0,0,1,.591-2.827,4.3,4.3,0,0,1,1.7-1.885,5.081,5.081,0,0,1,2.637-.659,4.573,4.573,0,0,1,3.271,1.143,4.053,4.053,0,0,1,1.211,3.1h-3.086a1.807,1.807,0,0,0-.4-1.26,1.382,1.382,0,0,0-1.074-.439q-1.279,0-1.494,1.631a11.507,11.507,0,0,0-.068,1.426,4.52,4.52,0,0,0,.381,2.207A1.319,1.319,0,0,0-50.039-2.344ZM-38.164,0a3.716,3.716,0,0,1-.312-.947A3.06,3.06,0,0,1-41.016.2a3.749,3.749,0,0,1-2.539-.9A2.875,2.875,0,0,1-44.6-2.979a2.955,2.955,0,0,1,1.27-2.6,6.468,6.468,0,0,1,3.691-.879h1.016v-.559q0-1.462-1.26-1.462a1.03,1.03,0,0,0-1.172,1.158h-3.291a2.95,2.95,0,0,1,1.3-2.487,5.479,5.479,0,0,1,3.325-.956,4.8,4.8,0,0,1,3.193.986,3.429,3.429,0,0,1,1.2,2.705v4.678a4.79,4.79,0,0,0,.449,2.227V0Zm-2.061-2.148A1.836,1.836,0,0,0-39.2-2.412a1.653,1.653,0,0,0,.581-.6V-4.7h-.957Q-41.3-4.7-41.3-3.154a.942.942,0,0,0,.3.728A1.1,1.1,0,0,0-40.225-2.148Zm11.191-.2a1.464,1.464,0,0,0,1.074-.376,1.379,1.379,0,0,0,.371-1.05H-24.5A3.653,3.653,0,0,1-25.747-.918,4.631,4.631,0,0,1-28.955.2,4.689,4.689,0,0,1-32.588-1.25a5.7,5.7,0,0,1-1.328-4v-.137a6.436,6.436,0,0,1,.591-2.827,4.3,4.3,0,0,1,1.7-1.885,5.081,5.081,0,0,1,2.637-.659,4.573,4.573,0,0,1,3.271,1.143,4.053,4.053,0,0,1,1.211,3.1h-3.086a1.807,1.807,0,0,0-.4-1.26,1.382,1.382,0,0,0-1.074-.439q-1.279,0-1.494,1.631a11.508,11.508,0,0,0-.068,1.426,4.52,4.52,0,0,0,.381,2.207A1.319,1.319,0,0,0-29.033-2.344ZM-19.639,0h-3.3V-10.566h3.3Zm-3.5-13.291a1.469,1.469,0,0,1,.508-1.152,1.916,1.916,0,0,1,1.318-.449,1.916,1.916,0,0,1,1.318.449,1.469,1.469,0,0,1,.508,1.152,1.469,1.469,0,0,1-.508,1.152,1.916,1.916,0,0,1-1.318.449,1.916,1.916,0,0,1-1.318-.449A1.469,1.469,0,0,1-23.135-13.291Zm5.107,7.91A6.236,6.236,0,0,1-17.412-8.2a4.4,4.4,0,0,1,1.768-1.9,5.323,5.323,0,0,1,2.705-.664A4.858,4.858,0,0,1-9.2-9.292a5.64,5.64,0,0,1,1.367,4v.117A5.472,5.472,0,0,1-9.2-1.255,4.871,4.871,0,0,1-12.92.2a4.927,4.927,0,0,1-3.623-1.353,5.29,5.29,0,0,1-1.475-3.667Zm3.291.205a3.932,3.932,0,0,0,.459,2.148,1.529,1.529,0,0,0,1.357.684q1.758,0,1.8-2.705v-.332q0-2.842-1.816-2.842-1.65,0-1.787,2.451ZM-12.49-15h3.477l-2.715,3.066-2.686,0Zm9.131,4.434.107,1.24A3.583,3.583,0,0,1-.234-10.762a3.015,3.015,0,0,1,2.466.986,4.7,4.7,0,0,1,.845,2.969V0h-3.3V-6.67A1.783,1.783,0,0,0-.547-7.847a1.491,1.491,0,0,0-1.172-.376,1.569,1.569,0,0,0-1.436.762V0H-6.445V-10.566ZM9.463-5.361a6.455,6.455,0,0,1,1.084-3.955,3.568,3.568,0,0,1,3.027-1.445,3.035,3.035,0,0,1,2.383,1.113V-15h3.3V0H16.3l-.166-1.133A3.116,3.116,0,0,1,13.555.2,3.562,3.562,0,0,1,10.566-1.25,6.659,6.659,0,0,1,9.463-5.361Zm3.291.205q0,2.813,1.641,2.813a1.62,1.62,0,0,0,1.563-.918V-7.285a1.576,1.576,0,0,0-1.543-.937q-1.523,0-1.65,2.461ZM26.24.2A5.432,5.432,0,0,1,22.3-1.255a5.008,5.008,0,0,1-1.5-3.774V-5.3a6.489,6.489,0,0,1,.6-2.861,4.395,4.395,0,0,1,1.753-1.919,5.292,5.292,0,0,1,2.734-.679A4.574,4.574,0,0,1,29.4-9.38a5.43,5.43,0,0,1,1.289,3.853v1.279H24.15a2.372,2.372,0,0,0,.771,1.4,2.3,2.3,0,0,0,1.543.508,2.958,2.958,0,0,0,2.441-1.094l1.5,1.777A4.2,4.2,0,0,1,28.667-.308,5.891,5.891,0,0,1,26.24.2Zm-.371-8.418q-1.445,0-1.719,1.914h3.32v-.254a1.63,1.63,0,0,0-.4-1.226A1.593,1.593,0,0,0,25.869-8.223Zm11.68,5.254a.76.76,0,0,0-.439-.674,6.685,6.685,0,0,0-1.67-.527,7.615,7.615,0,0,1-2.031-.718,3.4,3.4,0,0,1-1.221-1.079,2.577,2.577,0,0,1-.42-1.455,2.92,2.92,0,0,1,1.2-2.4,4.948,4.948,0,0,1,3.145-.942,5.482,5.482,0,0,1,3.359.947,2.962,2.962,0,0,1,1.27,2.49h-3.3q0-1.27-1.338-1.27a1.326,1.326,0,0,0-.869.288.892.892,0,0,0-.352.718.819.819,0,0,0,.43.713,4.06,4.06,0,0,0,1.372.449,11.857,11.857,0,0,1,1.655.42,3.007,3.007,0,0,1,2.383,2.939A2.767,2.767,0,0,1,39.438-.713,5.632,5.632,0,0,1,36.113.2a5.747,5.747,0,0,1-2.422-.488,4.05,4.05,0,0,1-1.66-1.328,3.007,3.007,0,0,1-.6-1.768h3.076A1.272,1.272,0,0,0,35-2.319a2.009,2.009,0,0,0,1.2.337,1.58,1.58,0,0,0,1.011-.273A.875.875,0,0,0,37.549-2.969Zm9.18.625A1.464,1.464,0,0,0,47.8-2.72a1.379,1.379,0,0,0,.371-1.05H51.26A3.653,3.653,0,0,1,50.015-.918,4.631,4.631,0,0,1,46.807.2,4.689,4.689,0,0,1,43.174-1.25a5.7,5.7,0,0,1-1.328-4v-.137a6.436,6.436,0,0,1,.591-2.827,4.3,4.3,0,0,1,1.7-1.885,5.081,5.081,0,0,1,2.637-.659,4.573,4.573,0,0,1,3.271,1.143,4.053,4.053,0,0,1,1.211,3.1H48.174a1.807,1.807,0,0,0-.4-1.26A1.382,1.382,0,0,0,46.7-8.223q-1.279,0-1.494,1.631a11.507,11.507,0,0,0-.068,1.426,4.52,4.52,0,0,0,.381,2.207A1.319,1.319,0,0,0,46.729-2.344ZM57.764.2a5.432,5.432,0,0,1-3.936-1.45,5.008,5.008,0,0,1-1.5-3.774V-5.3a6.489,6.489,0,0,1,.6-2.861,4.395,4.395,0,0,1,1.753-1.919,5.292,5.292,0,0,1,2.734-.679A4.574,4.574,0,0,1,60.928-9.38a5.43,5.43,0,0,1,1.289,3.853v1.279H55.674a2.372,2.372,0,0,0,.771,1.4,2.3,2.3,0,0,0,1.543.508A2.958,2.958,0,0,0,60.43-3.437l1.5,1.777A4.2,4.2,0,0,1,60.19-.308,5.891,5.891,0,0,1,57.764.2Zm-.371-8.418q-1.445,0-1.719,1.914h3.32v-.254a1.63,1.63,0,0,0-.4-1.226A1.593,1.593,0,0,0,57.393-8.223Zm9.17-2.344.107,1.24a3.583,3.583,0,0,1,3.018-1.436,3.015,3.015,0,0,1,2.466.986A4.7,4.7,0,0,1,73-6.807V0H69.7V-6.67a1.783,1.783,0,0,0-.322-1.177A1.491,1.491,0,0,0,68.2-8.223a1.569,1.569,0,0,0-1.436.762V0H63.477V-10.566ZM74.4-5.361a6.455,6.455,0,0,1,1.084-3.955,3.568,3.568,0,0,1,3.027-1.445A3.035,3.035,0,0,1,80.9-9.648V-15h3.3V0H81.24l-.166-1.133A3.116,3.116,0,0,1,78.5.2,3.562,3.562,0,0,1,75.508-1.25,6.659,6.659,0,0,1,74.4-5.361Zm3.291.205q0,2.813,1.641,2.813A1.62,1.62,0,0,0,80.9-3.262V-7.285a1.576,1.576,0,0,0-1.543-.937q-1.523,0-1.65,2.461ZM91.182.2a5.432,5.432,0,0,1-3.936-1.45,5.008,5.008,0,0,1-1.5-3.774V-5.3a6.489,6.489,0,0,1,.6-2.861A4.395,4.395,0,0,1,88.1-10.083a5.292,5.292,0,0,1,2.734-.679A4.574,4.574,0,0,1,94.346-9.38a5.43,5.43,0,0,1,1.289,3.853v1.279H89.092a2.372,2.372,0,0,0,.771,1.4,2.3,2.3,0,0,0,1.543.508,2.958,2.958,0,0,0,2.441-1.094l1.5,1.777A4.2,4.2,0,0,1,93.608-.308,5.891,5.891,0,0,1,91.182.2Zm-.371-8.418q-1.445,0-1.719,1.914h3.32v-.254a1.63,1.63,0,0,0-.4-1.226A1.593,1.593,0,0,0,90.811-8.223Zm9.17-2.344.107,1.24a3.583,3.583,0,0,1,3.018-1.436,3.015,3.015,0,0,1,2.466.986,4.7,4.7,0,0,1,.845,2.969V0h-3.3V-6.67a1.783,1.783,0,0,0-.322-1.177,1.491,1.491,0,0,0-1.172-.376,1.569,1.569,0,0,0-1.436.762V0H96.895V-10.566Zm12.09-2.627v2.627h1.738v2.285H112.07v4.834a1.234,1.234,0,0,0,.215.83,1.152,1.152,0,0,0,.85.234,4.828,4.828,0,0,0,.82-.059V-.088A6.074,6.074,0,0,1,112.1.2a3.448,3.448,0,0,1-2.51-.8,3.282,3.282,0,0,1-.811-2.432V-8.281h-1.348v-2.285h1.348v-2.627ZM120.215.2a5.432,5.432,0,0,1-3.936-1.45,5.008,5.008,0,0,1-1.5-3.774V-5.3a6.489,6.489,0,0,1,.6-2.861,4.395,4.395,0,0,1,1.753-1.919,5.292,5.292,0,0,1,2.734-.679,4.574,4.574,0,0,1,3.516,1.382,5.43,5.43,0,0,1,1.289,3.853v1.279h-6.543a2.372,2.372,0,0,0,.771,1.4,2.3,2.3,0,0,0,1.543.508,2.958,2.958,0,0,0,2.441-1.094l1.5,1.777a4.2,4.2,0,0,1-1.743,1.353A5.891,5.891,0,0,1,120.215.2Zm-.371-8.418q-1.445,0-1.719,1.914h3.32v-.254a1.63,1.63,0,0,0-.4-1.226A1.593,1.593,0,0,0,119.844-8.223Z" transform="translate(1060.999 3278.138)" fill="#12263f"/>
    <g id="Grupo_149674" data-name="Grupo 149674" transform="translate(905.571 2879.068)">
      <g id="Grupo_149673" data-name="Grupo 149673" clip-path="url(#clip-path)">
        <rect id="Rectángulo_45198" data-name="Rectángulo 45198" width="24.864" height="2.995" transform="translate(260.206 161.871) rotate(-66.306)" fill="#e8eaed"/>
        <g id="Grupo_149609" data-name="Grupo 149609">
          <g id="Grupo_149608" data-name="Grupo 149608" clip-path="url(#clip-path)">
            <path id="Trazado_215132" data-name="Trazado 215132" d="M316.158,140.747l.622,3.647a2.9,2.9,0,0,0,2.391,2.377l2.9.477a2.428,2.428,0,0,1,1.791,1.354,25.913,25.913,0,0,0,3.152,5,2.429,2.429,0,0,1,.448,2.2l-.825,2.822a2.9,2.9,0,0,0,1.109,3.184l3.017,2.138a2.9,2.9,0,0,0,3.372-.009l2.389-1.714a2.43,2.43,0,0,1,2.227-.308,25.922,25.922,0,0,0,5.766,1.314,2.429,2.429,0,0,1,1.871,1.24l1.411,2.576a2.9,2.9,0,0,0,3.035,1.467l3.646-.622a2.9,2.9,0,0,0,2.377-2.391l.477-2.9a2.429,2.429,0,0,1,1.354-1.791,25.946,25.946,0,0,0,5-3.152,2.43,2.43,0,0,1,2.2-.448l2.821.824a2.9,2.9,0,0,0,3.185-1.108l2.138-3.018a2.905,2.905,0,0,0-.01-3.372l-1.713-2.388a2.429,2.429,0,0,1-.308-2.227,25.965,25.965,0,0,0,1.314-5.766,2.425,2.425,0,0,1,1.24-1.871l2.575-1.411a2.9,2.9,0,0,0,1.467-3.035l-.622-3.646a2.9,2.9,0,0,0-2.39-2.376l-2.9-.478a2.428,2.428,0,0,1-1.79-1.354,25.885,25.885,0,0,0-3.152-5,2.432,2.432,0,0,1-.448-2.2l.825-2.822a2.9,2.9,0,0,0-1.108-3.183L364,110.639a2.905,2.905,0,0,0-3.372.01l-2.389,1.713a2.429,2.429,0,0,1-2.226.308,25.981,25.981,0,0,0-5.767-1.314,2.424,2.424,0,0,1-1.871-1.24l-1.411-2.577a2.9,2.9,0,0,0-3.035-1.467l-3.646.621a2.905,2.905,0,0,0-2.377,2.392l-.477,2.9a2.423,2.423,0,0,1-1.354,1.79,26,26,0,0,0-5,3.152,2.431,2.431,0,0,1-2.2.449l-2.821-.824a2.9,2.9,0,0,0-3.185,1.108l-2.138,3.018a2.906,2.906,0,0,0,.01,3.372l1.713,2.389a2.427,2.427,0,0,1,.309,2.226,25.875,25.875,0,0,0-1.314,5.767,2.431,2.431,0,0,1-1.24,1.871l-2.576,1.41a2.9,2.9,0,0,0-1.467,3.035m9.748-1.987a21.524,21.524,0,1,1,22.938,20.011,21.522,21.522,0,0,1-22.938-20.011" transform="translate(-67.788 -22.737)" fill="#aab1ba"/>
            <rect id="Rectángulo_45199" data-name="Rectángulo 45199" width="2.995" height="40.64" transform="translate(259.38 49.895) rotate(-12.506)" fill="#e8eaed"/>
            <rect id="Rectángulo_45200" data-name="Rectángulo 45200" width="29.286" height="2.995" transform="translate(213.596 38.581) rotate(-6.341)" fill="#e8eaed"/>
            <path id="Trazado_215133" data-name="Trazado 215133" d="M303.6,33.774l.46,2.7a2.145,2.145,0,0,0,1.767,1.757l2.142.353a1.792,1.792,0,0,1,1.323,1,19.193,19.193,0,0,0,2.33,3.7,1.8,1.8,0,0,1,.331,1.628l-.61,2.085a2.147,2.147,0,0,0,.819,2.354l2.231,1.581a2.147,2.147,0,0,0,2.492-.007l1.765-1.266a1.8,1.8,0,0,1,1.647-.228,19.138,19.138,0,0,0,4.262.971,1.8,1.8,0,0,1,1.383.917l1.042,1.9a2.147,2.147,0,0,0,2.244,1.084l2.694-.46a2.145,2.145,0,0,0,1.757-1.768l.353-2.141a1.8,1.8,0,0,1,1-1.324,19.128,19.128,0,0,0,3.7-2.329,1.8,1.8,0,0,1,1.628-.332l2.086.61a2.147,2.147,0,0,0,2.354-.819l1.58-2.23a2.146,2.146,0,0,0-.007-2.493L345.1,39.249a1.8,1.8,0,0,1-.228-1.646,19.151,19.151,0,0,0,.972-4.262,1.792,1.792,0,0,1,.917-1.383l1.9-1.042a2.147,2.147,0,0,0,1.085-2.244l-.46-2.694a2.146,2.146,0,0,0-1.767-1.757l-2.141-.352a1.8,1.8,0,0,1-1.324-1,19.2,19.2,0,0,0-2.33-3.7,1.8,1.8,0,0,1-.331-1.628l.61-2.085a2.147,2.147,0,0,0-.819-2.354l-2.231-1.581a2.145,2.145,0,0,0-2.492.008L334.7,12.8a1.8,1.8,0,0,1-1.646.228,19.156,19.156,0,0,0-4.262-.972,1.794,1.794,0,0,1-1.383-.917l-1.043-1.9a2.145,2.145,0,0,0-2.243-1.085l-2.7.46a2.146,2.146,0,0,0-1.757,1.768l-.353,2.141a1.8,1.8,0,0,1-1,1.324,19.164,19.164,0,0,0-3.7,2.329,1.8,1.8,0,0,1-1.628.332l-2.086-.61a2.147,2.147,0,0,0-2.354.819L306.97,18.94a2.147,2.147,0,0,0,.008,2.492l1.266,1.765a1.8,1.8,0,0,1,.228,1.646A19.2,19.2,0,0,0,307.5,29.1a1.792,1.792,0,0,1-.917,1.383l-1.9,1.042a2.147,2.147,0,0,0-1.085,2.244M310.8,32.3A15.909,15.909,0,1,1,327.754,47.1,15.908,15.908,0,0,1,310.8,32.3" transform="translate(-65.096 -1.74)" fill="#aab1ba"/>
            <rect id="Rectángulo_45201" data-name="Rectángulo 45201" width="2.995" height="37.873" transform="matrix(0.288, -0.958, 0.958, 0.288, 79.399, 46.734)" fill="#e8eaed"/>
            <path id="Trazado_215134" data-name="Trazado 215134" d="M16.078,24.7l-1.266,4.345a3.554,3.554,0,0,0,1.359,3.9L19.1,35.019a2.968,2.968,0,0,1,1.246,2.448,31.723,31.723,0,0,0,.791,7.194,2.974,2.974,0,0,1-.687,2.664l-2.417,2.664a3.552,3.552,0,0,0-.484,4.1l2.177,3.969a3.553,3.553,0,0,0,3.716,1.793l3.545-.608a2.973,2.973,0,0,1,2.615.853,31.731,31.731,0,0,0,5.642,4.532,2.972,2.972,0,0,1,1.4,2.367l.174,3.589a3.554,3.554,0,0,0,2.555,3.239l4.346,1.267a3.554,3.554,0,0,0,3.9-1.36l2.075-2.933a2.972,2.972,0,0,1,2.449-1.246,31.715,31.715,0,0,0,7.193-.79,2.975,2.975,0,0,1,2.665.686l2.663,2.418a3.554,3.554,0,0,0,4.1.484l3.968-2.177a3.554,3.554,0,0,0,1.793-3.716l-.607-3.545a2.973,2.973,0,0,1,.853-2.615,31.736,31.736,0,0,0,4.532-5.643,2.972,2.972,0,0,1,2.366-1.4l3.589-.174a3.552,3.552,0,0,0,3.24-2.555l1.266-4.346A3.551,3.551,0,0,0,88.4,42.285L85.463,40.21a2.971,2.971,0,0,1-1.246-2.449,31.72,31.72,0,0,0-.79-7.193,2.974,2.974,0,0,1,.686-2.664L86.53,25.24a3.554,3.554,0,0,0,.485-4.1l-2.177-3.968a3.554,3.554,0,0,0-3.716-1.793l-3.545.607a2.973,2.973,0,0,1-2.616-.852A31.742,31.742,0,0,0,69.319,10.6a2.967,2.967,0,0,1-1.4-2.366l-.174-3.589a3.553,3.553,0,0,0-2.555-3.24L60.849.142A3.553,3.553,0,0,0,56.954,1.5L54.879,4.435A2.973,2.973,0,0,1,52.43,5.681a31.676,31.676,0,0,0-7.193.79,2.976,2.976,0,0,1-2.665-.687L39.909,3.368a3.554,3.554,0,0,0-4.1-.484L31.844,5.061A3.554,3.554,0,0,0,30.05,8.776l.607,3.545a2.973,2.973,0,0,1-.853,2.615,31.8,31.8,0,0,0-4.532,5.642,2.971,2.971,0,0,1-2.366,1.4l-3.589.174a3.554,3.554,0,0,0-3.24,2.555m11.791,3.029A26.339,26.339,0,1,1,42.4,62.029a26.338,26.338,0,0,1-14.533-34.3" transform="translate(-3.146 0)" fill="#e8eaed"/>
            <path id="Trazado_215135" data-name="Trazado 215135" d="M61.932,59.2a1.8,1.8,0,0,1,2.918-1.8c13.516,11.475,46.349,46.222,41.8,110.047-5.712,80.077,12.322,108.289,33.847,124.97,0,0-28.759-6.911-48.067-35.488C45.022,186.764,69.618,89.276,61.932,59.2" transform="translate(-13.268 -12.215)" fill="#aab1ba"/>
            <g id="Grupo_149604" data-name="Grupo 149604" transform="translate(59.72 70.776)" style="mix-blend-mode: soft-light;isolation: isolate">
              <g id="Grupo_149603" data-name="Grupo 149603">
                <g id="Grupo_149602" data-name="Grupo 149602" clip-path="url(#clip-path-3)">
                  <path id="Trazado_215136" data-name="Trazado 215136" d="M76.035,90.67c2.059,8.779,3.943,17.595,5.5,26.467q2.409,13.293,4,26.7c1.022,8.939,1.877,17.9,2.35,26.876.513,8.977.64,17.966.736,26.991.146,9.021.243,18.108,1.269,27.213a91.479,91.479,0,0,0,6.852,26.653c.93,2.108,1.9,4.206,2.987,6.226,1.049,2.042,2.188,4.036,3.362,6.01a94.841,94.841,0,0,0,28.165,29.872,1.743,1.743,0,0,0,2.024-2.838l-.005,0c-1.794-1.316-3.572-2.651-5.283-4.061-.868-.691-1.7-1.42-2.551-2.132-.82-.744-1.669-1.456-2.466-2.224a92,92,0,0,1-9.022-9.708,100.749,100.749,0,0,1-13.689-22.662,87.816,87.816,0,0,1-4.285-12.508,99.5,99.5,0,0,1-2.42-13.057c-1.064-8.834-1.234-17.828-1.445-26.847s-.509-18.083-1.167-27.12q-.476-6.778-1.194-13.534c-.226-2.252-.5-4.5-.762-6.749q-.431-3.369-.906-6.73-1.932-13.443-4.691-26.735c-1.884-8.847-4-17.641-6.455-26.338a.467.467,0,0,0-.9.233" transform="translate(-76.023 -90.096)" fill="#fff"/>
                </g>
              </g>
            </g>
            <path id="Trazado_215137" data-name="Trazado 215137" d="M77.225,302.983a4.53,4.53,0,0,1-7.05,2.619c-14.435-10.331-52.608-43.23-56.361-104.4-3.169-51.651-9.8-79.357-13.675-91.727a2.84,2.84,0,0,1,4.388-3.141c24.421,17.841,99.443,83.179,72.7,196.644" transform="translate(0 -22.683)" fill="#586678"/>
            <g id="Grupo_149607" data-name="Grupo 149607" transform="translate(24.929 137.984)" style="mix-blend-mode: soft-light;isolation: isolate">
              <g id="Grupo_149606" data-name="Grupo 149606">
                <g id="Grupo_149605" data-name="Grupo 149605" clip-path="url(#clip-path-4)">
                  <path id="Trazado_215138" data-name="Trazado 215138" d="M79.707,318.5a1.289,1.289,0,0,1-.2.138,1.257,1.257,0,0,1-1.709-.485c-.383-.687-38.406-69.491-46.056-141.109a1.256,1.256,0,1,1,2.5-.267c7.594,71.1,45.371,139.469,45.752,140.151a1.257,1.257,0,0,1-.285,1.571" transform="translate(-31.734 -175.651)" fill="#fff"/>
                </g>
              </g>
            </g>
            <path id="Trazado_215139" data-name="Trazado 215139" d="M91.391,255.82l105.9-190.989,61.562,168.151ZM196.315,77.4,101.046,249.215,251.7,228.669Z" transform="translate(-19.598 -13.902)" fill="#fccc10"/>
            <path id="Trazado_215140" data-name="Trazado 215140" d="M347.7,257.863a55.911,55.911,0,1,1-55.911-55.911A55.91,55.91,0,0,1,347.7,257.863" transform="translate(-50.583 -43.307)" fill="#fff"/>
            <path id="Trazado_215141" data-name="Trazado 215141" d="M214.118,245.439l-.528,8.4a6.6,6.6,0,0,0,4.052,6.51l6.164,2.569a5.524,5.524,0,0,1,3.257,3.933,58.972,58.972,0,0,0,4.363,12.724,5.527,5.527,0,0,1-.159,5.11l-3.3,5.815a6.6,6.6,0,0,0,.791,7.627l5.563,6.31a6.6,6.6,0,0,0,7.468,1.739l6.182-2.545a5.526,5.526,0,0,1,5.09.482,59,59,0,0,0,12.077,5.921,5.522,5.522,0,0,1,3.494,3.724l1.777,6.438a6.606,6.606,0,0,0,5.953,4.834l8.4.527a6.6,6.6,0,0,0,6.511-4.051l2.569-6.165a5.523,5.523,0,0,1,3.932-3.256,58.956,58.956,0,0,0,12.724-4.363,5.529,5.529,0,0,1,5.111.159l5.814,3.3a6.6,6.6,0,0,0,7.628-.791l6.309-5.563a6.6,6.6,0,0,0,1.74-7.468l-2.546-6.182a5.529,5.529,0,0,1,.482-5.09A58.973,58.973,0,0,0,340.953,274a5.519,5.519,0,0,1,3.723-3.494l6.438-1.778a6.6,6.6,0,0,0,4.834-5.952l.527-8.4a6.6,6.6,0,0,0-4.05-6.51L346.26,245.3A5.524,5.524,0,0,1,343,241.371a58.911,58.911,0,0,0-4.363-12.723,5.529,5.529,0,0,1,.16-5.111l3.3-5.815a6.6,6.6,0,0,0-.79-7.627l-5.563-6.31a6.606,6.606,0,0,0-7.469-1.738l-6.182,2.545a5.53,5.53,0,0,1-5.09-.482,58.96,58.96,0,0,0-12.077-5.922,5.522,5.522,0,0,1-3.494-3.723l-1.777-6.438a6.6,6.6,0,0,0-5.952-4.834l-8.4-.528a6.6,6.6,0,0,0-6.511,4.051l-2.569,6.165a5.524,5.524,0,0,1-3.932,3.257,58.968,58.968,0,0,0-12.724,4.362,5.525,5.525,0,0,1-5.11-.159l-5.815-3.3a6.606,6.606,0,0,0-7.628.79l-6.31,5.564a6.6,6.6,0,0,0-1.738,7.468l2.545,6.182a5.528,5.528,0,0,1-.482,5.09,58.914,58.914,0,0,0-5.921,12.077,5.525,5.525,0,0,1-3.724,3.494l-6.438,1.777a6.6,6.6,0,0,0-4.834,5.952m22.616.692a48.953,48.953,0,1,1,40.32,56.277,48.953,48.953,0,0,1-40.32-56.277" transform="translate(-45.799 -39.168)" fill="#fde172"/>
          </g>
        </g>
        <g id="Grupo_149611" data-name="Grupo 149611" transform="translate(181.129 188.561)">
          <g id="Grupo_149610" data-name="Grupo 149610" clip-path="url(#clip-path-5)">
            <rect id="Rectángulo_45205" data-name="Rectángulo 45205" width="75.245" height="75.683" transform="translate(-29.958 21.963) rotate(-39.126)" fill="url(#linear-gradient)"/>
          </g>
        </g>
        <g id="Grupo_149613" data-name="Grupo 149613" transform="translate(167.695 150.133)">
          <g id="Grupo_149612" data-name="Grupo 149612" clip-path="url(#clip-path-6)">
            <path id="Trazado_215143" data-name="Trazado 215143" d="M289.236,212.12s-5.169-14.41,12.307-12.621c0,0,8.074-2.383,9.472,5.345,0,0,5.754,2.833,2.71,10.056,0,0,15.025-8.085,23.646,4.892s3.254,21.388-3.127,24.206a6.655,6.655,0,0,1,3.934,8.431c-1.777,6.41-14.114,12.322-22.652,5.872,0,0-21.285,5.581-22.773-9.761,0,0-10.885-5.235-1.9-19.2s-1.617-17.221-1.617-17.221" transform="translate(-229.304 -192.839)" fill="#394a5f"/>
            <path id="Trazado_215144" data-name="Trazado 215144" d="M291.359,259.038c3.284-1.452,12.983-4.59,23.531,2.944a5.9,5.9,0,0,1,2.42,5.62c-1.364,9.665-4.59,38.119,2.785,49.328,0,0-8.915,12.71-21.361,4.934,0,0-7.841-21.442-15.7-30.3-5.422-6.116,4.145-26.047,6.592-30.879a3.551,3.551,0,0,1,1.729-1.647" transform="translate(-228.039 -205.274)" fill="#2432ff"/>
          </g>
        </g>
        <g id="Grupo_149615" data-name="Grupo 149615" transform="translate(231.602 184.144)">
          <g id="Grupo_149614" data-name="Grupo 149614" clip-path="url(#clip-path-7)">
            <rect id="Rectángulo_45206" data-name="Rectángulo 45206" width="26.372" height="20.667" transform="translate(-6.492 21.136) rotate(-72.927)" fill="url(#linear-gradient-2)"/>
          </g>
        </g>
        <g id="Grupo_149617" data-name="Grupo 149617" transform="translate(223.046 164.924)">
          <g id="Grupo_149616" data-name="Grupo 149616" clip-path="url(#clip-path-8)">
            <rect id="Rectángulo_45207" data-name="Rectángulo 45207" width="38.251" height="39.16" transform="matrix(0.848, -0.529, 0.529, 0.848, -18.534, 8.27)" fill="url(#linear-gradient-3)"/>
          </g>
        </g>
        <g id="Grupo_149619" data-name="Grupo 149619" transform="translate(167.695 150.133)">
          <g id="Grupo_149618" data-name="Grupo 149618" clip-path="url(#clip-path-6)">
            <path id="Trazado_215148" data-name="Trazado 215148" d="M296.384,203.975s-5.884,2.2-6.389,5.05,9.265,4.207,11.929,4l3.526,10.8s5-11.209,1.742-16.911-10.808-2.943-10.808-2.943" transform="translate(-229.878 -193.73)" fill="#394a5f"/>
          </g>
        </g>
        <g id="Grupo_149621" data-name="Grupo 149621" transform="translate(239.916 175.034)">
          <g id="Grupo_149620" data-name="Grupo 149620" clip-path="url(#clip-path-10)">
            <rect id="Rectángulo_45208" data-name="Rectángulo 45208" width="12.498" height="12.181" transform="translate(-3.799 2.37) rotate(-31.959)" fill="url(#linear-gradient-4)"/>
          </g>
        </g>
        <g id="Grupo_149623" data-name="Grupo 149623" transform="translate(248.684 207.792)">
          <g id="Grupo_149622" data-name="Grupo 149622" clip-path="url(#clip-path-11)">
            <rect id="Rectángulo_45209" data-name="Rectángulo 45209" width="63.113" height="64.675" transform="matrix(0.753, -0.658, 0.658, 0.753, -28.754, 23.189)" fill="url(#linear-gradient-5)"/>
          </g>
        </g>
        <g id="Grupo_149625" data-name="Grupo 149625">
          <g id="Grupo_149624" data-name="Grupo 149624" clip-path="url(#clip-path)">
            <path id="Trazado_215152" data-name="Trazado 215152" d="M161.158,281.45a59.868,59.868,0,1,1-59.868-59.868,59.869,59.869,0,0,1,59.868,59.868" transform="translate(-8.882 -47.516)" fill="#fff"/>
            <path id="Trazado_215153" data-name="Trazado 215153" d="M24.158,269.907l-.545,8.679a6.826,6.826,0,0,0,4.188,6.73l6.373,2.656a5.708,5.708,0,0,1,3.366,4.066,60.92,60.92,0,0,0,4.511,13.153,5.716,5.716,0,0,1-.165,5.283l-3.411,6.011a6.829,6.829,0,0,0,.818,7.885l5.751,6.523a6.827,6.827,0,0,0,7.72,1.8l6.391-2.632a5.716,5.716,0,0,1,5.262.5A60.94,60.94,0,0,0,76.9,336.677a5.711,5.711,0,0,1,3.613,3.849l1.837,6.655a6.827,6.827,0,0,0,6.153,5l8.679.545a6.827,6.827,0,0,0,6.731-4.188l2.656-6.373a5.708,5.708,0,0,1,4.065-3.366,60.981,60.981,0,0,0,13.153-4.51,5.714,5.714,0,0,1,5.283.164l6.011,3.411a6.826,6.826,0,0,0,7.885-.818l6.523-5.751a6.828,6.828,0,0,0,1.8-7.72l-2.632-6.391a5.716,5.716,0,0,1,.5-5.262,60.94,60.94,0,0,0,6.121-12.485,5.708,5.708,0,0,1,3.848-3.613l6.655-1.837a6.828,6.828,0,0,0,5-6.153l.545-8.68a6.826,6.826,0,0,0-4.188-6.73l-6.373-2.656A5.708,5.708,0,0,1,157.4,265.7a60.942,60.942,0,0,0-4.511-13.153,5.714,5.714,0,0,1,.165-5.283l3.411-6.011a6.828,6.828,0,0,0-.818-7.885l-5.751-6.523a6.828,6.828,0,0,0-7.72-1.8l-6.391,2.632a5.714,5.714,0,0,1-5.262-.5,60.98,60.98,0,0,0-12.485-6.121,5.708,5.708,0,0,1-3.613-3.848l-1.837-6.655a6.828,6.828,0,0,0-6.153-5l-8.68-.545a6.826,6.826,0,0,0-6.73,4.188l-2.656,6.373a5.708,5.708,0,0,1-4.065,3.366,60.927,60.927,0,0,0-13.153,4.511,5.714,5.714,0,0,1-5.283-.165l-6.011-3.41a6.828,6.828,0,0,0-7.885.817l-6.523,5.751a6.828,6.828,0,0,0-1.8,7.72l2.631,6.391a5.713,5.713,0,0,1-.5,5.262A60.979,60.979,0,0,0,39.66,258.3a5.708,5.708,0,0,1-3.848,3.613l-6.655,1.837a6.828,6.828,0,0,0-5,6.154m23.38.715A50.606,50.606,0,1,1,89.221,328.8a50.606,50.606,0,0,1-41.683-58.177" transform="translate(-5.061 -43.96)" fill="#fccc10"/>
          </g>
        </g>
        <g id="Grupo_149627" data-name="Grupo 149627" transform="translate(120.167 261.428)">
          <g id="Grupo_149626" data-name="Grupo 149626" clip-path="url(#clip-path-13)">
            <rect id="Rectángulo_45211" data-name="Rectángulo 45211" width="18.502" height="15.757" transform="translate(-2.237)" fill="url(#linear-gradient-6)"/>
          </g>
        </g>
        <g id="Grupo_149629" data-name="Grupo 149629" transform="translate(23.504 167.929)">
          <g id="Grupo_149628" data-name="Grupo 149628" clip-path="url(#clip-path-14)">
            <path id="Trazado_215155" data-name="Trazado 215155" d="M137.947,333.281,142.46,306.4c.178.28,3.831,14.919,11.05,20.734-2.747,3.078-6,8.735-1.617,15.567-7.644-1.186-13.946-9.418-13.946-9.418" transform="translate(-53.085 -233.633)" fill="#2432ff"/>
            <path id="Trazado_215156" data-name="Trazado 215156" d="M92.741,288.167a91.221,91.221,0,0,1,38.084-2.471c2.241.321,8.035,12.4,7.173,20.8-1.461,14.219-9.22,38.083-9.5,38.157-8.948,2.376-38.427.372-38.427.372Z" transform="translate(-42.819 -228.995)" fill="#2432ff"/>
          </g>
        </g>
        <g id="Grupo_149631" data-name="Grupo 149631" transform="translate(89.812 202.066)">
          <g id="Grupo_149630" data-name="Grupo 149630" clip-path="url(#clip-path-15)">
            <rect id="Rectángulo_45212" data-name="Rectángulo 45212" width="18.197" height="26.905" transform="translate(-0.392 0.006) rotate(-0.842)" fill="url(#linear-gradient-7)"/>
          </g>
        </g>
        <g id="Grupo_149633" data-name="Grupo 149633" transform="translate(85.467 187.506)">
          <g id="Grupo_149632" data-name="Grupo 149632" clip-path="url(#clip-path-16)">
            <rect id="Rectángulo_45213" data-name="Rectángulo 45213" width="38.117" height="38.633" transform="matrix(0.565, -0.825, 0.825, 0.565, -12.691, 18.122)" fill="url(#linear-gradient-8)"/>
          </g>
        </g>
        <g id="Grupo_149635" data-name="Grupo 149635" transform="translate(23.504 167.929)">
          <g id="Grupo_149634" data-name="Grupo 149634" clip-path="url(#clip-path-14)">
            <path id="Trazado_215160" data-name="Trazado 215160" d="M114.58,253.184l.72-.28s-5.327-4.93-3.137-7.011,11.694-8.193,12.5-12.719c.776-4.365-2.91-8.181-6.27-8.345a.411.411,0,0,0-.417.369l-.064.541a.414.414,0,0,1-.742.2.413.413,0,0,0-.734.163c-.257,1.36-1.411,3.857-6.006,6.694-6.521,4.024-10.061,8.669-8.289,13.569a.415.415,0,0,1-.475.549c-.642-.115-1.529.059-2.276,1.423-1.3,2.371,1.124,6.271,6.7,8.09a.412.412,0,0,1,.222.627c-.573.8-1.255,2.427,2.321,2.86,3.658.443,5.381-.43,5.991-.866a.414.414,0,0,0,.137-.513l-1.936-4.2a.415.415,0,0,1,.226-.561Z" transform="translate(-44.743 -216.141)" fill="#394a5f"/>
          </g>
        </g>
        <g id="Grupo_149637" data-name="Grupo 149637" transform="translate(87.536 202.371)">
          <g id="Grupo_149636" data-name="Grupo 149636" clip-path="url(#clip-path-18)">
            <rect id="Rectángulo_45214" data-name="Rectángulo 45214" width="10.407" height="10.756" transform="translate(-4.858 4.726) rotate(-55.603)" fill="url(#linear-gradient-9)"/>
          </g>
        </g>
        <g id="Grupo_149639" data-name="Grupo 149639" transform="translate(23.504 167.929)">
          <g id="Grupo_149638" data-name="Grupo 149638" clip-path="url(#clip-path-14)">
            <path id="Trazado_215163" data-name="Trazado 215163" d="M88.877,330.513c-.9-6.352,5.678-15.69,8.4-19.233a5.893,5.893,0,0,0,1.225-3.531c.079-9-3.7-14.774-9.751-18.653,0,0-21.967,25.592-16.373,45.277A16.562,16.562,0,0,0,75.1,339.89c.881-7.417,9.455-9.035,13.776-9.377" transform="translate(-38.829 -229.923)" fill="#2432ff"/>
            <path id="Trazado_215164" data-name="Trazado 215164" d="M93.923,334.042l-.837-.1c.709-6.229,6.175-13.92,8.493-16.937l.669.513c-2.275,2.962-7.639,10.5-8.325,16.52" transform="translate(-43.465 -235.909)" fill="#586678"/>
          </g>
        </g>
        <g id="Grupo_149641" data-name="Grupo 149641" transform="translate(60.323 268.519)">
          <g id="Grupo_149640" data-name="Grupo 149640" clip-path="url(#clip-path-20)">
            <rect id="Rectángulo_45215" data-name="Rectángulo 45215" width="40.213" height="29.47" transform="matrix(0.935, -0.355, 0.355, 0.935, -5.891, 2.238)" fill="url(#linear-gradient-10)"/>
          </g>
        </g>
        <g id="Grupo_149643" data-name="Grupo 149643" transform="translate(94.161 279.147)">
          <g id="Grupo_149642" data-name="Grupo 149642" clip-path="url(#clip-path-21)">
            <rect id="Rectángulo_45216" data-name="Rectángulo 45216" width="17.061" height="11.494" transform="matrix(0.935, -0.355, 0.355, 0.935, -2.08, 0.79)" fill="url(#linear-gradient-11)"/>
          </g>
        </g>
        <g id="Grupo_149648" data-name="Grupo 149648" transform="translate(23.504 167.929)">
          <g id="Grupo_149647" data-name="Grupo 149647" clip-path="url(#clip-path-14)">
            <path id="Trazado_215168" data-name="Trazado 215168" d="M171.65,307l-4.807,29.3a1.33,1.33,0,0,1-.949,1.07,19.352,19.352,0,0,1-11.011-.054,1.824,1.824,0,0,1-1.194-1.423L148.6,306.371Z" transform="translate(-55.368 -233.627)" fill="#aab1ba"/>
            <path id="Trazado_215169" data-name="Trazado 215169" d="M171.988,303.753l-1.1-2.445a.716.716,0,0,0-.592-.423c-2.136-.184-11.964-.947-18.4-.057a1.1,1.1,0,0,0-.867.672l-.855,2.054Z" transform="translate(-55.707 -232.348)" fill="#586678"/>
            <path id="Trazado_215170" data-name="Trazado 215170" d="M172.237,304.529l.205,2.019a.878.878,0,0,1-.808.969c-3.72.255-17.981,1.082-23.77-.767a.831.831,0,0,1-.543-1l.272-1.037a1.308,1.308,0,0,1,1.266-.983l22.579.072a.808.808,0,0,1,.8.73" transform="translate(-55.089 -233.06)" fill="#aab1ba"/>
            <path id="Trazado_215171" data-name="Trazado 215171" d="M170.636,316.148s-13.194,2.116-20.521,0L150,315.5l-.39.41a.86.86,0,0,0-.222.747l2.145,11.7s9.242,2.222,17.581.142l2.083-11.835a1.154,1.154,0,0,0-.211-.928l-.234-.308Z" transform="translate(-55.536 -235.569)" fill="#586678"/>
            <g id="Grupo_149646" data-name="Grupo 149646" transform="translate(94.835 81.493)" style="mix-blend-mode: soft-light;isolation: isolate">
              <g id="Grupo_149645" data-name="Grupo 149645">
                <g id="Grupo_149644" data-name="Grupo 149644" clip-path="url(#clip-path-23)">
                  <path id="Trazado_215172" data-name="Trazado 215172" d="M162.339,329.41a.251.251,0,0,1-.246-.255l.2-10.7a.247.247,0,0,1,.255-.247.251.251,0,0,1,.247.255l-.2,10.7a.25.25,0,0,1-.251.246Zm-2.528-.031a.251.251,0,0,1-.246-.254l.2-10.575a.251.251,0,1,1,.5.009l-.2,10.575a.251.251,0,0,1-.251.246Zm5.058-.115a.251.251,0,0,1-.246-.255l.2-10.719a.237.237,0,0,1,.255-.246.251.251,0,0,1,.246.255l-.2,10.718a.25.25,0,0,1-.251.247Zm-8.062-.071a.251.251,0,0,1-.246-.255l.193-10.414a.269.269,0,0,1,.255-.246.251.251,0,0,1,.246.255l-.193,10.415a.25.25,0,0,1-.251.246Zm10.051-.169a.251.251,0,0,1-.245-.256l.236-10.669a.244.244,0,0,1,.256-.245.251.251,0,0,1,.245.256l-.236,10.669a.251.251,0,0,1-.251.245Zm-12.946-.431-.757-10.34a.25.25,0,0,1,.232-.268.245.245,0,0,1,.268.232l.756,10.34a.251.251,0,0,1-.232.269h-.019a.25.25,0,0,1-.249-.232m14.43.162a.251.251,0,0,1-.228-.271l.907-10.668a.251.251,0,0,1,.5.042l-.907,10.669a.25.25,0,0,1-.249.229h-.022m-16.4-.508-1.3-10.456a.251.251,0,0,1,.218-.28.248.248,0,0,1,.28.218l1.3,10.457a.25.25,0,0,1-.218.279l-.031,0a.251.251,0,0,1-.248-.22" transform="translate(-150.642 -317.508)" fill="#fff"/>
                </g>
              </g>
            </g>
          </g>
        </g>
        <g id="Grupo_149650" data-name="Grupo 149650" transform="translate(131.622 254.056)">
          <g id="Grupo_149649" data-name="Grupo 149649" clip-path="url(#clip-path-24)">
            <rect id="Rectángulo_45218" data-name="Rectángulo 45218" width="12.324" height="15.526" transform="translate(-1.748)" fill="url(#linear-gradient-12)"/>
          </g>
        </g>
        <g id="Grupo_149652" data-name="Grupo 149652">
          <g id="Grupo_149651" data-name="Grupo 149651" clip-path="url(#clip-path)">
            <path id="Trazado_215175" data-name="Trazado 215175" d="M250.768,75.7a55.911,55.911,0,1,1-55.911-55.911A55.91,55.91,0,0,1,250.768,75.7" transform="translate(-29.796 -4.244)" fill="#fff"/>
            <path id="Trazado_215176" data-name="Trazado 215176" d="M255.485,57.4l-6.27-1.731a5.379,5.379,0,0,1-3.626-3.4,57.484,57.484,0,0,0-5.768-11.763,5.383,5.383,0,0,1-.469-4.958l2.479-6.021a6.431,6.431,0,0,0-1.694-7.274l-6.145-5.42a6.434,6.434,0,0,0-7.429-.769L220.9,19.278a5.387,5.387,0,0,1-4.977.154,57.517,57.517,0,0,0-12.393-4.248,5.383,5.383,0,0,1-3.83-3.172l-2.5-6.006a6.433,6.433,0,0,0-6.341-3.946l-8.178.515a6.433,6.433,0,0,0-5.8,4.708l-1.731,6.27a5.378,5.378,0,0,1-3.4,3.627,57.447,57.447,0,0,0-11.764,5.767,5.386,5.386,0,0,1-4.958.47L149,20.938a6.431,6.431,0,0,0-7.274,1.694l-5.419,6.145a6.433,6.433,0,0,0-.771,7.429l3.214,5.664a5.383,5.383,0,0,1,.156,4.977,57.436,57.436,0,0,0-4.25,12.393,5.379,5.379,0,0,1-3.172,3.83l-6,2.5a6.432,6.432,0,0,0-3.945,6.341l.514,8.178a6.434,6.434,0,0,0,4.709,5.8l6.27,1.731a5.377,5.377,0,0,1,3.626,3.4,57.4,57.4,0,0,0,5.767,11.763,5.381,5.381,0,0,1,.469,4.958l-2.479,6.021a6.433,6.433,0,0,0,1.694,7.274l6.145,5.419a6.433,6.433,0,0,0,7.429.771l5.663-3.214a5.382,5.382,0,0,1,4.978-.155,57.448,57.448,0,0,0,12.393,4.249,5.38,5.38,0,0,1,3.83,3.172l2.5,6a6.434,6.434,0,0,0,6.341,3.947l8.178-.514a6.431,6.431,0,0,0,5.8-4.709l1.731-6.27a5.384,5.384,0,0,1,3.4-3.627,57.446,57.446,0,0,0,11.764-5.767,5.385,5.385,0,0,1,4.958-.469l6.021,2.479a6.433,6.433,0,0,0,7.274-1.694l5.419-6.145a6.432,6.432,0,0,0,.77-7.429l-3.213-5.662a5.383,5.383,0,0,1-.156-4.977,57.392,57.392,0,0,0,4.249-12.393,5.378,5.378,0,0,1,3.172-3.831l6-2.5a6.432,6.432,0,0,0,3.946-6.341l-.514-8.178a6.432,6.432,0,0,0-4.709-5.8M198.892,118.69a47.681,47.681,0,1,1,39.273-54.813,47.681,47.681,0,0,1-39.273,54.813" transform="translate(-26.06 -0.439)" fill="#586678"/>
          </g>
        </g>
        <g id="Grupo_149654" data-name="Grupo 149654" transform="translate(111.536 17.802)">
          <g id="Grupo_149653" data-name="Grupo 149653" clip-path="url(#clip-path-26)">
            <path id="Trazado_215177" data-name="Trazado 215177" d="M215.587,79.026s20.608,37.265,50.131,39.961l1.574,4.44s-40.684,7.944-61.525-25.571Z" transform="translate(-155.66 -34.749)" fill="#fccc10"/>
          </g>
        </g>
        <g id="Grupo_149656" data-name="Grupo 149656" transform="translate(220.704 99.022)">
          <g id="Grupo_149655" data-name="Grupo 149655" clip-path="url(#clip-path-27)">
            <rect id="Rectángulo_45220" data-name="Rectángulo 45220" width="26.759" height="14.322" transform="translate(-1.697 0.097) rotate(-5.158)" fill="url(#linear-gradient-13)"/>
          </g>
        </g>
        <g id="Grupo_149658" data-name="Grupo 149658" transform="translate(111.536 17.802)">
          <g id="Grupo_149657" data-name="Grupo 149657" clip-path="url(#clip-path-26)">
            <path id="Trazado_215180" data-name="Trazado 215180" d="M200.089,138.493s19.1-52.336,4.065-64.223c0,0-22.541-3.637-38.931,2.579l1.87,47.993s12.027,21.145,33,13.651" transform="translate(-146.966 -33.502)" fill="#fccc10"/>
          </g>
        </g>
        <g id="Grupo_149660" data-name="Grupo 149660" transform="translate(143.785 34.65)">
          <g id="Grupo_149659" data-name="Grupo 149659" clip-path="url(#clip-path-29)">
            <rect id="Rectángulo_45221" data-name="Rectángulo 45221" width="20.676" height="29.669" transform="translate(-0.201 0)" fill="url(#linear-gradient-14)"/>
          </g>
        </g>
        <g id="Grupo_149662" data-name="Grupo 149662" transform="translate(123.587 99.805)">
          <g id="Grupo_149661" data-name="Grupo 149661" clip-path="url(#clip-path-30)">
            <rect id="Rectángulo_45222" data-name="Rectángulo 45222" width="41.072" height="17.888" transform="translate(0 0)" fill="url(#linear-gradient-15)"/>
          </g>
        </g>
        <g id="Grupo_149664" data-name="Grupo 149664" transform="translate(111.536 17.802)">
          <g id="Grupo_149663" data-name="Grupo 149663" clip-path="url(#clip-path-26)">
            <path id="Trazado_215184" data-name="Trazado 215184" d="M161.834,77.841c12.077,4.282,10.329,13.767,10.329,13.767s-5.573,16.019-5.672,24.889c-3.245.3-8.612,2.1-10.864,10.347-.3-.314-.6-.638-.9-.98-15.226-17.643,7.1-48.024,7.1-48.024" transform="translate(-143.576 -34.495)" fill="#fccc10"/>
          </g>
        </g>
        <g id="Grupo_149666" data-name="Grupo 149666" transform="translate(133.98 76.422)">
          <g id="Grupo_149665" data-name="Grupo 149665" clip-path="url(#clip-path-32)">
            <rect id="Rectángulo_45223" data-name="Rectángulo 45223" width="12.187" height="24.592" transform="translate(-6.163 1.714) rotate(-15.55)" fill="url(#linear-gradient-16)"/>
          </g>
        </g>
        <g id="Grupo_149668" data-name="Grupo 149668" transform="translate(157.07 25.004)">
          <g id="Grupo_149667" data-name="Grupo 149667" clip-path="url(#clip-path-33)">
            <rect id="Rectángulo_45224" data-name="Rectángulo 45224" width="33.803" height="32.524" transform="translate(-12.968 17.156) rotate(-52.914)" fill="url(#linear-gradient-17)"/>
          </g>
        </g>
        <g id="Grupo_149670" data-name="Grupo 149670" transform="translate(111.536 17.802)">
          <g id="Grupo_149669" data-name="Grupo 149669" clip-path="url(#clip-path-26)">
            <path id="Trazado_215188" data-name="Trazado 215188" d="M205.059,35.289l-3.219,11.4a1.614,1.614,0,0,0-.063.445c0,.929.229,4.129,3.488,3.694,2.956-.4,5.661-.711,7.38.1a1.653,1.653,0,0,1,.853,2.055A71.49,71.49,0,0,1,209,63.13a1.65,1.65,0,0,1-2.123.68,53.33,53.33,0,0,1-10.7-6.3,1.655,1.655,0,0,1-.585-1.589c.547-2.916,2.177-11.784,2.249-14.325.068-2.386-2.61-4.207-3.788-4.892a1.625,1.625,0,0,1-.766-1.028c-.37-1.536-.683-5.01,3.749-5.776a1.657,1.657,0,0,0,1.344-1.971c-.375-1.836-.255-4.538,3.233-5.533,3.544-1.012,5.775,1.122,6.909,2.758a1.656,1.656,0,0,0,2.052.548,1.308,1.308,0,0,1,1.467.262,1.629,1.629,0,0,0,2.384-.362,4.941,4.941,0,0,1,6.09-2.012c5.641,1.825,5.371,8.329,3.3,11.864s-8.07,1.21-10.912-1.134c-2.16-1.781-5.45-.716-6.9-.1a1.64,1.64,0,0,0-.939,1.069" transform="translate(-152.941 -22.549)" fill="#394a5f"/>
          </g>
        </g>
        <g id="Grupo_149672" data-name="Grupo 149672" transform="translate(151.243 31.679)">
          <g id="Grupo_149671" data-name="Grupo 149671" clip-path="url(#clip-path-35)">
            <rect id="Rectángulo_45225" data-name="Rectángulo 45225" width="12.952" height="12.892" transform="matrix(0.698, -0.716, 0.716, 0.698, -5.47, 5.546)" fill="url(#linear-gradient-18)"/>
          </g>
        </g>
      </g>
    </g>
  </g>
</svg>
