<svg xmlns="http://www.w3.org/2000/svg" xmlns:xlink="http://www.w3.org/1999/xlink" width="535" height="530" viewBox="0 0 535 530">
  <defs>
    <filter id="Trazado_211532" x="0" y="0" width="535" height="530" filterUnits="userSpaceOnUse">
      <feOffset dy="3" input="SourceAlpha"/>
      <feGaussianBlur stdDeviation="5" result="blur"/>
      <feFlood flood-opacity="0.161"/>
      <feComposite operator="in" in2="blur"/>
      <feComposite in="SourceGraphic"/>
    </filter>
    <clipPath id="clip-path">
      <rect id="Rectángulo_45197" data-name="Rectángulo 45197" width="279.503" height="318.508" fill="none"/>
    </clipPath>
    <clipPath id="clip-path-3">
      <path id="Trazado_215031" data-name="Trazado 215031" d="M182.558,57.88A22.745,22.745,0,1,0,205.3,35.136,22.745,22.745,0,0,0,182.558,57.88" transform="translate(-182.558 -35.136)" fill="none"/>
    </clipPath>
    <clipPath id="clip-path-4">
      <path id="Trazado_215032" data-name="Trazado 215032" d="M202.972,57.706l-.161,5.334a1.209,1.209,0,0,0,.808,1.178,10.67,10.67,0,0,0,6.864.255,1.208,1.208,0,0,0,.781-1.314l-.8-5.454Z" transform="translate(-202.81 -57.706)" fill="none"/>
    </clipPath>
    <linearGradient id="linear-gradient" x1="-20.728" y1="32.13" x2="-20.626" y2="32.13" gradientUnits="objectBoundingBox">
      <stop offset="0" stop-color="#c4421b"/>
      <stop offset="1" stop-color="#5c0e16"/>
    </linearGradient>
    <clipPath id="clip-path-5">
      <path id="Trazado_215033" data-name="Trazado 215033" d="M200.848,47.658s.314,7.207,1.567,10.026a5.116,5.116,0,0,0,4.7,2.821,7.169,7.169,0,0,0,4.7-3.133c1.567-2.507,2.194-10.654,2.194-10.654s-2.82-3.132-6.58-3.447c-.178-.015-.352-.021-.525-.021-3.495,0-6.056,2.915-6.056,4.408" transform="translate(-200.848 -43.25)" fill="none"/>
    </clipPath>
    <linearGradient id="linear-gradient-2" x1="-10.041" y1="19.139" x2="-9.991" y2="19.139" xlink:href="#linear-gradient"/>
    <clipPath id="clip-path-6">
      <path id="Trazado_215034" data-name="Trazado 215034" d="M213.552,50.7s-1.438,3.954,0,3.954,2.876-4.673,2.157-5.393a.472.472,0,0,0-.346-.146c-.754,0-1.811,1.585-1.811,1.585" transform="translate(-212.913 -49.118)" fill="none"/>
    </clipPath>
    <linearGradient id="linear-gradient-3" x1="-33.314" y1="57.571" x2="-33.156" y2="57.571" xlink:href="#linear-gradient"/>
    <clipPath id="clip-path-7">
      <path id="Trazado_215035" data-name="Trazado 215035" d="M199.2,49.266c-.719.719,1.078,5.393,2.517,5.393v-3.6s-1.377-1.926-2.2-1.926a.427.427,0,0,0-.314.129" transform="translate(-199.04 -49.137)" fill="none"/>
    </clipPath>
    <linearGradient id="linear-gradient-4" x1="-31.637" y1="74.345" x2="-31.476" y2="74.345" xlink:href="#linear-gradient"/>
    <clipPath id="clip-path-8">
      <path id="Trazado_215036" data-name="Trazado 215036" d="M206.321,36.412a5.064,5.064,0,0,0-3.953,2.872.49.49,0,0,1-.163.232.47.47,0,0,1-.252.051c-.185,0-.374,0-.568-.01a3.07,3.07,0,0,0-1.975.358,2.58,2.58,0,0,0-1.094,1.892,4.887,4.887,0,0,0,.68,2.375,1.882,1.882,0,0,1,.279,1.442,4.457,4.457,0,0,1-.216.41c-.772,1.533,1.256,3.041,1.631,4.415l.852,3.129a7.516,7.516,0,0,0,.106-2.026,23.6,23.6,0,0,1-.3-2.783,4.562,4.562,0,0,1,.488-1.932c.3-.574.839-.828,1.244-1.331a2.57,2.57,0,0,0,1.29.79,2.183,2.183,0,0,0,.949-.126c.467-.147,1.127-.672,1.579-.707s.607.437.906.688a3.379,3.379,0,0,0,3.232.472c-.23.1,1.114,2.605,1.157,2.833a26.81,26.81,0,0,1,.463,4.047c.107.079.227-.081.263-.21.244-.905.32-1.846.478-2.77a19.86,19.86,0,0,1,.941-3.026,6.594,6.594,0,0,0,.361-2.124c.009-.487-.018-.991-.043-1.565a11.529,11.529,0,0,1,.091-1.721,2.493,2.493,0,0,0-3.1-2.539.591.591,0,0,1-.364.028c-.144-.056-.208-.221-.265-.365a4.958,4.958,0,0,0-2.222-2.435,5.062,5.062,0,0,0-1.945-.4,4.692,4.692,0,0,0-.534.03" transform="translate(-198.312 -36.382)" fill="none"/>
    </clipPath>
    <linearGradient id="linear-gradient-5" x1="-9.733" y1="14.893" x2="-9.684" y2="14.893" gradientUnits="objectBoundingBox">
      <stop offset="0" stop-color="#090056"/>
      <stop offset="1" stop-color="#020039"/>
    </linearGradient>
    <clipPath id="clip-path-10">
      <path id="Trazado_215043" data-name="Trazado 215043" d="M238.253,44.349A20.842,20.842,0,1,0,259.1,23.508a20.842,20.842,0,0,0-20.842,20.841" transform="translate(-238.253 -23.508)" fill="none"/>
    </clipPath>
    <clipPath id="clip-path-11">
      <path id="Trazado_215044" data-name="Trazado 215044" d="M254.021,40.188c-.839.56,1.259,4.13,1.259,4.13l.14-3.01s-.411-1.233-1.058-1.233a.612.612,0,0,0-.341.114" transform="translate(-253.823 -40.074)" fill="none"/>
    </clipPath>
    <linearGradient id="linear-gradient-6" x1="-49.337" y1="82.583" x2="-49.141" y2="82.583" gradientUnits="objectBoundingBox">
      <stop offset="0" stop-color="#febbba"/>
      <stop offset="1" stop-color="#ff928e"/>
    </linearGradient>
    <clipPath id="clip-path-12">
      <path id="Trazado_215045" data-name="Trazado 215045" d="M264.625,41.282v2.237s2.8-1.958,1.4-3.357a1.146,1.146,0,0,0-.728-.422c-.671,0-.671,1.542-.671,1.542" transform="translate(-264.625 -39.74)" fill="none"/>
    </clipPath>
    <linearGradient id="linear-gradient-7" x1="-54.882" y1="74.158" x2="-54.674" y2="74.158" xlink:href="#linear-gradient-6"/>
    <clipPath id="clip-path-14">
      <path id="Trazado_215049" data-name="Trazado 215049" d="M257.621,46.462s.559,5.33-.559,7.847l1.832,12.469q.8.061,1.621.062a20.967,20.967,0,0,0,3.412-.278l1.246-13.093s-1.12-.288-1.679-2.246a39.83,39.83,0,0,1-.839-5.878Z" transform="translate(-257.062 -45.345)" fill="none"/>
    </clipPath>
    <linearGradient id="linear-gradient-8" x1="-10.263" y1="24.236" x2="-10.222" y2="24.236" xlink:href="#linear-gradient-6"/>
    <clipPath id="clip-path-16">
      <path id="Trazado_215054" data-name="Trazado 215054" d="M254.941,36.915s-.28,6.713.559,7.832,1.957,3.636,3.915,3.916,5.035-5.315,5.035-5.594-.28-7.552-.28-7.552a8.42,8.42,0,0,0-4.618-1.752c-1.586,0-3.293.733-4.611,3.151" transform="translate(-254.896 -33.764)" fill="none"/>
    </clipPath>
    <linearGradient id="linear-gradient-9" x1="-13.303" y1="20.653" x2="-13.25" y2="20.653" xlink:href="#linear-gradient-6"/>
    <clipPath id="clip-path-19">
      <path id="Trazado_215062" data-name="Trazado 215062" d="M192.891,118.075A23.55,23.55,0,1,0,216.44,94.524a23.55,23.55,0,0,0-23.549,23.551" transform="translate(-192.891 -94.524)" fill="none"/>
    </clipPath>
    <clipPath id="clip-path-20">
      <path id="Trazado_215063" data-name="Trazado 215063" d="M215.065,121.356l.44,7.552,6.977-1.05-.325-7.195Z" transform="translate(-215.065 -120.664)" fill="none"/>
    </clipPath>
    <linearGradient id="linear-gradient-10" x1="-19.892" y1="20.009" x2="-19.799" y2="20.009" xlink:href="#linear-gradient-6"/>
    <clipPath id="clip-path-21">
      <path id="Trazado_215064" data-name="Trazado 215064" d="M212.8,109.16c-.779,1.233-.336,3.746-.336,3.746-2.25-.052-1.058,2.478-.83,3.484s1.239.529,1.239.529c.239.506,1.579,7.543,6.1,6.646s6.2-8.367,6.2-8.367c1.612-5.868-3.558-8.59-6.791-9.414a4.4,4.4,0,0,0-1.086-.142c-2.51,0-3.81,2.432-4.5,3.519" transform="translate(-211.111 -105.641)" fill="none"/>
    </clipPath>
    <linearGradient id="linear-gradient-11" x1="-8.941" y1="11.265" x2="-8.898" y2="11.265" xlink:href="#linear-gradient-6"/>
    <clipPath id="clip-path-22">
      <path id="Trazado_215065" data-name="Trazado 215065" d="M214.6,126.139a28.628,28.628,0,0,0-4.7,1.672l10.713,6.739,5.795-6.36-4.425-2.346Z" transform="translate(-209.901 -125.844)" fill="none"/>
    </clipPath>
    <linearGradient id="linear-gradient-12" x1="-11.028" y1="18.655" x2="-10.975" y2="18.655" xlink:href="#linear-gradient-6"/>
    <clipPath id="clip-path-25">
      <path id="Trazado_215080" data-name="Trazado 215080" d="M254.107,97.37a21.186,21.186,0,1,0,21.185-21.185A21.185,21.185,0,0,0,254.107,97.37" transform="translate(-254.107 -76.185)" fill="none"/>
    </clipPath>
    <clipPath id="clip-path-26">
      <path id="Trazado_215081" data-name="Trazado 215081" d="M272.977,98.68l-1.832,6.414c3.665,2.443,9.469.916,9.469.916l-.917-7.33Z" transform="translate(-271.145 -98.68)" fill="none"/>
    </clipPath>
    <linearGradient id="linear-gradient-13" x1="-23.455" y1="20.522" x2="-23.369" y2="20.522" xlink:href="#linear-gradient-6"/>
    <clipPath id="clip-path-27">
      <path id="Trazado_215082" data-name="Trazado 215082" d="M271.145,89.363s.631,6.136,1.7,8.532a4.348,4.348,0,0,0,3.994,2.4,6.094,6.094,0,0,0,3.994-2.662c1.331-2.13,1.863-9.053,1.863-9.053a9.635,9.635,0,0,0-5.59-2.928c-.151-.013-.3-.018-.45-.018-3,0-5.505,2.465-5.505,3.733" transform="translate(-271.145 -85.63)" fill="none"/>
    </clipPath>
    <linearGradient id="linear-gradient-14" x1="-14.842" y1="16.719" x2="-14.787" y2="16.719" xlink:href="#linear-gradient-6"/>
    <clipPath id="clip-path-28">
      <path id="Trazado_215083" data-name="Trazado 215083" d="M282.334,91.962s-1.222,3.361,0,3.361,2.443-3.971,1.832-4.582a.4.4,0,0,0-.294-.125c-.642,0-1.538,1.346-1.538,1.346" transform="translate(-281.79 -90.616)" fill="none"/>
    </clipPath>
    <linearGradient id="linear-gradient-15" x1="-48.342" y1="51.553" x2="-48.169" y2="51.553" xlink:href="#linear-gradient-6"/>
    <clipPath id="clip-path-29">
      <path id="Trazado_215084" data-name="Trazado 215084" d="M270.142,90.742c-.611.611.917,4.582,2.138,4.582V92.269s-1.169-1.637-1.871-1.637a.364.364,0,0,0-.267.11" transform="translate(-270.003 -90.632)" fill="none"/>
    </clipPath>
    <linearGradient id="linear-gradient-16" x1="-48.093" y1="64.132" x2="-47.914" y2="64.132" xlink:href="#linear-gradient-6"/>
    <clipPath id="clip-path-30">
      <path id="Trazado_215085" data-name="Trazado 215085" d="M278.7,79.738c-2.822.5-5.856.394-8.027,2.529a4.181,4.181,0,0,0-1.289,3.557c.17.939,1.568,1.93.707,2.794-.608.611,1.235,1.723,1.535,3.457a2.891,2.891,0,0,0,.079.373c-.027-.888-.367-1.84-.345-2.7.043-1.768,2.71-1.892,4.014-2.01,1.735-.155,3.627-.141,5.129-1.155.61-.412,1,2.921,1.024,3.084a9.256,9.256,0,0,1,.171,2.923h.421c.122-1.123.01-2.2.837-3.019a8.466,8.466,0,0,0,1.114-1.258,4.5,4.5,0,0,0,.459-.887,5.7,5.7,0,0,0,.3-2.675c-.158-1.356-.888-3.872-1.9-4.881.288.288-2.451,1.446-2.873,1.4.823-.671,1.848-1.438,1.884-2.607a8.292,8.292,0,0,1-3.245,1.073" transform="translate(-269.333 -78.665)" fill="none"/>
    </clipPath>
    <linearGradient id="linear-gradient-17" x1="-14.22" y1="15.585" x2="-14.167" y2="15.585" xlink:href="#linear-gradient-5"/>
    <clipPath id="clip-path-33">
      <rect id="Rectángulo_45172" data-name="Rectángulo 45172" width="0.5" height="2.083" fill="none"/>
    </clipPath>
    <clipPath id="clip-path-34">
      <rect id="Rectángulo_45173" data-name="Rectángulo 45173" width="15.598" height="8.132" fill="none"/>
    </clipPath>
    <clipPath id="clip-path-35">
      <rect id="Rectángulo_45174" data-name="Rectángulo 45174" width="26.14" height="26.14" fill="none"/>
    </clipPath>
    <clipPath id="clip-path-36">
      <rect id="Rectángulo_45175" data-name="Rectángulo 45175" width="0.5" height="2.084" fill="none"/>
    </clipPath>
    <clipPath id="clip-path-42">
      <path id="Trazado_215111" data-name="Trazado 215111" d="M126.953,158.156s4.514,12.855,8,14.327c0,0,28.5-23.778,35.822-46.712l-1.176-4.378s-19.479,30.812-42.643,36.763" transform="translate(-126.953 -121.393)" fill="none"/>
    </clipPath>
    <linearGradient id="linear-gradient-18" x1="-1.576" y1="3.261" x2="-1.563" y2="3.261" xlink:href="#linear-gradient-6"/>
    <clipPath id="clip-path-44">
      <path id="Trazado_215113" data-name="Trazado 215113" d="M113.343,273.459l-2.974,5.588a11.324,11.324,0,0,0-1.29,6.266l3.083,36.927-2.354,3.237.287,1.755,14.381,8.486-5.659-9.189a10.334,10.334,0,0,1-1.529-5.872c.58-13.185,3.833-46.148,3.833-46.148l-.972-5.716Z" transform="translate(-109.039 -268.793)" fill="none"/>
    </clipPath>
    <linearGradient id="linear-gradient-19" x1="-4.609" y1="1.037" x2="-4.566" y2="1.037" xlink:href="#linear-gradient-6"/>
    <clipPath id="clip-path-46">
      <path id="Trazado_215115" data-name="Trazado 215115" d="M87.127,271.535c-7.95,6.081-10.013,12.682-11.839,18.768s-5.154,23.589-6.7,27.451c-1.3,3.235-4.8,10.367-5.9,12.6a2.037,2.037,0,0,0,.077,1.974,3.354,3.354,0,0,0,3.119,1.422c3.495,0,4.761-.977,4.826-2a79.168,79.168,0,0,1,4.133-15.8c3.031-8.257,22.095-44.42,22.095-44.42a5.66,5.66,0,0,0-4.478-2.375,8.762,8.762,0,0,0-5.332,2.375" transform="translate(-62.469 -269.16)" fill="none"/>
    </clipPath>
    <linearGradient id="linear-gradient-20" x1="-1.376" y1="1.055" x2="-1.353" y2="1.055" xlink:href="#linear-gradient-6"/>
    <clipPath id="clip-path-48">
      <path id="Trazado_215118" data-name="Trazado 215118" d="M118.62,145.436l-4,17.959c-.383,1.582,1.059,1.323,2.659,1.022,2.618-.494,5.995-1.511,7.123-3.548a1.94,1.94,0,0,0,.2-.678l1.718-12.453a2.238,2.238,0,0,0-1.31-2.352l-3.314-1.469a2.234,2.234,0,0,0-3.081,1.519" transform="translate(-114.56 -143.724)" fill="none"/>
    </clipPath>
    <linearGradient id="linear-gradient-21" x1="-6.952" y1="8.205" x2="-6.89" y2="8.205" xlink:href="#linear-gradient-6"/>
    <clipPath id="clip-path-49">
      <path id="Trazado_215119" data-name="Trazado 215119" d="M116.987,141.475c3.827,5.264,8.246,6.206,11.292,6.368s6.019-2.471,4.19-9.809-6.085-10.219-6.085-10.219a4,4,0,0,0-2.167-.64c-5.146,0-10.577,9.7-7.23,14.3" transform="translate(-115.955 -127.176)" fill="none"/>
    </clipPath>
    <linearGradient id="linear-gradient-22" x1="-3.912" y1="7.766" x2="-3.877" y2="7.766" xlink:href="#linear-gradient-6"/>
    <clipPath id="clip-path-51">
      <path id="Trazado_215121" data-name="Trazado 215121" d="M116.053,136.214c-2.762,1.547,1,5.053,2.5,6.246l1.031-2.382s-.59-4.141-2.588-4.141a1.94,1.94,0,0,0-.946.277" transform="translate(-115.067 -135.937)" fill="none"/>
    </clipPath>
    <linearGradient id="linear-gradient-23" x1="-12.947" y1="23.734" x2="-12.832" y2="23.734" xlink:href="#linear-gradient-6"/>
    <clipPath id="clip-path-52">
      <path id="Trazado_215122" data-name="Trazado 215122" d="M171.1,118.036c-.9.8-1.268,5.952-1.476,7.129.752,2.71,3.116,2.271,3.056,1.635a4.943,4.943,0,0,0,4.092-1.36c1.033-.954,2.178-2.21,3.03-3.181a5.006,5.006,0,0,0,1.264-3.5,17.327,17.327,0,0,0-1.17-4.47l4.276-2.885a1.752,1.752,0,0,0,.3-2.426s-8.566,4.794-13.37,9.056" transform="translate(-169.628 -108.98)" fill="none"/>
    </clipPath>
    <linearGradient id="linear-gradient-24" x1="-6.204" y1="9.223" x2="-6.166" y2="9.223" xlink:href="#linear-gradient-6"/>
    <clipPath id="clip-path-53">
      <path id="Trazado_215123" data-name="Trazado 215123" d="M174.063,118.632l-1.627,2.549.6.381,1.528-2.393,3.46-1.851a.711.711,0,0,1,.22.44,1.5,1.5,0,0,1-.543,1c-.993,1.037-3.044,6.024-3.13,6.236l.653.268c.579-1.408,2.242-5.234,2.99-6.015a2.1,2.1,0,0,0,.736-1.534,1.536,1.536,0,0,0-.645-1.1l-.183-.149Z" transform="translate(-172.436 -116.465)" fill="none"/>
    </clipPath>
    <linearGradient id="linear-gradient-25" x1="-24.379" y1="23.96" x2="-24.238" y2="23.96" xlink:href="#linear-gradient-6"/>
    <clipPath id="clip-path-55">
      <path id="Trazado_215127" data-name="Trazado 215127" d="M95.857,202.751c2.7,4.24,11.9,10.009,20.657,10.016h12.922c-5.43-5.768-9.168-7.231-13.622-3.2-3.533-1.511-8.114-7.358-11.172-9.969a3.26,3.26,0,0,1-.681-4.133c2.43-4.113,5.476-8.341,6.445-12.436.208-4.8-3.344-10.292-6.559-10.637-4.874,4.917-11.058,26.716-7.99,30.357" transform="translate(-95.037 -172.394)" fill="none"/>
    </clipPath>
    <linearGradient id="linear-gradient-26" x1="-1.604" y1="3.204" x2="-1.586" y2="3.204" xlink:href="#linear-gradient-6"/>
  </defs>
  <g id="Grupo_150100" data-name="Grupo 150100" transform="translate(-269.499 -3357.313)">
    <g transform="matrix(1, 0, 0, 1, 269.5, 3357.31)" filter="url(#Trazado_211532)">
      <path id="Trazado_211532-2" data-name="Trazado 211532" d="M34.695,0H470.305C489.467,0,505,12.064,505,26.946V473.054C505,487.936,489.467,500,470.305,500H34.695C15.533,500,0,487.936,0,473.054V26.946C0,12.064,15.533,0,34.695,0Z" transform="translate(15 12)" fill="#feeeab"/>
    </g>
    <path id="Rectángulo_44199" data-name="Rectángulo 44199" d="M0,0H505a0,0,0,0,1,0,0V62a32,32,0,0,1-32,32H32A32,32,0,0,1,0,62V0A0,0,0,0,1,0,0Z" transform="translate(284.501 3775.313)" fill="#fbdb5e"/>
    <path id="Trazado_216365" data-name="Trazado 216365" d="M-106.729-4.814a5.193,5.193,0,0,1-.8,2.622A4.833,4.833,0,0,1-109.585-.43,7,7,0,0,1-112.607.2a5.584,5.584,0,0,1-4.414-1.826,7.54,7.54,0,0,1-1.611-5.156v-.7a8.607,8.607,0,0,1,.728-3.657,5.513,5.513,0,0,1,2.095-2.422,5.844,5.844,0,0,1,3.164-.854,6.129,6.129,0,0,1,4.16,1.362A5.383,5.383,0,0,1-106.7-9.307h-3.418a2.547,2.547,0,0,0-.654-1.865,2.691,2.691,0,0,0-1.875-.566,2.048,2.048,0,0,0-1.875.957,6.151,6.151,0,0,0-.625,3.057v1.006a6.806,6.806,0,0,0,.571,3.252,2.091,2.091,0,0,0,1.968.977,2.632,2.632,0,0,0,1.807-.557,2.363,2.363,0,0,0,.664-1.768Zm1.055-.566a6.236,6.236,0,0,1,.615-2.817,4.4,4.4,0,0,1,1.768-1.9,5.323,5.323,0,0,1,2.705-.664,4.858,4.858,0,0,1,3.74,1.47,5.64,5.64,0,0,1,1.367,4v.117a5.472,5.472,0,0,1-1.372,3.921A4.871,4.871,0,0,1-100.566.2a4.927,4.927,0,0,1-3.623-1.353,5.29,5.29,0,0,1-1.475-3.667Zm3.291.205a3.932,3.932,0,0,0,.459,2.148,1.529,1.529,0,0,0,1.357.684q1.758,0,1.8-2.705v-.332q0-2.842-1.816-2.842-1.65,0-1.787,2.451Zm11.465-5.391.107,1.24a3.633,3.633,0,0,1,3.018-1.436A2.675,2.675,0,0,1-85.088-9.17a3.517,3.517,0,0,1,3.105-1.592q3.213,0,3.3,3.887V0h-3.3V-6.67a2.014,2.014,0,0,0-.273-1.182,1.164,1.164,0,0,0-1-.371,1.559,1.559,0,0,0-1.455.869l.01.137V0H-88V-6.65a2.117,2.117,0,0,0-.264-1.2,1.161,1.161,0,0,0-1.006-.371,1.578,1.578,0,0,0-1.445.869V0H-94V-10.566Zm20.41,9.424A3.393,3.393,0,0,1-73.33.2,3.328,3.328,0,0,1-75.962-.815a4.251,4.251,0,0,1-.894-2.905v-6.846h3.291V-3.7a1.183,1.183,0,0,0,1.318,1.357,1.72,1.72,0,0,0,1.611-.811v-7.412h3.311V0H-70.41Zm8.008-9.424.107,1.24a3.583,3.583,0,0,1,3.018-1.436,3.015,3.015,0,0,1,2.466.986,4.7,4.7,0,0,1,.845,2.969V0h-3.3V-6.67a1.783,1.783,0,0,0-.322-1.177,1.491,1.491,0,0,0-1.172-.376,1.569,1.569,0,0,0-1.436.762V0h-3.291V-10.566ZM-50.771,0h-3.3V-10.566h3.3Zm-3.5-13.291a1.469,1.469,0,0,1,.508-1.152,1.916,1.916,0,0,1,1.318-.449,1.916,1.916,0,0,1,1.318.449,1.469,1.469,0,0,1,.508,1.152,1.469,1.469,0,0,1-.508,1.152,1.916,1.916,0,0,1-1.318.449,1.916,1.916,0,0,1-1.318-.449A1.469,1.469,0,0,1-54.268-13.291Zm9.99,10.947A1.464,1.464,0,0,0-43.2-2.72a1.379,1.379,0,0,0,.371-1.05h3.086A3.653,3.653,0,0,1-40.991-.918,4.631,4.631,0,0,1-44.2.2,4.689,4.689,0,0,1-47.832-1.25a5.7,5.7,0,0,1-1.328-4v-.137a6.436,6.436,0,0,1,.591-2.827,4.3,4.3,0,0,1,1.7-1.885,5.081,5.081,0,0,1,2.637-.659,4.573,4.573,0,0,1,3.271,1.143,4.053,4.053,0,0,1,1.211,3.1h-3.086a1.807,1.807,0,0,0-.4-1.26,1.382,1.382,0,0,0-1.074-.439q-1.279,0-1.494,1.631a11.507,11.507,0,0,0-.068,1.426,4.52,4.52,0,0,0,.381,2.207A1.319,1.319,0,0,0-44.277-2.344ZM-32.4,0a3.716,3.716,0,0,1-.312-.947A3.06,3.06,0,0,1-35.254.2a3.749,3.749,0,0,1-2.539-.9,2.875,2.875,0,0,1-1.045-2.271,2.955,2.955,0,0,1,1.27-2.6,6.468,6.468,0,0,1,3.691-.879h1.016v-.559q0-1.462-1.26-1.462a1.03,1.03,0,0,0-1.172,1.158h-3.291a2.95,2.95,0,0,1,1.3-2.487,5.479,5.479,0,0,1,3.325-.956,4.8,4.8,0,0,1,3.193.986,3.429,3.429,0,0,1,1.2,2.705v4.678a4.79,4.79,0,0,0,.449,2.227V0Zm-2.061-2.148a1.836,1.836,0,0,0,1.021-.264,1.653,1.653,0,0,0,.581-.6V-4.7h-.957q-1.719,0-1.719,1.543a.942.942,0,0,0,.3.728A1.1,1.1,0,0,0-34.463-2.148Zm11.191-.2A1.464,1.464,0,0,0-22.2-2.72a1.379,1.379,0,0,0,.371-1.05h3.086A3.653,3.653,0,0,1-19.985-.918,4.631,4.631,0,0,1-23.193.2,4.689,4.689,0,0,1-26.826-1.25a5.7,5.7,0,0,1-1.328-4v-.137a6.436,6.436,0,0,1,.591-2.827,4.3,4.3,0,0,1,1.7-1.885,5.081,5.081,0,0,1,2.637-.659,4.573,4.573,0,0,1,3.271,1.143,4.053,4.053,0,0,1,1.211,3.1h-3.086a1.807,1.807,0,0,0-.4-1.26A1.382,1.382,0,0,0-23.3-8.223q-1.279,0-1.494,1.631a11.508,11.508,0,0,0-.068,1.426,4.52,4.52,0,0,0,.381,2.207A1.319,1.319,0,0,0-23.271-2.344ZM-13.877,0h-3.3V-10.566h3.3Zm-3.5-13.291a1.469,1.469,0,0,1,.508-1.152,1.916,1.916,0,0,1,1.318-.449,1.916,1.916,0,0,1,1.318.449,1.469,1.469,0,0,1,.508,1.152,1.469,1.469,0,0,1-.508,1.152,1.916,1.916,0,0,1-1.318.449,1.916,1.916,0,0,1-1.318-.449A1.469,1.469,0,0,1-17.373-13.291Zm5.107,7.91A6.236,6.236,0,0,1-11.65-8.2a4.4,4.4,0,0,1,1.768-1.9,5.323,5.323,0,0,1,2.705-.664,4.858,4.858,0,0,1,3.74,1.47,5.64,5.64,0,0,1,1.367,4v.117A5.472,5.472,0,0,1-3.442-1.255,4.871,4.871,0,0,1-7.158.2a4.927,4.927,0,0,1-3.623-1.353,5.29,5.29,0,0,1-1.475-3.667Zm3.291.205a3.932,3.932,0,0,0,.459,2.148,1.529,1.529,0,0,0,1.357.684q1.758,0,1.8-2.705v-.332q0-2.842-1.816-2.842-1.65,0-1.787,2.451ZM-6.729-15h3.477l-2.715,3.066-2.686,0ZM2.4-10.566l.107,1.24a3.583,3.583,0,0,1,3.018-1.436,3.015,3.015,0,0,1,2.466.986,4.7,4.7,0,0,1,.845,2.969V0h-3.3V-6.67a1.783,1.783,0,0,0-.322-1.177,1.491,1.491,0,0,0-1.172-.376,1.569,1.569,0,0,0-1.436.762V0H-.684V-10.566ZM21.592,0a3.716,3.716,0,0,1-.312-.947A3.06,3.06,0,0,1,18.74.2a3.749,3.749,0,0,1-2.539-.9,2.875,2.875,0,0,1-1.045-2.271,2.955,2.955,0,0,1,1.27-2.6,6.468,6.468,0,0,1,3.691-.879h1.016v-.559q0-1.462-1.26-1.462A1.03,1.03,0,0,0,18.7-7.319H15.41a2.95,2.95,0,0,1,1.3-2.487,5.479,5.479,0,0,1,3.325-.956,4.8,4.8,0,0,1,3.193.986,3.429,3.429,0,0,1,1.2,2.705v4.678a4.79,4.79,0,0,0,.449,2.227V0ZM19.531-2.148a1.836,1.836,0,0,0,1.021-.264,1.653,1.653,0,0,0,.581-.6V-4.7h-.957q-1.719,0-1.719,1.543a.942.942,0,0,0,.3.728A1.1,1.1,0,0,0,19.531-2.148Zm12.256-.82a.76.76,0,0,0-.439-.674,6.685,6.685,0,0,0-1.67-.527,7.615,7.615,0,0,1-2.031-.718,3.4,3.4,0,0,1-1.221-1.079,2.577,2.577,0,0,1-.42-1.455,2.92,2.92,0,0,1,1.2-2.4,4.948,4.948,0,0,1,3.145-.942,5.482,5.482,0,0,1,3.359.947,2.962,2.962,0,0,1,1.27,2.49h-3.3q0-1.27-1.338-1.27a1.326,1.326,0,0,0-.869.288.892.892,0,0,0-.352.718.819.819,0,0,0,.43.713,4.06,4.06,0,0,0,1.372.449,11.857,11.857,0,0,1,1.655.42,3.007,3.007,0,0,1,2.383,2.939A2.767,2.767,0,0,1,33.677-.713,5.632,5.632,0,0,1,30.352.2,5.747,5.747,0,0,1,27.93-.293a4.05,4.05,0,0,1-1.66-1.328,3.007,3.007,0,0,1-.6-1.768H28.75a1.272,1.272,0,0,0,.488,1.069,2.009,2.009,0,0,0,1.2.337,1.58,1.58,0,0,0,1.011-.273A.875.875,0,0,0,31.787-2.969Zm9.18.625a1.464,1.464,0,0,0,1.074-.376,1.379,1.379,0,0,0,.371-1.05H45.5A3.653,3.653,0,0,1,44.253-.918,4.631,4.631,0,0,1,41.045.2,4.689,4.689,0,0,1,37.412-1.25a5.7,5.7,0,0,1-1.328-4v-.137a6.436,6.436,0,0,1,.591-2.827,4.3,4.3,0,0,1,1.7-1.885,5.081,5.081,0,0,1,2.637-.659,4.573,4.573,0,0,1,3.271,1.143,4.053,4.053,0,0,1,1.211,3.1H42.412a1.807,1.807,0,0,0-.4-1.26,1.382,1.382,0,0,0-1.074-.439q-1.279,0-1.494,1.631a11.507,11.507,0,0,0-.068,1.426,4.52,4.52,0,0,0,.381,2.207A1.319,1.319,0,0,0,40.967-2.344ZM52,.2a5.432,5.432,0,0,1-3.936-1.45,5.008,5.008,0,0,1-1.5-3.774V-5.3a6.489,6.489,0,0,1,.6-2.861,4.395,4.395,0,0,1,1.753-1.919,5.292,5.292,0,0,1,2.734-.679A4.574,4.574,0,0,1,55.166-9.38a5.43,5.43,0,0,1,1.289,3.853v1.279H49.912a2.372,2.372,0,0,0,.771,1.4,2.3,2.3,0,0,0,1.543.508,2.958,2.958,0,0,0,2.441-1.094l1.5,1.777A4.2,4.2,0,0,1,54.429-.308,5.891,5.891,0,0,1,52,.2Zm-.371-8.418q-1.445,0-1.719,1.914h3.32v-.254a1.63,1.63,0,0,0-.4-1.226A1.593,1.593,0,0,0,51.631-8.223Zm9.17-2.344.107,1.24a3.583,3.583,0,0,1,3.018-1.436,3.015,3.015,0,0,1,2.466.986,4.7,4.7,0,0,1,.845,2.969V0h-3.3V-6.67a1.783,1.783,0,0,0-.322-1.177,1.491,1.491,0,0,0-1.172-.376,1.569,1.569,0,0,0-1.436.762V0H57.715V-10.566Zm7.842,5.205a6.455,6.455,0,0,1,1.084-3.955,3.568,3.568,0,0,1,3.027-1.445,3.035,3.035,0,0,1,2.383,1.113V-15h3.3V0H75.479l-.166-1.133A3.116,3.116,0,0,1,72.734.2,3.562,3.562,0,0,1,69.746-1.25,6.659,6.659,0,0,1,68.643-5.361Zm3.291.205q0,2.813,1.641,2.813a1.62,1.62,0,0,0,1.563-.918V-7.285a1.576,1.576,0,0,0-1.543-.937q-1.523,0-1.65,2.461ZM85.42.2a5.432,5.432,0,0,1-3.936-1.45,5.008,5.008,0,0,1-1.5-3.774V-5.3a6.489,6.489,0,0,1,.6-2.861,4.395,4.395,0,0,1,1.753-1.919,5.292,5.292,0,0,1,2.734-.679A4.574,4.574,0,0,1,88.584-9.38a5.43,5.43,0,0,1,1.289,3.853v1.279H83.33a2.372,2.372,0,0,0,.771,1.4,2.3,2.3,0,0,0,1.543.508,2.958,2.958,0,0,0,2.441-1.094l1.5,1.777A4.2,4.2,0,0,1,87.847-.308,5.891,5.891,0,0,1,85.42.2Zm-.371-8.418q-1.445,0-1.719,1.914h3.32v-.254a1.63,1.63,0,0,0-.4-1.226A1.593,1.593,0,0,0,85.049-8.223Zm9.17-2.344.107,1.24a3.583,3.583,0,0,1,3.018-1.436,3.015,3.015,0,0,1,2.466.986,4.7,4.7,0,0,1,.845,2.969V0h-3.3V-6.67a1.783,1.783,0,0,0-.322-1.177,1.491,1.491,0,0,0-1.172-.376,1.569,1.569,0,0,0-1.436.762V0H91.133V-10.566Zm12.09-2.627v2.627h1.738v2.285h-1.738v4.834a1.234,1.234,0,0,0,.215.83,1.152,1.152,0,0,0,.85.234,4.828,4.828,0,0,0,.82-.059V-.088A6.074,6.074,0,0,1,106.338.2a3.448,3.448,0,0,1-2.51-.8,3.282,3.282,0,0,1-.811-2.432V-8.281H101.67v-2.285h1.348v-2.627ZM114.453.2a5.432,5.432,0,0,1-3.936-1.45,5.008,5.008,0,0,1-1.5-3.774V-5.3a6.489,6.489,0,0,1,.6-2.861,4.395,4.395,0,0,1,1.753-1.919,5.292,5.292,0,0,1,2.734-.679,4.574,4.574,0,0,1,3.516,1.382,5.43,5.43,0,0,1,1.289,3.853v1.279h-6.543a2.372,2.372,0,0,0,.771,1.4,2.3,2.3,0,0,0,1.543.508,2.958,2.958,0,0,0,2.441-1.094l1.5,1.777A4.2,4.2,0,0,1,116.88-.308,5.891,5.891,0,0,1,114.453.2Zm-.371-8.418q-1.445,0-1.719,1.914h3.32v-.254a1.63,1.63,0,0,0-.4-1.226A1.593,1.593,0,0,0,114.082-8.223Z" transform="translate(536.999 3829.313)" fill="#12263f"/>
    <g id="Grupo_149601" data-name="Grupo 149601" transform="translate(409.374 3424.834)">
      <g id="Grupo_149600" data-name="Grupo 149600" clip-path="url(#clip-path)">
        <g id="Grupo_149482" data-name="Grupo 149482">
          <g id="Grupo_149481" data-name="Grupo 149481" clip-path="url(#clip-path)">
            <path id="Trazado_215020" data-name="Trazado 215020" d="M79.924,152.447c7.722-15,22.087-25.577,38.771-27.466l1.142-72.232a1.1,1.1,0,0,0-1.108-1.119c-47.058.51-88.583,29.8-107.961,73.182a1.207,1.207,0,0,0,.676,1.617Z" transform="translate(-0.805 -3.898)" fill="#aab1ba"/>
            <path id="Trazado_215021" data-name="Trazado 215021" d="M177.729,198.111a2.156,2.156,0,0,0-2.119,1.512c-.808,2.582-2.285,7.538-2.527,8.164a66.236,66.236,0,0,1-4.169,8.863,48.808,48.808,0,0,1-11.544,13.924c-11.971,9.693-29.178,11.494-43.531,6.7-.409-.137-.814-.284-1.219-.435a1.6,1.6,0,0,0-1.97.73l-36.191,66c17.574,8.812,34.112,11.117,54.859,9.788,60.281-3.864,107.616-52.809,112.87-113.506Z" transform="translate(-5.621 -14.956)" fill="#586678"/>
            <path id="Trazado_215022" data-name="Trazado 215022" d="M177.533,198.111c-3.924,24.085-21.723,42.9-45.911,43.726a55.037,55.037,0,0,1-20.893-3.767,1.354,1.354,0,0,0-1.673.582l-37.2,63.993a113.033,113.033,0,0,0,58.166,11.8c60.282-3.863,107.616-54.294,112.87-114.991Z" transform="translate(-5.425 -14.956)" fill="#aab1ba"/>
            <path id="Trazado_215023" data-name="Trazado 215023" d="M58.678,288.669l36.018-64.6a1.09,1.09,0,0,0-.253-1.366c-11.089-9.338-19.954-21.858-19.954-38.094,0-4-1.776-9.833-.962-13.589L5.79,146.8A131.668,131.668,0,0,0,0,185.532c0,43.6,23.168,81.954,54.98,104a2.564,2.564,0,0,0,3.7-.862" transform="translate(0 -11.082)" fill="#aab1ba"/>
            <path id="Trazado_215024" data-name="Trazado 215024" d="M55.076,286.566l37.326-63.8a1.963,1.963,0,0,0-.395-2.465,52.406,52.406,0,0,1-17.519-39.545,55.068,55.068,0,0,1,1.246-11.665L6.8,143.322a1.015,1.015,0,0,0-1.329.657A131.7,131.7,0,0,0,0,181.68C0,226.343,22.069,264.8,55.076,286.566" transform="translate(0 -10.815)" fill="#586678"/>
            <path id="Trazado_215025" data-name="Trazado 215025" d="M141.8,121.426c21.365,3.573,37.933,21.563,40.739,44.045a2.461,2.461,0,0,0,2.355,2.161L288.23,171.1l.812-.787C288.726,83.863,226.739,9.8,143.709,0Z" transform="translate(-10.705)" fill="#2432ff"/>
            <path id="Trazado_215026" data-name="Trazado 215026" d="M230.242,57.422a25.008,25.008,0,1,1-25.009-25.008,25.009,25.009,0,0,1,25.009,25.008" transform="translate(-13.606 -2.447)" fill="#aab1ba"/>
            <path id="Trazado_215027" data-name="Trazado 215027" d="M227.906,57.687a22.745,22.745,0,1,1-22.745-22.745,22.745,22.745,0,0,1,22.745,22.745" transform="translate(-13.771 -2.638)" fill="#fff"/>
          </g>
        </g>
        <g id="Grupo_149484" data-name="Grupo 149484" transform="translate(168.776 32.484)">
          <g id="Grupo_149483" data-name="Grupo 149483" clip-path="url(#clip-path-3)">
            <path id="Trazado_215028" data-name="Trazado 215028" d="M192.876,82.6c.358-1.663.642-2.752.642-2.752L187.2,69.14s-2.046,2.072-3.273,11.1a2.082,2.082,0,0,0,2.064,2.363Z" transform="translate(-182.66 -37.703)" fill="#586678"/>
            <path id="Trazado_215029" data-name="Trazado 215029" d="M229.874,80.168c-1.756-7.825-4.88-11.468-4.88-11.468l-3.957,13.109s.119.259.3.758h6.615a1.968,1.968,0,0,0,1.92-2.4" transform="translate(-185.463 -37.67)" fill="#586678"/>
            <path id="Trazado_215030" data-name="Trazado 215030" d="M193.1,82.122c6.5,2.391,15.331,2.056,25.636,0a33.6,33.6,0,0,1,1.008-3.308l2.719-10.562c-3.812-3.417-9.168-4.545-11.23-4.866a28.377,28.377,0,0,0-10.387-.135,25.926,25.926,0,0,0-13.378,5.4l4.7,10.7a21.657,21.657,0,0,1,.929,2.767" transform="translate(-182.928 -37.226)" fill="#586678"/>
          </g>
        </g>
        <g id="Grupo_149486" data-name="Grupo 149486" transform="translate(187.5 53.35)">
          <g id="Grupo_149485" data-name="Grupo 149485" clip-path="url(#clip-path-4)">
            <rect id="Rectángulo_45152" data-name="Rectángulo 45152" width="9.033" height="8.261" transform="matrix(0.998, -0.065, 0.065, 0.998, -0.514, 0.032)" fill="url(#linear-gradient)"/>
          </g>
        </g>
        <g id="Grupo_149488" data-name="Grupo 149488" transform="translate(185.686 39.985)">
          <g id="Grupo_149487" data-name="Grupo 149487" clip-path="url(#clip-path-5)">
            <rect id="Rectángulo_45153" data-name="Rectángulo 45153" width="18.239" height="14.479" transform="translate(-1.356 17.148) rotate(-85.48)" fill="url(#linear-gradient-2)"/>
          </g>
        </g>
        <g id="Grupo_149490" data-name="Grupo 149490" transform="translate(196.84 45.41)">
          <g id="Grupo_149489" data-name="Grupo 149489" clip-path="url(#clip-path-6)">
            <rect id="Rectángulo_45154" data-name="Rectángulo 45154" width="5.861" height="4.737" transform="matrix(0.079, -0.997, 0.997, 0.079, -1.234, 5.504)" fill="url(#linear-gradient-3)"/>
          </g>
        </g>
        <g id="Grupo_149492" data-name="Grupo 149492" transform="translate(184.014 45.428)">
          <g id="Grupo_149491" data-name="Grupo 149491" clip-path="url(#clip-path-7)">
            <rect id="Rectángulo_45155" data-name="Rectángulo 45155" width="5.759" height="3.661" transform="translate(-0.989 5.487) rotate(-85.48)" fill="url(#linear-gradient-4)"/>
          </g>
        </g>
        <g id="Grupo_149494" data-name="Grupo 149494" transform="translate(183.341 33.635)">
          <g id="Grupo_149493" data-name="Grupo 149493" clip-path="url(#clip-path-8)">
            <rect id="Rectángulo_45156" data-name="Rectángulo 45156" width="18.726" height="19.194" transform="translate(-2.23 0.283) rotate(-7.366)" fill="url(#linear-gradient-5)"/>
          </g>
        </g>
        <g id="Grupo_149496" data-name="Grupo 149496">
          <g id="Grupo_149495" data-name="Grupo 149495" clip-path="url(#clip-path)">
            <path id="Trazado_215037" data-name="Trazado 215037" d="M281.947,43.93a22.915,22.915,0,1,1-22.915-22.915A22.915,22.915,0,0,1,281.947,43.93" transform="translate(-17.825 -1.586)" fill="#aab1ba"/>
            <path id="Trazado_215038" data-name="Trazado 215038" d="M279.807,44.172a20.842,20.842,0,1,1-20.841-20.841,20.841,20.841,0,0,1,20.841,20.841" transform="translate(-17.977 -1.761)" fill="#fff"/>
          </g>
        </g>
        <g id="Grupo_149498" data-name="Grupo 149498" transform="translate(220.267 21.733)">
          <g id="Grupo_149497" data-name="Grupo 149497" clip-path="url(#clip-path-10)">
            <path id="Trazado_215039" data-name="Trazado 215039" d="M255.548,40.023c-1.319,0-2.688.168-3.2-1.421-.973-2.994.661-7.469,3.339-9.1a9.056,9.056,0,0,1,2.97-.99A4.648,4.648,0,0,1,262,28.8c1.006.542,1.983-.328,3.026.366a6.407,6.407,0,0,1,2.039,2.46,15.338,15.338,0,0,1,1.209,3.926,1.691,1.691,0,0,1-.289,1.624,5.373,5.373,0,0,1-4.6,2.849Z" transform="translate(-239.295 -23.873)" fill="#394a5f"/>
            <path id="Trazado_215040" data-name="Trazado 215040" d="M254.627,35.278s.239.5-1.316,1.28c-.866.435-2.552,1.079-2.774,2.958-.116.971-.495,3.367-1.417,3.515-2.3.369-5.4,1.8-5.693,4.594-.332,3.2.589,4.884,2.219,5.3,1.2.308,1.5.63,1.259,1.9-.232,1.215.689,5.57,2.7,6.68,4.5,2.487,8.422-8.845,8.422-8.845l.922-14.629Z" transform="translate(-238.639 -24.397)" fill="#394a5f"/>
            <path id="Trazado_215041" data-name="Trazado 215041" d="M266.331,33.9s-.243.53,1.339,1.356c.882.461,2.6,1.144,2.824,3.135.117,1.028.391,2.473,1.33,2.629,2.342.391,5.054,2.673,5.632,7.1.44,3.38-.521,7-2.182,7.449-1.219.325-1.127-.321-.88,1.021.237,1.286-.319.79-2.364,1.966-4.583,2.635-9.16-6.242-9.16-6.242l-.937-15.5Z" transform="translate(-240.041 -24.292)" fill="#394a5f"/>
            <path id="Trazado_215042" data-name="Trazado 215042" d="M259.836,51.436s3.479-.9,4.218.212c.37,1.844.559,3.674.559,3.674l-4.009.753-2.651-.61-.631-.366-.262-2.611a10.05,10.05,0,0,1,2.774-1.052" transform="translate(-239.673 -25.591)" fill="#fccc10"/>
          </g>
        </g>
        <g id="Grupo_149500" data-name="Grupo 149500" transform="translate(234.661 37.049)">
          <g id="Grupo_149499" data-name="Grupo 149499" clip-path="url(#clip-path-11)">
            <rect id="Rectángulo_45158" data-name="Rectángulo 45158" width="4.718" height="3.403" transform="translate(-1.851 3.864) rotate(-72.61)" fill="url(#linear-gradient-6)"/>
          </g>
        </g>
        <g id="Grupo_149502" data-name="Grupo 149502" transform="translate(244.648 36.74)">
          <g id="Grupo_149501" data-name="Grupo 149501" clip-path="url(#clip-path-12)">
            <rect id="Rectángulo_45159" data-name="Rectángulo 45159" width="4.443" height="3.799" transform="translate(-1.078 3.442) rotate(-72.61)" fill="url(#linear-gradient-7)"/>
          </g>
        </g>
        <g id="Grupo_149504" data-name="Grupo 149504" transform="translate(220.267 21.733)">
          <g id="Grupo_149503" data-name="Grupo 149503" clip-path="url(#clip-path-10)">
            <path id="Trazado_215046" data-name="Trazado 215046" d="M278.289,65.291c-1.17-5.652-2.852-10.07-3.383-10.325l-3.176,7.856a20.7,20.7,0,0,0-.589,5.248h4.883a2.311,2.311,0,0,0,2.264-2.778" transform="translate(-240.736 -25.883)" fill="#fccc10"/>
            <path id="Trazado_215047" data-name="Trazado 215047" d="M251.978,68.209c.146-2.524.082-4.114.082-4.114l-4.475-7.266a63.333,63.333,0,0,0-1.119,8.1c-.027.274-.051.552-.075.833a2.259,2.259,0,0,0,2.252,2.446Z" transform="translate(-238.867 -26.023)" fill="#fccc10"/>
          </g>
        </g>
        <g id="Grupo_149506" data-name="Grupo 149506" transform="translate(237.656 41.922)">
          <g id="Grupo_149505" data-name="Grupo 149505" clip-path="url(#clip-path-14)">
            <rect id="Rectángulo_45160" data-name="Rectángulo 45160" width="22.458" height="11.199" transform="translate(-3.142 21.025) rotate(-81.501)" fill="url(#linear-gradient-8)"/>
          </g>
        </g>
        <g id="Grupo_149508" data-name="Grupo 149508" transform="translate(220.267 21.733)">
          <g id="Grupo_149507" data-name="Grupo 149507" clip-path="url(#clip-path-10)">
            <path id="Trazado_215050" data-name="Trazado 215050" d="M266.028,68.44l.7-8.767c-5.1,3.053-10.353,2.9-15.676,1.286l1.512,7.481Z" transform="translate(-239.219 -26.238)" fill="#394a5f"/>
            <path id="Trazado_215051" data-name="Trazado 215051" d="M259.467,67.89c-1.512-7.3-3.113-15.279-3.113-15.279l-.839,1.674-7.831,2.244c.384,1.79,1.555,6.715,2.732,11.361Z" transform="translate(-238.965 -25.705)" fill="#fccc10"/>
            <path id="Trazado_215052" data-name="Trazado 215052" d="M271.768,67.822c.417-2.235.785-3.978.785-3.978l1.693-9.124c-.533-.533-8.894-1.681-8.894-1.681l-.895-1.336s-1.117,8.117-2.071,16.119Z" transform="translate(-240.075 -25.637)" fill="#fccc10"/>
          </g>
        </g>
        <g id="Grupo_149510" data-name="Grupo 149510" transform="translate(235.654 31.215)">
          <g id="Grupo_149509" data-name="Grupo 149509" clip-path="url(#clip-path-16)">
            <rect id="Rectángulo_45161" data-name="Rectángulo 45161" width="17.41" height="13.878" transform="translate(-4.564 13.822) rotate(-72.61)" fill="url(#linear-gradient-9)"/>
          </g>
        </g>
        <g id="Grupo_149512" data-name="Grupo 149512" transform="translate(220.267 21.733)">
          <g id="Grupo_149511" data-name="Grupo 149511" clip-path="url(#clip-path-10)">
            <path id="Trazado_215055" data-name="Trazado 215055" d="M253.719,35.7s-1.119,3.356,2.237,2.237l3.357-1.119s3.356-1.958,3.915-1.119a13.884,13.884,0,0,1,1.119,2.906s1.119-2.906,0-4.584-8.111-3.077-10.628,1.678" transform="translate(-239.407 -24.183)" fill="#394a5f"/>
          </g>
        </g>
        <g id="Grupo_149514" data-name="Grupo 149514">
          <g id="Grupo_149513" data-name="Grupo 149513" clip-path="url(#clip-path)">
            <path id="Trazado_215057" data-name="Trazado 215057" d="M242.262,117.6a25.893,25.893,0,1,1-25.894-25.894A25.893,25.893,0,0,1,242.262,117.6" transform="translate(-14.379 -6.923)" fill="#aab1ba"/>
            <path id="Trazado_215058" data-name="Trazado 215058" d="M239.845,117.874a23.55,23.55,0,1,1-23.55-23.55,23.55,23.55,0,0,1,23.55,23.55" transform="translate(-14.551 -7.121)" fill="#fff"/>
          </g>
        </g>
        <g id="Grupo_149516" data-name="Grupo 149516" transform="translate(178.329 87.388)">
          <g id="Grupo_149515" data-name="Grupo 149515" clip-path="url(#clip-path-19)">
            <path id="Trazado_215059" data-name="Trazado 215059" d="M225.975,108.189a7.681,7.681,0,1,1-7.681-7.681,7.681,7.681,0,0,1,7.681,7.681" transform="translate(-194.229 -94.976)" fill="#394a5f"/>
            <path id="Trazado_215060" data-name="Trazado 215060" d="M210.5,106.5c-3.378,11.683-5.676,22.3-5.3,25.29l9.849-1.04,1.142-21.609Z" transform="translate(-193.817 -95.428)" fill="#394a5f"/>
            <path id="Trazado_215061" data-name="Trazado 215061" d="M222.625,105.151l-1.352,26.415,11.145,5.934c-.234-9.027-4.846-32.223-6.733-32.845Z" transform="translate(-195.034 -95.289)" fill="#394a5f"/>
          </g>
        </g>
        <g id="Grupo_149518" data-name="Grupo 149518" transform="translate(198.829 111.555)">
          <g id="Grupo_149517" data-name="Grupo 149517" clip-path="url(#clip-path-20)">
            <rect id="Rectángulo_45163" data-name="Rectángulo 45163" width="9.932" height="10.397" transform="translate(-2.823 1.118) rotate(-21.607)" fill="url(#linear-gradient-10)"/>
          </g>
        </g>
        <g id="Grupo_149520" data-name="Grupo 149520" transform="translate(195.174 97.666)">
          <g id="Grupo_149519" data-name="Grupo 149519" clip-path="url(#clip-path-21)">
            <rect id="Rectángulo_45164" data-name="Rectángulo 45164" width="21.455" height="19.64" transform="translate(-4.179 18.231) rotate(-79.808)" fill="url(#linear-gradient-11)"/>
          </g>
        </g>
        <g id="Grupo_149522" data-name="Grupo 149522" transform="translate(194.055 116.344)">
          <g id="Grupo_149521" data-name="Grupo 149521" clip-path="url(#clip-path-22)">
            <rect id="Rectángulo_45165" data-name="Rectángulo 45165" width="17.55" height="10.896" transform="translate(-1.188 0.165) rotate(-7.915)" fill="url(#linear-gradient-12)"/>
          </g>
        </g>
        <g id="Grupo_149524" data-name="Grupo 149524" transform="translate(178.329 87.388)">
          <g id="Grupo_149523" data-name="Grupo 149523" clip-path="url(#clip-path-19)">
            <path id="Trazado_215066" data-name="Trazado 215066" d="M212.779,106.124c-1.512,2.115-.324,3.991-.729,5.509a31.642,31.642,0,0,1,7.9-1.182c.308-1.011-.3-2.695-.606-4.022.484,1.259,1.587,3.189,1.47,4.183,2,.092,1.589.12,3.837,1.02l-1.749-6.1c-3.9-1.819-7.26-1.588-10.122.591" transform="translate(-194.332 -95.263)" fill="#394a5f"/>
            <path id="Trazado_215067" data-name="Trazado 215067" d="M220.51,98.3c0,1.466-1.38,3.113-2.375,3.113-.819,0-2.375-1.647-2.375-3.113a2.39,2.39,0,1,1,4.75,0" transform="translate(-194.617 -94.609)" fill="#394a5f"/>
            <path id="Trazado_215068" data-name="Trazado 215068" d="M229.162,144.112,231.6,130.56c-3.313-2.254-6.386-3.327-10.036-4.71-1.132,2.352-6.3,2.119-7.38.292a32.591,32.591,0,0,0-9.873,4.576l3.334,13.393Z" transform="translate(-193.753 -96.889)" fill="#fccc10"/>
            <path id="Trazado_215069" data-name="Trazado 215069" d="M237.775,142.1c-1.973-8.437-4.246-11.155-4.246-11.155l-3.644,11.092s.439.885,1.016,2.459h4.971a1.953,1.953,0,0,0,1.9-2.4" transform="translate(-195.684 -97.273)" fill="#fccc10"/>
            <path id="Trazado_215070" data-name="Trazado 215070" d="M207.6,144.51a31.961,31.961,0,0,1,1.639-4.527l-5.214-8.862a32.654,32.654,0,0,0-3.425,11.2,1.951,1.951,0,0,0,1.937,2.191Z" transform="translate(-193.472 -97.287)" fill="#fccc10"/>
            <path id="Trazado_215071" data-name="Trazado 215071" d="M223.544,105.78c2.585,6.534,3.876,24.964,2.3,34.712,2.471-8.508,5.549-19.3.846-33.813Z" transform="translate(-195.205 -95.374)" fill="#394a5f"/>
          </g>
        </g>
        <g id="Grupo_149526" data-name="Grupo 149526">
          <g id="Grupo_149525" data-name="Grupo 149525" clip-path="url(#clip-path)">
            <path id="Trazado_215073" data-name="Trazado 215073" d="M298.522,96.944A23.293,23.293,0,1,1,275.228,73.65a23.294,23.294,0,0,1,23.294,23.294" transform="translate(-19.019 -5.56)" fill="#aab1ba"/>
            <path id="Trazado_215074" data-name="Trazado 215074" d="M296.346,97.19A21.186,21.186,0,1,1,275.16,76,21.186,21.186,0,0,1,296.346,97.19" transform="translate(-19.173 -5.738)" fill="#fff"/>
          </g>
        </g>
        <g id="Grupo_149528" data-name="Grupo 149528" transform="translate(234.924 70.434)">
          <g id="Grupo_149527" data-name="Grupo 149527" clip-path="url(#clip-path-25)">
            <path id="Trazado_215075" data-name="Trazado 215075" d="M292.126,123.086a2.129,2.129,0,0,0,2.128-2.143c-.022-3.383-.092-6.355-.249-8-.4-4.188-2.625-5.516-2.625-5.516l-1.133,15.654Z" transform="translate(-256.835 -78.544)" fill="#2432ff"/>
            <path id="Trazado_215076" data-name="Trazado 215076" d="M284.64,122.88c-.165-8.77-.327-16.022-.327-16.022-3.971-2.443-18.633-2.137-18.633-2.137s-1.018,8.459-2.179,18.158Z" transform="translate(-254.816 -78.338)" fill="#fccc10"/>
            <path id="Trazado_215077" data-name="Trazado 215077" d="M260.073,122.737h13.644c-.438-4.24-3.962-19.924-3.962-19.924l-10.943,3.349s.863,9.779.863,12.833c0,.7.2,2.057.4,3.741" transform="translate(-254.462 -78.195)" fill="#2432ff"/>
            <path id="Trazado_215078" data-name="Trazado 215078" d="M259.991,123.012c.049-5.169-.043-14.7-1.671-16.563,0,0-2.109,1.084-4.247,8.11-.617,2.027-1.178,3.952-1.7,5.786a2.094,2.094,0,0,0,2.014,2.667Z" transform="translate(-253.97 -78.47)" fill="#2432ff"/>
            <path id="Trazado_215079" data-name="Trazado 215079" d="M289.931,122.838c.394-7.434.738-15.354.411-15.681-.611-.611-7.951-3.007-7.951-3.007s-4.782,14.623-5.893,18.688Z" transform="translate(-255.797 -78.296)" fill="#2432ff"/>
          </g>
        </g>
        <g id="Grupo_149530" data-name="Grupo 149530" transform="translate(250.676 91.23)">
          <g id="Grupo_149529" data-name="Grupo 149529" clip-path="url(#clip-path-26)">
            <rect id="Rectángulo_45167" data-name="Rectángulo 45167" width="10.662" height="11.13" transform="matrix(0.212, -0.977, 0.977, 0.212, -1.833, 8.46)" fill="url(#linear-gradient-13)"/>
          </g>
        </g>
        <g id="Grupo_149532" data-name="Grupo 149532" transform="translate(250.676 79.166)">
          <g id="Grupo_149531" data-name="Grupo 149531" clip-path="url(#clip-path-27)">
            <rect id="Rectángulo_45168" data-name="Rectángulo 45168" width="16.715" height="14.304" transform="translate(-2.939 14.046) rotate(-78.184)" fill="url(#linear-gradient-14)"/>
          </g>
        </g>
        <g id="Grupo_149534" data-name="Grupo 149534" transform="translate(260.517 83.775)">
          <g id="Grupo_149533" data-name="Grupo 149533" clip-path="url(#clip-path-28)">
            <rect id="Rectángulo_45169" data-name="Rectángulo 45169" width="5.358" height="4.552" transform="translate(-1.622 4.509) rotate(-78.184)" fill="url(#linear-gradient-15)"/>
          </g>
        </g>
        <g id="Grupo_149536" data-name="Grupo 149536" transform="translate(249.619 83.79)">
          <g id="Grupo_149535" data-name="Grupo 149535" clip-path="url(#clip-path-29)">
            <rect id="Rectángulo_45170" data-name="Rectángulo 45170" width="5.155" height="3.652" transform="matrix(0.205, -0.979, 0.979, 0.205, -1.412, 4.495)" fill="url(#linear-gradient-16)"/>
          </g>
        </g>
        <g id="Grupo_149538" data-name="Grupo 149538" transform="translate(249.001 72.726)">
          <g id="Grupo_149537" data-name="Grupo 149537" clip-path="url(#clip-path-30)">
            <rect id="Rectángulo_45171" data-name="Rectángulo 45171" width="17.44" height="15.831" transform="matrix(0.992, -0.128, 0.128, 0.992, -1.954, 0.229)" fill="url(#linear-gradient-17)"/>
          </g>
        </g>
        <g id="Grupo_149540" data-name="Grupo 149540" transform="translate(234.924 70.434)">
          <g id="Grupo_149539" data-name="Grupo 149539" clip-path="url(#clip-path-25)">
            <path id="Trazado_215086" data-name="Trazado 215086" d="M272.328,99.913a18.718,18.718,0,0,1-.752,3.435c-.4,1.219-.106,2.92-.082,4.2.034,1.791,1.426,3.75,1.121,5.51-.779-2.19-3.158-3.893-4.376-5.938-1.189-2-2.039-3.609-.68-5.494.843-1.17,4.787-1.824,4.769-1.715" transform="translate(-255.07 -77.975)" fill="#2432ff"/>
            <path id="Trazado_215087" data-name="Trazado 215087" d="M280.461,105.828c.168,3.729-.563,4.486-1.156,8.254.8-2.546,2.59-3.883,4-6.154,1.392-2.237,1.843-5.027-.435-6.518-.156-.1-2.36-1.122-2.35-.925.028.545-.134,3.726-.061,5.342" transform="translate(-256.009 -78.018)" fill="#2432ff"/>
          </g>
        </g>
        <g id="Grupo_149569" data-name="Grupo 149569">
          <g id="Grupo_149568" data-name="Grupo 149568" clip-path="url(#clip-path)">
            <path id="Trazado_215089" data-name="Trazado 215089" d="M64.282,115.43A15.973,15.973,0,1,1,48.309,99.456,15.973,15.973,0,0,1,64.282,115.43" transform="translate(-2.441 -7.508)" fill="#fccc10"/>
            <path id="Trazado_215090" data-name="Trazado 215090" d="M63.8,115.473a15.442,15.442,0,1,1-15.442-15.442A15.442,15.442,0,0,1,63.8,115.473" transform="translate(-2.485 -7.552)" fill="#fccc10"/>
            <g id="Grupo_149543" data-name="Grupo 149543" transform="translate(31.487 105.228)" opacity="0.7">
              <g id="Grupo_149542" data-name="Grupo 149542">
                <g id="Grupo_149541" data-name="Grupo 149541" clip-path="url(#clip-path-33)">
                  <path id="Trazado_215091" data-name="Trazado 215091" d="M34.2,115.9H34.2a.146.146,0,0,1-.139-.153,14.432,14.432,0,0,1,.209-1.809.147.147,0,1,1,.288.052,14.037,14.037,0,0,0-.205,1.772.146.146,0,0,1-.146.139" transform="translate(-34.058 -113.821)" fill="#fff"/>
                </g>
              </g>
            </g>
            <g id="Grupo_149546" data-name="Grupo 149546" transform="translate(32.989 93.52)" opacity="0.7">
              <g id="Grupo_149545" data-name="Grupo 149545">
                <g id="Grupo_149544" data-name="Grupo 149544" clip-path="url(#clip-path-34)">
                  <path id="Trazado_215092" data-name="Trazado 215092" d="M35.828,109.289a.13.13,0,0,1-.066-.016.145.145,0,0,1-.065-.2,14.339,14.339,0,0,1,12.864-7.922,14.511,14.511,0,0,1,2.6.235.146.146,0,1,1-.052.288,14.281,14.281,0,0,0-2.546-.229,14.05,14.05,0,0,0-12.6,7.76.146.146,0,0,1-.13.08" transform="translate(-35.682 -101.157)" fill="#fff"/>
                </g>
              </g>
            </g>
            <g id="Grupo_149549" data-name="Grupo 149549" transform="translate(33.135 95.188)" opacity="0.78">
              <g id="Grupo_149548" data-name="Grupo 149548">
                <g id="Grupo_149547" data-name="Grupo 149547" clip-path="url(#clip-path-35)">
                  <path id="Trazado_215093" data-name="Trazado 215093" d="M61.981,116.031a13.07,13.07,0,1,1-13.07-13.07,13.069,13.069,0,0,1,13.07,13.07" transform="translate(-35.841 -102.961)" fill="#fff"/>
                </g>
              </g>
            </g>
            <path id="Trazado_215094" data-name="Trazado 215094" d="M53.652,111.447c0,2.213-1.794,4.6-4.007,4.6s-4.008-2.389-4.008-4.6a4.014,4.014,0,0,1,8.015,0" transform="translate(-3.445 -8.128)" fill="#fccc10"/>
            <path id="Trazado_215095" data-name="Trazado 215095" d="M44.366,125.359h9.782a2.367,2.367,0,0,0,2.255-1.647l.526-1.645a2.365,2.365,0,0,0-1.428-2.944,18.233,18.233,0,0,0-12.314.135,2.357,2.357,0,0,0-1.511,2.858l.4,1.494a2.369,2.369,0,0,0,2.285,1.748" transform="translate(-3.14 -8.917)" fill="#fccc10"/>
            <path id="Trazado_215096" data-name="Trazado 215096" d="M95.455,88.586A15.973,15.973,0,1,1,79.482,72.612,15.973,15.973,0,0,1,95.455,88.586" transform="translate(-4.794 -5.482)" fill="#fccc10"/>
            <path id="Trazado_215097" data-name="Trazado 215097" d="M94.968,88.629A15.442,15.442,0,1,1,79.526,73.187,15.442,15.442,0,0,1,94.968,88.629" transform="translate(-4.838 -5.525)" fill="#fccc10"/>
            <g id="Grupo_149552" data-name="Grupo 149552" transform="translate(60.307 80.41)" opacity="0.7">
              <g id="Grupo_149551" data-name="Grupo 149551">
                <g id="Grupo_149550" data-name="Grupo 149550" clip-path="url(#clip-path-36)">
                  <path id="Trazado_215098" data-name="Trazado 215098" d="M65.377,89.059H65.37a.145.145,0,0,1-.139-.153A14.432,14.432,0,0,1,65.44,87.1a.147.147,0,1,1,.288.052,14.043,14.043,0,0,0-.205,1.771.146.146,0,0,1-.146.139" transform="translate(-65.231 -86.976)" fill="#fff"/>
                </g>
              </g>
            </g>
            <g id="Grupo_149555" data-name="Grupo 149555" transform="translate(61.808 68.703)" opacity="0.7">
              <g id="Grupo_149554" data-name="Grupo 149554">
                <g id="Grupo_149553" data-name="Grupo 149553" clip-path="url(#clip-path-34)">
                  <path id="Trazado_215099" data-name="Trazado 215099" d="M67,82.445a.14.14,0,0,1-.066-.016.146.146,0,0,1-.065-.2,14.34,14.34,0,0,1,12.864-7.921,14.6,14.6,0,0,1,2.6.234.147.147,0,0,1,.118.17.145.145,0,0,1-.17.117,14.281,14.281,0,0,0-2.546-.228,14.051,14.051,0,0,0-12.6,7.759.145.145,0,0,1-.13.08" transform="translate(-66.855 -74.313)" fill="#fff"/>
                </g>
              </g>
            </g>
            <g id="Grupo_149558" data-name="Grupo 149558" transform="translate(61.954 70.37)" opacity="0.78">
              <g id="Grupo_149557" data-name="Grupo 149557">
                <g id="Grupo_149556" data-name="Grupo 149556" clip-path="url(#clip-path-35)">
                  <path id="Trazado_215100" data-name="Trazado 215100" d="M93.154,89.187a13.07,13.07,0,1,1-13.07-13.07,13.069,13.069,0,0,1,13.07,13.07" transform="translate(-67.013 -76.116)" fill="#fff"/>
                </g>
              </g>
            </g>
            <path id="Trazado_215101" data-name="Trazado 215101" d="M84.825,84.6c0,2.213-1.794,4.6-4.007,4.6s-4.008-2.389-4.008-4.6a4.014,4.014,0,0,1,8.015,0" transform="translate(-5.799 -6.101)" fill="#fccc10"/>
            <path id="Trazado_215102" data-name="Trazado 215102" d="M75.539,98.515h9.782a2.367,2.367,0,0,0,2.255-1.647l.526-1.645a2.365,2.365,0,0,0-1.428-2.944,18.233,18.233,0,0,0-12.314.135,2.357,2.357,0,0,0-1.511,2.858l.4,1.494a2.369,2.369,0,0,0,2.285,1.748" transform="translate(-5.493 -6.89)" fill="#fccc10"/>
            <path id="Trazado_215103" data-name="Trazado 215103" d="M101.828,128.542a15.973,15.973,0,1,1-15.974-15.974,15.973,15.973,0,0,1,15.974,15.974" transform="translate(-5.276 -8.498)" fill="#fccc10"/>
            <path id="Trazado_215104" data-name="Trazado 215104" d="M101.34,128.585A15.442,15.442,0,1,1,85.9,113.143a15.442,15.442,0,0,1,15.442,15.442" transform="translate(-5.319 -8.541)" fill="#fccc10"/>
            <g id="Grupo_149561" data-name="Grupo 149561" transform="translate(66.198 117.351)" opacity="0.7">
              <g id="Grupo_149560" data-name="Grupo 149560">
                <g id="Grupo_149559" data-name="Grupo 149559" clip-path="url(#clip-path-33)">
                  <path id="Trazado_215105" data-name="Trazado 215105" d="M71.75,129.016h-.007a.146.146,0,0,1-.139-.153,14.433,14.433,0,0,1,.209-1.809.147.147,0,1,1,.288.052,14.039,14.039,0,0,0-.205,1.772.146.146,0,0,1-.146.139" transform="translate(-71.604 -126.933)" fill="#fff"/>
                </g>
              </g>
            </g>
            <g id="Grupo_149564" data-name="Grupo 149564" transform="translate(67.7 105.643)" opacity="0.7">
              <g id="Grupo_149563" data-name="Grupo 149563">
                <g id="Grupo_149562" data-name="Grupo 149562" clip-path="url(#clip-path-34)">
                  <path id="Trazado_215106" data-name="Trazado 215106" d="M73.374,122.4a.13.13,0,0,1-.066-.016.145.145,0,0,1-.065-.2,14.339,14.339,0,0,1,12.864-7.922,14.6,14.6,0,0,1,2.6.234.148.148,0,0,1,.118.171.145.145,0,0,1-.17.117,14.282,14.282,0,0,0-2.546-.229,14.05,14.05,0,0,0-12.6,7.76.146.146,0,0,1-.13.08" transform="translate(-73.228 -114.269)" fill="#fff"/>
                </g>
              </g>
            </g>
            <g id="Grupo_149567" data-name="Grupo 149567" transform="translate(67.846 107.31)" opacity="0.78">
              <g id="Grupo_149566" data-name="Grupo 149566">
                <g id="Grupo_149565" data-name="Grupo 149565" clip-path="url(#clip-path-35)">
                  <path id="Trazado_215107" data-name="Trazado 215107" d="M99.526,129.143a13.07,13.07,0,1,1-13.07-13.07,13.069,13.069,0,0,1,13.07,13.07" transform="translate(-73.386 -116.073)" fill="#fff"/>
                </g>
              </g>
            </g>
            <path id="Trazado_215108" data-name="Trazado 215108" d="M91.2,124.559c0,2.213-1.794,4.6-4.007,4.6s-4.008-2.389-4.008-4.6a4.014,4.014,0,0,1,8.015,0" transform="translate(-6.28 -9.118)" fill="#fccc10"/>
            <path id="Trazado_215109" data-name="Trazado 215109" d="M81.911,138.471h9.782a2.367,2.367,0,0,0,2.255-1.647l.526-1.645a2.365,2.365,0,0,0-1.428-2.944,18.233,18.233,0,0,0-12.314.135,2.357,2.357,0,0,0-1.511,2.858l.4,1.494a2.369,2.369,0,0,0,2.285,1.748" transform="translate(-5.974 -9.907)" fill="#fccc10"/>
            <path id="Trazado_215110" data-name="Trazado 215110" d="M113.287,129.159s-4.413,2.147-5.224,4.612c-.651,1.978-5.53,2.234-6.012,6.124a4.466,4.466,0,0,1-3.737,3.925c-4.983.765-12.664,3.352-13.893,12-.937,6.6,2.429,9.108,5.962,9.975a5.005,5.005,0,0,1,3.8,5.781c-.5,2.513.248,5.419,4.6,7.716,9.756,5.148,19.5-12.2,19.5-12.2l2-30.284Z" transform="translate(-6.361 -9.751)" fill="#394a5f"/>
          </g>
        </g>
        <g id="Grupo_149571" data-name="Grupo 149571" transform="translate(117.369 112.229)">
          <g id="Grupo_149570" data-name="Grupo 149570" clip-path="url(#clip-path-42)">
            <rect id="Rectángulo_45182" data-name="Rectángulo 45182" width="67.078" height="65.448" transform="matrix(0.586, -0.81, 0.81, 0.586, -24.263, 33.538)" fill="url(#linear-gradient-18)"/>
          </g>
        </g>
        <g id="Grupo_149573" data-name="Grupo 149573">
          <g id="Grupo_149572" data-name="Grupo 149572" clip-path="url(#clip-path)">
            <path id="Trazado_215112" data-name="Trazado 215112" d="M71.375,334.394l-.631,5.19a2.144,2.144,0,0,1-1.88,1.876,33.214,33.214,0,0,1-6.946.108,1.836,1.836,0,0,1-1.542-2.381c.637-2,1.8-5.012,3.482-6.781h5.758a1.773,1.773,0,0,1,1.76,1.988" transform="translate(-4.551 -25.094)" fill="#394a5f"/>
          </g>
        </g>
        <g id="Grupo_149575" data-name="Grupo 149575" transform="translate(100.808 248.501)">
          <g id="Grupo_149574" data-name="Grupo 149574" clip-path="url(#clip-path-44)">
            <rect id="Rectángulo_45184" data-name="Rectángulo 45184" width="21.227" height="68.009" transform="translate(-5.826 0.486) rotate(-4.89)" fill="url(#linear-gradient-19)"/>
          </g>
        </g>
        <g id="Grupo_149577" data-name="Grupo 149577">
          <g id="Grupo_149576" data-name="Grupo 149576" clip-path="url(#clip-path)">
            <path id="Trazado_215114" data-name="Trazado 215114" d="M125.393,341.508H120.8a2.763,2.763,0,0,1-2.193-1.075c-1.431-1.859-4.4-5.486-5.812-5.58-1.908-.128-1.664,6.656-1.664,6.656h-1.07l-1.354-8.429a4.99,4.99,0,0,1,2.618-5.216s.436,3.226,2.8,4.653,9.624,6.536,9.624,6.536a6.553,6.553,0,0,1,1.865.05,1.213,1.213,0,0,1-.226,2.406" transform="translate(-8.202 -24.751)" fill="#394a5f"/>
          </g>
        </g>
        <g id="Grupo_149579" data-name="Grupo 149579" transform="translate(57.753 248.84)">
          <g id="Grupo_149578" data-name="Grupo 149578" clip-path="url(#clip-path-46)">
            <rect id="Rectángulo_45186" data-name="Rectángulo 45186" width="39.941" height="67.299" transform="translate(-5.58 0.469) rotate(-4.89)" fill="url(#linear-gradient-20)"/>
          </g>
        </g>
        <g id="Grupo_149581" data-name="Grupo 149581">
          <g id="Grupo_149580" data-name="Grupo 149580" clip-path="url(#clip-path)">
            <path id="Trazado_215116" data-name="Trazado 215116" d="M112.161,204.074c4.917-20.838-7.54-32.624-7.54-32.624,7.861-7.546,22.183-10.979,22.183-10.979s13.667,9.992,12.045,17.813c-.949,4.584-9.606,27.455-9.606,27.455a19.02,19.02,0,0,1-17.082-1.664" transform="translate(-7.898 -12.114)" fill="#fccc10"/>
            <path id="Trazado_215117" data-name="Trazado 215117" d="M100.04,217.952c2-6.03,10.9-10.317,10.9-10.317a19.018,19.018,0,0,0,17.081,1.664,34.254,34.254,0,0,1,.557,13.237c-1.239,6.376-9.012,47.355-9.012,47.355-12.248,2.482-31.085-2.5-31.085-2.5,7.8-13.851,9.554-43.414,11.555-49.444" transform="translate(-6.68 -15.675)" fill="#2432ff"/>
          </g>
        </g>
        <g id="Grupo_149583" data-name="Grupo 149583" transform="translate(105.911 132.874)">
          <g id="Grupo_149582" data-name="Grupo 149582" clip-path="url(#clip-path-48)">
            <rect id="Rectángulo_45188" data-name="Rectángulo 45188" width="14.99" height="22.713" transform="translate(-3.172 0.39) rotate(-7.784)" fill="url(#linear-gradient-21)"/>
          </g>
        </g>
        <g id="Grupo_149585" data-name="Grupo 149585" transform="translate(107.201 117.575)">
          <g id="Grupo_149584" data-name="Grupo 149584" clip-path="url(#clip-path-49)">
            <rect id="Rectángulo_45189" data-name="Rectángulo 45189" width="26.114" height="26.222" transform="matrix(0.95, -0.311, 0.311, 0.95, -8.474, 2.016)" fill="url(#linear-gradient-22)"/>
          </g>
        </g>
        <g id="Grupo_149587" data-name="Grupo 149587">
          <g id="Grupo_149586" data-name="Grupo 149586" clip-path="url(#clip-path)">
            <path id="Trazado_215120" data-name="Trazado 215120" d="M120.426,138s-1.56-10.514,7.17-8.906l1.766,1.837s4.272-4.811-.456-8.449-11.29-2.706-14.921,3.916-4.948,11.275-1.905,15.39,5.332.585,5.332.585-1.4-3.561-.238-5.089,2.652.888,2.652.888Z" transform="translate(-8.333 -9.088)" fill="#394a5f"/>
          </g>
        </g>
        <g id="Grupo_149589" data-name="Grupo 149589" transform="translate(106.38 125.675)">
          <g id="Grupo_149588" data-name="Grupo 149588" clip-path="url(#clip-path-51)">
            <rect id="Rectángulo_45191" data-name="Rectángulo 45191" width="8.013" height="8.158" transform="translate(-3.705 0.631) rotate(-18.127)" fill="url(#linear-gradient-23)"/>
          </g>
        </g>
        <g id="Grupo_149591" data-name="Grupo 149591" transform="translate(156.822 100.753)">
          <g id="Grupo_149590" data-name="Grupo 149590" clip-path="url(#clip-path-52)">
            <rect id="Rectángulo_45192" data-name="Rectángulo 45192" width="24.572" height="23.879" transform="translate(-8.973 12.404) rotate(-54.117)" fill="url(#linear-gradient-24)"/>
          </g>
        </g>
        <g id="Grupo_149593" data-name="Grupo 149593" transform="translate(159.418 107.673)">
          <g id="Grupo_149592" data-name="Grupo 149592" clip-path="url(#clip-path-53)">
            <rect id="Rectángulo_45193" data-name="Rectángulo 45193" width="6.539" height="8.799" transform="translate(0)" fill="url(#linear-gradient-25)"/>
          </g>
        </g>
        <g id="Grupo_149595" data-name="Grupo 149595">
          <g id="Grupo_149594" data-name="Grupo 149594" clip-path="url(#clip-path)">
            <path id="Trazado_215124" data-name="Trazado 215124" d="M117.473,219.266l.082,0,35.719-.039a1.582,1.582,0,1,0,0-3.164l-35.719.039a1.582,1.582,0,0,0-.079,3.162" transform="translate(-8.754 -16.311)" fill="#394a5f"/>
            <path id="Trazado_215125" data-name="Trazado 215125" d="M187.083,184.818H157.336a5.674,5.674,0,0,0-5.128,3.217l-13.752,28.852h36.968a3.446,3.446,0,0,0,3.2-2.156l10.664-26.7a2.354,2.354,0,0,0-2.21-3.215" transform="translate(-10.452 -13.952)" fill="#394a5f"/>
            <path id="Trazado_215126" data-name="Trazado 215126" d="M168.362,200.579c-.644,1.981-.168,3.906,1.064,4.3s2.753-.9,3.4-2.877.168-3.906-1.063-4.3-2.754.9-3.4,2.878" transform="translate(-12.688 -14.92)" fill="#aab1ba"/>
          </g>
        </g>
        <g id="Grupo_149597" data-name="Grupo 149597" transform="translate(87.863 159.38)">
          <g id="Grupo_149596" data-name="Grupo 149596" clip-path="url(#clip-path-55)">
            <rect id="Rectángulo_45195" data-name="Rectángulo 45195" width="49.39" height="51.389" transform="matrix(0.923, -0.386, 0.386, 0.923, -16.623, 6.013)" fill="url(#linear-gradient-26)"/>
          </g>
        </g>
        <g id="Grupo_149599" data-name="Grupo 149599">
          <g id="Grupo_149598" data-name="Grupo 149598" clip-path="url(#clip-path)">
            <path id="Trazado_215128" data-name="Trazado 215128" d="M172.928,334.431a1.283,1.283,0,0,1-.895-.441c-3.313-3.828-27.573-33.912-.642-65.1,25.566-29.61,37.669-36.2,38.118-52.506a1.9,1.9,0,0,1,3.541-.91c7.237,12.256,19.254,41.221-11.658,63.149-34.1,24.189-29.4,47.542-27.169,54.111a1.286,1.286,0,0,1-1.3,1.7" transform="translate(-11.991 -16.196)" fill="#586678"/>
            <path id="Trazado_215129" data-name="Trazado 215129" d="M178.671,341.238a1.854,1.854,0,0,1-1.7-1.429c-1.268-5.453-4.911-25.912,9.866-32.521,16.268-7.275,30.937,7.281,42.311-5.83a.935.935,0,0,1,1.641.7c-.616,6.448-4.378,21.562-25.834,26.159-22.965,4.92-25.376,7.779-24.658,11.046A1.561,1.561,0,0,1,178.671,341.238Z" transform="translate(-13.259 -22.733)" fill="#586678"/>
            <path id="Trazado_215130" data-name="Trazado 215130" d="M210.275,234.4a23.853,23.853,0,0,1-.851,3.528,34.814,34.814,0,0,1-1.258,3.384,43.083,43.083,0,0,1-3.4,6.377,50.612,50.612,0,0,1-9.533,10.857,66.11,66.11,0,0,1-5.742,4.368,54.846,54.846,0,0,0-5.443,4.27,60.482,60.482,0,0,0-9.2,10.332,51.606,51.606,0,0,0-9.5,25.687,48.424,48.424,0,0,0,.961,13.829,57.318,57.318,0,0,0,4.673,13.179.454.454,0,0,1-.8.424,54.263,54.263,0,0,1-5.391-13.245,47.185,47.185,0,0,1-1.486-14.314,49.4,49.4,0,0,1,2.83-14.165,56.08,56.08,0,0,1,6.6-12.855,60.439,60.439,0,0,1,9.546-10.847,57.568,57.568,0,0,1,5.688-4.5,66.331,66.331,0,0,0,5.576-4.156,55.679,55.679,0,0,0,9.485-10.054,48.671,48.671,0,0,0,3.7-5.875,36.816,36.816,0,0,0,2.725-6.385l.008-.028a.414.414,0,0,1,.805.184" transform="translate(-12.324 -17.659)" fill="#aab1ba"/>
            <path id="Trazado_215131" data-name="Trazado 215131" d="M177.548,337.922a1.473,1.473,0,0,0,0-.58l-.06-.567-.1-1.136q-.083-1.136-.12-2.275c-.046-1.519-.031-3.041.058-4.561a34.032,34.032,0,0,1,1.643-8.994,16.144,16.144,0,0,1,5.107-7.653,12.5,12.5,0,0,1,4.195-2.106,15.883,15.883,0,0,1,4.633-.586c6.093.247,12.1.96,18.107,1.453a31.636,31.636,0,0,0,8.891-.228,13.185,13.185,0,0,0,2.086-.644,11.163,11.163,0,0,0,1.916-1.035,14.017,14.017,0,0,0,3.153-3.052l0,0a.369.369,0,0,1,.587.447,14.8,14.8,0,0,1-3.267,3.295,12.077,12.077,0,0,1-2.044,1.16,14.088,14.088,0,0,1-2.225.741,32.485,32.485,0,0,1-9.173.345c-3.031-.2-6.034-.534-9.043-.791s-6.031-.5-9.007-.625a14.874,14.874,0,0,0-4.336.507,11.494,11.494,0,0,0-3.878,1.9,15.264,15.264,0,0,0-4.933,7.146,33.325,33.325,0,0,0-1.764,8.764c-.116,1.5-.158,3-.14,4.5q.015,1.127.078,2.254l.077,1.125.049.56a1.225,1.225,0,0,0,.13.547.343.343,0,1,1-.623.091Z" transform="translate(-13.38 -23.086)" fill="#aab1ba"/>
          </g>
        </g>
      </g>
    </g>
  </g>
</svg>
