<svg id="Grupo_150088" data-name="Grupo 150088" xmlns="http://www.w3.org/2000/svg" xmlns:xlink="http://www.w3.org/1999/xlink" width="233.593" height="217.264" viewBox="0 0 233.593 217.264">
  <defs>
    <clipPath id="clip-path">
      <rect id="Rectángulo_45501" data-name="Rectángulo 45501" width="233.593" height="217.264" fill="none"/>
    </clipPath>
    <clipPath id="clip-path-3">
      <rect id="Rectángulo_45491" data-name="Rectángulo 45491" width="28.688" height="12.091" fill="none"/>
    </clipPath>
    <clipPath id="clip-path-4">
      <rect id="Rectángulo_45492" data-name="Rectángulo 45492" width="5.483" height="34.821" fill="none"/>
    </clipPath>
    <clipPath id="clip-path-5">
      <rect id="Rectángulo_45493" data-name="Rectángulo 45493" width="5.697" height="11.696" fill="none"/>
    </clipPath>
    <clipPath id="clip-path-6">
      <rect id="Rectángulo_45494" data-name="Rectángulo 45494" width="16.858" height="38.561" fill="none"/>
    </clipPath>
    <clipPath id="clip-path-7">
      <rect id="Rectángulo_45495" data-name="Rectángulo 45495" width="6.643" height="5.974" fill="none"/>
    </clipPath>
    <clipPath id="clip-path-8">
      <rect id="Rectángulo_45496" data-name="Rectángulo 45496" width="4.289" height="11.043" fill="none"/>
    </clipPath>
    <clipPath id="clip-path-9">
      <rect id="Rectángulo_45497" data-name="Rectángulo 45497" width="3.706" height="19.749" fill="none"/>
    </clipPath>
    <clipPath id="clip-path-10">
      <rect id="Rectángulo_45498" data-name="Rectángulo 45498" width="7.872" height="35.039" fill="none"/>
    </clipPath>
    <clipPath id="clip-path-11">
      <rect id="Rectángulo_45499" data-name="Rectángulo 45499" width="6.166" height="0.356" fill="none"/>
    </clipPath>
  </defs>
  <g id="Grupo_150087" data-name="Grupo 150087" clip-path="url(#clip-path)">
    <g id="Grupo_150086" data-name="Grupo 150086">
      <g id="Grupo_150085" data-name="Grupo 150085" clip-path="url(#clip-path)">
        <path id="Trazado_216179" data-name="Trazado 216179" d="M40.093,167.371,19,171.886a5.538,5.538,0,0,1-6.575-4.257L7.909,146.536a5.539,5.539,0,0,1,4.257-6.575l21.093-4.515a5.538,5.538,0,0,1,6.575,4.257L44.35,160.8a5.538,5.538,0,0,1-4.257,6.575" transform="translate(-1.017 -17.67)" fill="#ececec"/>
        <path id="Trazado_216180" data-name="Trazado 216180" d="M38.649,158.258a2.089,2.089,0,0,0-.194-.689c-.028-.067-.055-.135-.088-.222A5.82,5.82,0,0,0,35.878,155a12.622,12.622,0,0,0-2.983-1.149l-.127-.032a.194.194,0,0,0-.216.09l-2.022,3.466-7.433-4.77,2.026-3.74a.195.195,0,0,0-.087-.268l-1.708-.818c-.278-.13-.453-.211-.569-.249a1.568,1.568,0,0,0-.164-.089c-.029-.013-.061-.03-.1-.048a2.882,2.882,0,0,0-.383-.168,5.267,5.267,0,0,0-2.034-.309,5.206,5.206,0,0,0-3.032,1.152,4.82,4.82,0,0,0-1.825,3.861,3.372,3.372,0,0,0,1.1,2.349,6.621,6.621,0,0,0,1.078.795l11.309,7.241c.14.088.278.176.417.267.324.21.661.427,1.032.619a6.55,6.55,0,0,0,1.692.591,6.052,6.052,0,0,0,1.229.126,5.856,5.856,0,0,0,2.39-.5,5.455,5.455,0,0,0,2.643-2.509,4.194,4.194,0,0,0,.355-.844l.047-.149a2.432,2.432,0,0,0,.156-.75l.036-.486Zm-14.164-9.343-2.126,3.741a.2.2,0,0,0,.062.258l8.18,5.368a.191.191,0,0,0,.15.027.2.2,0,0,0,.123-.09l2.109-3.569a11.786,11.786,0,0,1,2.527,1.017,5.149,5.149,0,0,1,2.156,1.994c.025.072.055.143.083.215a1.435,1.435,0,0,1,.136.487l.055.339-.037.412a1.778,1.778,0,0,1-.121.559l-.051.163a3.425,3.425,0,0,1-.3.712,4.729,4.729,0,0,1-2.274,2.162,5.214,5.214,0,0,1-3.149.326,5.78,5.78,0,0,1-1.5-.521c-.324-.165-.65-.375-.966-.578-.143-.091-.285-.183-.425-.27l-11.339-7.18a6.149,6.149,0,0,1-.988-.707,2.7,2.7,0,0,1-.908-1.874,4.258,4.258,0,0,1,1.546-3.366,4.7,4.7,0,0,1,2.676-1.082c.12-.007.235-.01.345-.01a4.8,4.8,0,0,1,1.98.393,1.111,1.111,0,0,0,.173.063c.1.068.266.156.516.291Z" transform="translate(-1.988 -19.184)" fill="#fff"/>
        <path id="Trazado_216181" data-name="Trazado 216181" d="M29.834,149.986a14.33,14.33,0,0,0,2.276-.363c.433,2.183.6,2.417.755,2.417a.375.375,0,0,0,.062-.008h0c.182-.036.325-.071-.142-2.553,2.531-.548,2.511-.694,2.476-.875h0a.22.22,0,0,0-.09-.132,7.761,7.761,0,0,0-2.518.33,7.534,7.534,0,0,0-.662-2.377.229.229,0,0,0-.155-.032.22.22,0,0,0-.132.088,7.539,7.539,0,0,0,.273,2.464c-2.325.508-2.42.674-2.455.737a.215.215,0,0,0-.011.17c.025.068.05.135.321.135" transform="translate(-3.852 -19.115)" fill="#fff"/>
        <rect id="Rectángulo_45477" data-name="Rectángulo 45477" width="56.56" height="93.624" transform="translate(170.848 8.92)" fill="#e1e1e1"/>
        <rect id="Rectángulo_45478" data-name="Rectángulo 45478" width="56.56" height="93.624" transform="translate(168.967 8.92)" fill="#ececec"/>
        <rect id="Rectángulo_45479" data-name="Rectángulo 45479" width="51.744" height="89.827" transform="translate(171.375 10.818)" fill="#fafafa"/>
        <rect id="Rectángulo_45480" data-name="Rectángulo 45480" width="31.818" height="66.482" transform="translate(181.226 22.491)" fill="#ececec"/>
        <path id="Trazado_216182" data-name="Trazado 216182" d="M208.443,71.593c-.074-6.21,5.51-12.273,11.661-13.14,2.932-.413,6.048.169,8.788-.955,4.891-2.006,6.447-8.5,11.369-10.431l.224,48.052H208.443Z" transform="translate(-27.217 -6.146)" fill="#e1e1e1"/>
        <rect id="Rectángulo_45481" data-name="Rectángulo 45481" width="43.507" height="45.352" transform="translate(111.181 8.742)" fill="#e1e1e1"/>
        <rect id="Rectángulo_45482" data-name="Rectángulo 45482" width="43.507" height="45.352" transform="translate(108.235 8.742)" fill="#fafafa"/>
        <path id="Trazado_216183" data-name="Trazado 216183" d="M168.009,55.419H124.475V10.04h43.534ZM124.5,55.392h43.48V10.067H124.5Z" transform="translate(-16.253 -1.311)" fill="#e1e1e1"/>
        <rect id="Rectángulo_45483" data-name="Rectángulo 45483" width="31.81" height="33.159" transform="translate(114.084 14.838)" fill="#fafafa"/>
        <path id="Trazado_216184" data-name="Trazado 216184" d="M130.345,55.46a5.223,5.223,0,0,1-.785.913c-.508.536-1.222,1.262-2.022,2.049S126,59.913,125.46,60.411a5.063,5.063,0,0,1-.919.766,4.988,4.988,0,0,1,.781-.909c.508-.536,1.223-1.263,2.027-2.054s1.539-1.494,2.081-1.993a4.982,4.982,0,0,1,.915-.762" transform="translate(-16.262 -7.241)" fill="#e1e1e1"/>
        <path id="Trazado_216185" data-name="Trazado 216185" d="M167.8,55.366a5.2,5.2,0,0,1,.912.785c.536.508,1.262,1.222,2.05,2.022s1.49,1.535,1.988,2.078a5.017,5.017,0,0,1,.766.919,5.068,5.068,0,0,1-.909-.781c-.536-.508-1.263-1.224-2.054-2.027s-1.494-1.54-1.994-2.081a4.906,4.906,0,0,1-.761-.916" transform="translate(-21.911 -7.229)" fill="#e1e1e1"/>
        <path id="Trazado_216186" data-name="Trazado 216186" d="M167.7,16.31a5.224,5.224,0,0,1,.785-.913c.508-.536,1.222-1.262,2.022-2.049s1.535-1.491,2.078-1.99a5.076,5.076,0,0,1,.919-.765,4.989,4.989,0,0,1-.781.909c-.508.536-1.223,1.263-2.027,2.054s-1.539,1.494-2.081,1.993a4.983,4.983,0,0,1-.916.762" transform="translate(-21.898 -1.383)" fill="#e1e1e1"/>
        <path id="Trazado_216187" data-name="Trazado 216187" d="M130.258,16.391a5.224,5.224,0,0,1-.913-.785c-.536-.508-1.262-1.222-2.049-2.022s-1.491-1.535-1.989-2.078a5.063,5.063,0,0,1-.766-.919,4.989,4.989,0,0,1,.909.781c.536.508,1.263,1.223,2.054,2.027s1.494,1.54,1.993,2.082a4.964,4.964,0,0,1,.762.915" transform="translate(-16.262 -1.382)" fill="#e1e1e1"/>
        <path id="Trazado_216188" data-name="Trazado 216188" d="M162.919,50.2a1.537,1.537,0,0,1-.007-.161c0-.113,0-.266-.007-.463q-.005-.623-.014-1.789c-.008-1.571-.019-3.857-.032-6.758-.016-5.808-.036-14.081-.063-23.987l.123.123-31.719.018h0l.141-.141c-.007,12.171-.014,23.557-.02,33.159l-.121-.121,22.969.062,6.452.031,1.707.014.441.007a1.4,1.4,0,0,1,.154.007.99.99,0,0,1-.14.007l-.429.007-1.683.014-6.424.031-23.047.062h-.121V50.2c-.006-9.6-.013-20.988-.02-33.159v-.141h.144l31.719.018h.123v.123c-.026,9.938-.047,18.24-.062,24.066-.015,2.89-.025,5.166-.033,6.73-.006.766-.01,1.356-.014,1.767,0,.191-.005.339-.007.449a1.076,1.076,0,0,1-.007.147" transform="translate(-17.112 -2.207)" fill="#e1e1e1"/>
        <rect id="Rectángulo_45484" data-name="Rectángulo 45484" width="10.615" height="10.614" transform="translate(124.681 26.111)" fill="#ececec"/>
        <path id="Trazado_216189" data-name="Trazado 216189" d="M258.593,229.7l-1.682,17.243h-8.9L246.256,229.7Z" transform="translate(-32.155 -29.994)" fill="#e1e1e1"/>
        <rect id="Rectángulo_45485" data-name="Rectángulo 45485" width="14.72" height="1.262" transform="translate(213.05 198.45)" fill="#ececec"/>
        <path id="Trazado_216190" data-name="Trazado 216190" d="M257.216,225.754l1.472,2.454H246.982l.561-2.454Z" transform="translate(-32.25 -29.478)" fill="#ececec"/>
        <path id="Trazado_216191" data-name="Trazado 216191" d="M258.115,236.382l-.6,6.154H247.56l-.626-6.154Z" transform="translate(-32.243 -30.866)" fill="#f5f5f5"/>
        <path id="Trazado_216192" data-name="Trazado 216192" d="M251.894,241.315a2.82,2.82,0,0,1,.461-1.522c.25-.386.549-.719.791-1.052a3.185,3.185,0,0,0,.515-.971,1.837,1.837,0,0,0,.079-.427c.023.012.046.022.068.036a1.558,1.558,0,0,1,.65,1.017,2.923,2.923,0,0,1-.057,1.229,2.652,2.652,0,0,1-.647,1.306,1.788,1.788,0,0,1-1.555.482,1.492,1.492,0,0,1-.306-.1" transform="translate(-32.891 -30.991)" fill="#fafafa"/>
        <path id="Trazado_216193" data-name="Trazado 216193" d="M251.024,239.941a5.134,5.134,0,0,1,.315-1.613,1.781,1.781,0,0,1,1.178-1.092,1.377,1.377,0,0,1,.855.041,1.826,1.826,0,0,1-.1.432,3.316,3.316,0,0,1-.526.912c-.243.32-.549.65-.81,1.055a2.856,2.856,0,0,0-.452,1.272,2.662,2.662,0,0,0-.015.272.935.935,0,0,1-.337-.342,1.645,1.645,0,0,1-.1-.937" transform="translate(-32.775 -30.971)" fill="#fafafa"/>
        <path id="Trazado_216194" data-name="Trazado 216194" d="M160.8,210.322c8.033-8.045,8-20.313,5.728-30.945-.378-1.775-.518-3.692-1.646-5.107s-3.3-2.132-4.765-1.1c-1.215.861-1.518,2.506-2.033,3.913a10.611,10.611,0,0,1-3.474,4.745,4.043,4.043,0,0,1-3.607.984c-1.691-.576-2.251-2.67-2.557-4.448l-1.706-9.939a16.818,16.818,0,0,0-1.475-5.178,5.593,5.593,0,0,0-4.125-3.107,3.394,3.394,0,0,0-3.737,2.975,16.783,16.783,0,0,0,.343,2.22,1.9,1.9,0,0,1-.779,1.953,2.18,2.18,0,0,1-2.1-.468,23.969,23.969,0,0,1-5.379-5.644,33.236,33.236,0,0,0-5.13-5.9,9.747,9.747,0,0,0-7.155-2.49,5.838,5.838,0,0,0-5.2,4.971c-.2,2.619,1.714,4.9,3.665,6.642a40.253,40.253,0,0,0,9.653,6.4,3.315,3.315,0,0,1,1.645,1.238c.6,1.115-.316,2.491-1.415,3.088a20.871,20.871,0,0,1-4.061,1.2c-1.355.41-2.747,1.288-3.037,2.69-.4,1.944,1.452,3.576,3.167,4.556a34.461,34.461,0,0,0,11.083,4.011,11.646,11.646,0,0,1,4.058,1.15,3.34,3.34,0,0,1,1.723,3.577,3.4,3.4,0,0,1-3.39,2.047,24.052,24.052,0,0,1-4.161-.795c-2.6-.486-5.726.243-6.914,2.63a5.708,5.708,0,0,0,.288,5.076,13.134,13.134,0,0,0,3.473,3.909,34.666,34.666,0,0,0,16.4,7.648c6.009.955,11.349.552,16.609-2.507" transform="translate(-14.625 -19.944)" fill="#f5f5f5"/>
        <path id="Trazado_216195" data-name="Trazado 216195" d="M157.172,204.429a161.416,161.416,0,0,0-9.367-16.005l-2.671-4.069c-.879-1.334-1.752-2.656-2.685-3.9a80.7,80.7,0,0,0-5.77-6.823c-1.941-2.081-3.858-3.985-5.663-5.753s-3.528-3.378-5.157-4.78a63.991,63.991,0,0,0-8.171-6.043c-1.016-.636-1.821-1.1-2.372-1.412l-.628-.348a1.23,1.23,0,0,0-.219-.108,1.4,1.4,0,0,0,.2.138l.611.376c.538.329,1.332.813,2.337,1.464a67.721,67.721,0,0,1,8.087,6.112c1.614,1.411,3.319,3.03,5.117,4.8s3.7,3.684,5.633,5.765a81.788,81.788,0,0,1,5.733,6.808c.926,1.235,1.789,2.547,2.67,3.885l2.668,4.068a165.773,165.773,0,0,1,9.372,15.96" transform="translate(-14.947 -20.264)" fill="#e1e1e1"/>
        <path id="Trazado_216196" data-name="Trazado 216196" d="M146.382,181.254a3.668,3.668,0,0,0,.038-.789c.006-.507-.01-1.241-.043-2.147-.063-1.813-.237-4.313-.439-7.068s-.34-5.253-.376-7.061c-.021-.9-.03-1.637-.03-2.143a3.675,3.675,0,0,0-.038-.788,3.559,3.559,0,0,0-.091.783c-.039.506-.066,1.24-.075,2.147-.024,1.815.077,4.324.279,7.083.206,2.72.393,5.179.536,7.058.059.849.108,1.566.148,2.141a3.571,3.571,0,0,0,.09.784" transform="translate(-18.976 -21.056)" fill="#e1e1e1"/>
        <path id="Trazado_216197" data-name="Trazado 216197" d="M119.409,183.906a5.032,5.032,0,0,0,.93-.053c.595-.052,1.455-.132,2.521-.2,2.132-.147,5.083-.246,8.343-.214s6.211.2,8.342.376c1.066.081,1.927.17,2.522.228a4.858,4.858,0,0,0,.93.06,4.97,4.97,0,0,0-.914-.19c-.592-.1-1.452-.223-2.518-.335-2.131-.238-5.09-.437-8.361-.476a81.674,81.674,0,0,0-8.364.313c-1.068.1-1.927.211-2.519.3a4.9,4.9,0,0,0-.914.183" transform="translate(-15.592 -23.908)" fill="#e1e1e1"/>
        <path id="Trazado_216198" data-name="Trazado 216198" d="M163.175,206.712a1.177,1.177,0,0,0,.107-.306l.243-.9c.208-.779.479-1.913.8-3.319.636-2.812,1.392-6.723,2.167-11.05s1.495-8.241,2.07-11.063l.692-3.339c.073-.364.134-.663.183-.91a1.187,1.187,0,0,0,.042-.323,1.2,1.2,0,0,0-.107.307l-.243.895c-.208.779-.479,1.913-.8,3.319-.636,2.812-1.391,6.723-2.167,11.052s-1.495,8.24-2.07,11.061c-.285,1.372-.518,2.5-.692,3.339-.074.364-.134.664-.183.91a1.193,1.193,0,0,0-.042.323" transform="translate(-21.306 -22.917)" fill="#e1e1e1"/>
        <path id="Trazado_216199" data-name="Trazado 216199" d="M126.281,206.367a1.245,1.245,0,0,0,.323.07l.934.138c.861.119,2.022.28,3.436.474,2.9.4,6.9,1,11.322,1.67s8.432,1.233,11.343,1.574c1.455.171,2.633.3,3.45.368l.941.077a1.264,1.264,0,0,0,.33,0,1.231,1.231,0,0,0-.323-.071l-.934-.138-3.435-.474c-2.9-.4-6.9-1-11.324-1.67s-8.43-1.232-11.34-1.573c-1.455-.171-2.634-.3-3.451-.369l-.941-.076a1.218,1.218,0,0,0-.33,0" transform="translate(-16.489 -26.945)" fill="#e1e1e1"/>
        <rect id="Rectángulo_45486" data-name="Rectángulo 45486" width="38.257" height="36.7" transform="translate(11.771 38.274) rotate(-89.868)" fill="#e1e1e1"/>
        <rect id="Rectángulo_45487" data-name="Rectángulo 45487" width="38.257" height="36.7" transform="translate(9.285 38.268) rotate(-89.868)" fill="#375a64"/>
        <rect id="Rectángulo_45488" data-name="Rectángulo 45488" width="38.279" height="36.723" transform="translate(9.274 38.279) rotate(-89.868)" fill="#f5f5f5"/>
        <rect id="Rectángulo_45489" data-name="Rectángulo 45489" width="27.971" height="26.833" transform="translate(14.231 33.137) rotate(-89.868)" fill="#fff"/>
        <path id="Trazado_216200" data-name="Trazado 216200" d="M15.631,38.327a4.486,4.486,0,0,1-.665.769c-.429.451-1.033,1.062-1.709,1.725s-1.3,1.255-1.757,1.674a4.241,4.241,0,0,1-.776.644,4.179,4.179,0,0,1,.66-.765c.429-.451,1.034-1.063,1.713-1.728s1.3-1.257,1.76-1.677a4.216,4.216,0,0,1,.775-.641" transform="translate(-1.4 -5.004)" fill="#e1e1e1"/>
        <path id="Trazado_216201" data-name="Trazado 216201" d="M47.231,38.319a4.4,4.4,0,0,1,.769.664c.451.429,1.062,1.033,1.725,1.709s1.255,1.3,1.674,1.757a4.26,4.26,0,0,1,.644.776,4.234,4.234,0,0,1-.765-.66c-.451-.429-1.063-1.035-1.728-1.714s-1.257-1.3-1.677-1.76a4.231,4.231,0,0,1-.641-.774" transform="translate(-6.167 -5.003)" fill="#e1e1e1"/>
        <path id="Trazado_216202" data-name="Trazado 216202" d="M47.22,5.375a4.4,4.4,0,0,1,.664-.769c.429-.451,1.033-1.062,1.709-1.725s1.3-1.255,1.757-1.674a4.26,4.26,0,0,1,.776-.644,4.234,4.234,0,0,1-.66.765c-.429.451-1.035,1.063-1.714,1.728s-1.3,1.257-1.76,1.677a4.231,4.231,0,0,1-.774.641" transform="translate(-6.166 -0.073)" fill="#e1e1e1"/>
        <path id="Trazado_216203" data-name="Trazado 216203" d="M15.634,5.369a4.355,4.355,0,0,1-.769-.664C14.414,4.275,13.8,3.672,13.141,3s-1.255-1.3-1.674-1.757a4.26,4.26,0,0,1-.644-.776,4.234,4.234,0,0,1,.765.66c.451.429,1.063,1.035,1.728,1.714s1.257,1.3,1.677,1.76a4.231,4.231,0,0,1,.641.774" transform="translate(-1.413 -0.06)" fill="#e1e1e1"/>
        <path id="Trazado_216204" data-name="Trazado 216204" d="M43.113,33.956s0-.048-.005-.136,0-.224-.005-.39c0-.351-.005-.856-.009-1.51,0-1.325-.008-3.253-.014-5.7,0-4.9,0-11.878-.006-20.234l.1.1L16.42,6.042h0l.119-.118c-.03,10.266-.057,19.871-.081,27.971l-.1-.1,19.375.1,5.443.039,1.44.015.372.007a1.12,1.12,0,0,1,.13.006.949.949,0,0,1-.118.005l-.361.005-1.421.009-5.419.014L16.353,34h-.1v-.1c.014-8.1.03-17.7.048-27.971V5.8h.122l26.757.077h.1v.1c-.041,8.384-.076,15.385-.1,20.3-.017,2.438-.031,4.358-.04,5.677q-.01.97-.016,1.49c0,.162-.005.286-.007.379a.9.9,0,0,1-.006.124" transform="translate(-2.122 -0.758)" fill="#e1e1e1"/>
        <path id="Trazado_216205" data-name="Trazado 216205" d="M25.887,28.218a5.936,5.936,0,0,1-.246-7.807c.748-.855,1.741-1.477,2.434-2.376,1.5-1.948,1.487-5.02,3.572-6.322a3.8,3.8,0,0,1,4.805,1.012,5.092,5.092,0,0,1,.469,5.1,32.521,32.521,0,0,0-1.842,3.507c-.39,1.295-.172,2.717-.578,4.008-.489,1.561-2.143,2.543-3.679,3.108a6.874,6.874,0,0,1-4.935-.23" transform="translate(-3.172 -1.467)" fill="#f5f5f5"/>
        <path id="Trazado_216206" data-name="Trazado 216206" d="M33.268,15.968a4.794,4.794,0,0,1-.262.738c-.18.471-.464,1.143-.836,1.965a54.888,54.888,0,0,1-3.331,6.205,54.721,54.721,0,0,1-4.1,5.727c-.573.7-1.05,1.248-1.394,1.617a4.9,4.9,0,0,1-.548.561,4.9,4.9,0,0,1,.476-.622c.321-.388.778-.955,1.332-1.662a66.6,66.6,0,0,0,4.03-5.748A66.628,66.628,0,0,0,32.015,18.6c.391-.809.7-1.469.905-1.928a4.912,4.912,0,0,1,.348-.7" transform="translate(-2.976 -2.085)" fill="#e1e1e1"/>
        <path id="Trazado_216207" data-name="Trazado 216207" d="M28.442,21.528a9.076,9.076,0,0,1,.212,1.415c.1.882.232,2.114.365,3.5l-.179-.092.579-.337c1.342-.779,2.565-1.473,3.456-1.965a11.174,11.174,0,0,1,1.467-.753,11.038,11.038,0,0,1-1.381.9c-.869.529-2.078,1.247-3.421,2.026l-.58.336-.163.095-.017-.187c-.126-1.391-.226-2.625-.287-3.512a9.089,9.089,0,0,1-.052-1.43" transform="translate(-3.712 -2.811)" fill="#e1e1e1"/>
        <path id="Trazado_216208" data-name="Trazado 216208" d="M35.955,18.926a4.438,4.438,0,0,1-.905.505c-.572.283-1.369.66-2.256,1.063l-.276.124-.144.066-.024-.156c-.138-.894-.25-1.692-.318-2.268a3.821,3.821,0,0,1-.064-.935,3.792,3.792,0,0,1,.226.909c.111.569.25,1.363.394,2.256l-.169-.09.276-.126c.887-.4,1.7-.755,2.286-1a4.4,4.4,0,0,1,.975-.35" transform="translate(-4.172 -2.262)" fill="#e1e1e1"/>
        <path id="Trazado_216209" data-name="Trazado 216209" d="M233.593,249.518c0,.075-52.3.135-116.791.135-64.517,0-116.8-.06-116.8-.135s52.285-.135,116.8-.135c64.495,0,116.791.06,116.791.135" transform="translate(0 -32.563)" fill="#1a2e35"/>
        <path id="Trazado_216210" data-name="Trazado 216210" d="M72.615,196.642a12.926,12.926,0,0,1,8.02-.975,6.665,6.665,0,0,1,3.962,1.768c.99,1.093,1.178,3.017.041,3.956a3.8,3.8,0,0,1-2.5.634c-2.121-.025-4.473-.4-6.167.877-.966.728-1.609,1.938-2.765,2.3a2.732,2.732,0,0,1-3.006-1.337,4.673,4.673,0,0,1-.34-3.446,5.258,5.258,0,0,1,2.752-3.774" transform="translate(-9.1 -25.52)" fill="#f37409"/>
        <path id="Trazado_216211" data-name="Trazado 216211" d="M66.414,181.089c1.492,2.13,4.391,1.425,5.736.125a10.839,10.839,0,0,0,2.429-4.984c1.182-4.106,2.374-8.414,1.495-12.6a7,7,0,0,0-1.608-3.425A3.658,3.658,0,0,0,71,159.056c-1.462.387-2.371,1.818-3.027,3.18a30.027,30.027,0,0,0-2.967,12.887,10.416,10.416,0,0,0,1.408,5.966" transform="translate(-8.488 -20.756)" fill="#f37409"/>
        <path id="Trazado_216212" data-name="Trazado 216212" d="M59.334,185.175a7.75,7.75,0,0,0,1.207-7.133,13.744,13.744,0,0,0-4.225-6.129,22.748,22.748,0,0,0-7.567-4.465,8.058,8.058,0,0,0-3.4-.578A3.576,3.576,0,0,0,42.49,168.6c-.8,1.519-.032,3.362.793,4.864a57.767,57.767,0,0,0,4.97,7.569c1.49,1.92,3.2,3.813,5.466,4.682s4.629.765,5.832-.809" transform="translate(-5.504 -21.786)" fill="#f37409"/>
        <path id="Trazado_216213" data-name="Trazado 216213" d="M66.506,218.436a4.66,4.66,0,0,0,.135-.968c.069-.705.155-1.59.257-2.642a38.082,38.082,0,0,1,.595-3.876,29.892,29.892,0,0,1,1.408-4.574,16.874,16.874,0,0,1,2.335-4.138,8.725,8.725,0,0,1,2.953-2.454,8.244,8.244,0,0,1,2.487-.775,4.589,4.589,0,0,0,.963-.14,4.638,4.638,0,0,0-.981-.015,7.522,7.522,0,0,0-2.593.675A8.7,8.7,0,0,0,70.951,202a16.48,16.48,0,0,0-2.421,4.222,27.964,27.964,0,0,0-1.4,4.649,32.646,32.646,0,0,0-.516,3.925c-.083,1.122-.116,2.03-.13,2.659a4.512,4.512,0,0,0,.02.977" transform="translate(-8.68 -25.964)" fill="#1a2e35"/>
        <path id="Trazado_216214" data-name="Trazado 216214" d="M66.688,212.481a1.892,1.892,0,0,0,.026-.449c0-.337,0-.762,0-1.284,0-1.115,0-2.728.057-4.721.1-3.984.442-8.272,1.1-14.318.628-5.684,1.469-12.3,2.359-16.6.19-.978.383-1.859.563-2.629s.32-1.439.462-1.978c.122-.507.222-.921.3-1.249a1.955,1.955,0,0,0,.079-.443,1.865,1.865,0,0,0-.157.422c-.1.323-.221.73-.373,1.231-.165.534-.335,1.2-.529,1.965s-.413,1.646-.622,2.623a145.52,145.52,0,0,0-2.48,15.4c-.664,6.058-.963,11.574-.989,15.568-.023,2,.018,3.614.07,4.73.032.522.058.947.078,1.284a1.893,1.893,0,0,0,.055.446" transform="translate(-8.68 -22.042)" fill="#1a2e35"/>
        <path id="Trazado_216215" data-name="Trazado 216215" d="M64.613,202.33a8.562,8.562,0,0,0-.01-1.342c-.05-.862-.168-2.109-.41-3.636a48.153,48.153,0,0,0-1.182-5.3,43.458,43.458,0,0,0-2.215-6.268,33.382,33.382,0,0,0-6.505-10.129,16.58,16.58,0,0,0-1.53-1.422c-.235-.2-.443-.4-.654-.553l-.594-.41a8.562,8.562,0,0,0-1.129-.723,39.99,39.99,0,0,1,3.7,3.3,35.184,35.184,0,0,1,6.342,10.092,49.476,49.476,0,0,1,2.227,6.21,53.789,53.789,0,0,1,1.258,5.244c.277,1.511.438,2.745.535,3.6a8.658,8.658,0,0,0,.164,1.329" transform="translate(-6.578 -22.531)" fill="#1a2e35"/>
        <path id="Trazado_216216" data-name="Trazado 216216" d="M54.922,228.389l1.066,14.6H74.751l1.066-14.6Z" transform="translate(-7.171 -29.822)" fill="#1a2e35"/>
        <rect id="Rectángulo_45490" data-name="Rectángulo 45490" width="24.946" height="5.756" transform="translate(45.939 192.811)" fill="#1a2e35"/>
        <path id="Trazado_216217" data-name="Trazado 216217" d="M52.838,244.545v1.6H77.371v-1.6Z" transform="translate(-6.899 -31.931)" fill="#375a64"/>
        <path id="Trazado_216218" data-name="Trazado 216218" d="M55.335,249.188l-1.149-2.808H76.654l-1.341,2.808Z" transform="translate(-7.075 -32.171)" fill="#375a64"/>
        <path id="Trazado_216219" data-name="Trazado 216219" d="M75.516,233.571a.583.583,0,0,1-.088.134l-.28.372-1.093,1.4-.049.062-.047-.064-2.686-3.714h.155L68.785,235.5l-.083.117-.093-.11-3.135-3.73.181,0-.173.216-2.8,3.515-.094.117L62.5,235.5l-2.645-3.742.154.007-3.258,3.712-.058.066-.044-.074c-.429-.722-.771-1.3-1.02-1.714-.106-.186-.193-.336-.262-.456a.8.8,0,0,1-.08-.163.679.679,0,0,1,.11.144l.29.439c.261.41.62.975,1.071,1.682l-.1-.008,3.206-3.757.081-.095.073.1,2.669,3.725-.18,0,2.8-3.52.173-.216.089-.112.092.11c1.1,1.312,2.154,2.575,3.126,3.738l-.176.007,2.67-3.725.078-.109.077.109,2.628,3.754-.095,0c.478-.575.859-1.031,1.136-1.363l.3-.352c.07-.078.109-.117.113-.114" transform="translate(-7.219 -30.231)" fill="#e1e1e1"/>
        <path id="Trazado_216220" data-name="Trazado 216220" d="M76.1,228.26c0,.064-4.7.117-10.5.117s-10.5-.052-10.5-.117,4.7-.117,10.5-.117,10.5.052,10.5.117" transform="translate(-7.195 -29.79)" fill="#375a64"/>
        <path id="Trazado_216221" data-name="Trazado 216221" d="M76.918,246.544c0,.064-5.11.117-11.41.117s-11.412-.052-11.412-.117,5.108-.117,11.412-.117,11.41.052,11.41.117" transform="translate(-7.064 -32.177)" fill="#1a2e35"/>
        <path id="Trazado_216222" data-name="Trazado 216222" d="M237.321,117.176c-.406-1.756,1.666-7.822.329-7.957-1.7-.172-1.994,6.726-2.054,7.345-.059.6-.955.529-.869-.026.121-.8,1.257-8.6-.463-8.621-.954-.011-.994,1.725-.994,1.725s-.643,7.692-1.455,7.655-.231-4.413-.148-6.042c.079-1.561-.7-2.457-1.281-1.782-.848.989-.842,4.953-.947,6.515s-.524,6.048-2.136,3.8-3.677-3.379-4.438-3.3-.9,1.175-.164,1.6a10.317,10.317,0,0,1,2.014,1.923,9.835,9.835,0,0,1,1.162,1.908,8.6,8.6,0,0,1,.844,2.72,5.356,5.356,0,0,0,2.373,3.693L229,140.662l-.383,6.1,9.593,3.329-1.261-21.743c.471-4.178,2.311-9.464,2.982-11.914,1.071-3.905.57-4.075.092-4.1-1.055-.046-2.309,6.557-2.706,4.844" transform="translate(-29.015 -14.091)" fill="#b66955"/>
        <path id="Trazado_216223" data-name="Trazado 216223" d="M237.157,124.658a8.975,8.975,0,0,0-1.177.2,4.579,4.579,0,0,0-2.347,1.6,4.5,4.5,0,0,0-.463.759l-.063.126-.093-.1a6.726,6.726,0,0,0-1.819-1.329c-.506-.253-.835-.355-.826-.383a2.7,2.7,0,0,1,.88.266,6.039,6.039,0,0,1,1.9,1.3l-.156.03a4.458,4.458,0,0,1,.483-.8,4.575,4.575,0,0,1,1.234-1.108,4.366,4.366,0,0,1,1.237-.51,3.713,3.713,0,0,1,.886-.1.953.953,0,0,1,.323.042" transform="translate(-30.08 -16.272)" fill="#8e3823"/>
        <path id="Trazado_216224" data-name="Trazado 216224" d="M237.006,131.3a7.168,7.168,0,0,1-4.169.135c.01-.059.939.087,2.088.046s2.067-.239,2.081-.181" transform="translate(-30.403 -17.143)" fill="#8e3823"/>
        <path id="Trazado_216225" data-name="Trazado 216225" d="M170.922,93.016a7.209,7.209,0,0,1,5.9-6.48,9.39,9.39,0,0,0,2.433-.453,13.9,13.9,0,0,0,1.688-1.131,4.815,4.815,0,0,1,5.956.805c1.375,1.518,1.727-.757,4.825.8,2.567,1.287,1.428,3.415,1.428,3.415a5.528,5.528,0,0,1,5.782,3.969c.406,1.567.221,3.523,1.533,4.471.636.459,1.482.538,2.136.972,1.215.806,1.378,2.519,1.221,3.969s-.5,2.993.133,4.309c1.03,2.157,4.254,2.812,4.813,5.137.263,1.1-.109,2.462.724,3.226a3.822,3.822,0,0,0,1.212.6,5.041,5.041,0,0,1,.829,8.919c-.432.276-.949.54-1.087,1.034-.154.551.243,1.083.535,1.575a4.847,4.847,0,0,1-6.426,6.761,7.583,7.583,0,0,1-4.19,3.847,4.6,4.6,0,0,1-2.634.258,5.27,5.27,0,0,1-1.894-.989c-2.732-2.056-6.584-5.225-7.065-8.61" transform="translate(-22.318 -11.003)" fill="#1a2e35"/>
        <path id="Trazado_216226" data-name="Trazado 216226" d="M170.832,99.536l-.123-2.424,14.48-3.222c4.476-.615,9.472,3.736,9.9,8.234.471,5,.849,11.118.371,14.872-.96,7.55-6.688,8.686-6.688,8.686l.2,7.459-16.609.724Z" transform="translate(-22.29 -12.252)" fill="#b66955"/>
        <path id="Trazado_216227" data-name="Trazado 216227" d="M195.323,109.523a.963.963,0,0,1-.9,1,.921.921,0,0,1-1.02-.837.964.964,0,0,1,.9-1,.922.922,0,0,1,1.022.838" transform="translate(-25.253 -14.191)" fill="#1a2e35"/>
        <path id="Trazado_216228" data-name="Trazado 216228" d="M196.461,106.953c-.116.13-.862-.388-1.9-.353s-1.781.576-1.9.453c-.057-.054.057-.285.382-.536A2.643,2.643,0,0,1,194.56,106a2.538,2.538,0,0,1,1.516.438c.326.235.442.458.384.516" transform="translate(-25.155 -13.841)" fill="#1a2e35"/>
        <path id="Trazado_216229" data-name="Trazado 216229" d="M184.191,110.081a.964.964,0,0,1-.9,1,.921.921,0,0,1-1.02-.837.964.964,0,0,1,.9-1,.922.922,0,0,1,1.021.838" transform="translate(-23.8 -14.264)" fill="#1a2e35"/>
        <path id="Trazado_216230" data-name="Trazado 216230" d="M184.745,107.539c-.116.13-.863-.388-1.9-.353s-1.78.576-1.9.453c-.057-.054.057-.284.383-.536a2.643,2.643,0,0,1,1.513-.518,2.541,2.541,0,0,1,1.517.438c.325.235.441.458.384.516" transform="translate(-23.625 -13.917)" fill="#1a2e35"/>
        <path id="Trazado_216231" data-name="Trazado 216231" d="M189.807,115.1a6.82,6.82,0,0,1,1.675-.356c.264-.036.513-.1.552-.278a1.352,1.352,0,0,0-.2-.78q-.4-.949-.846-1.991a34.8,34.8,0,0,1-1.922-5.219,34.723,34.723,0,0,1,2.338,5.052q.425,1.049.813,2a1.533,1.533,0,0,1,.17,1.035.666.666,0,0,1-.423.4,1.784,1.784,0,0,1-.448.076,6.719,6.719,0,0,1-1.707.056" transform="translate(-24.686 -13.903)" fill="#1a2e35"/>
        <path id="Trazado_216232" data-name="Trazado 216232" d="M189.915,130.131a19.9,19.9,0,0,1-10.4-2.38s2.7,5.182,10.455,4.253Z" transform="translate(-23.44 -16.681)" fill="#8e3823"/>
        <path id="Trazado_216233" data-name="Trazado 216233" d="M188.2,120.813a1.871,1.871,0,0,0,1.578-.895A1.709,1.709,0,0,0,190,118.6a1.082,1.082,0,0,0-.925-.825,1.253,1.253,0,0,0-1.107.861,3.912,3.912,0,0,0-.191,1.533,1.14,1.14,0,0,0,.059.422.348.348,0,0,0,.306.236" transform="translate(-24.519 -15.378)" fill="#8e3823"/>
        <path id="Trazado_216234" data-name="Trazado 216234" d="M191.094,120.018c-.1.139-.985-.551-2.208-.283s-1.861,1.29-1.992,1.2c-.065-.03-.008-.345.293-.753a2.8,2.8,0,0,1,1.612-1.041,2.441,2.441,0,0,1,1.808.294c.4.256.54.526.488.583" transform="translate(-24.4 -15.549)" fill="#1a2e35"/>
        <path id="Trazado_216235" data-name="Trazado 216235" d="M184.729,102.245c-.017.3-1.047.47-2.17.962-1.133.469-1.97,1.092-2.2.9-.1-.095-.017-.4.285-.774a4.128,4.128,0,0,1,3.327-1.416c.48.043.759.191.756.332" transform="translate(-23.545 -13.306)" fill="#1a2e35"/>
        <path id="Trazado_216236" data-name="Trazado 216236" d="M195.65,104.133c-.255.155-.835-.33-1.633-.648-.787-.347-1.538-.421-1.607-.71-.025-.138.166-.318.543-.412a2.541,2.541,0,0,1,2.61,1.095c.2.335.2.6.087.676" transform="translate(-25.124 -13.359)" fill="#1a2e35"/>
        <path id="Trazado_216237" data-name="Trazado 216237" d="M196.229,92.663c-1.017,2.708-3.441,6.8-6.293,7.291a8.493,8.493,0,0,1-7.782-2.855c-.33,2.161-2.648,3.412-4.784,3.869a8.574,8.574,0,0,1-4.576-.086,4.546,4.546,0,0,1-3.054-3.206c-.305-1.515,1.682-5.367,3.185-5.724" transform="translate(-22.16 -12.007)" fill="#1a2e35"/>
        <path id="Trazado_216238" data-name="Trazado 216238" d="M173.18,132.652a5.92,5.92,0,0,1-3.947,5.55,4.195,4.195,0,0,1-7.982,2.208,5.045,5.045,0,0,0-.7-1.375c-.8-.876-2.218-.589-3.37-.874-2.076-.511-3.133-2.934-3.056-5.071a4.96,4.96,0,0,0-.03-1.26,5.6,5.6,0,0,0-1.446-2.112c-2.247-2.745-1.7-7.007.369-9.891.689-.962,1.573-1.978,1.42-3.151a6.384,6.384,0,0,0-.774-1.814,5.361,5.361,0,0,1,1.023-5.94,1.682,1.682,0,0,0,.565-.789,1.647,1.647,0,0,0-.049-.62,6.271,6.271,0,0,1,4.81-7.059,1.6,1.6,0,0,0,.543-.163c.463-.286.431-.95.456-1.495a10.012,10.012,0,0,1,2-5.186c2.839-2.8,5.92-.909,7.035,0,0,0,2.806,10.114,2.542,12.053s-1.326,6.807-.615,8.932,1.941,6.492,1.207,8.506,0,9.55,0,9.55" transform="translate(-19.743 -12.031)" fill="#1a2e35"/>
        <path id="Trazado_216239" data-name="Trazado 216239" d="M196.676,235.631s21.93,6.069,22.809,6.379c1.321.465,1.1,5.305-.957,5.23-.972-.036-16.843.591-18.849.466s-8.055-2.51-8.055-2.51Z" transform="translate(-25.021 -30.767)" fill="#f37409"/>
        <path id="Trazado_216240" data-name="Trazado 216240" d="M207.936,244.6a20.548,20.548,0,0,1,.967-2.354,20.641,20.641,0,0,1,1.55-2.019,4.874,4.874,0,0,0-2.517,4.373" transform="translate(-27.146 -31.366)" fill="#1a2e35"/>
        <path id="Trazado_216241" data-name="Trazado 216241" d="M205.308,243.434c.108.018.329-1.018.914-2.163s1.273-1.948,1.194-2.023a5.506,5.506,0,0,0-2.107,4.186" transform="translate(-26.804 -31.239)" fill="#1a2e35"/>
        <path id="Trazado_216242" data-name="Trazado 216242" d="M202.824,242.745a7.692,7.692,0,0,1,1.708-4.367,4.118,4.118,0,0,0-1.708,4.367" transform="translate(-26.465 -31.125)" fill="#1a2e35"/>
        <path id="Trazado_216243" data-name="Trazado 216243" d="M203.033,239.379a3.9,3.9,0,0,0,.236-1.632,7.713,7.713,0,0,0-.223-1.788,7.557,7.557,0,0,0-.326-1.017,1.229,1.229,0,0,0-.351-.537.584.584,0,0,0-.753.036.969.969,0,0,0-.293.621,4.245,4.245,0,0,0-.028.579,4.871,4.871,0,0,0,.135,1.074,6.52,6.52,0,0,0,.676,1.676,4.409,4.409,0,0,0,.985,1.32c.05-.035-.317-.546-.756-1.44a7.222,7.222,0,0,1-.575-1.63,4.854,4.854,0,0,1-.106-1c.01-.336.005-.758.2-.92a.211.211,0,0,1,.29-.024.93.93,0,0,1,.241.383,8.119,8.119,0,0,1,.332.967,8.817,8.817,0,0,1,.29,1.713c.064.993-.036,1.614.024,1.622" transform="translate(-26.284 -30.591)" fill="#1a2e35"/>
        <path id="Trazado_216244" data-name="Trazado 216244" d="M202.6,239.854a3.064,3.064,0,0,0-1.415-.229,6.335,6.335,0,0,0-1.555.191,3.446,3.446,0,0,0-.9.33.925.925,0,0,0-.5,1,1.094,1.094,0,0,0,.79.782,2,2,0,0,0,.983,0,3.784,3.784,0,0,0,1.425-.7,3.868,3.868,0,0,0,1.02-1,9.46,9.46,0,0,0-1.169.791,3.892,3.892,0,0,1-1.345.583,1.739,1.739,0,0,1-.814-.011.745.745,0,0,1-.534-.522.566.566,0,0,1,.326-.612,3.348,3.348,0,0,1,.8-.31,7.337,7.337,0,0,1,1.478-.257c.858-.06,1.4.028,1.4-.031" transform="translate(-25.882 -31.289)" fill="#1a2e35"/>
        <path id="Trazado_216245" data-name="Trazado 216245" d="M211.792,244.969a5.915,5.915,0,0,1,1.506-3.694,3.145,3.145,0,0,0-1.506,3.694" transform="translate(-27.632 -31.503)" fill="#1a2e35"/>
        <path id="Trazado_216246" data-name="Trazado 216246" d="M194.219,246.689a4.545,4.545,0,0,0,.849.4,18.863,18.863,0,0,0,2.44.756,34.772,34.772,0,0,0,8.373.793c3.286-.036,6.248-.185,8.4-.271l2.541-.135a4.6,4.6,0,0,0,.93-.1,4.544,4.544,0,0,0-.935-.043l-2.545.018-8.389.163a39.236,39.236,0,0,1-8.313-.679c-2.1-.431-3.32-.97-3.346-.9" transform="translate(-25.36 -32.211)" fill="#1a2e35"/>
        <path id="Trazado_216247" data-name="Trazado 216247" d="M193.473,246.984c.03.05.629-.3,1.643-.744a7.64,7.64,0,0,1,4.149-.69,6.577,6.577,0,0,1,3.587,2.134,12.648,12.648,0,0,0,1.264,1.29,6.857,6.857,0,0,0-1.074-1.467,8.727,8.727,0,0,0-1.454-1.36,5.217,5.217,0,0,0-2.266-.96,7.251,7.251,0,0,0-4.317.816,5.8,5.8,0,0,0-1.534.98" transform="translate(-25.263 -32.006)" fill="#1a2e35"/>
        <g id="Grupo_150060" data-name="Grupo 150060" transform="translate(166.603 204.864)" opacity="0.3">
          <g id="Grupo_150059" data-name="Grupo 150059">
            <g id="Grupo_150058" data-name="Grupo 150058" clip-path="url(#clip-path-3)">
              <path id="Trazado_216248" data-name="Trazado 216248" d="M196.676,235.631s21.93,6.069,22.809,6.379c1.321.465,1.1,5.305-.957,5.23-.972-.036-16.843.591-18.849.466s-8.055-2.51-8.055-2.51Z" transform="translate(-191.624 -235.631)"/>
            </g>
          </g>
        </g>
        <path id="Trazado_216249" data-name="Trazado 216249" d="M161.917,206.661l-4.735,9.729s-25.312-7.7-31.689-7.343-11.6,2.909-12.841,8.089-1.41,12.327,6.03,17.287,44.418,7.7,44.418,7.7h14.632l23.916-31.534-3.853-3.125Z" transform="translate(-14.625 -26.985)" fill="#1a2e35"/>
        <path id="Trazado_216250" data-name="Trazado 216250" d="M171.925,228.986a2.642,2.642,0,0,1-.48-.009c-.314-.025-.781-.023-1.374-.107a28.466,28.466,0,0,1-4.96-1.023,47.622,47.622,0,0,1-7-2.736c-2.559-1.207-5.288-2.693-8.157-4.233a84.265,84.265,0,0,0-8.262-3.963,37,37,0,0,0-7.148-2.138,25.3,25.3,0,0,0-5.01-.437c-.6-.013-1.056.05-1.371.054a2.663,2.663,0,0,1-.481.006,2.752,2.752,0,0,1,.476-.07c.313-.024.774-.108,1.373-.114a23.48,23.48,0,0,1,5.053.34,35.971,35.971,0,0,1,7.217,2.087,80.435,80.435,0,0,1,8.3,3.955c2.871,1.541,5.591,3.033,8.133,4.249a49.9,49.9,0,0,0,6.935,2.786,31.342,31.342,0,0,0,4.911,1.115c.588.1,1.051.12,1.362.166a2.676,2.676,0,0,1,.476.072" transform="translate(-16.672 -27.968)" fill="#375a64"/>
        <path id="Trazado_216251" data-name="Trazado 216251" d="M195.528,238.589c4.7-1.847,30.553-10.072,39.7-20.649a10.118,10.118,0,0,0,2.507-8.779c-1.276-7.053-7.764-11.756-14.493-9.091-.957.379-3.157,1.233-4.075,1.727-2.51,1.349-43.18,27.143-43.18,27.143s7.087,13.818,6.909,14.35Z" transform="translate(-22.98 -26.025)" fill="#1a2e35"/>
        <path id="Trazado_216252" data-name="Trazado 216252" d="M208.293,209.219a.48.48,0,0,1-.11.088c-.092.064-.2.139-.341.232l-1.327.865-4.911,3.129L185.34,223.754l-8.835,5.509.057-.182,4.633,11.146,1.3,3.2c.139.355.25.638.335.855a1.662,1.662,0,0,1,.1.3,1.533,1.533,0,0,1-.146-.282l-.377-.837c-.332-.762-.8-1.83-1.379-3.166l-4.739-11.1-.049-.115.106-.067,8.823-5.529,16.314-10.143c2.077-1.274,3.767-2.308,4.964-3.044q.857-.511,1.358-.814l.357-.2a.5.5,0,0,1,.128-.062" transform="translate(-23.013 -27.319)" fill="#375a64"/>
        <path id="Trazado_216253" data-name="Trazado 216253" d="M170.974,222.481a4.217,4.217,0,0,1-1.2-.451,16.8,16.8,0,0,1-4.975-3.642,4.207,4.207,0,0,1-.793-1.008c.073-.067,1.367,1.4,3.3,2.8s3.711,2.209,3.669,2.3" transform="translate(-21.415 -28.384)" fill="#375a64"/>
        <path id="Trazado_216254" data-name="Trazado 216254" d="M188.188,210.061a9.753,9.753,0,0,1,.062,1.619c.014,1,.054,2.373.19,3.885s.345,2.874.51,3.858a9.893,9.893,0,0,1,.23,1.6,7.06,7.06,0,0,1-.45-1.561,30.133,30.133,0,0,1-.706-7.79,7.109,7.109,0,0,1,.163-1.615" transform="translate(-24.548 -27.429)" fill="#375a64"/>
        <path id="Trazado_216255" data-name="Trazado 216255" d="M191.454,209.674c0-.015.121-.029.317.043a1.424,1.424,0,0,1,.673.565,1.557,1.557,0,0,1,.192,1.3,1.417,1.417,0,0,1-1.312.923,1.38,1.38,0,0,1-1.387-.809,1.443,1.443,0,0,1,.181-1.307,1.258,1.258,0,0,1,.708-.525c.206-.05.323-.015.322,0a1.5,1.5,0,0,0-.839.645,1.243,1.243,0,0,0-.1,1.075,1.1,1.1,0,0,0,1.1.6,1.138,1.138,0,0,0,1.051-.7,1.371,1.371,0,0,0-.109-1.091,1.909,1.909,0,0,0-.8-.723" transform="translate(-24.79 -27.377)" fill="#375a64"/>
        <path id="Trazado_216256" data-name="Trazado 216256" d="M176.111,208.5a1.41,1.41,0,0,1,.223.48,4.37,4.37,0,0,1,.212,1.43,5.137,5.137,0,0,1-.471,2.1,4.7,4.7,0,0,1-4.2,2.827,5.145,5.145,0,0,1-2.122-.355,4.338,4.338,0,0,1-1.244-.736c-.257-.224-.374-.374-.361-.386a7.831,7.831,0,0,0,1.683.912,5.239,5.239,0,0,0,2.028.273,4.548,4.548,0,0,0,3.954-2.659,5.233,5.233,0,0,0,.511-1.982,7.792,7.792,0,0,0-.21-1.9" transform="translate(-21.955 -27.225)" fill="#375a64"/>
        <path id="Trazado_216257" data-name="Trazado 216257" d="M204.543,213.319a1.67,1.67,0,0,1-.96-.135,3.631,3.631,0,0,1-2.425-3.713,1.68,1.68,0,0,1,.262-.934c.05.015-.046.368-.037.94a3.823,3.823,0,0,0,2.285,3.5c.52.237.882.292.876.343" transform="translate(-26.265 -27.23)" fill="#375a64"/>
        <path id="Trazado_216258" data-name="Trazado 216258" d="M219.123,231.472a1.132,1.132,0,0,1,.156-.084l.465-.227,1.792-.862c1.553-.757,3.8-1.845,6.521-3.313a49.924,49.924,0,0,0,9-5.989,26.606,26.606,0,0,0,4.3-4.688,10.405,10.405,0,0,0,1.559-6.5,10.194,10.194,0,0,0-.856-3.33,8.9,8.9,0,0,0-.835-1.466,11.808,11.808,0,0,0-1.065-1.28,28.362,28.362,0,0,0-2.42-2.181,7.272,7.272,0,0,0-2.638-1.577,9.833,9.833,0,0,0-2.926-.324,15.037,15.037,0,0,0-2.778.307,16.987,16.987,0,0,0-4.687,1.771l-6.4,3.546-1.743.958-.456.245a1.029,1.029,0,0,1-.159.077,1.167,1.167,0,0,1,.149-.1l.445-.263,1.724-.993c1.5-.853,3.665-2.106,6.369-3.605a17.03,17.03,0,0,1,4.723-1.811,15.185,15.185,0,0,1,2.809-.322,10.03,10.03,0,0,1,2.985.323,7.465,7.465,0,0,1,2.711,1.608,28.318,28.318,0,0,1,2.441,2.194,12.015,12.015,0,0,1,1.086,1.3,9.114,9.114,0,0,1,.855,1.5,10.408,10.408,0,0,1,.876,3.4,10.6,10.6,0,0,1-1.6,6.634,26.679,26.679,0,0,1-4.351,4.721,49.274,49.274,0,0,1-9.056,5.974c-2.729,1.454-4.991,2.521-6.556,3.255l-1.809.829-.474.208a1.01,1.01,0,0,1-.164.064" transform="translate(-28.199 -26.044)" fill="#375a64"/>
        <path id="Trazado_216259" data-name="Trazado 216259" d="M174.389,235.789s-22,5.8-22.886,6.1c-1.327.449-1.165,5.291.891,5.241.974-.023,16.836.8,18.842.7s7.43-2.166,7.43-2.166Z" transform="translate(-19.671 -30.788)" fill="#f37409"/>
        <path id="Trazado_216260" data-name="Trazado 216260" d="M166.958,244.62a20.844,20.844,0,0,0-.937-2.366,20.326,20.326,0,0,0-1.527-2.038,4.876,4.876,0,0,1,2.464,4.4" transform="translate(-21.478 -31.365)" fill="#1a2e35"/>
        <path id="Trazado_216261" data-name="Trazado 216261" d="M169.663,243.489c-.108.017-.316-1.022-.887-2.174s-1.248-1.963-1.169-2.037a5.5,5.5,0,0,1,2.055,4.211" transform="translate(-21.885 -31.243)" fill="#1a2e35"/>
        <path id="Trazado_216262" data-name="Trazado 216262" d="M172.2,242.832a7.7,7.7,0,0,0-1.653-4.388,4.119,4.119,0,0,1,1.653,4.388" transform="translate(-22.268 -31.134)" fill="#1a2e35"/>
        <path id="Trazado_216263" data-name="Trazado 216263" d="M172.008,239.466a3.882,3.882,0,0,1-.215-1.635,7.679,7.679,0,0,1,.583-2.8,1.223,1.223,0,0,1,.358-.534.585.585,0,0,1,.753.047.97.97,0,0,1,.284.623,4.1,4.1,0,0,1,.021.58,4.789,4.789,0,0,1-.149,1.072,6.5,6.5,0,0,1-.7,1.668,4.419,4.419,0,0,1-1,1.308c-.05-.036.323-.542.773-1.43a7.225,7.225,0,0,0,.595-1.623,4.823,4.823,0,0,0,.118-1c-.006-.336,0-.758-.19-.922a.213.213,0,0,0-.29-.028.928.928,0,0,0-.245.38,8.193,8.193,0,0,0-.343.963,8.751,8.751,0,0,0-.311,1.709c-.077.992.016,1.614-.044,1.621" transform="translate(-22.432 -30.604)" fill="#1a2e35"/>
        <path id="Trazado_216264" data-name="Trazado 216264" d="M172.075,239.941a3.07,3.07,0,0,1,1.417-.21,6.33,6.33,0,0,1,1.554.21,3.441,3.441,0,0,1,.892.341.926.926,0,0,1,.483,1.009,1.1,1.1,0,0,1-.8.773,2.014,2.014,0,0,1-.984-.015,3.779,3.779,0,0,1-1.415-.718,3.862,3.862,0,0,1-1.008-1.016,9.68,9.68,0,0,1,1.158.805,3.882,3.882,0,0,0,1.338.6,1.728,1.728,0,0,0,.814,0,.743.743,0,0,0,.54-.515.566.566,0,0,0-.318-.616,3.375,3.375,0,0,0-.791-.32,7.318,7.318,0,0,0-1.475-.276c-.857-.07-1.4.01-1.4-.049" transform="translate(-22.469 -31.303)" fill="#1a2e35"/>
        <path id="Trazado_216265" data-name="Trazado 216265" d="M163.23,244.945a5.923,5.923,0,0,0-1.46-3.713,3.146,3.146,0,0,1,1.46,3.713" transform="translate(-21.123 -31.498)" fill="#1a2e35"/>
        <path id="Trazado_216266" data-name="Trazado 216266" d="M177.5,246.885a4.6,4.6,0,0,1-.853.389,18.868,18.868,0,0,1-2.45.726,34.8,34.8,0,0,1-8.381.689c-3.286-.077-6.245-.263-8.391-.375l-2.54-.166a4.585,4.585,0,0,1-.929-.111,4.565,4.565,0,0,1,.935-.032l2.544.05,8.387.268a39.211,39.211,0,0,0,8.32-.576c2.1-.405,3.333-.929,3.357-.861" transform="translate(-20.103 -32.236)" fill="#1a2e35"/>
        <path id="Trazado_216267" data-name="Trazado 216267" d="M180.17,247.181c-.03.05-.626-.308-1.634-.764a7.633,7.633,0,0,0-4.141-.742,6.575,6.575,0,0,0-3.612,2.089,12.967,12.967,0,0,1-1.28,1.275,6.794,6.794,0,0,1,1.091-1.454,8.724,8.724,0,0,1,1.471-1.342,5.2,5.2,0,0,1,2.277-.932,7.25,7.25,0,0,1,4.306.87,5.818,5.818,0,0,1,1.521,1" transform="translate(-22.133 -32.024)" fill="#1a2e35"/>
        <path id="Trazado_216268" data-name="Trazado 216268" d="M156.318,247.432c-.039-.027.151-.315.33-.825a4.016,4.016,0,0,0-.676-3.937c-.339-.422-.616-.629-.587-.668s.343.12.744.528a3.74,3.74,0,0,1,.715,4.156c-.242.519-.5.768-.526.746" transform="translate(-20.289 -31.599)" fill="#1a2e35"/>
        <path id="Trazado_216269" data-name="Trazado 216269" d="M175.089,137.372l-11.312,3.17,3.677,35.194s-2.114,12.564-2.114,15.866a6.563,6.563,0,0,0,3.339,5.9l36.138,1.092,1.848-1.6a5.215,5.215,0,0,0,1.206-4.031l-6.714-53.7-12.58-2.729Z" transform="translate(-21.385 -17.828)" fill="#f37409"/>
        <path id="Trazado_216270" data-name="Trazado 216270" d="M167.371,177.586a1.334,1.334,0,0,1-.067-.266l-.152-.771c-.128-.695-.3-1.659-.522-2.84-.423-2.423-1-5.73-1.641-9.382-.616-3.659-1.172-6.968-1.581-9.394-.19-1.186-.343-2.154-.456-2.852-.046-.32-.084-.578-.113-.777a1.363,1.363,0,0,1-.025-.273,1.362,1.362,0,0,1,.067.265l.152.77c.128.7.3,1.659.521,2.84.424,2.423,1,5.73,1.641,9.385.616,3.658,1.172,6.968,1.581,9.394.189,1.185.343,2.153.455,2.851.047.32.084.578.114.777a1.359,1.359,0,0,1,.025.273" transform="translate(-21.259 -19.721)" fill="#1a2e35"/>
        <path id="Trazado_216271" data-name="Trazado 216271" d="M191.695,137.275a4.119,4.119,0,0,1-.522.413c-.174.123-.4.255-.659.416-.271.137-.569.317-.927.46a12.162,12.162,0,0,1-2.566.8,18.94,18.94,0,0,1-3.273.34,32.4,32.4,0,0,1-3.285-.1,18.969,18.969,0,0,1-2.663-.348,7.985,7.985,0,0,1-1.72-.575,4.747,4.747,0,0,1-.433-.236c-.1-.06-.143-.094-.14-.1s.216.1.607.262a9.129,9.129,0,0,0,1.716.5,20.975,20.975,0,0,0,2.647.3c1,.066,2.107.112,3.265.084a20.151,20.151,0,0,0,3.24-.32,12.848,12.848,0,0,0,2.547-.748,15.214,15.214,0,0,0,2.165-1.153" transform="translate(-22.917 -17.924)" fill="#1a2e35"/>
        <path id="Trazado_216272" data-name="Trazado 216272" d="M203.928,199.266a1.114,1.114,0,0,1-.246.05l-.711.1c-.309.044-.688.093-1.129.131s-.943.1-1.5.125c-1.114.079-2.444.114-3.92.093s-3.1-.131-4.791-.329-3.292-.5-4.734-.81-2.725-.676-3.788-1.015c-.536-.157-1.009-.332-1.429-.476s-.776-.277-1.066-.394l-.667-.267a1.105,1.105,0,0,1-.228-.107,1.125,1.125,0,0,1,.243.067l.68.23c.293.1.653.229,1.076.359s.9.3,1.435.444c1.065.322,2.349.652,3.785.969s3.033.585,4.718.791,3.3.3,4.771.344,2.8.012,3.907-.049c.556-.017,1.058-.064,1.5-.094s.821-.063,1.131-.095l.715-.063a1.148,1.148,0,0,1,.251-.008" transform="translate(-23.467 -25.641)" fill="#1a2e35"/>
        <path id="Trazado_216273" data-name="Trazado 216273" d="M211.955,163.069a2.451,2.451,0,0,1-.172-.489c-.1-.318-.23-.782-.387-1.356-.313-1.149-.716-2.745-1.11-4.518s-.707-3.391-.911-4.564c-.1-.586-.178-1.062-.224-1.392a2.5,2.5,0,0,1-.052-.516,2.383,2.383,0,0,1,.132.5l.29,1.379c.241,1.166.576,2.774.97,4.546s.773,3.371,1.049,4.528c.128.547.236,1.007.322,1.372a2.486,2.486,0,0,1,.093.51" transform="translate(-27.302 -19.617)" fill="#1a2e35"/>
        <g id="Grupo_150063" data-name="Grupo 150063" transform="translate(155.127 121.143)" opacity="0.3">
          <g id="Grupo_150062" data-name="Grupo 150062">
            <g id="Grupo_150061" data-name="Grupo 150061" clip-path="url(#clip-path-4)">
              <path id="Trazado_216274" data-name="Trazado 216274" d="M180.95,139.337c.452,1.573.031,3.865.253,5.273a75.088,75.088,0,0,1,.907,17.056,2.261,2.261,0,0,0,.058.924,2.775,2.775,0,0,0,.458.714,7.5,7.5,0,0,1,1.209,5.42,22.249,22.249,0,0,1-1.638,5.435c-.04-1.52.041-3.792.16-5.308.024-.3.179-.109.187-.411a6.218,6.218,0,0,0-1.533-4.811,3.956,3.956,0,0,1-.725-.816,2.694,2.694,0,0,1-.246-.973q-1.178-9.544-1.608-19.16a1.532,1.532,0,0,1,.207-1.046,2.829,2.829,0,0,1,.705-.483c.49-.323.8-.894,1.327-1.146" transform="translate(-178.425 -139.337)"/>
            </g>
          </g>
        </g>
        <path id="Trazado_216275" data-name="Trazado 216275" d="M162.543,141.145s-10.328,2.434-7.823,17.914a95.669,95.669,0,0,0,6.162,21.979c1.691,3.984,5.526,6.725,9.817,6.163,1.875-.245,3.732.053,4.988-.705,1.9-1.149,2.734-5.021,3.093-9.2.245-2.846.142-5.81.519-8.24.616-3.965-1.2-5.835-3.532-6.3l-9.129-1.82-.525,4.829Z" transform="translate(-20.151 -18.43)" fill="#f37409"/>
        <path id="Trazado_216276" data-name="Trazado 216276" d="M172.144,175.281c.026-.02.172.187.526.451a3.645,3.645,0,0,0,1.7.677,5.7,5.7,0,0,0,2.7-.385A8.651,8.651,0,0,0,180,174.342a5.155,5.155,0,0,0,1.515-2.92,5.046,5.046,0,0,0-.323-2.693,7.072,7.072,0,0,0-1.453-2.1,1.79,1.79,0,0,1,.569.419,5.014,5.014,0,0,1,1.12,1.578,5.135,5.135,0,0,1,.42,2.845,5.378,5.378,0,0,1-1.6,3.134,8.59,8.59,0,0,1-3.058,1.734,5.727,5.727,0,0,1-2.855.323,3.511,3.511,0,0,1-1.755-.822,1.373,1.373,0,0,1-.436-.561" transform="translate(-22.477 -21.757)" fill="#1a2e35"/>
        <path id="Trazado_216277" data-name="Trazado 216277" d="M161.23,183.857c.031-.011.193.487.618,1.323a11.831,11.831,0,0,0,2.352,3.16,11.135,11.135,0,0,0,5.055,2.794,11.308,11.308,0,0,0,6.995-.489c1.169-.473,1.593-1.773,2.041-2.857a18.793,18.793,0,0,0,.869-3.35c.371-2.185.459-4.194.583-5.875.12-1.642.219-2.991.292-3.984.039-.436.071-.794.1-1.082a1.511,1.511,0,0,1,.06-.376,1.622,1.622,0,0,1,.015.38c-.01.289-.018.648-.031,1.086-.043.995-.1,2.345-.176,3.99a52.975,52.975,0,0,1-.508,5.916,18.792,18.792,0,0,1-.868,3.417,12.2,12.2,0,0,1-.77,1.715,3.076,3.076,0,0,1-1.45,1.348,11.5,11.5,0,0,1-7.229.485,11.351,11.351,0,0,1-7.454-6.218,8.317,8.317,0,0,1-.4-1.017,1.406,1.406,0,0,1-.093-.369" transform="translate(-21.052 -22.606)" fill="#1a2e35"/>
        <path id="Trazado_216278" data-name="Trazado 216278" d="M165.182,176.017a9.436,9.436,0,0,1,.023-1.86c.061-1.146.17-2.726.312-4.47.076-.874.135-1.7.226-2.462a3.865,3.865,0,0,1,.7-1.943,2.068,2.068,0,0,1,1.171-.763c.331-.067.515,0,.511.017,0,.033-.183.017-.475.12a2.1,2.1,0,0,0-1,.782c-.678.9-.6,2.55-.772,4.279-.143,1.744-.292,3.32-.418,4.461a9.435,9.435,0,0,1-.28,1.839" transform="translate(-21.565 -21.478)" fill="#1a2e35"/>
        <path id="Trazado_216279" data-name="Trazado 216279" d="M168.2,156.525c-.093-.49-.237-1.2-.424-2.07-.372-1.745-.913-4.15-1.531-6.8a38.011,38.011,0,0,0-.982-3.725,8.62,8.62,0,0,0-1.513-2.783l-.2.163a8.864,8.864,0,0,1,1.395,2.729c.37,1.105.629,2.374.943,3.7.619,2.652,1.2,5.047,1.635,6.777.219.865.4,1.563.536,2.044a3.205,3.205,0,0,0,.245.738,3.226,3.226,0,0,0-.106-.77" transform="translate(-21.355 -18.43)" fill="#1a2e35"/>
        <g id="Grupo_150066" data-name="Grupo 150066" transform="translate(141.24 141.337)" opacity="0.3">
          <g id="Grupo_150065" data-name="Grupo 150065">
            <g id="Grupo_150064" data-name="Grupo 150064" clip-path="url(#clip-path-5)">
              <path id="Trazado_216280" data-name="Trazado 216280" d="M168.149,162.653a4.037,4.037,0,0,0-2.324.785,7.724,7.724,0,0,0-3.075,4.352,9.032,9.032,0,0,0,.239,5.355c.189.533.554,1.137,1.119,1.115.664-.026.933-.856,1.025-1.514q.382-2.737.765-5.473a5.065,5.065,0,0,1,.484-1.8,1.724,1.724,0,0,1,1.5-.955l.17-1.949" transform="translate(-162.452 -162.564)"/>
            </g>
          </g>
        </g>
        <path id="Trazado_216281" data-name="Trazado 216281" d="M238.217,169.473a15.313,15.313,0,0,0,2.134-7.164,23.954,23.954,0,0,0-1.014-7.876l-10.972-3.4-.07,3.663Z" transform="translate(-29.81 -19.721)" fill="#f37409"/>
        <path id="Trazado_216282" data-name="Trazado 216282" d="M225.484,153.211l-18.716-13.536v.937l2.022,21.074s15.471,6.931,19.57,7.952a8.166,8.166,0,0,0,7.046-1.649Z" transform="translate(-26.999 -18.238)" fill="#f37409"/>
        <path id="Trazado_216283" data-name="Trazado 216283" d="M233.812,165.469a1.482,1.482,0,0,1-.424-.223,7.532,7.532,0,0,1-1.029-.8,11.557,11.557,0,0,1-2.5-3.491,22.8,22.8,0,0,1-1.426-4.047c-.139-.53-.24-.962-.3-1.262a1.621,1.621,0,0,1-.073-.473,12.908,12.908,0,0,1,.561,1.681,28.95,28.95,0,0,0,1.486,3.983,12.715,12.715,0,0,0,2.389,3.471c.766.769,1.348,1.124,1.322,1.164" transform="translate(-29.778 -20.261)" fill="#1a2e35"/>
        <path id="Trazado_216284" data-name="Trazado 216284" d="M239.3,157.233a1.69,1.69,0,0,1-.485.006,11.209,11.209,0,0,1-1.312-.143,16.032,16.032,0,0,1-7.82-3.633,11.252,11.252,0,0,1-.955-.91,1.691,1.691,0,0,1-.308-.375c.033-.032.52.452,1.384,1.138a18.232,18.232,0,0,0,7.734,3.593c1.082.219,1.766.278,1.762.324" transform="translate(-29.825 -19.87)" fill="#1a2e35"/>
        <path id="Trazado_216285" data-name="Trazado 216285" d="M229.056,163.694a3.89,3.89,0,0,1-.583-1.161,11.207,11.207,0,0,1-.623-3.071,22.1,22.1,0,0,1,.025-3.126,5.856,5.856,0,0,1,.161-1.283,6.585,6.585,0,0,1,.03,1.292c-.009.795-.03,1.894.054,3.1a13.783,13.783,0,0,0,.534,3.029c.231.755.443,1.2.4,1.222" transform="translate(-29.746 -20.246)" fill="#1a2e35"/>
        <path id="Trazado_216286" data-name="Trazado 216286" d="M206.444,148.983a2.637,2.637,0,0,1,.195.573c.109.374.255.916.427,1.589.344,1.346.785,3.214,1.22,5.29s.779,3.965,1,5.336c.113.685.2,1.242.247,1.627a2.622,2.622,0,0,1,.051.6,2.654,2.654,0,0,1-.155-.585l-.33-1.611c-.29-1.42-.665-3.269-1.081-5.314l-1.142-5.3c-.136-.636-.25-1.173-.343-1.608a2.578,2.578,0,0,1-.093-.6" transform="translate(-26.956 -19.453)" fill="#1a2e35"/>
        <path id="Trazado_216287" data-name="Trazado 216287" d="M168.355,162.292l2.294-25.377,7.6,3,.978,25.811s-2.433,3.68-6.541,2.17a6.666,6.666,0,0,1-4.331-5.606" transform="translate(-21.983 -17.878)" fill="#b66955"/>
        <path id="Trazado_216288" data-name="Trazado 216288" d="M169.783,111.354l14.21,12.5-2.573,9.332-1.031.306-12.423-12.715.786-9.116Z" transform="translate(-21.932 -14.54)" fill="#1a2e35"/>
        <path id="Trazado_216289" data-name="Trazado 216289" d="M168.6,111.705l14.21,12.5-2.573,9.332L166.78,121.127Z" transform="translate(-21.777 -14.586)" fill="#375a64"/>
        <path id="Trazado_216290" data-name="Trazado 216290" d="M178.571,137.9A5.538,5.538,0,0,0,180,134.41c-.032-1.914-.56-6.516-.56-6.516s2.468-5.2,2.406-5.887-.175-.681-1.062-.4-3.637,5.016-3.637,5.016l-.9-3.513s2.288-3.688,2.47-4.2.485-.939-.089-.987-4.871,4.12-4.871,4.12l.347,3.848s-.086.307-.7-.235-.463-5.131-.463-5.131a19.775,19.775,0,0,0,1.429-3.113c-.036-.395.268-.82-.02-1.49s-1.131.1-1.131.1l-2.853,3.739-1.017-3.7s.043-.789-.983-.8l.4,12,2.6,9.234Z" transform="translate(-21.984 -15.05)" fill="#b66955"/>
        <path id="Trazado_216291" data-name="Trazado 216291" d="M179.217,162.879s-.021-.153-.04-.452q-.025-.475-.07-1.322c-.052-1.179-.128-2.878-.223-5.038-.174-4.371-.422-10.609-.722-18.158l0-.073.062-.053a4.958,4.958,0,0,0,1.375-1.942,5.676,5.676,0,0,0,.288-2.5c-.09-1.757-.309-3.586-.553-5.453l-.007-.05.022-.046c.464-.989.929-2.007,1.382-3.051.224-.523.449-1.051.654-1.589.1-.269.2-.541.279-.811l.05-.2a1.5,1.5,0,0,0,.017-.168,1.2,1.2,0,0,0-.071-.362c.028-.083-.363,0-.616.09a.8.8,0,0,0-.336.17,2.442,2.442,0,0,0-.3.293,13.88,13.88,0,0,0-1.083,1.414c-.683.995-1.329,2.041-1.956,3.1l-.223.38-.11-.426c-.285-1.112-.591-2.307-.9-3.512l-.019-.075.041-.067,1.16-1.9c.443-.749.929-1.517,1.285-2.252.075-.206.176-.418.226-.592.027-.095.01-.136.009-.128a.271.271,0,0,0-.172-.033,1.24,1.24,0,0,0-.207.1c-.084.047-.17.115-.256.171-.17.123-.338.251-.5.386-1.317,1.082-2.551,2.25-3.752,3.4l.054-.144q.175,1.952.343,3.849l0,.036-.009.028a.32.32,0,0,1-.341.213.7.7,0,0,1-.25-.078,1.92,1.92,0,0,1-.349-.243,1.42,1.42,0,0,1-.37-.783,10.7,10.7,0,0,1-.173-1.536c-.053-1.014-.051-2.008-.023-2.992v-.038l.019-.037a25.621,25.621,0,0,0,1.377-2.862.893.893,0,0,0,.034-.143c0-.042,0-.15.006-.214.017-.147.049-.276.07-.4a1.382,1.382,0,0,0-.024-.691c-.078-.252-.157-.355-.35-.32a1.4,1.4,0,0,0-.578.324l.019-.021-2.861,3.733-.185.242-.079-.293q-.524-1.922-1.008-3.7l-.005-.018v-.027a.613.613,0,0,0-.26-.5,1.056,1.056,0,0,0-.583-.151l.138-.142c.141,4.883.258,8.932.348,12l0-.019,1.314,5.087c.14.565.249,1,.327,1.315.071.3.1.45.1.45s-.055-.146-.141-.438c-.089-.31-.212-.743-.371-1.3-.322-1.171-.789-2.87-1.394-5.067l0-.009v-.01c-.115-3.071-.265-7.119-.447-12l-.005-.143h.143a1.32,1.32,0,0,1,.739.2.886.886,0,0,1,.384.744l-.005-.045q.494,1.779,1.026,3.7l-.264-.051,2.846-3.745.01-.014.009-.007a1.668,1.668,0,0,1,.739-.407.559.559,0,0,1,.5.134.933.933,0,0,1,.221.409,1.713,1.713,0,0,1,.036.845c-.023.133-.053.259-.065.373-.008.065,0,.09,0,.177a.921.921,0,0,1-.047.242,25.384,25.384,0,0,1-1.395,2.927l.02-.075c-.025.971-.024,1.964.03,2.96a10.351,10.351,0,0,0,.168,1.483,1.136,1.136,0,0,0,.255.588,1.61,1.61,0,0,0,.283.2.366.366,0,0,0,.117.041h.009a.179.179,0,0,0,.011.037l.006.01,0,0,.011.006.021.01.005,0c.085.032-.109-.042-.09-.032l0,.009-.006.063q-.171-1.895-.349-3.848l-.008-.086.061-.059c1.207-1.155,2.435-2.322,3.774-3.422q.252-.206.52-.4c.095-.063.178-.13.282-.188a.988.988,0,0,1,.383-.154.576.576,0,0,1,.433.134.476.476,0,0,1,.09.483c-.071.243-.163.423-.236.627-.4.832-.862,1.544-1.315,2.312l-1.162,1.9.022-.141.9,3.513-.332-.046c.634-1.075,1.282-2.121,1.974-3.126a14.237,14.237,0,0,1,1.117-1.453,2.748,2.748,0,0,1,.343-.33,1.211,1.211,0,0,1,.452-.231,4.462,4.462,0,0,1,.45-.119.828.828,0,0,1,.281-.013.408.408,0,0,1,.3.214,1.422,1.422,0,0,1,.112.5,1.573,1.573,0,0,1-.023.27l-.057.226c-.085.292-.187.568-.29.842-.21.547-.437,1.077-.663,1.6q-.686,1.573-1.394,3.059l.015-.1c.241,1.878.454,3.705.539,5.485a5.978,5.978,0,0,1-.318,2.626,5.247,5.247,0,0,1-1.481,2.068l.059-.125c.246,7.551.449,13.791.592,18.163.061,2.162.108,3.861.141,5.041.01.566.019,1.006.025,1.323,0,.3-.007.454-.007.454" transform="translate(-21.973 -15.029)" fill="#8e3823"/>
        <path id="Trazado_216292" data-name="Trazado 216292" d="M171.259,126.933a15.156,15.156,0,0,1-.442-3.281,15.074,15.074,0,0,1-.077-3.31,15.178,15.178,0,0,1,.442,3.281,15.222,15.222,0,0,1,.077,3.31" transform="translate(-22.287 -15.714)" fill="#8e3823"/>
        <path id="Trazado_216293" data-name="Trazado 216293" d="M130.765,117.536l-8.114-16.4a60.282,60.282,0,1,0-12.41,17.675l-.017.029Z" transform="translate(-1.017 -2.063)" fill="#fafafa"/>
        <path id="Trazado_216294" data-name="Trazado 216294" d="M130.747,117.518l-20.538,1.36-.111.008.057-.1.017-.03.092.072a62.683,62.683,0,0,1-4.724,4.2c-.86.722-1.809,1.386-2.76,2.1-.982.669-1.98,1.377-3.054,2.025a59.564,59.564,0,0,1-15.062,6.716,60.788,60.788,0,0,1-19.11,2.328,59.908,59.908,0,0,1-21.175-4.751A60.725,60.725,0,0,1,24.7,117.971,59.86,59.86,0,0,1,11.125,96.143,60.461,60.461,0,0,1,8.042,69.057c.1-1.171.326-2.329.5-3.5.195-1.165.466-2.32.708-3.483a61.046,61.046,0,0,1,13.2-25.694L23.7,35.008l.624-.685.654-.655,1.305-1.307,1.36-1.242A59.112,59.112,0,0,1,39.53,22.773c1.044-.594,2.138-1.081,3.212-1.6s2.19-.936,3.279-1.4c1.119-.39,2.217-.832,3.344-1.177s2.241-.718,3.383-.977a61.805,61.805,0,0,1,13.679-1.932,60.3,60.3,0,0,1,57.35,37.524,62.592,62.592,0,0,1,3.006,9.616q.236,1.195.469,2.368c.164.781.243,1.569.366,2.342q.085.58.169,1.156.06.578.12,1.151c.088.762.145,1.521.189,2.272A60.1,60.1,0,0,1,125,95.368c-.726,2.1-1.517,4.016-2.314,5.77v-.049l8.064,16.429-8.165-16.379-.012-.023.011-.025c.791-1.753,1.575-3.672,2.294-5.764a60.046,60.046,0,0,0,3.043-23.2c-.044-.749-.1-1.5-.191-2.266q-.061-.571-.122-1.148-.085-.574-.17-1.153c-.124-.77-.2-1.556-.369-2.334s-.312-1.567-.47-2.36a62.537,62.537,0,0,0-3.008-9.58,59.413,59.413,0,0,0-11.838-18.42A60.052,60.052,0,0,0,66.434,15.94a61.583,61.583,0,0,0-13.62,1.929c-1.137.258-2.244.641-3.368.974s-2.214.784-3.328,1.173c-1.085.465-2.193.888-3.266,1.4s-2.157,1-3.2,1.6a58.838,58.838,0,0,0-11.835,8.311l-1.354,1.237-1.3,1.3-.651.651-.621.682-1.242,1.368A60.726,60.726,0,0,0,9.509,62.138C9.269,63.3,9,64.446,8.8,65.606c-.171,1.163-.4,2.316-.5,3.482A60.079,60.079,0,0,0,84.613,133.7a59.51,59.51,0,0,0,15.031-6.671c1.074-.644,2.069-1.348,3.052-2.014.95-.71,1.9-1.369,2.759-2.088a63,63,0,0,0,4.725-4.181l.311-.3-.219.369-.017.03-.054-.089,20.545-1.242" transform="translate(-0.999 -2.045)" fill="#1a2e35"/>
        <path id="Trazado_216295" data-name="Trazado 216295" d="M41.413,144.56l62.026-.1s-14.828,9.827-32.639,8.667c-15.477-1.009-29.387-8.566-29.387-8.566" transform="translate(-5.407 -18.863)" fill="#375a64"/>
        <path id="Trazado_216296" data-name="Trazado 216296" d="M71.085,96.038l3.538,12.941L87.545,91.53,84.5,137.283H66.054l-5.379.258s.8-7.211,1.126-11.283a45.49,45.49,0,0,1,1.639-9.586c2.752-8.983,7.646-20.635,7.646-20.635" transform="translate(-7.923 -11.952)" fill="#fafafa"/>
        <path id="Trazado_216297" data-name="Trazado 216297" d="M76.018,120c.045.059-2.039,1.739-4.654,3.752s-4.773,3.6-4.818,3.538,2.038-1.739,4.654-3.752,4.773-3.6,4.818-3.538" transform="translate(-8.689 -15.669)" fill="#1a2e35"/>
        <path id="Trazado_216298" data-name="Trazado 216298" d="M109.222,88.029,99.174,83.2l-3.94-4.684-5.575,5.8L74.88,135.458h25.345l3.25-8.776,5.747-33.894Z" transform="translate(-9.777 -10.252)" fill="#f37409"/>
        <path id="Trazado_216299" data-name="Trazado 216299" d="M62.272,137.629l-.679-10.856,30.619-5.188s5.23-25.266,8.453-29.406a6.335,6.335,0,0,1,6.852-2.5s3.493,2.394,2.658,11.556c-.437,4.8-2.192,21.437-2.827,27.447a9.6,9.6,0,0,1-9.543,8.584Z" transform="translate(-8.042 -11.682)" fill="#f37409"/>
        <path id="Trazado_216300" data-name="Trazado 216300" d="M101.773,132.731c-.045,0-.088-.482-.31-1.225a7.262,7.262,0,0,0-3.776-4.478c-.695-.345-1.167-.469-1.155-.512a3.265,3.265,0,0,1,1.235.339,6.7,6.7,0,0,1,3.88,4.6,3.263,3.263,0,0,1,.126,1.275" transform="translate(-12.605 -16.519)" fill="#1a2e35"/>
        <g id="Grupo_150069" data-name="Grupo 150069" transform="translate(71.752 73.681)" opacity="0.2">
          <g id="Grupo_150068" data-name="Grupo 150068">
            <g id="Grupo_150067" data-name="Grupo 150067" clip-path="url(#clip-path-6)">
              <path id="Trazado_216301" data-name="Trazado 216301" d="M99.386,84.747a47.9,47.9,0,0,1-1.825,9.432l-2.3-.676a5.992,5.992,0,0,1,.687,4.759,17.772,17.772,0,0,1-1.989,4.518q-5.715,10.264-11.428,20.528l11.52-26.155-.3-4.835,2.218-.474Z" transform="translate(-82.528 -84.747)"/>
            </g>
          </g>
        </g>
        <g id="Grupo_150072" data-name="Grupo 150072" transform="translate(83.778 109.591)" opacity="0.2">
          <g id="Grupo_150071" data-name="Grupo 150071">
            <g id="Grupo_150070" data-name="Grupo 150070" clip-path="url(#clip-path-7)">
              <path id="Trazado_216302" data-name="Trazado 216302" d="M96.65,126.06a6.111,6.111,0,0,1,6.262,4.532,1.582,1.582,0,0,1,.018.984.653.653,0,0,1-.8.409,1.04,1.04,0,0,1-.449-.593,9.287,9.287,0,0,0-5.323-4.96" transform="translate(-96.36 -126.05)"/>
            </g>
          </g>
        </g>
        <path id="Trazado_216303" data-name="Trazado 216303" d="M82.625,122.97a2.831,2.831,0,0,1,.156-.419l.494-1.182c.45-1.046,1.085-2.518,1.864-4.328L91.38,102.8l2.562-5.79-.011.06c-.1-1.719-.2-3.339-.287-4.836l-.005-.1.1-.021,2.22-.464-.074.057,2.761-5.586.774-1.528.21-.4a.585.585,0,0,1,.081-.131.557.557,0,0,1-.052.145c-.049.109-.108.243-.182.41l-.722,1.553L96.074,91.8l-.023.046L96,91.86l-2.215.483.091-.121c.1,1.5.2,3.117.313,4.834l0,.031-.012.029c-.806,1.829-1.663,3.778-2.552,5.8l-6.315,14.206-1.941,4.293-.541,1.162a2.685,2.685,0,0,1-.205.4" transform="translate(-10.789 -10.977)" fill="#1a2e35"/>
        <path id="Trazado_216304" data-name="Trazado 216304" d="M62.239,138.519a.954.954,0,0,1-.025-.18c-.011-.135-.027-.31-.046-.531-.035-.484-.085-1.169-.149-2.041-.118-1.791-.288-4.352-.5-7.508l-.006-.087.086-.016,22.149-4.068,8.167-1.482-.1.1c1.8-6.821,3.353-12.741,4.468-16.974.562-2.093,1.011-3.768,1.326-4.939q.233-.844.366-1.32l.1-.339a.509.509,0,0,1,.041-.113.457.457,0,0,1-.018.119c-.021.09-.047.2-.078.345q-.117.479-.324,1.33l-1.251,4.958c-1.091,4.239-2.618,10.167-4.376,17l-.021.081-.082.015L83.8,124.353l-22.162,4,.08-.1c.171,3.159.311,5.722.409,7.514.042.874.074,1.56.1,2.045.008.222.014.4.018.532a.825.825,0,0,1,0,.182" transform="translate(-8.033 -12.929)" fill="#1a2e35"/>
        <path id="Trazado_216305" data-name="Trazado 216305" d="M111.64,88.481c.008.049-.512.125-1.295.416a8.286,8.286,0,0,0-4.624,4.331c-.342.762-.452,1.275-.5,1.265a.993.993,0,0,1,.039-.37,5.247,5.247,0,0,1,.285-.969,7.628,7.628,0,0,1,4.737-4.438,5.279,5.279,0,0,1,.986-.222,1,1,0,0,1,.371-.015" transform="translate(-13.738 -11.552)" fill="#1a2e35"/>
        <path id="Trazado_216306" data-name="Trazado 216306" d="M45.324,73.957c.908-1.673.505-8.426,1.9-8.187,1.783.3.136,7.4.023,8.05-.109.628.822.807.892.218.1-.846,1.142-9.105,2.9-8.64.974.257.526,2.034.526,2.034s-1.51,8.006-.673,8.2,1.476-4.425,1.85-6.105c.358-1.61,1.406-2.3,1.8-1.454.583,1.245-.536,5.277-.87,6.895s-1.168,6.3,1.1,4.471,4.691-2.4,5.444-2.111.589,1.449-.284,1.679a10.884,10.884,0,0,0-2.591,1.389,10.406,10.406,0,0,0-1.718,1.615,9.086,9.086,0,0,0-1.625,2.529,5.647,5.647,0,0,1-3.452,3.089l-1.326,6.309L40.642,92.1l1.915-6.675c.7-4.384.311-10.277.317-12.959.01-4.275.567-4.307,1.059-4.194,1.087.25.505,7.321,1.39,5.689" transform="translate(-5.307 -8.537)" fill="#ffd2bd"/>
        <path id="Trazado_216307" data-name="Trazado 216307" d="M45.75,81.844a9.336,9.336,0,0,1,1.142.532,4.71,4.71,0,0,1,2.2,3.192l.029.146.122-.071a7.085,7.085,0,0,1,2.224-.841c.587-.116.949-.127.949-.157a2.861,2.861,0,0,0-.969.023,6.381,6.381,0,0,0-2.3.791l.15.075a4.739,4.739,0,0,0-.266-.949,4.829,4.829,0,0,0-.943-1.475,4.611,4.611,0,0,0-1.115-.866,3.888,3.888,0,0,0-.874-.351,1.019,1.019,0,0,0-.34-.049" transform="translate(-5.974 -10.686)" fill="#e09074"/>
        <path id="Trazado_216308" data-name="Trazado 216308" d="M44.437,88.752a5.787,5.787,0,0,0,2,.968,5.794,5.794,0,0,0,2.2.342c.006-.063-.98-.176-2.137-.54s-2.035-.824-2.066-.769" transform="translate(-5.802 -11.588)" fill="#e09074"/>
        <path id="Trazado_216309" data-name="Trazado 216309" d="M79.21,81.437,72.649,94.572l3.539,12.941,9.419-9.955,9.287-17.251Z" transform="translate(-9.486 -10.486)" fill="#ffd2bd"/>
        <path id="Trazado_216310" data-name="Trazado 216310" d="M67.472,82.5s-9.325,3.315-9.325,3.932v0c-1.647,1.293-7.132,14.552-8.877,17.06l-4.988,7.348h0l4.184-16.33-9.2-2.707s-7.86,19-8.816,23.221a15.52,15.52,0,0,0,.149,7.577l.05-.043a8.747,8.747,0,0,0,3.448,4.638c3.9,2.5,7.547,2.973,11.276.218,2.114-1.561,4.527-3.444,6.738-5.2l.579,13.712h5.084c0-.77-.155-10.166-.155-10.166a52.97,52.97,0,0,0,1.541-6.777c.462-3.235,8.034-24.46,8.034-24.46L73.067,83.2l.137-4.189Z" transform="translate(-3.924 -10.317)" fill="#f37409"/>
        <path id="Trazado_216311" data-name="Trazado 216311" d="M55.811,137.425a2.763,2.763,0,0,1-.044-.427q-.027-.455-.076-1.229c-.057-1.1-.136-2.64-.234-4.548-.175-3.875-.416-9.218-.685-15.2V116l0-.017c.11-.567.226-1.171.344-1.781,1.232-6.29,2.347-11.983,3.16-16.132.414-2.043.749-3.7.988-4.882l.283-1.324.08-.343a.4.4,0,0,1,.036-.115.37.37,0,0,1-.009.12c-.015.095-.032.21-.054.349q-.086.492-.232,1.335c-.218,1.181-.526,2.848-.9,4.9-.793,4.153-1.881,9.851-3.084,16.148-.117.609-.235,1.214-.344,1.781l0-.033c.236,5.986.447,11.329.6,15.205.063,1.909.114,3.456.15,4.551q.017.776.028,1.231a2.7,2.7,0,0,1-.008.429" transform="translate(-7.152 -11.936)" fill="#1a2e35"/>
        <path id="Trazado_216312" data-name="Trazado 216312" d="M61.963,124.159a2.505,2.505,0,0,1,.047-.43l.185-1.223c.177-1.088.427-2.616.733-4.494L65.444,103.2c.659-3.778,1.276-7.321,1.8-10.337l0-.014.006-.012c1.292-2.932,2.374-5.383,3.143-7.13l.9-1.992c.1-.213.182-.384.245-.521a.885.885,0,0,1,.1-.175.762.762,0,0,1-.062.19l-.212.535-.84,2.018c-.748,1.756-1.8,4.221-3.054,7.168l.008-.027c-.516,3.019-1.122,6.564-1.768,10.344-1.011,5.765-1.927,10.984-2.594,14.794-.342,1.871-.619,3.394-.817,4.478q-.147.763-.236,1.215a2.522,2.522,0,0,1-.1.421" transform="translate(-8.09 -10.841)" fill="#1a2e35"/>
        <path id="Trazado_216313" data-name="Trazado 216313" d="M41.413,126.861c-.036-.026.363-.6.922-1.57a28.524,28.524,0,0,0,1.87-3.954,33.336,33.336,0,0,0,1.283-4.187c.259-1.093.379-1.779.421-1.773a1.678,1.678,0,0,1-.026.491c-.032.315-.1.767-.208,1.322a25.826,25.826,0,0,1-1.218,4.244,22.733,22.733,0,0,1-1.959,3.956c-.3.478-.565.854-.762,1.1s-.31.382-.324.37" transform="translate(-5.407 -15.065)" fill="#1a2e35"/>
        <g id="Grupo_150075" data-name="Grupo 150075" transform="translate(36.263 101.213)" opacity="0.2">
          <g id="Grupo_150074" data-name="Grupo 150074">
            <g id="Grupo_150073" data-name="Grupo 150073" clip-path="url(#clip-path-8)">
              <path id="Trazado_216314" data-name="Trazado 216314" d="M42.154,126.238a.569.569,0,0,0-.393.8.85.85,0,0,0,.89.408,1.768,1.768,0,0,0,.906-.495,6.2,6.2,0,0,0,1.584-2.765A26.757,26.757,0,0,0,46,116.414a31.857,31.857,0,0,1-3.82,9.677" transform="translate(-41.709 -116.414)"/>
            </g>
          </g>
        </g>
        <g id="Grupo_150078" data-name="Grupo 150078" transform="translate(46.11 92.507)" opacity="0.2">
          <g id="Grupo_150077" data-name="Grupo 150077">
            <g id="Grupo_150076" data-name="Grupo 150076" clip-path="url(#clip-path-9)">
              <path id="Trazado_216315" data-name="Trazado 216315" d="M54.959,126.149a13.763,13.763,0,0,1-1.881-8.393c.279-3.985,2.216-7.631,3.663-11.356-.833,3.917-1.307,7.8-2.061,11.57,0,0,.4,5.6.412,8.081" transform="translate(-53.035 -106.4)"/>
            </g>
          </g>
        </g>
        <g id="Grupo_150081" data-name="Grupo 150081" transform="translate(54.465 74.719)" opacity="0.2">
          <g id="Grupo_150080" data-name="Grupo 150080">
            <g id="Grupo_150079" data-name="Grupo 150079" clip-path="url(#clip-path-10)">
              <path id="Trazado_216316" data-name="Trazado 216316" d="M62.645,120.98a163.381,163.381,0,0,1,1.865-17.828,56.9,56.9,0,0,1,6.006-17.21c-.751,2.363-3.065,7.327-3.065,7.327s-3.345,17.619-4.793,26.494" transform="translate(-62.645 -85.941)"/>
            </g>
          </g>
        </g>
        <path id="Trazado_216317" data-name="Trazado 216317" d="M59.284,133.688l.836,9.249-4.368-.017c-.116,0-1.9-.03-3.865-.063a27.138,27.138,0,0,1-4.434.118c-.123-.013-.2-.028-.206-.046a3.517,3.517,0,0,1-.673-.163h-.02l0-.007c-.4-.144-.8-.4-.738-.833.191-1.327.979-1.433.979-1.433l.4-.028.032-.115c-.6,0-1.1-.016-1.371-.043-.123-.013-.2-.029-.206-.046,0,0-1.548-.184-1.43-1,.192-1.326.98-1.433.98-1.433s.536-.038,1.275-.085c-.619,0-1.143-.014-1.417-.043-.123-.012-.2-.028-.205-.046,0,0-1.548-.183-1.43-1,.191-1.327.98-1.433.98-1.433s.431-.03,1.055-.071c-.5,0-.916-.018-1.149-.043-.123-.013-.2-.028-.205-.046,0,0-1.548-.183-1.43-1,.191-1.327.98-1.433.98-1.433s2.437-.174,4.109-.243c0,0,1.9-1.711,2.646-1.632,1.117.117,7.613,2.515,7.613,2.515Z" transform="translate(-5.571 -17.072)" fill="#ffd2bd"/>
        <path id="Trazado_216318" data-name="Trazado 216318" d="M51.706,141.633a8.76,8.76,0,0,1-2.165.208,8.264,8.264,0,0,1-2.142-.069,8.76,8.76,0,0,1,2.165-.208,8.264,8.264,0,0,1,2.142.069" transform="translate(-6.189 -18.483)" fill="#e09074"/>
        <path id="Trazado_216319" data-name="Trazado 216319" d="M51.444,138.619a17.143,17.143,0,0,1-3.078.25,17.254,17.254,0,0,1-3.088-.03,17.038,17.038,0,0,1,3.078-.25,17.064,17.064,0,0,1,3.088.03" transform="translate(-5.912 -18.091)" fill="#e09074"/>
        <g id="Grupo_150084" data-name="Grupo 150084" transform="translate(39.145 117.795)" opacity="0.78">
          <g id="Grupo_150083" data-name="Grupo 150083">
            <g id="Grupo_150082" data-name="Grupo 150082" clip-path="url(#clip-path-11)">
              <path id="Trazado_216320" data-name="Trazado 216320" d="M51.19,135.555a17.143,17.143,0,0,1-3.078.25,17.254,17.254,0,0,1-3.088-.03,17.037,17.037,0,0,1,3.078-.25,17.065,17.065,0,0,1,3.088.03" transform="translate(-45.024 -135.486)" fill="#e09074"/>
            </g>
          </g>
        </g>
        <path id="Trazado_216321" data-name="Trazado 216321" d="M47.72,132.668a4.475,4.475,0,0,0,.982.077l2.366.077,2.366.084a4.409,4.409,0,0,0,.984-.01,4.029,4.029,0,0,0-.974-.15c-.6-.061-1.442-.12-2.368-.152s-1.766-.03-2.374-.01a4.088,4.088,0,0,0-.982.083" transform="translate(-6.231 -17.31)" fill="#e09074"/>
        <path id="Trazado_216322" data-name="Trazado 216322" d="M103.006,45.537c1.1-2.669,4.571-3.884,7.281-2.892a8,8,0,0,1,4.845,6.642,5.969,5.969,0,0,1-.828,4.081,5.51,5.51,0,0,1-3.793,2.134,7.559,7.559,0,0,1-7.991-10.479" transform="translate(-13.309 -5.524)" fill="#1a2e35"/>
        <path id="Trazado_216323" data-name="Trazado 216323" d="M114.5,46.431a1.082,1.082,0,0,1-.195.354,6.469,6.469,0,0,1-.7.85,7.728,7.728,0,0,1-6.648,2.282,6.4,6.4,0,0,1-1.072-.243,1.1,1.1,0,0,1-.371-.159c.013-.045.558.129,1.465.213a8.257,8.257,0,0,0,6.494-2.229c.663-.623.988-1.1,1.025-1.069" transform="translate(-13.778 -6.063)" fill="#375a64"/>
        <path id="Trazado_216324" data-name="Trazado 216324" d="M115.732,49.933c.011.015-.095.114-.3.281a9.54,9.54,0,0,1-.9.649,10.233,10.233,0,0,1-3.377,1.419,8.394,8.394,0,0,1-2.025.16,7.462,7.462,0,0,1-1.635-.27,6.21,6.21,0,0,1-1.042-.39c-.236-.116-.363-.186-.355-.2.02-.047.547.2,1.444.408a8.376,8.376,0,0,0,1.6.207,8.96,8.96,0,0,0,1.96-.176,11.637,11.637,0,0,0,3.333-1.317c.8-.464,1.268-.8,1.3-.767" transform="translate(-13.854 -6.52)" fill="#375a64"/>
        <path id="Trazado_216325" data-name="Trazado 216325" d="M70.724,52.3c-6.411-14.1,8.839-21.185,17.161-18.835,7.82,2.209,11.156,6.1,12.442,11.331A25.83,25.83,0,0,1,99.5,60.677c-1.012,2.457-2.833,4.954-5.472,5.261" transform="translate(-9.035 -4.311)" fill="#1a2e35"/>
        <path id="Trazado_216326" data-name="Trazado 216326" d="M78.626,87.907c-.11-6.737-.189-15.992-.191-15.954,0,0-5.791-.962-6.991-8.517-.6-3.758-.408-9.918-.09-14.955.285-4.533,3.289-10.095,7.806-9.617l14.1,3.565a2.658,2.658,0,0,1,2.378,2.7L94.721,74.3" transform="translate(-9.278 -5.071)" fill="#ffd2bd"/>
        <path id="Trazado_216327" data-name="Trazado 216327" d="M73.376,55.976a.963.963,0,0,0,.917.982.921.921,0,0,0,1-.856.964.964,0,0,0-.916-.983.922.922,0,0,0-1,.857" transform="translate(-9.581 -7.197)" fill="#1a2e35"/>
        <path id="Trazado_216328" data-name="Trazado 216328" d="M84.4,55.976a.963.963,0,0,0,.917.983.921.921,0,0,0,1-.856.964.964,0,0,0-.916-.983.922.922,0,0,0-1,.856" transform="translate(-11.02 -7.197)" fill="#1a2e35"/>
        <path id="Trazado_216329" data-name="Trazado 216329" d="M79.8,60.953a7.013,7.013,0,0,0-1.694-.305c-.266-.027-.518-.08-.563-.263a1.354,1.354,0,0,1,.178-.789l.787-2.028a34.792,34.792,0,0,0,1.768-5.3,35.029,35.029,0,0,0-2.191,5.149q-.394,1.068-.755,2.04A1.542,1.542,0,0,0,77.2,60.5a.668.668,0,0,0,.437.39,1.84,1.84,0,0,0,.452.063,6.7,6.7,0,0,0,1.717,0" transform="translate(-10.073 -6.825)" fill="#1a2e35"/>
        <path id="Trazado_216330" data-name="Trazado 216330" d="M79.527,76.558a19.22,19.22,0,0,0,10.119-2.7s-2.557,5.257-10.119,4.55Z" transform="translate(-10.384 -9.644)" fill="#e09074"/>
        <path id="Trazado_216331" data-name="Trazado 216331" d="M97.609,56.978c.11-.053,4.045-1.794,4.091,2.731s-4.505,3.637-4.514,3.506.423-6.237.423-6.237" transform="translate(-12.69 -7.391)" fill="#ffd2bd"/>
        <path id="Trazado_216332" data-name="Trazado 216332" d="M98.754,61.682c.02-.015.079.054.213.114a.785.785,0,0,0,.589.006,1.95,1.95,0,0,0,.884-1.759,2.592,2.592,0,0,0-.232-1.126.913.913,0,0,0-.6-.6.4.4,0,0,0-.463.221c-.059.127-.03.217-.054.225s-.1-.075-.063-.262a.506.506,0,0,1,.176-.285.594.594,0,0,1,.435-.12,1.109,1.109,0,0,1,.83.693,2.688,2.688,0,0,1,.286,1.258,2.047,2.047,0,0,1-1.13,1.966A.841.841,0,0,1,98.9,61.9c-.142-.11-.166-.21-.15-.219" transform="translate(-12.894 -7.586)" fill="#e09074"/>
        <path id="Trazado_216333" data-name="Trazado 216333" d="M82.64,66.928a4.352,4.352,0,0,0,.382-1.176,1.464,1.464,0,0,0-.309-1.162,1.313,1.313,0,0,0-1.214-.357,2.1,2.1,0,0,0-1.112.674c-.269.295-.476.76-.23,1.073a.992.992,0,0,0,.416.264l2.067.875" transform="translate(-10.452 -8.384)" fill="#e09074"/>
        <path id="Trazado_216334" data-name="Trazado 216334" d="M83.233,65.09c-.055.038-.246-.416-.882-.688a1.583,1.583,0,0,0-1.131-.054,1.673,1.673,0,0,0-.982.942,1.565,1.565,0,0,0-.091.349c0,.119-.011.106.062.16s.218.095.329.143l.34.143c.442.188.839.362,1.169.512a3.766,3.766,0,0,1,1.042.56,3.781,3.781,0,0,1-1.14-.316c-.343-.12-.749-.269-1.2-.438l-.345-.132a3.82,3.82,0,0,1-.379-.157.494.494,0,0,1-.213-.225.582.582,0,0,1-.034-.29,1.786,1.786,0,0,1,.114-.444,1.953,1.953,0,0,1,1.222-1.132,1.778,1.778,0,0,1,1.35.143,1.671,1.671,0,0,1,.663.612c.108.185.125.3.106.312" transform="translate(-10.416 -8.35)" fill="#1a2e35"/>
        <path id="Trazado_216335" data-name="Trazado 216335" d="M102.919,53.473c-.463-.032-4.2.451-3.905,7.4.275,6.487,4.826,5.058,6.278,2.616,1.375-2.314,2.17-9.693-2.373-10.012" transform="translate(-12.927 -6.982)" fill="#375a64"/>
        <path id="Trazado_216336" data-name="Trazado 216336" d="M105.435,52.976a.815.815,0,0,1-.017-.183c-.006-.136-.013-.31-.022-.529-.014-.48-.032-1.148-.056-1.979-.034-1.706-.082-4.075-.136-6.811l.083.083-1.926,0,.086-.089c.014.516.029,1.062.044,1.615.064,2.607.124,5.034.175,7.065l0,.06-.057.014a3.5,3.5,0,0,0-1.985,1.277,4.681,4.681,0,0,0-.792,1.675,7.041,7.041,0,0,0-.2,1.186c-.012.139-.019.245-.023.317a.446.446,0,0,1-.01.109.379.379,0,0,1-.012-.109c0-.072,0-.18,0-.32a6.166,6.166,0,0,1,.167-1.2,4.674,4.674,0,0,1,.779-1.727,3.613,3.613,0,0,1,2.045-1.348l-.056.073c-.058-2.031-.129-4.458-.2-7.064-.014-.554-.029-1.1-.043-1.616l0-.089h.089l1.926,0h.083v.083c.03,2.736.056,5.106.075,6.812,0,.831,0,1.5.006,1.979,0,.219,0,.395-.005.529a.881.881,0,0,1-.012.183" transform="translate(-13.133 -5.665)" fill="#375a64"/>
        <path id="Trazado_216337" data-name="Trazado 216337" d="M101.677,42.134a14.9,14.9,0,0,0-6.609-6.828,27.657,27.657,0,0,0-5.578-2.068s2.717-.646,7.112,1.31a13.476,13.476,0,0,1,5.34,3.781,11.6,11.6,0,0,1,1.9,3.805Z" transform="translate(-11.685 -4.327)" fill="#375a64"/>
        <path id="Trazado_216338" data-name="Trazado 216338" d="M102.618,65.464a.417.417,0,0,1-.131-.038,1.991,1.991,0,0,1-.348-.179,3.054,3.054,0,0,1-.979-1.045,5.032,5.032,0,0,1-.6-2.036,14.844,14.844,0,0,1,0-2.6,15.861,15.861,0,0,1,.43-2.559,7.33,7.33,0,0,1,.747-1.987,3.065,3.065,0,0,1,.985-1.039,2.1,2.1,0,0,1,.349-.176.369.369,0,0,1,.132-.036c.006.015-.172.077-.443.269a3.194,3.194,0,0,0-.916,1.044,7.689,7.689,0,0,0-.7,1.964,16.814,16.814,0,0,0-.412,2.534,15.535,15.535,0,0,0-.01,2.565,5.052,5.052,0,0,0,.548,1.992,3.176,3.176,0,0,0,.91,1.049c.27.2.447.257.441.274" transform="translate(-13.123 -7.021)" fill="#1a2e35"/>
        <path id="Trazado_216339" data-name="Trazado 216339" d="M85.327,68.037l-3.306.649a1.019,1.019,0,1,1-.393-2l3.306-.649a1.018,1.018,0,0,1,1.2.8h0a1.018,1.018,0,0,1-.8,1.2" transform="translate(-10.551 -8.62)" fill="#375a64"/>
        <path id="Trazado_216340" data-name="Trazado 216340" d="M86.381,65.865l15.876-4.981a.749.749,0,1,1,.419,1.437L86.442,66.707Z" transform="translate(-11.279 -7.945)" fill="#375a64"/>
        <path id="Trazado_216341" data-name="Trazado 216341" d="M99.447,63.678a3.5,3.5,0,0,1,.526-.185l1.452-.442c.609-.189,1.356-.387,2.147-.646a1.452,1.452,0,0,0,.52-.32.792.792,0,0,0,.223-.552.48.48,0,0,0-.328-.455,1.211,1.211,0,0,0-.663.02l-4.76,1.531-1.45.449a3.283,3.283,0,0,1-.539.141,3.544,3.544,0,0,1,.518-.206l1.432-.5c1.216-.413,2.883-.984,4.757-1.583a1.371,1.371,0,0,1,.763-.015.654.654,0,0,1,.442.614.961.961,0,0,1-.276.673,1.594,1.594,0,0,1-.582.353c-.821.26-1.552.44-2.172.615l-1.467.389a3.366,3.366,0,0,1-.544.12" transform="translate(-12.61 -7.948)" fill="#1a2e35"/>
        <path id="Trazado_216342" data-name="Trazado 216342" d="M89.552,53.4c-.122.191-1.209-.4-2.558-.157-1.353.224-2.178,1.149-2.357,1.009-.086-.06,0-.4.365-.805a3.3,3.3,0,0,1,3.936-.68c.478.263.675.549.614.633" transform="translate(-11.048 -6.842)" fill="#e09074"/>
        <path id="Trazado_216343" data-name="Trazado 216343" d="M89.406,53.667a5.318,5.318,0,0,1-.743-.187,3.985,3.985,0,0,0-3.4.764c-.367.287-.557.514-.591.488s.113-.291.467-.632a3.59,3.59,0,0,1,3.576-.8c.466.156.709.344.693.371" transform="translate(-11.055 -6.936)" fill="#1a2e35"/>
        <path id="Trazado_216344" data-name="Trazado 216344" d="M89.713,51.259c-.268.269-1.275-.3-2.519-.882-1.235-.606-2.307-1.056-2.257-1.432.03-.181.363-.3.889-.293a4.917,4.917,0,0,1,1.953.51,4.846,4.846,0,0,1,1.615,1.215c.336.409.443.748.318.882" transform="translate(-11.09 -6.353)" fill="#1a2e35"/>
        <path id="Trazado_216345" data-name="Trazado 216345" d="M77.182,54.207c-.105.058-.309-.136-.635-.361a3.307,3.307,0,0,0-1.376-.556c-1.171-.194-2.111.349-2.247.157-.062-.082.1-.349.511-.609a2.814,2.814,0,0,1,1.86-.349,2.558,2.558,0,0,1,1.655.95c.293.4.321.72.231.766" transform="translate(-9.52 -6.85)" fill="#e09074"/>
        <path id="Trazado_216346" data-name="Trazado 216346" d="M77.239,54.854c-.037.023-.21-.236-.577-.56a3.638,3.638,0,0,0-3.533-.768c-.469.143-.735.305-.758.269s.216-.25.694-.448a3.387,3.387,0,0,1,3.731.81c.353.38.471.682.444.7" transform="translate(-9.45 -6.934)" fill="#1a2e35"/>
        <path id="Trazado_216347" data-name="Trazado 216347" d="M77.335,52.832c-.252.281-1.247-.209-2.367-.884s-2.009-1.34-1.877-1.693,1.338-.216,2.577.54,1.916,1.767,1.668,2.037" transform="translate(-9.542 -6.538)" fill="#1a2e35"/>
        <path id="Trazado_216348" data-name="Trazado 216348" d="M92.186,38.435a15,15,0,0,0-2.068,3.9,5.064,5.064,0,0,0,.443,4.262,9.049,9.049,0,0,0,3.4,2.46,5.075,5.075,0,0,1,2.822,2.99c.1.432-.089,1.94.236,2.241a1.1,1.1,0,0,0,1.564-.345,7.823,7.823,0,0,0,.566-2.77l.079-5.647a10.4,10.4,0,0,0-.689-4.684c-.966-2.009-2.969-2.653-5.889-2.51" transform="translate(-11.732 -5.002)" fill="#1a2e35"/>
        <path id="Trazado_216349" data-name="Trazado 216349" d="M71.174,49.482a10.651,10.651,0,0,1,2.144-5.276,7.816,7.816,0,0,1,4.832-2.894c1.906-.287,3.83.242,5.754.351s4.116-.362,5.12-2.007a1.455,1.455,0,0,0,.061-1.679,1.7,1.7,0,0,0-.564-.371,14.5,14.5,0,0,0-8.237-1.332,11.372,11.372,0,0,0-7.214,4.036,9.373,9.373,0,0,0-1.829,7.963" transform="translate(-9.269 -4.719)" fill="#1a2e35"/>
        <path id="Trazado_216350" data-name="Trazado 216350" d="M69.833,46.824a.977.977,0,0,1-.09-.246,4.386,4.386,0,0,1-.153-.736A6.357,6.357,0,0,1,69.85,43.1a7.3,7.3,0,0,1,2.271-3.39,9.453,9.453,0,0,1,4.557-2.049,12.868,12.868,0,0,1,5,.225,17.627,17.627,0,0,1,2.1.633c.645.236,1.222.5,1.773.646a7.6,7.6,0,0,0,2.686.239,1.968,1.968,0,0,0,.877-.431.7.7,0,0,1-.175.2,1.59,1.59,0,0,1-.679.336,7.18,7.18,0,0,1-2.757-.156c-.575-.142-1.162-.4-1.8-.62a18.077,18.077,0,0,0-2.076-.6,12.906,12.906,0,0,0-4.9-.2A9.342,9.342,0,0,0,72.28,39.9a7.229,7.229,0,0,0-2.25,3.259,6.611,6.611,0,0,0-.336,2.674c.057.641.165.986.138.993" transform="translate(-9.08 -4.898)" fill="#375a64"/>
        <path id="Trazado_216351" data-name="Trazado 216351" d="M79.49,34.536a1.473,1.473,0,0,1,.476-.092,6.613,6.613,0,0,1,1.321,0,7.7,7.7,0,0,1,4.019,1.608c.669.534,1.229,1.111,1.821,1.513a4.782,4.782,0,0,0,1.747.7,3.979,3.979,0,0,0,1.275.087c.3-.037.453-.117.464-.1a.855.855,0,0,1-.446.2,3.538,3.538,0,0,1-1.328,0,4.707,4.707,0,0,1-1.85-.685c-.628-.41-1.2-.99-1.85-1.507a8.044,8.044,0,0,0-3.874-1.63c-1.085-.146-1.771-.044-1.775-.1" transform="translate(-10.379 -4.493)" fill="#375a64"/>
        <path id="Trazado_216352" data-name="Trazado 216352" d="M103.772,50.075c-.024.011-.1-.18-.323-.469a3.248,3.248,0,0,0-1.2-.923,5.131,5.131,0,0,0-2.209-.443,17.2,17.2,0,0,0-2.792.386,10.248,10.248,0,0,1-2.86.217,7.9,7.9,0,0,1-2.281-.55,7.146,7.146,0,0,1-1.39-.748,1.918,1.918,0,0,1-.446-.369,14.856,14.856,0,0,0,1.9.938,8.246,8.246,0,0,0,2.232.481A10.617,10.617,0,0,0,97.2,48.36a15.944,15.944,0,0,1,2.838-.37,5.1,5.1,0,0,1,2.294.521,3.092,3.092,0,0,1,1.2,1.034,2.1,2.1,0,0,1,.2.385c.036.092.05.142.041.145" transform="translate(-11.787 -6.16)" fill="#375a64"/>
        <path id="Trazado_216353" data-name="Trazado 216353" d="M103.02,45.722c-.022.01-.1-.177-.323-.454a3.017,3.017,0,0,0-1.207-.852,4.522,4.522,0,0,0-2.183-.232c-.839.083-1.742.336-2.721.519a5.831,5.831,0,0,1-2.814-.043,4.593,4.593,0,0,1-1.958-1.214,4.232,4.232,0,0,1-.861-1.288,2.583,2.583,0,0,1-.136-.4c-.024-.093-.033-.143-.024-.146a5.91,5.91,0,0,0,1.157,1.7,4.555,4.555,0,0,0,1.893,1.11,5.767,5.767,0,0,0,2.7.017c.96-.178,1.877-.429,2.746-.5a4.549,4.549,0,0,1,2.281.3,2.9,2.9,0,0,1,1.217.965,1.211,1.211,0,0,1,.238.516" transform="translate(-11.855 -5.434)" fill="#375a64"/>
        <path id="Trazado_216354" data-name="Trazado 216354" d="M82.53,100.875a.727.727,0,0,1,.1-.081c.064-.052.164-.124.289-.228a12.729,12.729,0,0,0,1.054-.957,18.079,18.079,0,0,0,1.487-1.726c.545-.708,1.127-1.551,1.763-2.5,1.275-1.888,2.767-4.185,4.35-6.835.792-1.324,1.608-2.737,2.433-4.228l.622-1.133a7.154,7.154,0,0,1,.709-1.127,2.475,2.475,0,0,1,1.1-.8,1.334,1.334,0,0,1,.7-.077.673.673,0,0,1,.333.183.777.777,0,0,1,.178.338l.008.024-.01.025a1.242,1.242,0,0,1-.244.428.7.7,0,0,1-.455.217,1.463,1.463,0,0,1-.9-.31,1.519,1.519,0,0,1-.576-1.768,1.348,1.348,0,0,1,.659-.751,1.5,1.5,0,0,1,.981-.136,1.044,1.044,0,0,1,.8.619.53.53,0,0,1-.116.549.976.976,0,0,1-.466.254,1.376,1.376,0,0,1-1.519-.695,1.241,1.241,0,0,1-.09-.889,1.51,1.51,0,0,1,.462-.751,1.2,1.2,0,0,1,.808-.314.954.954,0,0,1,.763.4.632.632,0,0,1,.095.457.6.6,0,0,1-.252.39.929.929,0,0,1-.842.106,1.042,1.042,0,0,1-.567-.627,2.259,2.259,0,0,1-.127-.82,2.891,2.891,0,0,1,.408-1.56,1.186,1.186,0,0,1,.649-.489,1.035,1.035,0,0,1,.782.141.772.772,0,0,1,.393.7.71.71,0,0,1-.517.6.836.836,0,0,1-.761-.123,1.069,1.069,0,0,1-.383-.666,1.532,1.532,0,0,1,.064-.75,3.334,3.334,0,0,1,.256-.682,1.3,1.3,0,0,1,.489-.543,1.6,1.6,0,0,1,.67-.226.677.677,0,0,1,.365.05.794.794,0,0,1,.274.243.917.917,0,0,1,.15.33.518.518,0,0,1-.043.377.6.6,0,0,1-.642.25,1.089,1.089,0,0,1-.59-.305,1.758,1.758,0,0,1-.508-1.168,1.871,1.871,0,0,1,.316-1.19,1.426,1.426,0,0,1,.441-.413,1.242,1.242,0,0,1,.563-.156.859.859,0,0,1,.551.164.615.615,0,0,1,.233.527.855.855,0,0,1-.743.723.908.908,0,0,1-.849-.479,1.53,1.53,0,0,1-.212-.92,5.6,5.6,0,0,1,.563-1.58l.565-1.283.787-1.774c.09-.2.159-.349.209-.459s.077-.154.077-.154-.017.056-.06.162l-.193.467c-.176.416-.431,1.016-.757,1.787l-.551,1.289a5.6,5.6,0,0,0-.542,1.554,1.426,1.426,0,0,0,.2.854.8.8,0,0,0,.749.424.743.743,0,0,0,.64-.619.5.5,0,0,0-.19-.421.74.74,0,0,0-.476-.135,1.117,1.117,0,0,0-.505.143,1.3,1.3,0,0,0-.4.376,1.738,1.738,0,0,0-.287,1.1,1.62,1.62,0,0,0,.469,1.071.949.949,0,0,0,.516.267.461.461,0,0,0,.495-.178.541.541,0,0,0-.1-.543.641.641,0,0,0-.221-.2.547.547,0,0,0-.289-.034,1.272,1.272,0,0,0-1.036.69,3.271,3.271,0,0,0-.243.651,1.37,1.37,0,0,0-.059.676.908.908,0,0,0,.325.566.676.676,0,0,0,.618.1.543.543,0,0,0,.4-.46.6.6,0,0,0-.318-.543.879.879,0,0,0-.658-.12,1.028,1.028,0,0,0-.55.423,2.728,2.728,0,0,0-.375,1.462,2.108,2.108,0,0,0,.117.755.873.873,0,0,0,.468.527.768.768,0,0,0,.685-.083.438.438,0,0,0,.112-.607.792.792,0,0,0-.627-.323,1.034,1.034,0,0,0-.689.271,1.151,1.151,0,0,0,.994,2.026.809.809,0,0,0,.382-.2.341.341,0,0,0,.076-.365.875.875,0,0,0-.668-.5,1.258,1.258,0,0,0-1.442.773,1.34,1.34,0,0,0,.51,1.561,1.305,1.305,0,0,0,.788.281.672.672,0,0,0,.551-.526l0,.05a.5.5,0,0,0-.383-.4,1.167,1.167,0,0,0-.609.071,2.3,2.3,0,0,0-1.027.742,6.962,6.962,0,0,0-.692,1.1L94.14,84.4c-.829,1.491-1.65,2.9-2.447,4.225-1.594,2.647-3.1,4.94-4.385,6.821-.643.941-1.233,1.781-1.787,2.487a17.322,17.322,0,0,1-1.512,1.715,9.072,9.072,0,0,1-1.479,1.223" transform="translate(-10.776 -8.789)" fill="#1a2e35"/>
      </g>
    </g>
  </g>
</svg>
