<svg xmlns="http://www.w3.org/2000/svg" xmlns:xlink="http://www.w3.org/1999/xlink" width="535" height="530" viewBox="0 0 535 530">
  <defs>
    <filter id="Trazado_211522" x="0" y="0" width="535" height="530" filterUnits="userSpaceOnUse">
      <feOffset dy="3" input="SourceAlpha"/>
      <feGaussianBlur stdDeviation="5" result="blur"/>
      <feFlood flood-opacity="0.161"/>
      <feComposite operator="in" in2="blur"/>
      <feComposite in="SourceGraphic"/>
    </filter>
    <clipPath id="clip-path">
      <rect id="Rectángulo_44879" data-name="Rectángulo 44879" width="328" height="314.539" fill="none"/>
    </clipPath>
    <clipPath id="clip-path-3">
      <rect id="Rectángulo_44862" data-name="Rectángulo 44862" width="34.24" height="74.165" fill="none"/>
    </clipPath>
    <clipPath id="clip-path-4">
      <rect id="Rectángulo_44866" data-name="Rectángulo 44866" width="43.052" height="40.209" fill="none"/>
    </clipPath>
    <clipPath id="clip-path-5">
      <rect id="Rectángulo_44867" data-name="Rectángulo 44867" width="160.69" height="215.209" fill="none"/>
    </clipPath>
    <clipPath id="clip-path-6">
      <rect id="Rectángulo_44868" data-name="Rectángulo 44868" width="160.688" height="214.915" fill="none"/>
    </clipPath>
    <clipPath id="clip-path-7">
      <rect id="Rectángulo_44871" data-name="Rectángulo 44871" width="43.053" height="40.209" fill="none"/>
    </clipPath>
    <clipPath id="clip-path-8">
      <rect id="Rectángulo_44872" data-name="Rectángulo 44872" width="21.013" height="11.397" fill="none"/>
    </clipPath>
    <clipPath id="clip-path-9">
      <rect id="Rectángulo_44873" data-name="Rectángulo 44873" width="19.176" height="8.261" fill="none"/>
    </clipPath>
    <clipPath id="clip-path-10">
      <rect id="Rectángulo_44874" data-name="Rectángulo 44874" width="5.494" height="20.009" fill="none"/>
    </clipPath>
    <clipPath id="clip-path-11">
      <rect id="Rectángulo_44875" data-name="Rectángulo 44875" width="31.463" height="5.002" fill="none"/>
    </clipPath>
    <clipPath id="clip-path-12">
      <rect id="Rectángulo_44876" data-name="Rectángulo 44876" width="3.642" height="3.705" fill="none"/>
    </clipPath>
    <clipPath id="clip-path-13">
      <rect id="Rectángulo_44877" data-name="Rectángulo 44877" width="2.673" height="11.562" fill="none"/>
    </clipPath>
  </defs>
  <g id="Grupo_150094" data-name="Grupo 150094" transform="translate(-795.498 -9872.923)">
    <g transform="matrix(1, 0, 0, 1, 795.5, 9872.92)" filter="url(#Trazado_211522)">
      <path id="Trazado_211522-2" data-name="Trazado 211522" d="M34.695,0H470.305C489.467,0,505,12.064,505,26.946V473.054C505,487.936,489.467,500,470.305,500H34.695C15.533,500,0,487.936,0,473.054V26.946C0,12.064,15.533,0,34.695,0Z" transform="translate(15 12)" fill="#feeeab"/>
    </g>
    <path id="Rectángulo_44153" data-name="Rectángulo 44153" d="M0,0H505a0,0,0,0,1,0,0V62a32,32,0,0,1-32,32H32A32,32,0,0,1,0,62V0A0,0,0,0,1,0,0Z" transform="translate(810.5 10294.659)" fill="#fbdb5e"/>
    <path id="Trazado_216360" data-name="Trazado 216360" d="M-64.595-4.814a5.193,5.193,0,0,1-.8,2.622A4.833,4.833,0,0,1-67.451-.43,7,7,0,0,1-70.474.2a5.584,5.584,0,0,1-4.414-1.826A7.54,7.54,0,0,1-76.5-6.787v-.7a8.607,8.607,0,0,1,.728-3.657,5.513,5.513,0,0,1,2.095-2.422,5.844,5.844,0,0,1,3.164-.854,6.129,6.129,0,0,1,4.16,1.362,5.383,5.383,0,0,1,1.787,3.755h-3.418a2.547,2.547,0,0,0-.654-1.865,2.691,2.691,0,0,0-1.875-.566,2.048,2.048,0,0,0-1.875.957,6.151,6.151,0,0,0-.625,3.057v1.006a6.806,6.806,0,0,0,.571,3.252,2.091,2.091,0,0,0,1.968.977,2.632,2.632,0,0,0,1.807-.557A2.363,2.363,0,0,0-68-4.814Zm1.055-.566A6.236,6.236,0,0,1-62.925-8.2a4.4,4.4,0,0,1,1.768-1.9,5.323,5.323,0,0,1,2.705-.664,4.858,4.858,0,0,1,3.74,1.47,5.64,5.64,0,0,1,1.367,4v.117a5.472,5.472,0,0,1-1.372,3.921A4.871,4.871,0,0,1-58.433.2a4.927,4.927,0,0,1-3.623-1.353A5.29,5.29,0,0,1-63.53-4.824Zm3.291.205a3.932,3.932,0,0,0,.459,2.148,1.529,1.529,0,0,0,1.357.684q1.758,0,1.8-2.705v-.332q0-2.842-1.816-2.842-1.65,0-1.787,2.451Zm11.465-5.391.107,1.24a3.633,3.633,0,0,1,3.018-1.436A2.675,2.675,0,0,1-42.954-9.17a3.516,3.516,0,0,1,3.105-1.592q3.213,0,3.3,3.887V0h-3.3V-6.67a2.014,2.014,0,0,0-.273-1.182,1.164,1.164,0,0,0-1-.371,1.559,1.559,0,0,0-1.455.869l.01.137V0h-3.3V-6.65a2.117,2.117,0,0,0-.264-1.2,1.161,1.161,0,0,0-1.006-.371,1.578,1.578,0,0,0-1.445.869V0H-51.87V-10.566Zm23.926,5.361a6.372,6.372,0,0,1-1.108,3.931A3.554,3.554,0,0,1-28.96.2,3.046,3.046,0,0,1-31.353-.869V4.063h-3.291V-10.566h3.076l.1.977a3.046,3.046,0,0,1,2.49-1.172,3.582,3.582,0,0,1,3.037,1.44,6.45,6.45,0,0,1,1.084,3.96Zm-3.291-.205q0-2.812-1.641-2.812a1.549,1.549,0,0,0-1.562.84v4.16a1.6,1.6,0,0,0,1.582.879q1.572,0,1.621-2.715Zm11.133-2.178L-18.1-7.666a1.947,1.947,0,0,0-1.992.977V0h-3.291V-10.566H-20.3l.107,1.357a2.548,2.548,0,0,1,2.314-1.553,3.209,3.209,0,0,1,.918.117ZM-10.171,0a3.716,3.716,0,0,1-.312-.947A3.06,3.06,0,0,1-13.022.2a3.749,3.749,0,0,1-2.539-.9,2.875,2.875,0,0,1-1.045-2.271,2.955,2.955,0,0,1,1.27-2.6,6.468,6.468,0,0,1,3.691-.879h1.016v-.559q0-1.462-1.26-1.462a1.03,1.03,0,0,0-1.172,1.158h-3.291a2.95,2.95,0,0,1,1.3-2.487,5.479,5.479,0,0,1,3.325-.956,4.8,4.8,0,0,1,3.193.986,3.429,3.429,0,0,1,1.2,2.705v4.678A4.79,4.79,0,0,0-6.88-.166V0Zm-2.061-2.148a1.836,1.836,0,0,0,1.021-.264,1.653,1.653,0,0,0,.581-.6V-4.7h-.957q-1.719,0-1.719,1.543a.942.942,0,0,0,.3.728A1.1,1.1,0,0,0-12.231-2.148Zm18.1-5.439L4.78-7.666a1.947,1.947,0,0,0-1.992.977V0H-.5V-10.566H2.583L2.69-9.209A2.548,2.548,0,0,1,5-10.762a3.209,3.209,0,0,1,.918.117ZM12.163.2a5.432,5.432,0,0,1-3.936-1.45,5.008,5.008,0,0,1-1.5-3.774V-5.3a6.489,6.489,0,0,1,.6-2.861,4.395,4.395,0,0,1,1.753-1.919,5.292,5.292,0,0,1,2.734-.679A4.574,4.574,0,0,1,15.327-9.38a5.43,5.43,0,0,1,1.289,3.853v1.279H10.073a2.372,2.372,0,0,0,.771,1.4,2.3,2.3,0,0,0,1.543.508,2.958,2.958,0,0,0,2.441-1.094l1.5,1.777A4.2,4.2,0,0,1,14.59-.308,5.891,5.891,0,0,1,12.163.2Zm-.371-8.418q-1.445,0-1.719,1.914h3.32v-.254a1.63,1.63,0,0,0-.4-1.226A1.593,1.593,0,0,0,11.792-8.223ZM25.3-12.6q-.84-.068-1.416-.068-1.914,0-1.914,1.494v.605h2.061v2.285H21.968V0h-3.3V-8.281H17.134v-2.285h1.533v-.684a3.649,3.649,0,0,1,1.226-2.925,5.24,5.24,0,0,1,3.481-1.03q1.611,0,5.234.205V0H25.3ZM35.728.2a5.432,5.432,0,0,1-3.936-1.45,5.008,5.008,0,0,1-1.5-3.774V-5.3a6.489,6.489,0,0,1,.6-2.861,4.395,4.395,0,0,1,1.753-1.919,5.292,5.292,0,0,1,2.734-.679A4.574,4.574,0,0,1,38.892-9.38a5.43,5.43,0,0,1,1.289,3.853v1.279H33.638a2.372,2.372,0,0,0,.771,1.4,2.3,2.3,0,0,0,1.543.508,2.958,2.958,0,0,0,2.441-1.094L39.9-1.66A4.2,4.2,0,0,1,38.154-.308,5.891,5.891,0,0,1,35.728.2Zm-.371-8.418q-1.445,0-1.719,1.914h3.32v-.254a1.63,1.63,0,0,0-.4-1.226A1.593,1.593,0,0,0,35.356-8.223Zm10.43.566,1.533-2.91h3.418L47.954-5.42,50.874,0H47.437l-1.66-3.125L44.146,0H40.688l2.93-5.42-2.773-5.146H44.3ZM55.269,0h-3.3V-10.566h3.3Zm-3.5-13.291a1.469,1.469,0,0,1,.508-1.152,1.916,1.916,0,0,1,1.318-.449,1.916,1.916,0,0,1,1.318.449,1.469,1.469,0,0,1,.508,1.152,1.469,1.469,0,0,1-.508,1.152,1.916,1.916,0,0,1-1.318.449,1.916,1.916,0,0,1-1.318-.449A1.469,1.469,0,0,1,51.772-13.291Zm9.736,9.375,1.67-6.65h3.467L63.2,0H59.839L56.392-10.566h3.477ZM73.433,0a3.716,3.716,0,0,1-.312-.947A3.06,3.06,0,0,1,70.581.2a3.749,3.749,0,0,1-2.539-.9A2.875,2.875,0,0,1,67-2.979a2.955,2.955,0,0,1,1.27-2.6,6.468,6.468,0,0,1,3.691-.879h1.016v-.559q0-1.462-1.26-1.462a1.03,1.03,0,0,0-1.172,1.158H67.251a2.95,2.95,0,0,1,1.3-2.487,5.479,5.479,0,0,1,3.325-.956,4.8,4.8,0,0,1,3.193.986,3.429,3.429,0,0,1,1.2,2.705v4.678a4.79,4.79,0,0,0,.449,2.227V0ZM71.372-2.148a1.836,1.836,0,0,0,1.021-.264,1.653,1.653,0,0,0,.581-.6V-4.7h-.957Q70.3-4.7,70.3-3.154a.942.942,0,0,0,.3.728A1.1,1.1,0,0,0,71.372-2.148Z" transform="translate(1061.998 10348.659)" fill="#12263f"/>
    <g id="Grupo_148835" data-name="Grupo 148835" transform="translate(898 9944.922)">
      <g id="Grupo_148907" data-name="Grupo 148907" clip-path="url(#clip-path)">
        <g id="Grupo_148906" data-name="Grupo 148906">
          <g id="Grupo_148905" data-name="Grupo 148905" clip-path="url(#clip-path)">
            <path id="Trazado_212921" data-name="Trazado 212921" d="M169.2,291.093c-12.8-6.061-17.911-20.469-19.716-33.892-.3-2.24-.943-4.547-.215-6.681s2.976-3.887,5.129-3.286c1.787.5,2.833,2.3,4.028,3.736a13.214,13.214,0,0,0,6.069,4.107c1.543.5,3.374.65,4.643-.36,1.742-1.386,1.52-4.078,1.131-6.292q-1.088-6.188-2.173-12.375a20.96,20.96,0,0,1-.445-6.695,6.969,6.969,0,0,1,3.533-5.377c2.009-.946,4.821-.173,5.632,1.92a20.646,20.646,0,0,1,.53,2.748,2.364,2.364,0,0,0,1.734,1.964c.929.11,1.709-.669,2.261-1.429a29.9,29.9,0,0,0,3.938-8.88,41.407,41.407,0,0,1,3.539-9.074c1.663-2.792,4.205-5.21,7.348-5.927s6.855.671,8.184,3.649.046,6.465-1.509,9.329a50.187,50.187,0,0,1-8.637,11.558,4.131,4.131,0,0,0-1.409,2.143c-.231,1.559,1.416,2.789,2.957,3.028,1.744.27,3.508-.2,5.27-.293s3.762.356,4.692,1.878c1.291,2.112-.2,4.806-1.8,6.676a42.984,42.984,0,0,1-11.315,9.359,14.5,14.5,0,0,0-4.276,3.053c-1.121,1.368-1.577,3.493-.519,4.92s3.181,1.582,4.835.976a29.941,29.941,0,0,0,4.548-2.68c2.85-1.664,6.817-2.12,9.213.183a7.106,7.106,0,0,1,1.8,6.074,16.4,16.4,0,0,1-2.432,6.044,43.207,43.207,0,0,1-16.029,15.862c-6.649,3.644-13.081,5.414-20.535,4.035" transform="translate(15.922 21.927)" fill="#fff"/>
            <path id="Trazado_212922" data-name="Trazado 212922" d="M169.08,282.014a201.335,201.335,0,0,1,4.265-22.708l1.423-5.9c.472-1.934.94-3.851,1.513-5.7a100.216,100.216,0,0,1,3.9-10.427c1.4-3.257,2.85-6.295,4.226-9.128s2.72-5.443,4.041-7.773a79.74,79.74,0,0,1,7.045-10.52c.925-1.173,1.674-2.059,2.189-2.652.248-.283.443-.5.59-.672a1.63,1.63,0,0,1,.211-.219,1.639,1.639,0,0,1-.179.247c-.139.174-.324.4-.559.7-.494.611-1.221,1.512-2.126,2.7a84.435,84.435,0,0,0-6.918,10.565c-1.3,2.333-2.621,4.948-3.987,7.78s-2.8,5.877-4.185,9.129a101.417,101.417,0,0,0-3.865,10.394c-.567,1.839-1.028,3.739-1.5,5.678s-.941,3.9-1.421,5.892a206.275,206.275,0,0,0-4.289,22.657" transform="translate(18.075 22.056)" fill="#e1e1e1"/>
            <path id="Trazado_212923" data-name="Trazado 212923" d="M176.4,245.983a4.535,4.535,0,0,1-.376-.909c-.22-.592-.51-1.46-.852-2.537-.686-2.153-1.533-5.159-2.454-8.476s-1.808-6.3-2.525-8.441c-.355-1.069-.652-1.933-.864-2.526a4.414,4.414,0,0,1-.287-.941,4.569,4.569,0,0,1,.436.882c.259.577.6,1.427.99,2.487.791,2.119,1.727,5.1,2.648,8.426.9,3.275,1.715,6.24,2.337,8.5l.725,2.572a4.473,4.473,0,0,1,.224.959" transform="translate(18.07 23.748)" fill="#e1e1e1"/>
            <path id="Trazado_212924" data-name="Trazado 212924" d="M203.275,234.52a6.288,6.288,0,0,1-1.114.329c-.719.188-1.763.456-3.041.828-2.561.723-6.065,1.845-9.876,3.253s-7.2,2.841-9.627,3.945c-1.216.543-2.189,1.009-2.864,1.327a6.107,6.107,0,0,1-1.066.46,6.328,6.328,0,0,1,.993-.607c.653-.362,1.608-.87,2.813-1.45,2.4-1.174,5.787-2.65,9.608-4.07a101.638,101.638,0,0,1,9.942-3.145c1.292-.337,2.349-.561,3.083-.7a6.07,6.07,0,0,1,1.148-.169" transform="translate(18.781 25.069)" fill="#e1e1e1"/>
            <path id="Trazado_212925" data-name="Trazado 212925" d="M171.3,277.456a1.482,1.482,0,0,1-.255-.314l-.661-.949c-.571-.826-1.366-2.042-2.328-3.558-1.926-3.032-4.455-7.3-7.183-12.052s-5.216-9.039-7.075-12.106l-2.214-3.626c-.239-.4-.436-.722-.6-.991a1.56,1.56,0,0,1-.185-.361,1.508,1.508,0,0,1,.255.315l.662.948c.57.826,1.365,2.042,2.327,3.559,1.927,3.031,4.456,7.3,7.185,12.053s5.214,9.038,7.074,12.105c.91,1.489,1.657,2.715,2.214,3.625l.6.991a1.5,1.5,0,0,1,.185.361" transform="translate(16.12 26.03)" fill="#e1e1e1"/>
            <path id="Trazado_212926" data-name="Trazado 212926" d="M205.106,257.369a1.583,1.583,0,0,1-.35.218l-1.037.555c-.96.5-2.255,1.178-3.831,2-3.234,1.689-7.675,4.073-12.579,6.714s-9.373,4.988-12.643,6.61c-1.636.811-2.965,1.454-3.893,1.881l-1.071.484a1.47,1.47,0,0,1-.385.143,1.539,1.539,0,0,1,.349-.219l1.037-.553,3.831-2c3.234-1.689,7.676-4.073,12.581-6.716s9.37-4.987,12.641-6.608c1.636-.812,2.965-1.456,3.893-1.882l1.071-.484a1.507,1.507,0,0,1,.386-.143" transform="translate(18.1 27.513)" fill="#e1e1e1"/>
            <path id="Trazado_212927" data-name="Trazado 212927" d="M84.469,138.757s-8.826,1.226-3.871,20.557,9.159,29.294,9.159,29.294.665,4.379-2.865,4.244-10.726-3-13.167.807c-2.533,3.951-.319,8.71,5.218,13.692s17.264,16.342,18.321,17.373c1.037,1.013,1.823,3.157-.6,3.45s-19.6-1.723-20.069,6.486,17.234,19.555,19.146,20.832,2.213,2.277,1.784,3.387-6.14-.112-11.049-.485-10.669.054-10.542,4.814,9.421,16.785,36.54,25.728l12.837,3.321,9.491-9.344c19.09-21.237,21.179-36.292,18.925-40.485s-7.466-1.7-11.542,1.062-8.424,6.662-9.347,5.912-1.159-1.768-.135-3.827,10.749-20.7,6.263-27.592-18.394,3.4-20.639,4.345-2.628-1.305-2.232-2.7c.405-1.42,4.938-17.106,7.266-24.181s1.884-12.3-2.276-14.474c-4.011-2.092-8.832,3.972-11.827,5.842s-4.595-2.259-4.595-2.259-1.3-10.734-6.609-29.972-13.767-15.791-13.767-15.791" transform="translate(7.77 14.811)" fill="#fccc10"/>
            <path id="Trazado_212928" data-name="Trazado 212928" d="M123.74,293.757c-3.841-14.144-10.245-39.4-15.857-61.05s-10.707-41.236-14.476-55.4c-1.888-7.066-3.418-12.791-4.481-16.766-.524-1.968-.932-3.5-1.215-4.56-.131-.51-.232-.905-.305-1.189-.066-.268-.091-.408-.091-.408s.051.133.132.4q.123.422.345,1.178c.3,1.055.733,2.581,1.29,4.539,1.116,3.944,2.69,9.662,4.608,16.734,3.841,14.144,8.983,33.726,14.592,55.372s11.971,46.916,15.74,61.078" transform="translate(9.334 16.504)" fill="#fff"/>
            <path id="Trazado_212929" data-name="Trazado 212929" d="M82.574,192.325a4.308,4.308,0,0,1,.846.454c.531.312,1.286.787,2.214,1.381,1.852,1.194,4.368,2.908,7.11,4.849l7,4.994,2.13,1.5a4.352,4.352,0,0,1,.763.582,4.251,4.251,0,0,1-.849-.447c-.531-.314-1.286-.789-2.208-1.395-1.841-1.212-4.334-2.958-7.074-4.9L85.471,194.4l-2.139-1.49a4.257,4.257,0,0,1-.758-.588" transform="translate(8.827 20.559)" fill="#fff"/>
            <path id="Trazado_212930" data-name="Trazado 212930" d="M101.666,206.473c-.1-.062,3.209-5.4,7.38-11.932s7.632-11.772,7.728-11.711-3.209,5.4-7.381,11.933-7.631,11.771-7.727,11.71" transform="translate(10.868 19.545)" fill="#fff"/>
            <path id="Trazado_212931" data-name="Trazado 212931" d="M108.1,236.226a4.473,4.473,0,0,1,.7-.681l2-1.752c1.688-1.481,4.011-3.538,6.491-5.9s4.661-4.569,6.224-6.183l1.852-1.909a4.5,4.5,0,0,1,.715-.67,4.442,4.442,0,0,1-.6.777c-.4.483-1,1.169-1.759,2-1.51,1.668-3.658,3.918-6.152,6.283s-4.847,4.4-6.586,5.823c-.873.71-1.586,1.276-2.09,1.654a4.493,4.493,0,0,1-.806.557" transform="translate(11.555 23.425)" fill="#fff"/>
            <path id="Trazado_212932" data-name="Trazado 212932" d="M88.464,227.645a3.887,3.887,0,0,1,.88.214l2.351.727c1.978.631,4.7,1.529,7.705,2.546s5.712,1.959,7.667,2.66c.909.337,1.68.62,2.308.851a3.914,3.914,0,0,1,.829.365,3.747,3.747,0,0,1-.88-.213l-2.351-.727c-1.979-.631-4.7-1.53-7.706-2.547s-5.712-1.958-7.666-2.66l-2.309-.851a3.849,3.849,0,0,1-.828-.365" transform="translate(9.457 24.335)" fill="#fff"/>
            <path id="Trazado_212933" data-name="Trazado 212933" d="M90.732,255.191a6.255,6.255,0,0,1,1.124.284l3.015.92c2.541.795,6.043,1.919,9.9,3.186s7.348,2.435,9.866,3.3l2.974,1.045a6.176,6.176,0,0,1,1.074.437,6.252,6.252,0,0,1-1.124-.284l-3.015-.921c-2.541-.794-6.043-1.918-9.9-3.186s-7.345-2.434-9.864-3.3l-2.974-1.045a6.245,6.245,0,0,1-1.074-.436" transform="translate(9.699 27.28)" fill="#fff"/>
            <path id="Trazado_212934" data-name="Trazado 212934" d="M115.438,265.262a7.184,7.184,0,0,1,.87-.884l2.46-2.313c2.073-1.955,4.928-4.667,7.993-7.748s5.778-5.937,7.723-8.022l2.306-2.466a7.221,7.221,0,0,1,.88-.873,7.032,7.032,0,0,1-.76.98c-.51.614-1.262,1.49-2.211,2.556-1.892,2.136-4.569,5.033-7.645,8.116s-5.962,5.77-8.088,7.673c-1.066.949-1.936,1.707-2.549,2.218a7.256,7.256,0,0,1-.977.765" transform="translate(12.34 25.972)" fill="#fff"/>
            <path id="Trazado_212935" data-name="Trazado 212935" d="M51.41,37.314l-7.249-2.261s-1.9,6.087-8.259,4.222a6.143,6.143,0,0,1-4.513-5.516,6.8,6.8,0,0,1,2.348-5.71c1.862-1.644,5.132-2.645,9.748-.261l5.1-16.346L41.417,9.205,38.431,18.78S27.565,18.242,24.11,29.322c-3.307,10.6,5.43,16.029,9.5,17.3,3.111.971,13.947,3.525,17.8-9.307" transform="translate(2.499 0.984)" fill="#fff"/>
            <rect id="Rectángulo_44857" data-name="Rectángulo 44857" width="7.118" height="7.62" transform="matrix(0.298, -0.955, 0.955, 0.298, 44.88, 6.795)" fill="#fff"/>
            <path id="Trazado_212936" data-name="Trazado 212936" d="M66.807,18.607l2.9-.766a2.551,2.551,0,0,1,1.878-3.149,2.429,2.429,0,0,1,2.67.9A2.69,2.69,0,0,1,74.672,18c-.278.942-1.162,1.964-3.21,2.135l1.727,6.546,2.87-.757-1.012-3.834a5.8,5.8,0,0,0,2.581-6.54c-1.119-4.245-5.187-4.227-6.816-3.8-1.246.329-5.412,1.75-4.006,6.857" transform="translate(7.111 1.236)" fill="#fccc10"/>
            <rect id="Rectángulo_44858" data-name="Rectángulo 44858" width="3.013" height="2.814" transform="translate(80.648 29.265) rotate(-14.771)" fill="#fccc10"/>
            <path id="Trazado_212937" data-name="Trazado 212937" d="M283.419,86.218l2.823,1.023a2.553,2.553,0,0,1,3.337-1.521,2.429,2.429,0,0,1,1.684,2.259,2.69,2.69,0,0,1-1.029,2.214c-.765.617-2.073.953-3.854-.071l-2.306,6.365,2.79,1.012,1.352-3.729a5.8,5.8,0,0,0,5.843-3.907c1.5-4.128-1.858-6.428-3.444-7-1.211-.438-5.445-1.64-7.2,3.358" transform="translate(30.298 8.81)" fill="#fccc10"/>
            <rect id="Rectángulo_44859" data-name="Rectángulo 44859" width="2.814" height="3.013" transform="translate(312.93 109.25) rotate(-70.087)" fill="#fccc10"/>
            <path id="Trazado_212938" data-name="Trazado 212938" d="M12.879,116.634l5.974-2.3s-1.932-5.016,3.247-7.114a5.179,5.179,0,0,1,5.87,1.282,5.735,5.735,0,0,1,1.438,5c-.37,2.061-2,4.435-6.3,5.277l5.189,13.471,5.908-2.276-3.041-7.891A12.361,12.361,0,0,0,35.1,107.62c-3.365-8.736-11.981-7.747-15.335-6.455-2.564.988-11.061,4.974-6.888,15.47" transform="translate(1.255 10.724)" fill="#fff"/>
            <rect id="Rectángulo_44860" data-name="Rectángulo 44860" width="6.425" height="6.001" transform="translate(30.6 145.756) rotate(-21.074)" fill="#fff"/>
            <path id="Trazado_212939" data-name="Trazado 212939" d="M287.1,136.6l-4.234,1.63a3.856,3.856,0,0,1-2.3,5.042,3.671,3.671,0,0,1-4.16-.909,4.065,4.065,0,0,1-1.019-3.544c.262-1.461,1.421-3.144,4.469-3.74l-3.678-9.545-4.186,1.613,2.154,5.591a8.762,8.762,0,0,0-2.794,10.25c2.385,6.191,8.491,5.49,10.868,4.575,1.818-.7,7.839-3.524,4.881-10.963" transform="translate(28.936 13.42)" fill="#fff"/>
            <rect id="Rectángulo_44861" data-name="Rectángulo 44861" width="4.553" height="4.252" transform="matrix(0.933, -0.36, 0.36, 0.933, 298.594, 134.654)" fill="#fff"/>
            <path id="Trazado_212940" data-name="Trazado 212940" d="M328,283.957c0,.107-73.431.194-163.993.194C73.415,284.15,0,284.064,0,283.957s73.415-.194,164.007-.194c90.562,0,163.993.086,163.993.194" transform="translate(0 30.334)" fill="#1a2e35"/>
            <path id="Trazado_212941" data-name="Trazado 212941" d="M45.313,271.812c.705-2.732-1.086-5.475-3.094-7.456s-4.409-3.758-5.454-6.379c-1.692-4.246.583-9.743-2.306-13.286-1.7-2.083-4.745-2.781-6.253-5.007a11.366,11.366,0,0,1-1.357-3.979A40.428,40.428,0,0,0,16.8,216.9a35.073,35.073,0,0,0,3.943,18.125c1.17,2.227,2.607,4.4,2.994,6.884.629,4.037-1.624,8.194-.632,12.157,1.133,4.533,6.225,7.567,6.467,12.232.2,3.945-3.234,7.407-2.978,11.349a10.638,10.638,0,0,0,1.754,4.678c3.051,5.07,7.53,8.562,14.322,8.449l8.317.291Z" transform="translate(1.79 23.187)" fill="#f47409"/>
            <g id="Grupo_148874" data-name="Grupo 148874" transform="translate(18.537 240.086)" opacity="0.3">
              <g id="Grupo_148873" data-name="Grupo 148873">
                <g id="Grupo_148872" data-name="Grupo 148872" clip-path="url(#clip-path-3)">
                  <path id="Trazado_212942" data-name="Trazado 212942" d="M45.313,271.812c.705-2.732-1.086-5.475-3.094-7.456s-4.409-3.758-5.454-6.379c-1.692-4.246.583-9.743-2.306-13.286-1.7-2.083-4.745-2.781-6.253-5.007a11.366,11.366,0,0,1-1.357-3.979A40.428,40.428,0,0,0,16.8,216.9a35.073,35.073,0,0,0,3.943,18.125c1.17,2.227,2.607,4.4,2.994,6.884.629,4.037-1.624,8.194-.632,12.157,1.133,4.533,6.225,7.567,6.467,12.232.2,3.945-3.234,7.407-2.978,11.349a10.638,10.638,0,0,0,1.754,4.678c3.051,5.07,7.53,8.562,14.322,8.449l8.317.291Z" transform="translate(-16.747 -216.9)"/>
                </g>
              </g>
            </g>
            <path id="Trazado_212943" data-name="Trazado 212943" d="M49.609,294.043a6.626,6.626,0,0,0,2.29-.05,13.905,13.905,0,0,0,2.7-.68,11.48,11.48,0,0,0,3.338-1.829,4.665,4.665,0,0,0,1.374-1.83,8.624,8.624,0,0,0,.391-2.486,23.892,23.892,0,0,1,.195-2.69,7.4,7.4,0,0,1,1.016-2.675c.981-1.723,2.609-3.354,3.135-5.693.57-2.3.162-4.791-.226-7.291s-.76-5.216.195-7.815c.892-2.6,2.716-4.95,3.627-7.882.909-2.962.485-6.148.677-9.29a12.317,12.317,0,0,1,1.084-4.619c.673-1.472,1.606-2.86,2.336-4.411,1.477-3.134,1.737-6.685,2.141-10.166q.3-2.63.6-5.314a25.992,25.992,0,0,1,.924-5.32,46.678,46.678,0,0,1,1.99-5.148,17.069,17.069,0,0,0,.965-2.689,27.008,27.008,0,0,0,.268-2.86,33.572,33.572,0,0,0-.221-5.758c-.226-1.919-.572-3.823-.778-5.747-.013-.113-.025-.227-.038-.331l-.043-.383-.341.17a12.844,12.844,0,0,0-4.477,3.779,20.354,20.354,0,0,0-2.751,5.07c-1.39,3.574-1.891,7.319-2.59,10.893a29.6,29.6,0,0,1-3.418,10.06c-.912,1.482-2.015,2.834-2.98,4.279a11.771,11.771,0,0,0-2.064,4.741c-.491,3.519,1.447,6.609,1.044,9.725a10.8,10.8,0,0,1-1.518,4.317c-.756,1.328-1.644,2.561-2.486,3.8a24.43,24.43,0,0,0-2.233,3.838,12.156,12.156,0,0,0-1.022,4.17c-.2,2.8.195,5.466-.01,7.979a18.361,18.361,0,0,1-2.053,6.836c-1.006,2.047-2.125,3.9-3.063,5.692a29.212,29.212,0,0,0-1.261,2.651,13.017,13.017,0,0,0-.731,2.629,16.634,16.634,0,0,0-.061,4.749,11.962,11.962,0,0,0,2.38,6.054,5.7,5.7,0,0,0,.673.729,3.351,3.351,0,0,0,.546.464c.31.228.476.333.476.333A10.536,10.536,0,0,1,48,292.45a12.031,12.031,0,0,1-2.258-6.014,16.5,16.5,0,0,1,.106-4.679,12.832,12.832,0,0,1,.735-2.568c.354-.858.794-1.729,1.269-2.616.945-1.779,2.077-3.622,3.1-5.681a18.659,18.659,0,0,0,2.125-6.957c.218-2.566-.168-5.237.044-7.975a11.73,11.73,0,0,1,1-4.03,24.022,24.022,0,0,1,2.207-3.761c.841-1.23,1.74-2.467,2.516-3.824a11.233,11.233,0,0,0,1.587-4.493c.4-3.32-1.523-6.43-1.023-9.7a11.286,11.286,0,0,1,1.995-4.535c.95-1.418,2.058-2.772,3-4.29A30.052,30.052,0,0,0,67.9,211.1c.706-3.6,1.208-7.3,2.572-10.8a19.88,19.88,0,0,1,2.679-4.937,12.333,12.333,0,0,1,4.289-3.623l-.383-.213c.011.106.024.22.038.335.209,1.947.556,3.854.779,5.751a33.013,33.013,0,0,1,.22,5.67,27.193,27.193,0,0,1-.255,2.775,16.785,16.785,0,0,1-.934,2.593,47.246,47.246,0,0,0-2,5.2,26.463,26.463,0,0,0-.936,5.407q-.3,2.686-.59,5.32c-.4,3.494-.659,6.989-2.08,10.014-.7,1.506-1.635,2.9-2.328,4.419a12.809,12.809,0,0,0-1.115,4.79c-.182,3.21.237,6.348-.632,9.192s-2.676,5.191-3.593,7.876c-.982,2.712-.576,5.52-.178,8.007.4,2.5.8,4.942.269,7.154-.48,2.234-2.062,3.85-3.064,5.622a7.715,7.715,0,0,0-1.032,2.782,24.41,24.41,0,0,0-.175,2.723,8.447,8.447,0,0,1-.354,2.417,4.461,4.461,0,0,1-1.291,1.751,11.39,11.39,0,0,1-3.259,1.837,14.344,14.344,0,0,1-2.664.723,10.666,10.666,0,0,1-1.692.164c-.382-.014-.581-.008-.581-.008" transform="translate(4.853 20.427)" fill="#1a2e35"/>
            <path id="Trazado_212944" data-name="Trazado 212944" d="M75.484,195.57a.959.959,0,0,0-.081.251c-.049.2-.108.445-.184.749-.163.654-.359,1.644-.672,2.88s-1.081,2.626-1.727,4.343a62.227,62.227,0,0,0-1.977,5.9c-.634,2.217-1.2,4.681-1.784,7.32a30.841,30.841,0,0,1-2.663,8.124c-.682,1.352-1.45,2.719-2.059,4.215a19.6,19.6,0,0,0-1.2,4.773,96.744,96.744,0,0,1-1.793,10.063l-4.7,19.221c-1.482,5.891-2.817,11.2-3.942,15.676-1.1,4.434-1.986,8.038-2.613,10.579q-.433,1.83-.684,2.884c-.066.305-.121.552-.164.753a.99.99,0,0,0-.039.261.947.947,0,0,0,.091-.247c.058-.2.128-.441.217-.741.189-.694.451-1.649.781-2.858.666-2.531,1.613-6.12,2.776-10.538,1.158-4.467,2.53-9.766,4.053-15.647l4.747-19.226a95.1,95.1,0,0,0,1.79-10.1,19.216,19.216,0,0,1,1.152-4.658c.588-1.458,1.344-2.818,2.026-4.184a30.991,30.991,0,0,0,2.655-8.249c.57-2.645,1.108-5.1,1.717-7.316s1.251-4.187,1.892-5.894c.612-1.712,1.342-3.124,1.648-4.4.288-1.266.447-2.245.578-2.912.053-.309.1-.558.131-.76a.956.956,0,0,0,.028-.262" transform="translate(5.259 20.906)" fill="#1a2e35"/>
            <path id="Trazado_212945" data-name="Trazado 212945" d="M53.43,296.613c5.433-3.23,6.992-13.033,4.726-18.932S51.923,266.39,51.312,260.1c-.47-4.836,1.112-9.8-.013-14.525-1.52-6.379-7.747-11.319-7.675-17.876.04-3.679,2.133-7.141,1.966-10.816-.2-4.508-3.664-8.085-5.807-12.056-3.281-6.079-3.5-13.265-4.618-20.081s-3.719-14.114-9.76-17.465c-.892,5.787-2.415,9.75-1.937,17.589.172,2.816,3.442,8.2,3.887,14.374.266,3.688.451,7.382.675,11.072.219,3.591.452,7.248,1.739,10.607.986,2.575,2.571,4.914,3.3,7.572,1.378,5-.433,10.417.681,15.483.942,4.293,3.913,7.987,4.519,12.34.853,6.116-3.1,12.47-1.079,18.3,1.006,2.895,3.387,5.218,4.062,8.208.525,2.319-.046,4.774.428,7.1.765,3.752,7.923,6.668,11.746,6.436" transform="translate(2.499 17.882)" fill="#f47409"/>
            <path id="Trazado_212946" data-name="Trazado 212946" d="M26.562,172.469a1.511,1.511,0,0,0,.023.327c.032.243.072.557.123.951.125.836.265,2.063.547,3.649.3,1.6,1.126,3.393,1.783,5.559.693,2.158,1.383,4.65,1.992,7.439s1.139,5.873,1.684,9.194A38.527,38.527,0,0,0,35.5,209.983c.762,1.737,1.617,3.476,2.258,5.328a23.877,23.877,0,0,1,1.147,5.871A118.574,118.574,0,0,0,40.5,233.838c1.665,8.574,3.25,16.74,4.692,24.173,1.521,7.4,2.89,14.074,4.044,19.69,1.164,5.574,2.11,10.1,2.772,13.265l.78,3.6L53,295.5a1.521,1.521,0,0,0,.092.314,1.555,1.555,0,0,0-.038-.325c-.042-.241-.1-.552-.165-.944-.162-.863-.391-2.077-.682-3.621-.622-3.176-1.51-7.711-2.6-13.3-1.121-5.621-2.453-12.3-3.932-19.712-1.429-7.431-3-15.6-4.648-24.166a120.081,120.081,0,0,1-1.6-12.615,24.347,24.347,0,0,0-1.185-5.988c-.661-1.892-1.528-3.637-2.29-5.36a38.362,38.362,0,0,1-2.8-10.27c-.562-3.315-1.1-6.409-1.751-9.2s-1.354-5.291-2.077-7.449c-.691-2.174-1.539-3.955-1.864-5.51-.31-1.557-.486-2.8-.644-3.622-.072-.391-.13-.7-.175-.942a1.5,1.5,0,0,0-.077-.319" transform="translate(2.839 18.437)" fill="#1a2e35"/>
            <path id="Trazado_212947" data-name="Trazado 212947" d="M264.309,33.171h-2.958a2.513,2.513,0,0,1-2.58,2.527,2.393,2.393,0,0,1-2.317-1.526,2.65,2.65,0,0,1,.21-2.4c.5-.827,1.6-1.578,3.594-1.228V23.881h-2.924v3.906a5.709,5.709,0,0,0-4.1,5.579c0,4.325,3.877,5.329,5.538,5.329,1.27,0,5.593-.307,5.538-5.523" transform="translate(27.071 2.553)" fill="#f47409"/>
            <rect id="Rectángulo_44863" data-name="Rectángulo 44863" width="2.968" height="2.772" transform="translate(284.37 22.289)" fill="#f47409"/>
            <path id="Trazado_212948" data-name="Trazado 212948" d="M282.07,30.806a2.138,2.138,0,0,0,.007-.374c-.008-.271-.019-.635-.031-1.1-.012-.241-.011-.512-.036-.81q-.063-.447-.136-.97t-.163-1.132q-.148-.6-.313-1.265a20.5,20.5,0,0,0-2.673-6.13,21.63,21.63,0,0,0-16.26-9.937,22.351,22.351,0,0,0-2.964-.06c-.5.035-1.012.024-1.516.1l-1.526.229a21.739,21.739,0,0,0-6.033,2.061A23.178,23.178,0,0,0,245,15.356a22.783,22.783,0,0,0-4.079,5.677,20.617,20.617,0,0,0-2.123,6.919,13.654,13.654,0,0,0-.157,1.845,16.622,16.622,0,0,0-.034,1.865,22.2,22.2,0,0,0,.473,3.737,21.836,21.836,0,0,0,3.13,7.439l-.023-.226-3.041,7.578-.18.448.466-.127,8.1-2.228-.2-.038a21.737,21.737,0,0,0,9.257,4.044,19.715,19.715,0,0,0,4.743.294,15.257,15.257,0,0,0,2.277-.215l1.109-.173c.364-.068.717-.178,1.073-.265a21.671,21.671,0,0,0,12.325-8.455,20.737,20.737,0,0,0,2.654-5.031c.139-.392.276-.77.405-1.133.1-.373.186-.733.273-1.076s.166-.672.243-.984c.061-.317.094-.621.137-.907.073-.572.172-1.076.194-1.518s.027-.8.038-1.114c.006-.281.011-.506.014-.68a1.041,1.041,0,0,0-.008-.23.994.994,0,0,0-.031.23c-.014.173-.032.4-.054.676-.02.308-.045.675-.074,1.107s-.145.936-.229,1.5A21.55,21.55,0,0,1,265.7,51.552c-.35.083-.7.191-1.055.256l-1.089.163a14.871,14.871,0,0,1-2.236.2,19.3,19.3,0,0,1-4.65-.308,21.335,21.335,0,0,1-9.056-3.988l-.09-.068-.111.03-8.1,2.21.286.321q1.489-3.7,3.05-7.575l.048-.118-.071-.107a21.389,21.389,0,0,1-3.057-7.273,21.664,21.664,0,0,1-.462-3.653,16.424,16.424,0,0,1,.032-1.824,13.406,13.406,0,0,1,.153-1.8,20.159,20.159,0,0,1,2.07-6.768,22.352,22.352,0,0,1,3.979-5.56,22.816,22.816,0,0,1,5.3-3.87,21.373,21.373,0,0,1,5.9-2.038l1.5-.231c.5-.073,1-.065,1.487-.1a21.1,21.1,0,0,1,12.839,3.525,21.882,21.882,0,0,1,6.137,6.2,20.635,20.635,0,0,1,2.72,6.03q.176.661.332,1.25c.065.4.127.772.184,1.119s.111.666.159.962c.032.294.04.565.059.8.034.463.06.825.08,1.095a2.1,2.1,0,0,0,.044.373" transform="translate(25.506 0.961)" fill="#1a2e35"/>
            <path id="Trazado_212949" data-name="Trazado 212949" d="M77.741,115.616h42.9s0-36.022,37.434-36.666c19.442-.335,29.521,12.4,33.617,22.156,4.756,11.329,3.316,24.241-3.055,34.747-7.277,12-22.948,24.054-51.862,18.959l-.273,95.582h42.421V193.73s59.5-15.379,59.5-80.948c0-62.734-50.731-76.286-78-77.156-15.172-.485-20.671-1.137-39.436,1.528-23.912,3.394-43.755,31.159-43.249,78.463" transform="translate(8.309 3.761)" fill="#f47409"/>
            <rect id="Rectángulo_44864" data-name="Rectángulo 44864" width="43.053" height="40.209" transform="translate(144.694 274.082)" fill="#f47409"/>
            <g id="Grupo_148877" data-name="Grupo 148877" transform="translate(144.695 274.082)" opacity="0.1">
              <g id="Grupo_148876" data-name="Grupo 148876">
                <g id="Grupo_148875" data-name="Grupo 148875" clip-path="url(#clip-path-4)">
                  <rect id="Rectángulo_44865" data-name="Rectángulo 44865" width="43.053" height="40.209" transform="translate(-0.001 0)"/>
                </g>
              </g>
            </g>
            <g id="Grupo_148880" data-name="Grupo 148880" transform="translate(86.041 38.945)" opacity="0.1">
              <g id="Grupo_148879" data-name="Grupo 148879">
                <g id="Grupo_148878" data-name="Grupo 148878" clip-path="url(#clip-path-5)">
                  <path id="Trazado_212950" data-name="Trazado 212950" d="M77.741,115.616h42.9s0-36.022,37.434-36.666c19.442-.335,29.521,12.4,33.617,22.156,4.756,11.329,3.316,24.241-3.055,34.747-7.277,12-22.948,24.054-51.862,18.959l-.273,95.582h42.421V193.73s59.5-15.379,59.5-80.948c0-62.734-50.731-76.286-78-77.156-15.172-.485-20.671-1.137-39.436,1.528-23.912,3.394-43.755,31.159-43.249,78.463" transform="translate(-77.732 -35.184)"/>
                </g>
              </g>
            </g>
            <path id="Trazado_212951" data-name="Trazado 212951" d="M61.687,115.587h42.9s0-36.022,37.434-36.666c19.442-.335,29.521,12.4,33.617,22.156,4.756,11.329,3.316,24.241-3.055,34.747-7.277,12-23.223,22.9-52.135,17.809v96.732h42.421V193.7s59.5-15.379,59.5-80.948c0-62.734-56.259-77.3-80.341-77.3-18.415,0-81.149,4.452-80.34,80.137" transform="translate(6.593 3.79)" fill="#f47409"/>
            <g id="Grupo_148883" data-name="Grupo 148883" transform="translate(68.272 39.24)" opacity="0.3">
              <g id="Grupo_148882" data-name="Grupo 148882">
                <g id="Grupo_148881" data-name="Grupo 148881" clip-path="url(#clip-path-6)">
                  <path id="Trazado_212952" data-name="Trazado 212952" d="M61.687,115.587h42.9s0-36.022,37.434-36.666c19.442-.335,29.521,12.4,33.617,22.156,4.756,11.329,3.316,24.241-3.055,34.747-7.277,12-23.223,22.9-52.135,17.809v96.732h42.421V193.7s59.5-15.379,59.5-80.948c0-62.734-56.259-77.3-80.341-77.3-18.415,0-81.149,4.452-80.34,80.137" transform="translate(-61.679 -35.45)"/>
                </g>
              </g>
            </g>
            <rect id="Rectángulo_44869" data-name="Rectángulo 44869" width="43.053" height="40.209" transform="translate(126.924 274.082)" fill="#f47409"/>
            <g id="Grupo_148886" data-name="Grupo 148886" transform="translate(126.924 274.082)" opacity="0.3">
              <g id="Grupo_148885" data-name="Grupo 148885">
                <g id="Grupo_148884" data-name="Grupo 148884" clip-path="url(#clip-path-7)">
                  <rect id="Rectángulo_44870" data-name="Rectángulo 44870" width="43.053" height="40.209" transform="translate(0 0)"/>
                </g>
              </g>
            </g>
            <path id="Trazado_212953" data-name="Trazado 212953" d="M142.748,74.945a4.086,4.086,0,0,1-.642-.039c-.42-.022-1.029-.139-1.828-.148a37.223,37.223,0,0,0-6.728.279,48.222,48.222,0,0,0-9.711,2.284,41.4,41.4,0,0,0-5.411,2.328,28.738,28.738,0,0,0-5.292,3.427,26.215,26.215,0,0,0-4.33,4.576,42.263,42.263,0,0,0-7.089,14.117,37.184,37.184,0,0,0-1.291,6.607c-.091.793-.115,1.41-.137,1.83a4.059,4.059,0,0,1-.056.64,3.847,3.847,0,0,1-.021-.641c0-.422,0-1.044.065-1.841a34.377,34.377,0,0,1,1.177-6.668,42.614,42.614,0,0,1,3.794-9.3,43.467,43.467,0,0,1,3.257-4.974,26.41,26.41,0,0,1,4.386-4.643,28.855,28.855,0,0,1,5.363-3.465,40.968,40.968,0,0,1,5.468-2.328,47.015,47.015,0,0,1,9.8-2.219,34.655,34.655,0,0,1,6.77-.157,18.315,18.315,0,0,1,1.829.221,3.891,3.891,0,0,1,.631.116" transform="translate(10.713 7.965)" fill="#1a2e35"/>
            <path id="Trazado_212954" data-name="Trazado 212954" d="M204.033,71.46a.951.951,0,0,1-.139-.169l-.375-.516-1.412-2c-.309-.433-.632-.93-1.022-1.445L199.745,65.7l-1.536-1.87c-.559-.648-1.21-1.28-1.86-1.972-.666-.677-1.327-1.423-2.082-2.135l-2.4-2.17c-.418-.37-.827-.766-1.272-1.132l-1.383-1.089c-.943-.726-1.88-1.519-2.9-2.249a92.876,92.876,0,0,0-14.058-8.3l-3.914-1.771-3.89-1.509c-1.264-.525-2.557-.9-3.807-1.309-1.256-.391-2.466-.842-3.692-1.128l-3.553-.933c-1.151-.306-2.3-.486-3.387-.725-1.1-.2-2.147-.478-3.178-.607l-2.953-.427c-1.877-.321-3.6-.385-5.1-.537-.753-.059-1.452-.139-2.1-.169l-1.77-.048-2.451-.08-.638-.03a.936.936,0,0,1-.218-.023.919.919,0,0,1,.217-.017l.639-.008,2.454.007,1.774.013c.649.02,1.35.09,2.106.138,1.509.132,3.239.177,5.123.482l2.968.4c1.035.122,2.088.387,3.191.587,1.1.232,2.247.407,3.4.708l3.571.921c1.231.282,2.446.731,3.708,1.119,1.256.411,2.555.781,3.825,1.306l3.907,1.51,3.931,1.775a91.384,91.384,0,0,1,14.1,8.364c1.023.738,1.96,1.539,2.9,2.272l1.383,1.1c.445.372.853.772,1.271,1.146l2.394,2.195c.752.721,1.41,1.475,2.072,2.163.646.7,1.293,1.342,1.847,2l1.519,1.9,1.318,1.65c.383.524.7,1.027,1,1.468l1.355,2.049.343.537a.9.9,0,0,1,.106.19" transform="translate(14.069 3.791)" fill="#1a2e35"/>
            <path id="Trazado_212955" data-name="Trazado 212955" d="M197.249,151.2a2.946,2.946,0,0,1-.324.445l-.99,1.231c-.428.536-.964,1.182-1.619,1.9s-1.37,1.572-2.234,2.444c-.846.889-1.778,1.857-2.829,2.846-1.023,1.018-2.184,2.034-3.392,3.117a92.88,92.88,0,0,1-17.353,11.964c-1.442.744-2.8,1.468-4.12,2.062-1.3.631-2.535,1.158-3.666,1.632-1.122.5-2.17.868-3.078,1.219s-1.7.628-2.354.837l-1.5.487a2.866,2.866,0,0,1-.531.145,2.988,2.988,0,0,1,.507-.218l1.475-.556c.645-.231,1.43-.522,2.328-.9s1.936-.757,3.048-1.269c1.121-.489,2.348-1.028,3.635-1.67,1.305-.6,2.658-1.336,4.09-2.087,2.835-1.555,5.887-3.385,8.966-5.494,3.066-2.127,5.86-4.329,8.322-6.426,1.21-1.071,2.374-2.074,3.4-3.08,1.058-.975,2-1.928,2.854-2.8.873-.858,1.6-1.689,2.269-2.4s1.221-1.336,1.666-1.856c.434-.49.78-.884,1.044-1.182a2.969,2.969,0,0,1,.385-.4" transform="translate(16.383 16.163)" fill="#1a2e35"/>
            <path id="Trazado_212956" data-name="Trazado 212956" d="M152.439,231.713c-.107,0-.194-11.932-.194-26.648s.086-26.651.194-26.651.194,11.929.194,26.651-.087,26.648-.194,26.648" transform="translate(16.275 19.073)" fill="#1a2e35"/>
            <path id="Trazado_212957" data-name="Trazado 212957" d="M153.917,285.087c-.107,0-.194-8.374-.194-18.7s.086-18.7.194-18.7.194,8.371.194,18.7-.087,18.7-.194,18.7" transform="translate(16.433 26.478)" fill="#1a2e35"/>
            <path id="Trazado_212958" data-name="Trazado 212958" d="M192.064,103.451c-.749,1.5,2.027,2.7,3.627,3.186a20.235,20.235,0,0,0,11.414-1.083,10.227,10.227,0,0,0,3.877-4.349,30.486,30.486,0,0,0,1.968-5.562s-17.551,1.149-20.887,7.808" transform="translate(20.518 10.224)" fill="#f47409"/>
            <g id="Grupo_148889" data-name="Grupo 148889" transform="translate(212.456 105.867)" opacity="0.4">
              <g id="Grupo_148888" data-name="Grupo 148888">
                <g id="Grupo_148887" data-name="Grupo 148887" clip-path="url(#clip-path-8)">
                  <path id="Trazado_212959" data-name="Trazado 212959" d="M192.064,103.451c-.749,1.5,2.027,2.7,3.627,3.186a20.235,20.235,0,0,0,11.414-1.083,10.227,10.227,0,0,0,3.877-4.349,30.486,30.486,0,0,0,1.968-5.562s-17.551,1.149-20.887,7.808" transform="translate(-191.938 -95.643)"/>
                </g>
              </g>
            </g>
            <path id="Trazado_212960" data-name="Trazado 212960" d="M236.955,98.9a16.828,16.828,0,0,0,9.907,3.11,7.029,7.029,0,0,0,4.718-1.483c.572-.524,1-1.193,1.59-1.7.4-.342.869-.6,1.245-.97a1.592,1.592,0,0,0,.547-1.409,2.931,2.931,0,0,0-1.026-1.64c-2.016-1.145-4.421-1.1-6.738-1.049a23.081,23.081,0,0,0-6.8,1.333c-1.8.6-3.68,1.457-4.591,3.119" transform="translate(25.208 10.021)" fill="#f47409"/>
            <g id="Grupo_148892" data-name="Grupo 148892" transform="translate(261.018 103.77)" opacity="0.4">
              <g id="Grupo_148891" data-name="Grupo 148891">
                <g id="Grupo_148890" data-name="Grupo 148890" clip-path="url(#clip-path-9)">
                  <path id="Trazado_212961" data-name="Trazado 212961" d="M254.961,96.448a3.117,3.117,0,0,0-1.317-1.493,11.867,11.867,0,0,0-6.447-1.2,23.081,23.081,0,0,0-6.8,1.333c-1.8.6-3.68,1.458-4.591,3.119l1.146.686a16.82,16.82,0,0,0,9.907,3.11,7.025,7.025,0,0,0,4.718-1.483c.572-.524,1-1.192,1.59-1.7.4-.342.869-.6,1.245-.97a1.59,1.59,0,0,0,.547-1.409" transform="translate(-235.81 -93.748)"/>
                </g>
              </g>
            </g>
            <path id="Trazado_212962" data-name="Trazado 212962" d="M207.7,128.747l37.031.485a.475.475,0,0,0,.458-.621l-4.342-13.55s.639-6.771,1.524-14.919c1.342-12.364,3.128-27.912,3.151-27.87-2.529-7.1-17.475-8.308-17.475-8.308l-17.034,1.013-.6-1-4.9,2.279a22.956,22.956,0,0,0-3.076,1.735c-3.234,2.167-11.039,7.132-12.461,12.672-3.287,12.808,2.281,27.108,2.281,27.108l3.577-2.795a24.822,24.822,0,0,1,2.837-1.9l7.176,19.228a3.392,3.392,0,0,0-1.556,2.468,3.821,3.821,0,0,0,3.409,3.97" transform="translate(20.198 6.838)" fill="#f47409"/>
            <g id="Grupo_148895" data-name="Grupo 148895" transform="translate(238.944 93.717)" opacity="0.3">
              <g id="Grupo_148894" data-name="Grupo 148894">
                <g id="Grupo_148893" data-name="Grupo 148893" clip-path="url(#clip-path-10)">
                  <path id="Trazado_212963" data-name="Trazado 212963" d="M220.7,103.861c1.174-6.313.553-12.8-.071-19.195-2.057,5.228-1.981,11.12-4.158,16.3a6.985,6.985,0,0,0-.579,1.716,1.915,1.915,0,0,0,.495,1.675c.591.541,1.473.249,2.268.154a8.664,8.664,0,0,0,2.044-.65" transform="translate(-215.868 -84.666)"/>
                </g>
              </g>
            </g>
            <g id="Grupo_148898" data-name="Grupo 148898" transform="translate(229.636 122.828)" opacity="0.4">
              <g id="Grupo_148897" data-name="Grupo 148897">
                <g id="Grupo_148896" data-name="Grupo 148896" clip-path="url(#clip-path-11)">
                  <path id="Trazado_212964" data-name="Trazado 212964" d="M207.957,115.664c2.99,1.036,6.133-.887,9.28-1.228a23.348,23.348,0,0,1,6.222.586,46.552,46.552,0,0,0,12.63.31,4.837,4.837,0,0,0,1.858-.48,2.241,2.241,0,0,0,.971-1.843c-6.993-.718-13.988-1.146-20.981-1.864a13.2,13.2,0,0,0-5.246.167c-2.114.655-3.742,2.316-5.232,3.952" transform="translate(-207.459 -110.966)"/>
                </g>
              </g>
            </g>
            <path id="Trazado_212965" data-name="Trazado 212965" d="M254.265,96.454c-3.027-6.807-13.687-25.647-13.687-25.647l-8.256,10.351,1.927,20.317s4.359-4.866,16.548-4.963a5.971,5.971,0,0,1,4.536,2.39Z" transform="translate(24.835 7.569)" fill="#f47409"/>
            <path id="Trazado_212966" data-name="Trazado 212966" d="M207.606,91.6a28.161,28.161,0,0,1-1.391-4.443,28.168,28.168,0,0,1-1.017-4.544,28.152,28.152,0,0,1,1.391,4.443,28.139,28.139,0,0,1,1.017,4.544" transform="translate(21.934 8.831)" fill="#1a2e35"/>
            <path id="Trazado_212967" data-name="Trazado 212967" d="M231.759,78.913a4.923,4.923,0,0,1,.764.649,20.78,20.78,0,0,1,1.84,2.022A19.5,19.5,0,0,1,238.3,89.65a15.106,15.106,0,0,1,.237,4.976c-.191,1.521-.483,2.857-.67,3.988s-.312,2.049-.371,2.686a6.784,6.784,0,0,1-.1.993,3.95,3.95,0,0,1-.046-1,23.659,23.659,0,0,1,.251-2.72c.153-1.141.416-2.489.586-3.987a15.3,15.3,0,0,0-.261-4.854,20.412,20.412,0,0,0-3.78-7.98c-1.373-1.831-2.443-2.782-2.386-2.838" transform="translate(24.775 8.436)" fill="#1a2e35"/>
            <path id="Trazado_212968" data-name="Trazado 212968" d="M226.8,121.61a3.471,3.471,0,0,1-.806.235,7.808,7.808,0,0,1-.967.187,13.029,13.029,0,0,1-1.3.158,19.247,19.247,0,0,1-3.4-.019,20.218,20.218,0,0,1-7.92-2.46A19.161,19.161,0,0,1,209.6,117.8c-.386-.292-.7-.6-.98-.863a7.68,7.68,0,0,1-.69-.7,3.51,3.51,0,0,1-.532-.65c.056-.053.853.839,2.371,2a21.382,21.382,0,0,0,2.815,1.813,21.373,21.373,0,0,0,7.786,2.416,21.189,21.189,0,0,0,3.346.1c1.909-.1,3.072-.382,3.087-.307" transform="translate(22.171 12.356)" fill="#1a2e35"/>
            <path id="Trazado_212969" data-name="Trazado 212969" d="M235.487,117.2a2.626,2.626,0,0,1,.286,1.084,6.686,6.686,0,0,1-.2,2.707,4.726,4.726,0,0,1-1.456,2.3,2.046,2.046,0,0,1-.978.557c-.033-.055.329-.281.791-.756a5.264,5.264,0,0,0,1.272-2.212,14.473,14.473,0,0,0,.284-3.682" transform="translate(24.922 12.529)" fill="#1a2e35"/>
            <path id="Trazado_212970" data-name="Trazado 212970" d="M233.6,119.565a4.037,4.037,0,0,1-1.591,4.1c-.082-.081.611-.819,1.042-1.955.447-1.128.434-2.141.549-2.145" transform="translate(24.801 12.782)" fill="#1a2e35"/>
            <path id="Trazado_212971" data-name="Trazado 212971" d="M227.7,97.483a15.15,15.15,0,0,1-1.321,1.9,15.138,15.138,0,0,1-1.3,1.916,6.892,6.892,0,0,1,2.62-3.818" transform="translate(24.06 10.42)" fill="#1a2e35"/>
            <path id="Trazado_212972" data-name="Trazado 212972" d="M205.685,81.681a18.876,18.876,0,0,1-1.643-1.088,21.123,21.123,0,0,0-8.772-3.275,18.14,18.14,0,0,1-1.954-.255,6.873,6.873,0,0,1,1.984-.017,17.755,17.755,0,0,1,8.9,3.322,6.883,6.883,0,0,1,1.487,1.313" transform="translate(20.666 8.231)" fill="#1a2e35"/>
            <path id="Trazado_212973" data-name="Trazado 212973" d="M240.421,70.584a32.222,32.222,0,0,0-3.753,3.512,32.164,32.164,0,0,0-2.82,4.3,4.574,4.574,0,0,1,.517-1.441,14.736,14.736,0,0,1,4.725-5.612,4.572,4.572,0,0,1,1.332-.756" transform="translate(24.998 7.545)" fill="#1a2e35"/>
            <path id="Trazado_212974" data-name="Trazado 212974" d="M228.043,65.054a1.4,1.4,0,0,1,.167.343,6.428,6.428,0,0,1,.346,1.042,8.827,8.827,0,0,1-.014,4.024,9.881,9.881,0,0,1-3.031,5.119,10.273,10.273,0,0,1-6.834,2.434,11.564,11.564,0,0,1-6.9-2.306,13.21,13.21,0,0,1-3.8-4.6,14.054,14.054,0,0,1-1.265-3.823,9.92,9.92,0,0,1-.133-1.087,1.435,1.435,0,0,1-.008-.382c.04,0,.085.519.289,1.439a15.209,15.209,0,0,0,1.36,3.728,13.215,13.215,0,0,0,3.767,4.441,11.341,11.341,0,0,0,6.689,2.206,10.015,10.015,0,0,0,6.6-2.317,9.752,9.752,0,0,0,3-4.915,9.121,9.121,0,0,0,.133-3.927c-.184-.921-.412-1.4-.366-1.417" transform="translate(22.082 6.954)" fill="#1a2e35"/>
            <g id="Grupo_148901" data-name="Grupo 148901" transform="translate(249.146 108.149)" opacity="0.3">
              <g id="Grupo_148900" data-name="Grupo 148900">
                <g id="Grupo_148899" data-name="Grupo 148899" clip-path="url(#clip-path-12)">
                  <path id="Trazado_212975" data-name="Trazado 212975" d="M228.662,98.775c-.011-.372-.06-.808-.382-.994a.734.734,0,0,0-.673.011,1.9,1.9,0,0,0-.538.444,9.116,9.116,0,0,0-1.986,3.172l3.643-.314c-.024-.768-.041-1.551-.064-2.319" transform="translate(-225.084 -97.704)"/>
                </g>
              </g>
            </g>
            <g id="Grupo_148904" data-name="Grupo 148904" transform="translate(262.172 95.917)" opacity="0.3">
              <g id="Grupo_148903" data-name="Grupo 148903">
                <g id="Grupo_148902" data-name="Grupo 148902" clip-path="url(#clip-path-13)">
                  <path id="Trazado_212976" data-name="Trazado 212976" d="M239.492,92.3a11.917,11.917,0,0,0-2.64-5.642,18.611,18.611,0,0,1,.162,11.562l.19-.493c1.012-2.057,2.567-3.344,2.288-5.427" transform="translate(-236.852 -86.654)"/>
                </g>
              </g>
            </g>
            <path id="Trazado_212977" data-name="Trazado 212977" d="M234.5,247.9l-2.222,33.32-14.486-.17-2.281-34.64Z" transform="translate(23.038 26.341)" fill="#ffc19d"/>
            <path id="Trazado_212978" data-name="Trazado 212978" d="M232.57,273.93l0,.964s16.328,6.572,16.5,9.671l-32.432-.19.5-10.79a18.555,18.555,0,0,0,15.425.345" transform="translate(23.159 29.246)" fill="#f47409"/>
            <path id="Trazado_212979" data-name="Trazado 212979" d="M220.138,276.725a1.324,1.324,0,0,0-.924,1.507,1.274,1.274,0,0,0,1.484.93,1.4,1.4,0,0,0,.971-1.6,1.321,1.321,0,0,0-1.652-.8" transform="translate(23.431 29.576)" fill="#fff"/>
            <path id="Trazado_212980" data-name="Trazado 212980" d="M216.641,283.584l.122-2.6,31.04,1.133s1.44.636,1.271,1.653Z" transform="translate(23.159 30.038)" fill="#1a2e35"/>
            <path id="Trazado_212981" data-name="Trazado 212981" d="M231.423,274.864c-.007.158-.8.226-1.581.731-.8.484-1.2,1.168-1.346,1.1-.146-.031.1-.976,1.054-1.571s1.908-.408,1.873-.263" transform="translate(24.422 29.367)" fill="#1a2e35"/>
            <path id="Trazado_212982" data-name="Trazado 212982" d="M234.412,276.145c.035.154-.652.42-1.194,1.086-.561.651-.7,1.374-.859,1.366-.148.024-.252-.9.437-1.72s1.614-.883,1.616-.732" transform="translate(24.828 29.513)" fill="#1a2e35"/>
            <path id="Trazado_212983" data-name="Trazado 212983" d="M235.945,280.09c-.144.033-.36-.759.052-1.625s1.155-1.205,1.221-1.073c.089.131-.4.593-.723,1.308-.343.707-.393,1.375-.55,1.389" transform="translate(25.203 29.65)" fill="#1a2e35"/>
            <path id="Trazado_212984" data-name="Trazado 212984" d="M233.426,28.338a5.265,5.265,0,0,0-1.986-5.933A8.624,8.624,0,0,0,225,21.14a25.589,25.589,0,0,0-6.345,2.193A7.164,7.164,0,0,0,206.5,27.3a4.552,4.552,0,0,0-5.394,5.978l10.041,3.528L222.113,56.1a8.773,8.773,0,0,0,12.911-11.665,7.528,7.528,0,0,0,1.54-1.906,7.68,7.68,0,0,0,3.549-4.752,8.115,8.115,0,0,0-6.687-9.439" transform="translate(21.47 2.245)" fill="#1a2e35"/>
            <path id="Trazado_212985" data-name="Trazado 212985" d="M226.668,67.869c-.623-3.14-1.058-5.291-1.052-5.268,0,0,5.92-2.306,5.512-10.575-.2-4.113-1.772-10.6-3.228-15.861-1.309-4.738-5.726-9.961-10.4-8.451L203.35,34.623c-1.42.458-1.669,1.793-1.334,3.249l.022.71,5.5,22.773,2.326,10.179a8.6,8.6,0,0,0,16.8-3.665" transform="translate(21.581 2.934)" fill="#ffc19d"/>
            <path id="Trazado_212986" data-name="Trazado 212986" d="M225.5,40.365a1.049,1.049,0,0,1-.773,1.243,1,1,0,0,1-1.252-.7,1.05,1.05,0,0,1,.771-1.244,1,1,0,0,1,1.253.7" transform="translate(23.887 4.236)" fill="#1a2e35"/>
            <path id="Trazado_212987" data-name="Trazado 212987" d="M225.146,38.933c-.1.16-1-.252-2.1-.018-1.107.219-1.8.959-1.946.847-.072-.048.008-.315.307-.646a2.867,2.867,0,0,1,1.523-.842,2.755,2.755,0,0,1,1.707.179c.394.19.56.407.51.48" transform="translate(23.633 4.085)" fill="#1a2e35"/>
            <path id="Trazado_212988" data-name="Trazado 212988" d="M215.791,42.591a1.049,1.049,0,0,1-.773,1.243,1,1,0,0,1-1.252-.7,1.051,1.051,0,0,1,.771-1.244,1,1,0,0,1,1.253.7" transform="translate(22.849 4.474)" fill="#1a2e35"/>
            <path id="Trazado_212989" data-name="Trazado 212989" d="M215.5,41.3c-.1.161-1-.251-2.1-.017-1.106.218-1.8.956-1.945.846-.072-.048.006-.315.307-.646a2.876,2.876,0,0,1,1.522-.843,2.766,2.766,0,0,1,1.708.18c.393.189.56.407.51.48" transform="translate(22.601 4.338)" fill="#1a2e35"/>
            <path id="Trazado_212990" data-name="Trazado 212990" d="M220.394,48.421a7.456,7.456,0,0,1,1.726-.7c.277-.087.531-.2.539-.4a1.471,1.471,0,0,0-.364-.8l-1.284-1.972a37.675,37.675,0,0,1-3.052-5.225,37.87,37.87,0,0,1,3.465,4.967c.437.7.855,1.358,1.252,1.992a1.671,1.671,0,0,1,.379,1.077.717.717,0,0,1-.377.509,1.937,1.937,0,0,1-.465.167,7.313,7.313,0,0,1-1.818.384" transform="translate(23.299 4.204)" fill="#1a2e35"/>
            <path id="Trazado_212991" data-name="Trazado 212991" d="M224.417,59.264a20.8,20.8,0,0,1-11.318-.61s3.889,5.081,11.742,2.652Z" transform="translate(22.78 6.27)" fill="#ff9c6a"/>
            <path id="Trazado_212992" data-name="Trazado 212992" d="M215.781,39.867c-.073.318-1.21.31-2.5.629-1.3.292-2.313.806-2.522.555-.094-.122.056-.431.448-.777a4.487,4.487,0,0,1,3.83-.9c.506.136.778.345.748.5" transform="translate(22.527 4.196)" fill="#1a2e35"/>
            <path id="Trazado_212993" data-name="Trazado 212993" d="M224.808,35.764c-.177.3-1.132.228-2.217.443-1.091.183-1.964.588-2.229.37-.12-.108-.028-.39.323-.712a3.565,3.565,0,0,1,1.712-.788,3.5,3.5,0,0,1,1.87.134c.437.178.617.41.541.553" transform="translate(23.551 3.743)" fill="#1a2e35"/>
            <path id="Trazado_212994" data-name="Trazado 212994" d="M206.394,29.486a5.6,5.6,0,0,0,7.586,4.069c1.177-.478,2.389-1.375,3.583-.942,1.256.454,1.65,2.123,2.816,2.776,1.666.932,3.672-.683,5.574-.524,1.469.123,2.608,1.266,3.758,2.188s2.746,1.695,4.045,1a16.505,16.505,0,0,0-1.315-3.579,5.569,5.569,0,0,0-2.721-2.574,20.526,20.526,0,0,1-1.984-.662c-1.34-.69-1.941-2.248-2.919-3.4a6.134,6.134,0,0,0-5.2-2.085c-1.608.166-3.134.975-4.75.907-1.194-.05-2.338-.581-3.533-.561-2.328.039-4.076,2.078-5.367,4.015" transform="translate(22.017 2.75)" fill="#1a2e35"/>
            <path id="Trazado_212995" data-name="Trazado 212995" d="M215.295,30.966c-1.064-.079-3.252-.3-3.972-1.062a6.268,6.268,0,0,0-5.973-1.96,5.173,5.173,0,0,0-3.729,4.95,7.435,7.435,0,0,0-5.423,5.326,8.618,8.618,0,0,0,1.855,7.8,15.472,15.472,0,0,1,1.22,1.765,12.6,12.6,0,0,0-1.323,2c-1.7,3.759,2.911,5.2,2.911,5.2.012,2.526,2.341,2.515,3.835,2.507,1.436-.007,2.32,3.977,3.482,3.822L207,49.016a1.5,1.5,0,0,0,.545.1c2.817.05,2.082-5.277,1.17-6.656a15.927,15.927,0,0,0,2.11-3.4,11.532,11.532,0,0,0,.111-5.7c.981-.144,4.828-2.367,4.361-2.4" transform="translate(20.944 2.969)" fill="#1a2e35"/>
            <path id="Trazado_212996" data-name="Trazado 212996" d="M206.763,47.731a2.385,2.385,0,0,0-3.83-1.278c-.713.638-1.138,1.708-.688,3.5,1.2,4.782,5.753,2.591,5.727,2.453-.017-.086-.7-2.7-1.209-4.676" transform="translate(21.6 4.906)" fill="#ffc19d"/>
            <path id="Trazado_212997" data-name="Trazado 212997" d="M205.929,50.818c-.024-.01-.069.08-.194.179a.859.859,0,0,1-.619.169c-.552-.06-1.179-.755-1.418-1.611a2.839,2.839,0,0,1-.066-1.251.991.991,0,0,1,.467-.8.435.435,0,0,1,.548.105c.1.117.092.22.12.222s.082-.106-.006-.294a.557.557,0,0,0-.263-.252.648.648,0,0,0-.491-.006,1.207,1.207,0,0,0-.684.96,2.911,2.911,0,0,0,.045,1.4c.272.956.992,1.735,1.733,1.761a.919.919,0,0,0,.729-.318c.118-.156.117-.269.1-.273" transform="translate(21.728 5.05)" fill="#ff9c6a"/>
            <path id="Trazado_212998" data-name="Trazado 212998" d="M231.7,42.906c-.03-.037.433-.333,1.043-1.08a7.022,7.022,0,0,0,1.493-3.715,6.845,6.845,0,0,0-.267-2.755,5.913,5.913,0,0,0-1.7-2.639,6.983,6.983,0,0,0-6.828-1.329c-.224.072-.431.184-.642.271-.2.106-.394.226-.584.332l-.294.166,0-.328a2.41,2.41,0,0,0-.6-1.561,3.825,3.825,0,0,0-1.371-.981,5.069,5.069,0,0,0-3.189-.234c-2.05.466-3.79,1.4-5.432,1.592a5.255,5.255,0,0,1-3.706-.744,3.048,3.048,0,0,1-.726-.744,1.316,1.316,0,0,1-.165-.321,4.3,4.3,0,0,0,.973.945,5.235,5.235,0,0,0,3.589.6,12.886,12.886,0,0,0,2.494-.721,22.688,22.688,0,0,1,2.9-.95,6.457,6.457,0,0,1,1.679-.168,5.175,5.175,0,0,1,1.73.4,4.19,4.19,0,0,1,1.514,1.076,2.8,2.8,0,0,1,.7,1.81l-.3-.162c.2-.115.406-.242.623-.355.225-.094.446-.213.684-.289a7.3,7.3,0,0,1,7.2,1.428,6.2,6.2,0,0,1,1.766,2.809,7.209,7.209,0,0,1-1.418,6.661,4.913,4.913,0,0,1-.828.768,1.49,1.49,0,0,1-.33.215" transform="translate(22.313 3.051)" fill="#375a64"/>
            <path id="Trazado_212999" data-name="Trazado 212999" d="M230.672,26.619a5.323,5.323,0,0,0-1.539-.529,4.073,4.073,0,0,0-1.829.167,3.608,3.608,0,0,0-1.883,1.369l-.182.262-.112-.3a5.592,5.592,0,0,0-4.532-3.365,7.229,7.229,0,0,0-4.356,1.26,19.371,19.371,0,0,1-3.452,1.788,5.456,5.456,0,0,1-2.615.307,3.211,3.211,0,0,1-.693-.191c-.151-.065-.227-.1-.221-.117.012-.034.331.1.933.158a5.664,5.664,0,0,0,2.5-.415,21,21,0,0,0,3.366-1.835,11.847,11.847,0,0,1,2.081-1.018,5.666,5.666,0,0,1,2.495-.318,5.859,5.859,0,0,1,4.8,3.628l-.293-.034a3.846,3.846,0,0,1,2.078-1.441,4.112,4.112,0,0,1,1.941-.1,3.5,3.5,0,0,1,1.164.443c.239.16.351.265.342.277" transform="translate(22.37 2.546)" fill="#375a64"/>
            <path id="Trazado_213000" data-name="Trazado 213000" d="M220.036,49.564a1.616,1.616,0,0,0-1.305-.379,1.908,1.908,0,0,0-1.252.913l-.019.029a.728.728,0,0,0-.041.061l.018-.013a.911.911,0,0,0-.139.561,1.348,1.348,0,0,0,.776,1.005,1.709,1.709,0,0,0,1.946-.282,1.393,1.393,0,0,0,.017-1.9" transform="translate(23.229 5.257)" fill="#f47409"/>
            <path id="Trazado_213001" data-name="Trazado 213001" d="M220.43,51.808c-.058.011-.131-.22-.328-.531a2.327,2.327,0,0,0-2.412-1.1c-.364.055-.587.153-.615.1s.155-.23.55-.367a2.2,2.2,0,0,1,2.721,1.238c.156.387.131.651.084.656" transform="translate(23.205 5.324)" fill="#1a2e35"/>
            <path id="Trazado_213002" data-name="Trazado 213002" d="M206.686,52.551c.037-.023.213.372-.066.935a1.508,1.508,0,0,1-.791.715,1.538,1.538,0,0,1-2.017-1.27,1.514,1.514,0,0,1,.3-1.024c.387-.495.82-.506.815-.463.025.058-.325.168-.588.615a1.346,1.346,0,0,0-.176.832,1.24,1.24,0,0,0,1.544.973,1.35,1.35,0,0,0,.675-.519c.29-.429.238-.794.3-.8" transform="translate(21.787 5.498)" fill="#f47409"/>
            <path id="Trazado_213003" data-name="Trazado 213003" d="M204.305,52.319c.042.019-.022.253-.345.412a.949.949,0,0,1-.618.06.989.989,0,0,1-.68-1.256.944.944,0,0,1,.389-.484c.309-.184.54-.11.534-.064s-.183.1-.367.282a.706.706,0,0,0,.652,1.2c.256-.053.39-.188.436-.153" transform="translate(21.659 5.445)" fill="#f47409"/>
            <path id="Trazado_213004" data-name="Trazado 213004" d="M211.528,113.685s18.392,1.067,29.263,1.167c8.421.077,12.175-2.16,13.858-7.57,1.414-4.543-1.624-13.253-1.624-13.253-5.694.029-9.208.814-12.873,2.53l.977,3.984L211.475,103.1Z" transform="translate(22.607 10.052)" fill="#ffc19d"/>
            <path id="Trazado_213005" data-name="Trazado 213005" d="M244.465,104.174a10.739,10.739,0,0,0-6.356-4.334,2.653,2.653,0,0,1,1.18.1,7.87,7.87,0,0,1,4.649,3.17,2.624,2.624,0,0,1,.527,1.06" transform="translate(25.454 10.67)" fill="#ff9c6a"/>
            <path id="Trazado_213006" data-name="Trazado 213006" d="M206.392,98.75h0a35.539,35.539,0,0,0-9.866,4.158l4.442,12.082c1.484,3.964,6.03,5.913,9.631,3.856,5.593-3.2,7.566-12.528,7.566-12.528l6.149-26.652-10.185-6.381Z" transform="translate(21.009 7.834)" fill="#ffc19d"/>
            <path id="Trazado_213007" data-name="Trazado 213007" d="M212.617,75.146l.411-8.766L210.754,57.5c-.126-.493-.188-1.106.209-1.4a1.081,1.081,0,0,1,1.374.043c.622.636,3.592,8.433,3.592,8.433a45.566,45.566,0,0,1,5.312-2.84c.8-.132,1.806,2.293,1.87,2.485a14.162,14.162,0,0,1,.009,1.629s2.786.083,3.036.466a9.586,9.586,0,0,1,.321,2.364s1.179.377,1.369,1.272.569,2.363.013,2.685-1.729.969-1.729.969-.473,4.548-.594,4.961a28.177,28.177,0,0,1-2.734,2.961Z" transform="translate(22.519 5.973)" fill="#ffc19d"/>
            <path id="Trazado_213008" data-name="Trazado 213008" d="M203.871,120.9c.012-.024.278.158.853.345a5.823,5.823,0,0,0,2.626.208,7.318,7.318,0,0,0,3.8-1.753,17.6,17.6,0,0,0,3.535-4.475,20.155,20.155,0,0,0,1.376-3.068,31.5,31.5,0,0,0,.953-3.562c.583-2.5,1.211-5.2,1.878-8.062,1.34-5.732,2.84-12.137,4.454-19.038l.012-.051.039-.038c.51-.5,1.025-1.018,1.534-1.549.253-.267.507-.536.749-.812a5.07,5.07,0,0,0,.336-.42c.087-.09.091-.269.125-.459.2-1.487.358-3.023.522-4.571l.011-.1.086-.049,1.416-.794c.108-.064.267-.142.334-.195a.415.415,0,0,0,.133-.249,2.346,2.346,0,0,0,.009-.769,11.569,11.569,0,0,0-.33-1.616,1.989,1.989,0,0,0-1.182-.954l-.128-.046-.006-.13c-.018-.431-.048-.873-.1-1.314-.025-.219-.054-.442-.1-.652a1.254,1.254,0,0,0-.085-.276c-.023-.049-.012-.012-.045-.043a.749.749,0,0,0-.125-.052,13.1,13.1,0,0,0-2.721-.308l-.194-.009.007-.191c.013-.458.033-.97.012-1.451a1.526,1.526,0,0,0-.174-.5q-.12-.269-.255-.529a6.323,6.323,0,0,0-.608-.982,1.625,1.625,0,0,0-.376-.37.362.362,0,0,0-.4-.045,9.969,9.969,0,0,0-1.047.479c-1.387.722-2.733,1.51-4.055,2.295l-.194.115-.083-.209q-1.054-2.638-2.08-5.208-.511-1.283-1.017-2.548a1.058,1.058,0,0,0-.817-.765.825.825,0,0,0-.966.355.863.863,0,0,0-.113.528c.022.166.1.416.152.62l.337,1.28q.335,1.273.663,2.524.657,2.5,1.287,4.9l.008.027,0,.027c-.147,3.05-.289,5.977-.424,8.764v.02l-.006.019L206.73,97.229c-.82,2.632-1.464,4.7-1.911,6.13q-.33,1.038-.514,1.607c-.118.363-.192.546-.192.546s.041-.193.145-.56q.164-.574.468-1.622c.425-1.435,1.042-3.512,1.825-6.154,1.6-5.321,3.883-12.911,6.637-22.062l-.008.039c.127-2.787.259-5.715.4-8.766l.006.052-1.3-4.9q-.33-1.25-.669-2.524c-.112-.424-.225-.851-.339-1.278-.053-.228-.121-.4-.163-.674a1.241,1.241,0,0,1,.161-.756,1.147,1.147,0,0,1,.6-.506,1.431,1.431,0,0,1,.768-.024,1.515,1.515,0,0,1,.68.346,1.491,1.491,0,0,1,.4.641q.506,1.264,1.021,2.548,1.028,2.567,2.085,5.207l-.277-.093c1.327-.79,2.671-1.577,4.076-2.309a10.063,10.063,0,0,1,1.1-.5.854.854,0,0,1,.374-.052.792.792,0,0,1,.352.141,1.984,1.984,0,0,1,.47.455,6.675,6.675,0,0,1,.649,1.044c.093.18.182.363.263.548a1.83,1.83,0,0,1,.207.631c.022.526,0,1.022-.012,1.491l-.188-.2a13.114,13.114,0,0,1,2.837.329,1.123,1.123,0,0,1,.191.084.477.477,0,0,1,.193.194,1.622,1.622,0,0,1,.122.376c.051.236.079.464.105.692.05.455.079.9.1,1.342l-.134-.176a2.351,2.351,0,0,1,1.42,1.173,11.324,11.324,0,0,1,.355,1.72,2.727,2.727,0,0,1-.018.9.791.791,0,0,1-.27.459,3.808,3.808,0,0,1-.379.225l-1.424.8.1-.146c-.167,1.552-.324,3.081-.53,4.587l-.048.288a.747.747,0,0,1-.137.323,5.254,5.254,0,0,1-.366.457c-.25.284-.506.556-.763.824-.514.535-1.029,1.05-1.545,1.555l.05-.09L219.2,100.609c-.681,2.861-1.322,5.553-1.916,8.054a31.334,31.334,0,0,1-.983,3.582,20.273,20.273,0,0,1-1.414,3.1,17.665,17.665,0,0,1-3.616,4.5,7.392,7.392,0,0,1-3.9,1.741,5.705,5.705,0,0,1-2.662-.27,3.874,3.874,0,0,1-.631-.286,1.354,1.354,0,0,1-.2-.118" transform="translate(21.794 5.958)" fill="#ff9c6a"/>
            <path id="Trazado_213009" data-name="Trazado 213009" d="M222.286,64.894c0,.054-.251.082-.644.1a7.464,7.464,0,0,0-1.48.175,2.942,2.942,0,0,0-1.261.674c-.271.253-.39.468-.445.445s-.013-.284.241-.628a2.507,2.507,0,0,1,1.367-.866,4.328,4.328,0,0,1,1.588-.074c.4.052.636.121.633.173" transform="translate(23.351 6.914)" fill="#ff9c6a"/>
            <path id="Trazado_213010" data-name="Trazado 213010" d="M219.954,65.032c-.1-.038-.106-.267-.014-.512s.247-.414.348-.376.106.267.014.512-.248.414-.348.376" transform="translate(23.505 6.856)" fill="#ff9c6a"/>
            <path id="Trazado_213011" data-name="Trazado 213011" d="M225.422,67.394a6.97,6.97,0,0,1-2.2.3,1.5,1.5,0,0,0-1.226.591c-.2.3-.131.556-.188.571-.035.034-.237-.25-.056-.694a1.209,1.209,0,0,1,.531-.59,2.366,2.366,0,0,1,.893-.262,6.241,6.241,0,0,1,2.251.08" transform="translate(23.697 7.192)" fill="#ff9c6a"/>
            <path id="Trazado_213012" data-name="Trazado 213012" d="M224.637,69.8c.106,0,.168.555.138,1.226s-.142,1.214-.248,1.21-.169-.555-.138-1.228.142-1.213.248-1.209" transform="translate(23.986 7.461)" fill="#ff9c6a"/>
            <path id="Trazado_213013" data-name="Trazado 213013" d="M227.4,88.286l.66-2.277a.622.622,0,0,1,1.042-.262l.862.879.538-2.142a.622.622,0,0,1,1.164-.117l1.216,2.536Z" transform="translate(24.309 8.981)" fill="#fff"/>
            <path id="Trazado_213014" data-name="Trazado 213014" d="M232.881,87.507a19.666,19.666,0,0,1-5.34,1.323,19.667,19.667,0,0,1,5.34-1.323" transform="translate(24.324 9.352)" fill="#fff"/>
            <path id="Trazado_213015" data-name="Trazado 213015" d="M192.648,76.032c.018.015-.277.286-.66.883a7.548,7.548,0,0,0-1.008,2.8,20.3,20.3,0,0,0-.133,4.45c.082,1.681.218,3.528.423,5.459a95.924,95.924,0,0,0,1.567,9.82c.265,1.246.5,2.249.667,2.942.073.308.136.57.191.8.042.184.056.281.056.281s-.035-.092-.087-.272c-.062-.226-.134-.486-.219-.791-.183-.689-.437-1.689-.715-2.932a87.283,87.283,0,0,1-1.615-9.828c-.206-1.935-.338-3.785-.412-5.469a19.832,19.832,0,0,1,.168-4.475,7.388,7.388,0,0,1,1.065-2.819,4.467,4.467,0,0,1,.711-.85" transform="translate(20.381 8.128)" fill="#fff"/>
            <path id="Trazado_213016" data-name="Trazado 213016" d="M208.089,66.908a.864.864,0,0,1-.167.091c-.151.073-.312.149-.49.235-.425.2-1.038.5-1.775.909a64.191,64.191,0,0,0-5.582,3.488c-2.121,1.459-4,2.837-5.374,3.818L193.068,76.6l-.449.306a.849.849,0,0,1-.163.1.868.868,0,0,1,.145-.124l.432-.329,1.6-1.2c1.357-1,3.228-2.4,5.351-3.856a55.67,55.67,0,0,1,5.619-3.457c.746-.4,1.369-.682,1.8-.868l.5-.207a.874.874,0,0,1,.179-.063" transform="translate(20.574 7.152)" fill="#fff"/>
            <path id="Trazado_213017" data-name="Trazado 213017" d="M239.916,71.857a.631.631,0,0,1-.124-.094l-.334-.289a13.341,13.341,0,0,0-1.3-.971,26.445,26.445,0,0,0-4.776-2.416,48.174,48.174,0,0,0-5.092-1.695c-.662-.184-1.2-.319-1.575-.411l-.429-.11a.563.563,0,0,1-.147-.049.572.572,0,0,1,.154.018l.436.082c.377.073.923.193,1.59.363a41.282,41.282,0,0,1,5.122,1.657,24.3,24.3,0,0,1,4.78,2.47,9.426,9.426,0,0,1,1.7,1.445" transform="translate(24.174 7.036)" fill="#fff"/>
            <path id="Trazado_213018" data-name="Trazado 213018" d="M207.034,123.115a1.069,1.069,0,0,1-.29-.1,4.893,4.893,0,0,1-.736-.394,3.583,3.583,0,0,1-1.616-2.188,4.272,4.272,0,0,1,.288-2.717,3.7,3.7,0,0,1,.429-.718,1.021,1.021,0,0,1,.207-.227,8.752,8.752,0,0,0-.537.988,4.4,4.4,0,0,0-.237,2.64,3.619,3.619,0,0,0,1.526,2.132c.57.4.979.558.965.584" transform="translate(21.838 12.483)" fill="#fff"/>
            <path id="Trazado_213019" data-name="Trazado 213019" d="M204.634,115.235a6.449,6.449,0,0,1,.558,1.908,6.423,6.423,0,0,1-.558-1.908" transform="translate(21.874 12.319)" fill="#fff"/>
            <path id="Trazado_213020" data-name="Trazado 213020" d="M215.488,281.011l22.66-.114-.412-78.34-.211-79.686-30.689-.381-5.517,10.4a37.345,37.345,0,0,0-4.245,13.48c-.385,3.6,2.312,15.339,3.254,18.328l8.447,26.787Z" transform="translate(21.063 13.094)" fill="#1a2e35"/>
            <path id="Trazado_213021" data-name="Trazado 213021" d="M241.875,122.941l24.9,67.875a31.312,31.312,0,0,1-3.069,26.519L234.8,273.758l-16.253-20.334,24.187-50.547-21.323-34.545L225,123.013l10.043-.162Z" transform="translate(23.362 13.133)" fill="#1a2e35"/>
            <path id="Trazado_213022" data-name="Trazado 213022" d="M231.747,143.475s.019.117.035.348c.015.248.037.587.064,1.023.049.919.12,2.24.209,3.935.167,3.436.405,8.377.7,14.475.281,6.118.617,13.395.988,21.472.182,4.041.372,8.283.57,12.68.142,2.2.076,4.439.1,6.711q.01,3.409.021,6.913c.031,18.669.06,35.568.08,47.819-.008,6.106-.015,11.052-.02,14.492-.011,1.7-.019,3.021-.025,3.939-.007.437-.012.777-.015,1.025-.006.23-.019.349-.019.349s-.013-.118-.021-.349c-.006-.248-.012-.588-.022-1.025-.011-.919-.027-2.243-.048-3.938-.024-3.44-.06-8.386-.1-14.49-.05-12.25-.117-29.147-.194-47.814q-.008-3.5-.019-6.911c-.024-2.272.042-4.514-.1-6.711-.19-4.4-.374-8.637-.548-12.678-.341-8.077-.648-15.354-.905-21.471-.244-6.1-.441-11.042-.577-14.479-.06-1.7-.106-3.02-.137-3.938-.011-.436-.02-.776-.027-1.024,0-.231,0-.35,0-.35" transform="translate(24.773 15.337)" fill="#375a64"/>
            <path id="Trazado_213023" data-name="Trazado 213023" d="M231.236,124.142a2.857,2.857,0,0,1,.157.737c.076.478.169,1.172.268,2.031.2,1.719.407,4.1.527,6.739s.125,5.03.082,6.759c-.021.864-.05,1.564-.084,2.047a2.819,2.819,0,0,1-.09.748,22.793,22.793,0,0,1-.1-2.8c-.027-1.727-.077-4.11-.195-6.741s-.284-5.008-.413-6.729a22.9,22.9,0,0,1-.153-2.795" transform="translate(24.717 13.271)" fill="#375a64"/>
            <path id="Trazado_213024" data-name="Trazado 213024" d="M226.8,125.543a1.806,1.806,0,0,0-.5.847.964.964,0,0,0,.288.905.989.989,0,0,0,1.689-.774.961.961,0,0,0-.5-.809,1.813,1.813,0,0,0-.969-.173c-.011-.02.071-.1.262-.154a1.268,1.268,0,0,1,1.56,1.117,1.329,1.329,0,0,1-2.29,1.049,1.267,1.267,0,0,1,.172-1.91c.168-.108.28-.12.289-.1" transform="translate(24.157 13.4)" fill="#375a64"/>
            <path id="Trazado_213025" data-name="Trazado 213025" d="M217.132,124.308a2.222,2.222,0,0,1,.2.711,7.03,7.03,0,0,1,.065,2.019,8.119,8.119,0,0,1-.857,2.878,7.613,7.613,0,0,1-5.806,4.167,8.1,8.1,0,0,1-3-.108,7.051,7.051,0,0,1-1.892-.707,2.227,2.227,0,0,1-.609-.421,12.836,12.836,0,0,0,2.555.86,7.8,7.8,0,0,0,9.338-6.7,12.889,12.889,0,0,0,0-2.7" transform="translate(21.94 13.289)" fill="#375a64"/>
            <path id="Trazado_213026" data-name="Trazado 213026" d="M242.9,130.817a3,3,0,0,1-1.427-.169,6.631,6.631,0,0,1-4.5-4.961,3,3,0,0,1-.03-1.437c.069,0,.072.546.3,1.375a7.185,7.185,0,0,0,4.325,4.764c.8.3,1.347.36,1.339.428" transform="translate(25.322 13.282)" fill="#375a64"/>
            <path id="Trazado_213027" data-name="Trazado 213027" d="M251.211,196.508a4.668,4.668,0,0,1-1.313,1.045,6.071,6.071,0,0,1-1.69.738,4.083,4.083,0,0,1-2.281-.061,6.632,6.632,0,0,1-3.173-2.525,5.847,5.847,0,0,1-.87-1.43,9.263,9.263,0,0,1,1.086,1.261,7.029,7.029,0,0,0,3.076,2.326,4.766,4.766,0,0,0,3.718-.547,15.778,15.778,0,0,1,1.448-.807" transform="translate(25.857 20.768)" fill="#375a64"/>
            <path id="Trazado_213028" data-name="Trazado 213028" d="M245.609,200.8a36.954,36.954,0,0,1-4.374-6.151,36.958,36.958,0,0,1,4.374,6.151" transform="translate(25.787 20.808)" fill="#375a64"/>
            <path id="Trazado_213029" data-name="Trazado 213029" d="M210.876,146.054c-.1.04-.364-.389-.591-.955s-.33-1.059-.231-1.1.364.387.591.955.331,1.059.231,1.1" transform="translate(22.451 15.393)" fill="#fafafa"/>
            <path id="Trazado_213030" data-name="Trazado 213030" d="M223.806,147.871c-.106,0-.194-.367-.194-.822s.087-.821.194-.821.194.367.194.821-.086.822-.194.822" transform="translate(23.904 15.632)" fill="#fafafa"/>
            <path id="Trazado_213031" data-name="Trazado 213031" d="M218.475,154.965c-.106.008-.225-.447-.262-1.014s.017-1.034.123-1.04.225.446.262,1.014-.017,1.033-.123,1.041" transform="translate(23.326 16.346)" fill="#fafafa"/>
            <path id="Trazado_213032" data-name="Trazado 213032" d="M208.835,160.074c-.089.065-.4-.208-.793-.494s-.749-.5-.714-.6.491-.04.942.289.651.748.564.807" transform="translate(22.163 16.99)" fill="#fafafa"/>
            <path id="Trazado_213033" data-name="Trazado 213033" d="M225.894,166.643c-.089-.06.023-.383.25-.724s.483-.568.572-.509-.023.383-.25.724-.484.569-.572.509" transform="translate(24.145 17.681)" fill="#fafafa"/>
            <path id="Trazado_213034" data-name="Trazado 213034" d="M215.267,168.644c-.106,0-.194-.613-.194-1.37s.087-1.369.194-1.369.194.613.194,1.369-.087,1.37-.194,1.37" transform="translate(22.991 17.735)" fill="#fafafa"/>
            <path id="Trazado_213035" data-name="Trazado 213035" d="M211.944,176.015c-.063.086-.452-.089-.868-.391s-.7-.618-.64-.7.452.089.868.391.7.618.64.7" transform="translate(22.495 18.697)" fill="#fafafa"/>
            <path id="Trazado_213036" data-name="Trazado 213036" d="M222.67,178.532c.043.1-.2.3-.538.451s-.652.195-.7.1.2-.3.538-.451.652-.195.7-.1" transform="translate(23.671 19.08)" fill="#fafafa"/>
            <path id="Trazado_213037" data-name="Trazado 213037" d="M215.382,191.044c-.1.048-.479-.527-.858-1.283s-.608-1.409-.513-1.457.48.527.859,1.283.607,1.409.511,1.457" transform="translate(22.876 20.129)" fill="#fafafa"/>
            <path id="Trazado_213038" data-name="Trazado 213038" d="M227.132,189.864c-.094-.05.074-.551.377-1.118s.624-.987.718-.936-.074.55-.377,1.118-.624.986-.718.936" transform="translate(24.278 20.076)" fill="#fafafa"/>
            <path id="Trazado_213039" data-name="Trazado 213039" d="M221.973,200.313c-.11-.017-.1-.6-.215-1.3s-.3-1.254-.2-1.3.459.475.578,1.242-.066,1.381-.167,1.36" transform="translate(23.682 21.135)" fill="#fafafa"/>
            <path id="Trazado_213040" data-name="Trazado 213040" d="M216.5,206.148c-.079.072-.449-.207-.828-.623s-.621-.811-.542-.883.451.207.828.623.621.811.542.883" transform="translate(22.995 21.875)" fill="#fafafa"/>
            <path id="Trazado_213041" data-name="Trazado 213041" d="M229.88,208.4c-.076-.075.2-.476.61-.894s.809-.7.886-.624-.2.476-.61.9-.809.7-.886.623" transform="translate(24.573 22.115)" fill="#fafafa"/>
            <path id="Trazado_213042" data-name="Trazado 213042" d="M222.113,217.386c-.107-.016-.107-.582,0-1.264s.272-1.223.377-1.208.107.582,0,1.265-.275,1.222-.379,1.207" transform="translate(23.735 22.974)" fill="#fafafa"/>
            <path id="Trazado_213043" data-name="Trazado 213043" d="M216.983,221.646c-.092.054-.416-.329-.725-.856s-.483-1-.391-1.05.416.329.725.856.483,1,.391,1.05" transform="translate(23.074 23.49)" fill="#fafafa"/>
            <path id="Trazado_213044" data-name="Trazado 213044" d="M229.661,226.911c.062.087-.317.465-.846.843s-1.008.615-1.07.528.315-.464.846-.842,1.008-.615,1.07-.529" transform="translate(24.345 24.255)" fill="#fafafa"/>
            <path id="Trazado_213045" data-name="Trazado 213045" d="M218.983,234.241c-.1-.038.029-.636.091-1.375s.042-1.352.152-1.37.306.607.234,1.4-.381,1.38-.476,1.342" transform="translate(23.405 24.747)" fill="#fafafa"/>
            <path id="Trazado_213046" data-name="Trazado 213046" d="M223.277,244.251c-.083.066-.4-.186-.7-.565s-.479-.738-.4-.806.4.186.7.565.48.739.4.806" transform="translate(23.749 25.963)" fill="#fafafa"/>
            <path id="Trazado_213047" data-name="Trazado 213047" d="M218.737,251.137c-.089.061-.5-.381-.913-.986s-.682-1.145-.593-1.205.5.381.912.986.682,1.145.594,1.205" transform="translate(23.22 26.612)" fill="#fafafa"/>
            <path id="Trazado_213048" data-name="Trazado 213048" d="M231.22,242.491c-.1-.038-.09-.313.024-.615s.287-.518.386-.48.09.313-.024.615-.287.518-.386.48" transform="translate(24.71 25.805)" fill="#fafafa"/>
            <path id="Trazado_213049" data-name="Trazado 213049" d="M225.647,258.836c-.1-.051.089-.58.232-1.242s.2-1.219.315-1.224.224.589.062,1.308-.52,1.21-.61,1.158" transform="translate(24.119 27.406)" fill="#fafafa"/>
            <path id="Trazado_213050" data-name="Trazado 213050" d="M229.335,155.02c-.1.045-.332-.253-.526-.667s-.272-.785-.176-.831.332.253.526.667.272.787.176.831" transform="translate(24.437 16.411)" fill="#fafafa"/>
            <path id="Trazado_213051" data-name="Trazado 213051" d="M220.151,133.977c.059.094-.464.512-1.016,1.106s-.941,1.139-1.038,1.086.158-.716.756-1.35,1.249-.931,1.3-.841" transform="translate(23.313 14.32)" fill="#fafafa"/>
            <path id="Trazado_213052" data-name="Trazado 213052" d="M228.337,133.913c-.107.022-.282-.42-.54-.929s-.5-.917-.418-.99.485.253.765.817.3,1.084.194,1.1" transform="translate(24.305 14.109)" fill="#fafafa"/>
            <path id="Trazado_213053" data-name="Trazado 213053" d="M202.413,140.745c-.1-.039,0-.532.227-1.1s.487-1,.587-.957,0,.531-.227,1.1-.487,1-.587.957" transform="translate(21.634 14.825)" fill="#fafafa"/>
            <path id="Trazado_213054" data-name="Trazado 213054" d="M203.4,150.816c-.069.082-.491-.158-.945-.536s-.767-.752-.7-.835.491.158.945.537.767.752.7.834" transform="translate(21.567 15.974)" fill="#fafafa"/>
            <path id="Trazado_213055" data-name="Trazado 213055" d="M220.257,126.064c-.1.04-.3-.235-.455-.613s-.194-.717-.094-.757.3.236.454.613.194.717.1.757" transform="translate(23.481 13.329)" fill="#fafafa"/>
            <path id="Trazado_213056" data-name="Trazado 213056" d="M236.439,131.07c-.1-.023-.1-.47.021-1s.294-.94.4-.917.1.47-.021,1-.294.94-.4.916" transform="translate(25.268 13.807)" fill="#fafafa"/>
            <path id="Trazado_213057" data-name="Trazado 213057" d="M240.25,138.779c-.1-.041.035-.6.3-1.238s.559-1.132.658-1.091-.035.6-.3,1.239-.56,1.131-.659,1.09" transform="translate(25.679 14.586)" fill="#fafafa"/>
            <path id="Trazado_213058" data-name="Trazado 213058" d="M237.645,144.98c-.1.048-.449-.466-.789-1.147s-.539-1.271-.444-1.319.449.466.789,1.147.539,1.272.444,1.319" transform="translate(25.27 15.235)" fill="#fafafa"/>
            <path id="Trazado_213059" data-name="Trazado 213059" d="M243.345,151.1c-.1-.039-.028-.468.162-.96s.424-.859.524-.821.027.468-.163.96-.423.86-.522.821" transform="translate(26.009 15.962)" fill="#fafafa"/>
            <path id="Trazado_213060" data-name="Trazado 213060" d="M238.213,157.1c-.091.056-.318-.143-.507-.445s-.269-.594-.178-.651.318.143.507.445.269.594.178.651" transform="translate(25.388 16.676)" fill="#fafafa"/>
            <path id="Trazado_213061" data-name="Trazado 213061" d="M239.426,169.683c-.08.073-.541-.3-1.034-.827s-.827-1.018-.748-1.091.541.3,1.033.828.828,1.017.749,1.09" transform="translate(25.403 17.933)" fill="#fafafa"/>
            <path id="Trazado_213062" data-name="Trazado 213062" d="M246.211,162.5c-.084.066-.489-.31-.905-.839s-.685-1.013-.6-1.079.489.31.905.84.685,1.012.6,1.078" transform="translate(26.157 17.166)" fill="#fafafa"/>
            <path id="Trazado_213063" data-name="Trazado 213063" d="M249.8,172.452c-.1-.045.072-.6.376-1.245s.63-1.126.726-1.08-.072.6-.376,1.245-.63,1.126-.726,1.08" transform="translate(26.701 18.186)" fill="#fafafa"/>
            <path id="Trazado_213064" data-name="Trazado 213064" d="M242.028,180.544c-.094.058-.439-.355-.918-.793s-.913-.753-.863-.851.6.083,1.126.567.746,1.027.655,1.077" transform="translate(25.682 19.122)" fill="#fafafa"/>
            <path id="Trazado_213065" data-name="Trazado 213065" d="M242.51,188.818c0,.107-.367.194-.822.194s-.821-.086-.821-.194.367-.194.821-.194.822.087.822.194" transform="translate(25.749 20.164)" fill="#fafafa"/>
            <path id="Trazado_213066" data-name="Trazado 213066" d="M250.521,186.659c-.094-.058.1-.521.239-1.1s.2-1.08.309-1.087.231.531.066,1.181-.529,1.069-.614,1.011" transform="translate(26.778 19.72)" fill="#fafafa"/>
            <path id="Trazado_213067" data-name="Trazado 213067" d="M258.721,189.506c-.1.035-.375-.485-.612-1.162s-.349-1.255-.248-1.29.375.485.612,1.161.349,1.255.248,1.291" transform="translate(27.561 19.996)" fill="#fafafa"/>
            <path id="Trazado_213068" data-name="Trazado 213068" d="M257.343,201.063c-.1-.05.134-.673.511-1.393s.759-1.262.855-1.212-.135.672-.513,1.391-.759,1.263-.853,1.213" transform="translate(27.508 21.215)" fill="#fafafa"/>
            <path id="Trazado_213069" data-name="Trazado 213069" d="M250.035,207.831c-.1.041-.4-.474-.682-1.15s-.422-1.256-.323-1.3.4.474.682,1.149.422,1.256.323,1.3" transform="translate(26.618 21.956)" fill="#fafafa"/>
            <path id="Trazado_213070" data-name="Trazado 213070" d="M241.864,210.228c0,.107-.307.194-.685.194s-.685-.086-.685-.194.307-.194.685-.194.685.087.685.194" transform="translate(25.709 22.453)" fill="#fafafa"/>
            <path id="Trazado_213071" data-name="Trazado 213071" d="M246.493,221.174c-.1.028-.31-.411-.46-.977s-.19-1.049-.087-1.077.31.41.46.977.19,1.049.087,1.077" transform="translate(26.286 23.424)" fill="#fafafa"/>
            <path id="Trazado_213072" data-name="Trazado 213072" d="M240.5,217.52c-.093-.055.017-.406.244-.785s.486-.64.579-.586-.019.406-.246.785-.486.641-.577.586" transform="translate(25.706 23.106)" fill="#fafafa"/>
            <path id="Trazado_213073" data-name="Trazado 213073" d="M240.407,229.492c-.106.012-.253-.5-.329-1.141s-.051-1.176.055-1.188.252.5.329,1.142.051,1.174-.055,1.187" transform="translate(25.66 24.284)" fill="#fafafa"/>
          </g>
        </g>
      </g>
    </g>
  </g>
</svg>
