<svg xmlns="http://www.w3.org/2000/svg" xmlns:xlink="http://www.w3.org/1999/xlink" width="98" height="98" viewBox="0 0 98 98">
  <defs>
    <filter id="Rectángulo_41988" x="0" y="0" width="98" height="98" filterUnits="userSpaceOnUse">
      <feOffset dy="3" input="SourceAlpha"/>
      <feGaussianBlur stdDeviation="3" result="blur"/>
      <feFlood flood-opacity="0.161"/>
      <feComposite operator="in" in2="blur"/>
      <feComposite in="SourceGraphic"/>
    </filter>
    <clipPath id="clip-path">
      <rect id="Rectángulo_44950" data-name="Rectángulo 44950" width="53.045" height="56.973" fill="none"/>
    </clipPath>
  </defs>
  <g id="Grupo_147503" data-name="Grupo 147503" transform="translate(-4761 9697)">
    <g transform="matrix(1, 0, 0, 1, 4761, -9697)" filter="url(#Rectángulo_41988)">
      <rect id="Rectángulo_41988-2" data-name="Rectángulo 41988" width="80" height="80" rx="17" transform="translate(9 6)" fill="#fff"/>
    </g>
    <g id="Grupo_149051" data-name="Grupo 149051" transform="translate(4783.478 -9679.486)">
      <path id="Trazado_213766" data-name="Trazado 213766" d="M15.022,128.091,0,161.411H26.419l1.67-17.036-1.377-18.469-.355-.071Z" transform="translate(0 -104.438)" fill="#ff583e"/>
      <path id="Trazado_213767" data-name="Trazado 213767" d="M155.37,161.47h26.3L166.645,128.15l-11.275-2.244Z" transform="translate(-128.951 -104.497)" fill="#f92814"/>
      <g id="Grupo_149050" data-name="Grupo 149050">
        <g id="Grupo_149049" data-name="Grupo 149049" clip-path="url(#clip-path)">
          <path id="Trazado_213768" data-name="Trazado 213768" d="M92.695,11.514,88.234,5.9H83.807V0H79.928V14.247a15.73,15.73,0,0,0,.624,4.385l.807,2.781H93.05l.857-4.734-.665-4.987Z" transform="translate(-66.337)" fill="#ff6c52"/>
          <path id="Trazado_213769" data-name="Trazado 213769" d="M163.9,0V5.9h-4.428l-4.46,5.616.061,9.9h11.275l.807-2.781a15.73,15.73,0,0,0,.624-4.385V0Z" transform="translate(-128.653)" fill="#ff432e"/>
          <path id="Trazado_213770" data-name="Trazado 213770" d="M210.315,141.2a2.7,2.7,0,1,1,0-5.4c.061,0,.121.005.181.009l.517-2.636-.517-2.381-.181-.153-9.444,8.016v21.307H210.5l.776-11.513-.776-7.256C210.436,141.194,210.376,141.2,210.315,141.2Z" transform="translate(-166.715 -108.423)" fill="#fff"/>
          <path id="Trazado_213771" data-name="Trazado 213771" d="M265.7,138.651l-9.444-8.016-.032.027V135.8l.032,0a2.7,2.7,0,1,1,0,5.4l-.032,0v18.761H265.7V138.651Z" transform="translate(-212.658 -108.422)" fill="#e9edf5"/>
          <path id="Trazado_213772" data-name="Trazado 213772" d="M220.543,204.975a2.424,2.424,0,1,1-2.424,2.424,2.424,2.424,0,0,1,2.424-2.424" transform="translate(-181.03 -170.121)" fill="#636978"/>
          <path id="Trazado_213773" data-name="Trazado 213773" d="M268.619,253.052a2.424,2.424,0,1,1-2.424,2.424,2.424,2.424,0,0,1,2.424-2.424" transform="translate(-220.932 -210.024)" fill="#414952"/>
          <path id="Trazado_213774" data-name="Trazado 213774" d="M216.323,234.671l2.472,2.472,4.526-4.526.345-2.556-.345-2.387Z" transform="translate(-179.54 -188.96)" fill="#636978"/>
          <path id="Trazado_213775" data-name="Trazado 213775" d="M260.6,203.18l-4.378,4.377V212.5l6.849-6.849Z" transform="translate(-212.657 -168.632)" fill="#414952"/>
          <path id="Trazado_213776" data-name="Trazado 213776" d="M195.589,56.06v0c-.043-.041-.089-.08-.133-.12-.027-.024-.053-.05-.08-.074v0a7.509,7.509,0,0,0-12.466,5.648v4.03h5.1v-4.03a2.415,2.415,0,1,1,4.831,0V75.093h5.1V61.513A7.491,7.491,0,0,0,195.589,56.06Z" transform="translate(-151.808 -44.815)" fill="#fdba12"/>
          <path id="Trazado_213777" data-name="Trazado 213777" d="M83.745,120.126v4.321H96.218l.665-2.161-.665-2.161Z" transform="translate(-69.505 -99.7)" fill="#fff"/>
          <rect id="Rectángulo_44949" data-name="Rectángulo 44949" width="12.057" height="4.321" transform="translate(26.419 20.426)" fill="#e9edf5"/>
        </g>
      </g>
    </g>
  </g>
</svg>
