<svg id="Grupo_149940" data-name="Grupo 149940" xmlns="http://www.w3.org/2000/svg" xmlns:xlink="http://www.w3.org/1999/xlink" width="234.472" height="216.868" viewBox="0 0 234.472 216.868">
  <defs>
    <clipPath id="clip-path">
      <rect id="Rectángulo_45335" data-name="Rectángulo 45335" width="234.472" height="216.868" fill="none"/>
    </clipPath>
    <clipPath id="clip-path-3">
      <rect id="Rectángulo_45330" data-name="Rectángulo 45330" width="52.706" height="9.225" fill="none"/>
    </clipPath>
    <clipPath id="clip-path-4">
      <rect id="Rectángulo_45331" data-name="Rectángulo 45331" width="15.337" height="31.74" fill="none"/>
    </clipPath>
    <clipPath id="clip-path-5">
      <rect id="Rectángulo_45332" data-name="Rectángulo 45332" width="6.349" height="41.056" fill="none"/>
    </clipPath>
  </defs>
  <g id="Grupo_149939" data-name="Grupo 149939" clip-path="url(#clip-path)">
    <g id="Grupo_149938" data-name="Grupo 149938">
      <g id="Grupo_149937" data-name="Grupo 149937" clip-path="url(#clip-path)">
        <path id="Trazado_215436" data-name="Trazado 215436" d="M197.091,30.378c.3-2.185-2.782-3.981-5.1-4.168a13.077,13.077,0,0,1-3.3-.285c-2.268-.79-3.173-3.72-5.387-4.653-1.654-.7-3.558-.077-5.162.731s-3.189,1.823-4.981,1.938c-1.558.1-3.251-.478-4.615.283-1.016.568-1.548,1.738-2.485,2.429a5.923,5.923,0,0,1-3.247.881,9.145,9.145,0,0,0-3.349.547,2.647,2.647,0,0,0-1.677,2.686Z" transform="translate(-20.559 -2.733)" fill="#fafafa"/>
        <path id="Trazado_215437" data-name="Trazado 215437" d="M139.89,6.986c.223-1.622-2.065-2.956-3.786-3.094a9.752,9.752,0,0,1-2.449-.212c-1.684-.587-2.357-2.762-4-3.454a4.7,4.7,0,0,0-3.834.542,9.991,9.991,0,0,1-3.7,1.438c-1.158.075-2.413-.355-3.426.21-.755.422-1.15,1.291-1.845,1.8a4.392,4.392,0,0,1-2.412.653,6.786,6.786,0,0,0-2.486.407,1.965,1.965,0,0,0-1.245,1.994Z" transform="translate(-14.425 0)" fill="#ececec"/>
        <path id="Trazado_215438" data-name="Trazado 215438" d="M244.763,97.65c.44-3.194-4.069-5.823-7.457-6.1-1.616-.13-3.293.117-4.824-.417-3.316-1.156-4.641-5.44-7.877-6.805-2.419-1.02-5.2-.111-7.55,1.069s-4.662,2.666-7.283,2.833c-2.279.145-4.754-.7-6.748.414-1.485.83-2.264,2.541-3.634,3.552a8.671,8.671,0,0,1-4.75,1.288,13.375,13.375,0,0,0-4.9.8c-1.514.693-2.766,2.293-2.452,3.928Z" transform="translate(-24.401 -10.932)" fill="#f5f5f5"/>
        <path id="Trazado_215439" data-name="Trazado 215439" d="M64.469,64c.383-2.779-3.54-5.065-6.487-5.3a16.7,16.7,0,0,1-4.2-.363c-2.885-1.005-4.037-4.732-6.852-5.92-2.1-.887-4.527-.1-6.567.93s-4.056,2.319-6.336,2.465c-1.982.127-4.135-.608-5.869.36-1.293.722-1.97,2.212-3.161,3.09a7.539,7.539,0,0,1-4.132,1.12,11.638,11.638,0,0,0-4.261.7A3.366,3.366,0,0,0,14.476,64.5Z" transform="translate(-1.881 -6.781)" fill="#f5f5f5"/>
        <path id="Trazado_215440" data-name="Trazado 215440" d="M220.976,242.519s4.607-27.664,1.151-44.226l-53.614.474s-7.814,30.746-4.132,43.942Z" transform="translate(-21.293 -25.841)" fill="#1a2e35"/>
        <path id="Trazado_215441" data-name="Trazado 215441" d="M205.8,103.572c-.225-11.524-.45-23.067-1.674-34.528l10.329,7.787c2.6,6.848-.065,13.537,2.51,20.395,1.342,3.571,3.97,6.742,4.264,10.545.234,3.038-1.081,6.036-.855,9.073.23,3.087,2.038,6.01,1.657,9.083-.281,2.271-1.712,4.209-3.1,6.031A4.274,4.274,0,0,1,216.9,133.7a4.053,4.053,0,0,1-2.082-.137,43.633,43.633,0,0,1-4.842-1.533,8.6,8.6,0,0,1-3.385-2c-1.962-2.143-1.572-5.453-1.243-8.34a136.156,136.156,0,0,0,.452-18.109" transform="translate(-26.601 -8.998)" fill="#1a2e35"/>
        <path id="Trazado_215442" data-name="Trazado 215442" d="M155.293,163.981c.09-2.873,2.257-30.672,2.641-33.188a11.884,11.884,0,0,1,5.727-8.622L171.74,119c9.053-2.519,39.1-.577,39.1-.577l4.963,45.282s5.828,18.592,5.832,22.273.991,13.916.991,13.916-16.417,6.2-28.275,5.477-29.814-4.848-29.814-4.848l2.586-16.43s-1.687-2.693-.79-4.759a13.02,13.02,0,0,1,.841-1.687,13.5,13.5,0,0,1-6.823-2.886c-5.289-4.364-5.151-7.905-5.062-10.779" transform="translate(-20.234 -15.339)" fill="#f37409"/>
        <g id="Grupo_149930" data-name="Grupo 149930" transform="translate(146.401 157.06)" opacity="0.3">
          <g id="Grupo_149929" data-name="Grupo 149929">
            <g id="Grupo_149928" data-name="Grupo 149928" clip-path="url(#clip-path-3)">
              <path id="Trazado_215443" data-name="Trazado 215443" d="M221.044,183.211a16.994,16.994,0,0,1-11.459,3.994c-1.9-.131-3.758-.674-5.661-.727-3-.083-5.874,1.043-8.762,1.847a42.808,42.808,0,0,1-26.824-1.46l.561-1.044a15.059,15.059,0,0,0,8.219-.6c12.928-2.081,20.686-4.882,33.777-4.6,3.435.073,7,.337,10,2.027" transform="translate(-168.338 -180.594)"/>
            </g>
          </g>
        </g>
        <path id="Trazado_215444" data-name="Trazado 215444" d="M163.6,176.491a2.211,2.211,0,0,1,.1-.548,5.244,5.244,0,0,1,.175-.63,8.5,8.5,0,0,1,.289-.817,12.987,12.987,0,0,1,1.009-2.019,13.7,13.7,0,0,1,3.758-4.02,13.085,13.085,0,0,1,1.946-1.143c.285-.149.56-.246.8-.343a5.215,5.215,0,0,1,.617-.217,2.215,2.215,0,0,1,.54-.136c.017.05-.742.282-1.868.864a14.58,14.58,0,0,0-1.887,1.172,14.585,14.585,0,0,0-3.694,3.951,14.546,14.546,0,0,0-1.044,1.961c-.505,1.163-.685,1.935-.736,1.922" transform="translate(-21.319 -21.713)" fill="#1a2e35"/>
        <path id="Trazado_215445" data-name="Trazado 215445" d="M160.85,170.056c-.012-.014.11-.134.341-.341a10.168,10.168,0,0,1,1.038-.8,14.209,14.209,0,0,1,8.185-2.467,9.908,9.908,0,0,1,1.308.094,1.71,1.71,0,0,1,.472.1c-.005.047-.684-.028-1.779,0a15.876,15.876,0,0,0-8.083,2.437c-.927.584-1.452,1.023-1.482.985" transform="translate(-20.961 -21.691)" fill="#1a2e35"/>
        <path id="Trazado_215446" data-name="Trazado 215446" d="M173.646,154.283a4.27,4.27,0,0,1,.046.769c.007.544.016,1.248.026,2.1,0,.9,0,1.95.005,3.107,0,.586,0,1.2-.006,1.834s-.037,1.3.032,1.952a1.73,1.73,0,0,0,.907,1.506,10.335,10.335,0,0,0,1.683.662l2.951.971,1.983.677a4.269,4.269,0,0,1,.717.283,4.237,4.237,0,0,1-.748-.184l-2.008-.6-2.969-.916a10.368,10.368,0,0,1-1.732-.666,2.3,2.3,0,0,1-.425-.283,1.634,1.634,0,0,1-.324-.421,2.682,2.682,0,0,1-.3-1c-.072-.695-.023-1.348-.029-1.985s.015-1.248.022-1.834c.019-1.157.037-2.206.052-3.107.023-.847.043-1.551.058-2.094a4.23,4.23,0,0,1,.057-.768" transform="translate(-22.603 -20.106)" fill="#1a2e35"/>
        <path id="Trazado_215447" data-name="Trazado 215447" d="M156.838,143.811a.494.494,0,0,1,0,.134c0,.1-.01.233-.017.392-.021.365-.05.869-.088,1.506-.09,1.329-.217,3.215-.374,5.536-.169,2.344-.368,5.124-.59,8.21-.114,1.545-.233,3.167-.357,4.848q-.091,1.258-.184,2.558a15.76,15.76,0,0,0,.1,2.618,9.47,9.47,0,0,0,1.7,4.535l.013.016,0,0a14.6,14.6,0,0,0,5.917,5.561,15.105,15.105,0,0,0,6.351,1.53,19.657,19.657,0,0,0,4.354-.368c.5-.1.889-.195,1.149-.262l.3-.077a.053.053,0,1,1,.008.023c-.064.025-.161.06-.29.1-.257.082-.641.191-1.144.306a18.625,18.625,0,0,1-4.378.447,15.133,15.133,0,0,1-6.449-1.494,14.756,14.756,0,0,1-6.037-5.629l.014.019a9.652,9.652,0,0,1-1.766-4.675,15.873,15.873,0,0,1-.1-2.665q.1-1.306.189-2.57c.13-1.679.254-3.3.372-4.844.244-3.083.462-5.861.646-8.2.192-2.319.349-4.2.458-5.529q.087-.955.138-1.5c.017-.158.031-.287.043-.391a.539.539,0,0,1,.023-.132" transform="translate(-20.193 -18.741)" fill="#1a2e35"/>
        <path id="Trazado_215448" data-name="Trazado 215448" d="M168.138,193.514a1.421,1.421,0,0,1,.3.115l.825.377c.712.336,1.751.806,3.04,1.368a101.667,101.667,0,0,0,20.945,6.557c1.38.274,2.5.479,3.277.61l.893.161a1.5,1.5,0,0,1,.309.074,1.377,1.377,0,0,1-.317-.021l-.9-.112c-.782-.1-1.91-.276-3.3-.527a90.057,90.057,0,0,1-20.986-6.57c-1.283-.584-2.31-1.082-3.009-1.446l-.8-.422a1.426,1.426,0,0,1-.272-.163" transform="translate(-21.911 -25.218)" fill="#1a2e35"/>
        <path id="Trazado_215449" data-name="Trazado 215449" d="M173.591,144.931a1.986,1.986,0,0,1,.359-.114c.237-.066.592-.15,1.053-.237a24.346,24.346,0,0,1,3.954-.358c1.677-.035,3.667.019,5.879.044l7.195.118,13.072.273,3.961.113,1.077.044a1.925,1.925,0,0,1,.375.034,2.066,2.066,0,0,1-.376.02l-1.078.005-3.962-.029-13.073-.195-7.195-.139c-2.211-.039-4.2-.112-5.872-.1a27.3,27.3,0,0,0-3.939.272c-.461.07-.818.138-1.058.187a2.061,2.061,0,0,1-.371.062" transform="translate(-22.622 -18.793)" fill="#fff"/>
        <path id="Trazado_215450" data-name="Trazado 215450" d="M175.98,150.3c0-.074,7.6-.075,16.964,0s16.964.189,16.963.262-7.595.076-16.966,0-16.962-.19-16.961-.263" transform="translate(-22.933 -19.579)" fill="#fff"/>
        <path id="Trazado_215451" data-name="Trazado 215451" d="M157.657,140.9a2.266,2.266,0,0,1,.525-.19c.343-.11.847-.238,1.477-.37a21.964,21.964,0,0,1,9.971.29c.621.167,1.118.324,1.452.454a2.207,2.207,0,0,1,.514.221c-.015.043-.768-.206-2.012-.492a25.1,25.1,0,0,0-9.891-.287c-1.258.213-2.025.418-2.037.375" transform="translate(-20.545 -18.231)" fill="#fff"/>
        <path id="Trazado_215452" data-name="Trazado 215452" d="M156.937,145.279a2.279,2.279,0,0,1,.529-.18c.344-.1.851-.221,1.482-.339a22.073,22.073,0,0,1,9.955.465c.617.177,1.111.342,1.444.477a2.259,2.259,0,0,1,.51.228c-.015.043-.764-.217-2-.523a25.328,25.328,0,0,0-9.876-.462c-1.261.189-2.031.378-2.042.334" transform="translate(-20.452 -18.818)" fill="#fff"/>
        <g id="Grupo_149933" data-name="Grupo 149933" transform="translate(146.582 106.668)" opacity="0.3">
          <g id="Grupo_149932" data-name="Grupo 149932">
            <g id="Grupo_149931" data-name="Grupo 149931" clip-path="url(#clip-path-4)">
              <path id="Trazado_215453" data-name="Trazado 215453" d="M168.717,122.652l13.807,11.489c.337,1.852.964,9.743,1.3,11.6a1.543,1.543,0,0,1-.009.866,1.071,1.071,0,0,1-1.545.307,3.1,3.1,0,0,1-1-1.464c-.447,1.355.142,2.8.563,4.167s.6,3.045-.421,4.04a3.823,3.823,0,0,1-3.323.637,6.99,6.99,0,0,1-3.858-1.762,8.81,8.81,0,0,1-1.813-3.29,64.1,64.1,0,0,1-3.7-26.585" transform="translate(-168.546 -122.652)"/>
            </g>
          </g>
        </g>
        <g id="Grupo_149936" data-name="Grupo 149936" transform="translate(174.091 108.122)" opacity="0.3">
          <g id="Grupo_149935" data-name="Grupo 149935">
            <g id="Grupo_149934" data-name="Grupo 149934" clip-path="url(#clip-path-5)">
              <path id="Trazado_215454" data-name="Trazado 215454" d="M200.658,124.324c3.231,5.469,4.227,11.93,5.162,18.214,1.1,7.427.305,15.345.707,22.842-1.96-.348-3.349-2.213-3.834-4.144a21.632,21.632,0,0,1-.208-5.945c.319-10.372-3.647-20.751-1.826-30.967" transform="translate(-200.178 -124.323)"/>
            </g>
          </g>
        </g>
        <path id="Trazado_215455" data-name="Trazado 215455" d="M217.368,118.53c5.408,1.01,13.645,1.214,13.323,11.08-.329,10.034-2.111,27.3-5.54,33.109s-7.651,8.573-14.114,5.276-5.672-13.455-5.672-13.455l12.681-9.5-1.865-2.374Z" transform="translate(-26.759 -15.447)" fill="#f37409"/>
        <path id="Trazado_215456" data-name="Trazado 215456" d="M219.26,172.725a.425.425,0,0,1-.112.044l-.337.108a12.16,12.16,0,0,1-1.331.3,9.958,9.958,0,0,1-5.013-.41,11.629,11.629,0,0,1-5.749-4.845,8.5,8.5,0,0,1-.951-2.028,18.9,18.9,0,0,1-.5-2.279,35.308,35.308,0,0,1-.364-4.915v-.07l.058-.041,3.224-2.2,10.483-7.144.079-.054.07.066a29.965,29.965,0,0,1,4.106,4.621,14.833,14.833,0,0,1,1.276,2.261,12.654,12.654,0,0,1,.718,2.089,14.721,14.721,0,0,1,.411,3.069c.005.358,0,.633-.006.818a1.662,1.662,0,0,1-.016.281,1.52,1.52,0,0,1-.022-.281c-.008-.2-.018-.473-.03-.815a15.9,15.9,0,0,0-.473-3.037,12.789,12.789,0,0,0-.737-2.054,14.844,14.844,0,0,0-1.283-2.22,30.358,30.358,0,0,0-4.108-4.561l.149.012-10.467,7.169-3.225,2.2.057-.111a35.377,35.377,0,0,0,.35,4.88,18.815,18.815,0,0,0,.488,2.251,8.353,8.353,0,0,0,.915,1.972,11.528,11.528,0,0,0,5.611,4.8,10.074,10.074,0,0,0,4.94.481c.585-.08,1.031-.189,1.333-.255l.342-.083a.453.453,0,0,1,.119-.021" transform="translate(-26.702 -19.442)" fill="#1a2e35"/>
        <path id="Trazado_215457" data-name="Trazado 215457" d="M217.374,142.332a39.093,39.093,0,0,1,.247-4.547,39.289,39.289,0,0,1,.512-4.526,38.883,38.883,0,0,1-.247,4.548,39.1,39.1,0,0,1-.512,4.525" transform="translate(-28.325 -17.366)" fill="#1a2e35"/>
        <path id="Trazado_215458" data-name="Trazado 215458" d="M217.406,141.792a2.331,2.331,0,0,1,.56-.081c.362-.036.887-.069,1.537-.092a41.936,41.936,0,0,1,10.1.9c.636.138,1.146.264,1.5.363a2.364,2.364,0,0,1,.537.178,2.281,2.281,0,0,1-.56-.077l-1.51-.278c-1.274-.23-3.044-.5-5.011-.677s-3.756-.219-5.051-.22l-1.535.008a2.34,2.34,0,0,1-.565-.023" transform="translate(-28.332 -18.452)" fill="#fff"/>
        <path id="Trazado_215459" data-name="Trazado 215459" d="M218.468,146.453a1.83,1.83,0,0,1,.5-.039c.321-.009.786-.007,1.361.005,1.149.023,2.736.1,4.482.268s3.32.386,4.454.579c.566.1,1.024.183,1.338.251a1.827,1.827,0,0,1,.484.132,14.755,14.755,0,0,1-1.849-.2c-1.138-.144-2.71-.335-4.451-.5s-3.32-.273-4.465-.344a14.869,14.869,0,0,1-1.853-.154" transform="translate(-28.47 -19.08)" fill="#fff"/>
        <path id="Trazado_215460" data-name="Trazado 215460" d="M230.284,119.823a.724.724,0,0,1,.409-.058,1.808,1.808,0,0,1,1.055.4c.405.3.6.9,1.039,1.23a.7.7,0,0,0,.377.13,3.909,3.909,0,0,1,.505.019,1.3,1.3,0,0,1,.891.665,3.207,3.207,0,0,1,.364,1.014,3.167,3.167,0,0,0,.1.462.65.65,0,0,0,.244.31,3.245,3.245,0,0,1,.7.557,2.144,2.144,0,0,1,.4.684,2.1,2.1,0,0,1,.1,1.124.8.8,0,0,1-.144.385,2.647,2.647,0,0,1,.042-.4,2.215,2.215,0,0,0-.173-1.04,2.039,2.039,0,0,0-.391-.606,3.181,3.181,0,0,0-.679-.507.906.906,0,0,1-.337-.417,3.337,3.337,0,0,1-.114-.5,3.035,3.035,0,0,0-.336-.928,1.052,1.052,0,0,0-.707-.546,4.183,4.183,0,0,0-.478-.023.943.943,0,0,1-.5-.182,2.461,2.461,0,0,1-.576-.709,2.513,2.513,0,0,0-.445-.578,1.837,1.837,0,0,0-.943-.444c-.25-.041-.4-.023-.4-.045" transform="translate(-30.01 -15.607)" fill="#1a2e35"/>
        <path id="Trazado_215461" data-name="Trazado 215461" d="M231.521,118.927a.725.725,0,0,1,.409-.058,1.808,1.808,0,0,1,1.055.4c.405.3.6.9,1.039,1.231a.707.707,0,0,0,.377.129,3.909,3.909,0,0,1,.505.019,1.3,1.3,0,0,1,.891.665,3.207,3.207,0,0,1,.364,1.014,3.166,3.166,0,0,0,.1.462.65.65,0,0,0,.244.31,3.245,3.245,0,0,1,.7.557,2.144,2.144,0,0,1,.4.684,2.1,2.1,0,0,1,.1,1.124.8.8,0,0,1-.144.385,2.642,2.642,0,0,1,.042-.4,2.216,2.216,0,0,0-.173-1.04,2.039,2.039,0,0,0-.391-.606,3.181,3.181,0,0,0-.679-.507.906.906,0,0,1-.337-.417,3.338,3.338,0,0,1-.114-.5,3.035,3.035,0,0,0-.336-.928,1.052,1.052,0,0,0-.707-.546,4.185,4.185,0,0,0-.478-.023.943.943,0,0,1-.5-.182,2.46,2.46,0,0,1-.576-.709,2.513,2.513,0,0,0-.445-.578,1.837,1.837,0,0,0-.943-.444c-.25-.041-.4-.023-.4-.045" transform="translate(-30.171 -15.491)" fill="#1a2e35"/>
        <path id="Trazado_215462" data-name="Trazado 215462" d="M179.589,66.673a12.49,12.49,0,0,1,11.789-2.725c7.523-2.446,14.008,2.5,16.661,6.665l2.533,5.469c-4.7,7.713-13.982,12.428-22.826,14.249a14.283,14.283,0,0,1-8.214-.286c-2.946-1.195-4.275-3.54-5.212-6.578,0,0-.473-11.888,5.269-16.794" transform="translate(-22.716 -8.249)" fill="#1a2e35"/>
        <path id="Trazado_215463" data-name="Trazado 215463" d="M196.4,68.831c5.168-.648,11.835,5.649,12.263,10.84.477,5.767.83,12.826.23,17.147-1.207,8.689-7.825,9.92-7.825,9.92l.156,9.058-19.417-.722-1.06-38.71-.11-2.8Z" transform="translate(-23.54 -8.964)" fill="#ffc19d"/>
        <path id="Trazado_215464" data-name="Trazado 215464" d="M208.063,88.348a1.111,1.111,0,0,1-1.05,1.142,1.063,1.063,0,0,1-1.165-.979,1.112,1.112,0,0,1,1.048-1.143,1.064,1.064,0,0,1,1.166.98" transform="translate(-26.825 -11.385)" fill="#1a2e35"/>
        <path id="Trazado_215465" data-name="Trazado 215465" d="M210.18,85.405c-.135.147-.989-.459-2.184-.433-1.195.01-2.06.642-2.192.5-.065-.063.07-.327.447-.613A3.046,3.046,0,0,1,208,84.279a2.933,2.933,0,0,1,1.742.525c.373.275.5.535.436.6" transform="translate(-26.818 -10.983)" fill="#1a2e35"/>
        <path id="Trazado_215466" data-name="Trazado 215466" d="M194.415,88.843a1.11,1.11,0,0,1-1.05,1.141,1.062,1.062,0,0,1-1.165-.978,1.112,1.112,0,0,1,1.049-1.143,1.063,1.063,0,0,1,1.165.98" transform="translate(-25.047 -11.45)" fill="#1a2e35"/>
        <path id="Trazado_215467" data-name="Trazado 215467" d="M196.674,85.924c-.136.148-.99-.458-2.185-.432-1.194.009-2.059.641-2.192.5-.064-.063.07-.327.447-.613A3.05,3.05,0,0,1,194.5,84.8a2.935,2.935,0,0,1,1.742.525c.372.276.5.535.437.6" transform="translate(-25.058 -11.051)" fill="#1a2e35"/>
        <path id="Trazado_215468" data-name="Trazado 215468" d="M202.405,94.7a7.927,7.927,0,0,1,1.935-.388c.3-.037.592-.1.64-.313a1.562,1.562,0,0,0-.222-.9q-.451-1.1-.948-2.306a40.114,40.114,0,0,1-2.146-6.041,39.931,39.931,0,0,1,2.626,5.854q.476,1.215.911,2.321a1.771,1.771,0,0,1,.182,1.195.769.769,0,0,1-.494.457,2.075,2.075,0,0,1-.517.082,7.782,7.782,0,0,1-1.968.041" transform="translate(-26.279 -11.044)" fill="#1a2e35"/>
        <path id="Trazado_215469" data-name="Trazado 215469" d="M202.332,112.019a22.935,22.935,0,0,1-11.957-2.881s3.167,5.983,12.116,5.015Z" transform="translate(-24.809 -14.223)" fill="#ff9c6a"/>
        <path id="Trazado_215470" data-name="Trazado 215470" d="M201.469,99.4a2.155,2.155,0,0,0-1.946-.763,1.967,1.967,0,0,0-1.345.755,1.249,1.249,0,0,0-.067,1.427,1.447,1.447,0,0,0,1.575.365,4.53,4.53,0,0,0,1.511-.941,1.343,1.343,0,0,0,.335-.36.4.4,0,0,0-.011-.445" transform="translate(-25.792 -12.851)" fill="#ff9c6a"/>
        <path id="Trazado_215471" data-name="Trazado 215471" d="M201.261,101.9c-.181.072-.593-1.158-1.939-1.681s-2.611.05-2.678-.12c-.043-.071.213-.336.762-.536a3.227,3.227,0,0,1,2.212.03,2.81,2.81,0,0,1,1.546,1.436c.219.5.184.85.1.871" transform="translate(-25.626 -12.952)" fill="#1a2e35"/>
        <path id="Trazado_215472" data-name="Trazado 215472" d="M191.339,80.827c.062-.34,1.265-.387,2.619-.788,1.364-.373,2.41-.966,2.642-.711.105.124-.038.458-.437.845a4.754,4.754,0,0,1-4.008,1.141c-.543-.118-.841-.327-.817-.488" transform="translate(-24.935 -10.33)" fill="#1a2e35"/>
        <path id="Trazado_215473" data-name="Trazado 215473" d="M205.991,79.464c.317-.169,1.081.424,2.114.833,1.021.442,1.984.563,2.085.905.039.163-.2.364-.672.457a3.432,3.432,0,0,1-1.885-.244,3.384,3.384,0,0,1-1.5-1.157c-.268-.4-.288-.708-.144-.795" transform="translate(-26.833 -10.352)" fill="#1a2e35"/>
        <path id="Trazado_215474" data-name="Trazado 215474" d="M171.562,100.347c.765-4.609.693-9.309.924-13.976s.789-9.408,2.717-13.664,5.412-8.005,9.9-9.289c4.261-1.217,9.37.265,11.764,3.937A30.033,30.033,0,0,0,183.4,88.4c.477,3.166,1.441,7.463,1.678,10.482.365,4.681-.737,9.386-.349,14.064.312,3.77,1.59,7.471,1.33,11.246-.172,2.5-1.013,4.9-1.445,7.374s-.4,5.188,1,7.265c-2.826-1.047-4.5-4.052-5.034-7.018a26.283,26.283,0,0,1-.272-5.252c-.964,5.4-1.526,10.762-.246,16.057-2.929-.094-6.261-.383-8.05-2.7a10.013,10.013,0,0,1-1.534-3.957q-.882-3.821-1.765-7.642a42.1,42.1,0,0,1-1.106-6.176c-.575-7.391,2.739-14.476,3.954-21.789" transform="translate(-21.834 -8.21)" fill="#1a2e35"/>
        <path id="Trazado_215475" data-name="Trazado 215475" d="M201.637,68.615c-.114-.213-.241-.415-.371-.615.024-.016.048-.032.072-.047Z" transform="translate(-26.228 -8.855)" fill="#1a2e35"/>
        <path id="Trazado_215476" data-name="Trazado 215476" d="M192.81,91.193a4.2,4.2,0,0,0,3.372.2c.017.027-.138.167-.444.3a2.878,2.878,0,0,1-2.523-.152c-.288-.171-.424-.329-.4-.354" transform="translate(-25.126 -11.883)" fill="#ff9c6a"/>
        <path id="Trazado_215477" data-name="Trazado 215477" d="M207.122,90.767a13.471,13.471,0,0,0,1.432.158,13.925,13.925,0,0,0,1.419-.248,2.4,2.4,0,0,1-2.851.09" transform="translate(-26.991 -11.815)" fill="#ff9c6a"/>
        <path id="Trazado_215478" data-name="Trazado 215478" d="M208.075,91.682c.011-.075.383-.074.826-.129s.8-.138.832-.069-.316.276-.8.332-.871-.065-.858-.135" transform="translate(-27.116 -11.919)" fill="#ff9c6a"/>
        <path id="Trazado_215479" data-name="Trazado 215479" d="M192.839,92.61a10.321,10.321,0,0,1,1.237.081,10.087,10.087,0,0,1,1.238-.024,2.563,2.563,0,0,1-2.475-.057" transform="translate(-25.13 -12.066)" fill="#ff9c6a"/>
        <path id="Trazado_215480" data-name="Trazado 215480" d="M195.54,100.795c-.06.04-.254-.209-.2-.566s.3-.544.35-.488-.054.257-.087.525.007.495-.06.529" transform="translate(-25.455 -12.997)" fill="#ff9c6a"/>
        <path id="Trazado_215481" data-name="Trazado 215481" d="M199.463,78.168c.027-.075.743.154,1.651.167s1.632-.179,1.656-.1a3.613,3.613,0,0,1-3.307-.063" transform="translate(-25.993 -10.185)" fill="#ff9c6a"/>
        <path id="Trazado_215482" data-name="Trazado 215482" d="M155.734,127.666a.723.723,0,0,1-.08-.4,1.793,1.793,0,0,1,.346-1.076c.277-.421.863-.648,1.171-1.105a.7.7,0,0,0,.109-.384,3.745,3.745,0,0,1-.01-.505,1.3,1.3,0,0,1,.617-.926,3.2,3.2,0,0,1,.992-.419,3.348,3.348,0,0,0,.456-.121.654.654,0,0,0,.3-.262,3.214,3.214,0,0,1,.517-.727,2.172,2.172,0,0,1,.661-.439,2.094,2.094,0,0,1,1.117-.162.782.782,0,0,1,.392.123,2.676,2.676,0,0,1-.4-.021,2.224,2.224,0,0,0-1.029.23,2.033,2.033,0,0,0-.584.424,3.19,3.19,0,0,0-.47.706.9.9,0,0,1-.4.359,3.236,3.236,0,0,1-.494.142,3.036,3.036,0,0,0-.908.386,1.054,1.054,0,0,0-.506.736,4.06,4.06,0,0,0,0,.479.953.953,0,0,1-.155.51,2.47,2.47,0,0,1-.676.613,2.534,2.534,0,0,0-.554.477,1.85,1.85,0,0,0-.392.966,3.973,3.973,0,0,1-.023.4" transform="translate(-20.284 -15.784)" fill="#1a2e35"/>
        <path id="Trazado_215483" data-name="Trazado 215483" d="M154.771,126.479a.723.723,0,0,1-.08-.4,1.793,1.793,0,0,1,.346-1.076c.277-.421.863-.648,1.171-1.105a.7.7,0,0,0,.109-.384,3.748,3.748,0,0,1-.01-.505,1.3,1.3,0,0,1,.617-.926,3.2,3.2,0,0,1,.992-.419,3.349,3.349,0,0,0,.456-.121.654.654,0,0,0,.3-.262,3.214,3.214,0,0,1,.517-.727,2.172,2.172,0,0,1,.661-.439,2.094,2.094,0,0,1,1.117-.162.782.782,0,0,1,.392.123,2.678,2.678,0,0,1-.4-.021,2.224,2.224,0,0,0-1.029.23,2.033,2.033,0,0,0-.584.424,3.191,3.191,0,0,0-.47.706.9.9,0,0,1-.4.359,3.236,3.236,0,0,1-.494.142,3.036,3.036,0,0,0-.908.386,1.053,1.053,0,0,0-.506.736,4.06,4.06,0,0,0,0,.479.953.953,0,0,1-.155.51,2.47,2.47,0,0,1-.676.613,2.535,2.535,0,0,0-.554.477,1.85,1.85,0,0,0-.392.966,3.973,3.973,0,0,1-.023.4" transform="translate(-20.159 -15.629)" fill="#1a2e35"/>
        <path id="Trazado_215484" data-name="Trazado 215484" d="M213.974,69.612a1.639,1.639,0,0,1,.084.429,3.731,3.731,0,0,0,.316,1.111,1.413,1.413,0,0,0,.5.564c.224.151.544.2.853.412a1.358,1.358,0,0,1,.513.983c.049.376.023.752.044,1.124a1.742,1.742,0,0,0,.287.982,3.594,3.594,0,0,0,.756.653,2.349,2.349,0,0,1,1,1.49,2.251,2.251,0,0,1-.078,1.21.9.9,0,0,1-.216.386,3.7,3.7,0,0,1,.117-.417,2.37,2.37,0,0,0-.006-1.138,2.2,2.2,0,0,0-.959-1.333,3.639,3.639,0,0,1-.819-.694,1.969,1.969,0,0,1-.344-1.125c-.022-.391,0-.765-.038-1.106a1.12,1.12,0,0,0-.4-.817c-.235-.177-.563-.24-.829-.424a1.577,1.577,0,0,1-.55-.667,3.28,3.28,0,0,1-.25-1.184,1.252,1.252,0,0,1,.019-.439" transform="translate(-27.881 -9.072)" fill="#1a2e35"/>
        <path id="Trazado_215485" data-name="Trazado 215485" d="M211.832,68.086a.158.158,0,1,1,.017.2.146.146,0,0,1-.017-.2" transform="translate(-27.601 -8.868)" fill="#1a2e35"/>
        <path id="Trazado_215486" data-name="Trazado 215486" d="M218.754,83.606c-.065.032-.257-.236-.319-.627s.03-.706.1-.7.1.3.161.653.124.638.057.67" transform="translate(-28.463 -10.723)" fill="#1a2e35"/>
        <path id="Trazado_215487" data-name="Trazado 215487" d="M154.951,178.239a8.238,8.238,0,0,0,.483,1.668,5.052,5.052,0,0,0,1.073,1.517,8.488,8.488,0,0,0,1.931,1.252,3.7,3.7,0,0,1,.975.783c.262.317.432.653.667.9a3.964,3.964,0,0,0,1.537,1.013c1,.383,1.674.511,1.661.561a1.57,1.57,0,0,1-.472-.057,8.591,8.591,0,0,1-1.256-.329,3.983,3.983,0,0,1-1.652-1.025c-.262-.273-.444-.617-.684-.9a3.54,3.54,0,0,0-.911-.722c-.351-.207-.716-.387-1.057-.6a4.8,4.8,0,0,1-.91-.711,4.944,4.944,0,0,1-1.074-1.617,4.476,4.476,0,0,1-.317-1.265,1.269,1.269,0,0,1,.006-.477" transform="translate(-20.19 -23.228)" fill="#1a2e35"/>
        <path id="Trazado_215488" data-name="Trazado 215488" d="M153.493,176.225c.041-.06.237.02.316.245s-.025.41-.094.389-.1-.156-.157-.3-.11-.274-.064-.333" transform="translate(-20.001 -22.963)" fill="#1a2e35"/>
        <path id="Trazado_215489" data-name="Trazado 215489" d="M165.27,187.6c-.019-.07.211-.188.517-.158s.51.187.478.251-.247.036-.5.013-.475-.033-.492-.106" transform="translate(-21.537 -24.426)" fill="#1a2e35"/>
        <path id="Trazado_215490" data-name="Trazado 215490" d="M225.633,169.335s3.52-.228,4.579.478.971,2.588.971,2.588v.824a3.485,3.485,0,0,1-.1,2.2c-.5,1.186-2.482.6-2.482.6s1.46.332,1.343,1.626a1.6,1.6,0,0,1-1.343,1.458,2.086,2.086,0,0,1,.124,1.252,1.76,1.76,0,0,1-1.571,1.1l-2.118.262s-8.118,1.385-9.882,1.032-5.207-1.529-5.207-1.529l-.911-9.647Z" transform="translate(-27.241 -22.063)" fill="#ffc19d"/>
        <path id="Trazado_215491" data-name="Trazado 215491" d="M204.991,171.681s-15.579,1.282-22.4-1.591l-4.579,13.557s26.517-1.405,27.892-2.319-.911-9.647-.911-9.647" transform="translate(-23.198 -22.166)" fill="#ffc19d"/>
        <path id="Trazado_215492" data-name="Trazado 215492" d="M227.77,179.373a4.923,4.923,0,0,1,1.722.24,2.9,2.9,0,0,1,1.548.8c-.043.061-.705-.317-1.618-.548a6.835,6.835,0,0,1-1.652-.5" transform="translate(-29.682 -23.372)" fill="#f37409"/>
        <path id="Trazado_215493" data-name="Trazado 215493" d="M227.678,176.132c0-.036.2-.071.517-.1a5.41,5.41,0,0,1,1.269.017,2.7,2.7,0,0,1,1.207.449c.27.2.379.381.357.4s-.184-.1-.456-.24a3.527,3.527,0,0,0-1.146-.346c-.47-.068-.908-.072-1.227-.092s-.521-.049-.52-.085" transform="translate(-29.67 -22.936)" fill="#f37409"/>
        <path id="Trazado_215494" data-name="Trazado 215494" d="M227.048,172.394c-.012-.007.021-.107.157-.235a1.232,1.232,0,0,1,.716-.282,3.837,3.837,0,0,1,1.116.088c.406.073.852.157,1.318.26a10.808,10.808,0,0,1,2.339.746,2.051,2.051,0,0,1,.835.588c-.025.033-.337-.191-.911-.416a15.512,15.512,0,0,0-2.32-.658l-1.308-.28a4.273,4.273,0,0,0-1.056-.14,1.406,1.406,0,0,0-.885.329" transform="translate(-29.588 -22.397)" fill="#f37409"/>
        <path id="Trazado_215495" data-name="Trazado 215495" d="M217.641,145.926s-9.011-17.635-10.307-24.822l-6.872,1.16,4.268,32.611Z" transform="translate(-26.124 -15.782)" fill="#ffc19d"/>
        <path id="Trazado_215496" data-name="Trazado 215496" d="M206.966,118.408l.341-1.941,3.127-8.242a2.442,2.442,0,0,0,.087-1.451l-1.243-5.031a3.029,3.029,0,0,0-2.311-2.239c-1.741-.37-4.148-.75-4.677-.173-.849.926-.54,1.544-.54,1.544s-2.239.54-2.239,1.7c0,0-1.775.926-1.621,1.621s.772,2.933,1.466,2.779a1.3,1.3,0,0,0,.895-.541l.417,1.467-.417,2.393s-1.512,5.095-1.2,6.484a23,23,0,0,0,1.2,3.4" transform="translate(-25.787 -12.906)" fill="#ffc19d"/>
        <path id="Trazado_215497" data-name="Trazado 215497" d="M200.232,120.156a.745.745,0,0,1-.088-.162l-.222-.49c-.185-.434-.456-1.074-.731-1.924a4.1,4.1,0,0,1-.272-1.465,12.527,12.527,0,0,1,.217-1.747c.227-1.237.566-2.619.995-4.127l0,.011c.13-.757.267-1.559.41-2.394l0,.051c-.131-.457-.275-.956-.422-1.465l.219.022a1.335,1.335,0,0,1-.685.518,1.058,1.058,0,0,1-.45.09.722.722,0,0,1-.4-.255,4.756,4.756,0,0,1-.748-1.534q-.134-.408-.243-.831l-.051-.213a.662.662,0,0,1-.008-.266,1.032,1.032,0,0,1,.224-.443,5.2,5.2,0,0,1,1.46-1.1l-.07.117a1.592,1.592,0,0,1,.9-1.238,5.539,5.539,0,0,1,1.439-.589l-.087.188a1.231,1.231,0,0,1,.048-.917,2.645,2.645,0,0,1,.495-.755,1.529,1.529,0,0,1,1.014-.349,7.567,7.567,0,0,1,1,.017c.659.057,1.3.155,1.935.273.317.059.626.119.94.19a3.175,3.175,0,0,1,.9.371,3.14,3.14,0,0,1,1.247,1.42,4.912,4.912,0,0,1,.268.88q.107.433.21.859l.41,1.672.391,1.6c.06.265.136.511.179.789a2.562,2.562,0,0,1-.014.811,3.807,3.807,0,0,1-.236.741l-.265.69-.506,1.318q-.491,1.275-.916,2.375l-1.385,3.56,0-.009q-.177.914-.278,1.437c-.031.15-.057.273-.078.371a.444.444,0,0,1-.036.124.5.5,0,0,1,.01-.129c.014-.1.031-.224.053-.376q.082-.526.229-1.445v0l0-.005,1.324-3.584.89-2.385.495-1.322.259-.691a3.6,3.6,0,0,0,.22-.7,2.345,2.345,0,0,0,.008-.74c-.039-.243-.119-.507-.18-.766q-.2-.784-.4-1.6t-.417-1.67l-.214-.858a4.662,4.662,0,0,0-.257-.838,2.893,2.893,0,0,0-1.149-1.3,4.975,4.975,0,0,0-1.759-.525c-.626-.116-1.264-.212-1.908-.266a7.324,7.324,0,0,0-.966-.017,1.32,1.32,0,0,0-.834.262,2.362,2.362,0,0,0-.445.677,1.009,1.009,0,0,0-.057.7l.058.15-.146.038a5.325,5.325,0,0,0-1.365.557,1.349,1.349,0,0,0-.773,1.013l0,.077-.069.038a4.977,4.977,0,0,0-1.38,1.024.789.789,0,0,0-.172.328.95.95,0,0,0,.054.371q.1.415.235.815a4.584,4.584,0,0,0,.691,1.447.5.5,0,0,0,.259.179.948.948,0,0,0,.329-.075,1.15,1.15,0,0,0,.559-.4l.148-.233.071.255c.144.511.285,1.011.414,1.468l.008.025-.005.025-.426,2.392v.006l0,.006c-.438,1.5-.791,2.873-1.031,4.1a12.78,12.78,0,0,0-.237,1.719,4.024,4.024,0,0,0,.241,1.425c.256.849.509,1.495.675,1.935.079.207.143.372.193.5a.847.847,0,0,1,.058.175" transform="translate(-25.769 -12.886)" fill="#ff9c6a"/>
        <path id="Trazado_215498" data-name="Trazado 215498" d="M199.647,103.062a2.193,2.193,0,0,1,.883-.277,2.156,2.156,0,0,1,1.031.059,1.765,1.765,0,0,1,.95.848,16.34,16.34,0,0,1,1.247,2.871,20.915,20.915,0,0,1-1.477-2.737,1.588,1.588,0,0,0-.8-.751,2.159,2.159,0,0,0-.926-.1,5.838,5.838,0,0,1-.9.09" transform="translate(-26.017 -13.39)" fill="#ff9c6a"/>
        <path id="Trazado_215499" data-name="Trazado 215499" d="M199.985,105.57c.075-.012.209.456.394,1.021a3.265,3.265,0,0,1,.283,1.057c-.063.033-.345-.387-.536-.975a1.88,1.88,0,0,1-.141-1.1" transform="translate(-26.057 -13.758)" fill="#ff9c6a"/>
        <path id="Trazado_215500" data-name="Trazado 215500" d="M199.008,105.817c.07-.03.225.19.5.338s.537.177.548.251-.321.183-.678-.02-.438-.552-.368-.57" transform="translate(-25.931 -13.789)" fill="#ff9c6a"/>
        <path id="Trazado_215501" data-name="Trazado 215501" d="M207.131,106.392a18.867,18.867,0,0,0-1.173-4.009,1.831,1.831,0,0,0-.983-1.124,2.832,2.832,0,0,0-1.274-.052,2.541,2.541,0,0,1-1.242.014c.007-.028.465-.029,1.213-.2a2.826,2.826,0,0,1,1.382.006,1.485,1.485,0,0,1,.7.484,3.354,3.354,0,0,1,.446.761,10.9,10.9,0,0,1,.864,2.878,3.943,3.943,0,0,1,.068,1.242" transform="translate(-26.384 -13.154)" fill="#ff9c6a"/>
        <path id="Trazado_215502" data-name="Trazado 215502" d="M208.453,99.618c-.005-.033.406.021.758.5a7.279,7.279,0,0,1,.834,2.019,11.361,11.361,0,0,1,.62,3c-.075.015-.382-1.316-.874-2.921a9.855,9.855,0,0,0-.735-1.99,2.319,2.319,0,0,0-.6-.609" transform="translate(-27.165 -12.981)" fill="#ff9c6a"/>
        <path id="Trazado_215503" data-name="Trazado 215503" d="M207.959,111.68c-.033-.07.548-.341.943-.98a6.183,6.183,0,0,0,.485-1.271c.032,0,.083.157.069.426a2.163,2.163,0,0,1-1.081,1.705c-.237.127-.4.15-.416.119" transform="translate(-27.1 -14.26)" fill="#ff9c6a"/>
        <path id="Trazado_215504" data-name="Trazado 215504" d="M203.745,111.616c-.011-.075.514-.169.93-.626s.487-.975.564-.969c.033,0,.07.14.032.366a1.6,1.6,0,0,1-1.158,1.238c-.223.05-.364.024-.367-.01" transform="translate(-26.551 -14.338)" fill="#ff9c6a"/>
        <path id="Trazado_215505" data-name="Trazado 215505" d="M231.484,164.036c-.014-.022.15-.093.315-.337a2.168,2.168,0,0,0,.268-1.2c0-.265-.033-.568-.023-.9a2.048,2.048,0,0,1,.258-1.043,2.149,2.149,0,0,1,.942-.716c.346-.171.684-.379.762-.742s-.008-.79.063-1.2a5.244,5.244,0,0,1,.3-1.118,13.533,13.533,0,0,0,.643-1.791,3.01,3.01,0,0,0,.047-1.251c-.063-.291-.142-.443-.121-.453a.942.942,0,0,1,.222.428,2.806,2.806,0,0,1,.036,1.314,11.487,11.487,0,0,1-.6,1.837,5.214,5.214,0,0,0-.277,1.068c-.066.371.034.764-.063,1.227a1.071,1.071,0,0,1-.366.581,2.562,2.562,0,0,1-.536.33,1.954,1.954,0,0,0-.853.616,1.863,1.863,0,0,0-.245.919c-.018.314,0,.609-.008.891a2.126,2.126,0,0,1-.373,1.262c-.21.249-.4.287-.4.276" transform="translate(-30.166 -19.976)" fill="#1a2e35"/>
        <path id="Trazado_215506" data-name="Trazado 215506" d="M64.589,195.015a12.682,12.682,0,0,0-.4,7.564c1.139,3.788,5.389,11.946,5.389,11.946l1.511,27.05,51.549-.01,4.619-47.755Z" transform="translate(-8.31 -25.257)" fill="#1a2e35"/>
        <path id="Trazado_215507" data-name="Trazado 215507" d="M119.28,243.356a2.128,2.128,0,0,0,.09-.375c.053-.274.122-.635.209-1.085.179-.944.411-2.312.681-4.008.539-3.39,1.167-8.091,1.739-13.295s1.029-9.924,1.377-13.337c.17-1.685.308-3.059.407-4.042q.063-.685.1-1.1a2.073,2.073,0,0,0,.017-.385,2.156,2.156,0,0,0-.07.379q-.057.414-.15,1.095c-.127.951-.294,2.33-.491,4.034-.375,3.436-.887,8.135-1.454,13.328s-1.171,9.9-1.661,13.3l-.6,4.018c-.066.454-.119.818-.16,1.093a2.173,2.173,0,0,0-.037.384" transform="translate(-15.544 -26.81)" fill="#375a64"/>
        <path id="Trazado_215508" data-name="Trazado 215508" d="M101.928,20.078l.836.035A16.143,16.143,0,0,1,118.234,35.6c.307,7.825.546,16.478.322,20.66-.465,8.655-9.182,9.644-9.182,9.644-.01.23.123,9.2.165,11.3L89.2,79.584l-.811-42.573c-.4-9.024,4.511-16.78,13.542-16.934" transform="translate(-11.515 -2.617)" fill="#ffc19d"/>
        <path id="Trazado_215509" data-name="Trazado 215509" d="M88.515,51.6a62.594,62.594,0,0,1-2.848-10.407,21.849,21.849,0,0,1,.725-10.668c.184-.514,1.763-3.967,2.307-3.921.389.034-.571,3.249-.37,3.584a18.519,18.519,0,0,1,2.216,10.774A48.737,48.737,0,0,1,88.515,51.6" transform="translate(-11.121 -3.467)" fill="#1a2e35"/>
        <path id="Trazado_215510" data-name="Trazado 215510" d="M110.853,72.2a20.938,20.938,0,0,1-11.137-3.8s2.489,6.411,11.162,5.989Z" transform="translate(-12.995 -8.914)" fill="#ff9c6a"/>
        <path id="Trazado_215511" data-name="Trazado 215511" d="M120.067,44.627a1.238,1.238,0,0,1-1.244,1.2,1.184,1.184,0,0,1-1.229-1.168,1.238,1.238,0,0,1,1.243-1.2,1.185,1.185,0,0,1,1.23,1.169" transform="translate(-15.325 -5.663)" fill="#1a2e35"/>
        <path id="Trazado_215512" data-name="Trazado 215512" d="M119.679,41.773c-.16.155-1.068-.577-2.4-.629-1.328-.07-2.333.574-2.471.405-.068-.076.1-.36.538-.652a3.4,3.4,0,0,1,1.986-.524,3.264,3.264,0,0,1,1.9.7c.4.331.523.629.444.7" transform="translate(-14.96 -5.261)" fill="#1a2e35"/>
        <path id="Trazado_215513" data-name="Trazado 215513" d="M105.4,45.157a1.238,1.238,0,0,1-1.244,1.2,1.183,1.183,0,0,1-1.229-1.168,1.239,1.239,0,0,1,1.243-1.2,1.186,1.186,0,0,1,1.23,1.169" transform="translate(-13.413 -5.732)" fill="#1a2e35"/>
        <path id="Trazado_215514" data-name="Trazado 215514" d="M104.946,42.18c-.16.155-1.07-.577-2.4-.629-1.329-.07-2.333.574-2.472.405-.067-.075.1-.36.539-.651a3.4,3.4,0,0,1,1.986-.524,3.266,3.266,0,0,1,1.9.7c.395.331.523.629.444.7" transform="translate(-13.04 -5.314)" fill="#1a2e35"/>
        <path id="Trazado_215515" data-name="Trazado 215515" d="M110.376,52.3a8.845,8.845,0,0,1,2.178-.3c.341-.021.665-.075.732-.3a1.726,1.726,0,0,0-.185-1.017q-.428-1.254-.9-2.629a44.465,44.465,0,0,1-1.977-6.862,44.655,44.655,0,0,1,2.525,6.686q.447,1.384.855,2.643a1.974,1.974,0,0,1,.122,1.341.854.854,0,0,1-.58.474,2.323,2.323,0,0,1-.58.057,8.682,8.682,0,0,1-2.191-.088" transform="translate(-14.362 -5.368)" fill="#1a2e35"/>
        <path id="Trazado_215516" data-name="Trazado 215516" d="M105.817,54.839c.217,0,.16,1.441,1.354,2.517s2.738.981,2.741,1.184c.016.091-.355.266-1.005.257a3.6,3.6,0,0,1-2.292-.906,3.139,3.139,0,0,1-1.043-2.107c-.03-.606.146-.957.244-.944" transform="translate(-13.757 -7.146)" fill="#1a2e35"/>
        <path id="Trazado_215517" data-name="Trazado 215517" d="M107.494,38.718c-.311.227-1.318-.658-2.719-1.374-1.387-.745-2.688-1.069-2.679-1.454.01-.181.383-.341,1-.347A5.3,5.3,0,0,1,107.21,37.7c.347.511.427.909.284,1.02" transform="translate(-13.305 -4.632)" fill="#1a2e35"/>
        <path id="Trazado_215518" data-name="Trazado 215518" d="M119.108,35.781c-.05.379-1,.57-1.962,1.112-.979.509-1.658,1.2-2,1.035-.158-.085-.184-.421.024-.873a3.264,3.264,0,0,1,3.2-1.731c.493.072.76.277.745.457" transform="translate(-14.989 -4.6)" fill="#1a2e35"/>
        <path id="Trazado_215519" data-name="Trazado 215519" d="M89.353,46.312c-.145-.07-5.877-2.005-5.933,3.922s5.908,4.761,5.92,4.591.013-8.513.013-8.513" transform="translate(-10.871 -5.989)" fill="#ffc19d"/>
        <path id="Trazado_215520" data-name="Trazado 215520" d="M87.775,52.849c-.026-.019-.1.071-.279.15a1.034,1.034,0,0,1-.772.009,2.557,2.557,0,0,1-1.161-2.3,3.411,3.411,0,0,1,.3-1.476,1.192,1.192,0,0,1,.784-.785.526.526,0,0,1,.607.289c.078.167.039.284.07.295s.128-.1.083-.343a.657.657,0,0,0-.23-.374.777.777,0,0,0-.57-.157,1.452,1.452,0,0,0-1.087.909,3.5,3.5,0,0,0-.374,1.649,2.681,2.681,0,0,0,1.483,2.574,1.1,1.1,0,0,0,.945-.148c.185-.145.217-.277.2-.288" transform="translate(-11.096 -6.275)" fill="#ff9c6a"/>
        <path id="Trazado_215521" data-name="Trazado 215521" d="M114.046,25.631c.96-.529-1.918-3.637-4.275-4.708-3.562-1.618-9-2.617-12.289-1.687-3.956,1.119-7.244,3.086-9.232,6.685a23.313,23.313,0,0,0-2.623,11.9,7.073,7.073,0,0,0,.833,3.622c.827,1.311,2.415,2.137,2.345,3.945a2.481,2.481,0,0,0,.615,1.81c1.084,1.155,2.412.071,3.022-1.015,1.3-2.321,1.451-5.094,1.567-7.753a17.324,17.324,0,0,0-.372-5.638c-.29-.989-.755-1.923-.989-2.926a3.556,3.556,0,0,1,.422-2.959,3.634,3.634,0,0,1,.482-.487,6.182,6.182,0,0,1,6.134-1.165c3.338,1.183,7.925,1.6,10.182,1.125,2.633-.558,3-2,3-2Z" transform="translate(-11.157 -2.46)" fill="#1a2e35"/>
        <path id="Trazado_215522" data-name="Trazado 215522" d="M116.774,80.525a1.462,1.462,0,0,0-.115.382c-.067.3-.149.668-.248,1.111-.21,1.031-.492,2.417-.836,4.1l-.01.044.021.043c.71,1.547,1.538,3.392,2.5,5.413l3.16,6.547c2.285,4.708,4.374,8.96,5.9,12.029l1.832,3.624.517.977a1.427,1.427,0,0,0,.205.328,1.356,1.356,0,0,0-.13-.364c-.122-.274-.269-.607-.447-1.01-.432-.928-1.011-2.171-1.714-3.681-1.464-3.1-3.512-7.372-5.8-12.081l-3.188-6.534c-.96-2-1.831-3.818-2.573-5.369l.01.089c.29-1.693.529-3.087.706-4.125.069-.449.125-.82.171-1.125a1.457,1.457,0,0,0,.032-.4" transform="translate(-15.06 -10.494)" fill="#1a2e35"/>
        <path id="Trazado_215523" data-name="Trazado 215523" d="M121.806,111.843c2.812,6.08,8.446,15.309,10.287,19.253,10.874,23.281-3.822,50.205-3.822,50.205l-65.038,1.267L67.8,139.711s-2.666-29.733-1.244-40.672c1.688-12.99,11.8-24.936,13.209-25.288l1.572-3.939A10.119,10.119,0,0,1,87.472,68.4c3.513.351,22.482,10.539,22.482,10.539l-.894,4.768" transform="translate(-8.24 -8.908)" fill="#375a64"/>
        <path id="Trazado_215524" data-name="Trazado 215524" d="M82.242,74.529a17.221,17.221,0,0,1,4.882.383,22.263,22.263,0,0,1,4.959,1.919l5.93,2.834c3.954,1.878,7.565,3.57,10.255,4.811l.109.05.073-.089,2.576-3.147a9.7,9.7,0,0,0,.9-1.195,9.941,9.941,0,0,0-1.03,1.085l-2.679,3.06.181-.039c-2.661-1.3-6.255-3.03-10.209-4.908l-5.944-2.8a21.344,21.344,0,0,0-5.058-1.861,13.264,13.264,0,0,0-3.626-.29,8.593,8.593,0,0,0-.983.11,1.1,1.1,0,0,0-.337.081" transform="translate(-10.718 -9.684)" fill="#1a2e35"/>
        <path id="Trazado_215525" data-name="Trazado 215525" d="M87.746,129.067l.871,9.137,17.534,51.957,10.674,1.766-9.131-66.1Z" transform="translate(-11.435 -16.397)" fill="#ffc19d"/>
        <path id="Trazado_215526" data-name="Trazado 215526" d="M107.566,195.307,107.03,204l.812,2.271-1.415,1.771-2.853.39a1.587,1.587,0,0,0,.13,2.065,3.81,3.81,0,0,0,2.524.772s-.011,1.642.687,1.969a4.1,4.1,0,0,0,1.891.281s-.441,1.482.157,1.777a29.785,29.785,0,0,0,4.64.405s3.254.03,3.463-.01a19.858,19.858,0,0,0,1.409-2.845s2.617.11,2.657-1.379-.724-.764-1.13-2.539-1.058-9.528-1.058-9.528l-1.758-7.187Z" transform="translate(-13.453 -25.049)" fill="#ffc19d"/>
        <path id="Trazado_215527" data-name="Trazado 215527" d="M111.956,208.141c-.066-.005-.109.474-.357,1.185a5.57,5.57,0,0,1-4.171,3.68c-.736.159-1.216.142-1.219.208a2.31,2.31,0,0,0,1.268.079,5.2,5.2,0,0,0,4.4-3.883,2.3,2.3,0,0,0,.079-1.268" transform="translate(-13.841 -27.124)" fill="#ff9c6a"/>
        <path id="Trazado_215528" data-name="Trazado 215528" d="M115.495,210.339a9.413,9.413,0,0,0-.459,1.175,7.015,7.015,0,0,1-4.2,3.973,9.552,9.552,0,0,0-1.2.394,2.551,2.551,0,0,0,1.283-.116,6.281,6.281,0,0,0,4.386-4.151,2.55,2.55,0,0,0,.186-1.275" transform="translate(-14.288 -27.411)" fill="#ff9c6a"/>
        <path id="Trazado_215529" data-name="Trazado 215529" d="M118.655,210.547a4.646,4.646,0,0,0-.206,1.283,13.338,13.338,0,0,1-.622,3,6.123,6.123,0,0,1-1.647,2.5c-.584.514-1.051.7-1.024.76a2.145,2.145,0,0,0,1.205-.533,5.551,5.551,0,0,0,1.852-2.586,9.971,9.971,0,0,0,.526-3.12,3.76,3.76,0,0,0-.084-1.3" transform="translate(-15.007 -27.438)" fill="#ff9c6a"/>
        <path id="Trazado_215530" data-name="Trazado 215530" d="M120.753,214.4a28.989,28.989,0,0,0,.695-5.109,22.5,22.5,0,0,0,.039-5.159c-.116,0-.211,2.3-.449,5.126a36.721,36.721,0,0,0-.285,5.142" transform="translate(-15.731 -26.602)" fill="#ff9c6a"/>
        <path id="Trazado_215531" data-name="Trazado 215531" d="M79.058,98.107l3.766,25.867,25.946-3.829-3.22-26.2a13.081,13.081,0,0,0-5.933-9.549,11.935,11.935,0,0,0-8.465-1.639,19.634,19.634,0,0,0-3.738.978,13.259,13.259,0,0,0-8.357,14.374" transform="translate(-10.284 -10.761)" fill="#375a64"/>
        <path id="Trazado_215532" data-name="Trazado 215532" d="M90.021,83.029a1.031,1.031,0,0,0-.237.023c-.156.025-.39.05-.691.113a13.3,13.3,0,0,0-2.579.79A12.1,12.1,0,0,0,82.933,86.3a12.9,12.9,0,0,0-3.159,4.729A14.071,14.071,0,0,0,79,97.9c.338,2.469.7,5.112,1.083,7.9.773,5.58,1.626,11.741,2.529,18.257l.029.2.2-.03,4.579-.658,21.49-3.115.17-.024-.01-.17c-.244-4.406-.564-8.469-1.025-12.067-.442-3.6-1.021-6.73-1.57-9.3s-1.091-4.572-1.468-5.938l-.458-1.554c-.051-.161-.092-.29-.125-.4a.522.522,0,0,0-.053-.131.559.559,0,0,0,.023.14l.1.405c.1.38.231.9.4,1.569.342,1.374.843,3.384,1.364,5.953s1.065,5.695,1.481,9.288c.435,3.592.733,7.647.961,12.049l.159-.195-21.5,3.077-4.579.66.231.174c-.918-6.515-1.785-12.674-2.57-18.252-.4-2.786-.771-5.426-1.122-7.893a13.824,13.824,0,0,1,.705-6.73,12.759,12.759,0,0,1,3.051-4.669,12.135,12.135,0,0,1,3.49-2.366,14.577,14.577,0,0,1,2.535-.852c.3-.075.528-.113.68-.15a1.051,1.051,0,0,0,.23-.062" transform="translate(-10.279 -10.82)" fill="#1a2e35"/>
        <path id="Trazado_215533" data-name="Trazado 215533" d="M222.4,248.7c0,.073-7.827.133-48.428.133C77.874,248.834,0,248.774,0,248.7s77.874-.133,173.968-.133c45.819,0,48.428.06,48.428.133" transform="translate(0 -32.393)" fill="#1a2e35"/>
        <path id="Trazado_215534" data-name="Trazado 215534" d="M245.892,61.42a19.642,19.642,0,1,1,17.527-21.552A19.643,19.643,0,0,1,245.892,61.42" transform="translate(-29.222 -2.898)" fill="#fafafa"/>
        <path id="Trazado_215535" data-name="Trazado 215535" d="M232.294,69.915c-.02.005-.054-.208-.232-.541a2.6,2.6,0,0,0-1.133-1.075,2.475,2.475,0,0,0-1.044-.26,2.147,2.147,0,0,0-1.173.337,2.348,2.348,0,0,0,.71,4.346,2.156,2.156,0,0,0,1.218-.055,2.457,2.457,0,0,0,.908-.579,2.6,2.6,0,0,0,.732-1.379c.063-.372.028-.585.049-.586a.5.5,0,0,1,.028.152.936.936,0,0,1,.01.188,1.445,1.445,0,0,1-.016.257,2.633,2.633,0,0,1-1.659,2.091,2.285,2.285,0,0,1-1.308.076,2.667,2.667,0,0,1-1.269-.694,2.363,2.363,0,0,1-.473-2.9,2.675,2.675,0,0,1,.982-1.062,2.287,2.287,0,0,1,1.265-.344,2.636,2.636,0,0,1,2.239,1.454,1.507,1.507,0,0,1,.1.238.943.943,0,0,1,.05.182.505.505,0,0,1,.022.153" transform="translate(-29.627 -8.847)" fill="#1a2e35"/>
        <path id="Trazado_215536" data-name="Trazado 215536" d="M226.23,77.856c-.017,0-.043-.129-.158-.334a1.636,1.636,0,0,0-.712-.662,1.386,1.386,0,0,0-1.369.053,1.448,1.448,0,0,0,.437,2.679,1.384,1.384,0,0,0,1.315-.385,1.645,1.645,0,0,0,.465-.853c.043-.231.026-.366.043-.367a.766.766,0,0,1,.028.377,1.668,1.668,0,0,1-1.049,1.341,1.469,1.469,0,0,1-.84.051,1.609,1.609,0,0,1-.488-2.986,1.472,1.472,0,0,1,.813-.218,1.646,1.646,0,0,1,.7.193,1.625,1.625,0,0,1,.717.744.766.766,0,0,1,.095.367" transform="translate(-29.071 -9.976)" fill="#1a2e35"/>
        <path id="Trazado_215537" data-name="Trazado 215537" d="M244.353,61.62s.108-.015.319-.033l.935-.08.69-.057c.252-.032.524-.092.822-.143l.957-.175a3.4,3.4,0,0,0,.523-.125l.548-.157a18.819,18.819,0,0,0,5.188-2.312,19.629,19.629,0,0,0,5.459-5.137l.612-.866c.189-.3.36-.623.544-.938.091-.158.183-.318.274-.478a3.8,3.8,0,0,0,.257-.494l.464-1.033c.077-.174.16-.347.234-.524s.123-.366.185-.551l.376-1.116c.115-.379.185-.774.282-1.166q.068-.295.137-.592c.022-.1.049-.2.065-.3l.038-.3a18.185,18.185,0,0,0,.227-2.493c0-.424.036-.852.018-1.282q-.05-.644-.1-1.3c-.021-.217-.024-.437-.058-.655l-.117-.653c-.083-.436-.145-.879-.247-1.317a20.905,20.905,0,0,0-.833-2.6l-.255-.645c-.043-.108-.083-.217-.13-.324l-.16-.311-.644-1.254c-.235-.41-.507-.8-.761-1.205-.134-.2-.249-.41-.4-.6l-.448-.568a22.081,22.081,0,0,0-1.948-2.182l-1.125-.971L256,26.435c-.1-.075-.2-.145-.3-.218l-.613-.435-.616-.437-.656-.379-.66-.379-.331-.19c-.114-.057-.231-.105-.348-.159l-1.4-.632-1.467-.5a19.48,19.48,0,0,0-12.4.305l-1.442.57-1.369.7-.339.177-.322.206-.641.411-.637.411-.593.467-.591.464-.293.233-.27.258-1.076,1.026a22.121,22.121,0,0,0-1.839,2.275l-.419.59c-.141.195-.244.412-.369.617-.233.417-.485.821-.7,1.242l-.581,1.285-.144.319c-.042.108-.076.22-.114.33l-.223.657a20.828,20.828,0,0,0-.7,2.639c-.08.442-.121.888-.182,1.327q-.043.33-.084.658c-.023.218-.017.439-.026.657q-.018.656-.035,1.3c0,.43.056.857.081,1.28a18.271,18.271,0,0,0,.35,2.478l.053.3c.023.1.054.2.081.3q.083.294.165.585c.116.386.205.777.339,1.15l.431,1.1c.07.181.142.361.212.54l.259.513.515,1.008a3.889,3.889,0,0,0,.282.481l.3.464c.2.306.386.617.591.911l.655.834a19.625,19.625,0,0,0,5.706,4.861c.242.137.476.278.711.406l.718.327.691.314c.114.05.223.107.337.149l.342.117,1.292.442c.415.129.824.2,1.2.3l.555.13a3.447,3.447,0,0,0,.528.1l.964.127c.3.037.574.083.828.1l.691.022.938.034c.211.009.32.017.32.017s-.108,0-.32,0l-.939-.015-.693-.013c-.254-.017-.531-.061-.831-.095l-.969-.119a3.35,3.35,0,0,1-.53-.1l-.559-.126c-.381-.094-.791-.164-1.208-.291L237,60.43l-.344-.115c-.115-.043-.225-.1-.339-.148l-.7-.312-.724-.325c-.237-.127-.473-.268-.716-.4a19.679,19.679,0,0,1-5.758-4.869l-.661-.838c-.206-.295-.4-.606-.6-.914l-.3-.467a3.836,3.836,0,0,1-.285-.484q-.257-.5-.521-1.014c-.087-.171-.178-.342-.263-.516l-.215-.544-.437-1.1c-.136-.376-.228-.77-.344-1.158-.056-.2-.112-.392-.168-.59-.027-.1-.059-.2-.082-.3l-.055-.3a18.422,18.422,0,0,1-.357-2.5c-.026-.427-.079-.857-.084-1.291q.017-.651.033-1.312c.01-.22,0-.443.025-.663l.083-.664c.062-.444.1-.893.182-1.339a20.931,20.931,0,0,1,.705-2.663c.075-.22.15-.442.224-.664.038-.11.073-.223.115-.332l.145-.322.584-1.3c.217-.424.471-.833.705-1.253.124-.206.23-.426.371-.623l.422-.595a22.326,22.326,0,0,1,1.854-2.3l1.084-1.036.273-.261.3-.236.6-.469.6-.471.642-.416.647-.416.324-.208.343-.178,1.381-.709,1.456-.575a19.63,19.63,0,0,1,12.51-.308l1.481.5,1.415.639c.117.054.236.1.35.161l.334.192.666.383.662.384.621.441.618.439c.1.074.207.144.307.221l.285.247,1.133.981a22.156,22.156,0,0,1,1.965,2.2l.451.573c.151.19.267.4.4.6.256.409.53.8.766,1.217l.648,1.266.161.314c.048.107.087.218.131.326.085.218.171.436.257.652a21.1,21.1,0,0,1,.837,2.624c.1.442.164.889.247,1.328.039.221.078.44.117.659s.038.441.058.66q.05.66.1,1.31c.016.434-.015.865-.02,1.292a18.311,18.311,0,0,1-.233,2.512l-.04.307c-.017.1-.044.2-.066.3-.046.2-.093.4-.138.6-.1.395-.17.792-.287,1.174s-.256.752-.381,1.124q-.1.278-.189.554c-.075.178-.157.353-.236.528q-.239.524-.471,1.039a3.745,3.745,0,0,1-.26.5l-.277.481c-.186.318-.36.638-.551.944l-.619.87a19.665,19.665,0,0,1-5.509,5.149,18.748,18.748,0,0,1-5.222,2.293l-.551.154a3.374,3.374,0,0,1-.524.122l-.962.167c-.3.049-.572.105-.825.135l-.691.048-.938.062c-.212.013-.32.015-.32.015" transform="translate(-29.198 -2.875)" fill="#1a2e35"/>
        <path id="Trazado_215538" data-name="Trazado 215538" d="M247.252,43.4a4.391,4.391,0,0,0,2.617-4.063,4.128,4.128,0,1,0-8.239-.038,4.388,4.388,0,0,0,2.626,4.1c-6.34.955-6.052,7.845-6.052,7.845l14.99.07s.343-6.965-5.942-7.914" transform="translate(-31.042 -4.551)" fill="#375a64"/>
        <path id="Trazado_215539" data-name="Trazado 215539" d="M256.866,39.084a2.2,2.2,0,0,0,1.309-2.032,2.064,2.064,0,1,0-4.12-.019,2.193,2.193,0,0,0,1.312,2.051c-3.169.477-3.026,3.922-3.026,3.922l7.495.035s.171-3.482-2.971-3.957" transform="translate(-32.884 -4.541)" fill="#375a64"/>
        <path id="Trazado_215540" data-name="Trazado 215540" d="M236.748,39.544a2.2,2.2,0,0,0,1.309-2.032,2.064,2.064,0,1,0-4.12-.019,2.193,2.193,0,0,0,1.312,2.051c-3.169.477-3.026,3.922-3.026,3.922l7.495.035s.171-3.482-2.971-3.957" transform="translate(-30.263 -4.601)" fill="#375a64"/>
        <rect id="Rectángulo_45333" data-name="Rectángulo 45333" width="1.021" height="39.45" transform="matrix(0.543, -0.84, 0.84, 0.543, 197.901, 28.756)" fill="#1a2e35"/>
      </g>
    </g>
  </g>
</svg>
