<svg xmlns="http://www.w3.org/2000/svg" xmlns:xlink="http://www.w3.org/1999/xlink" width="535" height="530" viewBox="0 0 535 530">
  <defs>
    <filter id="Trazado_211520" x="0" y="0" width="535" height="530" filterUnits="userSpaceOnUse">
      <feOffset dy="3" input="SourceAlpha"/>
      <feGaussianBlur stdDeviation="5" result="blur"/>
      <feFlood flood-opacity="0.161"/>
      <feComposite operator="in" in2="blur"/>
      <feComposite in="SourceGraphic"/>
    </filter>
    <clipPath id="clip-path">
      <rect id="Rectángulo_44833" data-name="Rectángulo 44833" width="348.261" height="338.474" fill="none"/>
    </clipPath>
    <clipPath id="clip-path-3">
      <rect id="Rectángulo_44826" data-name="Rectángulo 44826" width="5.775" height="58" fill="none"/>
    </clipPath>
    <clipPath id="clip-path-4">
      <rect id="Rectángulo_44827" data-name="Rectángulo 44827" width="17.566" height="68.672" fill="none"/>
    </clipPath>
    <clipPath id="clip-path-5">
      <rect id="Rectángulo_44828" data-name="Rectángulo 44828" width="81.939" height="17.073" fill="none"/>
    </clipPath>
    <clipPath id="clip-path-6">
      <rect id="Rectángulo_44829" data-name="Rectángulo 44829" width="44.438" height="108.485" fill="none"/>
    </clipPath>
    <clipPath id="clip-path-7">
      <rect id="Rectángulo_44830" data-name="Rectángulo 44830" width="81.938" height="14.619" fill="none"/>
    </clipPath>
    <clipPath id="clip-path-8">
      <rect id="Rectángulo_44831" data-name="Rectángulo 44831" width="44.438" height="92.891" fill="none"/>
    </clipPath>
  </defs>
  <g id="Grupo_150093" data-name="Grupo 150093" transform="translate(-270.498 -9872.923)">
    <g transform="matrix(1, 0, 0, 1, 270.5, 9872.92)" filter="url(#Trazado_211520)">
      <path id="Trazado_211520-2" data-name="Trazado 211520" d="M34.695,0H470.305C489.467,0,505,12.064,505,26.946V473.054C505,487.936,489.467,500,470.305,500H34.695C15.533,500,0,487.936,0,473.054V26.946C0,12.064,15.533,0,34.695,0Z" transform="translate(15 12)" fill="#feeeab"/>
    </g>
    <path id="Rectángulo_44154" data-name="Rectángulo 44154" d="M0,0H505a0,0,0,0,1,0,0V62a32,32,0,0,1-32,32H32A32,32,0,0,1,0,62V0A0,0,0,0,1,0,0Z" transform="translate(285.5 10294.659)" fill="#fbdb5e"/>
    <path id="Trazado_216359" data-name="Trazado 216359" d="M-66.382-4.814a5.193,5.193,0,0,1-.8,2.622A4.833,4.833,0,0,1-69.238-.43,7,7,0,0,1-72.261.2a5.584,5.584,0,0,1-4.414-1.826,7.54,7.54,0,0,1-1.611-5.156v-.7a8.607,8.607,0,0,1,.728-3.657,5.513,5.513,0,0,1,2.095-2.422,5.844,5.844,0,0,1,3.164-.854,6.129,6.129,0,0,1,4.16,1.362,5.383,5.383,0,0,1,1.787,3.755h-3.418a2.547,2.547,0,0,0-.654-1.865,2.691,2.691,0,0,0-1.875-.566,2.048,2.048,0,0,0-1.875.957A6.151,6.151,0,0,0-74.8-7.725v1.006a6.806,6.806,0,0,0,.571,3.252,2.091,2.091,0,0,0,1.968.977,2.632,2.632,0,0,0,1.807-.557,2.363,2.363,0,0,0,.664-1.768Zm1.055-.566A6.236,6.236,0,0,1-64.712-8.2a4.4,4.4,0,0,1,1.768-1.9,5.323,5.323,0,0,1,2.705-.664,4.858,4.858,0,0,1,3.74,1.47,5.64,5.64,0,0,1,1.367,4v.117A5.472,5.472,0,0,1-56.5-1.255,4.871,4.871,0,0,1-60.22.2a4.927,4.927,0,0,1-3.623-1.353,5.29,5.29,0,0,1-1.475-3.667Zm3.291.205a3.932,3.932,0,0,0,.459,2.148,1.529,1.529,0,0,0,1.357.684q1.758,0,1.8-2.705v-.332q0-2.842-1.816-2.842-1.65,0-1.787,2.451Zm11.465-5.391.107,1.24a3.633,3.633,0,0,1,3.018-1.436A2.675,2.675,0,0,1-44.741-9.17a3.516,3.516,0,0,1,3.105-1.592q3.213,0,3.3,3.887V0h-3.3V-6.67a2.014,2.014,0,0,0-.273-1.182,1.164,1.164,0,0,0-1-.371,1.559,1.559,0,0,0-1.455.869l.01.137V0h-3.3V-6.65a2.117,2.117,0,0,0-.264-1.2,1.161,1.161,0,0,0-1.006-.371,1.578,1.578,0,0,0-1.445.869V0h-3.291V-10.566Zm23.926,5.361a6.372,6.372,0,0,1-1.108,3.931A3.554,3.554,0,0,1-30.747.2,3.046,3.046,0,0,1-33.14-.869V4.063h-3.291V-10.566h3.076l.1.977a3.046,3.046,0,0,1,2.49-1.172,3.582,3.582,0,0,1,3.037,1.44,6.45,6.45,0,0,1,1.084,3.96Zm-3.291-.205q0-2.812-1.641-2.812a1.549,1.549,0,0,0-1.562.84v4.16a1.6,1.6,0,0,0,1.582.879q1.572,0,1.621-2.715ZM-18.8-7.588l-1.084-.078a1.947,1.947,0,0,0-1.992.977V0h-3.291V-10.566h3.086l.107,1.357a2.548,2.548,0,0,1,2.314-1.553,3.209,3.209,0,0,1,.918.117ZM-11.958,0a3.716,3.716,0,0,1-.312-.947A3.06,3.06,0,0,1-14.81.2a3.749,3.749,0,0,1-2.539-.9,2.875,2.875,0,0,1-1.045-2.271,2.955,2.955,0,0,1,1.27-2.6,6.468,6.468,0,0,1,3.691-.879h1.016v-.559q0-1.462-1.26-1.462a1.03,1.03,0,0,0-1.172,1.158H-18.14a2.95,2.95,0,0,1,1.3-2.487,5.479,5.479,0,0,1,3.325-.956,4.8,4.8,0,0,1,3.193.986,3.429,3.429,0,0,1,1.2,2.705v4.678A4.79,4.79,0,0,0-8.667-.166V0Zm-2.061-2.148A1.836,1.836,0,0,0-13-2.412a1.653,1.653,0,0,0,.581-.6V-4.7h-.957q-1.719,0-1.719,1.543a.942.942,0,0,0,.3.728A1.1,1.1,0,0,0-14.019-2.148Zm16.172-.2A1.464,1.464,0,0,0,3.228-2.72,1.379,1.379,0,0,0,3.6-3.77H6.685A3.653,3.653,0,0,1,5.439-.918,4.631,4.631,0,0,1,2.231.2,4.689,4.689,0,0,1-1.4-1.25a5.7,5.7,0,0,1-1.328-4v-.137a6.436,6.436,0,0,1,.591-2.827A4.3,4.3,0,0,1-.435-10.1,5.081,5.081,0,0,1,2.2-10.762,4.573,4.573,0,0,1,5.474-9.619a4.053,4.053,0,0,1,1.211,3.1H3.6a1.807,1.807,0,0,0-.4-1.26,1.382,1.382,0,0,0-1.074-.439Q.845-8.223.63-6.592A11.508,11.508,0,0,0,.562-5.166,4.52,4.52,0,0,0,.942-2.959,1.319,1.319,0,0,0,2.153-2.344ZM7.661-5.381A6.236,6.236,0,0,1,8.276-8.2a4.4,4.4,0,0,1,1.768-1.9,5.323,5.323,0,0,1,2.705-.664,4.858,4.858,0,0,1,3.74,1.47,5.64,5.64,0,0,1,1.367,4v.117a5.472,5.472,0,0,1-1.372,3.921A4.871,4.871,0,0,1,12.769.2,4.927,4.927,0,0,1,9.146-1.157,5.29,5.29,0,0,1,7.671-4.824Zm3.291.205a3.932,3.932,0,0,0,.459,2.148,1.529,1.529,0,0,0,1.357.684q1.758,0,1.8-2.705v-.332q0-2.842-1.816-2.842-1.65,0-1.787,2.451ZM25.7-7.588l-1.084-.078a1.947,1.947,0,0,0-1.992.977V0H19.331V-10.566h3.086l.107,1.357a2.548,2.548,0,0,1,2.314-1.553,3.209,3.209,0,0,1,.918.117Zm7.578,0-1.084-.078a1.947,1.947,0,0,0-1.992.977V0H26.909V-10.566H30L30.1-9.209a2.548,2.548,0,0,1,2.314-1.553,3.209,3.209,0,0,1,.918.117ZM37.935,0h-3.3V-10.566h3.3Zm-3.5-13.291a1.469,1.469,0,0,1,.508-1.152,1.916,1.916,0,0,1,1.318-.449,1.916,1.916,0,0,1,1.318.449,1.469,1.469,0,0,1,.508,1.152,1.469,1.469,0,0,1-.508,1.152,1.916,1.916,0,0,1-1.318.449,1.916,1.916,0,0,1-1.318-.449A1.469,1.469,0,0,1,34.438-13.291ZM45.073.2a5.432,5.432,0,0,1-3.936-1.45,5.008,5.008,0,0,1-1.5-3.774V-5.3a6.489,6.489,0,0,1,.6-2.861,4.395,4.395,0,0,1,1.753-1.919,5.292,5.292,0,0,1,2.734-.679A4.574,4.574,0,0,1,48.237-9.38a5.43,5.43,0,0,1,1.289,3.853v1.279H42.983a2.372,2.372,0,0,0,.771,1.4,2.3,2.3,0,0,0,1.543.508,2.958,2.958,0,0,0,2.441-1.094l1.5,1.777A4.2,4.2,0,0,1,47.5-.308,5.891,5.891,0,0,1,45.073.2ZM44.7-8.223q-1.445,0-1.719,1.914H46.3v-.254a1.63,1.63,0,0,0-.4-1.226A1.593,1.593,0,0,0,44.7-8.223Zm9.17-2.344.107,1.24A3.583,3.583,0,0,1,57-10.762a3.015,3.015,0,0,1,2.466.986,4.7,4.7,0,0,1,.845,2.969V0h-3.3V-6.67a1.783,1.783,0,0,0-.322-1.177,1.491,1.491,0,0,0-1.172-.376,1.569,1.569,0,0,0-1.436.762V0H50.786V-10.566Zm12.09-2.627v2.627H67.7v2.285H65.962v4.834a1.234,1.234,0,0,0,.215.83,1.152,1.152,0,0,0,.85.234,4.828,4.828,0,0,0,.82-.059V-.088A6.074,6.074,0,0,1,65.991.2a3.448,3.448,0,0,1-2.51-.8,3.282,3.282,0,0,1-.811-2.432V-8.281H61.323v-2.285h1.348v-2.627ZM74.106.2a5.432,5.432,0,0,1-3.936-1.45,5.008,5.008,0,0,1-1.5-3.774V-5.3a6.489,6.489,0,0,1,.6-2.861,4.395,4.395,0,0,1,1.753-1.919,5.292,5.292,0,0,1,2.734-.679A4.574,4.574,0,0,1,77.271-9.38,5.43,5.43,0,0,1,78.56-5.527v1.279H72.017a2.372,2.372,0,0,0,.771,1.4,2.3,2.3,0,0,0,1.543.508,2.958,2.958,0,0,0,2.441-1.094l1.5,1.777A4.2,4.2,0,0,1,76.533-.308,5.891,5.891,0,0,1,74.106.2Zm-.371-8.418q-1.445,0-1.719,1.914h3.32v-.254a1.63,1.63,0,0,0-.4-1.226A1.593,1.593,0,0,0,73.735-8.223Z" transform="translate(537.998 10348.659)" fill="#12263f"/>
    <g id="Grupo_148792" data-name="Grupo 148792" transform="translate(356.739 9920.987)">
      <g id="Grupo_148834" data-name="Grupo 148834" clip-path="url(#clip-path)">
        <g id="Grupo_148833" data-name="Grupo 148833">
          <g id="Grupo_148832" data-name="Grupo 148832" clip-path="url(#clip-path)">
            <path id="Trazado_212664" data-name="Trazado 212664" d="M215.047,154.933l-88.067-.823-26.689-.126L93.035,154l-1.888.025a4.26,4.26,0,0,0-.643.034,4.09,4.09,0,0,0,.643.041l1.887.044,7.256.089,26.689.141,88.071.054c34.374,0,65.5.041,88.035.2,11.266.079,20.384.183,26.686.3,3.15.058,5.6.121,7.257.183a13.652,13.652,0,0,1,2.529.186,13.663,13.663,0,0,1-2.531.161c-1.66.046-4.106.083-7.258.111-6.3.055-15.421.068-26.689.035-22.534-.062-53.66-.329-88.032-.675" transform="translate(8.704 14.81)" fill="#fff"/>
            <path id="Trazado_212665" data-name="Trazado 212665" d="M214.277,163.456l-86.864-14.121-26.346-4.152L93.9,144.105l-1.868-.26a3.947,3.947,0,0,0-.641-.061,3.864,3.864,0,0,0,.628.138l1.857.33,7.154,1.186,26.341,4.171,86.994,13.348c33.957,5.184,64.7,9.926,86.934,13.488,11.117,1.779,20.107,3.26,26.314,4.33,3.1.535,5.509.967,7.138,1.279a13.477,13.477,0,0,1,2.469.569,13.522,13.522,0,0,1-2.527-.22c-1.648-.2-4.07-.536-7.188-.984-6.235-.9-15.246-2.259-26.371-3.993-22.25-3.466-52.955-8.433-86.853-13.97" transform="translate(8.789 13.828)" fill="#fff"/>
            <path id="Trazado_212666" data-name="Trazado 212666" d="M212.136,171.785l-83.491-27.244L103.3,136.408l-6.908-2.161-1.8-.542a3.806,3.806,0,0,0-.624-.158,4.083,4.083,0,0,0,.6.233l1.78.609,6.871,2.267,25.337,8.152L212.3,171.3c32.693,10.314,62.285,19.7,83.665,26.623,10.69,3.46,19.329,6.3,25.283,8.3,2.977,1,5.285,1.8,6.841,2.358a13.261,13.261,0,0,1,2.345.941,13.209,13.209,0,0,1-2.46-.6c-1.593-.453-3.933-1.151-6.939-2.07-6.013-1.838-14.69-4.563-25.4-7.979-21.411-6.828-50.927-16.434-83.5-27.092" transform="translate(9.037 12.844)" fill="#fff"/>
            <path id="Trazado_212667" data-name="Trazado 212667" d="M208.676,179.674l-78.043-39.666L106.922,128.1l-6.471-3.191-1.694-.811a3.932,3.932,0,0,0-.59-.253,3.959,3.959,0,0,0,.554.321l1.66.875,6.419,3.287c5.617,2.827,13.708,6.9,23.7,11.925l78.411,38.976c30.615,15.189,58.318,28.985,78.31,39.091,10,5.05,18.069,9.174,23.626,12.066,2.778,1.445,4.927,2.583,6.375,3.372a13.3,13.3,0,0,1,2.165,1.285,13.25,13.25,0,0,1-2.331-.975c-1.5-.692-3.7-1.74-6.516-3.108-5.64-2.736-13.767-6.755-23.786-11.765-20.038-10.018-47.633-24.016-78.081-39.52" transform="translate(9.441 11.911)" fill="#fff"/>
            <path id="Trazado_212668" data-name="Trazado 212668" d="M203.99,186.931l-70.7-51.036-21.5-15.364L105.9,116.4l-1.541-1.059a3.927,3.927,0,0,0-.542-.339,4,4,0,0,0,.494.4l1.5,1.115,5.812,4.224,21.493,15.377L204.3,186.525c27.8,19.653,52.939,37.489,71.06,50.506,9.062,6.508,16.371,11.807,21.394,15.508,2.511,1.849,4.452,3.3,5.755,4.3a13.2,13.2,0,0,1,1.931,1.6,13.213,13.213,0,0,1-2.146-1.315c-1.369-.911-3.371-2.28-5.936-4.059-5.13-3.559-12.511-8.764-21.6-15.235-18.181-12.938-43.185-30.956-70.765-50.9" transform="translate(9.985 11.06)" fill="#fff"/>
            <path id="Trazado_212669" data-name="Trazado 212669" d="M198.2,193.381c-24.084-23.859-45.879-45.451-61.676-61.1l-18.784-18.427-5.144-4.974-1.354-1.278a3.947,3.947,0,0,0-.48-.418,4.044,4.044,0,0,0,.424.471l1.3,1.327c1.175,1.172,2.877,2.87,5.065,5.05l18.771,18.44c15.943,15.511,37.939,36.909,62.245,60.555,24.312,23.616,46.294,45.035,62.112,60.634,7.91,7.8,14.282,14.138,18.653,18.553,2.185,2.207,3.87,3.932,5,5.117a12.883,12.883,0,0,1,1.652,1.87,13.117,13.117,0,0,1-1.908-1.625c-1.207-1.107-2.965-2.761-5.213-4.908-4.5-4.29-10.956-10.547-18.9-18.314-15.89-15.528-37.706-37.107-61.76-60.973" transform="translate(10.653 10.308)" fill="#fff"/>
            <path id="Trazado_212670" data-name="Trazado 212670" d="M191.457,198.879,140.311,129.2c-6.58-8.871-11.908-16.055-15.606-21.042l-4.286-5.69L119.286,101a3.836,3.836,0,0,0-.408-.485,3.72,3.72,0,0,0,.343.529l1.073,1.508,4.2,5.755,15.591,21.053,51.8,69.227c20.238,27,38.524,51.485,51.653,69.285,6.566,8.9,11.846,16.125,15.456,21.146,1.805,2.51,3.193,4.469,4.117,5.81a12.744,12.744,0,0,1,1.332,2.1,12.9,12.9,0,0,1-1.626-1.893c-1.015-1.276-2.487-3.176-4.365-5.635-3.757-4.919-9.135-12.075-15.739-20.948C229.5,250.7,211.4,226.09,191.457,198.879" transform="translate(11.433 9.667)" fill="#fff"/>
            <path id="Trazado_212671" data-name="Trazado 212671" d="M183.9,203.29c-15.349-29.91-29.238-56.978-39.306-76.6l-12.029-23.155c-1.433-2.709-2.549-4.817-3.319-6.272-.379-.7-.672-1.235-.882-1.621a3.654,3.654,0,0,0-.326-.54,3.7,3.7,0,0,0,.254.576l.817,1.654c.748,1.467,1.828,3.591,3.218,6.322l12.011,23.163,40.026,76.246c15.646,29.746,29.769,56.705,39.873,76.281,5.053,9.787,9.106,17.726,11.863,23.235,1.379,2.755,2.435,4.9,3.132,6.366a12.457,12.457,0,0,1,.977,2.275,12.752,12.752,0,0,1-1.3-2.117c-.8-1.414-1.947-3.514-3.406-6.23-2.919-5.428-7.081-13.314-12.176-23.081-10.194-19.532-24.108-46.594-39.425-76.5" transform="translate(12.315 9.147)" fill="#fff"/>
            <path id="Trazado_212672" data-name="Trazado 212672" d="M175.721,206.5c-10.315-31.886-19.649-60.74-26.415-81.655l-8.131-24.706c-.978-2.894-1.737-5.145-2.262-6.7-.263-.748-.465-1.323-.609-1.736a3.722,3.722,0,0,0-.235-.583,3.648,3.648,0,0,0,.158.607c.127.418.307,1,.538,1.758l2.154,6.735,8.112,24.711,27.185,81.416c10.636,31.767,20.221,60.551,27.03,81.427,3.407,10.438,6.123,18.9,7.955,24.76.915,2.93,1.61,5.211,2.061,6.763a12.365,12.365,0,0,1,.6,2.4,12.57,12.57,0,0,1-.943-2.289c-.559-1.519-1.354-3.77-2.356-6.674-2-5.808-4.837-14.232-8.288-24.656-6.906-20.847-16.266-49.7-26.549-81.576" transform="translate(13.279 8.764)" fill="#ececec"/>
            <path id="Trazado_212673" data-name="Trazado 212673" d="M167.118,208.418c-5.025-33.065-9.572-62.988-12.868-84.677-1.7-10.812-3.075-19.563-4.03-25.642-.5-3.007-.882-5.347-1.149-6.963-.138-.778-.244-1.378-.321-1.808a3.8,3.8,0,0,0-.136-.613,3.785,3.785,0,0,0,.057.624c.059.433.141,1.036.249,1.819.24,1.62.589,3.966,1.037,6.98.95,6.078,2.32,14.831,4.01,25.644l13.665,84.56c5.359,33,10.164,62.888,13.508,84.547,1.674,10.828,2.987,19.6,3.846,25.667.431,3.034.748,5.393.942,6.995a12.451,12.451,0,0,1,.2,2.459,12.441,12.441,0,0,1-.56-2.405c-.307-1.586-.727-3.929-1.245-6.95-1.039-6.042-2.473-14.8-4.193-25.617-3.445-21.644-8.019-51.567-13.014-84.62" transform="translate(14.293 8.532)" fill="#ececec"/>
            <path id="Trazado_212674" data-name="Trazado 212674" d="M158.465,209c.308-33.422.589-63.668.791-85.593.048-10.937.087-19.79.113-25.938-.009-3.046-.016-5.416-.021-7.053-.012-.79-.021-1.4-.027-1.834a4.01,4.01,0,0,0-.034-.625,3.478,3.478,0,0,0-.043.624c-.011.436-.025,1.045-.044,1.834-.02,1.637-.048,4.007-.087,7.053-.031,6.147-.075,15-.128,25.938,0,21.925,0,52.173,0,85.6.024,33.407,0,63.66-.156,85.561-.073,10.95-.175,19.812-.293,25.937-.059,3.062-.121,5.439-.184,7.052a12.7,12.7,0,0,1-.19,2.459,12.586,12.586,0,0,1-.168-2.46c-.047-1.614-.089-3.991-.118-7.054-.061-6.125-.08-14.988-.053-25.939.05-21.9.3-52.152.641-85.558" transform="translate(15.178 8.46)" fill="#ececec"/>
            <path id="Trazado_212675" data-name="Trazado 212675" d="M153.053,208.261c5.652-32.97,10.767-62.805,14.475-84.432,1.794-10.8,3.247-19.537,4.255-25.607.477-3.01.848-5.353,1.1-6.971.114-.783.2-1.384.265-1.816a3.528,3.528,0,0,0,.062-.623,3.7,3.7,0,0,0-.141.611c-.081.429-.193,1.027-.339,1.8-.282,1.614-.691,3.951-1.216,6.953-1.013,6.068-2.473,14.808-4.275,25.6-3.5,21.658-8.337,51.538-13.679,84.557-5.312,33.006-10.171,62.888-13.824,84.5-1.824,10.806-3.342,19.545-4.438,25.577-.548,3.016-.991,5.356-1.312,6.939a12.408,12.408,0,0,1-.583,2.4,12.411,12.411,0,0,1,.225-2.455c.209-1.6.549-3.956,1.008-6.986.917-6.061,2.315-14.818,4.093-25.632,3.552-21.626,8.642-51.472,14.318-84.421" transform="translate(12.829 8.542)" fill="#ececec"/>
            <path id="Trazado_212676" data-name="Trazado 212676" d="M147.835,206.186c10.926-31.693,20.813-60.373,27.979-81.162,3.522-10.387,6.372-18.8,8.352-24.635.959-2.9,1.7-5.156,2.219-6.715.24-.754.424-1.336.556-1.753a3.541,3.541,0,0,0,.163-.606,3.725,3.725,0,0,0-.24.581l-.626,1.731c-.54,1.55-1.323,3.795-2.328,6.68l-8.371,24.63c-6.968,20.851-16.583,49.62-27.206,81.409-10.592,31.781-20.231,60.547-27.34,81.33-3.553,10.393-6.469,18.79-8.529,24.578-1.03,2.895-1.847,5.137-2.421,6.65a12.505,12.505,0,0,1-.967,2.28,12.314,12.314,0,0,1,.619-2.392c.465-1.549,1.182-3.822,2.125-6.745,1.888-5.845,4.686-14.28,8.194-24.686,7.011-20.814,16.877-49.507,27.822-81.175" transform="translate(10.489 8.782)" fill="#fff"/>
            <path id="Trazado_212677" data-name="Trazado 212677" d="M142.895,202.827c15.919-29.629,30.324-56.44,40.765-75.875,5.16-9.719,9.337-17.588,12.237-23.051,1.417-2.717,2.519-4.832,3.28-6.291.36-.709.636-1.255.833-1.646a3.705,3.705,0,0,0,.26-.572,3.65,3.65,0,0,0-.33.537l-.9,1.614c-.785,1.448-1.921,3.545-3.38,6.241l-12.255,23.044-40.053,76.231c-15.608,29.764-29.788,56.7-40.172,76.133-5.19,9.72-9.428,17.567-12.4,22.969-1.485,2.7-2.654,4.791-3.465,6.2a12.94,12.94,0,0,1-1.321,2.1,12.537,12.537,0,0,1,1-2.266c.711-1.458,1.788-3.594,3.193-6.335,2.812-5.482,6.942-13.384,12.091-23.124,10.3-19.482,24.68-46.31,40.614-75.911" transform="translate(8.27 9.174)" fill="#fff"/>
            <path id="Trazado_212678" data-name="Trazado 212678" d="M138.337,198.278,190.8,129.529,206.6,108.62l4.251-5.715,1.089-1.5a3.8,3.8,0,0,0,.349-.527,3.819,3.819,0,0,0-.413.481l-1.146,1.457c-1.008,1.311-2.466,3.211-4.342,5.651-3.747,4.954-9.143,12.088-15.81,20.9l-51.821,69.21c-20.2,27.027-38.54,51.474-51.924,69.094-6.689,8.811-12.138,15.918-15.942,20.8-1.9,2.442-3.393,4.329-4.42,5.6a12.979,12.979,0,0,1-1.644,1.878,12.79,12.79,0,0,1,1.353-2.086c.937-1.332,2.344-3.279,4.173-5.772,3.659-4.988,9.009-12.164,15.661-21,13.3-17.679,31.824-41.991,52.324-68.808" transform="translate(6.234 9.702)" fill="#fff"/>
            <path id="Trazado_212679" data-name="Trazado 212679" d="M134.278,192.659l62.831-59.982,18.949-18.267,5.115-5,1.314-1.316a3.728,3.728,0,0,0,.429-.467,4.152,4.152,0,0,0-.485.413l-1.365,1.266-5.193,4.926c-4.494,4.327-10.967,10.557-18.962,18.255l-62.267,60.533c-24.285,23.643-46.309,45.021-62.349,60.4-8.019,7.693-14.537,13.89-19.077,18.14-2.27,2.125-4.044,3.763-5.262,4.859a13.043,13.043,0,0,1-1.925,1.607,13.082,13.082,0,0,1,1.671-1.855c1.139-1.175,2.84-2.884,5.047-5.072,4.412-4.374,10.846-10.655,18.831-18.38,15.969-15.453,38.157-36.669,62.7-60.062" transform="translate(4.427 10.351)" fill="#fff"/>
            <path id="Trazado_212680" data-name="Trazado 212680" d="M130.821,186.1l71.666-49.753,21.641-15.18L229.98,117l1.509-1.1a3.9,3.9,0,0,0,.5-.4,3.989,3.989,0,0,0-.545.334l-1.552,1.044-5.917,4.081-21.653,15.166c-18.236,12.906-43.4,30.71-71.2,50.385-27.772,19.686-52.95,37.474-71.257,50.244-9.152,6.387-16.583,11.523-21.747,15.035-2.583,1.756-4.6,3.107-5.976,4a13.346,13.346,0,0,1-2.157,1.3,13,13,0,0,1,1.947-1.581c1.312-.988,3.267-2.42,5.8-4.247,5.059-3.654,12.42-8.887,21.544-15.31,18.247-12.85,43.562-30.455,71.547-49.852" transform="translate(2.884 11.109)" fill="#fff"/>
            <path id="Trazado_212681" data-name="Trazado 212681" d="M128.057,178.766l78.789-38.249,23.818-11.706,6.45-3.229c.719-.369,1.272-.654,1.668-.859a3.929,3.929,0,0,0,.556-.316,3.775,3.775,0,0,0-.592.247l-1.7.8-6.5,3.131-23.826,11.689-78.425,38.948c-30.6,15.225-58.326,28.969-78.462,38.8-10.067,4.917-18.234,8.861-23.9,11.545-2.833,1.342-5.04,2.369-6.546,3.046a13.417,13.417,0,0,1-2.34.953,13.173,13.173,0,0,1,2.177-1.267c1.455-.776,3.615-1.893,6.407-3.314,5.584-2.84,13.7-6.891,23.742-11.849,20.09-9.92,47.925-23.46,78.688-38.365" transform="translate(1.639 11.965)" fill="#fff"/>
            <path id="Trazado_212682" data-name="Trazado 212682" d="M126.057,170.815l84-25.724,25.416-7.919,6.893-2.2,1.787-.593a3.861,3.861,0,0,0,.6-.228,4.071,4.071,0,0,0-.625.153l-1.809.525-6.928,2.1-25.421,7.9L126.214,171.3c-32.678,10.358-62.288,19.692-83.765,26.321-10.737,3.318-19.441,5.963-25.471,7.747-3.014.892-5.36,1.569-6.959,2.007a13.377,13.377,0,0,1-2.465.582,13.248,13.248,0,0,1,2.355-.919c1.564-.545,3.878-1.318,6.865-2.293,5.973-1.952,14.641-4.71,25.363-8.071,21.446-6.725,51.126-15.84,83.92-25.854" transform="translate(0.726 12.902)" fill="#fff"/>
            <path id="Trazado_212683" data-name="Trazado 212683" d="M124.867,162.456l87.118-12.56,26.379-3.932,7.165-1.121,1.86-.312a3.979,3.979,0,0,0,.63-.133,3.906,3.906,0,0,0-.642.056l-1.871.242-7.18,1.012-26.384,3.914-87,13.333c-33.95,5.23-64.7,9.918-86.984,13.182-11.142,1.634-20.165,2.916-26.408,3.755-3.121.42-5.548.73-7.2.919a13.532,13.532,0,0,1-2.529.2,13.482,13.482,0,0,1,2.474-.546c1.631-.3,4.041-.708,7.15-1.215,6.215-1.014,15.219-2.413,26.354-4.092,22.268-3.361,53.053-7.825,87.059-12.7" transform="translate(0.176 13.887)" fill="#fff"/>
            <path id="Trazado_212684" data-name="Trazado 212684" d="M124.51,154.035l88.067.717,26.689.093c3.134-.01,5.573-.019,7.257-.025l1.888-.026a4.3,4.3,0,0,0,.642-.035,4.006,4.006,0,0,0-.642-.039l-1.885-.042-7.257-.081-26.689-.107-88.072.052c-34.372.045-65.5.037-88.035-.1-11.267-.066-20.386-.159-26.685-.27-3.152-.055-5.6-.114-7.257-.174A13.668,13.668,0,0,1,0,153.816a13.649,13.649,0,0,1,2.531-.163c1.66-.048,4.106-.089,7.258-.121,6.3-.062,15.421-.087,26.689-.067,22.534.035,53.66.264,88.033.569" transform="translate(0 14.759)" fill="#fff"/>
            <path id="Trazado_212685" data-name="Trazado 212685" d="M124.991,148.773l86.883,14.014,26.35,4.121,7.172,1.069,1.869.257a3.941,3.941,0,0,0,.641.061,3.866,3.866,0,0,0-.628-.138l-1.857-.327-7.155-1.177-26.348-4.139-87.011-13.241c-33.963-5.142-64.713-9.846-86.951-13.381-11.12-1.766-20.113-3.236-26.32-4.3-3.1-.531-5.51-.959-7.139-1.27a13.466,13.466,0,0,1-2.47-.566,13.492,13.492,0,0,1,2.528.218c1.646.2,4.071.531,7.189.975,6.236.888,15.248,2.241,26.375,3.962,22.256,3.438,52.966,8.367,86.872,13.862" transform="translate(0.195 12.478)" fill="#fff"/>
            <path id="Trazado_212686" data-name="Trazado 212686" d="M126.3,143.7l83.526,27.14,25.355,8.1,6.91,2.152,1.8.539a3.816,3.816,0,0,0,.623.158,3.745,3.745,0,0,0-.6-.232l-1.781-.608-6.874-2.258-25.348-8.12L126.14,144.183c-32.708-10.273-62.311-19.624-83.7-26.519-10.694-3.446-19.337-6.275-25.294-8.274-2.979-1-5.287-1.792-6.845-2.349a13.061,13.061,0,0,1-2.346-.938,13.4,13.4,0,0,1,2.461.6c1.593.451,3.934,1.146,6.941,2.061,6.015,1.832,14.7,4.546,25.4,7.948,21.42,6.8,50.949,16.37,83.541,26.988" transform="translate(0.765 10.204)" fill="#fff"/>
            <path id="Trazado_212687" data-name="Trazado 212687" d="M128.42,138.9l78.095,39.571,23.727,11.878,6.475,3.183,1.694.809a4.137,4.137,0,0,0,.59.252,3.794,3.794,0,0,0-.554-.321l-1.66-.871-6.424-3.281-23.718-11.895-78.462-38.88c-30.635-15.151-58.354-28.914-78.36-38.993-10-5.038-18.08-9.152-23.641-12.037-2.78-1.441-4.931-2.576-6.38-3.364a13.244,13.244,0,0,1-2.166-1.283,13.531,13.531,0,0,1,2.332.971c1.5.691,3.7,1.735,6.52,3.1,5.642,2.729,13.776,6.738,23.8,11.737,20.052,9.993,47.665,23.957,78.132,39.424" transform="translate(1.696 8.046)" fill="#fff"/>
            <path id="Trazado_212688" data-name="Trazado 212688" d="M131.292,134.466l70.77,50.949,21.523,15.338,5.883,4.128c.665.455,1.176.806,1.543,1.056a4.092,4.092,0,0,0,.542.34,3.86,3.86,0,0,0-.494-.4c-.357-.264-.855-.634-1.5-1.114l-5.817-4.216-21.512-15.352-71.244-50.321C103.163,115.255,78,97.449,59.86,84.453c-9.071-6.5-16.387-11.786-21.414-15.48-2.515-1.847-4.456-3.3-5.76-4.293a13.174,13.174,0,0,1-1.934-1.6A13.192,13.192,0,0,1,32.9,64.4c1.371.909,3.374,2.276,5.941,4.051C43.975,72,51.364,77.2,60.462,83.656c18.2,12.916,43.226,30.9,70.831,50.81" transform="translate(2.957 6.067)" fill="#fff"/>
            <path id="Trazado_212689" data-name="Trazado 212689" d="M134.845,130.519,196.6,191.546l18.807,18.4,5.151,4.968c.584.549,1.033.973,1.355,1.277a4.023,4.023,0,0,0,.481.417,3.742,3.742,0,0,0-.425-.47l-1.3-1.327c-1.177-1.17-2.882-2.865-5.072-5.044L196.8,191.354l-62.323-60.479C110.134,107.288,88.124,85.9,72.286,70.316c-7.92-7.788-14.3-14.12-18.676-18.529-2.188-2.2-3.875-3.929-5-5.111a12.889,12.889,0,0,1-1.654-1.869,13.131,13.131,0,0,1,1.91,1.622c1.209,1.106,2.97,2.758,5.221,4.9,4.5,4.286,10.971,10.535,18.923,18.291,15.91,15.51,37.755,37.062,61.839,60.9" transform="translate(4.515 4.309)" fill="#fff"/>
            <path id="Trazado_212690" data-name="Trazado 212690" d="M138.985,127.158c20.007,27.185,38.113,51.788,51.237,69.619L205.855,217.8l4.294,5.686,1.135,1.466a3.834,3.834,0,0,0,.408.484,3.76,3.76,0,0,0-.344-.529l-1.075-1.507-4.2-5.749L190.45,196.617l-51.886-69.163c-20.273-26.979-38.591-51.438-51.742-69.222C80.244,49.34,74.955,42.121,71.338,37.1c-1.809-2.509-3.2-4.466-4.125-5.805a12.773,12.773,0,0,1-1.335-2.1,12.922,12.922,0,0,1,1.628,1.891c1.017,1.276,2.492,3.173,4.373,5.631,3.763,4.914,9.151,12.065,15.766,20.928,13.234,17.726,31.364,42.318,51.339,69.505" transform="translate(6.336 2.808)" fill="#fff"/>
            <path id="Trazado_212691" data-name="Trazado 212691" d="M143.605,124.468c15.387,29.892,29.313,56.943,39.405,76.55,5.085,9.756,9.2,17.655,12.059,23.139l3.327,6.268.886,1.62a3.777,3.777,0,0,0,.326.54,3.757,3.757,0,0,0-.254-.575l-.82-1.653c-.748-1.466-1.832-3.589-3.225-6.317-2.854-5.486-6.965-13.388-12.042-23.148l-40.124-76.2C127.459,94.969,113.3,68.029,103.17,48.464c-5.067-9.78-9.129-17.715-11.894-23.22-1.382-2.751-2.441-4.9-3.139-6.36a12.6,12.6,0,0,1-.981-2.275,12.619,12.619,0,0,1,1.3,2.115c.8,1.414,1.951,3.513,3.415,6.225,2.926,5.426,7.1,13.308,12.206,23.067,10.22,19.52,24.17,46.564,39.525,76.453" transform="translate(8.382 1.597)" fill="#fff"/>
            <path id="Trazado_212692" data-name="Trazado 212692" d="M148.594,122.521l26.522,81.622,8.163,24.7c.981,2.893,1.744,5.144,2.271,6.7.264.748.467,1.323.612,1.735a3.582,3.582,0,0,0,.236.583,3.754,3.754,0,0,0-.159-.606c-.128-.418-.308-1-.54-1.758-.5-1.562-1.229-3.823-2.163-6.732l-8.145-24.7c-6.99-20.846-16.634-49.6-27.292-81.382C137.422,90.92,127.8,62.15,120.964,41.281c-3.42-10.433-6.148-18.892-7.987-24.749-.92-2.93-1.618-5.21-2.07-6.762a12.269,12.269,0,0,1-.6-2.4,12.557,12.557,0,0,1,.946,2.288c.561,1.518,1.358,3.766,2.364,6.669,2.011,5.805,4.856,14.226,8.32,24.646,6.933,20.838,16.331,49.679,26.656,81.543" transform="translate(10.608 0.709)" fill="#fff"/>
            <path id="Trazado_212693" data-name="Trazado 212693" d="M153.84,121.361c5.068,33.06,9.654,62.976,12.978,84.661,1.713,10.809,3.1,19.56,4.064,25.637.5,3.007.889,5.346,1.158,6.962l.323,1.808a3.857,3.857,0,0,0,.137.612,3.733,3.733,0,0,0-.058-.624c-.059-.432-.143-1.035-.25-1.819-.243-1.619-.6-3.965-1.047-6.978-.958-6.077-2.338-14.829-4.044-25.64-3.527-21.655-8.4-51.53-13.773-84.543-5.4-32.992-10.246-62.877-13.619-84.531-1.688-10.827-3.012-19.6-3.88-25.663-.434-3.033-.754-5.392-.95-6.994a12.448,12.448,0,0,1-.2-2.458,12.423,12.423,0,0,1,.563,2.4c.308,1.585.731,3.928,1.255,6.949,1.046,6.04,2.492,14.791,4.226,25.611,3.473,21.639,8.084,51.558,13.123,84.6" transform="translate(12.95 0.172)" fill="#fff"/>
            <path id="Trazado_212694" data-name="Trazado 212694" d="M159.308,121.011c-.266,33.424-.508,63.669-.683,85.593-.033,10.937-.06,19.79-.079,25.939.013,3.046.024,5.416.031,7.053.013.789.022,1.4.03,1.834a3.789,3.789,0,0,0,.036.625,3.853,3.853,0,0,0,.041-.625c.01-.435.023-1.044.042-1.834.018-1.637.044-4.007.078-7.052.022-6.148.054-15,.094-25.939-.027-21.925-.066-52.171-.109-85.6-.068-33.407-.08-63.659.044-85.56.059-10.951.15-19.813.26-25.938.055-3.062.114-5.44.175-7.052A12.566,12.566,0,0,1,159.454,0a12.669,12.669,0,0,1,.17,2.46c.05,1.612.094,3.99.128,7.053.069,6.125.1,14.988.086,25.939-.022,21.9-.238,52.153-.529,85.559" transform="translate(15.248 0)" fill="#fff"/>
            <path id="Trazado_212695" data-name="Trazado 212695" d="M168.077,121.474c-5.609,32.976-10.684,62.819-14.363,84.449-1.78,10.8-3.222,19.542-4.222,25.612-.472,3.011-.841,5.355-1.1,6.973-.113.782-.2,1.384-.262,1.816a3.53,3.53,0,0,0-.062.623,3.846,3.846,0,0,0,.141-.611c.079-.43.191-1.028.335-1.805.28-1.614.685-3.951,1.206-6.954,1.005-6.071,2.453-14.812,4.242-25.61,3.475-21.663,8.27-51.549,13.567-84.573,5.268-33.012,10.088-62.9,13.712-84.516,1.81-10.808,3.316-19.549,4.4-25.583.545-3.017.984-5.357,1.3-6.94a12.428,12.428,0,0,1,.58-2.4,12.413,12.413,0,0,1-.221,2.457c-.207,1.6-.544,3.957-1,6.987-.91,6.062-2.3,14.821-4.06,25.637-3.522,21.631-8.574,51.483-14.206,84.438" transform="translate(14.241 0.188)" fill="#fff"/>
            <path id="Trazado_212696" data-name="Trazado 212696" d="M176.65,122.747c-10.883,31.706-20.732,60.4-27.871,81.2L140.46,228.59c-.955,2.9-1.7,5.159-2.21,6.717-.239.755-.422,1.336-.554,1.754a3.555,3.555,0,0,0-.162.606,3.666,3.666,0,0,0,.239-.582c.149-.411.355-.985.625-1.731.538-1.551,1.318-3.8,2.32-6.682,1.976-5.842,4.822-14.251,8.339-24.641l27.1-81.444C186.7,90.793,196.3,62.015,203.386,41.224c3.537-10.4,6.442-18.8,8.5-24.588,1.027-2.9,1.84-5.14,2.413-6.654a12.279,12.279,0,0,1,.965-2.281,12.416,12.416,0,0,1-.616,2.392c-.464,1.55-1.176,3.825-2.117,6.748-1.88,5.847-4.668,14.285-8.161,24.7-6.984,20.823-16.811,49.529-27.715,81.21" transform="translate(13.227 0.741)" fill="#fff"/>
            <path id="Trazado_212697" data-name="Trazado 212697" d="M184.775,124.8,144.11,200.727,131.9,223.793l-3.271,6.3-.832,1.646a3.779,3.779,0,0,0-.259.573,3.655,3.655,0,0,0,.33-.537l.9-1.615c.783-1.449,1.915-3.548,3.372-6.245l12.223-23.059c10.234-19.538,24.352-46.494,39.953-76.281,15.569-29.784,29.712-56.734,40.071-76.183,5.177-9.726,9.405-17.579,12.369-22.985,1.482-2.7,2.648-4.795,3.457-6.2a12.718,12.718,0,0,1,1.319-2.106,12.665,12.665,0,0,1-1,2.267c-.708,1.458-1.782,3.6-3.184,6.338-2.805,5.486-6.925,13.393-12.061,23.139C215.02,68.334,200.669,95.18,184.775,124.8" transform="translate(12.266 1.644)" fill="#fff"/>
            <path id="Trazado_212698" data-name="Trazado 212698" d="M192.25,127.59,139.873,196.4c-6.648,8.824-12.029,15.968-15.767,20.928l-4.243,5.721-1.086,1.5a3.667,3.667,0,0,0-.347.526,3.96,3.96,0,0,0,.411-.481c.273-.346.652-.83,1.146-1.459l4.333-5.656L140.1,196.566l51.731-69.274C212,100.24,230.3,75.771,243.664,58.133c6.678-8.819,12.117-15.933,15.914-20.822,1.9-2.444,3.387-4.333,4.413-5.6a13.073,13.073,0,0,1,1.641-1.88,12.732,12.732,0,0,1-1.349,2.088c-.935,1.333-2.34,3.281-4.167,5.777-3.651,4.992-8.992,12.176-15.633,21.022-13.278,17.7-31.769,42.031-52.234,68.873" transform="translate(11.39 2.869)" fill="#fff"/>
            <path id="Trazado_212699" data-name="Trazado 212699" d="M198.9,131.041,136.146,191.1,117.221,209.39l-5.107,5.01-1.313,1.318a3.95,3.95,0,0,0-.429.467,3.785,3.785,0,0,0,.485-.413l1.364-1.267,5.186-4.933,18.938-18.278,62.188-60.611C222.785,107.009,244.783,85.6,260.8,70.2c8.009-7.7,14.52-13.907,19.053-18.163,2.267-2.128,4.039-3.769,5.256-4.866a13.2,13.2,0,0,1,1.922-1.61,12.833,12.833,0,0,1-1.668,1.858c-1.137,1.176-2.836,2.887-5.039,5.077-4.407,4.379-10.832,10.668-18.808,18.4-15.947,15.473-38.109,36.718-62.619,60.14" transform="translate(10.615 4.382)" fill="#fff"/>
            <path id="Trazado_212700" data-name="Trazado 212700" d="M204.567,135.062l-71.6,49.841L111.345,200.11c-2.524,1.8-4.49,3.207-5.847,4.176l-1.507,1.1a3.947,3.947,0,0,0-.5.4,3.945,3.945,0,0,0,.544-.334l1.55-1.047c1.372-.948,3.36-2.322,5.913-4.088l21.633-15.193,71.131-50.472c27.745-19.72,52.9-37.539,71.19-50.332,9.144-6.4,16.569-11.544,21.728-15.063,2.579-1.758,4.593-3.111,5.97-4.012a13.351,13.351,0,0,1,2.156-1.3,12.9,12.9,0,0,1-1.945,1.584c-1.311.989-3.263,2.424-5.79,4.253-5.055,3.66-12.408,8.9-21.525,15.337-18.229,12.873-43.522,30.509-71.482,49.941" transform="translate(9.954 6.15)" fill="#fff"/>
            <path id="Trazado_212701" data-name="Trazado 212701" d="M209.121,139.551,130.383,177.9l-23.8,11.735-6.447,3.238-1.667.861a4.054,4.054,0,0,0-.555.317,3.806,3.806,0,0,0,.591-.248c.4-.189.968-.454,1.7-.8l6.5-3.139,23.81-11.718c20.075-10,47.77-23.8,78.374-39.046,30.577-15.262,58.288-29.041,78.411-38.9,10.061-4.931,18.222-8.885,23.885-11.575,2.83-1.345,5.037-2.375,6.542-3.055a13.363,13.363,0,0,1,2.339-.955,13.18,13.18,0,0,1-2.175,1.269c-1.455.778-3.613,1.9-6.4,3.323-5.58,2.847-13.686,6.907-23.726,11.877-20.076,9.946-47.894,23.521-78.637,38.464" transform="translate(9.417 8.138)" fill="#fff"/>
            <path id="Trazado_212702" data-name="Trazado 212702" d="M212.439,144.4l-83.966,25.829-25.4,7.949-6.891,2.212-1.786.6a4,4,0,0,0-.6.228,3.878,3.878,0,0,0,.625-.153l1.808-.527,6.926-2.106,25.41-7.932,83.718-26.577c32.666-10.4,62.263-19.77,83.73-26.427,10.734-3.33,19.433-5.987,25.461-7.778,3.013-.9,5.358-1.575,6.955-2.016a13.441,13.441,0,0,1,2.465-.584,13.383,13.383,0,0,1-2.353.922c-1.562.546-3.875,1.322-6.861,2.3-5.972,1.959-14.634,4.729-25.353,8.1-21.437,6.752-51.106,15.9-83.885,25.96" transform="translate(9.021 10.301)" fill="#fff"/>
            <path id="Trazado_212703" data-name="Trazado 212703" d="M214.429,149.5l-87.1,12.667-26.375,3.966-7.164,1.13-1.859.315a3.95,3.95,0,0,0-.629.134,4,4,0,0,0,.641-.057l1.871-.244,7.18-1.022,26.378-3.946L214.35,149c33.942-5.273,64.688-10,86.966-13.29,11.138-1.648,20.16-2.941,26.4-3.788,3.121-.423,5.547-.737,7.2-.927a13.325,13.325,0,0,1,2.528-.2,13.543,13.543,0,0,1-2.473.549c-1.631.3-4.041.713-7.148,1.223-6.214,1.021-15.217,2.431-26.349,4.124-22.263,3.389-53.044,7.89-87.043,12.809" transform="translate(8.781 12.577)" fill="#fff"/>
            <path id="Trazado_212704" data-name="Trazado 212704" d="M321.024,307.832c0,.1-67.184.186-150.04.186-82.885,0-150.054-.083-150.054-.186s67.169-.186,150.054-.186c82.857,0,150.04.083,150.04.186" transform="translate(2.013 29.588)" fill="#1a2e35"/>
            <path id="Trazado_212705" data-name="Trazado 212705" d="M222.276,271.436s-3.215,7.275-2.1,13.8-.144,14.233,2.71,15.592,4.088-.217,4.253-3.275.524-7.749.614-11.359a32.682,32.682,0,0,1,.295-4.585l1.215-9.792Z" transform="translate(21.153 26.106)" fill="#ffc19d"/>
            <path id="Trazado_212706" data-name="Trazado 212706" d="M234.372,267.549s4.47,17.837,4.455,20.047a16.534,16.534,0,0,1-1.437,5.311s-1.357,7.814-2.09,8.76-8.013,2.2-8.013,2.2l-4.663-2.663,1.892-4.06,4.025.657.927-3.346-2.612-3.866-2.234-18.633Z" transform="translate(21.411 25.732)" fill="#ffc19d"/>
            <path id="Trazado_212707" data-name="Trazado 212707" d="M229.768,280.107a4.822,4.822,0,0,1-.248.919c-.171.586-.432,1.429-.707,2.484a48.454,48.454,0,0,0-1.429,8.376c-.071.828-.106,1.638-.134,2.42a19.9,19.9,0,0,1-.141,2.281,4.487,4.487,0,0,1-1.9,3.34,2.516,2.516,0,0,1-2.572.038,1.73,1.73,0,0,1-.529-.49c-.091-.138-.121-.219-.112-.224a2.919,2.919,0,0,0,.713.586,2.394,2.394,0,0,0,2.361-.135,4.274,4.274,0,0,0,1.7-3.164,20.484,20.484,0,0,0,.116-2.244c.023-.788.056-1.606.127-2.44a41.8,41.8,0,0,1,1.548-8.416c.309-1.052.609-1.888.824-2.461a4.555,4.555,0,0,1,.385-.871" transform="translate(21.351 26.94)" fill="#ff9c6a"/>
            <path id="Trazado_212708" data-name="Trazado 212708" d="M222.354,273.089l-3.226-11.019s11.8-8.343,12.447-7.794,3.609,16.469,3.609,16.469l-6.052,6.5Z" transform="translate(21.075 24.453)" fill="#ffc19d"/>
            <path id="Trazado_212709" data-name="Trazado 212709" d="M202.682,123.274c-4.005-6.022-25.02-11.9-25.02-11.9l5.646,4.708,12.2,65.749,26.951,96.914,21-3.929s-27.163-131.073-40.773-151.54" transform="translate(17.087 10.711)" fill="#f47409"/>
            <path id="Trazado_212710" data-name="Trazado 212710" d="M216.025,240.03l-49.618,24.377s-3.946,29.547-.551,49.929h44.866c11.361-39.157,5.3-74.305,5.3-74.305" transform="translate(15.819 23.085)" fill="#1a2e35"/>
            <path id="Trazado_212711" data-name="Trazado 212711" d="M178.793,269.207l-52.175-42.369s-20.965,31.9-14.371,63.636c.989,4.757,4.126,18.263,6.187,25.13h61.612c-1.565-22.433-1.253-46.4-1.253-46.4" transform="translate(10.672 21.816)" fill="#1a2e35"/>
            <path id="Trazado_212712" data-name="Trazado 212712" d="M220.4,243.726c.19-.07-42.145,30.946-42.145,30.946L121.5,236.133l10.474-20.047s29.053,12.387,44.113,9.28,31.567-16.55,31.567-16.55c3.708,8.061,10.438,25.977,12.753,34.91" transform="translate(11.685 20.083)" fill="#1a2e35"/>
            <path id="Trazado_212713" data-name="Trazado 212713" d="M187.435,247.835l-.768,1.065-2.944,4.173c-2.571,3.688-6.305,9.042-11.026,15.811l-.041.058.007.07c.536,5.919.74,12.793,1.107,20.447s.1,15.125.531,24.174l.6-.031c-.463-9.046-.226-16.515-.617-24.167-.4-7.616-.641-14.476-1.215-20.386L183.9,253.2l2.859-4.233.723-1.1a2.583,2.583,0,0,0,.229-.383,2.748,2.748,0,0,0-.275.351" transform="translate(16.605 23.802)" fill="#375a64"/>
            <path id="Trazado_212714" data-name="Trazado 212714" d="M186.843,44.777a22.456,22.456,0,0,1,8.341,19.03c-.271,3.492-1.234,7.479,1.038,10.145,2.249,2.64,6.666,2.563,8.821,5.279,2.539,3.2.413,7.956,1.322,11.936a8.081,8.081,0,0,0,8.594,6,31.538,31.538,0,0,1-15.636,6.785q-2.188-2.808-4.375-5.618c1.659,1.967,1.218,5.1-.389,7.11s-4.085,3.1-6.536,3.883a40.023,40.023,0,0,1-35.073-5.7" transform="translate(14.71 4.306)" fill="#1a2e35"/>
            <path id="Trazado_212715" data-name="Trazado 212715" d="M124.011,77.334c.875-2.678,2.344-5.16,2.932-7.914,1.265-5.92-1.619-12.585,1.253-17.915,2.044-3.794,6.4-5.651,10.519-6.919s8.538-2.344,11.61-5.367c2.253-2.216,3.534-5.27,5.779-7.495,3.2-3.17,7.922-4.244,12.417-4.521,4.616-.284,9.39.16,13.542,2.2s7.6,5.863,8.34,10.429c.361,2.226.087,4.559.789,6.7.772,2.357,2.622,4.191,3.763,6.392a11.86,11.86,0,0,1-2.965,14.217L160.3,108.081c-6.657,2.515-22.79-.527-27.936-5.444S121.8,84.1,124.011,77.334" transform="translate(11.878 2.609)" fill="#1a2e35"/>
            <path id="Trazado_212716" data-name="Trazado 212716" d="M189.391,60.532c-1.307-9.294-8.376-20.278-17.606-18.579l-28.5,9.578c-2.8.516-.8,5.09-.523,7.928l6.2,64.261c-.047.014-3.849,2.748-5.225,2.221a.386.386,0,0,0-.458.579c3.421,4.969,19.576,26.692,36.223,20.06,3.719-1.482-.387-13.2.047-17.543l-.5-11.091c-.368-5.662-.546-7.981-.539-7.93,0,0,11.78-2.9,13.055-18.656.635-7.837-.73-20.5-2.18-30.828" transform="translate(13.639 4.018)" fill="#ffc19d"/>
            <path id="Trazado_212717" data-name="Trazado 212717" d="M181.205,71.8a2,2,0,0,1-1.77,2.163,1.916,1.916,0,0,1-2.2-1.642,2,2,0,0,1,1.768-2.164,1.917,1.917,0,0,1,2.2,1.643" transform="translate(17.045 6.746)" fill="#1a2e35"/>
            <path id="Trazado_212718" data-name="Trazado 212718" d="M163.382,72.74a2,2,0,0,1-1.77,2.163,1.915,1.915,0,0,1-2.2-1.642,2.005,2.005,0,0,1,1.768-2.164,1.917,1.917,0,0,1,2.2,1.643" transform="translate(15.331 6.836)" fill="#1a2e35"/>
            <path id="Trazado_212719" data-name="Trazado 212719" d="M184.811,66.115c-.217.366-2.075-.809-4.4-.47-2.329.3-3.818,1.934-4.123,1.639-.147-.129.034-.76.679-1.494a5.37,5.37,0,0,1,3.237-1.717,5.316,5.316,0,0,1,3.566.783c.816.536,1.151,1.094,1.041,1.26" transform="translate(16.95 6.158)" fill="#1a2e35"/>
            <path id="Trazado_212720" data-name="Trazado 212720" d="M165.813,67.719c-.274.337-2.1-.99-4.6-.884-2.5.068-4.275,1.52-4.561,1.2-.139-.14.124-.738.9-1.393a6.064,6.064,0,0,1,3.633-1.367,5.9,5.9,0,0,1,3.682,1.11c.8.6,1.086,1.178.953,1.33" transform="translate(15.062 6.278)" fill="#1a2e35"/>
            <path id="Trazado_212721" data-name="Trazado 212721" d="M172.368,82.5a14.24,14.24,0,0,1,3.441-.9c.545-.1,1.056-.248,1.119-.629a2.8,2.8,0,0,0-.491-1.6q-.926-1.932-1.944-4.053c-2.71-5.775-4.717-10.541-4.483-10.647s2.62,4.487,5.33,10.261q.983,2.138,1.878,4.083a3.183,3.183,0,0,1,.449,2.131,1.381,1.381,0,0,1-.84.871,3.677,3.677,0,0,1-.922.2,14.011,14.011,0,0,1-3.537.277" transform="translate(16.349 6.22)" fill="#1a2e35"/>
            <path id="Trazado_212722" data-name="Trazado 212722" d="M177.163,104.377a39.729,39.729,0,0,1-21.278-3.959s6.08,10.523,21.551,7.869Z" transform="translate(14.992 9.658)" fill="#ff9c6a"/>
            <path id="Trazado_212723" data-name="Trazado 212723" d="M166.228,86.8a3.406,3.406,0,0,1,1.1-1.311,2.717,2.717,0,0,1,1.859-.187,4.347,4.347,0,0,1,2.435,1.239,2.611,2.611,0,0,1,.614,2.572c-.241.9-1.582,1.391-2.5,1.552a4.1,4.1,0,0,1-2.677-.563,2.364,2.364,0,0,1-1.371-1.774,2.891,2.891,0,0,1,.536-1.527" transform="translate(15.936 8.197)" fill="#ff9c6a"/>
            <path id="Trazado_212724" data-name="Trazado 212724" d="M166.606,83.9c.347-.047.532,2.284,2.655,3.786s4.586,1.055,4.629,1.379c.044.145-.519.5-1.565.605a5.827,5.827,0,0,1-3.854-1.019,5.075,5.075,0,0,1-2.077-3.187c-.163-.968.053-1.565.213-1.564" transform="translate(15.998 8.069)" fill="#1a2e35"/>
            <path id="Trazado_212725" data-name="Trazado 212725" d="M165.688,59.95c-.167.6-2.334.489-4.83.987-2.508.447-4.484,1.341-4.859.843-.168-.239.145-.817.923-1.445A8.57,8.57,0,0,1,164.3,58.94c.955.3,1.456.726,1.386,1.01" transform="translate(14.999 5.639)" fill="#1a2e35"/>
            <path id="Trazado_212726" data-name="Trazado 212726" d="M183.588,58.927c-.395.521-2.124.145-4.16.277-2.04.07-3.732.617-4.168.137-.193-.235.042-.744.757-1.264a6.393,6.393,0,0,1,3.319-1.06,6.31,6.31,0,0,1,3.392.727c.757.446,1.032.93.859,1.183" transform="translate(16.85 5.483)" fill="#1a2e35"/>
            <path id="Trazado_212727" data-name="Trazado 212727" d="M137.53,53.834c1.437-2.213,4.021-3.351,6.483-4.3a143.52,143.52,0,0,1,33-8.405c1.405,2.316.106,5.469-2.015,7.155s-4.844,2.352-7.382,3.3-5.139,2.412-6.184,4.911c-1.112,2.658-.173,5.806-1.15,8.516-1.68,4.664-8.188,6.168-9.843,10.84-1.251,3.535.8,7.3,1.309,11.011a13.4,13.4,0,0,1-13.157,15.251q-1.158-20.073-2.316-40.146c-.161-2.788-.269-5.79,1.252-8.131" transform="translate(13.098 3.955)" fill="#1a2e35"/>
            <path id="Trazado_212728" data-name="Trazado 212728" d="M113.076,86.734c2.113-1.894,4.763-3.533,5.606-6.243,1.227-3.947-1.944-8.586.1-12.182,1.862-3.279,7.349-3.112,9.08-6.462,1.352-2.615-.2-4.931.312-7.228s3.775-4.312,6.113-4.038l18.275,26.488c1.7,8.885,3.4,13.615,1.5,18.813-1.046,2.851-2.41,5.63-2.82,8.64s.36,6.418,2.819,8.2c-10.927.857-21.167-4.863-30.63-10.392L113.41,96.476a7.318,7.318,0,0,1-2.751-2.292c-1.468-2.429.3-5.555,2.418-7.45" transform="translate(10.591 4.862)" fill="#1a2e35"/>
            <path id="Trazado_212729" data-name="Trazado 212729" d="M122.009,101.391a5.2,5.2,0,0,0,1.167.224,9.962,9.962,0,0,0,3.4-.24,10.551,10.551,0,0,0,4.748-2.556,10.365,10.365,0,0,0,3.125-6.387,10.67,10.67,0,0,0-.358-4.191,17.04,17.04,0,0,0-2.029-4.061,16.1,16.1,0,0,1-2.093-4.214,5.43,5.43,0,0,1,.585-4.634c.993-1.332,2.84-1.657,4.552-2.348a5,5,0,0,0,2.33-1.725,4.894,4.894,0,0,0,.752-2.865c-.024-2-.876-3.83-1.243-5.691a6.218,6.218,0,0,1-.018-2.791,3.892,3.892,0,0,1,1.577-2.216c1.577-1.127,3.59-1.307,5.528-1.478a11.833,11.833,0,0,0,5.631-1.656,10.6,10.6,0,0,0,3.854-4.179,17.485,17.485,0,0,0,1.423-5.236,24.487,24.487,0,0,1,1.071-4.913,10.918,10.918,0,0,1,2.571-3.873,12.269,12.269,0,0,1,14.327-2.014,14.972,14.972,0,0,1,4.209,3.205,19.678,19.678,0,0,1,2.6,3.729,1,1,0,0,0-.1-.284c-.084-.181-.187-.463-.378-.8a14.327,14.327,0,0,0-1.935-2.807,14.858,14.858,0,0,0-4.229-3.356,12.822,12.822,0,0,0-6.967-1.543,13.028,13.028,0,0,0-7.89,3.491,11.435,11.435,0,0,0-2.727,4.056,24.848,24.848,0,0,0-1.128,5.019,17.005,17.005,0,0,1-1.384,5.053,10.018,10.018,0,0,1-3.64,3.923,11.224,11.224,0,0,1-5.364,1.557c-1.917.172-4.071.335-5.838,1.589a4.541,4.541,0,0,0-1.822,2.572,6.837,6.837,0,0,0,.011,3.076c.4,1.972,1.224,3.742,1.241,5.582a4.3,4.3,0,0,1-.638,2.507,4.4,4.4,0,0,1-2.054,1.511c-.817.344-1.694.581-2.54.939a5.2,5.2,0,0,0-2.246,1.616,5.973,5.973,0,0,0-.66,5.131,16.481,16.481,0,0,0,2.187,4.35,16.738,16.738,0,0,1,2.007,3.924,10.29,10.29,0,0,1,.38,4,10.036,10.036,0,0,1-2.925,6.179,10.426,10.426,0,0,1-4.562,2.572,11.827,11.827,0,0,1-4.51.258" transform="translate(11.734 3.121)" fill="#375a64"/>
            <path id="Trazado_212730" data-name="Trazado 212730" d="M108.75,82.561a2.3,2.3,0,0,0-.361.893,3.917,3.917,0,0,0,.469,2.71,4.164,4.164,0,0,0,1.4,1.47,4.35,4.35,0,0,0,2.334.622,5.456,5.456,0,0,0,4.786-3.039,7.3,7.3,0,0,0,.779-3.331,10.2,10.2,0,0,0-.768-3.612c-.867-2.364-2.441-4.668-2.475-7.432a5.045,5.045,0,0,1,1.267-3.757,5.522,5.522,0,0,1,3.973-1.241,13.394,13.394,0,0,0,4.731-.49,4.116,4.116,0,0,0,1.946-1.639,5.859,5.859,0,0,0,.8-2.41,19.4,19.4,0,0,0-.395-4.858,10.671,10.671,0,0,1,.252-4.5,11.366,11.366,0,0,1,5.086-6.674c2.368-1.428,5.108-1.583,7.577-1.73a22.351,22.351,0,0,0,6.917-1.091,14.691,14.691,0,0,0,7.579-6.524,10.369,10.369,0,0,0,1.3-3.468A20.172,20.172,0,0,1,154.43,35.8a14.525,14.525,0,0,1-2.71,3.307,14.248,14.248,0,0,1-4.809,2.918,22.229,22.229,0,0,1-6.79.987c-2.469.128-5.311.25-7.846,1.751a11.927,11.927,0,0,0-5.39,7.013,11.279,11.279,0,0,0-.28,4.753,19.05,19.05,0,0,1,.39,4.7,4.074,4.074,0,0,1-2.355,3.54,13.075,13.075,0,0,1-4.5.453,6.1,6.1,0,0,0-4.387,1.433,5.626,5.626,0,0,0-1.426,4.2,10.717,10.717,0,0,0,1,4.07c.529,1.239,1.12,2.389,1.569,3.538a9.724,9.724,0,0,1,.771,3.424,6.878,6.878,0,0,1-.689,3.123,5.076,5.076,0,0,1-4.391,2.887,4.054,4.054,0,0,1-2.172-.525,3.953,3.953,0,0,1-1.341-1.336,3.9,3.9,0,0,1-.556-2.562c.094-.608.266-.9.233-.915" transform="translate(10.417 3.122)" fill="#1a2e35"/>
            <path id="Trazado_212731" data-name="Trazado 212731" d="M216.629,87.958a4.331,4.331,0,0,1-.036,2.858,3.766,3.766,0,0,1-2.271,2.3,3.945,3.945,0,0,1-4.01-1.1,3.634,3.634,0,0,1-.941-2.289,7.545,7.545,0,0,1,.419-2.766c.58-1.85,1.764-3.863,1.583-6.275a8.818,8.818,0,0,0-3.325-6.315,10.342,10.342,0,0,0-3.406-1.794,15.183,15.183,0,0,0-3.891-.559,20.4,20.4,0,0,1-3.779-.395,5.022,5.022,0,0,1-2.94-1.828,6.169,6.169,0,0,1-1.063-3.233,12.311,12.311,0,0,1,.283-3.371c.447-2.184,1.1-4.306.98-6.393a9.687,9.687,0,0,0-1.952-5.31,12.51,12.51,0,0,0-3.56-3.008,23.556,23.556,0,0,1-2.848-1.967,7.3,7.3,0,0,1-1.79-2.3c-.011,0,.005.068.046.192a3.13,3.13,0,0,0,.219.535,5.823,5.823,0,0,0,1.359,1.758,21.635,21.635,0,0,0,2.819,2.081,12.387,12.387,0,0,1,3.394,2.979,9.293,9.293,0,0,1,1.786,5.064c.1,1.967-.551,4.025-1.027,6.251a12.89,12.89,0,0,0-.316,3.529,6.777,6.777,0,0,0,1.167,3.561,5.645,5.645,0,0,0,3.291,2.074,20.745,20.745,0,0,0,3.9.415,14.7,14.7,0,0,1,3.738.529,9.759,9.759,0,0,1,3.2,1.675,8.248,8.248,0,0,1,3.128,5.865c.193,2.206-.9,4.137-1.5,6.08a7.972,7.972,0,0,0-.406,2.961,4.093,4.093,0,0,0,1.1,2.561,4.321,4.321,0,0,0,4.454,1.124,4.167,4.167,0,0,0,2.495-4.783,2.288,2.288,0,0,0-.3-.715" transform="translate(17.704 4.253)" fill="#1a2e35"/>
            <path id="Trazado_212732" data-name="Trazado 212732" d="M191.837,115.045s14.794,25.342,20.1,37.227c2.954,6.615,3.682,19.116-1.2,38.269-3.666,14.362,4.069,33.814,5.245,36.606,2.653,6.3-14.3,15.137-16.666,16.7-20.962,13.82-67.959-11.565-67.959-11.565l12.926-28.861L133.4,179.038l-4.03-63.484,20.081-6.988c10.659,5.247,26.41,5.378,30.765,2.328Z" transform="translate(12.442 10.442)" fill="#f47409"/>
            <path id="Trazado_212733" data-name="Trazado 212733" d="M184.666,245.433s.109-.036.322-.089l.949-.223,1.543-.357,2.058-.66c.78-.23,1.595-.634,2.516-.993.913-.378,1.853-.905,2.885-1.417a45.576,45.576,0,0,0,6.455-4.433,47.01,47.01,0,0,0,6.66-6.751c.276-.326.525-.676.787-1.022s.519-.7.761-1.067.489-.734.715-1.118a5.185,5.185,0,0,0,.317-.583l.148-.3.08-.293a10.494,10.494,0,0,0-.179-2.708c-.15-.921-.337-1.85-.548-2.788-.847-3.751-1.942-7.644-3.064-11.682-.562-2.019-1.14-4.072-1.694-6.167-.275-1.048-.548-2.106-.785-3.182-.121-.538-.227-1.082-.3-1.643a15.735,15.735,0,0,1-.061-1.682c.076-4.446.546-8.746,1-12.9v-.011l0-.013c1.8-7.105,3.378-13.85,3.646-20.037a26.484,26.484,0,0,0-.172-4.483,31.423,31.423,0,0,0-.994-4.094,58.864,58.864,0,0,0-2.652-7.054A78.492,78.492,0,0,0,200,138.163c-.665-1.075-1.206-1.89-1.575-2.439L198,135.1a1.524,1.524,0,0,1-.137-.216,2.284,2.284,0,0,1,.163.2c.1.134.255.335.448.605.387.537.946,1.341,1.629,2.407a74.328,74.328,0,0,1,5.173,9.5,58.226,58.226,0,0,1,2.7,7.069,31.4,31.4,0,0,1,1.024,4.135,26.676,26.676,0,0,1,.192,4.537c-.249,6.237-1.819,13-3.611,20.115l0-.023c-.446,4.141-.912,8.45-.988,12.858a15.564,15.564,0,0,0,.059,1.639c.068.534.173,1.072.292,1.6.235,1.067.506,2.122.779,3.168.551,2.09,1.128,4.144,1.687,6.164,1.117,4.04,2.205,7.937,3.047,11.7.21.942.395,1.878.546,2.809a10.709,10.709,0,0,1,.17,2.816c-.033.122-.065.247-.1.364l-.156.312a5.7,5.7,0,0,1-.331.6c-.231.391-.47.773-.73,1.135s-.5.73-.773,1.074-.518.7-.8,1.027a46.862,46.862,0,0,1-6.734,6.762,45.035,45.035,0,0,1-6.522,4.412c-1.044.506-1.993,1.027-2.915,1.4-.93.352-1.753.747-2.54.968l-2.076.629c-.613.14-1.136.236-1.557.323l-.958.187c-.217.039-.329.05-.329.05" transform="translate(17.761 12.973)" fill="#1a2e35"/>
            <g id="Grupo_148816" data-name="Grupo 148816" transform="translate(222.068 173.057)" opacity="0.3">
              <g id="Grupo_148815" data-name="Grupo 148815">
                <g id="Grupo_148814" data-name="Grupo 148814" clip-path="url(#clip-path-3)">
                  <path id="Trazado_212734" data-name="Trazado 212734" d="M208.359,215.873a87.214,87.214,0,0,1-1.971-32c1.08-8.669,2.831-17.469.967-26,.066,7.867-1.571,13.985-3.666,23.317-1.972,8.784-.733,13.062-.6,16.358" transform="translate(-202.584 -157.873)"/>
                </g>
              </g>
            </g>
            <g id="Grupo_148819" data-name="Grupo 148819" transform="translate(143.794 174.326)" opacity="0.3">
              <g id="Grupo_148818" data-name="Grupo 148818">
                <g id="Grupo_148817" data-name="Grupo 148817" clip-path="url(#clip-path-4)">
                  <path id="Trazado_212735" data-name="Trazado 212735" d="M131.178,227.428s3.86,1.765,7.407-3.651,7.844-23.564,8.444-25.5c.381-1.234,1.716-39.241,1.716-39.241L142.558,195.1l1.546,3.463c-1.823,4.928-3.318,7.174-5.129,11.931-2.634,6.919-5.54,15.684-7.8,16.932" transform="translate(-131.178 -159.031)"/>
                </g>
              </g>
            </g>
            <path id="Trazado_212736" data-name="Trazado 212736" d="M149.97,163.074s-6.358,62.278-16.3,68.639a14.6,14.6,0,0,1-8.627,1.956,21,21,0,0,1-19.8-21.049c-.037-13.209,2.195-31.154,3.047-38.536,1.711-14.783,7.7-54.959,23.395-59.1S149.97,133.36,149.97,133.36Z" transform="translate(10.122 11.01)" fill="#f47409"/>
            <path id="Trazado_212737" data-name="Trazado 212737" d="M109.811,111.4s-2.877,3.811-2.86,7.892c.005,1.164,2.154,9.62,2.154,9.62l8.882,6.824,16.588,5.353-1.327,9.266,14.271,2.425s.282-10.977,0-17.9S138.9,121,138.9,121s-6.92-8.332-9.885-7.909-2.825,3.672-1.413,5.508,5.367,6.214,5.367,6.214L116.59,123.4l-4.943-4.237s1.634-4.287,1.13-5.79a2.653,2.653,0,0,0-2.966-1.978" transform="translate(10.286 10.711)" fill="#ffc19d"/>
            <path id="Trazado_212738" data-name="Trazado 212738" d="M111.1,122.046a8.843,8.843,0,0,1,1.548.933c.93.615,2.2,1.486,3.588,2.466l.277.2-.212,0a5.528,5.528,0,0,1,4.062-.831,4.643,4.643,0,0,1,1.2.388c.263.134.4.231.385.251a16.645,16.645,0,0,0-1.622-.386,5.631,5.631,0,0,0-3.815.886l-.106.072-.106-.073-.277-.2c-1.388-.98-2.633-1.885-3.525-2.556a8.746,8.746,0,0,1-1.4-1.148" transform="translate(10.685 11.738)" fill="#ff9c6a"/>
            <path id="Trazado_212739" data-name="Trazado 212739" d="M112.152,128.279c.09.05-4.008,7.637-9.152,16.945s-9.389,16.814-9.48,16.765,4.008-7.636,9.153-16.946,9.389-16.813,9.479-16.764" transform="translate(8.994 12.337)" fill="#1a2e35"/>
            <path id="Trazado_212740" data-name="Trazado 212740" d="M117.9,122.412c.1.005-.2,7.136-.688,15.923s-.958,15.91-1.061,15.9.2-7.134.688-15.924.958-15.909,1.061-15.9" transform="translate(11.169 11.773)" fill="#1a2e35"/>
            <path id="Trazado_212741" data-name="Trazado 212741" d="M118.364,122.574c.1-.008.787,7.793,1.527,17.422s1.258,17.445,1.155,17.452-.787-7.791-1.527-17.423-1.258-17.443-1.155-17.451" transform="translate(11.383 11.789)" fill="#1a2e35"/>
            <path id="Trazado_212742" data-name="Trazado 212742" d="M43.311,257.024,87.406,155.449l51.852-12.784L95.98,251.151Z" transform="translate(4.166 13.721)" fill="#375a64"/>
            <path id="Trazado_212743" data-name="Trazado 212743" d="M66.206,258.706l-22.895-11.2,52.668-5.873,29.27,13.83Z" transform="translate(4.166 23.239)" fill="#375a64"/>
            <g id="Grupo_148822" data-name="Grupo 148822" transform="translate(47.477 264.872)" opacity="0.3">
              <g id="Grupo_148821" data-name="Grupo 148821">
                <g id="Grupo_148820" data-name="Grupo 148820" clip-path="url(#clip-path-5)">
                  <path id="Trazado_212744" data-name="Trazado 212744" d="M66.206,258.706l-22.895-11.2,52.668-5.873,29.27,13.83Z" transform="translate(-43.311 -241.633)"/>
                </g>
              </g>
            </g>
            <path id="Trazado_212745" data-name="Trazado 212745" d="M134.637,142.666l1.16,4.734,8.037-.243-23.2,117.825-29.27-13.83Z" transform="translate(8.787 13.721)" fill="#375a64"/>
            <path id="Trazado_212746" data-name="Trazado 212746" d="M134.665,142.666s-.042.138-.139.4-.252.661-.444,1.162l-1.739,4.454c-1.53,3.874-3.736,9.458-6.46,16.352-5.492,13.805-13.071,32.856-21.442,53.9-4.619,11.564-9,22.525-12.9,32.284L91.312,251l19.412-9.722.13-.066.055.134,7.168,17.279,1.931,4.706.492,1.228c.11.277.157.423.157.423s-.071-.136-.193-.408-.3-.689-.528-1.213c-.461-1.083-1.135-2.657-2-4.678-1.724-4.082-4.21-9.966-7.279-17.232l.185.069L91.463,251.3l-.4.2.166-.414c3.888-9.763,8.256-20.729,12.865-32.3l21.544-53.856,6.569-16.309,1.8-4.426c.206-.5.364-.877.478-1.149s.174-.386.174-.386" transform="translate(8.758 13.721)" fill="#1a2e35"/>
            <path id="Trazado_212747" data-name="Trazado 212747" d="M134.1,146.985c.1.026-5.426,21.092-12.34,47.045s-12.6,46.98-12.7,46.954,5.425-21.088,12.341-47.05,12.6-46.974,12.7-46.948" transform="translate(10.488 14.137)" fill="#1a2e35"/>
            <g id="Grupo_148825" data-name="Grupo 148825" transform="translate(100.145 156.387)" opacity="0.3">
              <g id="Grupo_148824" data-name="Grupo 148824">
                <g id="Grupo_148823" data-name="Grupo 148823" clip-path="url(#clip-path-6)">
                  <path id="Trazado_212748" data-name="Trazado 212748" d="M134.637,142.666l1.16,4.734-25.041,94-19.4,9.753Z" transform="translate(-91.359 -142.666)"/>
                </g>
              </g>
            </g>
            <path id="Trazado_212749" data-name="Trazado 212749" d="M110.1,120.8c.076.07-6.906,7.77-15.592,17.2s-15.793,17.015-15.869,16.945,6.9-7.768,15.594-17.2S110.027,120.728,110.1,120.8" transform="translate(7.563 11.618)" fill="#1a2e35"/>
            <path id="Trazado_212750" data-name="Trazado 212750" d="M28.433,233.5l44.095-86.974,51.852-10.946L81.1,228.469Z" transform="translate(2.735 13.039)" fill="#f47409"/>
            <path id="Trazado_212751" data-name="Trazado 212751" d="M51.328,234.938l-22.895-9.59L81.1,220.319l29.27,11.842Z" transform="translate(2.735 21.19)" fill="#f47409"/>
            <g id="Grupo_148828" data-name="Grupo 148828" transform="translate(31.167 241.508)" opacity="0.3">
              <g id="Grupo_148827" data-name="Grupo 148827">
                <g id="Grupo_148826" data-name="Grupo 148826" clip-path="url(#clip-path-7)">
                  <path id="Trazado_212752" data-name="Trazado 212752" d="M51.328,234.938l-22.895-9.59L81.1,220.319l29.27,11.842Z" transform="translate(-28.433 -220.319)"/>
                </g>
              </g>
            </g>
            <path id="Trazado_212753" data-name="Trazado 212753" d="M119.759,135.578l1.16,4.054,8.037-.208-23.2,100.889L76.48,228.469Z" transform="translate(7.356 13.039)" fill="#f47409"/>
            <path id="Trazado_212754" data-name="Trazado 212754" d="M119.789,135.578s-.043.122-.142.35-.258.578-.451,1.012l-1.765,3.872c-1.557,3.371-3.795,8.224-6.558,14.214-5.574,12-13.264,28.551-21.758,46.833-4.436,9.509-8.654,18.548-12.45,26.683l-.221-.229,19.412-8.318.117-.05.056.115c3.023,6.239,5.47,11.293,7.169,14.8.835,1.741,1.483,3.1,1.934,4.033l.492,1.053c.11.238.157.365.157.365s-.07-.115-.192-.347-.3-.592-.528-1.037c-.461-.928-1.133-2.275-2-4-1.724-3.5-4.208-8.533-7.278-14.749l.175.065-19.383,8.384-.412.179.19-.408,12.42-26.7c8.533-18.265,16.257-34.8,21.858-46.787,2.81-5.969,5.084-10.805,6.665-14.164.789-1.657,1.4-2.95,1.828-3.842.209-.428.368-.759.485-1,.111-.223.178-.333.178-.333" transform="translate(7.325 13.039)" fill="#1a2e35"/>
            <path id="Trazado_212755" data-name="Trazado 212755" d="M119.217,139.276c.1.031-5.428,18.075-12.342,40.3s-12.6,40.221-12.7,40.19,5.427-18.07,12.343-40.3,12.6-40.217,12.7-40.186" transform="translate(9.057 13.395)" fill="#1a2e35"/>
            <g id="Grupo_148831" data-name="Grupo 148831" transform="translate(83.836 148.617)" opacity="0.3">
              <g id="Grupo_148830" data-name="Grupo 148830">
                <g id="Grupo_148829" data-name="Grupo 148829" clip-path="url(#clip-path-8)">
                  <path id="Trazado_212756" data-name="Trazado 212756" d="M119.759,135.578l1.16,4.054L95.877,220.118l-19.4,8.351Z" transform="translate(-76.48 -135.578)"/>
                </g>
              </g>
            </g>
            <path id="Trazado_212757" data-name="Trazado 212757" d="M88.01,142.064a3.142,3.142,0,0,1,.542-.152l1.57-.367,5.787-1.283,19.12-4.092,3.583-.754.169-.036.047.166,1.154,4.056-.176-.129,8.038-.182.2,0-.045.191c-.818,3.433-1.494,6.277-1.978,8.3-.239.964-.431,1.733-.571,2.3-.065.241-.117.438-.16.6a.744.744,0,0,1-.071.2.753.753,0,0,1,.025-.212c.032-.164.07-.365.117-.611.121-.569.285-1.344.49-2.316.452-2.035,1.085-4.888,1.85-8.332l.152.186-8.036.235-.139,0-.038-.134c-.376-1.309-.765-2.663-1.165-4.053l.216.13-3.583.757-19.141,3.986-5.811,1.165-1.584.3a3.311,3.311,0,0,1-.558.079" transform="translate(8.465 13.02)" fill="#1a2e35"/>
            <path id="Trazado_212758" data-name="Trazado 212758" d="M119.146,130.717a12.016,12.016,0,0,0-1.834-2.128,8.108,8.108,0,0,0-2.61-1.5c-.534-.2-1.122-.273-1.758-.472a2.218,2.218,0,0,1-.9-.526,1.871,1.871,0,0,1-.477-.975c-.124-.71-.049-1.352-.146-1.963a8.206,8.206,0,0,0-.414-1.731,6.072,6.072,0,0,0-.708-1.434,2,2,0,0,0-1.07-.775,1.626,1.626,0,0,0-1.082-.031,1.073,1.073,0,0,0-.567.574c-.19.433-.2.719-.238.711-.013,0-.015-.069-.009-.2a1.824,1.824,0,0,1,.114-.568,1.2,1.2,0,0,1,.616-.708,1.8,1.8,0,0,1,1.242-.031,2.254,2.254,0,0,1,1.241.842,6.128,6.128,0,0,1,.783,1.5,8.214,8.214,0,0,1,.455,1.8c.1.642.037,1.325.149,1.939a1.507,1.507,0,0,0,.377.787,1.867,1.867,0,0,0,.751.438c.568.186,1.2.28,1.755.5a7.946,7.946,0,0,1,2.67,1.627,7.318,7.318,0,0,1,1.332,1.628,2.317,2.317,0,0,1,.327.7" transform="translate(10.323 11.432)" fill="#ff9c6a"/>
            <path id="Trazado_212759" data-name="Trazado 212759" d="M110.551,111.467a13.351,13.351,0,0,1-.8,1.264,14.748,14.748,0,0,0-1.438,3.262,48,48,0,0,0-1,4.982,4.9,4.9,0,0,1-.02-1.509,16.3,16.3,0,0,1,.668-3.583,11.758,11.758,0,0,1,1.573-3.3,3.946,3.946,0,0,1,1.017-1.12" transform="translate(10.316 10.72)" fill="#ff9c6a"/>
            <path id="Trazado_212760" data-name="Trazado 212760" d="M112.866,119.211c.094.041-1.823,4.712-4.284,10.432s-4.532,10.327-4.626,10.287,1.823-4.711,4.284-10.433,4.532-10.326,4.626-10.285" transform="translate(9.998 11.465)" fill="#1a2e35"/>
            <path id="Trazado_212761" data-name="Trazado 212761" d="M113.859,120.35c.1.027-.956,4.14-2.356,9.185s-2.617,9.113-2.716,9.085.956-4.139,2.357-9.185,2.615-9.113,2.715-9.085" transform="translate(10.462 11.575)" fill="#1a2e35"/>
            <path id="Trazado_212762" data-name="Trazado 212762" d="M135.673,124.309a64.708,64.708,0,0,1-6.932-.513,64.579,64.579,0,0,1-6.9-.885,65.081,65.081,0,0,1,6.933.513,64.684,64.684,0,0,1,6.895.885" transform="translate(11.719 11.819)" fill="#ff9c6a"/>
            <path id="Trazado_212763" data-name="Trazado 212763" d="M132.418,118.045a4.839,4.839,0,0,1-3.028,2.557,14.745,14.745,0,0,1,1.547-1.24c.829-.694,1.392-1.38,1.481-1.318" transform="translate(12.444 11.353)" fill="#ff9c6a"/>
            <path id="Trazado_212764" data-name="Trazado 212764" d="M140.537,148.343a.7.7,0,0,1,.172.015l.5.078,1.951.33,7.348,1.3.1.019-.011.105c-.954,8.739-2.713,22.762-5.764,38.358-1.291,6.633-2.717,12.913-4.147,18.591a101.854,101.854,0,0,1-4.279,14.951,13,13,0,0,1-3.222,5.022,12.647,12.647,0,0,1-3.793,2.451,11.149,11.149,0,0,1-2.759.738,6.942,6.942,0,0,1-.994.064,1.229,1.229,0,0,1,.25-.038c.167-.015.412-.052.733-.1a11.857,11.857,0,0,0,2.714-.8,12.7,12.7,0,0,0,3.706-2.47,12.852,12.852,0,0,0,3.12-4.969,104.628,104.628,0,0,0,4.191-14.935c1.409-5.676,2.824-11.952,4.114-18.579,3.047-15.581,4.863-29.587,5.905-38.311l.092.124-7.329-1.405-1.94-.388-.5-.107a.709.709,0,0,1-.167-.047" transform="translate(12.084 14.267)" fill="#1a2e35"/>
            <path id="Trazado_212765" data-name="Trazado 212765" d="M220.7,88.285l2.8-8.435a28.39,28.39,0,1,1,7.071,7.307l.01.013Z" transform="translate(21.038 3.443)" fill="#fff"/>
            <path id="Trazado_212766" data-name="Trazado 212766" d="M220.711,88.3s.227-.034.656-.088l1.9-.233,7.317-.881-.058.144-.01-.012a.088.088,0,0,1,.119-.128,28.338,28.338,0,0,0,13.018,5.039,27.783,27.783,0,0,0,4.366.185,31.82,31.82,0,0,0,4.636-.578,28.14,28.14,0,0,0,3.671-54.154,28.67,28.67,0,0,0-12.882-1.34,27.71,27.71,0,0,0-11.462,4.171,28.245,28.245,0,0,0-12.293,17.232q-.132.6-.261,1.181a7.568,7.568,0,0,0-.2,1.171q-.138,1.172-.27,2.305a39.142,39.142,0,0,0,.052,4.4,28.245,28.245,0,0,0,4.575,13.109.084.084,0,0,1,.01.073c-.925,2.714-1.638,4.8-2.123,6.231-.242.7-.428,1.242-.557,1.619s-.2.559-.2.559.049-.174.163-.533c.119-.375.29-.909.514-1.608.467-1.446,1.152-3.567,2.042-6.321l.01.072a28.227,28.227,0,0,1-4.7-13.178,39.25,39.25,0,0,1-.072-4.438q.13-1.144.262-2.329a7.858,7.858,0,0,1,.2-1.184l.259-1.194a28.522,28.522,0,0,1,12.391-17.469,28.07,28.07,0,0,1,11.607-4.244,29.007,29.007,0,0,1,13.061,1.346,28.349,28.349,0,0,1,11.512,7.512,12.762,12.762,0,0,1,1.132,1.3l1.076,1.342.942,1.431a11.616,11.616,0,0,1,.878,1.458q.4.751.791,1.5c.277.492.444,1.035.67,1.548.2.522.443,1.03.614,1.561l.475,1.6a28.109,28.109,0,0,1,.584,12.856,28.44,28.44,0,0,1-22.416,22.718,32.012,32.012,0,0,1-4.686.565,28,28,0,0,1-4.408-.206,28.334,28.334,0,0,1-13.088-5.161l.119-.128.01.012a.089.089,0,0,1-.011.125.1.1,0,0,1-.047.02l-7.393.778-1.878.193c-.418.042-.62.056-.62.056" transform="translate(21.029 3.428)" fill="#1a2e35"/>
            <path id="Trazado_212767" data-name="Trazado 212767" d="M232.653,63.389l3.957-4.377,8.4,6.739L257.477,51.43l4.079,3.973-16.74,18.415Z" transform="translate(22.376 4.946)" fill="#f47409"/>
          </g>
        </g>
      </g>
    </g>
  </g>
</svg>
