<svg id="Grupo_150023" data-name="Grupo 150023" xmlns="http://www.w3.org/2000/svg" xmlns:xlink="http://www.w3.org/1999/xlink" width="235.555" height="201.406" viewBox="0 0 235.555 201.406">
  <defs>
    <clipPath id="clip-path">
      <rect id="Rectángulo_45403" data-name="Rectángulo 45403" width="235.555" height="201.406" fill="none"/>
    </clipPath>
    <clipPath id="clip-path-3">
      <rect id="Rectángulo_45396" data-name="Rectángulo 45396" width="12.984" height="15.491" fill="none"/>
    </clipPath>
    <clipPath id="clip-path-4">
      <rect id="Rectángulo_45397" data-name="Rectángulo 45397" width="13.153" height="6.648" fill="none"/>
    </clipPath>
    <clipPath id="clip-path-5">
      <rect id="Rectángulo_45398" data-name="Rectángulo 45398" width="5.431" height="15.109" fill="none"/>
    </clipPath>
    <clipPath id="clip-path-6">
      <rect id="Rectángulo_45399" data-name="Rectángulo 45399" width="17.39" height="8.637" fill="none"/>
    </clipPath>
    <clipPath id="clip-path-7">
      <rect id="Rectángulo_45400" data-name="Rectángulo 45400" width="12.973" height="6.054" fill="none"/>
    </clipPath>
    <clipPath id="clip-path-8">
      <rect id="Rectángulo_45401" data-name="Rectángulo 45401" width="9.591" height="14.08" fill="none"/>
    </clipPath>
  </defs>
  <g id="Grupo_150022" data-name="Grupo 150022" clip-path="url(#clip-path)">
    <g id="Grupo_150021" data-name="Grupo 150021">
      <g id="Grupo_150020" data-name="Grupo 150020" clip-path="url(#clip-path)">
        <path id="Trazado_215886" data-name="Trazado 215886" d="M288.527,290.352c.758,11.134,1.982,25.315,2.01,25.882.144,2.953-.324,4.612-1.5,5.833-2.464,2.558-6.014,4.141-9.085,6.356.42,1.167,4.58,1.747,6.4.893a46.1,46.1,0,0,0,6.8-4.182c2.523-1.8,6.265-2.31,6.352-5.118.012-.35.172-1.256.155-1.311.075-1.639,2.842-20.249,3.668-25.809.117-.782.214-1.645.3-2.545Z" transform="translate(-138.017 -143.145)" fill="#ffbea8"/>
        <path id="Trazado_215887" data-name="Trazado 215887" d="M272.312,366.865a2.406,2.406,0,0,0,.476,2.419,10.338,10.338,0,0,0,7.576,1.642,13.144,13.144,0,0,0,7.256-2.976c1.489-1.272,3.575-3.065,5.268-3.457a10.261,10.261,0,0,0,3.778-1.588c.5-.492.407-2.658.407-2.658Z" transform="translate(-134.18 -177.603)" fill="#1a2e35"/>
        <path id="Trazado_215888" data-name="Trazado 215888" d="M295.873,343.479a.7.7,0,0,1,.472.584,31.737,31.737,0,0,0,.134,3.4,17.528,17.528,0,0,1,.422,5.26c-.2,1.112-2.758,1.909-4.394,2.551a20.891,20.891,0,0,0-5.286,3.415,15.482,15.482,0,0,1-7.887,3.028c-3.733.093-6.161-.9-6.921-2.23-.94-1.65-.756-3.162,3.513-5.193.808-.385,3.644-2.1,4.61-2.724a22.033,22.033,0,0,0,2.9-2.2,16.79,16.79,0,0,0,1.3-1.309,5.874,5.874,0,0,0,1.073-1.4c.048-.114.08-.247.122-.365a6.246,6.246,0,0,0,.269-1.008c.065-.357.1-.878.441-1.095a2.861,2.861,0,0,1,1.531-.2,18.452,18.452,0,0,1,2.326.433,2.154,2.154,0,0,1,1.607,1.1,3.158,3.158,0,0,1,.369,1.55c.013.25.01.5.015.753,0,.107-.042.3.108.254s.3-.42.35-.548c.116-.282.19-.583.317-.859a4.5,4.5,0,0,1,.525-.914,4.174,4.174,0,0,1,.672-.7,7.477,7.477,0,0,0,.73-.484,3.242,3.242,0,0,0,.689-1.108" transform="translate(-134.073 -169.336)" fill="#2b454e"/>
        <path id="Trazado_215889" data-name="Trazado 215889" d="M275.081,365.477c5.409.317,7.675,4.18,7.925,6.244a12.772,12.772,0,0,1-3.829.845c-3.733.092-6.314-.893-7.074-2.227-.887-1.557-.839-3.369,2.978-4.862" transform="translate(-133.915 -180.181)" fill="#fafafa"/>
        <path id="Trazado_215890" data-name="Trazado 215890" d="M290.144,363.7a.26.26,0,0,0,.166-.061.264.264,0,0,0,.033-.372c-.762-.914-3.474-2.654-5.437-2.42a.264.264,0,0,0,.061.524c1.832-.213,4.366,1.509,4.97,2.234a.261.261,0,0,0,.205.095" transform="translate(-140.345 -177.888)" fill="#f0f0f0"/>
        <path id="Trazado_215891" data-name="Trazado 215891" d="M294.708,360.976a.264.264,0,0,0,.2-.433c-.763-.915-3.476-2.658-5.436-2.42a.264.264,0,1,0,.062.524c1.831-.215,4.366,1.509,4.97,2.234a.261.261,0,0,0,.205.095" transform="translate(-142.595 -176.545)" fill="#f0f0f0"/>
        <path id="Trazado_215892" data-name="Trazado 215892" d="M298.931,357.879a.26.26,0,0,0,.166-.061.265.265,0,0,0,.034-.372c-.762-.914-3.485-2.655-5.437-2.42a.264.264,0,1,0,.062.524c1.829-.213,4.366,1.509,4.969,2.234a.266.266,0,0,0,.206.095" transform="translate(-144.677 -175.018)" fill="#f0f0f0"/>
        <path id="Trazado_215893" data-name="Trazado 215893" d="M302.632,354.759a.264.264,0,0,0,.2-.43,8,8,0,0,0-5.887-2.442.264.264,0,0,0,.062.524,7.564,7.564,0,0,1,5.415,2.25.264.264,0,0,0,.208.1" transform="translate(-146.281 -173.468)" fill="#f0f0f0"/>
        <path id="Trazado_215894" data-name="Trazado 215894" d="M365.03,298.188c-.152-2.976-.364-6.162-.656-8.99-.1-1.017-.217-1.957-.334-2.836l-14.884.731c1.411,5.379,2.973,11.155,4.113,14.974,1.413,4.733,3.054,10.385,4.248,15.6-.046,2.123,2.5,13.059,3.12,15.6s6.189,2.425,6.4-1.983c.142-2.935-1.109-12.287-1.223-13.687-.468-5.711-.219-9.489-.787-19.409" transform="translate(-172.135 -141.178)" fill="#ffbea8"/>
        <path id="Trazado_215895" data-name="Trazado 215895" d="M368.477,380.04a11.819,11.819,0,0,0,1.635,5.684,3.755,3.755,0,0,0,4.386,1.385c1.713-.494,3.887-1.735,4.311-3.949a13.921,13.921,0,0,0,.194-6.08Z" transform="translate(-181.66 -185.901)" fill="#1a2e35"/>
        <path id="Trazado_215896" data-name="Trazado 215896" d="M373.55,345.66c.713.032.835,3.655,1.356,7.067.559,3.657,1.705,5.14,2.2,8.137a9.414,9.414,0,0,1-1.1,7.1c-1.137,2.119-5.337,4.3-7.536,1.388-1.793-2.372-1.763-5.065-1.907-8.5a60.589,60.589,0,0,0-.935-8.674c-.54-3.063-.9-4.965-.289-5.271.06.377.122.855.185,1.225.077.455.245,1.351.245,1.351.079.189.273.4.328.086a2.06,2.06,0,0,0-.021-.641c-.135-.945.34-1.038.6-1.12.554-.178,3.2-.727,3.73-.78s2.417-.2,2.67.1a2.119,2.119,0,0,1,.272.987c.078.516.1.839.22.728a3.7,3.7,0,0,0,.082-1.343c-.016-.223-.044-.73-.055-.954s-.018-.667-.04-.886" transform="translate(-179.956 -170.412)" fill="#2b454e"/>
        <path id="Trazado_215897" data-name="Trazado 215897" d="M379.154,378.666a8.583,8.583,0,0,1-1.161,5.269c-1.137,2.119-5.68,4.316-7.88,1.406a9.772,9.772,0,0,1-1.634-4.974c1.185-2.337,8.622-3.591,10.674-1.7" transform="translate(-181.662 -186.231)" fill="#fafafa"/>
        <path id="Trazado_215898" data-name="Trazado 215898" d="M371.01,373.919a.268.268,0,0,0,.087-.027,12.1,12.1,0,0,1,6.506-.846.267.267,0,0,0,.31-.209.264.264,0,0,0-.209-.31,12.415,12.415,0,0,0-6.851.9.264.264,0,0,0,.157.5" transform="translate(-182.762 -183.572)" fill="#f0f0f0"/>
        <path id="Trazado_215899" data-name="Trazado 215899" d="M377.08,367.882a.264.264,0,0,0,.042-.515c-3.225-.977-6.714.76-6.845.835a.262.262,0,0,0-.1.359.267.267,0,0,0,.359.1c.03-.016,3.43-1.7,6.431-.788a.273.273,0,0,0,.112.009" transform="translate(-182.482 -180.967)" fill="#f0f0f0"/>
        <path id="Trazado_215900" data-name="Trazado 215900" d="M376.595,363.056a.266.266,0,0,0,.216-.181.263.263,0,0,0-.17-.332,9.333,9.333,0,0,0-6.975.819.264.264,0,0,0,.288.442,8.989,8.989,0,0,1,6.525-.759.261.261,0,0,0,.116.011" transform="translate(-182.187 -178.554)" fill="#f0f0f0"/>
        <path id="Trazado_215901" data-name="Trazado 215901" d="M376.053,358.392a.264.264,0,0,0,.05-.512c-3.328-1.124-6.887.811-7.02.894a.263.263,0,0,0-.085.363.26.26,0,0,0,.363.085c.031-.019,3.482-1.887,6.573-.843a.271.271,0,0,0,.12.012" transform="translate(-181.897 -176.264)" fill="#ececec"/>
        <path id="Trazado_215902" data-name="Trazado 215902" d="M314.786,198.745,311.932,214.9a71.553,71.553,0,0,1-.559,12.32c-1.2,9.031-2.673,15.891-2.673,15.891a25.21,25.21,0,0,1-6.433.814,12.39,12.39,0,0,1-5.431-1.484s-2.075-19.294-2.251-32.077c-.141-10.248.191-36.407,1.223-51.541h33.869c3.39,5.731,4.557,11.532,4.9,28.871.342,17.359.621,20.607.757,22.7s2.191,6.654,2.747,17.006c.471,8.769.721,15.426.721,15.426s-.919,2.123-4.848,2.6a12.749,12.749,0,0,1-6.348-.818s-4.671-14.458-6.661-20.5c-2.827-8.582-6.157-25.364-6.157-25.364" transform="translate(-145.216 -78.3)" fill="#2b454e"/>
        <path id="Trazado_215903" data-name="Trazado 215903" d="M352.516,235.348c-1.052-4.781-1.848-9.624-2.637-14.471-.771-4.849-1.539-9.705-2.375-14.552.456,4.9.969,9.786,1.613,14.663s1.39,9.747,2.431,14.57c1.1,4.809,2.211,9.58,3.379,14.357q1.729,7.164,3.648,14.289-1.354-7.249-2.9-14.462c-1.013-4.806-2.087-9.62-3.164-14.395" transform="translate(-171.321 -101.719)" fill="#1a2e35"/>
        <path id="Trazado_215904" data-name="Trazado 215904" d="M305.279,178.452c1.475,4.257,7.049,7.313,9.51,7.946l2.817,16.336-1.312,16.094,2.854-16.155L315.867,183.1s-6.844-.6-10.587-4.649m23.473-1.678c.378,1.67.716,3.35,1.08,5.028s.713,3.36,1.1,5.053a33.732,33.732,0,0,0-.257-5.191c-.194-1.722-.491-3.429-.854-5.124a45.845,45.845,0,0,0-1.4-5.011,24.494,24.494,0,0,0-2.147-4.742c.491,1.665.923,3.32,1.332,4.983s.79,3.329,1.148,5m2.966-3.154c.541,1.011,1.054,2.035,1.571,3.061l1.526,3.13a13.887,13.887,0,0,0-.737-3.455,22.484,22.484,0,0,0-1.393-3.243,25.331,25.331,0,0,0-1.857-2.992,18.53,18.53,0,0,0-2.3-2.668c.495,1.075,1.039,2.1,1.58,3.118s1.088,2.03,1.611,3.05m-26.394,26.47,1.118-14.121c-.805,4.658-1.449,9.343-1.964,14.042s-.982,9.392-1.076,14.17c.081,4.757.365,9.457.674,14.176s.7,9.422,1.18,14.124q-.081-7.089-.328-14.167l-.24-7.076c-.08-2.355-.185-4.722-.194-7.057s.178-4.686.324-7.035.336-4.7.505-7.056" transform="translate(-149.579 -82.228)" fill="#1a2e35"/>
        <path id="Trazado_215905" data-name="Trazado 215905" d="M287,90.606c-2.146-.366-6.615.13-10.1,1.326-7.261,2.493-17.621,6.042-17.621,6.042s-8.429,9.8-5.829,10.686c1.163.4,6.835.21,14.9-1.8,6.577-1.64,10.657-2.277,12.616-.586.2.17,6.03-15.667,6.03-15.667" transform="translate(-124.708 -44.611)" fill="#ffbea8"/>
        <path id="Trazado_215906" data-name="Trazado 215906" d="M273.687,102.12c-2.387,3.329-4.105,5.532-7.985,7.495l3.752-9.631,7.923-2.716c-1.3,1.661-2.7,3.477-3.689,4.852" transform="translate(-130.992 -47.953)" fill="#ff9b79"/>
        <path id="Trazado_215907" data-name="Trazado 215907" d="M273.345,60.238c.569-.881,1.364-1.945,1.7-2.553a7.686,7.686,0,0,0,.5-3.9c-.019-.626.014-1.1.01-1.717a9.219,9.219,0,0,1,.13-1.987,5.5,5.5,0,0,1,1.151-2.389c.162-.208,1.623.081,2.08-.011.81-.164,1.022-.729.421-.96a10.536,10.536,0,0,0-2.876-.628c-.675.046-2.544,2.429-2.544,2.429s.985-2.026,1.344-2.541,1.774-.47,2.569-.607c1.267-.218,1.757-1.239,1.289-1.348a13.738,13.738,0,0,0-3.862-.106,2.48,2.48,0,0,0-2.224,1.319,19.7,19.7,0,0,0-1.314,2.249s.682-3.41.911-4.058c0,0,1.078-.229,1.555-.357.685-.185,1.534-.551,1.692-1.3,0,0,.337-.729-.933-.583a31.1,31.1,0,0,0-3.82.548c-.4.18-.808.99-1.228,2.535a52.97,52.97,0,0,0-1.331,6.938,21.825,21.825,0,0,1-1.107,5.237c-1.291,3.87-10.938,9.2-15.858,15.415a11.819,11.819,0,0,0-2.937,7.348c-.223,3.946,1.707,5.676,3.924,5.033a18.909,18.909,0,0,0,9.786-7.31c4.424-6.782,8.563-13.449,10.975-16.695" transform="translate(-122.582 -20.297)" fill="#ffbea8"/>
        <path id="Trazado_215908" data-name="Trazado 215908" d="M317.733,91.049l7.478.783,8.062,11.578c.667,2.817-2.42,3.813-3,8.182a25.179,25.179,0,0,0,.1,8.721c.919,4.318,2.324,8.036,3.351,12.948-3.968,3.477-12.457,5.564-21.562,5.263-12.041-.4-16.789-4.683-16.789-4.683.73-12.312.34-16.173.547-22.815.2-6.411.273-8.233,2.094-11.8a41.193,41.193,0,0,1,6.1-8.383l3.473-.044s6.461-.12,10.152.251" transform="translate(-145.617 -44.754)" fill="#f37409"/>
        <path id="Trazado_215909" data-name="Trazado 215909" d="M320.1,38.533c-.23-4.692-7.6-11.15-17.184-7.464s-7.762,9.706-7.552,11.464a18.035,18.035,0,0,1,.1,4.456,6.217,6.217,0,0,1-1.639,3.631,2.711,2.711,0,0,1-3.4.34c-.055,2.11.942,3.9,3.912,5.642a8.42,8.42,0,0,0,4.035.953,4.5,4.5,0,0,1-3.307.321c1.076,1.774,6.273,4.991,11.068,2.777.217-.1.659-.592.892-.537.286.067-.244-.163,0,0,1.874,1.254,4.5,1.4,6.679,1.264a9.394,9.394,0,0,0,3.538-.817,5,5,0,0,0,2.509-2.542,4.609,4.609,0,0,1-.852,3.084,5.924,5.924,0,0,0,2.308-.771,5.106,5.106,0,0,0,2.3-3.83,15.469,15.469,0,0,0-.694-4.344,12.21,12.21,0,0,1-.338-4.868,25.384,25.384,0,0,0,.336-3.725c0-2.324-.774-4.492-2.7-5.034" transform="translate(-143.176 -14.779)" fill="#1a2e35"/>
        <path id="Trazado_215910" data-name="Trazado 215910" d="M323.964,65.338c-.393-2.882-.831-6.117-.831-6.117.023.413,2.029,1.778,3.942.1,2.149-1.882,2.242-3.883,1.248-5.384-1.1-1.658-3.741-1.719-4.94.823-.791.895-2.113.945-1.355-1.559.277-.916-.52-1.532-.945-2.179a4.887,4.887,0,0,1-.616-2.251c-.2-2.23-.891-4.2-3.481-4.287a5.911,5.911,0,0,0-3.071.844,2.233,2.233,0,0,1-1.493.467c-.52-.114-.845-.612-1.23-.981a2.328,2.328,0,0,0-2.35-.656c-1.43.549-2.2,2.389-2.542,3.76a31.646,31.646,0,0,0-.919,6.907c-.122,5.87,1.442,8.56,3.106,9.876a6.323,6.323,0,0,0,4.38,1.1l.284,1.432c.086.661-.443,1.041-1.356,1.29-.613.167-2.828,3.729,2.9,4.387,9.129,1.048,11.73-4.5,11.73-4.5l-.861-.091c-1.269-.133-1.384-1.378-1.6-2.975" transform="translate(-150.551 -21.716)" fill="#ffbea8"/>
        <path id="Trazado_215911" data-name="Trazado 215911" d="M320.155,82.208c3.958-.176,7.644-1.709,8.94-4.873a5.54,5.54,0,0,1-2.355,3.989,12.727,12.727,0,0,1-6.357,2.029Z" transform="translate(-157.837 -38.126)" fill="#ff9b79"/>
        <path id="Trazado_215912" data-name="Trazado 215912" d="M321.833,53.931a.92.92,0,0,1,.047-.192c.013-.035.039-.131.076-.148a.037.037,0,0,1,.044.021.11.11,0,0,1,.006.053,1.538,1.538,0,0,0,.165.7,2.271,2.271,0,0,0,.332.508.515.515,0,0,1,.09.125c.047.107,0,.215-.125.187a.729.729,0,0,1-.41-.313,1.342,1.342,0,0,1-.236-.743,1.319,1.319,0,0,1,.012-.2" transform="translate(-158.659 -26.42)" fill="#ff9b79"/>
        <path id="Trazado_215913" data-name="Trazado 215913" d="M315.682,53.022a.942.942,0,0,0-.025-.2c-.009-.036-.023-.135-.058-.155a.037.037,0,0,0-.046.016.12.12,0,0,0-.012.052,1.534,1.534,0,0,1-.243.678,2.3,2.3,0,0,1-.387.467.505.505,0,0,0-.1.114c-.058.1-.025.214.1.2a.728.728,0,0,0,.443-.264,1.337,1.337,0,0,0,.319-.712,1.273,1.273,0,0,0,.011-.2" transform="translate(-155.187 -25.966)" fill="#ff9b79"/>
        <path id="Trazado_215914" data-name="Trazado 215914" d="M326.662,51.993l-2.5,1.074a1.426,1.426,0,0,0,1.837.723,1.326,1.326,0,0,0,.66-1.8" transform="translate(-159.815 -25.633)" fill="#1a2e35"/>
        <path id="Trazado_215915" data-name="Trazado 215915" d="M309.7,51.1l2.45,1.08a1.4,1.4,0,0,1-1.815.7A1.306,1.306,0,0,1,309.7,51.1" transform="translate(-152.616 -25.192)" fill="#1a2e35"/>
        <path id="Trazado_215916" data-name="Trazado 215916" d="M312.026,58.992a1.067,1.067,0,0,1-1.017,1.075,1,1,0,0,1-1.059-.976,1.066,1.066,0,0,1,1.017-1.075,1,1,0,0,1,1.059.976" transform="translate(-152.807 -28.601)" fill="#1a2e35"/>
        <path id="Trazado_215917" data-name="Trazado 215917" d="M326.8,60.183a1.067,1.067,0,0,1-1.017,1.075,1,1,0,0,1-1.059-.977,1.067,1.067,0,0,1,1.017-1.075,1,1,0,0,1,1.059.976" transform="translate(-160.09 -29.189)" fill="#1a2e35"/>
        <path id="Trazado_215918" data-name="Trazado 215918" d="M335.338,56.369l6.04,2.536a2.583,2.583,0,0,0-1.963.316l-4.35-1.446Z" transform="translate(-165.189 -27.79)" fill="#375a64"/>
        <path id="Trazado_215919" data-name="Trazado 215919" d="M302.952,55.669c.4.765.264,2.134.641,3.011.4,1.75,3.467,2.88,5.188,1.233a3.657,3.657,0,0,0,.674-.967c.454-.9.413-2.191,1.088-2.3,1.86-.145.018,4.669,5.065,4.641,2.446.02,3.038-2.285,3.373-4.14.135-.536.572-.618.661-1.284.021-.711-.461-.9-1-.939a15.709,15.709,0,0,0-4.952-.241c-1.544.344-2.1.808-2.95.752-.794-.057-1.287-.59-2.708-1.131a13.726,13.726,0,0,0-4.949-.424c-.781.151-.508,1.432-.134,1.794m9.607.448c1.117-1.163,4.732-1.034,5.45-.193.4.5.028,2.147-.227,2.917-.032.093-.07.185-.113.282a2.382,2.382,0,0,1-2.531,1.437,2.76,2.76,0,0,1-2.039-.924,3.084,3.084,0,0,1-.643-1.427,3.147,3.147,0,0,1,.1-2.093M305.969,54.6c2.775.423,3.835,1.13,2.876,3.889-.351,1.321-2.3,1.93-3.64,1.167a3.13,3.13,0,0,1-1.321-2.313c-.366-2.276-.21-2.863,2.085-2.742" transform="translate(-149.175 -26.538)" fill="#375a64"/>
        <path id="Trazado_215920" data-name="Trazado 215920" d="M312.23,63.692l3.185,1.744.816-5.013a1.435,1.435,0,0,0-.349-.658Z" transform="translate(-153.93 -29.464)" fill="#ff9b79"/>
        <path id="Trazado_215921" data-name="Trazado 215921" d="M320.661,72.669c.754.127,1.975,1.008,1.69,1.528s-1.152.147-2.15.564-1.151.988-1.846.737c-.559-.2-.294-1.718.208-2.205a2.593,2.593,0,0,1,2.1-.624" transform="translate(-156.796 -35.811)" fill="#c76668"/>
        <path id="Trazado_215922" data-name="Trazado 215922" d="M318.674,73.564a1.24,1.24,0,0,1,.2-.272,2.593,2.593,0,0,1,2.1-.624,2.068,2.068,0,0,1,.471.149,6.28,6.28,0,0,1-2.77.747" transform="translate(-157.107 -35.811)" fill="#fafafa"/>
        <path id="Trazado_215923" data-name="Trazado 215923" d="M322.2,75.357a1.713,1.713,0,0,1,1.672-1.553c.4.313.679.691.527.967-.285.52-1.151.147-2.15.565l-.049.022" transform="translate(-158.848 -36.386)" fill="#ff9090"/>
        <path id="Trazado_215924" data-name="Trazado 215924" d="M367.426,64.294c-.17-.778.714-2.9.748-4.129s-.734-3.481-.491-5-.141-1.993-.579-1.773a4,4,0,0,0-1.653,2.707c-.052,1.229,1.975,8.193,1.975,8.193" transform="translate(-180.168 -26.298)" fill="#ff9b79"/>
        <path id="Trazado_215925" data-name="Trazado 215925" d="M352.763,92.856c3.121.085,5.775,1.576,10.53,4.38,2.077,1.225,11.773,7.211,11.773,7.211l3.224,8.93-1.9,2.023c-3.458.292-8.6-1.862-14.666-4.527-1.874-.823-2.389-1.992-4,.39-2.225,4.607-9.611-12.218-4.961-18.407" transform="translate(-173.17 -45.778)" fill="#ffbea8"/>
        <path id="Trazado_215926" data-name="Trazado 215926" d="M365.5,96.643l6.7,14.655c-3.042-.749-10.628-13.33-13.2-17.731a28.191,28.191,0,0,1,6.5,3.076" transform="translate(-176.984 -46.129)" fill="#ff9b79"/>
        <path id="Trazado_215927" data-name="Trazado 215927" d="M350.823,63.825c-.568-.977-1.37-2.163-1.7-2.834a8.291,8.291,0,0,1-.338-4.229c.052-.672.041-1.187.076-1.849a9.96,9.96,0,0,0-.039-2.146,5.941,5.941,0,0,0-1.119-2.631c-.164-.232-1.751.006-2.238-.117-.863-.217-1.063-.836-.4-1.055a11.331,11.331,0,0,1,3.128-.53c.725.083,2.615,2.743,2.615,2.743s-.958-2.231-1.318-2.8-1.886-.6-2.735-.783c-1.354-.3-1.829-1.424-1.319-1.516a14.784,14.784,0,0,1,4.162.082,2.67,2.67,0,0,1,2.328,1.533,21.232,21.232,0,0,1,1.3,2.487s-.563-3.706-.776-4.414c0,0-1.149-.3-1.656-.463-.729-.234-1.623-.672-1.757-1.481,0,0-.325-.8,1.034-.58a33.469,33.469,0,0,1,4.085.783c.424.214.82,1.106,1.194,2.791a57.166,57.166,0,0,1,1.082,7.537,23.5,23.5,0,0,0,.926,5.694c1.194,4.232,11.31,10.461,16.293,17.4a12.74,12.74,0,0,1,2.789,8.059c.04,4.26-2.125,6.025-4.479,5.221a20.383,20.383,0,0,1-10.165-8.365c-4.419-7.525-8.538-14.912-10.97-18.529" transform="translate(-169.924 -21.297)" fill="#ffbea8"/>
        <path id="Trazado_215928" data-name="Trazado 215928" d="M365.581,8.331l-5.062,5.835L358.36,12.95l-1.4,4.13L355.19,15.8,352.6,20.349l1.385-8.28,1.929,1.484.972-5.512,2.934,1.8,1.172-4.981Z" transform="translate(-173.832 -2.395)" fill="#f37409"/>
        <g id="Grupo_150004" data-name="Grupo 150004" transform="translate(178.765 2.462)" opacity="0.3">
          <g id="Grupo_150003" data-name="Grupo 150003">
            <g id="Grupo_150002" data-name="Grupo 150002" clip-path="url(#clip-path-3)">
              <path id="Trazado_215929" data-name="Trazado 215929" d="M365.581,8.331l-5.062,5.835L358.36,12.95l-1.4,4.13L355.19,15.8,352.6,20.349l1.385-8.28,1.929,1.484.972-5.512,2.934,1.8,1.172-4.981Z" transform="translate(-352.597 -4.857)" fill="#fff"/>
            </g>
          </g>
        </g>
        <path id="Trazado_215930" data-name="Trazado 215930" d="M365.88,33.289l-1.422-2.251L359.433,32.5l5.835-4.307,1.272,1.729,4.532-3.283,1.513,4.1Z" transform="translate(-177.202 -13.134)" fill="#f37409"/>
        <g id="Grupo_150007" data-name="Grupo 150007" transform="translate(182.231 13.507)" opacity="0.3">
          <g id="Grupo_150006" data-name="Grupo 150006">
            <g id="Grupo_150005" data-name="Grupo 150005" clip-path="url(#clip-path-4)">
              <path id="Trazado_215931" data-name="Trazado 215931" d="M365.88,33.289l-1.422-2.251L359.433,32.5l5.835-4.307,1.272,1.729,4.532-3.283,1.513,4.1Z" transform="translate(-359.432 -26.641)" fill="#fff"/>
            </g>
          </g>
        </g>
        <path id="Trazado_215932" data-name="Trazado 215932" d="M343.377,9.172l-2.431,1.084.194,7.581-3.194-8.624,2.189-1.061-1.759-5.215,4.583-.209Z" transform="translate(-166.608 -1.345)" fill="#f37409"/>
        <g id="Grupo_150010" data-name="Grupo 150010" transform="translate(171.337 1.383)" opacity="0.3">
          <g id="Grupo_150009" data-name="Grupo 150009">
            <g id="Grupo_150008" data-name="Grupo 150008" clip-path="url(#clip-path-5)">
              <path id="Trazado_215933" data-name="Trazado 215933" d="M343.377,9.172l-2.431,1.084.194,7.581-3.194-8.624,2.189-1.061-1.759-5.215,4.583-.209Z" transform="translate(-337.946 -2.728)" fill="#fff"/>
            </g>
          </g>
        </g>
        <path id="Trazado_215934" data-name="Trazado 215934" d="M75,243.622c.884-7.738.542-10.462,1.687-22.556.185-3.1.433-6.427.764-9.375,1.11-9.918,2.791-13.256,3.012-15.171,0,0-.017-17.4,1.525-39.137.726-10.226,3.834-13.207,6.438-18.546l30.06,1.207c1.2,13.6.377,38.737-.282,52.554-.336,7.044-4.584,41.957-4.677,42.822-.328,3.068-.108,4.293,1.051,5.635,2.427,2.81,6,5.537,9.084,8.026-.51,1.191-4.332.994-6.188,0a48.335,48.335,0,0,1-6.876-4.76c-2.534-2.029-6.279-3.732-6.2-6.662a3.057,3.057,0,0,0-.066-.526c.02-1.712-2.637-24.4-2.732-30.261-.081-5.042.883-13.554.883-13.554l-2.183-17.432s-1.612,14.448-4,22.967c-1.942,6.934-5.273,16.065-7.488,24.606-2.2,9.853-4.727,16.257-5.384,21.207-.186,1.18-2.011,12.77-2.678,15.414s-7.08,2.481-7.267-2.121c-.125-3.063,1.352-12.877,1.518-14.333" transform="translate(-36.222 -68.447)" fill="#dd8669"/>
        <path id="Trazado_215935" data-name="Trazado 215935" d="M157.521,355.128a2.5,2.5,0,0,1-.549,2.514,10.889,10.889,0,0,1-7.979,1.56,13.813,13.813,0,0,1-7.547-3.253c-1.535-1.357-3.685-3.271-5.453-3.714a11.626,11.626,0,0,1-4.163-2.229c-.514-.524-.373-2.782-.373-2.782Z" transform="translate(-64.8 -171.183)" fill="#1a2e35"/>
        <path id="Trazado_215936" data-name="Trazado 215936" d="M132.836,331.07s-.3,0-.415.521c-.139.62-.325,2.426-.615,3.441a14.84,14.84,0,0,0-.318,5.009c.182,1.164,3.088,2.544,4.79,3.247a21.92,21.92,0,0,1,5.474,3.67,16.277,16.277,0,0,0,8.209,3.32c3.912.172,6.479-.809,7.3-2.186,1.02-1.7.291-2.729-4.145-4.935-.84-.418-3.778-2.267-4.777-2.936a23.039,23.039,0,0,1-2.993-2.357,17.526,17.526,0,0,1-1.332-1.392,6.152,6.152,0,0,1-1.1-1.481c-.047-.12-.079-.259-.12-.383a6.481,6.481,0,0,1-.262-1.057c-.061-.374-.09-.918-.44-1.151a3.014,3.014,0,0,0-1.6-.237,12.231,12.231,0,0,0-1.742.193c-.667.128-1.434.164-1.845.771a3.273,3.273,0,0,0-.419,1.611c-.019.261-.021.524-.032.785,0,.111.038.313-.118.262s-.3-.444-.356-.578c-.116-.3-.187-.611-.314-.9a4.722,4.722,0,0,0-.531-.964c-.2-.269-.9-.553-1.16-.768a7.733,7.733,0,0,1-.755-.519,1.8,1.8,0,0,1-.388-.984" transform="translate(-64.781 -163.219)" fill="#2b454e"/>
        <path id="Trazado_215937" data-name="Trazado 215937" d="M167.994,355.625c-5.679.222-7.567,3.65-7.873,5.8a13.437,13.437,0,0,0,4,.96c3.913.172,6.64-.8,7.465-2.18.963-1.607.382-2.943-3.59-4.578" transform="translate(-78.94 -175.324)" fill="#fafafa"/>
        <path id="Trazado_215938" data-name="Trazado 215938" d="M158.631,352.953a.275.275,0,0,1-.2-.456,6.686,6.686,0,0,1,5.184-1.859.275.275,0,1,1-.076.546,6.2,6.2,0,0,0-4.691,1.675.274.274,0,0,1-.217.095" transform="translate(-78.073 -172.845)" fill="#f0f0f0"/>
        <path id="Trazado_215939" data-name="Trazado 215939" d="M153.9,350.02a.275.275,0,0,1-.2-.456,6.67,6.67,0,0,1,5.184-1.859.275.275,0,1,1-.076.546,6.184,6.184,0,0,0-4.69,1.675.277.277,0,0,1-.218.094" transform="translate(-75.741 -171.398)" fill="#f0f0f0"/>
        <path id="Trazado_215940" data-name="Trazado 215940" d="M149.537,346.7a.276.276,0,0,1-.2-.456,6.69,6.69,0,0,1,5.184-1.859.275.275,0,1,1-.076.546,6.2,6.2,0,0,0-4.691,1.675.275.275,0,0,1-.217.095" transform="translate(-73.59 -169.763)" fill="#f0f0f0"/>
        <path id="Trazado_215941" data-name="Trazado 215941" d="M145.263,343.362a.276.276,0,0,1-.2-.453,6.814,6.814,0,0,1,5.656-1.873.275.275,0,1,1-.076.546,6.323,6.323,0,0,0-5.158,1.682.274.274,0,0,1-.22.1" transform="translate(-71.483 -168.105)" fill="#f0f0f0"/>
        <path id="Trazado_215942" data-name="Trazado 215942" d="M79.67,379.127c-.264,2.652-.646,4.578-1.658,6.1s-2.947,1.669-4.79,1.355a5.97,5.97,0,0,1-4.983-4.283,11.953,11.953,0,0,1-.152-6.346Z" transform="translate(-33.396 -185.346)" fill="#1a2e35"/>
        <path id="Trazado_215943" data-name="Trazado 215943" d="M72.481,343.648c-.748.028-1.114,3.588-1.691,7.145-.618,3.812-1.832,5.35-2.372,8.473-.618,3.569-.086,5.2,1.089,7.416s6.13,4.527,8.461,1.509c1.9-2.461,2.09-5.267,2.072-8.856a79.428,79.428,0,0,1,.611-9.069c.255-2.681.963-5.366.328-5.691-.066.393-.135.891-.2,1.277a6.4,6.4,0,0,1-.3,1.423c-.084.2-.26.4-.314.071a2.127,2.127,0,0,1,.028-.668c.15-.985-.348-1.086-.615-1.174a33.108,33.108,0,0,0-3.442-.627c-.568-.062-3.1-.226-3.37.087a2.212,2.212,0,0,0-.293,1.028c-.086.537-.228.928-.236.757-.02-.387.1-1.39.116-1.632s.07-.549.083-.782.024-.459.049-.688" transform="translate(-33.602 -169.42)" fill="#2b454e"/>
        <path id="Trazado_215944" data-name="Trazado 215944" d="M68.032,377.633a7.777,7.777,0,0,0,1.193,5.473,5.958,5.958,0,0,0,2.978,2.546c1.964.766,4.494.74,5.823-.981a10.165,10.165,0,0,0,1.756-5.176c-1.223-2.448-9.582-3.817-11.75-1.862" transform="translate(-33.509 -185.716)" fill="#fafafa"/>
        <path id="Trazado_215945" data-name="Trazado 215945" d="M80.784,372.761a.288.288,0,0,1-.091-.029,15.633,15.633,0,0,0-7.385-.936.279.279,0,0,1-.323-.22.276.276,0,0,1,.221-.322,15.835,15.835,0,0,1,7.747.99.276.276,0,0,1-.169.517" transform="translate(-35.98 -182.948)" fill="#f0f0f0"/>
        <path id="Trazado_215946" data-name="Trazado 215946" d="M73.94,366.415a.275.275,0,0,1-.04-.537c3.392-.993,7.6.848,7.74.927a.273.273,0,0,1,.1.376.281.281,0,0,1-.378.1c-.031-.017-4.151-1.8-7.307-.875a.287.287,0,0,1-.117.008" transform="translate(-36.335 -180.234)" fill="#f0f0f0"/>
        <path id="Trazado_215947" data-name="Trazado 215947" d="M74.376,361.384a.275.275,0,0,1-.044-.535c3.734-1.164,7.75.827,7.878.911a.274.274,0,0,1,.077.382.277.277,0,0,1-.384.077c-.028-.019-3.93-1.927-7.4-.845a.273.273,0,0,1-.122.01" transform="translate(-36.55 -177.72)" fill="#f0f0f0"/>
        <path id="Trazado_215948" data-name="Trazado 215948" d="M74.937,356.52a.275.275,0,0,1-.048-.534c3.5-1.146,7.785.9,7.924.99a.276.276,0,1,1-.3.466c-.032-.02-4.2-2-7.455-.933a.272.272,0,0,1-.125.011" transform="translate(-36.827 -175.331)" fill="#ececec"/>
        <path id="Trazado_215949" data-name="Trazado 215949" d="M87.124,138.789c-3.6,5.953-3.9,10.913-4.982,29s-1.246,25.067-1.406,27.247-.668,6.057-2.228,16.763a135.633,135.633,0,0,0-1.243,20.95s1.077,1.677,5.194,2.212c3.8.493,5.744-.855,5.744-.855s5.763-18.262,7.547-24.66c2.7-9.692,6.224-29.256,6.224-29.256l1.578,13.36a53.7,53.7,0,0,0-.627,15.361c.778,9.475,1.914,16.46,1.914,16.46a23.051,23.051,0,0,0,6.482,1.277,10.194,10.194,0,0,0,5.375-1.275s4.051-25.112,4.488-35.8.339-36.449-.168-49.317Z" transform="translate(-38.079 -68.423)" fill="#2b454e"/>
        <path id="Trazado_215950" data-name="Trazado 215950" d="M79.348,236.362a4.551,4.551,0,0,0,.55.386c-.363-16.938,2.256-23.851,3.929-30.261.161-.616.314-1.2.455-1.76,1.27-5.012.612-13.511.934-21.823.1-2.5.2-5.086.334-7.832.159-3.211.392-6.534.79-9.813,5.949-.465,7.472-6.231,9.39-13.511.263-1,.534-2.024.826-3.081l-.521-.142c-.293,1.058-.564,2.089-.827,3.086-1.922,7.3-3.331,12.593-8.8,13.093.949-7.448,2.8-14.627,6.693-19.714l-.429-.325c-5.8,7.565-7.127,19.6-7.662,30.381-.136,2.747-.237,5.335-.334,7.837-.321,8.28.337,16.755-.919,21.712-.141.558-.294,1.142-.454,1.756-1.667,6.39-4.272,13.244-3.956,30.01M107.2,164.33,103,183.086l1.578,13.36.565-12.778,2.83-12.65q.051,1.9.107,3.9c.3,10.955.439,19.362-.242,21.945-1.867,7.081-1.588,11.607-1.081,19.823.052.835.1,1.706.16,2.621.274,4.642.749,6.532.973,9.522.17.05.356.1.553.152-.224-2.982-.708-4.967-.988-9.706-.054-.916-.107-1.787-.159-2.622-.5-8.161-.781-12.656,1.064-19.653.7-2.658.579-10.569.26-22.1-.058-2.091-.114-4.117-.163-6.046l.584-2.277c2.615-.514,6.848-2.32,7.751-5.846a13.615,13.615,0,0,1-9.59,3.6" transform="translate(-39.106 -71.321)" fill="#1a2e35"/>
        <path id="Trazado_215951" data-name="Trazado 215951" d="M130.277,301.963c2.091,1.794,10.592,1.8,13.325.183l-.623,4.559s-1.265,1.274-6.592,1.259c-4.141-.011-5.626-1.468-5.626-1.468Z" transform="translate(-64.227 -148.869)" fill="#375a64"/>
        <path id="Trazado_215952" data-name="Trazado 215952" d="M76.918,317.722c1.673,2.017,9.338,2.985,11.993,1.687l-1.1,4.456s-1.291,1.121-6.093.505c-3.733-.478-4.9-2.093-4.9-2.093Z" transform="translate(-37.872 -156.638)" fill="#375a64"/>
        <path id="Trazado_215953" data-name="Trazado 215953" d="M163.111,72.533c4.81.732,7.455,1.263,10.428,7.7,2.066,4.471,5.021,10.642,6.386,13.821,2.08,4.844,2.451,6.079-.45,9.741-3.236,4.085-17.2,15.735-17.2,15.735-.918-1.843-1.468-8.415-1.507-10.815l8.375-10.6L162.7,85.356Z" transform="translate(-79.262 -35.759)" fill="#dd8669"/>
        <path id="Trazado_215954" data-name="Trazado 215954" d="M163.908,71.384c5.215.153,7.9,2.193,9.825,5.1s6.521,13.8,6.521,13.8-.486,2.481-4.1,4.157a11.543,11.543,0,0,1-6.895.9l-5.511-10.376Z" transform="translate(-80.727 -35.193)" fill="#2b454e"/>
        <path id="Trazado_215955" data-name="Trazado 215955" d="M176.847,122.106c.975,1.062,4.889,1,5.988.661a12.644,12.644,0,0,1-6.444-1.564Z" transform="translate(-86.961 -59.753)" fill="#c66150"/>
        <path id="Trazado_215956" data-name="Trazado 215956" d="M109.91,71.342l-9.091,1.711A61.546,61.546,0,0,0,96.174,87.1a147.963,147.963,0,0,0-4.05,30.94c5.011,6.278,27.82,6.329,36.644.584,0,0-.163-12.246,1.686-20.8,2.665-12.333,2.943-18.254,1.632-21.936-.777-2.181-1.583-4.123-2.5-4.812-.572-.39-12.929-1.65-19.678.27" transform="translate(-45.417 -34.661)" fill="#375a64"/>
        <path id="Trazado_215957" data-name="Trazado 215957" d="M127.982,19.261c-3.657,2.5-2.293,6.833-1.391,11.262,1.06,5.042,1.041,6.652,3.812,8.072.333-15.607,4.112,3.777,17.349-7.543,1.472-1.258.726-2.95,1.594-4.423a7.188,7.188,0,0,1,.643-.787,3.065,3.065,0,0,0-.147-3.873l.677-1.265a1.489,1.489,0,0,0,.2-.506,1.032,1.032,0,0,0-.852-1.026,3.007,3.007,0,0,0-1.44.141l1.626-1.535c.267-.252.559-.578.477-.936-.119-.522-.837-.555-1.371-.522a17.951,17.951,0,0,1-6.1-1.183c-5.178-1.536-13.341-1.716-15.074,4.122" transform="translate(-61.91 -7.013)" fill="#2b454e"/>
        <path id="Trazado_215958" data-name="Trazado 215958" d="M125.078,41.342c2.216,1.088,3.344-.411,3.344-.411l-.794,4.546s-2.765,4.032-.113,6.18c5.664,4.587,6.262,5.933,8.061,9.064,1.513-2.225,3.418-6.274,2.159-7.87l1.6-4.129a17.506,17.506,0,0,0,2.773.049c2.183-.17,3.506-1.634,4.333-3.918,1.326-3.674,1.514-9.329.632-16.727-2.27-2.059-10.177-2.963-15.5-.14-.086,4.31-1.295,4.935-1.411,6.786-.13,2.079-.3,2.546-.954,2.786s-1.16-.768-1.379-1.4c-.369-1.055-.7-1.74-1.7-2.061a2.658,2.658,0,0,0-3.157,1.089c-1.575,2.029.494,5.364,2.1,6.153" transform="translate(-60.35 -12.918)" fill="#dd8669"/>
        <path id="Trazado_215959" data-name="Trazado 215959" d="M146.263,63.36a13.3,13.3,0,0,1-7.645-3.2A7.125,7.125,0,0,1,136.49,55.9a7.694,7.694,0,0,0,1.369,5.017c2.68,3.551,7.906,3.725,7.906,3.725Z" transform="translate(-67.278 -27.557)" fill="#c66150"/>
        <path id="Trazado_215960" data-name="Trazado 215960" d="M155.625,38.788a.917.917,0,0,0-.035-.189c-.011-.034-.03-.13-.065-.148a.036.036,0,0,0-.044.019.108.108,0,0,0-.008.051,1.5,1.5,0,0,1-.2.672,2.221,2.221,0,0,1-.35.476.494.494,0,0,0-.094.117c-.051.1-.012.209.111.188a.708.708,0,0,0,.415-.281,1.311,1.311,0,0,0,.269-.9" transform="translate(-76.321 -18.956)" fill="#c66150"/>
        <path id="Trazado_215961" data-name="Trazado 215961" d="M161.527,38.655a.893.893,0,0,1,.024-.191c.009-.035.023-.131.057-.151a.035.035,0,0,1,.045.016.108.108,0,0,1,.011.051,1.5,1.5,0,0,0,.236.66,2.247,2.247,0,0,0,.377.454.487.487,0,0,1,.1.111c.057.1.025.208-.1.194a.706.706,0,0,1-.43-.257,1.3,1.3,0,0,1-.311-.692,1.257,1.257,0,0,1-.011-.2" transform="translate(-79.633 -18.887)" fill="#c66150"/>
        <path id="Trazado_215962" data-name="Trazado 215962" d="M151.09,43.046a1.047,1.047,0,1,1-2.042-.461.984.984,0,0,1,1.249-.726c.881.214.923.6.792,1.187" transform="translate(-73.468 -20.62)"/>
        <path id="Trazado_215963" data-name="Trazado 215963" d="M149.348,36.524l2.366,1.177a1.387,1.387,0,0,1-1.822.6,1.289,1.289,0,0,1-.544-1.781" transform="translate(-73.549 -18.006)" fill="#1a2e35"/>
        <path id="Trazado_215964" data-name="Trazado 215964" d="M165.754,36.785l-2.382,1.05a1.367,1.367,0,0,0,1.765.678,1.271,1.271,0,0,0,.617-1.728" transform="translate(-80.543 -18.135)" fill="#1a2e35"/>
        <path id="Trazado_215965" data-name="Trazado 215965" d="M166.69,42.105a.972.972,0,1,1-1.67.993c-.286-.478-.333-.835.379-1.22a.9.9,0,0,1,1.29.227" transform="translate(-81.259 -20.563)"/>
        <path id="Trazado_215966" data-name="Trazado 215966" d="M157.649,40.327l.685,6.652,3.784-1.087c-.85-2.229-3.008-5.293-4.469-5.565" transform="translate(-77.721 -19.881)" fill="#c66150"/>
        <path id="Trazado_215967" data-name="Trazado 215967" d="M153.614,56.2c-.734.124-1.921.98-1.644,1.486s1.12.142,2.091.549,1.119.961,1.8.717c.544-.2.286-1.671-.2-2.145a2.523,2.523,0,0,0-2.04-.606" transform="translate(-74.902 -27.693)" fill="#c66150"/>
        <path id="Trazado_215968" data-name="Trazado 215968" d="M157.042,57.071a1.211,1.211,0,0,0-.2-.264,2.522,2.522,0,0,0-2.04-.606,1.992,1.992,0,0,0-.458.144,6.116,6.116,0,0,0,2.694.726" transform="translate(-76.094 -27.693)" fill="#fafafa"/>
        <path id="Trazado_215969" data-name="Trazado 215969" d="M154.109,58.815a1.665,1.665,0,0,0-1.625-1.51c-.392.3-.66.671-.513.94.277.505,1.12.142,2.091.549l.048.021" transform="translate(-74.902 -28.252)" fill="#ff9090"/>
        <path id="Trazado_215970" data-name="Trazado 215970" d="M128.654,64.858c-.4,1.414.175,3.062,1.43,5.137,1.224,2.025,3.829,3.691,4.413,4.444a46.08,46.08,0,0,1,2.3,4.976,30.94,30.94,0,0,0-2.394-3.183c-.46-.331-2.855,2.218-3.387,3.068s-.453.861-1.584-.151A12.783,12.783,0,0,1,125.3,72.8a17.157,17.157,0,0,1-.393-4.23,15.037,15.037,0,0,0,2.334-3.06c.72-1.273,1.184-1.513,1.61-1.34Z" transform="translate(-61.574 -31.612)" fill="#2b454e"/>
        <path id="Trazado_215971" data-name="Trazado 215971" d="M148.374,82.617a24.927,24.927,0,0,0,1.882-3.98,16.276,16.276,0,0,0,.276-3.89l1.6-4.129a1.94,1.94,0,0,1,.75,1.034,26.623,26.623,0,0,1,.909,6.424,13.811,13.811,0,0,1-.739,4.509c-.3.469-.652-3.287-1.469-3.361-.533-.048-3.21,3.4-3.21,3.4" transform="translate(-73.149 -34.814)" fill="#2b454e"/>
        <path id="Trazado_215972" data-name="Trazado 215972" d="M87.775,173.506c-1.779.676-4.3-1.412-5.009-2.154s-.041-2.7.212-4.324-.376-4.286,1.657-3.7,6.579,5.567,3.139,10.174" transform="translate(-40.649 -80.482)" fill="#c66150"/>
        <path id="Trazado_215973" data-name="Trazado 215973" d="M89.161,74.95c-4.3.795-7.794.481-13.009,6.46C71.4,86.856,65.235,93.361,62.31,97.669c-1.557,2.294-2.3,4.37,1.12,9.463a115.31,115.31,0,0,0,9.81,12.423,3.657,3.657,0,0,1,1.244,2.463,11.121,11.121,0,0,1-.251,1.188,4.561,4.561,0,0,0,.937,3.133,4.176,4.176,0,0,1,.769,1.577c.182,1.21-.825,1.485-1.788,1.428a13.116,13.116,0,0,0,2.486,1.477c1.335.584,2.592-.758,3.972-.894a3.114,3.114,0,0,0,.947-.156c.961-.417.961-1.9,1.836-2.474.372-.245.862-.292,1.193-.591a1.832,1.832,0,0,0,.427-1.449c-.079-2.74-1.567-5.55-2.95-7.85-2.523-4.195-8.071-13.953-8.071-13.953L85.246,91.77c2.563-2.386,7.25-11.931,3.915-16.82" transform="translate(-30.074 -36.951)" fill="#dd8669"/>
        <path id="Trazado_215974" data-name="Trazado 215974" d="M82.35,127.024a12.972,12.972,0,0,0-4.393-4.266s2.125-.1,5.281,3.344Z" transform="translate(-38.433 -60.52)" fill="#c66150"/>
        <path id="Trazado_215975" data-name="Trazado 215975" d="M95.544,74.341a45.213,45.213,0,0,0-5.522.939c-1.645.5-3.262.742-6.439,4.308-1.947,2.186-9.723,11.088-9.723,11.088a15.405,15.405,0,0,0,3.864,6.58,11.759,11.759,0,0,0,5.607,3.321s7.5-7.807,9.367-9.759,6.572-10.96,2.846-16.477" transform="translate(-36.413 -36.65)" fill="#2b454e"/>
        <path id="Trazado_215976" data-name="Trazado 215976" d="M82.381,30.762,89.773,33l1.179-2.18,3.383,2.75.819-2.026,4.617,2.466-5.584-6.268-.841,2.284-3.76-4.146-1.525,3.085-3.647-3.591Z" transform="translate(-40.614 -12.51)" fill="#f37409"/>
        <g id="Grupo_150013" data-name="Grupo 150013" transform="translate(41.767 12.865)" opacity="0.3">
          <g id="Grupo_150012" data-name="Grupo 150012">
            <g id="Grupo_150011" data-name="Grupo 150011" clip-path="url(#clip-path-6)">
              <path id="Trazado_215977" data-name="Trazado 215977" d="M82.381,30.762,89.773,33l1.179-2.18,3.383,2.75.819-2.026,4.617,2.466-5.584-6.268-.841,2.284-3.76-4.146-1.525,3.085-3.647-3.591Z" transform="translate(-82.381 -25.375)" fill="#fff"/>
            </g>
          </g>
        </g>
        <path id="Trazado_215978" data-name="Trazado 215978" d="M99.092,52.763l0-2.662,5.032-1.439L96.9,48.127l-.154,2.142L91.156,49.9l.9,4.275Z" transform="translate(-44.94 -23.727)" fill="#f37409"/>
        <g id="Grupo_150016" data-name="Grupo 150016" transform="translate(46.216 24.4)" opacity="0.3">
          <g id="Grupo_150015" data-name="Grupo 150015">
            <g id="Grupo_150014" data-name="Grupo 150014" clip-path="url(#clip-path-7)">
              <path id="Trazado_215979" data-name="Trazado 215979" d="M99.092,52.763l0-2.662,5.032-1.439L96.9,48.127l-.154,2.142L91.156,49.9l.9,4.275Z" transform="translate(-91.156 -48.127)" fill="#fff"/>
            </g>
          </g>
        </g>
        <path id="Trazado_215980" data-name="Trazado 215980" d="M104.577,15.37l2.635-.378,3.876,6.518-1.893-9-2.417.269-1.291-5.35L101.5,9.695Z" transform="translate(-50.038 -3.663)" fill="#f37409"/>
        <g id="Grupo_150019" data-name="Grupo 150019" transform="translate(51.459 3.767)" opacity="0.3">
          <g id="Grupo_150018" data-name="Grupo 150018">
            <g id="Grupo_150017" data-name="Grupo 150017" clip-path="url(#clip-path-8)">
              <path id="Trazado_215981" data-name="Trazado 215981" d="M104.577,15.37l2.635-.378,3.876,6.518-1.893-9-2.417.269-1.291-5.35L101.5,9.695Z" transform="translate(-101.497 -7.43)" fill="#fff"/>
            </g>
          </g>
        </g>
        <path id="Trazado_215982" data-name="Trazado 215982" d="M19.473,60.091C8.736,60.091,0,53.007,0,44.3S8.736,28.508,19.473,28.508,38.946,35.592,38.946,44.3a14.56,14.56,0,0,1-5.932,11.347,5.431,5.431,0,0,0,4.841.916l.927-.2-.531.786a7.572,7.572,0,0,1-5.207,2.8,9.062,9.062,0,0,1-6.069-1.076,23.324,23.324,0,0,1-7.5,1.216m0-30.822C9.155,29.268.76,36.012.76,44.3S9.155,59.33,19.473,59.33A22.523,22.523,0,0,0,26.9,58.1l.18-.063.158.106A8.3,8.3,0,0,0,32.936,59.2a7.673,7.673,0,0,0,4.033-1.73,5.5,5.5,0,0,1-4.812-1.622l-.258-.308.321-.24a13.9,13.9,0,0,0,5.965-11c0-8.288-8.394-15.031-18.713-15.031" transform="translate(0 -14.055)" fill="#ececec"/>
        <path id="Trazado_215983" data-name="Trazado 215983" d="M399.76,58.875a9.058,9.058,0,0,1-6.068,1.076,7.572,7.572,0,0,1-5.207-2.8l-.531-.787.927.2a5.431,5.431,0,0,0,4.841-.915A14.561,14.561,0,0,1,387.79,44.3c0-8.707,8.736-15.791,19.473-15.791s19.473,7.084,19.473,15.791S418,60.091,407.263,60.091a23.312,23.312,0,0,1-7.5-1.216M388.551,44.3a13.9,13.9,0,0,0,5.965,11l.321.24-.257.308a5.5,5.5,0,0,1-4.812,1.623A7.677,7.677,0,0,0,393.8,59.2a8.3,8.3,0,0,0,5.695-1.059l.158-.106.181.063a22.539,22.539,0,0,0,7.43,1.235c10.318,0,18.713-6.743,18.713-15.031s-8.394-15.031-18.713-15.031S388.551,36.012,388.551,44.3" transform="translate(-191.182 -14.055)" fill="#ececec"/>
        <path id="Trazado_215984" data-name="Trazado 215984" d="M250.038,53.347l-5.628-2.484a64.428,64.428,0,0,1-9.4.047c-8.39-.5-12.9-3.734-11.87-8.759,1.2-5.889,6.837-7.693,16.837-7.3,5.9.231,10.024,2.121,11.812,4.723,2,2.912,1.5,7.856-3.527,10.081Z" transform="translate(-109.938 -17.156)" fill="#fafafa"/>
        <path id="Trazado_215985" data-name="Trazado 215985" d="M250.317,53.612l-6.2-2.735a66.65,66.65,0,0,1-9.371.042c-5.407-.32-9.235-1.753-11.071-4.143a5.825,5.825,0,0,1-1.033-4.92c1.162-5.682,6.275-7.925,17.1-7.5,5.676.222,10.054,1.983,12.011,4.833a6.743,6.743,0,0,1,.882,5.6,7.638,7.638,0,0,1-4.278,4.747ZM244.2,50.36l5.061,2.234-1.59-3.311.239-.105a7.047,7.047,0,0,0,4.232-4.53,6.226,6.226,0,0,0-.812-5.176c-1.866-2.716-6.1-4.4-11.613-4.613-10.516-.41-15.477,1.713-16.579,7.1a5.34,5.34,0,0,0,.938,4.509c1.744,2.27,5.443,3.635,10.7,3.945a64.782,64.782,0,0,0,9.358-.047Z" transform="translate(-109.69 -16.911)" fill="#375a64"/>
        <path id="Trazado_215986" data-name="Trazado 215986" d="M262.336,49.531a1.411,1.411,0,1,0,1.411-1.411,1.412,1.412,0,0,0-1.411,1.411" transform="translate(-129.333 -23.723)" fill="#375a64"/>
        <path id="Trazado_215987" data-name="Trazado 215987" d="M249.689,49.531A1.411,1.411,0,1,0,251.1,48.12a1.411,1.411,0,0,0-1.411,1.411" transform="translate(-123.098 -23.723)" fill="#375a64"/>
        <path id="Trazado_215988" data-name="Trazado 215988" d="M237.042,49.531a1.411,1.411,0,1,0,1.411-1.411,1.412,1.412,0,0,0-1.411,1.411" transform="translate(-116.863 -23.723)" fill="#375a64"/>
        <path id="Trazado_215989" data-name="Trazado 215989" d="M186.741,18.562l5.632-2a64.469,64.469,0,0,0,9.4.048c8.39-.5,12.9-3.734,11.87-8.759C212.437,1.962,206.8.159,196.8.55c-5.9.23-10.024,2.121-11.812,4.723-2,2.912-1.5,7.856,3.527,10.081Z" transform="translate(-90.662 -0.246)" fill="#fafafa"/>
        <path id="Trazado_215990" data-name="Trazado 215990" d="M185.949,18.779l1.97-3.555a7.632,7.632,0,0,1-4.263-4.739,6.74,6.74,0,0,1,.882-5.6C186.5,2.033,190.873.272,196.549.05c10.82-.424,15.933,1.822,17.1,7.5a5.825,5.825,0,0,1-1.033,4.92c-1.836,2.39-5.665,3.823-11.071,4.143a66.52,66.52,0,0,1-9.381-.043ZM198.99.507q-1.159,0-2.422.05c-5.514.215-9.747,1.9-11.613,4.613a6.231,6.231,0,0,0-.812,5.176,7.049,7.049,0,0,0,4.232,4.53l.254.112-1.588,2.865,5.055-1.794.057.006a64.679,64.679,0,0,0,9.358.047c5.255-.311,8.954-1.675,10.7-3.945a5.334,5.334,0,0,0,.938-4.509C212.134,2.7,207.857.507,198.99.507" transform="translate(-90.416 0)" fill="#375a64"/>
        <path id="Trazado_215991" data-name="Trazado 215991" d="M200.766,15.23a1.411,1.411,0,1,1-1.411-1.411,1.412,1.412,0,0,1,1.411,1.411" transform="translate(-97.587 -6.813)" fill="#375a64"/>
        <path id="Trazado_215992" data-name="Trazado 215992" d="M213.413,15.23A1.411,1.411,0,1,1,212,13.819a1.412,1.412,0,0,1,1.412,1.411" transform="translate(-103.822 -6.813)" fill="#375a64"/>
        <path id="Trazado_215993" data-name="Trazado 215993" d="M226.06,15.23a1.411,1.411,0,1,1-1.412-1.411,1.412,1.412,0,0,1,1.412,1.411" transform="translate(-110.057 -6.813)" fill="#375a64"/>
      </g>
    </g>
  </g>
</svg>
