<svg xmlns="http://www.w3.org/2000/svg" xmlns:xlink="http://www.w3.org/1999/xlink" width="98" height="98" viewBox="0 0 98 98">
  <defs>
    <filter id="Rectángulo_41988" x="0" y="0" width="98" height="98" filterUnits="userSpaceOnUse">
      <feOffset dy="3" input="SourceAlpha"/>
      <feGaussianBlur stdDeviation="3" result="blur"/>
      <feFlood flood-opacity="0.161"/>
      <feComposite operator="in" in2="blur"/>
      <feComposite in="SourceGraphic"/>
    </filter>
    <clipPath id="clip-path">
      <rect id="Rectángulo_44948" data-name="Rectángulo 44948" width="48.403" height="60.214" fill="none"/>
    </clipPath>
  </defs>
  <g id="Grupo_149046" data-name="Grupo 149046" transform="translate(-4761 9697)">
    <g transform="matrix(1, 0, 0, 1, 4761, -9697)" filter="url(#Rectángulo_41988)">
      <rect id="Rectángulo_41988-2" data-name="Rectángulo 41988" width="80" height="80" rx="17" transform="translate(9 6)" fill="#fff"/>
    </g>
    <g id="Grupo_149047" data-name="Grupo 149047" transform="translate(4791 -9680.107)">
      <path id="Trazado_213754" data-name="Trazado 213754" d="M0,0V60.215H17.052l.792-30.293L17.052,0Z" transform="translate(0 0)" fill="#636978"/>
      <rect id="Rectángulo_44945" data-name="Rectángulo 44945" width="16.801" height="60.214" transform="translate(16.919)" fill="#414952"/>
      <path id="Trazado_213755" data-name="Trazado 213755" d="M35.694,26.6l-1.64-2.231H27.106V76.218H39.712l1.2-25.739L39.712,26.6Z" transform="translate(-22.659 -20.371)" fill="#fff"/>
      <path id="Trazado_213756" data-name="Trazado 213756" d="M115.489,24.369h-6.948L106.9,26.6h-3.766V76.218h12.354Z" transform="translate(-86.216 -20.371)" fill="#e9edf5"/>
      <g id="Grupo_149048" data-name="Grupo 149048">
        <g id="Grupo_149047-2" data-name="Grupo 149047" clip-path="url(#clip-path)">
          <path id="Trazado_213757" data-name="Trazado 213757" d="M56.769,227.375a2.857,2.857,0,1,1,0,4.04,2.857,2.857,0,0,1,0-4.04" transform="translate(-46.757 -189.376)" fill="#ffce00"/>
          <path id="Trazado_213758" data-name="Trazado 213758" d="M117.584,285.284a2.858,2.858,0,1,1-2.858,2.858,2.858,2.858,0,0,1,2.858-2.858" transform="translate(-95.906 -238.484)" fill="#fdba12"/>
          <path id="Trazado_213759" data-name="Trazado 213759" d="M53.794,262.63l2.913,2.913,5.314-5.314.452-2.909-.452-2.918Z" transform="translate(-44.969 -212.668)" fill="#ffce00"/>
          <path id="Trazado_213760" data-name="Trazado 213760" d="M108.2,224.352l-5.063,5.063v5.827l7.976-7.976Z" transform="translate(-86.216 -187.548)" fill="#fdba12"/>
          <path id="Trazado_213761" data-name="Trazado 213761" d="M113.16,87.307a3.94,3.94,0,0,0-3.94,3.94v1.338h15.932l.374-2.639-.374-2.639H113.16Z" transform="translate(-91.303 -72.985)" fill="#4a98f7"/>
          <path id="Trazado_213762" data-name="Trazado 213762" d="M220.358,91.248a3.94,3.94,0,0,0-3.94-3.94H205.7v5.278h14.659Z" transform="translate(-171.955 -72.985)" fill="#2864f0"/>
          <path id="Trazado_213763" data-name="Trazado 213763" d="M109.22,152.514v6.065a3.94,3.94,0,0,0,3.94,3.94h11.992l.665-5.594-.665-4.411H109.22Z" transform="translate(-91.303 -127.495)" fill="#4a98f7"/>
          <path id="Trazado_213764" data-name="Trazado 213764" d="M205.7,152.513v10h10.72a3.94,3.94,0,0,0,3.94-3.94v-6.065H205.7Z" transform="translate(-171.955 -127.494)" fill="#2864f0"/>
          <path id="Trazado_213765" data-name="Trazado 213765" d="M109.22,119.479V124.9h15.932l.666-2.71-.666-2.71Z" transform="translate(-91.303 -99.879)" fill="#636978"/>
          <rect id="Rectángulo_44946" data-name="Rectángulo 44946" width="14.659" height="5.419" transform="translate(33.744 19.6)" fill="#414952"/>
          <rect id="Rectángulo_44947" data-name="Rectángulo 44947" width="6.67" height="3.057" transform="translate(21.252 29.188)" fill="#dce1eb"/>
        </g>
      </g>
    </g>
  </g>
</svg>
