<svg xmlns="http://www.w3.org/2000/svg" xmlns:xlink="http://www.w3.org/1999/xlink" width="535" height="530" viewBox="0 0 535 530">
  <defs>
    <filter id="Trazado_211531" x="0" y="0" width="535" height="530" filterUnits="userSpaceOnUse">
      <feOffset dy="3" input="SourceAlpha"/>
      <feGaussianBlur stdDeviation="5" result="blur"/>
      <feFlood flood-opacity="0.161"/>
      <feComposite operator="in" in2="blur"/>
      <feComposite in="SourceGraphic"/>
    </filter>
    <clipPath id="clip-path">
      <rect id="Rectángulo_45329" data-name="Rectángulo 45329" width="319.377" height="320.212" fill="none"/>
    </clipPath>
    <clipPath id="clip-path-3">
      <rect id="Rectángulo_45286" data-name="Rectángulo 45286" width="56.033" height="50.351" fill="none"/>
    </clipPath>
    <clipPath id="clip-path-4">
      <rect id="Rectángulo_45287" data-name="Rectángulo 45287" width="55.937" height="3.934" fill="none"/>
    </clipPath>
    <clipPath id="clip-path-5">
      <rect id="Rectángulo_45288" data-name="Rectángulo 45288" width="55.937" height="3.932" fill="none"/>
    </clipPath>
    <clipPath id="clip-path-7">
      <rect id="Rectángulo_45290" data-name="Rectángulo 45290" width="126.782" height="3.949" fill="none"/>
    </clipPath>
    <clipPath id="clip-path-9">
      <rect id="Rectángulo_45292" data-name="Rectángulo 45292" width="12.977" height="10.81" fill="none"/>
    </clipPath>
    <clipPath id="clip-path-10">
      <rect id="Rectángulo_45293" data-name="Rectángulo 45293" width="101.409" height="5.197" fill="none"/>
    </clipPath>
    <clipPath id="clip-path-12">
      <rect id="Rectángulo_45295" data-name="Rectángulo 45295" width="101.409" height="5.198" fill="none"/>
    </clipPath>
    <clipPath id="clip-path-13">
      <rect id="Rectángulo_45296" data-name="Rectángulo 45296" width="12.977" height="10.811" fill="none"/>
    </clipPath>
    <clipPath id="clip-path-18">
      <rect id="Rectángulo_45301" data-name="Rectángulo 45301" width="101.408" height="5.197" fill="none"/>
    </clipPath>
    <clipPath id="clip-path-19">
      <path id="Trazado_215355" data-name="Trazado 215355" d="M66.989,290.867l.488,4.109s2.8,1.3,4.717-.164l-1.162-4.581Z" transform="translate(-66.989 -290.232)" fill="none"/>
    </clipPath>
    <linearGradient id="linear-gradient" x1="-13.63" y1="2.107" x2="-13.426" y2="2.107" gradientUnits="objectBoundingBox">
      <stop offset="0" stop-color="#febbba"/>
      <stop offset="1" stop-color="#ff928e"/>
    </linearGradient>
    <clipPath id="clip-path-21">
      <path id="Trazado_215358" data-name="Trazado 215358" d="M49.279,289.452l1.139,6.215a4.016,4.016,0,0,0,3.354.23l-.543-6.685Z" transform="translate(-49.279 -289.212)" fill="none"/>
    </clipPath>
    <linearGradient id="linear-gradient-2" x1="-11.617" y1="1.9" x2="-11.381" y2="1.9" xlink:href="#linear-gradient"/>
    <clipPath id="clip-path-23">
      <path id="Trazado_215361" data-name="Trazado 215361" d="M110.741,149.955c-2.023,8.546-12.632,15.476-23.53,18.863a29.47,29.47,0,0,0,5.827,12.187c18.086-10.171,20.763-30.19,20.763-30.19a2.637,2.637,0,0,0-2.085-1.042,2.587,2.587,0,0,0-.974.182" transform="translate(-87.211 -149.773)" fill="none"/>
    </clipPath>
    <linearGradient id="linear-gradient-3" x1="-2.261" y1="4.62" x2="-2.234" y2="4.62" xlink:href="#linear-gradient"/>
    <clipPath id="clip-path-24">
      <path id="Trazado_215362" data-name="Trazado 215362" d="M109.659,145.894c-.526.717.008,4.49.043,5.371.963,1.837,2.6,1.153,2.458.7a3.645,3.645,0,0,0,2.74-1.616c.6-.848,1.228-1.932,1.691-2.765a3.7,3.7,0,0,0,.368-2.719,12.784,12.784,0,0,0-1.539-3.043l2.636-2.745a1.293,1.293,0,0,0-.162-1.8,70.234,70.234,0,0,0-8.236,8.611" transform="translate(-109.428 -137.283)" fill="none"/>
    </clipPath>
    <linearGradient id="linear-gradient-4" x1="-6.144" y1="12.12" x2="-6.086" y2="12.12" xlink:href="#linear-gradient"/>
    <clipPath id="clip-path-25">
      <path id="Trazado_215363" data-name="Trazado 215363" d="M111.772,145.291l-.754,2.027,2.142,2.376a27.631,27.631,0,0,1,1.254-4.893c.536-.871.258-1.291-.239-1.547Z" transform="translate(-111.018 -143.253)" fill="none"/>
    </clipPath>
    <linearGradient id="linear-gradient-5" x1="-15.405" y1="26.393" x2="-15.264" y2="26.393" xlink:href="#linear-gradient"/>
    <clipPath id="clip-path-27">
      <path id="Trazado_215365" data-name="Trazado 215365" d="M34.226,202.436c8.522,15.589,31.7-.861,31.7-.861l-1.909-3.554s-14.417,8.148-19.282,1.19a5.468,5.468,0,0,1-1-4.249,30.389,30.389,0,0,0-11.164-2.993,15.272,15.272,0,0,0,1.66,10.467" transform="translate(-32.274 -191.969)" fill="none"/>
    </clipPath>
    <linearGradient id="linear-gradient-6" x1="-0.995" y1="4.481" x2="-0.964" y2="4.481" xlink:href="#linear-gradient"/>
    <clipPath id="clip-path-29">
      <path id="Trazado_215369" data-name="Trazado 215369" d="M61.792,195.563c-.442,1.6.655,6.108.655,6.108a4.145,4.145,0,0,0,3.749-1.31c.861-.844,1.372-1.689,2.071-1.234a1.46,1.46,0,0,0,2.136-.491l-1.252-1.381c1.833.892,2.025-.776,2.025-.776l-1.345-1.041a1.634,1.634,0,0,0,2.34-1.412,41.771,41.771,0,0,0-6.223-1.66,4.832,4.832,0,0,0-.771-.065c-2.245,0-2.985,1.819-3.384,3.262" transform="translate(-61.687 -192.301)" fill="none"/>
    </clipPath>
    <linearGradient id="linear-gradient-7" x1="-6.007" y1="12.099" x2="-5.909" y2="12.099" xlink:href="#linear-gradient"/>
    <clipPath id="clip-path-30">
      <path id="Trazado_215370" data-name="Trazado 215370" d="M61.071,159.339,56.7,171.989a.453.453,0,0,0,.208.549,10.283,10.283,0,0,0,10.665-.716,2.147,2.147,0,0,0,.988-1.534l1.417-10.949Z" transform="translate(-56.671 -159.339)" fill="none"/>
    </clipPath>
    <linearGradient id="linear-gradient-8" x1="-4.492" y1="9.604" x2="-4.413" y2="9.604" xlink:href="#linear-gradient"/>
    <clipPath id="clip-path-31">
      <path id="Trazado_215371" data-name="Trazado 215371" d="M59.225,151.632l3.633,9.764c5.2,2.968,11.151,3.229,11.768-.424s-4.188-12.7-4.188-12.7Z" transform="translate(-59.225 -148.277)" fill="none"/>
    </clipPath>
    <linearGradient id="linear-gradient-9" x1="-2.672" y1="7.489" x2="-2.625" y2="7.489" xlink:href="#linear-gradient"/>
    <clipPath id="clip-path-33">
      <path id="Trazado_215373" data-name="Trazado 215373" d="M59.925,156.362c-.25,1.975,3.08,2.863,4.729,2.126l-1.059-1.756a6.86,6.86,0,0,0-2.784-1.162.807.807,0,0,0-.885.792" transform="translate(-59.911 -155.57)" fill="none"/>
    </clipPath>
    <linearGradient id="linear-gradient-10" x1="-11.001" y1="25.464" x2="-10.816" y2="25.464" xlink:href="#linear-gradient"/>
    <clipPath id="clip-path-34">
      <path id="Trazado_215374" data-name="Trazado 215374" d="M217.119,154.185c-3.283,6.275,4.105,9.257,4.105,9.257s-6.42,12.573,3.266,21.214,18.013,2.5,18.013,2.5l5.394-17.1s-10.87,14.34-18.588,9.373-5.736-11.765-4.413-16.9a3.4,3.4,0,0,0-.729-3.829,3.538,3.538,0,0,1-1.153-2.277s-1.373,1.587-.612,2.749a1.243,1.243,0,0,1,.154,1.124c-.113-.055-.23-.11-.353-.164-2.445-1.073-3.611-4.1-4.091-5.829a.533.533,0,0,0-.52-.394.525.525,0,0,0-.472.288" transform="translate(-216.278 -153.897)" fill="none"/>
    </clipPath>
    <linearGradient id="linear-gradient-11" x1="-4.397" y1="3.173" x2="-4.376" y2="3.173" xlink:href="#linear-gradient"/>
    <clipPath id="clip-path-36">
      <path id="Trazado_215377" data-name="Trazado 215377" d="M248.517,156.876c.539,1.727.912,11.375.912,11.375a7.3,7.3,0,0,0,7.33,1.18c-.256-4.261-3.671-13.92-3.671-13.92Z" transform="translate(-248.517 -155.511)" fill="none"/>
    </clipPath>
    <linearGradient id="linear-gradient-12" x1="-14.653" y1="11.098" x2="-14.593" y2="11.098" xlink:href="#linear-gradient"/>
    <clipPath id="clip-path-37">
      <path id="Trazado_215378" data-name="Trazado 215378" d="M248.65,143.081s-8.931,12.5-3.592,16.129,11.7-5.251,11.7-5.251,2.072-6.841-.094-9.162c-1.424-1.525-4.437-1.787-6.335-1.787-.989,0-1.676.071-1.676.071" transform="translate(-243.356 -143.01)" fill="none"/>
    </clipPath>
    <linearGradient id="linear-gradient-13" x1="-9.774" y1="6.603" x2="-9.733" y2="6.603" xlink:href="#linear-gradient"/>
    <clipPath id="clip-path-39">
      <path id="Trazado_215380" data-name="Trazado 215380" d="M254.372,152.607l.168,1.905c1.561,1.289,6.074-.682,4.691-3.307a1.442,1.442,0,0,0-1.318-.889c-1.565,0-3.542,2.29-3.542,2.29" transform="translate(-254.372 -150.317)" fill="none"/>
    </clipPath>
    <linearGradient id="linear-gradient-14" x1="-33.709" y1="21.338" x2="-33.576" y2="21.338" xlink:href="#linear-gradient"/>
    <clipPath id="clip-path-40">
      <path id="Trazado_215381" data-name="Trazado 215381" d="M236.359,246a4.731,4.731,0,0,0,.508,3.391l22.44,37.767a5.158,5.158,0,0,1,.589,1.47,32.361,32.361,0,0,1,.819,10.068l-1.161,2.411,5.021-1.14,1.093-13.484-1.422-.866a6.749,6.749,0,0,1-2.731-3.2c-2.029-4.928-7.067-17.474-8.367-23.59-1.475-6.949-9.192-12.594-9.192-12.594l1.355-3.2-7.139-5.956c.026.678-1.164,6.056-1.812,8.925" transform="translate(-236.243 -237.077)" fill="none"/>
    </clipPath>
    <linearGradient id="linear-gradient-15" x1="-4.155" y1="1.028" x2="-4.136" y2="1.028" xlink:href="#linear-gradient"/>
    <clipPath id="clip-path-42">
      <path id="Trazado_215383" data-name="Trazado 215383" d="M250.982,242.808s.792,33.783.9,38.581-.758,15.431-5.568,18.61l2.093,1.549a27.967,27.967,0,0,0,5.172-6.5,39.443,39.443,0,0,1,3.739-5.684l-.952-1.951a4.282,4.282,0,0,1-.348-2.751c1.038-5.032,4.505-21.764,5.451-25.368,1.117-4.253,1.2-9.934-2.688-14.689-1.731-2.118-3.467-2.706-4.859-2.706a5.274,5.274,0,0,0-2.938.91" transform="translate(-246.313 -241.898)" fill="none"/>
    </clipPath>
    <linearGradient id="linear-gradient-16" x1="-5.986" y1="1.063" x2="-5.961" y2="1.063" xlink:href="#linear-gradient"/>
    <clipPath id="clip-path-44">
      <path id="Trazado_215386" data-name="Trazado 215386" d="M258.881,179.786a5.588,5.588,0,0,0,1.633,2.223c12.364,10.29,9.368,17.078,4.522,19.274-4.975,2.254-3.346-.527-6.862-.543a5.048,5.048,0,0,0-3.9,2.518c-.946,1.472-1,2.944.615,2.4,3-1.008,5.537,1.818,5.537,1.818s18.647-1.316,15.94-13.7-13.615-21.452-13.615-21.452a4.939,4.939,0,0,0-2.414-.783c-2.566,0-3.355,3.476-1.458,8.249" transform="translate(-253.611 -171.537)" fill="none"/>
    </clipPath>
    <linearGradient id="linear-gradient-17" x1="-6.277" y1="3.228" x2="-6.252" y2="3.228" xlink:href="#linear-gradient"/>
  </defs>
  <g id="Grupo_150097" data-name="Grupo 150097" transform="translate(-269.499 -2802.402)">
    <g transform="matrix(1, 0, 0, 1, 269.5, 2802.4)" filter="url(#Trazado_211531)">
      <path id="Trazado_211531-2" data-name="Trazado 211531" d="M34.695,0H470.305C489.467,0,505,12.064,505,26.946V473.054C505,487.936,489.467,500,470.305,500H34.695C15.533,500,0,487.936,0,473.054V26.946C0,12.064,15.533,0,34.695,0Z" transform="translate(15 12)" fill="#feeeab"/>
    </g>
    <path id="Trazado_214965" data-name="Trazado 214965" d="M0,0H505V62a32,32,0,0,1-32,32H32A32,32,0,0,1,0,62Z" transform="translate(284.501 3224.138)" fill="#fbdb5e"/>
    <path id="Trazado_216363" data-name="Trazado 216363" d="M-84.131-4.814a5.193,5.193,0,0,1-.8,2.622A4.833,4.833,0,0,1-86.987-.43,7,7,0,0,1-90.01.2a5.584,5.584,0,0,1-4.414-1.826,7.54,7.54,0,0,1-1.611-5.156v-.7a8.607,8.607,0,0,1,.728-3.657,5.513,5.513,0,0,1,2.095-2.422,5.844,5.844,0,0,1,3.164-.854,6.129,6.129,0,0,1,4.16,1.362A5.383,5.383,0,0,1-84.1-9.307H-87.52a2.547,2.547,0,0,0-.654-1.865,2.691,2.691,0,0,0-1.875-.566,2.048,2.048,0,0,0-1.875.957,6.151,6.151,0,0,0-.625,3.057v1.006a6.806,6.806,0,0,0,.571,3.252,2.091,2.091,0,0,0,1.968.977A2.632,2.632,0,0,0-88.2-3.047a2.363,2.363,0,0,0,.664-1.768Zm1.055-.566A6.236,6.236,0,0,1-82.461-8.2a4.4,4.4,0,0,1,1.768-1.9,5.323,5.323,0,0,1,2.705-.664,4.858,4.858,0,0,1,3.74,1.47,5.64,5.64,0,0,1,1.367,4v.117a5.472,5.472,0,0,1-1.372,3.921A4.871,4.871,0,0,1-77.969.2a4.927,4.927,0,0,1-3.623-1.353,5.29,5.29,0,0,1-1.475-3.667Zm3.291.205a3.932,3.932,0,0,0,.459,2.148,1.529,1.529,0,0,0,1.357.684q1.758,0,1.8-2.705v-.332q0-2.842-1.816-2.842-1.65,0-1.787,2.451Zm11.465-5.391.107,1.24A3.633,3.633,0,0,1-65.2-10.762,2.675,2.675,0,0,1-62.49-9.17a3.516,3.516,0,0,1,3.105-1.592q3.213,0,3.3,3.887V0h-3.3V-6.67a2.014,2.014,0,0,0-.273-1.182,1.164,1.164,0,0,0-1-.371,1.559,1.559,0,0,0-1.455.869l.01.137V0h-3.3V-6.65a2.117,2.117,0,0,0-.264-1.2,1.161,1.161,0,0,0-1.006-.371,1.578,1.578,0,0,0-1.445.869V0h-3.291V-10.566Zm20.41,9.424A3.393,3.393,0,0,1-50.732.2,3.328,3.328,0,0,1-53.364-.815a4.251,4.251,0,0,1-.894-2.905v-6.846h3.291V-3.7a1.183,1.183,0,0,0,1.318,1.357,1.72,1.72,0,0,0,1.611-.811v-7.412h3.311V0h-3.086Zm8.008-9.424.107,1.24a3.583,3.583,0,0,1,3.018-1.436,3.015,3.015,0,0,1,2.466.986,4.7,4.7,0,0,1,.845,2.969V0h-3.3V-6.67a1.783,1.783,0,0,0-.322-1.177,1.491,1.491,0,0,0-1.172-.376,1.569,1.569,0,0,0-1.436.762V0h-3.291V-10.566ZM-28.174,0h-3.3V-10.566h3.3Zm-3.5-13.291a1.469,1.469,0,0,1,.508-1.152,1.916,1.916,0,0,1,1.318-.449,1.916,1.916,0,0,1,1.318.449,1.469,1.469,0,0,1,.508,1.152,1.469,1.469,0,0,1-.508,1.152,1.916,1.916,0,0,1-1.318.449,1.916,1.916,0,0,1-1.318-.449A1.469,1.469,0,0,1-31.67-13.291Zm9.99,10.947a1.464,1.464,0,0,0,1.074-.376,1.379,1.379,0,0,0,.371-1.05h3.086A3.653,3.653,0,0,1-18.394-.918,4.631,4.631,0,0,1-21.6.2,4.689,4.689,0,0,1-25.234-1.25a5.7,5.7,0,0,1-1.328-4v-.137a6.436,6.436,0,0,1,.591-2.827,4.3,4.3,0,0,1,1.7-1.885,5.081,5.081,0,0,1,2.637-.659,4.573,4.573,0,0,1,3.271,1.143,4.053,4.053,0,0,1,1.211,3.1h-3.086a1.807,1.807,0,0,0-.4-1.26,1.382,1.382,0,0,0-1.074-.439q-1.279,0-1.494,1.631a11.508,11.508,0,0,0-.068,1.426,4.52,4.52,0,0,0,.381,2.207A1.319,1.319,0,0,0-21.68-2.344ZM-9.8,0a3.716,3.716,0,0,1-.312-.947A3.06,3.06,0,0,1-12.656.2a3.749,3.749,0,0,1-2.539-.9A2.875,2.875,0,0,1-16.24-2.979a2.955,2.955,0,0,1,1.27-2.6,6.468,6.468,0,0,1,3.691-.879h1.016v-.559q0-1.462-1.26-1.462A1.03,1.03,0,0,0-12.7-7.319h-3.291a2.95,2.95,0,0,1,1.3-2.487,5.479,5.479,0,0,1,3.325-.956,4.8,4.8,0,0,1,3.193.986,3.429,3.429,0,0,1,1.2,2.705v4.678A4.79,4.79,0,0,0-6.514-.166V0Zm-2.061-2.148a1.836,1.836,0,0,0,1.021-.264,1.653,1.653,0,0,0,.581-.6V-4.7h-.957q-1.719,0-1.719,1.543a.942.942,0,0,0,.3.728A1.1,1.1,0,0,0-11.865-2.148Zm11.191-.2A1.464,1.464,0,0,0,.4-2.72,1.379,1.379,0,0,0,.771-3.77H3.857A3.653,3.653,0,0,1,2.612-.918,4.631,4.631,0,0,1-.6.2,4.689,4.689,0,0,1-4.229-1.25a5.7,5.7,0,0,1-1.328-4v-.137a6.436,6.436,0,0,1,.591-2.827,4.3,4.3,0,0,1,1.7-1.885,5.081,5.081,0,0,1,2.637-.659A4.573,4.573,0,0,1,2.646-9.619a4.053,4.053,0,0,1,1.211,3.1H.771a1.807,1.807,0,0,0-.4-1.26A1.382,1.382,0,0,0-.7-8.223q-1.279,0-1.494,1.631a11.508,11.508,0,0,0-.068,1.426,4.52,4.52,0,0,0,.381,2.207A1.319,1.319,0,0,0-.674-2.344ZM8.721,0H5.42V-10.566h3.3Zm-3.5-13.291a1.469,1.469,0,0,1,.508-1.152,1.916,1.916,0,0,1,1.318-.449,1.916,1.916,0,0,1,1.318.449,1.469,1.469,0,0,1,.508,1.152,1.469,1.469,0,0,1-.508,1.152,1.916,1.916,0,0,1-1.318.449,1.916,1.916,0,0,1-1.318-.449A1.469,1.469,0,0,1,5.225-13.291Zm5.107,7.91A6.236,6.236,0,0,1,10.947-8.2a4.4,4.4,0,0,1,1.768-1.9,5.323,5.323,0,0,1,2.705-.664,4.858,4.858,0,0,1,3.74,1.47,5.64,5.64,0,0,1,1.367,4v.117a5.472,5.472,0,0,1-1.372,3.921A4.871,4.871,0,0,1,15.439.2a4.927,4.927,0,0,1-3.623-1.353,5.29,5.29,0,0,1-1.475-3.667Zm3.291.205a3.932,3.932,0,0,0,.459,2.148,1.529,1.529,0,0,0,1.357.684q1.758,0,1.8-2.705v-.332q0-2.842-1.816-2.842-1.65,0-1.787,2.451ZM15.869-15h3.477l-2.715,3.066-2.686,0ZM25-10.566l.107,1.24a3.583,3.583,0,0,1,3.018-1.436,3.015,3.015,0,0,1,2.466.986,4.7,4.7,0,0,1,.845,2.969V0h-3.3V-6.67a1.783,1.783,0,0,0-.322-1.177,1.491,1.491,0,0,0-1.172-.376,1.569,1.569,0,0,0-1.436.762V0H21.914V-10.566ZM38.965,0V-8.281H37.432v-2.285h1.533v-.84a3.651,3.651,0,0,1,1.064-2.8,4.206,4.206,0,0,1,2.988-1A6.544,6.544,0,0,1,44.561-15l.01,2.422a3.007,3.007,0,0,0-.811-.088q-1.494,0-1.494,1.289v.811h2.061v2.285H42.266V0Zm6.1-5.381A6.236,6.236,0,0,1,45.684-8.2a4.4,4.4,0,0,1,1.768-1.9,5.323,5.323,0,0,1,2.705-.664,4.858,4.858,0,0,1,3.74,1.47,5.64,5.64,0,0,1,1.367,4v.117a5.472,5.472,0,0,1-1.372,3.921A4.871,4.871,0,0,1,50.176.2a4.927,4.927,0,0,1-3.623-1.353,5.29,5.29,0,0,1-1.475-3.667Zm3.291.205a3.932,3.932,0,0,0,.459,2.148,1.529,1.529,0,0,0,1.357.684q1.758,0,1.8-2.705v-.332q0-2.842-1.816-2.842-1.65,0-1.787,2.451ZM63.105-7.588l-1.084-.078a1.947,1.947,0,0,0-1.992.977V0H56.738V-10.566h3.086l.107,1.357a2.548,2.548,0,0,1,2.314-1.553,3.209,3.209,0,0,1,.918.117Zm4.3-2.979.107,1.24a3.633,3.633,0,0,1,3.018-1.436A2.675,2.675,0,0,1,73.232-9.17a3.517,3.517,0,0,1,3.105-1.592q3.213,0,3.3,3.887V0h-3.3V-6.67a2.014,2.014,0,0,0-.273-1.182,1.164,1.164,0,0,0-1-.371,1.559,1.559,0,0,0-1.455.869l.01.137V0h-3.3V-6.65a2.117,2.117,0,0,0-.264-1.2,1.161,1.161,0,0,0-1.006-.371,1.578,1.578,0,0,0-1.445.869V0H64.316V-10.566ZM87.471,0a3.716,3.716,0,0,1-.312-.947A3.06,3.06,0,0,1,84.619.2a3.749,3.749,0,0,1-2.539-.9,2.875,2.875,0,0,1-1.045-2.271,2.955,2.955,0,0,1,1.27-2.6A6.468,6.468,0,0,1,86-6.455h1.016v-.559q0-1.462-1.26-1.462A1.03,1.03,0,0,0,84.58-7.319H81.289a2.95,2.95,0,0,1,1.3-2.487,5.479,5.479,0,0,1,3.325-.956,4.8,4.8,0,0,1,3.193.986,3.429,3.429,0,0,1,1.2,2.705v4.678a4.79,4.79,0,0,0,.449,2.227V0ZM85.41-2.148a1.836,1.836,0,0,0,1.021-.264,1.653,1.653,0,0,0,.581-.6V-4.7h-.957q-1.719,0-1.719,1.543a.942.942,0,0,0,.3.728A1.1,1.1,0,0,0,85.41-2.148ZM95.605,0H92.3V-15h3.3Z" transform="translate(536.999 3278.138)" fill="#12263f"/>
    <g id="Grupo_149893" data-name="Grupo 149893" transform="translate(369.499 2867.634)">
      <g id="Grupo_149892" data-name="Grupo 149892" clip-path="url(#clip-path)">
        <g id="Grupo_149839" data-name="Grupo 149839">
          <g id="Grupo_149838" data-name="Grupo 149838" clip-path="url(#clip-path)">
            <path id="Trazado_215298" data-name="Trazado 215298" d="M271.5,33.368a.443.443,0,0,1-.4.092c-.567-.154-1.137-.3-1.7-.422a.442.442,0,1,1,.195-.862c.572.129,1.155.273,1.734.43a.441.441,0,0,1,.31.542.436.436,0,0,1-.138.219" transform="translate(15.903 1.901)" fill="#fff"/>
            <path id="Trazado_215299" data-name="Trazado 215299" d="M287.621,106.159c-.783.673-1.6,1.324-2.424,1.935a.441.441,0,1,1-.525-.71c.951-.7,1.883-1.461,2.776-2.246l0,0a.442.442,0,0,1,.58.666c-.137.121-.273.239-.411.358m4.52-4.53a.442.442,0,0,1-.624-.623c.771-.9,1.513-1.845,2.206-2.809a.442.442,0,0,1,.718.516c-.707.984-1.466,1.949-2.253,2.868a.5.5,0,0,1-.048.048m5.319-7.82a.442.442,0,0,1-.68-.541c.556-1.051,1.072-2.135,1.535-3.224a.442.442,0,1,1,.813.345c-.472,1.112-1,2.219-1.566,3.292a.449.449,0,0,1-.1.128m3.457-8.8a.442.442,0,0,1-.716-.449c.307-1.143.568-2.315.775-3.484a.442.442,0,1,1,.871.155c-.212,1.194-.479,2.391-.791,3.559a.448.448,0,0,1-.139.22m1.4-9.347a.437.437,0,0,1-.305.106.442.442,0,0,1-.426-.458c.043-1.183.037-2.385-.021-3.57a.442.442,0,0,1,.883-.043c.059,1.212.066,2.438.022,3.647a.443.443,0,0,1-.154.319m-.71-9.428a.454.454,0,0,1-.207.1.443.443,0,0,1-.516-.353c-.221-1.167-.493-2.337-.811-3.478a.442.442,0,0,1,.852-.237c.324,1.165.6,2.36.828,3.551a.444.444,0,0,1-.146.417M298.835,57.2a.436.436,0,0,1-.112.07.442.442,0,0,1-.581-.229c-.472-1.089-1-2.169-1.561-3.212a.442.442,0,0,1,.778-.42c.575,1.065,1.111,2.169,1.593,3.28a.442.442,0,0,1-.117.512M294.121,49a.257.257,0,0,1-.026.021.441.441,0,0,1-.617-.093c-.622-.844-1.282-1.674-1.964-2.467-.091-.106-.182-.211-.274-.316a.442.442,0,0,1,.04-.624l0,0a.443.443,0,0,1,.621.043c.094.107.187.215.281.323.7.809,1.37,1.656,2,2.519a.441.441,0,0,1-.068.6m-6.427-6.936a.442.442,0,0,1-.576,0c-.9-.772-1.84-1.517-2.8-2.214a.442.442,0,0,1,.518-.717c.984.712,1.947,1.472,2.863,2.26a.444.444,0,0,1,.047.624.4.4,0,0,1-.048.047m-7.806-5.34a.442.442,0,0,1-.5.055c-1.05-.559-2.134-1.077-3.221-1.543a.442.442,0,1,1,.347-.812c1.11.474,2.217,1,3.289,1.575a.442.442,0,0,1,.08.725" transform="translate(16.308 2.032)" fill="#fff"/>
            <path id="Trazado_215300" data-name="Trazado 215300" d="M280.144,106.989a.466.466,0,0,1-.078.054c-.527.286-1.061.561-1.587.818a.442.442,0,1,1-.389-.793c.515-.252,1.037-.522,1.555-.8a.442.442,0,0,1,.5.723" transform="translate(16.423 6.278)" fill="#fff"/>
            <path id="Trazado_215301" data-name="Trazado 215301" d="M249,110.008a.444.444,0,0,1-.423.087c-.561-.179-1.13-.373-1.69-.576a.442.442,0,0,1,.3-.831c.549.2,1.106.39,1.655.565a.442.442,0,0,1,.287.555.433.433,0,0,1-.132.2" transform="translate(14.576 6.423)" fill="#fff"/>
            <path id="Trazado_215302" data-name="Trazado 215302" d="M243.611,111.278a.442.442,0,0,1-.495.055c-1.051-.555-2.094-1.163-3.1-1.807a.442.442,0,0,1,.477-.745c.986.63,2.007,1.226,3.036,1.77a.443.443,0,0,1,.184.6.477.477,0,0,1-.1.129m-7.706-5.217a.443.443,0,0,1-.574,0c-.91-.773-1.8-1.593-2.634-2.437a.442.442,0,1,1,.627-.623c.821.826,1.689,1.629,2.58,2.386a.441.441,0,0,1,.05.623.542.542,0,0,1-.049.05m-6.381-6.775-.022.019a.444.444,0,0,1-.62-.088c-.715-.952-1.4-1.947-2.032-2.956a.442.442,0,1,1,.749-.47c.621.989,1.29,1.964,1.99,2.895a.441.441,0,0,1-.065.6m-4.734-8.01a.459.459,0,0,1-.107.068.442.442,0,0,1-.585-.221c-.489-1.086-.938-2.206-1.336-3.33a.442.442,0,1,1,.834-.294c.389,1.1.829,2.2,1.308,3.261a.443.443,0,0,1-.114.517m-2.869-8.851a.443.443,0,0,1-.721-.246c-.241-1.166-.435-2.358-.579-3.541a.442.442,0,0,1,.878-.106c.14,1.159.331,2.325.568,3.468a.444.444,0,0,1-.145.425m-.876-9.262a.442.442,0,0,1-.73-.342c.019-1.193.089-2.4.207-3.581a.442.442,0,0,1,.88.088c-.117,1.16-.184,2.34-.2,3.507a.439.439,0,0,1-.155.328m1.171-9.226a.442.442,0,0,1-.718-.438c.28-1.16.612-2.319.988-3.45a.442.442,0,1,1,.839.28c-.369,1.106-.694,2.242-.968,3.376a.443.443,0,0,1-.141.232m3.171-8.746a.442.442,0,0,1-.685-.53c.526-1.065,1.1-2.125,1.721-3.148a.442.442,0,1,1,.757.455c-.6,1-1.17,2.04-1.685,3.083a.441.441,0,0,1-.108.139m5-7.845a.442.442,0,0,1-.632-.612c.749-.932,1.543-1.841,2.363-2.7a.442.442,0,1,1,.64.609c-.8.843-1.58,1.733-2.313,2.646a.426.426,0,0,1-.057.058m9.46-8.662a.424.424,0,0,1-.043.033c-.971.648-1.927,1.345-2.838,2.072a.442.442,0,0,1-.621-.07.437.437,0,0,1,.07-.622c.931-.741,1.906-1.453,2.9-2.115a.442.442,0,0,1,.534.7" transform="translate(13.022 2.241)" fill="#fff"/>
            <path id="Trazado_215303" data-name="Trazado 215303" d="M245.151,35.274a.469.469,0,0,1-.112.071c-.537.233-1.072.478-1.59.729a.442.442,0,0,1-.386-.8c.53-.256,1.075-.506,1.624-.745a.442.442,0,0,1,.464.74" transform="translate(14.352 2.039)" fill="#fff"/>
            <path id="Trazado_215304" data-name="Trazado 215304" d="M253.385,42.164a.507.507,0,0,0-.412.422l-.956,6.1a26.9,26.9,0,0,0-7.345,4.7L238.732,51.7a.507.507,0,0,0-.555.2l-4.237,6.079a.508.508,0,0,0,.006.589l3.637,4.989a26.935,26.935,0,0,0-1.866,8.516l-5.4,3.01a.505.505,0,0,0-.252.532l1.3,7.3a.506.506,0,0,0,.422.412l6.1.956a26.877,26.877,0,0,0,4.7,7.345l-1.687,5.939a.508.508,0,0,0,.2.555l6.079,4.237a.507.507,0,0,0,.59-.006l4.988-3.637a26.936,26.936,0,0,0,8.517,1.866l3.009,5.4a.508.508,0,0,0,.533.253l7.294-1.3a.509.509,0,0,0,.413-.422l.956-6.1a26.93,26.93,0,0,0,7.345-4.7l5.938,1.686a.506.506,0,0,0,.555-.2l4.239-6.079a.509.509,0,0,0-.006-.59l-3.638-4.988a26.877,26.877,0,0,0,1.866-8.517l5.4-3.009a.506.506,0,0,0,.253-.532l-1.3-7.3a.507.507,0,0,0-.42-.413l-6.1-.955a26.923,26.923,0,0,0-4.7-7.346l1.686-5.938a.506.506,0,0,0-.2-.555l-6.079-4.237a.506.506,0,0,0-.589.006l-4.988,3.637a26.942,26.942,0,0,0-8.517-1.866l-3.009-5.4a.508.508,0,0,0-.533-.253Z" transform="translate(13.599 2.415)" fill="#fff"/>
            <path id="Trazado_215305" data-name="Trazado 215305" d="M266.064,77.611a7.255,7.255,0,1,1,2.042-2.926,7.266,7.266,0,0,1-2.042,2.926m-8.6-9.97a5.937,5.937,0,1,0,1.432-.91,5.881,5.881,0,0,0-1.432.91M255.176,69.8l0,0Z" transform="translate(15.018 3.835)" fill="#e8eaed"/>
            <path id="Trazado_215306" data-name="Trazado 215306" d="M274.095,86.954a18.545,18.545,0,0,1-27.309-24.663c.089-.127.179-.253.271-.378a18.685,18.685,0,0,1,2.053-2.353c.087-.085.175-.168.263-.251l.9.971a17.321,17.321,0,0,0-2.4,2.77l-.019.029A17.212,17.212,0,1,0,263.2,55.716l.091-1.323a18.549,18.549,0,0,1,10.807,32.561" transform="translate(14.391 3.215)" fill="#e8eaed"/>
            <path id="Trazado_215307" data-name="Trazado 215307" d="M238.491,2.869a.265.265,0,0,1-.243.055c-.34-.092-.683-.177-1.02-.253a.265.265,0,1,1,.116-.518c.344.077.695.164,1.042.258a.264.264,0,0,1,.186.325.258.258,0,0,1-.083.132" transform="translate(14.01 0.127)" fill="#fff"/>
            <path id="Trazado_215308" data-name="Trazado 215308" d="M248.179,46.619c-.47.4-.961.8-1.457,1.163a.265.265,0,0,1-.316-.427c.572-.423,1.132-.877,1.669-1.349l0,0a.265.265,0,0,1,.348.4c-.082.072-.164.144-.247.215M250.9,43.9a.265.265,0,0,1-.374-.374c.463-.541.909-1.109,1.325-1.688a.266.266,0,0,1,.432.31c-.426.591-.881,1.171-1.354,1.723a.252.252,0,0,1-.03.029m3.2-4.7a.263.263,0,0,1-.3.034.265.265,0,0,1-.111-.359c.334-.631.644-1.284.922-1.938a.265.265,0,0,1,.488.209c-.284.668-.6,1.333-.942,1.978a.256.256,0,0,1-.061.076m2.078-5.288a.262.262,0,0,1-.241.055.266.266,0,0,1-.189-.325c.184-.687.341-1.392.466-2.094a.266.266,0,1,1,.523.093c-.127.717-.287,1.437-.476,2.138a.267.267,0,0,1-.084.132m.844-5.618a.262.262,0,0,1-.183.064.266.266,0,0,1-.256-.275c.026-.711.022-1.433-.013-2.146a.266.266,0,0,1,.531-.025c.036.728.04,1.465.014,2.191a.266.266,0,0,1-.092.192m-.427-5.666a.276.276,0,0,1-.124.059.267.267,0,0,1-.31-.212c-.132-.7-.3-1.4-.487-2.091a.265.265,0,1,1,.512-.142c.195.7.362,1.418.5,2.134a.266.266,0,0,1-.088.251m-1.668-5.433a.293.293,0,0,1-.068.042.266.266,0,0,1-.35-.138c-.284-.655-.6-1.3-.938-1.931a.266.266,0,0,1,.468-.253c.345.641.667,1.3.957,1.972a.266.266,0,0,1-.07.307m-2.833-4.928-.016.013a.266.266,0,0,1-.372-.057c-.373-.506-.77-1.005-1.18-1.482l-.165-.19a.266.266,0,0,1,.024-.375l0,0a.266.266,0,0,1,.373.025l.168.195c.419.486.824,1,1.205,1.513a.267.267,0,0,1-.04.359m-3.863-4.169a.266.266,0,0,1-.346,0c-.539-.464-1.106-.911-1.685-1.33a.265.265,0,0,1,.311-.43c.591.427,1.169.884,1.72,1.358a.265.265,0,0,1,.028.375.237.237,0,0,1-.028.029m-4.692-3.21a.266.266,0,0,1-.3.033c-.631-.336-1.283-.647-1.936-.927a.265.265,0,0,1,.209-.488c.667.285,1.332.6,1.976.946a.266.266,0,0,1,.11.36.27.27,0,0,1-.061.076" transform="translate(14.253 0.206)" fill="#fff"/>
            <path id="Trazado_215309" data-name="Trazado 215309" d="M243.685,47.117a.3.3,0,0,1-.047.033c-.318.172-.639.337-.954.491a.266.266,0,0,1-.233-.478c.309-.15.623-.313.934-.482a.266.266,0,0,1,.3.435" transform="translate(14.322 2.757)" fill="#fff"/>
            <path id="Trazado_215310" data-name="Trazado 215310" d="M224.968,48.932a.266.266,0,0,1-.254.052c-.337-.107-.679-.223-1.016-.346a.266.266,0,1,1,.182-.5c.329.12.664.234.995.339a.266.266,0,0,1,.173.334.257.257,0,0,1-.079.121" transform="translate(13.212 2.844)" fill="#fff"/>
            <path id="Trazado_215311" data-name="Trazado 215311" d="M221.727,49.7a.264.264,0,0,1-.3.034c-.632-.334-1.258-.7-1.863-1.087a.265.265,0,1,1,.286-.447c.593.379,1.206.737,1.825,1.063a.264.264,0,0,1,.049.436M217.1,46.56a.265.265,0,0,1-.344,0c-.547-.464-1.079-.957-1.583-1.465a.265.265,0,1,1,.377-.374c.494.5,1.015.979,1.551,1.434a.266.266,0,0,1,.03.375.261.261,0,0,1-.03.03m-3.835-4.072-.014.012a.265.265,0,0,1-.372-.053c-.43-.572-.841-1.17-1.221-1.777a.266.266,0,1,1,.45-.282c.373.594.775,1.18,1.2,1.739a.265.265,0,0,1-.039.361m-2.846-4.815a.235.235,0,0,1-.064.041.266.266,0,0,1-.352-.133c-.294-.652-.563-1.326-.8-2a.266.266,0,1,1,.5-.177c.234.662.5,1.322.786,1.96a.265.265,0,0,1-.069.31m-1.724-5.319a.26.26,0,0,1-.119.058.266.266,0,0,1-.315-.207c-.145-.7-.262-1.417-.347-2.128a.266.266,0,1,1,.527-.064c.084.7.2,1.4.34,2.084a.264.264,0,0,1-.087.255m-.526-5.567a.266.266,0,0,1-.438-.207c.012-.716.053-1.44.125-2.152a.266.266,0,0,1,.529.053c-.07.7-.111,1.406-.122,2.108a.266.266,0,0,1-.093.2m.7-5.545a.266.266,0,0,1-.432-.264c.168-.7.369-1.394.594-2.073a.266.266,0,0,1,.5.167c-.221.665-.417,1.348-.581,2.03a.268.268,0,0,1-.085.139m1.905-5.256a.265.265,0,0,1-.411-.319c.316-.64.664-1.276,1.034-1.892a.266.266,0,1,1,.455.273c-.362.6-.7,1.226-1.012,1.853a.271.271,0,0,1-.066.084m3.007-4.715a.266.266,0,0,1-.38-.369c.45-.559.928-1.106,1.419-1.623a.266.266,0,1,1,.386.366c-.482.506-.95,1.041-1.391,1.59a.353.353,0,0,1-.034.035m5.685-5.207-.026.02c-.584.389-1.158.808-1.705,1.244a.266.266,0,0,1-.374-.042.262.262,0,0,1,.042-.373c.56-.446,1.146-.874,1.742-1.272a.266.266,0,0,1,.321.423" transform="translate(12.278 0.331)" fill="#fff"/>
            <path id="Trazado_215312" data-name="Trazado 215312" d="M222.653,4.014a.261.261,0,0,1-.068.042c-.323.14-.644.287-.955.438a.266.266,0,0,1-.231-.479c.318-.154.645-.3.974-.447a.266.266,0,0,1,.28.445" transform="translate(13.078 0.21)" fill="#fff"/>
            <path id="Trazado_215313" data-name="Trazado 215313" d="M227.6,8.155a.306.306,0,0,0-.248.253l-.575,3.669a16.179,16.179,0,0,0-4.414,2.824L218.8,13.887a.3.3,0,0,0-.334.119l-2.547,3.654a.3.3,0,0,0,0,.354l2.186,3a16.165,16.165,0,0,0-1.122,5.12l-3.243,1.808a.306.306,0,0,0-.151.321l.783,4.384a.3.3,0,0,0,.253.248l3.668.575a16.172,16.172,0,0,0,2.824,4.414l-1.014,3.57a.307.307,0,0,0,.12.334l3.654,2.546a.3.3,0,0,0,.354,0l3-2.186a16.193,16.193,0,0,0,5.119,1.121l1.809,3.243a.305.305,0,0,0,.32.153l4.385-.783a.306.306,0,0,0,.248-.253l.575-3.669A16.188,16.188,0,0,0,244.1,39.13l3.569,1.014a.3.3,0,0,0,.334-.119l2.547-3.654a.307.307,0,0,0,0-.355l-2.187-3a16.153,16.153,0,0,0,1.122-5.119l3.243-1.809a.3.3,0,0,0,.151-.32l-.783-4.385a.3.3,0,0,0-.253-.248l-3.668-.574a16.193,16.193,0,0,0-2.824-4.415l1.014-3.569a.306.306,0,0,0-.12-.334L242.587,9.7a.3.3,0,0,0-.354,0l-3,2.186a16.188,16.188,0,0,0-5.119-1.122l-1.809-3.243a.3.3,0,0,0-.32-.151Z" transform="translate(12.625 0.435)" fill="#fff"/>
            <path id="Trazado_215314" data-name="Trazado 215314" d="M235.222,29.459a4.359,4.359,0,1,1,1.228-1.758,4.342,4.342,0,0,1-1.228,1.758m-5.167-5.992a3.566,3.566,0,1,0,.86-.546,3.539,3.539,0,0,0-.86.546m-1.376,1.3,0,0Z" transform="translate(13.478 1.289)" fill="#e8eaed"/>
            <path id="Trazado_215315" data-name="Trazado 215315" d="M240.05,35.075a11.146,11.146,0,0,1-16.414-14.822c.054-.077.108-.153.163-.229a11.316,11.316,0,0,1,1.234-1.415l.158-.15.543.585a10.34,10.34,0,0,0-1.444,1.665l-.012.017A10.344,10.344,0,1,0,233.5,16.3l.054-.8a11.15,11.15,0,0,1,6.5,19.57" transform="translate(13.101 0.916)" fill="#e8eaed"/>
            <path id="Trazado_215316" data-name="Trazado 215316" d="M20.958,266.371a5.022,5.022,0,0,0,5.01,5h270.9a5.021,5.021,0,0,0,5.01-5l2.255-155.677c0-2.753-3.243-8.127-9.187-7.722L30.191,96.121a12.622,12.622,0,0,0-12.954,12.911Z" transform="translate(1.019 5.681)" fill="#394a5f"/>
            <path id="Trazado_215317" data-name="Trazado 215317" d="M25.631,261.239a4.754,4.754,0,0,0,4.74,4.74H290.058a4.753,4.753,0,0,0,4.74-4.74l2.128-141.325c-.251-8.5-7.707-11.561-12.226-11.38l-253.74-6.808a8.872,8.872,0,0,0-9.1,9.08Z" transform="translate(1.292 6.013)" fill="#fff"/>
            <path id="Trazado_215318" data-name="Trazado 215318" d="M276.954,189.661h-.007a.7.7,0,0,1-.687-.705l.168-11.461a.694.694,0,0,1,.694-.684h.011a.694.694,0,0,1,.684.7l-.168,11.462a.694.694,0,0,1-.694.684" transform="translate(16.329 10.451)" fill="#e8eaed"/>
            <path id="Trazado_215319" data-name="Trazado 215319" d="M282.431,165.6h-.011a.7.7,0,0,1-.684-.705l.645-43.9a8.246,8.246,0,0,0-2.353-6.174c-2.891-2.77-7.483-2.629-7.675-2.619l-81.1-2.175a.694.694,0,0,1-.676-.713.665.665,0,0,1,.714-.675l81.052,2.174c.5-.03,5.392-.114,8.647,3a9.584,9.584,0,0,1,2.781,7.184l-.645,43.911a.694.694,0,0,1-.694.684" transform="translate(11.265 6.422)" fill="#e8eaed"/>
            <path id="Trazado_215320" data-name="Trazado 215320" d="M5.988,274.56h307.4a6.005,6.005,0,0,0,5.988-5.988v-1.7a6.005,6.005,0,0,0-5.988-5.988H5.988A6.005,6.005,0,0,0,0,266.87v1.7a6.005,6.005,0,0,0,5.988,5.988" transform="translate(0 15.42)" fill="#394a5f"/>
            <path id="Trazado_215321" data-name="Trazado 215321" d="M75.063,47.687A17.258,17.258,0,0,1,92.321,30.429H239.089A15.205,15.205,0,0,1,254.275,44.86l10.834,212.785a11.213,11.213,0,0,1-10.995,11.781L85.9,272.484a10.642,10.642,0,0,1-10.837-10.641Z" transform="translate(4.437 1.799)" fill="#2432ff"/>
            <path id="Trazado_215322" data-name="Trazado 215322" d="M110.195,257.827h-.005l-18.822-.244a11.608,11.608,0,0,1-11.414-11.562V217.6a.4.4,0,0,1,.8,0v28.418A10.8,10.8,0,0,0,91.378,256.78l18.822.244a.4.4,0,0,1-.005.8" transform="translate(4.726 12.838)" fill="#fff"/>
            <path id="Trazado_215323" data-name="Trazado 215323" d="M80.355,209.951a.4.4,0,0,1-.4-.4v-4.6a.4.4,0,0,1,.8,0v4.6a.4.4,0,0,1-.4.4" transform="translate(4.726 12.09)" fill="#fff"/>
            <path id="Trazado_215324" data-name="Trazado 215324" d="M86.416,33.8a5.013,5.013,0,0,1,5.686-5c20.043,2.718,88.963,11.124,145.946,6.75a4.636,4.636,0,0,1,4.992,4.372L254.4,253.659a5.335,5.335,0,0,1-5.012,5.61c-23.967,1.418-122.666,6.9-157.87,3.213a4.227,4.227,0,0,1-3.782-4.182Z" transform="translate(5.108 1.7)" fill="#656fff"/>
            <path id="Trazado_215325" data-name="Trazado 215325" d="M88.645,38.849a4.824,4.824,0,0,1,5.471-4.812c19.288,2.615,85.614,10.705,140.451,6.5a4.461,4.461,0,0,1,4.8,4.208L250.3,250.426a5.134,5.134,0,0,1-4.823,5.4c-23.063,1.364-118.046,6.641-151.925,3.093a4.067,4.067,0,0,1-3.639-4.026Z" transform="translate(5.24 2.009)" fill="#e8eaed"/>
            <g id="Grupo_149792" data-name="Grupo 149792" transform="translate(111.736 53.597)" opacity="0.78">
              <g id="Grupo_149791" data-name="Grupo 149791">
                <g id="Grupo_149790" data-name="Grupo 149790" clip-path="url(#clip-path-3)">
                  <path id="Trazado_215326" data-name="Trazado 215326" d="M105.5,53.725l2.048,44.1a2.8,2.8,0,0,0,2.721,2.674c8.167.23,33.615.85,47.984.1a3.129,3.129,0,0,0,2.964-3.026c.274-8.271.874-32.34-1.01-42.4a3.533,3.533,0,0,0-3.354-2.873l-48.271-1.688a2.98,2.98,0,0,0-3.082,3.117" transform="translate(-105.5 -50.606)" fill="#fff"/>
                </g>
              </g>
            </g>
            <g id="Grupo_149795" data-name="Grupo 149795" transform="translate(178.248 56.622)" opacity="0.6">
              <g id="Grupo_149794" data-name="Grupo 149794">
                <g id="Grupo_149793" data-name="Grupo 149793" clip-path="url(#clip-path-4)">
                  <path id="Trazado_215327" data-name="Trazado 215327" d="M222.559,57.4a1.563,1.563,0,0,0,1.677-1.48,1.711,1.711,0,0,0-1.762-1.509l-52.934-.944a1.118,1.118,0,0,0-1.148,1.591l.254.72a2.607,2.607,0,0,0,2.291,1.621Z" transform="translate(-168.3 -53.462)" fill="#fff"/>
                </g>
              </g>
            </g>
            <g id="Grupo_149798" data-name="Grupo 149798" transform="translate(178.248 64.843)" opacity="0.6">
              <g id="Grupo_149797" data-name="Grupo 149797">
                <g id="Grupo_149796" data-name="Grupo 149796" clip-path="url(#clip-path-5)">
                  <path id="Trazado_215328" data-name="Trazado 215328" d="M169.54,61.224a1.118,1.118,0,0,0-1.148,1.592l.253.719a2.608,2.608,0,0,0,2.291,1.621H222.56a1.561,1.561,0,0,0,1.676-1.48,1.711,1.711,0,0,0-1.762-1.509Z" transform="translate(-168.3 -61.224)" fill="#fff"/>
                </g>
              </g>
            </g>
            <g id="Grupo_149801" data-name="Grupo 149801" transform="translate(178.248 73.183)" opacity="0.6">
              <g id="Grupo_149800" data-name="Grupo 149800">
                <g id="Grupo_149799" data-name="Grupo 149799" clip-path="url(#clip-path-5)">
                  <path id="Trazado_215329" data-name="Trazado 215329" d="M169.54,69.1a1.118,1.118,0,0,0-1.148,1.592l.253.719a2.608,2.608,0,0,0,2.291,1.621H222.56a1.561,1.561,0,0,0,1.676-1.48,1.711,1.711,0,0,0-1.762-1.509Z" transform="translate(-168.3 -69.099)" fill="#fff"/>
                </g>
              </g>
            </g>
            <g id="Grupo_149804" data-name="Grupo 149804" transform="translate(112.492 113.387)" opacity="0.6">
              <g id="Grupo_149803" data-name="Grupo 149803">
                <g id="Grupo_149802" data-name="Grupo 149802" clip-path="url(#clip-path-7)">
                  <path id="Trazado_215330" data-name="Trazado 215330" d="M231.371,111.008a1.5,1.5,0,0,0,1.621-1.48,1.768,1.768,0,0,0-1.816-1.492l-124.009-.978c-.946-.007-1.238.592-.649,1.331l1.014,1.273a4.051,4.051,0,0,0,2.791,1.345Z" transform="translate(-106.214 -107.059)" fill="#fff"/>
                </g>
              </g>
            </g>
            <g id="Grupo_149807" data-name="Grupo 149807" transform="translate(112.492 123.933)" opacity="0.6">
              <g id="Grupo_149806" data-name="Grupo 149806">
                <g id="Grupo_149805" data-name="Grupo 149805" clip-path="url(#clip-path-7)">
                  <path id="Trazado_215331" data-name="Trazado 215331" d="M107.167,117.016c-.947-.007-1.239.592-.649,1.331l1.014,1.273a4.049,4.049,0,0,0,2.791,1.345H231.37a1.494,1.494,0,0,0,1.623-1.48,1.769,1.769,0,0,0-1.817-1.492Z" transform="translate(-106.214 -117.016)" fill="#fff"/>
                </g>
              </g>
            </g>
            <path id="Trazado_215332" data-name="Trazado 215332" d="M122.493,168.552h-.029l-10.466-.1a2.814,2.814,0,0,1-2.871-2.394l-.919-8.781a1.909,1.909,0,0,1,.45-1.435,2.3,2.3,0,0,1,1.6-.79c.882-.06,2.124-.166,3.438-.279,2.769-.235,6.214-.528,8.152-.553a2.924,2.924,0,0,1,2.931,2.05c.545,2.015.5,5.831.394,9.9a2.586,2.586,0,0,1-2.681,2.384m-12.179-12.7a1.492,1.492,0,0,0-1.041.505,1.112,1.112,0,0,0-.267.835l.92,8.781a2.013,2.013,0,0,0,2.08,1.673l10.466.1h.02a1.783,1.783,0,0,0,1.877-1.6c.1-4,.151-7.755-.365-9.668a2.161,2.161,0,0,0-2.145-1.455c-1.91.023-5.339.316-8.094.551-1.319.112-2.563.218-3.452.279" transform="translate(6.395 9.116)" fill="#fff"/>
            <g id="Grupo_149810" data-name="Grupo 149810" transform="translate(116.486 165.212)" opacity="0.6">
              <g id="Grupo_149809" data-name="Grupo 149809">
                <g id="Grupo_149808" data-name="Grupo 149808" clip-path="url(#clip-path-9)">
                  <path id="Trazado_215333" data-name="Trazado 215333" d="M111.334,156.656c2.2-.15,6.977-.635,9.244-.664a2.028,2.028,0,0,1,2.028,1.4c.437,1.617.379,4.841.3,7.817a1.741,1.741,0,0,1-1.841,1.593l-8.364-.081a1.932,1.932,0,0,1-1.977-1.625l-.736-7.018a1.36,1.36,0,0,1,1.343-1.425" transform="translate(-109.985 -155.992)" fill="#fff"/>
                </g>
              </g>
            </g>
            <g id="Grupo_149813" data-name="Grupo 149813" transform="translate(137.993 168.576)" opacity="0.6">
              <g id="Grupo_149812" data-name="Grupo 149812">
                <g id="Grupo_149811" data-name="Grupo 149811" clip-path="url(#clip-path-10)">
                  <path id="Trazado_215334" data-name="Trazado 215334" d="M130.38,162.429a2.6,2.6,0,0,0,2.536,1.936l96.837-.826a1.965,1.965,0,0,0-.008-3.929l-96.84-.442a2.6,2.6,0,0,0-2.525,3.261" transform="translate(-130.292 -159.168)" fill="#fff"/>
                </g>
              </g>
            </g>
            <path id="Trazado_215335" data-name="Trazado 215335" d="M122.493,189.733h-.029l-10.466-.1a2.814,2.814,0,0,1-2.871-2.394l-.919-8.781a1.909,1.909,0,0,1,.45-1.435,2.3,2.3,0,0,1,1.6-.79c.882-.06,2.124-.166,3.438-.279,2.769-.235,6.214-.529,8.152-.553h.042a2.917,2.917,0,0,1,2.888,2.05c.545,2.015.5,5.831.394,9.9a2.587,2.587,0,0,1-2.681,2.385m-12.179-12.7a1.492,1.492,0,0,0-1.041.505,1.112,1.112,0,0,0-.267.835l.92,8.781a2.013,2.013,0,0,0,2.08,1.673l10.466.1h.02a1.783,1.783,0,0,0,1.877-1.6c.1-4,.151-7.755-.365-9.668a2.149,2.149,0,0,0-2.145-1.455c-1.91.023-5.339.316-8.094.551-1.319.112-2.563.218-3.452.279" transform="translate(6.395 10.368)" fill="#fff"/>
            <g id="Grupo_149816" data-name="Grupo 149816" transform="translate(116.486 187.644)" opacity="0.6">
              <g id="Grupo_149815" data-name="Grupo 149815">
                <g id="Grupo_149814" data-name="Grupo 149814" clip-path="url(#clip-path-9)">
                  <path id="Trazado_215336" data-name="Trazado 215336" d="M111.334,177.836c2.2-.15,6.977-.635,9.244-.664a2.028,2.028,0,0,1,2.028,1.4c.437,1.617.379,4.841.3,7.817a1.741,1.741,0,0,1-1.841,1.593l-8.364-.08a1.932,1.932,0,0,1-1.977-1.625l-.736-7.018a1.36,1.36,0,0,1,1.343-1.424" transform="translate(-109.985 -177.172)" fill="#fff"/>
                </g>
              </g>
            </g>
            <g id="Grupo_149819" data-name="Grupo 149819" transform="translate(137.993 191.007)" opacity="0.6">
              <g id="Grupo_149818" data-name="Grupo 149818">
                <g id="Grupo_149817" data-name="Grupo 149817" clip-path="url(#clip-path-12)">
                  <path id="Trazado_215337" data-name="Trazado 215337" d="M130.38,183.609a2.6,2.6,0,0,0,2.536,1.936l96.837-.826a1.965,1.965,0,0,0-.008-3.929l-96.84-.442a2.6,2.6,0,0,0-2.525,3.261" transform="translate(-130.292 -180.347)" fill="#fff"/>
                </g>
              </g>
            </g>
            <path id="Trazado_215338" data-name="Trazado 215338" d="M122.493,210.912h-.029l-10.466-.1a2.813,2.813,0,0,1-2.871-2.393l-.919-8.782a1.909,1.909,0,0,1,.45-1.435,2.3,2.3,0,0,1,1.6-.79c.882-.06,2.124-.166,3.438-.279,2.769-.235,6.214-.528,8.152-.553h.042a2.917,2.917,0,0,1,2.888,2.049c.545,2.017.5,5.833.394,9.9a2.586,2.586,0,0,1-2.681,2.384m-12.179-12.7a1.492,1.492,0,0,0-1.041.505,1.112,1.112,0,0,0-.267.835l.92,8.781a2.013,2.013,0,0,0,2.079,1.673l10.467.1h.02a1.783,1.783,0,0,0,1.877-1.6c.1-4,.151-7.756-.365-9.668a2.145,2.145,0,0,0-2.145-1.455c-1.91.023-5.339.316-8.094.551-1.319.112-2.563.218-3.452.279" transform="translate(6.395 11.62)" fill="#fff"/>
            <g id="Grupo_149822" data-name="Grupo 149822" transform="translate(116.486 210.075)" opacity="0.6">
              <g id="Grupo_149821" data-name="Grupo 149821">
                <g id="Grupo_149820" data-name="Grupo 149820" clip-path="url(#clip-path-13)">
                  <path id="Trazado_215339" data-name="Trazado 215339" d="M111.334,199.015c2.2-.15,6.977-.635,9.244-.664a2.028,2.028,0,0,1,2.028,1.4c.437,1.617.379,4.841.3,7.817a1.741,1.741,0,0,1-1.841,1.593l-8.364-.08a1.932,1.932,0,0,1-1.977-1.625l-.736-7.018a1.36,1.36,0,0,1,1.343-1.424" transform="translate(-109.985 -198.351)" fill="#fff"/>
                </g>
              </g>
            </g>
            <g id="Grupo_149825" data-name="Grupo 149825" transform="translate(137.993 213.439)" opacity="0.6">
              <g id="Grupo_149824" data-name="Grupo 149824">
                <g id="Grupo_149823" data-name="Grupo 149823" clip-path="url(#clip-path-12)">
                  <path id="Trazado_215340" data-name="Trazado 215340" d="M130.38,204.789a2.6,2.6,0,0,0,2.536,1.936l96.837-.826a1.965,1.965,0,0,0-.008-3.929l-96.84-.442a2.6,2.6,0,0,0-2.525,3.261" transform="translate(-130.292 -201.527)" fill="#fff"/>
                </g>
              </g>
            </g>
            <path id="Trazado_215341" data-name="Trazado 215341" d="M122.493,232.092h-.029l-10.466-.1a2.813,2.813,0,0,1-2.871-2.393l-.919-8.782a1.909,1.909,0,0,1,.45-1.435,2.3,2.3,0,0,1,1.6-.79c.882-.06,2.124-.166,3.438-.279,2.769-.235,6.214-.528,8.152-.553h.042a2.917,2.917,0,0,1,2.888,2.05c.545,2.015.5,5.831.394,9.9a2.587,2.587,0,0,1-2.681,2.385m-12.179-12.7a1.492,1.492,0,0,0-1.041.505,1.112,1.112,0,0,0-.267.835l.92,8.781a2.013,2.013,0,0,0,2.079,1.673l10.467.1h.02a1.783,1.783,0,0,0,1.877-1.6c.1-4,.151-7.756-.365-9.668a2.141,2.141,0,0,0-2.145-1.455c-1.91.023-5.339.316-8.094.551-1.319.112-2.563.218-3.452.279" transform="translate(6.395 12.871)" fill="#fff"/>
            <g id="Grupo_149828" data-name="Grupo 149828" transform="translate(116.486 232.507)" opacity="0.6">
              <g id="Grupo_149827" data-name="Grupo 149827">
                <g id="Grupo_149826" data-name="Grupo 149826" clip-path="url(#clip-path-13)">
                  <path id="Trazado_215342" data-name="Trazado 215342" d="M111.334,220.2c2.2-.15,6.977-.635,9.244-.664a2.028,2.028,0,0,1,2.028,1.4c.437,1.617.379,4.841.3,7.817a1.741,1.741,0,0,1-1.841,1.593l-8.364-.081a1.932,1.932,0,0,1-1.977-1.625l-.736-7.018a1.36,1.36,0,0,1,1.343-1.424" transform="translate(-109.985 -219.531)" fill="#fff"/>
                </g>
              </g>
            </g>
            <g id="Grupo_149831" data-name="Grupo 149831" transform="translate(137.993 235.871)" opacity="0.6">
              <g id="Grupo_149830" data-name="Grupo 149830">
                <g id="Grupo_149829" data-name="Grupo 149829" clip-path="url(#clip-path-10)">
                  <path id="Trazado_215343" data-name="Trazado 215343" d="M130.38,225.968h0a2.6,2.6,0,0,0,2.536,1.936l96.837-.826a1.965,1.965,0,0,0-.008-3.929l-96.84-.442a2.6,2.6,0,0,0-2.525,3.261" transform="translate(-130.292 -222.707)" fill="#fff"/>
                </g>
              </g>
            </g>
            <path id="Trazado_215344" data-name="Trazado 215344" d="M121.621,150.124h-.029l-10.466-.1a2.813,2.813,0,0,1-2.871-2.393l-.919-8.782a1.909,1.909,0,0,1,.45-1.435,2.3,2.3,0,0,1,1.6-.79c.882-.06,2.124-.166,3.438-.279,2.769-.235,6.214-.528,8.152-.553h.042a2.917,2.917,0,0,1,2.888,2.049c.545,2.017.5,5.832.394,9.9a2.587,2.587,0,0,1-2.681,2.385m-12.179-12.7a1.492,1.492,0,0,0-1.041.505,1.112,1.112,0,0,0-.267.835l.92,8.781a2.013,2.013,0,0,0,2.079,1.673l10.467.1h.02a1.783,1.783,0,0,0,1.877-1.6c.1-4,.151-7.755-.365-9.668a2.141,2.141,0,0,0-2.145-1.455c-1.91.023-5.339.316-8.094.551-1.319.112-2.563.218-3.452.279" transform="translate(6.344 8.026)" fill="#fff"/>
            <g id="Grupo_149834" data-name="Grupo 149834" transform="translate(115.563 145.694)" opacity="0.6">
              <g id="Grupo_149833" data-name="Grupo 149833">
                <g id="Grupo_149832" data-name="Grupo 149832" clip-path="url(#clip-path-13)">
                  <path id="Trazado_215345" data-name="Trazado 215345" d="M110.462,138.227c2.2-.15,6.977-.635,9.244-.664a2.028,2.028,0,0,1,2.028,1.4c.437,1.617.379,4.841.3,7.817a1.741,1.741,0,0,1-1.841,1.593l-8.364-.08a1.932,1.932,0,0,1-1.977-1.625l-.736-7.018a1.36,1.36,0,0,1,1.343-1.425" transform="translate(-109.113 -137.563)" fill="#fff"/>
                </g>
              </g>
            </g>
            <g id="Grupo_149837" data-name="Grupo 149837" transform="translate(137.071 149.058)" opacity="0.6">
              <g id="Grupo_149836" data-name="Grupo 149836">
                <g id="Grupo_149835" data-name="Grupo 149835" clip-path="url(#clip-path-18)">
                  <path id="Trazado_215346" data-name="Trazado 215346" d="M129.508,144h0a2.6,2.6,0,0,0,2.536,1.936l96.837-.826a1.965,1.965,0,0,0-.008-3.929l-96.84-.442A2.6,2.6,0,0,0,129.508,144" transform="translate(-129.421 -140.739)" fill="#fff"/>
                </g>
              </g>
            </g>
            <path id="Trazado_215347" data-name="Trazado 215347" d="M170.234,3.215C164.932-.473,160.322-.4,157.078.558a6.472,6.472,0,0,0-4.6,6.8l1.4,15.274,16.653,1.477s10.1-13.667-.3-20.9m-7.324,12.323a4.152,4.152,0,1,1,4.153-4.153,4.153,4.153,0,0,1-4.153,4.153" transform="translate(9.011 0)" fill="#394a5f"/>
            <path id="Trazado_215348" data-name="Trazado 215348" d="M155.428,16.087a.4.4,0,0,1-.4-.365l-.222-2.433a.4.4,0,1,1,.8-.073l.222,2.433a.4.4,0,0,1-.363.437h-.037m-.436-4.767a.4.4,0,0,1-.4-.365l-.169-1.847a6.177,6.177,0,0,1,4.38-6.482,12.445,12.445,0,0,1,6.086-.25.4.4,0,1,1-.161.787,11.669,11.669,0,0,0-5.7.234,5.372,5.372,0,0,0-3.807,5.638l.169,1.847a.4.4,0,0,1-.363.437h-.037" transform="translate(9.126 0.125)" fill="#fff"/>
            <path id="Trazado_215349" data-name="Trazado 215349" d="M132.341,31.384V23.7a4.686,4.686,0,0,1,4.846-4.683l52.948,1.814a4.557,4.557,0,0,1,4.393,4.282l.443,7.379Z" transform="translate(7.822 1.124)" fill="#394a5f"/>
            <path id="Trazado_215350" data-name="Trazado 215350" d="M151.131,21.8h-2.277a.4.4,0,0,1,0-.8h2.277a.4.4,0,0,1,0,.8" transform="translate(8.775 1.241)" fill="#fff"/>
            <path id="Trazado_215351" data-name="Trazado 215351" d="M135.068,28.856a.4.4,0,0,1-.4-.4V25.347a4.358,4.358,0,0,1,4.353-4.353h8.371a.4.4,0,1,1,0,.8H139.02a3.554,3.554,0,0,0-3.55,3.549v3.107a.4.4,0,0,1-.4.4" transform="translate(7.96 1.241)" fill="#fff"/>
            <path id="Trazado_215352" data-name="Trazado 215352" d="M111.983,32.79a4.99,4.99,0,0,1,4.983-4.75l92.589,0a6.843,6.843,0,0,1,6.743,5.676l.078.453a5.877,5.877,0,0,1-5.791,6.879H115.6a3.821,3.821,0,0,1-3.817-4Z" transform="translate(6.607 1.657)" fill="#12263f"/>
            <path id="Trazado_215353" data-name="Trazado 215353" d="M122.844,83.279V81.4a11.719,11.719,0,0,1,.793-4.5,13.965,13.965,0,0,1,2.887-4.124,14.817,14.817,0,0,0,2.54-3.411,7.768,7.768,0,0,0,.551-3.143,4.708,4.708,0,0,0-.806-2.848,2.953,2.953,0,0,0-2.552-1.1,11.3,11.3,0,0,0-6.1,2.068l-2.526-5.373a16.232,16.232,0,0,1,9.35-2.874,9.7,9.7,0,0,1,7,2.458,9.023,9.023,0,0,1,2.565,6.837,13.569,13.569,0,0,1-.886,5.2,18.937,18.937,0,0,1-3.68,5.145,14.109,14.109,0,0,0-2.3,3.022,6.92,6.92,0,0,0-.5,2.888v1.64Zm-1.262,8.973a4.416,4.416,0,0,1,1.142-3.264,4.493,4.493,0,0,1,3.318-1.142,4.415,4.415,0,1,1,0,8.812,4.472,4.472,0,0,1-3.3-1.155,4.389,4.389,0,0,1-1.155-3.25" transform="translate(6.953 3.315)" fill="#fccc10"/>
            <path id="Trazado_215354" data-name="Trazado 215354" d="M67.51,292.738s-.608,3.436-.906,6.835a2.344,2.344,0,0,0,2.241,2.539c4.529.189,14.217.556,17.692.4a.762.762,0,0,0,.671-1.044,1.706,1.706,0,0,0-.874-.919l-16-7.354Z" transform="translate(3.936 17.303)" fill="#394a5f"/>
          </g>
        </g>
        <g id="Grupo_149841" data-name="Grupo 149841" transform="translate(70.949 307.387)">
          <g id="Grupo_149840" data-name="Grupo 149840" clip-path="url(#clip-path-19)">
            <rect id="Rectángulo_45303" data-name="Rectángulo 45303" width="5.206" height="6.05" fill="url(#linear-gradient)"/>
          </g>
        </g>
        <g id="Grupo_149843" data-name="Grupo 149843">
          <g id="Grupo_149842" data-name="Grupo 149842" clip-path="url(#clip-path)">
            <path id="Trazado_215356" data-name="Trazado 215356" d="M68.044,217.89c-.211,1.073-1.13,53.55,4.479,77.065a.8.8,0,0,1-.468.929,13.889,13.889,0,0,1-4.568.929,1.375,1.375,0,0,1-1.364-.987c-1.6-5.457-9.286-32.793-10.289-58.907-1.119-29.181,0-.993,0-.993l.657-18.038Z" transform="translate(3.271 12.879)" fill="#12263f"/>
            <path id="Trazado_215357" data-name="Trazado 215357" d="M50.187,294.43a24.733,24.733,0,0,0-1.9,6.343,1.429,1.429,0,0,0,1.258,1.712c1.5.147,3.8.337,5.641.324a1.425,1.425,0,0,0,1.411-1.591,12.014,12.014,0,0,0-2.806-6.593Z" transform="translate(2.852 17.403)" fill="#394a5f"/>
          </g>
        </g>
        <g id="Grupo_149845" data-name="Grupo 149845" transform="translate(52.192 306.307)">
          <g id="Grupo_149844" data-name="Grupo 149844" clip-path="url(#clip-path-21)">
            <rect id="Rectángulo_45305" data-name="Rectángulo 45305" width="4.493" height="7.293" transform="translate(0)" fill="url(#linear-gradient-2)"/>
          </g>
        </g>
        <g id="Grupo_149847" data-name="Grupo 149847">
          <g id="Grupo_149846" data-name="Grupo 149846" clip-path="url(#clip-path)">
            <path id="Trazado_215359" data-name="Trazado 215359" d="M46.472,219.573c-4.588,27.687,1,68.43,2.878,76.405a1.24,1.24,0,0,0,1,.944,8.343,8.343,0,0,0,3.588-.143,1.142,1.142,0,0,0,.821-1.05c.252-6.447-.2-46.026,4.071-61.668A3.561,3.561,0,0,1,60.2,232.1l8.3-5.9.635-9.534Z" transform="translate(2.642 12.807)" fill="#12263f"/>
            <path id="Trazado_215360" data-name="Trazado 215360" d="M75.7,170c-13.748-.227-28.918,3.609-28.918,3.609-4.1,23.913-.717,51.494-.717,51.494,10.644,2.791,22.65-1.706,22.65-1.706,1.77-9.995,10.023-38.124,10.023-38.124a45.3,45.3,0,0,0,16.808-5.334,29.48,29.48,0,0,1-5.826-12.187A46.149,46.149,0,0,1,75.7,170" transform="translate(2.645 9.916)" fill="#fccc10"/>
          </g>
        </g>
        <g id="Grupo_149849" data-name="Grupo 149849" transform="translate(92.366 158.626)">
          <g id="Grupo_149848" data-name="Grupo 149848" clip-path="url(#clip-path-23)">
            <rect id="Rectángulo_45307" data-name="Rectángulo 45307" width="38.263" height="35.415" transform="translate(-9.738 27.824) rotate(-70.71)" fill="url(#linear-gradient-3)"/>
          </g>
        </g>
        <g id="Grupo_149851" data-name="Grupo 149851" transform="translate(115.896 145.398)">
          <g id="Grupo_149850" data-name="Grupo 149850" clip-path="url(#clip-path-24)">
            <rect id="Rectángulo_45308" data-name="Rectángulo 45308" width="18.128" height="14.362" transform="translate(-5.228 14.092) rotate(-70.71)" fill="url(#linear-gradient-4)"/>
          </g>
        </g>
        <g id="Grupo_149853" data-name="Grupo 149853" transform="translate(117.58 151.72)">
          <g id="Grupo_149852" data-name="Grupo 149852" clip-path="url(#clip-path-25)">
            <rect id="Rectángulo_45309" data-name="Rectángulo 45309" width="7.516" height="6.383" transform="matrix(0.444, -0.896, 0.896, 0.444, -2.563, 5.17)" fill="url(#linear-gradient-5)"/>
          </g>
        </g>
        <g id="Grupo_149855" data-name="Grupo 149855">
          <g id="Grupo_149854" data-name="Grupo 149854" clip-path="url(#clip-path)">
            <path id="Trazado_215364" data-name="Trazado 215364" d="M52.777,186.6,47.5,173.286s-12.842,8.725-14.954,19.787a30.4,30.4,0,0,1,11.163,2.992c.95-5.224,9.064-9.467,9.064-9.467" transform="translate(1.924 10.243)" fill="#fccc10"/>
          </g>
        </g>
        <g id="Grupo_149857" data-name="Grupo 149857" transform="translate(34.181 203.316)">
          <g id="Grupo_149856" data-name="Grupo 149856" clip-path="url(#clip-path-27)">
            <rect id="Rectángulo_45311" data-name="Rectángulo 45311" width="33.994" height="26.056" transform="translate(-0.344)" fill="url(#linear-gradient-6)"/>
          </g>
        </g>
        <g id="Grupo_149859" data-name="Grupo 149859">
          <g id="Grupo_149858" data-name="Grupo 149858" clip-path="url(#clip-path)">
            <path id="Trazado_215366" data-name="Trazado 215366" d="M60.611,209.077,68.48,181.6a.8.8,0,0,1,.678-.577c1.426-.166,5.556-.633,10.326-1.037,5.746-.486,12.417-.879,16.4-.544a.8.8,0,0,1,.657,1.157c-2.266,4.587-11.593,23.246-16.264,29.358a.808.808,0,0,1-.648.319L61.376,210.1a.8.8,0,0,1-.766-1.025" transform="translate(3.581 10.599)" fill="#394a5f"/>
            <path id="Trazado_215367" data-name="Trazado 215367" d="M79.238,177.75l5.705-.951a.41.41,0,0,1,.455.533l-.565,1.712a.41.41,0,0,1-.335.277l-5.489.733a.409.409,0,0,1-.453-.5l.35-1.494a.41.41,0,0,1,.331-.31" transform="translate(4.643 10.45)" fill="#fff"/>
            <path id="Trazado_215368" data-name="Trazado 215368" d="M75.167,182.484l.47-2.448a.566.566,0,0,1,.5-.456l11.523-1.169a.566.566,0,0,1,.608.695l-.733,3.05a.565.565,0,0,1-.522.433l-11.259.567a.566.566,0,0,1-.585-.671" transform="translate(4.442 10.545)" fill="#fff"/>
          </g>
        </g>
        <g id="Grupo_149861" data-name="Grupo 149861" transform="translate(65.333 203.668)">
          <g id="Grupo_149860" data-name="Grupo 149860" clip-path="url(#clip-path-29)">
            <rect id="Rectángulo_45313" data-name="Rectángulo 45313" width="10.82" height="9.632" transform="translate(-0.337 0)" fill="url(#linear-gradient-7)"/>
          </g>
        </g>
        <g id="Grupo_149863" data-name="Grupo 149863" transform="translate(60.02 168.757)">
          <g id="Grupo_149862" data-name="Grupo 149862" clip-path="url(#clip-path-30)">
            <rect id="Rectángulo_45314" data-name="Rectángulo 45314" width="13.351" height="15.764" transform="translate(-0.047 0)" fill="url(#linear-gradient-8)"/>
          </g>
        </g>
        <g id="Grupo_149865" data-name="Grupo 149865" transform="translate(62.726 157.041)">
          <g id="Grupo_149864" data-name="Grupo 149864" clip-path="url(#clip-path-31)">
            <rect id="Rectángulo_45315" data-name="Rectángulo 45315" width="22.297" height="22.186" transform="translate(-7.268 11.916) rotate(-58.62)" fill="url(#linear-gradient-9)"/>
          </g>
        </g>
        <g id="Grupo_149867" data-name="Grupo 149867">
          <g id="Grupo_149866" data-name="Grupo 149866" clip-path="url(#clip-path)">
            <path id="Trazado_215372" data-name="Trazado 215372" d="M63.456,156.968a.373.373,0,0,0,.163-.545,9.707,9.707,0,0,1-1.337-2.837s-.864-.553,2.2-1.286,7.627-1.87,8.586-4.476c.936-2.541-1.522-8.93-5.444-3.839a.373.373,0,0,1-.591,0c-.643-.838-2.333-2.574-4.68-1.521a3.522,3.522,0,0,0-2.413,3.405.371.371,0,0,1-.44.38,4.3,4.3,0,0,0-5.018,2.34c-1.024,2.251-.359,3.526.248,4.149a.372.372,0,0,1-.159.617,2.236,2.236,0,0,0-1.578,2.551c.13,2.364,2.773,2.155,3.525,2.047a.376.376,0,0,1,.332.118c.645.714,3.551,3.745,6.7,4.11a.376.376,0,0,0,.394-.5l-1.362-3.957a.376.376,0,0,1,.2-.465Z" transform="translate(3.132 8.398)" fill="#394a5f"/>
          </g>
        </g>
        <g id="Grupo_149869" data-name="Grupo 149869" transform="translate(63.453 164.766)">
          <g id="Grupo_149868" data-name="Grupo 149868" clip-path="url(#clip-path-33)">
            <rect id="Rectángulo_45317" data-name="Rectángulo 45317" width="5.713" height="6.154" transform="translate(-1.861 2.664) rotate(-58.62)" fill="url(#linear-gradient-10)"/>
          </g>
        </g>
        <g id="Grupo_149871" data-name="Grupo 149871" transform="translate(229.062 162.994)">
          <g id="Grupo_149870" data-name="Grupo 149870" clip-path="url(#clip-path-34)">
            <rect id="Rectángulo_45318" data-name="Rectángulo 45318" width="49.754" height="51.457" transform="matrix(0.848, -0.529, 0.529, 0.848, -20.137, 11.041)" fill="url(#linear-gradient-11)"/>
          </g>
        </g>
        <g id="Grupo_149873" data-name="Grupo 149873">
          <g id="Grupo_149872" data-name="Grupo 149872" clip-path="url(#clip-path)">
            <path id="Trazado_215375" data-name="Trazado 215375" d="M247.613,145.857s-2.236-10.031,9.253-7.376c0,0,5.577-.911,5.861,4.353,0,0,3.6,2.369.963,6.924,0,0,10.684-4.126,15.34,5.238s.376,14.518-4.109,15.86a4.468,4.468,0,0,1,1.914,5.946c-1.721,4.12-10.432,7.025-15.579,2.013,0,0-14.643,1.936-14.35-8.408,0,0-6.811-4.4.342-12.947s.365-11.6.365-11.6" transform="translate(14.421 8.159)" fill="#394a5f"/>
            <path id="Trazado_215376" data-name="Trazado 215376" d="M247.315,167.407a15.76,15.76,0,0,1,15.426,3.931,3.956,3.956,0,0,1,1.141,3.945c-1.717,6.323-6.249,25-2.275,33.087,0,0-7,7.719-14.641,1.5,0,0-3.427-14.937-7.917-21.495-3.1-4.528,4.943-17,6.977-20.014a2.376,2.376,0,0,1,1.289-.952" transform="translate(14.088 9.859)" fill="#fccc10"/>
          </g>
        </g>
        <g id="Grupo_149875" data-name="Grupo 149875" transform="translate(263.206 164.703)">
          <g id="Grupo_149874" data-name="Grupo 149874" clip-path="url(#clip-path-36)">
            <rect id="Rectángulo_45320" data-name="Rectángulo 45320" width="17.642" height="13.935" transform="matrix(0.411, -0.912, 0.912, 0.411, -5.854, 13.001)" fill="url(#linear-gradient-12)"/>
          </g>
        </g>
        <g id="Grupo_149877" data-name="Grupo 149877" transform="translate(257.741 151.463)">
          <g id="Grupo_149876" data-name="Grupo 149876" clip-path="url(#clip-path-37)">
            <rect id="Rectángulo_45321" data-name="Rectángulo 45321" width="25.662" height="26.015" transform="matrix(0.908, -0.419, 0.419, 0.908, -11.187, 3.487)" fill="url(#linear-gradient-13)"/>
          </g>
        </g>
        <g id="Grupo_149879" data-name="Grupo 149879">
          <g id="Grupo_149878" data-name="Grupo 149878" clip-path="url(#clip-path)">
            <path id="Trazado_215379" data-name="Trazado 215379" d="M252.521,140.266s-4.1.972-4.678,2.829,5.819,3.578,7.61,3.662l1.444,7.491s4.267-7.047,2.577-11.117-6.952-2.865-6.952-2.865" transform="translate(14.647 8.281)" fill="#394a5f"/>
          </g>
        </g>
        <g id="Grupo_149881" data-name="Grupo 149881" transform="translate(269.408 159.202)">
          <g id="Grupo_149880" data-name="Grupo 149880" clip-path="url(#clip-path-39)">
            <rect id="Rectángulo_45323" data-name="Rectángulo 45323" width="7.967" height="7.596" transform="translate(-2.088 0.964) rotate(-24.792)" fill="url(#linear-gradient-14)"/>
          </g>
        </g>
        <g id="Grupo_149883" data-name="Grupo 149883" transform="translate(250.207 251.09)">
          <g id="Grupo_149882" data-name="Grupo 149882" clip-path="url(#clip-path-40)">
            <rect id="Rectángulo_45324" data-name="Rectángulo 45324" width="56.897" height="70.34" transform="matrix(0.875, -0.485, 0.485, 0.875, -27.288, 15.038)" fill="url(#linear-gradient-15)"/>
          </g>
        </g>
        <g id="Grupo_149885" data-name="Grupo 149885">
          <g id="Grupo_149884" data-name="Grupo 149884" clip-path="url(#clip-path)">
            <path id="Trazado_215382" data-name="Trazado 215382" d="M268.939,292.629s-2.711-4.3-3.03-5.971-1.207-4.628-2.879-3.739c0,0-.788,8.128-.516,11.3s-3.59,3.074-3.59,3.074a3.6,3.6,0,0,0-1.844.929.9.9,0,0,0,.606,1.521,21.719,21.719,0,0,0,5.379-.305,1.645,1.645,0,0,0,1.327-1.518l.556-9.355,3.42,4.319Z" transform="translate(15.181 16.713)" fill="#394a5f"/>
          </g>
        </g>
        <g id="Grupo_149887" data-name="Grupo 149887" transform="translate(260.872 256.196)">
          <g id="Grupo_149886" data-name="Grupo 149886" clip-path="url(#clip-path-42)">
            <rect id="Rectángulo_45326" data-name="Rectángulo 45326" width="41.479" height="60.618" transform="translate(-23.998 12.115) rotate(-26.787)" fill="url(#linear-gradient-16)"/>
          </g>
        </g>
        <g id="Grupo_149889" data-name="Grupo 149889">
          <g id="Grupo_149888" data-name="Grupo 149888" clip-path="url(#clip-path)">
            <path id="Trazado_215384" data-name="Trazado 215384" d="M255.555,300.467a.3.3,0,0,0,.3-.253,43.753,43.753,0,0,1,1.373-6.811c.624-1.339,2.665-6.974,0-7.453,0,0-6.628,9.683-7.9,10.989a2.494,2.494,0,0,1-2.878.455,4.788,4.788,0,0,0-2.174,1.561.878.878,0,0,0,.692,1.411l4.464.042a3.141,3.141,0,0,0,2.944-1.979c.786-1.963,2.136-4.841,3.709-6.118l-.818,7.828a.3.3,0,0,0,.293.328" transform="translate(14.428 16.902)" fill="#394a5f"/>
            <path id="Trazado_215385" data-name="Trazado 215385" d="M246.053,204.148s1.006,3.207-.539,8.488l-9.588,33.481a1.037,1.037,0,0,0,.648,1.261,63.949,63.949,0,0,0,25.164,3.051,1.461,1.461,0,0,0,1.332-1.137c.848-3.817,3.742-16.84,4.337-19.515,2.27-10.2,4.8-21.192-6.345-27.84-5.139,2.2-9.931,3.5-15.01,2.211" transform="translate(13.943 11.936)" fill="#394a5f"/>
          </g>
        </g>
        <g id="Grupo_149891" data-name="Grupo 149891" transform="translate(268.601 181.676)">
          <g id="Grupo_149890" data-name="Grupo 149890" clip-path="url(#clip-path-44)">
            <rect id="Rectángulo_45328" data-name="Rectángulo 45328" width="41.487" height="44.224" transform="matrix(0.829, -0.559, 0.559, 0.829, -16.998, 11.237)" fill="url(#linear-gradient-17)"/>
          </g>
        </g>
      </g>
    </g>
  </g>
</svg>
