<svg id="Grupo_148529" data-name="Grupo 148529" xmlns="http://www.w3.org/2000/svg" xmlns:xlink="http://www.w3.org/1999/xlink" width="144.427" height="140.734" viewBox="0 0 144.427 140.734">
  <defs>
    <clipPath id="clip-path">
      <rect id="Rectángulo_44686" data-name="Rectángulo 44686" width="144.427" height="140.734" fill="none"/>
    </clipPath>
    <clipPath id="clip-path-2">
      <path id="Trazado_212328" data-name="Trazado 212328" d="M13.989,36.1C-4.817,65.112.168,106.282,23.483,127.073c12.11,10.8,25.79,13.09,30.779,13.859,30.663,4.723,66.022-12.786,79.3-44.042,8.651-20.369,7.654-45.635-3.942-63.77a63.437,63.437,0,0,0-12.9-14.639C99.8,4.534,80.552,3.739,75.53,3.611c-.558-.015-1.115-.022-1.675-.022-22.807,0-46.506,11.9-59.866,32.509" transform="translate(-2.477 -3.589)" fill="none"/>
    </clipPath>
    <linearGradient id="linear-gradient" x1="0.166" y1="0.829" x2="0.17" y2="0.829" gradientUnits="objectBoundingBox">
      <stop offset="0" stop-color="#dae3fe"/>
      <stop offset="1" stop-color="#e9effd"/>
    </linearGradient>
    <clipPath id="clip-path-4">
      <rect id="Rectángulo_44643" data-name="Rectángulo 44643" width="17.459" height="65.336" fill="none"/>
    </clipPath>
    <clipPath id="clip-path-5">
      <rect id="Rectángulo_44644" data-name="Rectángulo 44644" width="14.454" height="45.986" fill="none"/>
    </clipPath>
    <clipPath id="clip-path-6">
      <path id="Trazado_212333" data-name="Trazado 212333" d="M12.882,76.295a5.673,5.673,0,0,0-1.667,4.152l1.674,70.782a2.259,2.259,0,0,0,2.253,2.252H137.011a2.259,2.259,0,0,0,2.253-2.252l1.014-70.034a3.924,3.924,0,0,0-4.132-3.474l-119.1-3.082h-.147a5.683,5.683,0,0,0-4.013,1.658" transform="translate(-11.213 -74.637)" fill="none"/>
    </clipPath>
    <linearGradient id="linear-gradient-2" x1="-0.055" y1="1.068" x2="-0.049" y2="1.068" gradientUnits="objectBoundingBox">
      <stop offset="0" stop-color="#09005d"/>
      <stop offset="1" stop-color="#1a0f91"/>
    </linearGradient>
    <clipPath id="clip-path-7">
      <path id="Trazado_212334" data-name="Trazado 212334" d="M15.392,79.449a3.984,3.984,0,0,0-1.172,2.92l1.7,67.676a2.139,2.139,0,0,0,2.132,2.132H134.877a2.138,2.138,0,0,0,2.132-2.132l.957-63.578a5.247,5.247,0,0,0-5.5-5.119L18.316,78.284h-.106a3.987,3.987,0,0,0-2.817,1.166" transform="translate(-14.219 -78.283)" fill="none"/>
    </clipPath>
    <linearGradient id="linear-gradient-3" x1="-0.016" y1="0.833" x2="-0.011" y2="0.833" gradientUnits="objectBoundingBox">
      <stop offset="0" stop-color="#4f52ff"/>
      <stop offset="1" stop-color="#4042e2"/>
    </linearGradient>
    <clipPath id="clip-path-9">
      <rect id="Rectángulo_44648" data-name="Rectángulo 44648" width="41.925" height="38.26" fill="none"/>
    </clipPath>
    <clipPath id="clip-path-10">
      <path id="Trazado_212337" data-name="Trazado 212337" d="M3.076,181.839a3.077,3.077,0,0,0,0,6.154H140.6a3.077,3.077,0,1,0,0-6.154Z" transform="translate(0 -181.839)" fill="none"/>
    </clipPath>
    <linearGradient id="linear-gradient-4" x1="-3.223" y1="0.531" x2="-3.185" y2="0.531" xlink:href="#linear-gradient-2"/>
    <clipPath id="clip-path-12">
      <rect id="Rectángulo_44651" data-name="Rectángulo 44651" width="33.232" height="21.729" fill="none"/>
    </clipPath>
    <clipPath id="clip-path-13">
      <rect id="Rectángulo_44652" data-name="Rectángulo 44652" width="33.923" height="23.611" fill="none"/>
    </clipPath>
    <clipPath id="clip-path-14">
      <path id="Trazado_212344" data-name="Trazado 212344" d="M142.261,30.8a2.68,2.68,0,1,1,.226.01c-.075,0-.15,0-.226-.01m-2.039-5.344a3.5,3.5,0,0,0,1.971,6.158,3.55,3.55,0,0,0,.514.005,3.5,3.5,0,0,0,.066-6.979c-.1-.008-.2-.012-.3-.012a3.473,3.473,0,0,0-2.255.829" transform="translate(-138.983 -24.624)" fill="none"/>
    </clipPath>
    <linearGradient id="linear-gradient-5" x1="-13.933" y1="17.522" x2="-13.832" y2="17.522" xlink:href="#linear-gradient"/>
    <clipPath id="clip-path-15">
      <path id="Trazado_212345" data-name="Trazado 212345" d="M139.131,17.7a8.608,8.608,0,0,0-7.182,9.017,8.777,8.777,0,0,0,.1.879,8.608,8.608,0,0,0,9.017,7.182,8.736,8.736,0,0,0,.878-.1c.092-.015.185-.032.276-.05a8.845,8.845,0,0,0,1.326-.376l.018-.007.05-.019.1-.037a.2.2,0,0,0,.129-.2.211.211,0,0,0-.014-.062.2.2,0,0,0-.265-.114,8.2,8.2,0,0,1-11.108-6.279,8.415,8.415,0,0,1-.1-.838,8.2,8.2,0,0,1,16.267-1.845q.068.413.094.828a8.175,8.175,0,0,1-.552,3.514.2.2,0,0,0-.013.087.2.2,0,0,0,.393.062,8.569,8.569,0,0,0,.579-3.689q-.027-.435-.1-.869a8.6,8.6,0,0,0-9.9-7.081" transform="translate(-131.932 -17.587)" fill="none"/>
    </clipPath>
    <linearGradient id="linear-gradient-6" x1="-5.552" y1="7.303" x2="-5.51" y2="7.303" xlink:href="#linear-gradient"/>
    <clipPath id="clip-path-17">
      <rect id="Rectángulo_44656" data-name="Rectángulo 44656" width="17.083" height="16.855" fill="none"/>
    </clipPath>
    <clipPath id="clip-path-18">
      <rect id="Rectángulo_44657" data-name="Rectángulo 44657" width="20.846" height="7.221" fill="none"/>
    </clipPath>
    <clipPath id="clip-path-19">
      <path id="Trazado_212351" data-name="Trazado 212351" d="M177.062,44.579a1.754,1.754,0,0,1,.033-3.5,1.783,1.783,0,0,1,.258,0,1.754,1.754,0,0,1-.144,3.5c-.049,0-.1,0-.147-.006m-2.23-1.945a2.383,2.383,0,1,0,2.573-2.179c-.065-.005-.13-.007-.195-.007a2.387,2.387,0,0,0-2.378,2.186" transform="translate(-174.824 -40.448)" fill="none"/>
    </clipPath>
    <linearGradient id="linear-gradient-7" x1="-26.053" y1="23.297" x2="-25.904" y2="23.297" xlink:href="#linear-gradient"/>
    <clipPath id="clip-path-20">
      <path id="Trazado_212352" data-name="Trazado 212352" d="M174.885,35.632a5.938,5.938,0,0,0-4.955,6.22,6.1,6.1,0,0,0,.07.606,5.945,5.945,0,0,0,6.228,4.955c.2-.012.4-.036.6-.069a6,6,0,0,0,1.167-.318l.051-.02a.315.315,0,0,0,.2-.312.333.333,0,0,0-.022-.1.316.316,0,0,0-.409-.176,5.3,5.3,0,0,1-1.089.3l-.061.01a5.261,5.261,0,0,1-2.587-.243,5.38,5.38,0,0,1-1.268-.658l-.01-.007-.029-.021a5.306,5.306,0,1,1,8.322-5.183q.044.267.062.536a5.294,5.294,0,0,1-.357,2.275.308.308,0,0,0-.021.135.315.315,0,0,0,.608.1,5.94,5.94,0,0,0-5.51-8.112,6,6,0,0,0-.986.082" transform="translate(-169.919 -35.55)" fill="none"/>
    </clipPath>
    <linearGradient id="linear-gradient-8" x1="-10.371" y1="9.516" x2="-10.309" y2="9.516" xlink:href="#linear-gradient"/>
    <clipPath id="clip-path-22">
      <path id="Trazado_212359" data-name="Trazado 212359" d="M60.179,138.37a1.447,1.447,0,0,1-.488-.223,2.135,2.135,0,0,1-.729-.909,4.573,4.573,0,0,1-.114-2.792,14.969,14.969,0,0,1,.436-1.564l.253-.789.289-.778a29.161,29.161,0,0,1,3.04-5.893,29.519,29.519,0,0,1,4.28-5.084l.3-.289.312-.276.622-.555c.212-.179.43-.352.644-.527s.428-.356.655-.516c.394-.291.785-.588,1.193-.86q-.156.625-.32,1.247A79.473,79.473,0,0,1,65.96,131.24l-.725,1.524c-.253.5-.5,1.008-.761,1.507l-.393.747-.2.373-.193.347a9.7,9.7,0,0,1-.873,1.279,5.309,5.309,0,0,1-1.033.992,2.179,2.179,0,0,1-1.082.417c-.037,0-.073.005-.109.005a1.678,1.678,0,0,1-.414-.061M92.5,119.843l.032-.1.05-.113.1-.226c.069-.149.141-.3.215-.445.15-.292.311-.58.483-.86a12.26,12.26,0,0,1,1.162-1.591c.108-.123.217-.247.33-.365.035-.038.07-.076.107-.114l-.023.042-.239.447-.5.884q-.864,1.493-1.841,2.917a2.346,2.346,0,0,1,.121-.475m2.673-4.01h0l-.005,0Zm-.065-.044v0m0,0h0m-26.456-8.119c-.08.043-.171.1-.237.138l-.185.122-.37.243-.74.488c-.484.337-.952.7-1.424,1.053s-.9.761-1.353,1.139c-.438.394-.856.811-1.284,1.215a30.6,30.6,0,0,0-4.366,5.518,29.575,29.575,0,0,0-4.4,13.165.491.491,0,0,0,.974.12,31.585,31.585,0,0,1,9.191-17.381c.409-.37.807-.752,1.224-1.111s.847-.705,1.284-1.038c.449-.318.88-.659,1.335-.967l.691-.449.346-.224.173-.113c.054-.033.087-.052.133-.075a1.932,1.932,0,0,1,1.068-.234,1.62,1.62,0,0,1,.493.124,1.115,1.115,0,0,1,.356.25,1.757,1.757,0,0,1,.407.962,5.44,5.44,0,0,1,.006,1.425c-.026.253-.067.506-.114.766l-.162.827c-.1.553-.226,1.1-.345,1.652l-.024.109a3.152,3.152,0,0,0-.294.136l-.122.068c-.041.023-.064.04-.1.06l-.185.117-.371.234c-.5.3-.974.644-1.453.979-.244.163-.471.346-.7.524s-.465.354-.693.537l-.67.566-.334.284-.321.3a31.466,31.466,0,0,0-7.913,11.473l-.319.821-.283.835a16.234,16.234,0,0,0-.507,1.722,8.016,8.016,0,0,0-.23,1.91,5.4,5.4,0,0,0,.4,2.02,4.022,4.022,0,0,0,1.367,1.738,3.35,3.35,0,0,0,1.048.507,3.26,3.26,0,0,0,.573.12,2.918,2.918,0,0,0,.592.022,4.1,4.1,0,0,0,2.087-.744,7.194,7.194,0,0,0,1.446-1.349,11.641,11.641,0,0,0,1.068-1.533l.226-.4.205-.382.41-.763c.27-.51.528-1.027.792-1.54L67.8,132.1a77.994,77.994,0,0,0,4.779-12.992c.208-.781.409-1.566.6-2.352a1.149,1.149,0,0,1,.153.111.85.85,0,0,1,.268.4,1.541,1.541,0,0,1,.051.6,4.894,4.894,0,0,1-.13.743l-.207.822-.419,1.659c-.436,1.709-.857,3.422-1.281,5.135a5.417,5.417,0,0,0-.389,1.59l.963.172v-.006q.241-.845.483-1.69c.021-.039.044-.078.067-.116a2.228,2.228,0,0,1,1.291-1.024,1.859,1.859,0,0,1,.8-.056,1.376,1.376,0,0,1,.365.109,1.552,1.552,0,0,1,.165.089l.24.149a2.739,2.739,0,0,0,2.41.152,2.582,2.582,0,0,0,.546-.315,2.542,2.542,0,0,0,.239-.2l.111-.108.088-.094.7-.748,1.4-1.5,1.4-1.5.7-.748a.311.311,0,0,1,.376-.083.379.379,0,0,1,.163.14.288.288,0,0,1,.037.186.129.129,0,0,1-.011.055.487.487,0,0,1-.023.078l-.088.248-.166.5c-.215.665-.4,1.342-.55,2.023s-.271,1.373-.357,2.067l-.03.264-.012.309a1.489,1.489,0,0,0,.02.312,1.943,1.943,0,0,0,.053.31,2.6,2.6,0,0,0,.579,1.108,2.653,2.653,0,0,0,1.008.718,2.947,2.947,0,0,0,.6.177,2.841,2.841,0,0,0,.626.026,2.526,2.526,0,0,0,1.188-.377l.135-.081.122-.1.237-.2.371-.363q1.481-1.453,2.827-3.034.9-1.062,1.736-2.176a3.147,3.147,0,0,0,2.547,1.213,3.159,3.159,0,0,0,1.174-.287l.272-.128.226-.132c.149-.089.3-.173.45-.266.3-.179.592-.367.884-.559a26.517,26.517,0,0,0,6.142-5.623.491.491,0,1,0-.769-.61h0a25.536,25.536,0,0,1-5.914,5.413c-.281.184-.564.365-.851.538-.143.089-.289.171-.434.256l-.217.127-.193.088a2.189,2.189,0,0,1-.8.2,2.113,2.113,0,0,1-.809-.144,2.155,2.155,0,0,1-1.091-.924q1.3-1.819,2.425-3.757l.508-.9.245-.457.122-.228.031-.057c.016-.033.034-.076.05-.114a.9.9,0,0,0,.059-.26.946.946,0,0,0-.486-.888.958.958,0,0,0-.514-.121.911.911,0,0,0-.505.19c-.033.026-.067.054-.1.081l-.047.048-.093.1c-.063.062-.124.127-.185.193-.123.128-.24.262-.357.395a13.288,13.288,0,0,0-1.257,1.719q-.277.455-.521.929c-.079.159-.158.318-.231.479l-.108.243-.054.122-.048.142a3.121,3.121,0,0,0-.063,2.032q-.941,1.282-1.97,2.495-1.315,1.547-2.765,2.97l-.362.354-.159.129-.078.065-.087.049a1.546,1.546,0,0,1-.744.237,1.9,1.9,0,0,1-.4-.015,2,2,0,0,1-.384-.115,1.674,1.674,0,0,1-.647-.461,1.636,1.636,0,0,1-.362-.69,1.081,1.081,0,0,1-.031-.195.725.725,0,0,1-.012-.2l.006-.2c.007-.077.019-.164.029-.246.082-.663.2-1.323.341-1.975s.319-1.3.526-1.935l.16-.475.083-.237c.012-.028.034-.106.051-.166a.86.86,0,0,0,.036-.2,1.265,1.265,0,0,0-.174-.8,1.351,1.351,0,0,0-.6-.526,1.3,1.3,0,0,0-.8-.091,1.364,1.364,0,0,0-.695.4l-.7.749-1.4,1.5-1.4,1.5-.7.749-.088.093-.072.071a1.394,1.394,0,0,1-.15.129,1.577,1.577,0,0,1-.341.2,1.76,1.76,0,0,1-1.543-.1l-.193-.122a2.228,2.228,0,0,0-.288-.155,2.333,2.333,0,0,0-.614-.185,2.84,2.84,0,0,0-1.229.081,3.289,3.289,0,0,0-.555.219q.432-1.511.855-3.025l.463-1.647.232-.831a6.175,6.175,0,0,0,.185-.936,2.806,2.806,0,0,0-.078-1.1,2.192,2.192,0,0,0-.642-1.023,2.559,2.559,0,0,0-.733-.465c.1-.449.2-.9.283-1.351l.169-.849c.055-.3.106-.611.139-.925a7.523,7.523,0,0,0-.013-1.985,4.67,4.67,0,0,0-.114-.532,3.952,3.952,0,0,0-.185-.542,3.322,3.322,0,0,0-.68-1.028,3.455,3.455,0,0,0-2.491-1.013,4.047,4.047,0,0,0-1.935.5" transform="translate(-54.29 -107.171)" fill="none"/>
    </clipPath>
    <linearGradient id="linear-gradient-9" x1="-0.731" y1="1.269" x2="-0.717" y2="1.269" xlink:href="#linear-gradient-2"/>
    <clipPath id="clip-path-23">
      <path id="Trazado_212360" data-name="Trazado 212360" d="M128.483,113.538l-4.9,3.071a.491.491,0,1,0,.521.832l4.9-3.071a.491.491,0,0,0-.521-.832" transform="translate(-123.35 -113.463)" fill="none"/>
    </clipPath>
    <linearGradient id="linear-gradient-10" x1="-14.989" y1="14.222" x2="-14.868" y2="14.222" xlink:href="#linear-gradient-2"/>
    <clipPath id="clip-path-24">
      <path id="Trazado_212361" data-name="Trazado 212361" d="M155.38,191.134a.305.305,0,0,0,.248.458,72.831,72.831,0,0,0,8.134-.008.429.429,0,0,0,.407-.4c0-.041,0-.084,0-.131a5.981,5.981,0,0,1-2.374.233c-2.072-.092-4.7-.3-6.213-.435a2.527,2.527,0,0,0-.207.288" transform="translate(-155.338 -190.846)" fill="none"/>
    </clipPath>
    <linearGradient id="linear-gradient-11" x1="-12.758" y1="1.019" x2="-12.676" y2="1.019" xlink:href="#linear-gradient-2"/>
    <clipPath id="clip-path-25">
      <path id="Trazado_212362" data-name="Trazado 212362" d="M161.891,186.671s-4.724,1.232-6.213,3.057c1.514.131,4.141.343,6.213.435a5.981,5.981,0,0,0,2.374-.233,5.592,5.592,0,0,0-1.041-3.259Z" transform="translate(-155.678 -186.671)" fill="none"/>
    </clipPath>
    <linearGradient id="linear-gradient-12" x1="-15.304" y1="0.739" x2="-15.206" y2="0.739" xlink:href="#linear-gradient-3"/>
    <clipPath id="clip-path-26">
      <path id="Trazado_212363" data-name="Trazado 212363" d="M162.891,183.7l.431,2.406a.668.668,0,0,0,.449.513,2.189,2.189,0,0,0,1,.083.565.565,0,0,0,.482-.531l.124-2.471Z" transform="translate(-162.891 -183.697)" fill="none"/>
    </clipPath>
    <linearGradient id="linear-gradient-13" x1="-47.923" y1="2.04" x2="-47.629" y2="2.04" gradientUnits="objectBoundingBox">
      <stop offset="0" stop-color="#febbba"/>
      <stop offset="1" stop-color="#ff928e"/>
    </linearGradient>
    <clipPath id="clip-path-27">
      <path id="Trazado_212364" data-name="Trazado 212364" d="M189.12,191.122a4.008,4.008,0,0,1-2.284-.12l0,.005a1.58,1.58,0,0,0,1.194.55,3.741,3.741,0,0,0,1.591-.249.853.853,0,0,0,.575-.972l0-.01a1.2,1.2,0,0,1-1.078.8" transform="translate(-186.836 -190.325)" fill="none"/>
    </clipPath>
    <linearGradient id="linear-gradient-14" x1="-39.534" y1="1.086" x2="-39.322" y2="1.086" xlink:href="#linear-gradient-2"/>
    <clipPath id="clip-path-28">
      <path id="Trazado_212365" data-name="Trazado 212365" d="M186.537,183.675h-1.1a1.389,1.389,0,0,0-.759,1.591,10.51,10.51,0,0,0,1.569,3.955,4.008,4.008,0,0,0,2.284.12,1.2,1.2,0,0,0,1.078-.8c-.343-1.362-1.387-4.871-3.049-4.87h-.024" transform="translate(-184.64 -183.675)" fill="none"/>
    </clipPath>
    <linearGradient id="linear-gradient-15" x1="-18.378" y1="0.979" x2="-18.278" y2="0.979" xlink:href="#linear-gradient-3"/>
    <clipPath id="clip-path-29">
      <path id="Trazado_212366" data-name="Trazado 212366" d="M183.837,181.1l.9,2.556a.55.55,0,0,0,.449.368,2.351,2.351,0,0,0,1.265-.307.657.657,0,0,0,.343-.747l-.611-2.43Z" transform="translate(-183.837 -180.544)" fill="none"/>
    </clipPath>
    <linearGradient id="linear-gradient-16" x1="-44.437" y1="2.408" x2="-44.196" y2="2.408" xlink:href="#linear-gradient-13"/>
    <clipPath id="clip-path-30">
      <path id="Trazado_212367" data-name="Trazado 212367" d="M155.959,137.344a137.685,137.685,0,0,1,4.548,33.809,5.349,5.349,0,0,0,3.365,0s1.078-17.862-.208-25.93c0,0,3.643,3.036,12.549,24.412,0,0,2.473-.089,3.233-.763,0,0-8.2-26.461-13.221-34.551-1.046.827-4.247,2.887-10.267,3.022" transform="translate(-155.959 -134.322)" fill="none"/>
    </clipPath>
    <linearGradient id="linear-gradient-17" x1="-2.428" y1="1.191" x2="-2.411" y2="1.191" xlink:href="#linear-gradient-2"/>
    <clipPath id="clip-path-32">
      <path id="Trazado_212369" data-name="Trazado 212369" d="M160.631,143.862a.286.286,0,0,0,.133.381,8.524,8.524,0,0,1,3.292,2.848.285.285,0,1,0,.487-.3,8.934,8.934,0,0,0-3.531-3.065.276.276,0,0,0-.124-.029.287.287,0,0,0-.257.161" transform="translate(-160.602 -143.701)" fill="none"/>
    </clipPath>
    <linearGradient id="linear-gradient-18" x1="-23.902" y1="7.034" x2="-23.753" y2="7.034" xlink:href="#linear-gradient-3"/>
    <clipPath id="clip-path-33">
      <path id="Trazado_212370" data-name="Trazado 212370" d="M172.006,122.593a25.391,25.391,0,0,1-.409,8.221l.822.671a19.556,19.556,0,0,0,3.61-8.6,11.93,11.93,0,0,0-2.835-.395,6.22,6.22,0,0,0-1.189.105" transform="translate(-171.597 -122.488)" fill="none"/>
    </clipPath>
    <linearGradient id="linear-gradient-19" x1="-21.245" y1="5.34" x2="-21.121" y2="5.34" xlink:href="#linear-gradient-13"/>
    <clipPath id="clip-path-35">
      <path id="Trazado_212373" data-name="Trazado 212373" d="M136.082,125.431a1.584,1.584,0,0,0-1.169,1.538v.808s2.885,2.531,8.652-1.565a15,15,0,0,0-2.2-4.193c-.825,1.435-2.967,2.8-5.286,3.412" transform="translate(-134.913 -122.019)" fill="none"/>
    </clipPath>
    <linearGradient id="linear-gradient-20" x1="-9.398" y1="5.146" x2="-9.328" y2="5.146" xlink:href="#linear-gradient-13"/>
    <clipPath id="clip-path-36">
      <path id="Trazado_212374" data-name="Trazado 212374" d="M149.059,96.116l1.585,5.825a1.133,1.133,0,0,0,1.515.754,23,23,0,0,0,2.284-1.044,1.527,1.527,0,0,0,.538-2.195l-3.295-4.911Z" transform="translate(-149.059 -94.545)" fill="none"/>
    </clipPath>
    <linearGradient id="linear-gradient-21" x1="-16.86" y1="8.475" x2="-16.747" y2="8.475" xlink:href="#linear-gradient-13"/>
    <clipPath id="clip-path-37">
      <path id="Trazado_212375" data-name="Trazado 212375" d="M144.325,90.305c-.015.1,1.322,6.646,1.322,6.646l3.722-.842-.345-6.393a13.372,13.372,0,0,0-2.7-.346c-.988,0-1.892.206-2,.935" transform="translate(-144.325 -89.37)" fill="none"/>
    </clipPath>
    <linearGradient id="linear-gradient-22" x1="-12.873" y1="8.375" x2="-12.783" y2="8.375" xlink:href="#linear-gradient-13"/>
    <clipPath id="clip-path-38">
      <path id="Trazado_212376" data-name="Trazado 212376" d="M143.7,86.4c-1.668.286-1.857,2.134-1.417,3.217s2.23.671,3.128.124a2.018,2.018,0,0,1,1.954.253.465.465,0,0,1,.222.341l.444,3.351a.442.442,0,0,1,0,.128c-.037.263-.232,1.157-1.135.9a4.243,4.243,0,0,0-2.089-.272.471.471,0,0,0-.324.546,20.323,20.323,0,0,0,.857,3.05.471.471,0,0,0,.571.279,15.193,15.193,0,0,0,3.281-1.343.47.47,0,0,0,.231-.425c-.036-.846-.135-3.418-.051-4.138.078-.677.908-1.082,1.27-1.228a.462.462,0,0,0,.258-.259,1.224,1.224,0,0,0-.824-1.785.472.472,0,0,1-.3-.611,1.227,1.227,0,0,0-.688-1.7,1.731,1.731,0,0,0-2.065.5.473.473,0,0,1-.6.071.373.373,0,0,0-.425.015.465.465,0,0,1-.658-.2,1.384,1.384,0,0,0-1.3-.847,1.982,1.982,0,0,0-.342.031" transform="translate(-142.077 -86.374)" fill="none"/>
    </clipPath>
    <linearGradient id="linear-gradient-23" x1="-7.695" y1="6.956" x2="-7.64" y2="6.956" xlink:href="#linear-gradient-2"/>
    <clipPath id="clip-path-39">
      <path id="Trazado_212377" data-name="Trazado 212377" d="M152.148,92.949c-.7.47-.018,2.39-.018,2.39s1.251.5,1.536-1.226c.16-.971-.3-1.383-.833-1.383a1.252,1.252,0,0,0-.685.219" transform="translate(-151.83 -92.73)" fill="none"/>
    </clipPath>
    <linearGradient id="linear-gradient-24" x1="-29.296" y1="18.68" x2="-29.102" y2="18.68" xlink:href="#linear-gradient-13"/>
    <clipPath id="clip-path-40">
      <path id="Trazado_212378" data-name="Trazado 212378" d="M167.021,112.343l-62.594,20.542,2.988,9.224,62.954-20.041a2.893,2.893,0,0,0,2.014-2.723v-.067a2.979,2.979,0,0,0-.025-.35,12.31,12.31,0,0,0-2.584-5.723,2.476,2.476,0,0,0-2.753-.861" transform="translate(-104.427 -112.219)" fill="none"/>
    </clipPath>
    <linearGradient id="linear-gradient-25" x1="-1.106" y1="1.871" x2="-1.095" y2="1.871" xlink:href="#linear-gradient-2"/>
    <clipPath id="clip-path-41">
      <path id="Trazado_212379" data-name="Trazado 212379" d="M81.644,152.333a.431.431,0,0,0,.253.8l8.554-.649a7.532,7.532,0,0,0-1.383-4.567Z" transform="translate(-81.432 -147.917)" fill="none"/>
    </clipPath>
    <linearGradient id="linear-gradient-26" x1="-10.613" y1="3.642" x2="-10.486" y2="3.642" xlink:href="#linear-gradient-2"/>
    <clipPath id="clip-path-42">
      <path id="Trazado_212380" data-name="Trazado 212380" d="M91.859,145.915a7.532,7.532,0,0,1,1.383,4.567l10.809-.819a11.948,11.948,0,0,0-2.988-9.224Z" transform="translate(-91.859 -140.44)" fill="none"/>
    </clipPath>
    <linearGradient id="linear-gradient-27" x1="-5.772" y1="2.8" x2="-5.71" y2="2.8" xlink:href="#linear-gradient-13"/>
    <clipPath id="clip-path-44">
      <path id="Trazado_212383" data-name="Trazado 212383" d="M164.549,134.8s.393.544,1.623.231a17.553,17.553,0,0,1,2.913-.389s1.7.765,1.718-.666l-.754-.4-3.837-.312Z" transform="translate(-164.549 -133.273)" fill="none"/>
    </clipPath>
    <linearGradient id="linear-gradient-28" x1="-18.449" y1="13.819" x2="-18.337" y2="13.819" xlink:href="#linear-gradient-13"/>
    <clipPath id="clip-path-45">
      <path id="Trazado_212384" data-name="Trazado 212384" d="M135.689,128.11c-.343.086-.623.767-.79,1.3a.8.8,0,0,0,.387.946c.7.374,1.834.916,2.165.656,1.321-1.031-1.018-2.905-1.7-2.905a.264.264,0,0,0-.066.007" transform="translate(-134.862 -128.103)" fill="none"/>
    </clipPath>
    <linearGradient id="linear-gradient-29" x1="-24.734" y1="14.819" x2="-24.551" y2="14.819" xlink:href="#linear-gradient-13"/>
  </defs>
  <g id="Grupo_148528" data-name="Grupo 148528" clip-path="url(#clip-path)">
    <g id="Grupo_148434" data-name="Grupo 148434" transform="translate(1.814 2.628)">
      <g id="Grupo_148433" data-name="Grupo 148433" clip-path="url(#clip-path-2)">
        <rect id="Rectángulo_44642" data-name="Rectángulo 44642" width="203.733" height="204.2" transform="matrix(0.659, -0.753, 0.753, 0.659, -77.699, 80.462)" fill="url(#linear-gradient)"/>
      </g>
    </g>
    <g id="Grupo_148442" data-name="Grupo 148442">
      <g id="Grupo_148441" data-name="Grupo 148441" clip-path="url(#clip-path)">
        <path id="Trazado_212329" data-name="Trazado 212329" d="M21.489.7a.575.575,0,0,1,.94-.559C26.682,3.875,36.978,15.129,35.2,35.468c-2.233,25.518,3.376,34.611,10.157,40.044A28.424,28.424,0,0,1,30.2,63.943C15.439,41.315,23.786,10.34,21.489.7" transform="translate(-5.667 0)" fill="#caeb95"/>
        <g id="Grupo_148437" data-name="Grupo 148437" transform="translate(19.224 8.355)" style="mix-blend-mode: soft-light;isolation: isolate">
          <g id="Grupo_148436" data-name="Grupo 148436">
            <g id="Grupo_148435" data-name="Grupo 148435" clip-path="url(#clip-path-4)">
              <path id="Trazado_212330" data-name="Trazado 212330" d="M26.256,11.59c.611,2.811,1.167,5.634,1.62,8.472s.847,5.684,1.139,8.541.507,5.718.611,8.586.112,5.735.1,8.615c0,2.879-.015,5.779.265,8.689a29.218,29.218,0,0,0,2.05,8.539c.286.677.585,1.351.921,2s.677,1.3,1.041,1.935a30.277,30.277,0,0,0,8.832,9.675.556.556,0,0,0,.661-.895h0c-.566-.429-1.126-.864-1.665-1.323-.273-.226-.535-.462-.8-.693s-.525-.473-.776-.722a29.349,29.349,0,0,1-2.828-3.144,32.127,32.127,0,0,1-4.251-7.3,28.046,28.046,0,0,1-1.3-4.013,31.83,31.83,0,0,1-.7-4.178c-.294-2.824-.3-5.694-.323-8.572s-.07-5.772-.234-8.658q-.116-2.165-.311-4.324c-.061-.72-.135-1.438-.209-2.157s-.164-1.435-.254-2.151q-.548-4.3-1.36-8.553c-.555-2.833-1.186-5.649-1.924-8.436a.149.149,0,0,0-.29.07" transform="translate(-26.252 -11.409)" fill="#fff"/>
            </g>
          </g>
        </g>
        <path id="Trazado_212331" data-name="Trazado 212331" d="M23.616,90.683a1.445,1.445,0,0,1-2.267.786,44.078,44.078,0,0,1-17.243-33.7C3.458,41.271,1.539,32.386.389,28.412a.906.906,0,0,1,1.422-.971c7.664,5.863,31.136,27.235,21.8,63.242" transform="translate(-0.094 -7.295)" fill="#7fcf00"/>
        <g id="Grupo_148440" data-name="Grupo 148440" transform="translate(7.834 37.63)" style="mix-blend-mode: soft-light;isolation: isolate">
          <g id="Grupo_148439" data-name="Grupo 148439">
            <g id="Grupo_148438" data-name="Grupo 148438" clip-path="url(#clip-path-5)">
              <path id="Trazado_212332" data-name="Trazado 212332" d="M25,97.282a.392.392,0,0,1-.064.042.4.4,0,0,1-.542-.166c-.117-.222-11.762-22.438-13.7-45.338a.4.4,0,0,1,.8-.067c1.922,22.733,13.49,44.81,13.607,45.03a.4.4,0,0,1-.1.5" transform="translate(-10.698 -51.386)" fill="#fff"/>
            </g>
          </g>
        </g>
      </g>
    </g>
    <g id="Grupo_148444" data-name="Grupo 148444" transform="translate(8.211 54.656)">
      <g id="Grupo_148443" data-name="Grupo 148443" clip-path="url(#clip-path-6)">
        <rect id="Rectángulo_44646" data-name="Rectángulo 44646" width="131.069" height="82.11" transform="translate(-2.045 0.051) rotate(-1.461)" fill="url(#linear-gradient-2)"/>
      </g>
    </g>
    <g id="Grupo_148446" data-name="Grupo 148446" transform="translate(10.413 57.326)">
      <g id="Grupo_148445" data-name="Grupo 148445" clip-path="url(#clip-path-7)">
        <rect id="Rectángulo_44647" data-name="Rectángulo 44647" width="139.994" height="139.543" transform="translate(-36.971 36.474) rotate(-44.634)" fill="url(#linear-gradient-3)"/>
      </g>
    </g>
    <g id="Grupo_148451" data-name="Grupo 148451">
      <g id="Grupo_148450" data-name="Grupo 148450" clip-path="url(#clip-path)">
        <g id="Grupo_148449" data-name="Grupo 148449" transform="translate(90.802 60.624)" opacity="0.67">
          <g id="Grupo_148448" data-name="Grupo 148448">
            <g id="Grupo_148447" data-name="Grupo 148447" clip-path="url(#clip-path-9)">
              <path id="Trazado_212335" data-name="Trazado 212335" d="M180.059,132.921h0a.313.313,0,0,1-.308-.317l.076-5.156a.311.311,0,0,1,.312-.308h0a.313.313,0,0,1,.308.317l-.076,5.156a.312.312,0,0,1-.312.308" transform="translate(-138.921 -94.661)" fill="#91b3fa"/>
              <path id="Trazado_212336" data-name="Trazado 212336" d="M165.32,108.411h0a.313.313,0,0,1-.308-.317l.29-19.747a3.708,3.708,0,0,0-1.058-2.778,5.209,5.209,0,0,0-3.453-1.178L124.3,83.412a.312.312,0,0,1-.3-.321.3.3,0,0,1,.321-.3l36.463.978a5.739,5.739,0,0,1,3.89,1.352,4.314,4.314,0,0,1,1.251,3.232l-.29,19.754a.312.312,0,0,1-.312.308" transform="translate(-123.997 -82.787)" fill="#91b3fa"/>
            </g>
          </g>
        </g>
      </g>
    </g>
    <g id="Grupo_148453" data-name="Grupo 148453" transform="translate(0 133.159)">
      <g id="Grupo_148452" data-name="Grupo 148452" clip-path="url(#clip-path-10)">
        <rect id="Rectángulo_44650" data-name="Rectángulo 44650" width="19.295" height="143.638" transform="translate(-0.562 6.103) rotate(-84.742)" fill="url(#linear-gradient-4)"/>
      </g>
    </g>
    <g id="Grupo_148461" data-name="Grupo 148461">
      <g id="Grupo_148460" data-name="Grupo 148460" clip-path="url(#clip-path)">
        <g id="Grupo_148456" data-name="Grupo 148456" transform="translate(92.448 1.307)" opacity="0.3">
          <g id="Grupo_148455" data-name="Grupo 148455">
            <g id="Grupo_148454" data-name="Grupo 148454" clip-path="url(#clip-path-12)">
              <path id="Trazado_212338" data-name="Trazado 212338" d="M160.024,23.513a.51.51,0,0,1-.489-.531c.023-.547.022-1.1,0-1.653a.51.51,0,0,1,.477-.532h.009a.51.51,0,0,1,.532.488c.026.579.027,1.164,0,1.74a.509.509,0,0,1-.477.488.431.431,0,0,1-.053,0m-.795-4.851c-.1-.541-.222-1.083-.366-1.611a.51.51,0,1,1,.985-.269c.152.556.281,1.126.385,1.7a.511.511,0,0,1-.41.594.561.561,0,0,1-.06.007.511.511,0,0,1-.534-.417m-1.25-4.145c-.217-.5-.458-1-.716-1.489a.51.51,0,0,1,.9-.482c.273.51.527,1.037.754,1.568a.51.51,0,0,1-.937.4m-2.146-3.762c-.324-.443-.671-.878-1.032-1.292a.51.51,0,1,1,.77-.67c.379.436.745.893,1.086,1.36a.51.51,0,0,1-.824.6M152.9,7.566c-.414-.36-.848-.707-1.292-1.031a.51.51,0,1,1,.6-.824c.467.341.924.707,1.359,1.085a.51.51,0,1,1-.669.77M149.339,5.1c-.483-.259-.983-.5-1.487-.719a.51.51,0,1,1,.4-.937c.53.229,1.057.484,1.566.757a.51.51,0,1,1-.483.9M130.4,4.867a.511.511,0,0,1,.21-.691c.509-.271,1.038-.524,1.569-.751a.51.51,0,1,1,.4.938c-.505.216-1.007.456-1.49.714a.51.51,0,0,1-.691-.21M145.322,3.5c-.529-.146-1.071-.27-1.61-.37a.51.51,0,1,1,.185-1c.568.1,1.138.236,1.7.389a.51.51,0,0,1-.271.984m-10.836-.371a.51.51,0,0,1,.359-.625c.557-.151,1.128-.279,1.7-.382a.51.51,0,1,1,.182,1c-.54.1-1.083.22-1.612.363a.494.494,0,0,1-.1.017.509.509,0,0,1-.524-.376m6.56-.3c-.548-.023-1.1-.024-1.652,0A.51.51,0,0,1,139.34,1.8h.01c.578-.024,1.164-.024,1.74,0a.51.51,0,0,1,.011,1.019.458.458,0,0,1-.055,0" transform="translate(-127.339 -1.785)" fill="#bdd0fb"/>
              <path id="Trazado_212339" data-name="Trazado 212339" d="M126.786,8.491a.506.506,0,0,0,.284-.11c.207-.163.419-.325.633-.481a.51.51,0,0,0-.6-.825c-.225.164-.449.335-.666.507a.51.51,0,0,0,.35.909" transform="translate(-126.244 -3.175)" fill="#bdd0fb"/>
            </g>
          </g>
        </g>
        <g id="Grupo_148459" data-name="Grupo 148459" transform="translate(84.936 18.455)" opacity="0.3">
          <g id="Grupo_148458" data-name="Grupo 148458">
            <g id="Grupo_148457" data-name="Grupo 148457" clip-path="url(#clip-path-13)">
              <path id="Trazado_212340" data-name="Trazado 212340" d="M116.629,27.031a.51.51,0,0,0,.475-.461c.025-.261.056-.527.092-.789a.51.51,0,1,0-1.011-.139c-.038.276-.07.556-.1.831a.511.511,0,0,0,.46.557.5.5,0,0,0,.081,0" transform="translate(-116.013 -25.201)" fill="#bdd0fb"/>
              <path id="Trazado_212341" data-name="Trazado 212341" d="M136.617,50.1a.51.51,0,1,1-.015-1.02c.536-.008,1.081-.039,1.624-.092a.51.51,0,0,1,.1,1.016q-.354.034-.705.056c-.334.021-.672.035-1,.04m3.837-.931a.51.51,0,0,1,.379-.614c.527-.125,1.053-.273,1.566-.441a.51.51,0,1,1,.318.97c-.54.176-1.094.332-1.648.464a.494.494,0,0,1-.086.012.509.509,0,0,1-.528-.392m-6.613.781c-.564-.069-1.132-.164-1.689-.281a.51.51,0,1,1,.21-1c.529.111,1.068.2,1.6.267a.51.51,0,0,1-.029,1.016.462.462,0,0,1-.1,0M144.611,47.8a.51.51,0,0,1,.234-.682c.486-.237.967-.5,1.43-.774a.51.51,0,1,1,.523.876c-.488.291-.994.566-1.506.815a.516.516,0,0,1-.191.051.511.511,0,0,1-.491-.286m-15.132,1.107c-.535-.191-1.068-.409-1.585-.645a.51.51,0,1,1,.424-.928c.492.225,1,.431,1.506.613a.51.51,0,1,1-.344.96m-4.028-1.97c-.48-.3-.953-.633-1.406-.975a.51.51,0,1,1,.616-.814c.431.326.88.638,1.336.927a.51.51,0,1,1-.546.862m-3.5-2.8c-.4-.4-.793-.825-1.16-1.259a.51.51,0,1,1,.778-.659c.349.412.719.814,1.1,1.2a.51.51,0,0,1-.721.722m-2.809-3.5c-.3-.48-.593-.98-.856-1.483a.51.51,0,1,1,.9-.472c.25.478.524.951.814,1.407a.511.511,0,0,1-.157.7.5.5,0,0,1-.241.078.51.51,0,0,1-.464-.235m-1.972-4.033c-.191-.535-.363-1.084-.508-1.634a.51.51,0,0,1,.986-.262c.138.523.3,1.044.483,1.552a.509.509,0,0,1-.308.652.5.5,0,0,1-.14.029.511.511,0,0,1-.513-.338m-1.038-4.362c-.052-.415-.092-.837-.118-1.254-.01-.151-.018-.3-.024-.452a.5.5,0,0,1,.488-.531.511.511,0,0,1,.532.488q.009.214.022.43c.026.4.063.8.113,1.191a.511.511,0,0,1-.443.57l-.031,0a.511.511,0,0,1-.538-.446" transform="translate(-115.987 -26.488)" fill="#bdd0fb"/>
              <path id="Trazado_212342" data-name="Trazado 212342" d="M160.606,50.923a.51.51,0,0,0,.286-.111c.216-.173.431-.353.642-.537a.51.51,0,0,0-.671-.769c-.2.174-.4.346-.61.51a.51.51,0,0,0,.352.907" transform="translate(-127.787 -31.674)" fill="#bdd0fb"/>
            </g>
          </g>
        </g>
        <path id="Trazado_212343" data-name="Trazado 212343" d="M151.588,31.264a.239.239,0,0,0,0-.277l-1.681-2.366a12.625,12.625,0,0,0,.929-3.99l2.551-1.381a.239.239,0,0,0,.122-.249l-.57-3.434a.236.236,0,0,0-.195-.2l-2.86-.484a12.638,12.638,0,0,0-2.166-3.476l.827-2.782a.238.238,0,0,0-.089-.262l-2.832-2.026a.239.239,0,0,0-.277,0l-2.366,1.681a12.625,12.625,0,0,0-3.989-.929L137.61,8.543a.238.238,0,0,0-.248-.122l-3.434.569a.239.239,0,0,0-.2.2l-.484,2.86a12.619,12.619,0,0,0-3.476,2.166l-2.782-.827a.237.237,0,0,0-.261.089L124.7,16.307a.239.239,0,0,0,0,.277l1.681,2.366a12.645,12.645,0,0,0-.929,3.989L122.9,24.321a.238.238,0,0,0-.122.248l.57,3.434a.239.239,0,0,0,.2.2l2.86.484a12.65,12.65,0,0,0,2.167,3.476l-.827,2.782a.239.239,0,0,0,.09.261l2.831,2.026a.239.239,0,0,0,.277,0l2.366-1.681a12.645,12.645,0,0,0,3.99.929l1.381,2.551a.24.24,0,0,0,.249.122l3.434-.57a.238.238,0,0,0,.2-.2l.484-2.86a12.639,12.639,0,0,0,3.476-2.167l2.782.827a.24.24,0,0,0,.262-.09Z" transform="translate(-32.868 -2.254)" fill="#bdd0fb"/>
      </g>
    </g>
    <g id="Grupo_148463" data-name="Grupo 148463" transform="translate(101.777 18.032)">
      <g id="Grupo_148462" data-name="Grupo 148462" clip-path="url(#clip-path-14)">
        <rect id="Rectángulo_44654" data-name="Rectángulo 44654" width="7.294" height="7.003" transform="translate(-0.148 0)" fill="url(#linear-gradient-5)"/>
      </g>
    </g>
    <g id="Grupo_148465" data-name="Grupo 148465" transform="translate(96.613 12.879)">
      <g id="Grupo_148464" data-name="Grupo 148464" clip-path="url(#clip-path-15)">
        <rect id="Rectángulo_44655" data-name="Rectángulo 44655" width="17.381" height="17.538" transform="translate(-0.107 -0.22)" fill="url(#linear-gradient-6)"/>
      </g>
    </g>
    <g id="Grupo_148473" data-name="Grupo 148473">
      <g id="Grupo_148472" data-name="Grupo 148472" clip-path="url(#clip-path)">
        <g id="Grupo_148468" data-name="Grupo 148468" transform="translate(126.95 18.496)" opacity="0.3">
          <g id="Grupo_148467" data-name="Grupo 148467">
            <g id="Grupo_148466" data-name="Grupo 148466" clip-path="url(#clip-path-17)">
              <path id="Trazado_212346" data-name="Trazado 212346" d="M195.718,47.76a.315.315,0,0,0,.287-.245c.059-.261.111-.527.155-.792a.315.315,0,0,0-.622-.1c-.041.252-.09.506-.146.755a.315.315,0,0,0,.238.377.309.309,0,0,0,.089.007" transform="translate(-179.255 -30.906)" fill="#bdd0fb"/>
              <path id="Trazado_212347" data-name="Trazado 212347" d="M190.105,39.709a.316.316,0,0,1-.3-.327,13.035,13.035,0,0,0-.017-1.322c-.006-.092-.013-.185-.02-.278a.315.315,0,0,1,.287-.341.326.326,0,0,1,.341.288c.009.1.016.194.022.291a13.686,13.686,0,0,1,.018,1.386.316.316,0,0,1-.3.3h-.032m-.572-3.511a12.989,12.989,0,0,0-.423-1.543.315.315,0,0,1,.6-.2,13.684,13.684,0,0,1,.444,1.618.316.316,0,0,1-.245.373.311.311,0,0,1-.045.006.316.316,0,0,1-.328-.25M188.5,33.176a12.9,12.9,0,0,0-.789-1.392.315.315,0,1,1,.528-.344,13.645,13.645,0,0,1,.828,1.459.315.315,0,0,1-.567.277M186.754,30.5a13,13,0,0,0-1.106-1.156.315.315,0,0,1,.428-.464,13.855,13.855,0,0,1,1.16,1.213.315.315,0,0,1-.482.407m-2.346-2.169a13.253,13.253,0,0,0-1.353-.853.315.315,0,1,1,.3-.552,13.782,13.782,0,0,1,1.419.893.315.315,0,0,1-.368.512m-2.8-1.533a12.916,12.916,0,0,0-1.52-.5.315.315,0,1,1,.158-.61,13.582,13.582,0,0,1,1.593.521.315.315,0,0,1-.232.586m-3.09-.8a12.893,12.893,0,0,0-1.6-.108.315.315,0,1,1,0-.631,13.57,13.57,0,0,1,1.674.114.315.315,0,0,1-.02.627.283.283,0,0,1-.061,0m-5.15.032a.315.315,0,0,1,.231-.381,13.753,13.753,0,0,1,1.432-.269l.22-.028a.315.315,0,0,1,.072.626l-.207.026a13.023,13.023,0,0,0-1.368.256.357.357,0,0,1-.055.009.315.315,0,0,1-.326-.24" transform="translate(-173.359 -25.257)" fill="#bdd0fb"/>
            </g>
          </g>
        </g>
        <g id="Grupo_148471" data-name="Grupo 148471" transform="translate(118.623 38.497)" opacity="0.3">
          <g id="Grupo_148470" data-name="Grupo 148470">
            <g id="Grupo_148469" data-name="Grupo 148469" clip-path="url(#clip-path-18)">
              <path id="Trazado_212348" data-name="Trazado 212348" d="M174.46,59.775a13.778,13.778,0,0,1-1.65-.016.315.315,0,1,1,.045-.629,12.966,12.966,0,0,0,1.574.015.315.315,0,0,1,.036.63h0m1.276-.439a.315.315,0,0,1,.257-.364,13.088,13.088,0,0,0,1.533-.36.315.315,0,0,1,.18.6,13.83,13.83,0,0,1-1.607.376l-.034,0a.315.315,0,0,1-.33-.261m-4.562.206a13.632,13.632,0,0,1-1.6-.414.315.315,0,0,1,.195-.6,13.064,13.064,0,0,0,1.523.4.315.315,0,0,1-.04.623.3.3,0,0,1-.081-.005m7.668-1.057a.315.315,0,0,1,.162-.415,12.936,12.936,0,0,0,1.4-.718.315.315,0,1,1,.321.542,13.6,13.6,0,0,1-1.468.754.33.33,0,0,1-.107.026.315.315,0,0,1-.308-.188m-10.8.037a13.788,13.788,0,0,1-1.45-.787.315.315,0,1,1,.333-.535,12.933,12.933,0,0,0,1.383.75.315.315,0,0,1-.113.6.322.322,0,0,1-.153-.029m-2.8-1.742a13.821,13.821,0,0,1-1.22-1.111.315.315,0,1,1,.451-.439,13.431,13.431,0,0,0,1.164,1.06.315.315,0,0,1-.4.491m-2.3-2.362a13.557,13.557,0,0,1-.918-1.372.315.315,0,1,1,.544-.319,12.88,12.88,0,0,0,.876,1.308.315.315,0,1,1-.5.382" transform="translate(-161.988 -52.571)" fill="#bdd0fb"/>
              <path id="Trazado_212349" data-name="Trazado 212349" d="M189.1,58.236a.317.317,0,0,0,.173-.065c.213-.165.423-.337.622-.511a.315.315,0,0,0-.414-.475c-.19.166-.39.33-.594.488a.315.315,0,0,0,.213.564" transform="translate(-169.156 -53.785)" fill="#bdd0fb"/>
            </g>
          </g>
        </g>
        <path id="Trazado_212350" data-name="Trazado 212350" d="M183.315,44.948a.158.158,0,0,0,0-.185l-1.124-1.583a8.466,8.466,0,0,0,.621-2.669l1.706-.925a.159.159,0,0,0,.082-.166l-.382-2.3a.159.159,0,0,0-.13-.131l-1.913-.324a8.472,8.472,0,0,0-1.45-2.326l.553-1.862a.158.158,0,0,0-.06-.174l-1.894-1.355a.158.158,0,0,0-.185,0l-1.583,1.125a8.462,8.462,0,0,0-2.669-.622l-.924-1.706a.159.159,0,0,0-.166-.081l-2.3.381a.161.161,0,0,0-.131.131l-.324,1.913a8.458,8.458,0,0,0-2.326,1.45l-1.861-.554a.159.159,0,0,0-.175.06l-1.355,1.894a.162.162,0,0,0,0,.186l1.125,1.583a8.467,8.467,0,0,0-.621,2.67l-1.707.924a.16.16,0,0,0-.081.166l.382,2.3a.159.159,0,0,0,.13.131l1.913.324a8.472,8.472,0,0,0,1.45,2.326l-.554,1.861a.162.162,0,0,0,.061.176l1.894,1.355a.16.16,0,0,0,.185,0l1.583-1.125a8.462,8.462,0,0,0,2.669.622l.924,1.706a.159.159,0,0,0,.166.081l2.3-.381a.16.16,0,0,0,.131-.131L177.6,47.8a8.458,8.458,0,0,0,2.326-1.45l1.861.554a.158.158,0,0,0,.175-.06Z" transform="translate(-43.914 -7.94)" fill="#bdd0fb"/>
      </g>
    </g>
    <g id="Grupo_148475" data-name="Grupo 148475" transform="translate(128.022 29.62)">
      <g id="Grupo_148474" data-name="Grupo 148474" clip-path="url(#clip-path-19)">
        <rect id="Rectángulo_44659" data-name="Rectángulo 44659" width="4.912" height="4.769" transform="translate(-0.044 0)" fill="url(#linear-gradient-7)"/>
      </g>
    </g>
    <g id="Grupo_148477" data-name="Grupo 148477" transform="translate(124.43 26.033)">
      <g id="Grupo_148476" data-name="Grupo 148476" clip-path="url(#clip-path-20)">
        <rect id="Rectángulo_44660" data-name="Rectángulo 44660" width="11.991" height="12.054" transform="translate(-0.074 0)" fill="url(#linear-gradient-8)"/>
      </g>
    </g>
    <g id="Grupo_148479" data-name="Grupo 148479">
      <g id="Grupo_148478" data-name="Grupo 148478" clip-path="url(#clip-path)">
        <path id="Trazado_212353" data-name="Trazado 212353" d="M108.058,24.558l-77.016-.472a4.408,4.408,0,0,0-4.43,4.627L31.77,135.229a3.053,3.053,0,0,0,3.049,2.9h79.875a3.066,3.066,0,0,0,3.062-2.917l4.617-94.844Z" transform="translate(-7.123 -6.448)" fill="#a5c9fa"/>
        <path id="Trazado_212354" data-name="Trazado 212354" d="M140.652,40.128a4.409,4.409,0,0,1-4.24-4.753l.826-10.448L151.78,40.532Z" transform="translate(-36.515 -6.673)" fill="#7d97f4"/>
        <path id="Trazado_212355" data-name="Trazado 212355" d="M49.586,51.614c10.673.3,51.648,1.407,61.994,1.686,1.3.035,2.343.873,2.292,1.849a2.059,2.059,0,0,1-2.311,1.612L49.6,55.3a2.213,2.213,0,0,1-2.3-1.626l-.028-.226c-.123-1.021.951-1.872,2.316-1.834" transform="translate(-12.652 -13.817)" fill="#fff"/>
        <path id="Trazado_212356" data-name="Trazado 212356" d="M48.65,65.424h0a1.09,1.09,0,0,0,.846.4l42.524,1.492a.88.88,0,0,0,1-.685l.108-2.1c.021-.417-.423-.773-.981-.786l-41.363-.966c-1.842-.043-3.015,1.407-2.132,2.639" transform="translate(-12.944 -16.808)" fill="#fff"/>
        <path id="Trazado_212357" data-name="Trazado 212357" d="M48.158,77.5c10.673.3,51.648,1.407,61.994,1.686,1.3.035,2.343.873,2.292,1.849a2.059,2.059,0,0,1-2.311,1.612L48.168,81.192a2.214,2.214,0,0,1-2.3-1.626l-.028-.226c-.123-1.022.951-1.873,2.316-1.835" transform="translate(-12.27 -20.748)" fill="#fff"/>
        <path id="Trazado_212358" data-name="Trazado 212358" d="M47.222,91.315h0a1.09,1.09,0,0,0,.846.4l42.524,1.492a.88.88,0,0,0,1-.685l.108-2.1c.021-.417-.423-.773-.981-.786l-41.363-.966c-1.842-.043-3.015,1.407-2.132,2.639" transform="translate(-12.562 -23.739)" fill="#fff"/>
      </g>
    </g>
    <g id="Grupo_148481" data-name="Grupo 148481" transform="translate(39.756 78.481)">
      <g id="Grupo_148480" data-name="Grupo 148480" clip-path="url(#clip-path-22)">
        <rect id="Rectángulo_44662" data-name="Rectángulo 44662" width="52.444" height="59.369" transform="translate(-13.667 26.067) rotate(-62.363)" fill="url(#linear-gradient-9)"/>
      </g>
    </g>
    <g id="Grupo_148483" data-name="Grupo 148483" transform="translate(90.328 83.088)">
      <g id="Grupo_148482" data-name="Grupo 148482" clip-path="url(#clip-path-23)">
        <rect id="Rectángulo_44663" data-name="Rectángulo 44663" width="6.022" height="4.053" transform="translate(-0.069)" fill="url(#linear-gradient-10)"/>
      </g>
    </g>
    <g id="Grupo_148485" data-name="Grupo 148485" transform="translate(113.753 139.755)">
      <g id="Grupo_148484" data-name="Grupo 148484" clip-path="url(#clip-path-24)">
        <rect id="Rectángulo_44664" data-name="Rectángulo 44664" width="8.911" height="0.956" transform="translate(-0.074)" fill="url(#linear-gradient-11)"/>
      </g>
    </g>
    <g id="Grupo_148487" data-name="Grupo 148487" transform="translate(114.002 136.698)">
      <g id="Grupo_148486" data-name="Grupo 148486" clip-path="url(#clip-path-25)">
        <rect id="Rectángulo_44665" data-name="Rectángulo 44665" width="7.486" height="9.191" transform="translate(-1.571 2.596) rotate(-58.815)" fill="url(#linear-gradient-12)"/>
      </g>
    </g>
    <g id="Grupo_148489" data-name="Grupo 148489" transform="translate(119.284 134.52)">
      <g id="Grupo_148488" data-name="Grupo 148488" clip-path="url(#clip-path-26)">
        <rect id="Rectángulo_44666" data-name="Rectángulo 44666" width="2.489" height="3.045" transform="translate(0 0)" fill="url(#linear-gradient-13)"/>
      </g>
    </g>
    <g id="Grupo_148491" data-name="Grupo 148491" transform="translate(136.819 139.374)">
      <g id="Grupo_148490" data-name="Grupo 148490" clip-path="url(#clip-path-27)">
        <rect id="Rectángulo_44667" data-name="Rectángulo 44667" width="3.461" height="1.251" fill="url(#linear-gradient-14)"/>
      </g>
    </g>
    <g id="Grupo_148493" data-name="Grupo 148493" transform="translate(135.211 134.504)">
      <g id="Grupo_148492" data-name="Grupo 148492" clip-path="url(#clip-path-28)">
        <rect id="Rectángulo_44668" data-name="Rectángulo 44668" width="7.288" height="6.918" transform="translate(-2.153 5.073) rotate(-69.015)" fill="url(#linear-gradient-15)"/>
      </g>
    </g>
    <g id="Grupo_148495" data-name="Grupo 148495" transform="translate(134.623 132.211)">
      <g id="Grupo_148494" data-name="Grupo 148494" clip-path="url(#clip-path-29)">
        <rect id="Rectángulo_44669" data-name="Rectángulo 44669" width="3.029" height="3.537" fill="url(#linear-gradient-16)"/>
      </g>
    </g>
    <g id="Grupo_148497" data-name="Grupo 148497" transform="translate(114.208 98.363)">
      <g id="Grupo_148496" data-name="Grupo 148496" clip-path="url(#clip-path-30)">
        <rect id="Rectángulo_44670" data-name="Rectángulo 44670" width="43.013" height="34.215" transform="translate(-11.33 33.666) rotate(-71.4)" fill="url(#linear-gradient-17)"/>
      </g>
    </g>
    <g id="Grupo_148499" data-name="Grupo 148499">
      <g id="Grupo_148498" data-name="Grupo 148498" clip-path="url(#clip-path)">
        <path id="Trazado_212368" data-name="Trazado 212368" d="M161.744,100.7c1.139,5.683.73,15.855.462,20.495-.075,1.3.835,3.112,1.571,4.345a.386.386,0,0,1-.156.544,26.844,26.844,0,0,1-10.243,2.839.69.69,0,0,1-.693-.516,134.673,134.673,0,0,0-7.756-21.957c4.6-7.347,16.815-5.751,16.815-5.751" transform="translate(-38.799 -26.919)" fill="#92d625"/>
      </g>
    </g>
    <g id="Grupo_148501" data-name="Grupo 148501" transform="translate(117.608 105.231)">
      <g id="Grupo_148500" data-name="Grupo 148500" clip-path="url(#clip-path-32)">
        <rect id="Rectángulo_44672" data-name="Rectángulo 44672" width="4.901" height="5.164" transform="matrix(0.418, -0.909, 0.909, 0.418, -1.378, 2.913)" fill="url(#linear-gradient-18)"/>
      </g>
    </g>
    <g id="Grupo_148503" data-name="Grupo 148503" transform="translate(125.659 89.697)">
      <g id="Grupo_148502" data-name="Grupo 148502" clip-path="url(#clip-path-33)">
        <rect id="Rectángulo_44673" data-name="Rectángulo 44673" width="5.881" height="9.615" transform="translate(-1.489 0.253) rotate(-9.666)" fill="url(#linear-gradient-19)"/>
      </g>
    </g>
    <g id="Grupo_148505" data-name="Grupo 148505">
      <g id="Grupo_148504" data-name="Grupo 148504" clip-path="url(#clip-path)">
        <path id="Trazado_212371" data-name="Trazado 212371" d="M166.153,107.765l1.273-7.012s8.5,6.5,7.146,16.311a9.841,9.841,0,0,0-4.023-.29,13.756,13.756,0,0,0-4.4-9.009" transform="translate(-44.48 -26.972)" fill="#92d625"/>
        <path id="Trazado_212372" data-name="Trazado 212372" d="M144.475,108.684l4.913,6.049c.531,4.267-1.24,6.618-3.463,7.91a14.975,14.975,0,0,0-2.2-4.193c2.264-3.935.746-9.766.746-9.766" transform="translate(-38.477 -29.095)" fill="#92d625"/>
      </g>
    </g>
    <g id="Grupo_148507" data-name="Grupo 148507" transform="translate(98.796 89.354)">
      <g id="Grupo_148506" data-name="Grupo 148506" clip-path="url(#clip-path-35)">
        <rect id="Rectángulo_44675" data-name="Rectángulo 44675" width="10.419" height="10.155" transform="matrix(0.97, -0.245, 0.245, 0.97, -1.968, 0.497)" fill="url(#linear-gradient-20)"/>
      </g>
    </g>
    <g id="Grupo_148509" data-name="Grupo 148509" transform="translate(109.155 69.235)">
      <g id="Grupo_148508" data-name="Grupo 148508" clip-path="url(#clip-path-36)">
        <rect id="Rectángulo_44676" data-name="Rectángulo 44676" width="6.473" height="8.438" transform="translate(-0.049 0) rotate(-0.335)" fill="url(#linear-gradient-21)"/>
      </g>
    </g>
    <g id="Grupo_148511" data-name="Grupo 148511" transform="translate(105.688 65.445)">
      <g id="Grupo_148510" data-name="Grupo 148510" clip-path="url(#clip-path-37)">
        <rect id="Rectángulo_44677" data-name="Rectángulo 44677" width="8.091" height="9.082" transform="matrix(0.876, -0.483, 0.483, 0.876, -3.22, 1.768)" fill="url(#linear-gradient-22)"/>
      </g>
    </g>
    <g id="Grupo_148513" data-name="Grupo 148513" transform="translate(104.042 63.251)">
      <g id="Grupo_148512" data-name="Grupo 148512" clip-path="url(#clip-path-38)">
        <rect id="Rectángulo_44678" data-name="Rectángulo 44678" width="13.243" height="11.072" transform="matrix(0.143, -0.99, 0.99, 0.143, -1.935, 11.771)" fill="url(#linear-gradient-23)"/>
      </g>
    </g>
    <g id="Grupo_148515" data-name="Grupo 148515" transform="translate(111.184 67.906)">
      <g id="Grupo_148514" data-name="Grupo 148514" clip-path="url(#clip-path-39)">
        <rect id="Rectángulo_44679" data-name="Rectángulo 44679" width="3.758" height="3.919" transform="translate(-1.868 1.079) rotate(-36.055)" fill="url(#linear-gradient-24)"/>
      </g>
    </g>
    <g id="Grupo_148517" data-name="Grupo 148517" transform="translate(76.471 82.177)">
      <g id="Grupo_148516" data-name="Grupo 148516" clip-path="url(#clip-path-40)">
        <rect id="Rectángulo_44680" data-name="Rectángulo 44680" width="68.783" height="31.821" transform="matrix(1, -0.029, 0.029, 1, -0.854, 0.024)" fill="url(#linear-gradient-25)"/>
      </g>
    </g>
    <g id="Grupo_148519" data-name="Grupo 148519" transform="translate(59.632 108.319)">
      <g id="Grupo_148518" data-name="Grupo 148518" clip-path="url(#clip-path-41)">
        <rect id="Rectángulo_44681" data-name="Rectángulo 44681" width="5.763" height="9.48" transform="translate(-0.477 5.234) rotate(-86.751)" fill="url(#linear-gradient-26)"/>
      </g>
    </g>
    <g id="Grupo_148521" data-name="Grupo 148521" transform="translate(67.268 102.843)">
      <g id="Grupo_148520" data-name="Grupo 148520" clip-path="url(#clip-path-42)">
        <rect id="Rectángulo_44682" data-name="Rectángulo 44682" width="11.763" height="14.289" transform="translate(-1.39 9.847) rotate(-81.966)" fill="url(#linear-gradient-27)"/>
      </g>
    </g>
    <g id="Grupo_148523" data-name="Grupo 148523">
      <g id="Grupo_148522" data-name="Grupo 148522" clip-path="url(#clip-path)">
        <path id="Trazado_212381" data-name="Trazado 212381" d="M169.44,115.934a.182.182,0,0,0-.169-.317l-59.8,19.758a.182.182,0,1,0,.114.346l59.8-19.759a.183.183,0,0,0,.054-.029" transform="translate(-29.271 -30.949)" fill="#91b3fa"/>
        <path id="Trazado_212382" data-name="Trazado 212382" d="M171.326,120.655a.182.182,0,0,0-.169-.317l-59.8,19.758a.182.182,0,1,0,.114.346l59.8-19.759a.183.183,0,0,0,.054-.029" transform="translate(-29.776 -32.213)" fill="#91b3fa"/>
      </g>
    </g>
    <g id="Grupo_148525" data-name="Grupo 148525" transform="translate(120.498 97.595)">
      <g id="Grupo_148524" data-name="Grupo 148524" clip-path="url(#clip-path-44)">
        <rect id="Rectángulo_44684" data-name="Rectángulo 44684" width="6.524" height="3.159" transform="matrix(0.986, -0.168, 0.168, 0.986, -0.354, 0.06)" fill="url(#linear-gradient-28)"/>
      </g>
    </g>
    <g id="Grupo_148527" data-name="Grupo 148527" transform="translate(98.758 93.809)">
      <g id="Grupo_148526" data-name="Grupo 148526" clip-path="url(#clip-path-45)">
        <rect id="Rectángulo_44685" data-name="Rectángulo 44685" width="3.99" height="3.165" transform="translate(-0.08)" fill="url(#linear-gradient-29)"/>
      </g>
    </g>
  </g>
</svg>
