<svg id="Grupo_149973" data-name="Grupo 149973" xmlns="http://www.w3.org/2000/svg" xmlns:xlink="http://www.w3.org/1999/xlink" width="213.634" height="214.503" viewBox="0 0 213.634 214.503">
  <defs>
    <clipPath id="clip-path">
      <rect id="Rectángulo_45378" data-name="Rectángulo 45378" width="213.634" height="214.503" fill="none"/>
    </clipPath>
    <clipPath id="clip-path-3">
      <rect id="Rectángulo_45360" data-name="Rectángulo 45360" width="11.969" height="11.347" fill="none"/>
    </clipPath>
    <clipPath id="clip-path-4">
      <rect id="Rectángulo_45361" data-name="Rectángulo 45361" width="7.475" height="28.703" fill="none"/>
    </clipPath>
    <clipPath id="clip-path-5">
      <rect id="Rectángulo_45362" data-name="Rectángulo 45362" width="7.657" height="2.127" fill="none"/>
    </clipPath>
    <clipPath id="clip-path-6">
      <rect id="Rectángulo_45363" data-name="Rectángulo 45363" width="0.126" height="0.071" fill="none"/>
    </clipPath>
    <clipPath id="clip-path-7">
      <rect id="Rectángulo_45364" data-name="Rectángulo 45364" width="12.912" height="5.868" fill="none"/>
    </clipPath>
    <clipPath id="clip-path-8">
      <rect id="Rectángulo_45365" data-name="Rectángulo 45365" width="13.556" height="33.661" fill="none"/>
    </clipPath>
    <clipPath id="clip-path-9">
      <rect id="Rectángulo_45372" data-name="Rectángulo 45372" width="6.828" height="9.679" fill="none"/>
    </clipPath>
    <clipPath id="clip-path-10">
      <rect id="Rectángulo_45373" data-name="Rectángulo 45373" width="7.029" height="29.687" fill="none"/>
    </clipPath>
    <clipPath id="clip-path-11">
      <rect id="Rectángulo_45374" data-name="Rectángulo 45374" width="4.792" height="33.63" fill="none"/>
    </clipPath>
  </defs>
  <g id="Grupo_149972" data-name="Grupo 149972" clip-path="url(#clip-path)">
    <rect id="Rectángulo_45337" data-name="Rectángulo 45337" width="18.58" height="39.772" transform="translate(116.589 36.752)" fill="#f5f5f5"/>
    <rect id="Rectángulo_45338" data-name="Rectángulo 45338" width="22.831" height="38.428" transform="translate(135.941 79.303)" fill="#f5f5f5"/>
    <path id="Trazado_215597" data-name="Trazado 215597" d="M345.594,0V36.064h21.68V.782h.771V36.064h20.064V0Z" transform="translate(-184.044 0)" fill="#f5f5f5"/>
    <rect id="Rectángulo_45339" data-name="Rectángulo 45339" width="18.58" height="38.428" transform="translate(116.589 79.303)" fill="#f5f5f5"/>
    <rect id="Rectángulo_45340" data-name="Rectángulo 45340" width="20.065" height="38.428" transform="translate(184.001 79.303)" fill="#f5f5f5"/>
    <rect id="Rectángulo_45341" data-name="Rectángulo 45341" width="22.831" height="39.772" transform="translate(135.941 36.752)" fill="#f5f5f5"/>
    <rect id="Rectángulo_45342" data-name="Rectángulo 45342" width="20.065" height="39.772" transform="translate(184.001 36.752)" fill="#f5f5f5"/>
    <rect id="Rectángulo_45343" data-name="Rectángulo 45343" width="18.58" height="34.628" transform="translate(116.589 118.419)" fill="#f5f5f5"/>
    <path id="Trazado_215598" data-name="Trazado 215598" d="M249.413,0V36.064h18.58V.782h.771V36.064h22.831V0Z" transform="translate(-132.823 0)" fill="#f5f5f5"/>
    <rect id="Rectángulo_45344" data-name="Rectángulo 45344" width="22.831" height="34.628" transform="translate(135.941 118.419)" fill="#f5f5f5"/>
    <rect id="Rectángulo_45345" data-name="Rectángulo 45345" width="20.065" height="34.628" transform="translate(184.001 118.419)" fill="#f5f5f5"/>
    <rect id="Rectángulo_45346" data-name="Rectángulo 45346" width="21.679" height="39.772" transform="translate(161.55 36.752)" fill="#f5f5f5"/>
    <rect id="Rectángulo_45347" data-name="Rectángulo 45347" width="21.679" height="34.628" transform="translate(161.55 118.419)" fill="#f5f5f5"/>
    <rect id="Rectángulo_45348" data-name="Rectángulo 45348" width="21.679" height="38.428" transform="translate(161.55 79.303)" fill="#f5f5f5"/>
    <rect id="Rectángulo_45349" data-name="Rectángulo 45349" width="46.272" height="76.592" transform="translate(9.513 6.582)" fill="#e1e1e1"/>
    <rect id="Rectángulo_45350" data-name="Rectángulo 45350" width="46.272" height="76.592" transform="translate(7.974 6.582)" fill="#ececec"/>
    <rect id="Rectángulo_45351" data-name="Rectángulo 45351" width="42.331" height="73.486" transform="translate(9.945 8.135)" fill="#fafafa"/>
    <rect id="Rectángulo_45352" data-name="Rectángulo 45352" width="26.03" height="54.388" transform="translate(18.004 17.684)" fill="#ececec"/>
    <g id="Grupo_149971" data-name="Grupo 149971">
      <g id="Grupo_149970" data-name="Grupo 149970" clip-path="url(#clip-path)">
        <path id="Trazado_215599" data-name="Trazado 215599" d="M38.513,90.149c-.06-5.081,4.508-10.041,9.539-10.75,2.4-.338,4.948.138,7.19-.782,4-1.641,5.274-6.957,9.3-8.533l.184,39.311H38.513Z" transform="translate(-20.51 -37.323)" fill="#e1e1e1"/>
        <path id="Trazado_215600" data-name="Trazado 215600" d="M213.634,442.417c0,.067-47.827.122-106.812.122C47.817,442.538,0,442.484,0,442.417s47.817-.122,106.822-.122c58.985,0,106.812.054,106.812.122" transform="translate(0 -235.541)" fill="#1a2e35"/>
        <path id="Trazado_215601" data-name="Trazado 215601" d="M366.642,116.588l4.636-1.418a13.3,13.3,0,1,0-3.544-3.186l-.006,0Z" transform="translate(-194.353 -48.236)" fill="#fff"/>
        <path id="Trazado_215602" data-name="Trazado 215602" d="M366.546,116.466s.017-.093.06-.288.11-.5.194-.875l.779-3.458a.054.054,0,0,1,.065-.041.056.056,0,0,1,.021.01l.006,0-.076.076a13.266,13.266,0,0,1-2.66-6.106,13.055,13.055,0,0,1,.032-4.307,13.345,13.345,0,0,1,5.23-8.513,13.466,13.466,0,0,1,5.236-2.358,13.265,13.265,0,0,1,11.685,3.2,12.894,12.894,0,0,1,3.561,5.243,13.554,13.554,0,0,1,.788,6.013,13.32,13.32,0,0,1-1.787,5.435,13.392,13.392,0,0,1-12.161,6.582,13.25,13.25,0,0,1-6.365-1.986l.045.006-3.48,1.028-.881.257c-.2.057-.29.08-.29.08s.108-.038.309-.1l.89-.285,3.42-1.083a.055.055,0,0,1,.045.006,13.183,13.183,0,0,0,19.243-15.866,13.351,13.351,0,0,0-6.089-6.993,13.43,13.43,0,0,0-8.885-1.3,13.215,13.215,0,0,0-7.8,20.989.054.054,0,0,1-.076.076l-.006,0,.086-.03-.837,3.4c-.095.383-.168.677-.221.886s-.08.308-.08.308" transform="translate(-194.256 -48.113)" fill="#1a2e35"/>
        <path id="Trazado_215603" data-name="Trazado 215603" d="M382.231,117.641a1.18,1.18,0,1,1-1.18-1.18,1.18,1.18,0,0,1,1.18,1.18" transform="translate(-202.297 -62.021)" fill="#1a2e35"/>
        <path id="Trazado_215604" data-name="Trazado 215604" d="M392.335,117.641a1.181,1.181,0,1,1-1.181-1.18,1.18,1.18,0,0,1,1.181,1.18" transform="translate(-207.678 -62.021)" fill="#1a2e35"/>
        <path id="Trazado_215605" data-name="Trazado 215605" d="M402.594,117.052a1.18,1.18,0,1,1-1.612-.432,1.18,1.18,0,0,1,1.612.432" transform="translate(-213.226 -62.021)" fill="#1a2e35"/>
        <path id="Trazado_215606" data-name="Trazado 215606" d="M255.105,138.895l-3.567-3.283a13.3,13.3,0,1,0-.957,4.669v.007Z" transform="translate(-119.811 -64.996)" fill="#fff"/>
        <path id="Trazado_215607" data-name="Trazado 215607" d="M254.979,138.784s-.089.033-.279.094l-.853.275-3.377,1.077a.054.054,0,0,1-.068-.035.058.058,0,0,1,0-.023v-.007l.1.027a13.266,13.266,0,0,1-3.924,5.382,13.053,13.053,0,0,1-3.732,2.149,13.341,13.341,0,0,1-9.989-.208,13.473,13.473,0,0,1-4.682-3.325,13.64,13.64,0,0,1-3.436-8.473,13.781,13.781,0,0,1,.287-3.226,12.9,12.9,0,0,1,2.724-5.723,13.548,13.548,0,0,1,4.79-3.719A13.346,13.346,0,0,1,251.467,135.5l-.017-.041,2.646,2.483.668.63c.148.141.216.21.216.21s-.087-.074-.245-.215l-.7-.624-2.664-2.4a.055.055,0,0,1-.017-.042,13.183,13.183,0,0,0-23.418-8.583,13.347,13.347,0,0,0-2.955,8.788,13.422,13.422,0,0,0,3.367,8.325A13.216,13.216,0,0,0,250.4,140.15a.054.054,0,0,1,.07-.03.055.055,0,0,1,.034.058v.007l-.07-.058,3.36-1,.876-.258c.2-.058.306-.086.306-.086" transform="translate(-119.684 -64.885)" fill="#1a2e35"/>
        <path id="Trazado_215608" data-name="Trazado 215608" d="M242.262,149.118a1.18,1.18,0,1,1-1.18-1.18,1.18,1.18,0,0,1,1.18,1.18" transform="translate(-127.758 -78.783)" fill="#1a2e35"/>
        <path id="Trazado_215609" data-name="Trazado 215609" d="M252.367,149.118a1.18,1.18,0,1,1-1.18-1.18,1.18,1.18,0,0,1,1.18,1.18" transform="translate(-133.139 -78.783)" fill="#1a2e35"/>
        <path id="Trazado_215610" data-name="Trazado 215610" d="M262.625,148.528a1.18,1.18,0,1,1-1.612-.432,1.18,1.18,0,0,1,1.612.432" transform="translate(-138.686 -78.783)" fill="#1a2e35"/>
        <path id="Trazado_215611" data-name="Trazado 215611" d="M185.147,72.925l4.841-1.3a13.3,13.3,0,1,0-3.25-3.486l-.006-.005Z" transform="translate(-98.324 -25.395)" fill="#fff"/>
        <path id="Trazado_215612" data-name="Trazado 215612" d="M185.052,72.8s.028-.1.091-.3l.289-.911,1.152-3.6a.056.056,0,0,1,.07-.036.066.066,0,0,1,.021.013l.006,0-.084.071a13.252,13.252,0,0,1-2.115-6.375,13.421,13.421,0,0,1,11.8-14.138,13.631,13.631,0,0,1,6.013.7,13.388,13.388,0,0,1,2.832,1.388c.225.141.433.311.651.466a6.941,6.941,0,0,1,.635.492,12.631,12.631,0,0,1,1.171,1.117c.182.2.373.395.546.6l.49.645.244.321.212.342.422.683c.132.231.239.476.36.712a6.831,6.831,0,0,1,.332.721,12.476,12.476,0,0,1,.51,1.49,13.559,13.559,0,0,1,.286,6.056,13.134,13.134,0,0,1-2.224,5.272,13.375,13.375,0,0,1-12.694,5.553,13.258,13.258,0,0,1-6.212-2.545l.048.009-3.633.939-.919.235c-.2.052-.3.073-.3.073s.113-.035.323-.095l.93-.262,3.573-1a.055.055,0,0,1,.048.009,13.238,13.238,0,0,0,6.167,2.471,13.5,13.5,0,0,0,4.257-.15,13.262,13.262,0,0,0,8.233-5.368,12.94,12.94,0,0,0,2.176-5.187,13.347,13.347,0,0,0-.287-5.949,12.221,12.221,0,0,0-.5-1.463,6.8,6.8,0,0,0-.326-.708c-.119-.232-.224-.472-.354-.7l-.415-.67-.208-.336-.24-.316-.481-.633c-.17-.2-.358-.393-.536-.591a12.537,12.537,0,0,0-1.149-1.1,6.923,6.923,0,0,0-.624-.483c-.214-.152-.417-.319-.639-.458a13.161,13.161,0,0,0-2.78-1.364,13.417,13.417,0,0,0-5.905-.692,13.215,13.215,0,0,0-9.623,20.221.055.055,0,0,1-.016.077.057.057,0,0,1-.068-.006l-.005-.005.09-.023-1.207,3.534-.317.92c-.072.208-.114.319-.114.319" transform="translate(-98.229 -25.268)" fill="#1a2e35"/>
        <path id="Trazado_215613" data-name="Trazado 215613" d="M205.973,69.581h1.56a1.326,1.326,0,0,1,1.362-1.334,1.262,1.262,0,0,1,1.222.806,1.4,1.4,0,0,1-.111,1.264,1.693,1.693,0,0,1-1.9.647v3.519h1.543V72.422a3.013,3.013,0,0,0,2.164-2.944,2.8,2.8,0,0,0-2.922-2.812,2.677,2.677,0,0,0-2.922,2.915" transform="translate(-109.689 -35.503)" fill="#1a2e35"/>
        <rect id="Rectángulo_45353" data-name="Rectángulo 45353" width="1.566" height="1.463" transform="translate(98.417 39.705)" fill="#1a2e35"/>
        <path id="Trazado_215614" data-name="Trazado 215614" d="M71.463,127.017l-5-.327a13.3,13.3,0,1,1,2.5-4.056l0-.006Z" transform="translate(-23.069 -55.656)" fill="#fff"/>
        <path id="Trazado_215615" data-name="Trazado 215615" d="M71.345,126.89s-.063-.1-.174-.291l-.491-.84-1.876-3.23.093.006,0,.006a.055.055,0,0,1-.078.012.057.057,0,0,1-.019-.065,13.23,13.23,0,0,0-13.4-17.942,13.423,13.423,0,0,0-5.656,1.836,13.23,13.23,0,0,0-2.459,1.882c-.19.18-.356.383-.536.575a6.825,6.825,0,0,0-.517.6,12.477,12.477,0,0,0-.912,1.3c-.136.229-.283.452-.41.685l-.347.715-.173.356-.138.37-.275.739c-.083.248-.139.5-.21.755a6.683,6.683,0,0,0-.181.758,12.171,12.171,0,0,0-.206,1.533,13.346,13.346,0,0,0,.884,5.889,12.931,12.931,0,0,0,3.15,4.66,13.26,13.26,0,0,0,9.126,3.65,13.486,13.486,0,0,0,4.2-.687,13.229,13.229,0,0,0,5.563-3.632.056.056,0,0,1,.045-.018l3.7.277.964.075c.218.017.335.03.335.03s-.1,0-.311-.013l-.948-.05-3.746-.209.044-.018a13.252,13.252,0,0,1-5.593,3.714,13.606,13.606,0,0,1-4.256.718,13.428,13.428,0,0,1-9.28-3.676,13.146,13.146,0,0,1-3.214-4.735,13.562,13.562,0,0,1-.907-5.995,12.429,12.429,0,0,1,.208-1.561,6.717,6.717,0,0,1,.184-.772c.072-.256.129-.517.213-.769l.28-.752.141-.377.176-.363.354-.728c.129-.237.279-.465.417-.7a12.692,12.692,0,0,1,.929-1.325,7,7,0,0,1,.526-.607c.184-.195.353-.4.547-.585a13.415,13.415,0,0,1,2.506-1.916,13.622,13.622,0,0,1,5.76-1.862,13.4,13.4,0,0,1,14.347,11.549,13.256,13.256,0,0,1-.824,6.666l-.1-.053,0-.006a.055.055,0,0,1,.077-.013.06.06,0,0,1,.016.018l1.835,3.3.462.837c.1.187.148.277.148.277" transform="translate(-22.95 -55.529)" fill="#1a2e35"/>
        <path id="Trazado_215616" data-name="Trazado 215616" d="M79.553,131.581a1.18,1.18,0,1,0,1.18-1.18,1.18,1.18,0,0,0-1.18,1.18" transform="translate(-42.365 -69.444)" fill="#1a2e35"/>
        <path id="Trazado_215617" data-name="Trazado 215617" d="M69.449,131.581a1.18,1.18,0,1,0,1.18-1.18,1.18,1.18,0,0,0-1.18,1.18" transform="translate(-36.985 -69.444)" fill="#1a2e35"/>
        <path id="Trazado_215618" data-name="Trazado 215618" d="M59.19,130.992a1.18,1.18,0,1,0,1.612-.432,1.18,1.18,0,0,0-1.612.432" transform="translate(-31.437 -69.444)" fill="#1a2e35"/>
        <rect id="Rectángulo_45354" data-name="Rectángulo 45354" width="42.061" height="63.404" transform="translate(135.173 92.711)" fill="#375a64"/>
        <rect id="Rectángulo_45355" data-name="Rectángulo 45355" width="2.241" height="47.128" transform="translate(173.466 159.709)" fill="#375a64"/>
        <rect id="Rectángulo_45356" data-name="Rectángulo 45356" width="2.241" height="47.128" transform="translate(163.658 159.709)" fill="#375a64"/>
        <rect id="Rectángulo_45357" data-name="Rectángulo 45357" width="51.604" height="6.813" transform="translate(125.524 152.941)" fill="#375a64"/>
        <rect id="Rectángulo_45358" data-name="Rectángulo 45358" width="2.241" height="47.128" transform="translate(137.34 159.709)" fill="#375a64"/>
        <path id="Trazado_215619" data-name="Trazado 215619" d="M348.235,341.243c0,.067-5.947.122-13.28.122s-13.282-.054-13.282-.122,5.945-.122,13.282-.122,13.28.054,13.28.122" transform="translate(-171.305 -181.662)" fill="#1a2e35"/>
        <path id="Trazado_215620" data-name="Trazado 215620" d="M363.744,327.039a49.689,49.689,0,0,1-6.946,0,49.676,49.676,0,0,1,6.946,0" transform="translate(-190.01 -174.097)" fill="#1a2e35"/>
        <path id="Trazado_215621" data-name="Trazado 215621" d="M309.8,182.071l2.4-2.394,3.85,12.17,7.773-12.643,2.112.823-.953,20.106,2.362,30.689-6.389-.316-11.89-1.647.912-12.683s-1.518-17.5-1.518-17.735,1.336-16.371,1.336-16.371" transform="translate(-164.271 -95.434)" fill="#1a2e35"/>
        <rect id="Rectángulo_45359" data-name="Rectángulo 45359" width="2.241" height="47.128" transform="translate(127.265 159.709)" fill="#375a64"/>
        <path id="Trazado_215622" data-name="Trazado 215622" d="M255.232,406.183l.441,10.853s-10.884,4.094-11,6.107l21.075-.1.007-16.94Z" transform="translate(-130.3 -216.268)" fill="#375a64"/>
        <path id="Trazado_215623" data-name="Trazado 215623" d="M280.965,427.432a.861.861,0,0,1,.6.979.827.827,0,0,1-.966.6.908.908,0,0,1-.63-1.041.859.859,0,0,1,1.074-.516" transform="translate(-149.08 -227.608)" fill="#fff"/>
        <path id="Trazado_215624" data-name="Trazado 215624" d="M265.75,440.588v-1.541l-20.318.568s-.716.484-.758,1.071Z" transform="translate(-130.3 -233.811)" fill="#1a2e35"/>
        <path id="Trazado_215625" data-name="Trazado 215625" d="M267.469,429.155c0,.1.518.147,1.027.476s.78.76.874.719c.095-.021-.062-.635-.683-1.022s-1.24-.267-1.217-.172" transform="translate(-142.439 -228.492)" fill="#1a2e35"/>
        <path id="Trazado_215626" data-name="Trazado 215626" d="M262.75,431.195c-.023.1.424.272.775.706s.455.894.557.889c.1.016.165-.588-.282-1.118s-1.048-.575-1.05-.477" transform="translate(-139.925 -229.607)" fill="#1a2e35"/>
        <path id="Trazado_215627" data-name="Trazado 215627" d="M259.144,434.9c.093.022.234-.493-.033-1.056s-.749-.785-.792-.7.256.386.468.851.254.893.357.9" transform="translate(-137.562 -230.657)" fill="#1a2e35"/>
        <path id="Trazado_215628" data-name="Trazado 215628" d="M267.838,423.522c.044.093.515-.051,1.1-.014s1.036.218,1.089.129-.385-.453-1.07-.487-1.167.291-1.116.372" transform="translate(-142.633 -225.344)" fill="#1a2e35"/>
        <path id="Trazado_215629" data-name="Trazado 215629" d="M308.261,281.522s3.594,10.42,2.364,14.608c-1.469,5-6.284,6.1-8.976,6.734-2.552.6-19.471,2.648-19.471,2.648l-7.362,5.025v36.435l-13.955-.127-1.729-39.7s-.064-6.112,1.673-9.142c2.718-4.743,31.132-14.464,32.989-14.688Z" transform="translate(-138 -149.923)" fill="#f37409"/>
        <path id="Trazado_215630" data-name="Trazado 215630" d="M298.888,373.97l6.019,9.042s-7.169,9.155-6.22,10.934l17.952-11.041-8.8-14.474Z" transform="translate(-159.018 -196.206)" fill="#375a64"/>
        <path id="Trazado_215631" data-name="Trazado 215631" d="M322.279,390.622a.861.861,0,0,1,1.021.525.827.827,0,0,1-.512,1.017.907.907,0,0,1-1.078-.561.859.859,0,0,1,.649-1" transform="translate(-171.316 -208.007)" fill="#fff"/>
        <path id="Trazado_215632" data-name="Trazado 215632" d="M316.624,397.9l-.8-1.316-17.061,11.049a1.794,1.794,0,0,0-.09,1.309Z" transform="translate(-159.002 -211.195)" fill="#1a2e35"/>
        <path id="Trazado_215633" data-name="Trazado 215633" d="M311.342,399.257c.057.086.519-.144,1.124-.127.605,0,1.061.244,1.121.159.07-.067-.383-.51-1.115-.518s-1.2.417-1.129.486" transform="translate(-165.8 -212.363)" fill="#1a2e35"/>
        <path id="Trazado_215634" data-name="Trazado 215634" d="M308.342,403.7c.032.1.5.013,1.029.2.531.172.853.527.938.469.091-.037-.164-.588-.822-.808s-1.194.054-1.145.138" transform="translate(-164.204 -214.867)" fill="#1a2e35"/>
        <path id="Trazado_215635" data-name="Trazado 215635" d="M307.182,408.877c.091-.03-.057-.543-.577-.885s-1.048-.28-1.04-.185.42.2.842.483.682.631.775.586" transform="translate(-162.726 -217.134)" fill="#1a2e35"/>
        <path id="Trazado_215636" data-name="Trazado 215636" d="M308.885,393.794c.086.058.414-.311.93-.582s1-.352,1-.456-.564-.187-1.168.14-.846.855-.76.9" transform="translate(-164.486 -209.112)" fill="#1a2e35"/>
        <path id="Trazado_215637" data-name="Trazado 215637" d="M308.683,121.577a7.216,7.216,0,0,1,3.58-4.274,9.112,9.112,0,0,1,6.14-.564,19.3,19.3,0,0,1,5.719,2.558,9.458,9.458,0,0,1,2.7,2.237,13.438,13.438,0,0,1,2.6,6.665,23.713,23.713,0,0,1-1.51,7.61,3.9,3.9,0,0,1-1.705,1.453,14.743,14.743,0,0,1-3.258,4.063q-.553-1.763-1.106-3.526Z" transform="translate(-164.387 -62.02)" fill="#1a2e35"/>
        <path id="Trazado_215638" data-name="Trazado 215638" d="M326.464,145.22c.846-3.13.474-6.983.341-9.662s.459-3.834-1.558-8.319a13.773,13.773,0,0,0-6.387-6.629l-9.609,1.046c.068-.17.136-.335.207-.49l-3.433.513a2.7,2.7,0,0,0-2.745,1.415,3.784,3.784,0,0,0-.531.773,9.072,9.072,0,0,0-.749,2.87,22.543,22.543,0,0,0-.208,2.935c-.029.39-.053.73-.079,1a4.656,4.656,0,0,0,.107,1.275c.141,4.127.67,8.676.167,12.1a1.839,1.839,0,0,0,.057,1.068,1.739,1.739,0,0,0,.883.715c4.261,2.024,7.275-.4,11.487-2.529a5.5,5.5,0,0,1,2.575-.879c.971.036,1.774,2.578,2.664,2.969" transform="translate(-160.668 -64.229)" fill="#1a2e35"/>
        <path id="Trazado_215639" data-name="Trazado 215639" d="M323.981,130.874a5.838,5.838,0,0,0-4.236-5.5l-7.81-2.232c-3.389-.464-5.779,3.653-6.1,7.059a54.1,54.1,0,0,0-.26,10.623c.728,5.716,5.066,6.574,5.066,6.574s-.076,2.707-.121,4.368l3.791,18.225,7.779-19.569L324,130.943c0-.1-.013.06-.018-.07" transform="translate(-162.641 -65.56)" fill="#a26760"/>
        <path id="Trazado_215640" data-name="Trazado 215640" d="M308.44,146.859a.73.73,0,0,0,.681.758.7.7,0,0,0,.772-.635.729.729,0,0,0-.68-.757.7.7,0,0,0-.773.634" transform="translate(-164.257 -77.869)" fill="#1a2e35"/>
        <path id="Trazado_215641" data-name="Trazado 215641" d="M308.008,142.282c.087.1.653-.294,1.438-.268s1.348.437,1.436.343c.043-.041-.043-.216-.289-.406a2,2,0,0,0-1.146-.392,1.918,1.918,0,0,0-1.148.332c-.247.178-.334.347-.291.391" transform="translate(-164.022 -75.386)" fill="#1a2e35"/>
        <path id="Trazado_215642" data-name="Trazado 215642" d="M323.147,146.878a.73.73,0,0,0,.681.758A.7.7,0,0,0,324.6,147a.73.73,0,0,0-.68-.758.7.7,0,0,0-.773.635" transform="translate(-172.089 -77.879)" fill="#1a2e35"/>
        <path id="Trazado_215643" data-name="Trazado 215643" d="M323.957,142.737c.088.1.654-.294,1.438-.268s1.348.437,1.436.343c.043-.041-.043-.216-.289-.406a2,2,0,0,0-1.146-.393,1.924,1.924,0,0,0-1.148.332c-.246.178-.334.347-.291.391" transform="translate(-172.516 -75.628)" fill="#1a2e35"/>
        <path id="Trazado_215644" data-name="Trazado 215644" d="M316.083,149.163a5.233,5.233,0,0,0-1.268-.269c-.2-.027-.388-.072-.417-.21a1.016,1.016,0,0,1,.152-.59l.639-1.508a26.222,26.222,0,0,0,1.454-3.951,26.325,26.325,0,0,0-1.769,3.825c-.215.53-.42,1.035-.615,1.518a1.161,1.161,0,0,0-.128.783.5.5,0,0,0,.321.3,1.361,1.361,0,0,0,.339.058,5.12,5.12,0,0,0,1.293.042" transform="translate(-167.272 -75.958)" fill="#1a2e35"/>
        <path id="Trazado_215645" data-name="Trazado 215645" d="M324.172,171.206s-1.963,3.855-7.64,3.147l.036-1.338a14.34,14.34,0,0,0,7.6-1.809" transform="translate(-168.567 -91.175)" fill="#7b4b45"/>
        <path id="Trazado_215646" data-name="Trazado 215646" d="M323.244,138.595c.176.144.8-.345,1.645-.722.841-.394,1.617-.543,1.624-.77,0-.107-.215-.213-.578-.237A3.124,3.124,0,0,0,323.444,138c-.221.29-.28.522-.2.592" transform="translate(-172.123 -72.885)" fill="#1a2e35"/>
        <path id="Trazado_215647" data-name="Trazado 215647" d="M309.73,137.2c.028.223.589.339,1.154.661.576.3.974.713,1.178.617.094-.05.11-.248-.012-.516a1.925,1.925,0,0,0-1.879-1.03c-.291.042-.45.161-.441.267" transform="translate(-164.944 -72.917)" fill="#1a2e35"/>
        <path id="Trazado_215648" data-name="Trazado 215648" d="M309.851,122.612a2.5,2.5,0,0,1,2.25-1.354,4.862,4.862,0,0,1,2.6.84c3.332,2.055,4.939,6.835,8.228,8.956.809.522,1.894.1,2.575.776a2.416,2.416,0,0,1,.693,2.618,7.96,7.96,0,0,0,1.217-1.931,2.688,2.688,0,0,0-.03-2.22c-.275-.51-.776-.908-.9-1.474a7.633,7.633,0,0,1,.093-1.52,3.313,3.313,0,0,0-.48-1.466,14.771,14.771,0,0,0-5.275-5.876,9.627,9.627,0,0,0-4.956-1.434,7.366,7.366,0,0,0-4.8,1.75c-.769.677-1.577,1.377-1.215,2.335" transform="translate(-164.962 -63.121)" fill="#1a2e35"/>
        <path id="Trazado_215649" data-name="Trazado 215649" d="M343.094,148.181c.065-.162,3.063-1.148,3.012,2.007-.049,3.066-3.124,2.374-3.127,2.286s.115-4.293.115-4.293" transform="translate(-182.651 -78.768)" fill="#a26760"/>
        <path id="Trazado_215650" data-name="Trazado 215650" d="M345.046,152.48c.014-.009.053.038.142.081a.532.532,0,0,0,.4.016,1.322,1.322,0,0,0,.634-1.173,1.761,1.761,0,0,0-.135-.768.615.615,0,0,0-.394-.417.272.272,0,0,0-.318.14c-.043.085-.024.146-.041.151s-.065-.053-.038-.179a.343.343,0,0,1,.124-.19.4.4,0,0,1,.3-.072.751.751,0,0,1,.549.486,1.82,1.82,0,0,1,.169.858,1.387,1.387,0,0,1-.8,1.308.572.572,0,0,1-.487-.09c-.093-.078-.108-.147-.1-.152" transform="translate(-183.75 -79.917)" fill="#7b4b45"/>
        <path id="Trazado_215651" data-name="Trazado 215651" d="M327.456,133.009a1.2,1.2,0,0,1-.182-.108c-.115-.078-.293-.182-.5-.341a10.531,10.531,0,0,1-1.611-1.553,29.633,29.633,0,0,1-1.948-2.686,24.135,24.135,0,0,0-2.439-3.221,9.652,9.652,0,0,0-1.6-1.336,7.953,7.953,0,0,0-1.74-.85,8.733,8.733,0,0,0-3.235-.491,8.367,8.367,0,0,0-2.186.364c-.254.069-.443.149-.574.194a1.268,1.268,0,0,1-.2.065,1.123,1.123,0,0,1,.192-.091,5.019,5.019,0,0,1,.568-.221,7.934,7.934,0,0,1,2.2-.411,8.656,8.656,0,0,1,3.282.468,7.987,7.987,0,0,1,1.772.856A9.649,9.649,0,0,1,320.872,125a23.516,23.516,0,0,1,2.445,3.246,31.457,31.457,0,0,0,1.917,2.694,11.374,11.374,0,0,0,1.569,1.573c.2.165.377.275.487.36a1.257,1.257,0,0,1,.166.132" transform="translate(-165.748 -65.136)" fill="#375a64"/>
        <path id="Trazado_215652" data-name="Trazado 215652" d="M345.183,156.4a.6.6,0,1,1-.144.042" transform="translate(-183.555 -83.288)" fill="#fff"/>
        <path id="Trazado_215653" data-name="Trazado 215653" d="M344.976,156.417a.831.831,0,0,0-.287.4.519.519,0,0,0,.106.484.536.536,0,0,0,.951-.273.519.519,0,0,0-.167-.467.833.833,0,0,0-.458-.19c0-.007.048-.03.144-.029a.629.629,0,0,1,.378.144.612.612,0,0,1,.23.56.658.658,0,0,1-1.177.338.615.615,0,0,1-.1-.6.63.63,0,0,1,.244-.323c.082-.052.136-.059.138-.051" transform="translate(-183.492 -83.261)" fill="#1a2e35"/>
        <path id="Trazado_215654" data-name="Trazado 215654" d="M339.821,141.917a4.72,4.72,0,0,1-.371,2.456,1.626,1.626,0,0,1-2.113.774,2.317,2.317,0,0,1-.821-1.8c-.235-1.96-.312-3.936-.564-5.895Z" transform="translate(-178.909 -73.199)" fill="#1a2e35"/>
        <path id="Trazado_215655" data-name="Trazado 215655" d="M311.655,124.063c0,.018.272-.043.764-.045a5.246,5.246,0,0,1,2.017.429,6.666,6.666,0,0,1,1.252.69,13.836,13.836,0,0,1,1.282,1.038,15.77,15.77,0,0,1,2.487,2.839c.374.558.7,1.13,1.061,1.66a7.781,7.781,0,0,0,1.189,1.416,13.631,13.631,0,0,0,2.54,1.806c.772.437,1.419.746,1.866.96l.517.238a.867.867,0,0,0,.186.072.886.886,0,0,0-.171-.1l-.5-.267c-.437-.231-1.075-.557-1.835-1a14.11,14.11,0,0,1-2.492-1.817,7.731,7.731,0,0,1-1.157-1.394c-.352-.525-.68-1.1-1.058-1.662a15.444,15.444,0,0,0-2.524-2.862,13.359,13.359,0,0,0-1.307-1.038,6.623,6.623,0,0,0-1.287-.686,5.06,5.06,0,0,0-2.064-.382,3.569,3.569,0,0,0-.569.063.9.9,0,0,0-.194.049" transform="translate(-165.97 -66.008)" fill="#375a64"/>
        <path id="Trazado_215656" data-name="Trazado 215656" d="M321.754,159.524a3.436,3.436,0,0,0-.218-.855.331.331,0,0,0-.51-.253c-.644.208-1.47.59-2.114.8a1.59,1.59,0,0,0,.317,1.276,1.537,1.537,0,0,0,1.092.373,1.475,1.475,0,0,0,1.207-.507,1.153,1.153,0,0,0,.228-.833" transform="translate(-169.817 -84.34)" fill="#7b4b45"/>
        <path id="Trazado_215657" data-name="Trazado 215657" d="M319.491,160.467a2.021,2.021,0,0,0,.945.188,1.328,1.328,0,0,0,.885-.447,1.392,1.392,0,0,0,.277-1.16,1.1,1.1,0,0,0-.278-.545c-.128-.13-.293-.1-.486-.022l-1.011.414a4.278,4.278,0,0,1-.96.327,4.133,4.133,0,0,1,.891-.484l1-.465a1.036,1.036,0,0,1,.343-.09.535.535,0,0,1,.384.144,1.3,1.3,0,0,1,.356.671,1.58,1.58,0,0,1-.345,1.358,1.458,1.458,0,0,1-1.043.472,1.414,1.414,0,0,1-.745-.177c-.157-.093-.22-.173-.211-.183" transform="translate(-169.808 -84.238)" fill="#1a2e35"/>
        <path id="Trazado_215658" data-name="Trazado 215658" d="M276.064,280.162s-12.843,1.43-15.322,3.188c-2.744,1.945-3.912,6.061-3.436,9.732.308,2.374,8.315,18.514,8.315,18.514s11.908,22.99,11.346,22.67l12.5-8.443L277.483,293.5l16.179-9.733c0-.633-7.418-4.513-17.6-3.6" transform="translate(-136.971 -149.125)" fill="#f37409"/>
        <path id="Trazado_215659" data-name="Trazado 215659" d="M306.172,179.682l-3.066,3.269-6.028,2.591s1.045,22.625,1.874,26.7c.755,3.711,1.663,10.93,1.663,10.93l-3.009,7.176,6.055-.015a43.891,43.891,0,0,0,1-7.764,93.786,93.786,0,0,0-.619-10.373l-.628-18.685Z" transform="translate(-158.207 -95.688)" fill="#f37409"/>
        <g id="Grupo_149945" data-name="Grupo 149945" transform="translate(160.889 134.889)" opacity="0.3">
          <g id="Grupo_149944" data-name="Grupo 149944">
            <g id="Grupo_149943" data-name="Grupo 149943" clip-path="url(#clip-path-3)">
              <path id="Trazado_215660" data-name="Trazado 215660" d="M344.179,288.559s.217,8.631,4.01,10.136a19.27,19.27,0,0,0,7.727,1.182l.232-1.826-8.729-4.425Z" transform="translate(-344.179 -288.559)"/>
            </g>
          </g>
        </g>
        <path id="Trazado_215661" data-name="Trazado 215661" d="M350.991,215.257c.071-2.474,1.927-12.992,1.911-21.473a37.231,37.231,0,0,0-1.889-11.4c-1.463-.6-9.385-3.429-9.385-3.429l-2.05-1.444a8.474,8.474,0,0,0-.155,1.553c.294,2.649.632,8.221.59,9.121-.03.659-2.12,10.561-2.12,16.343,0,2.427,0,8.416.575,13.851.019,7.11,4.819,17.067,7.27,19.441s11.271,1.736,11.271,1.736c3.467-1.88-6.076-22.266-6.017-24.3" transform="translate(-179.942 -94.534)" fill="#f37409"/>
        <path id="Trazado_215662" data-name="Trazado 215662" d="M357.64,187.733s3.3.431,5.651,6.432c1.41,3.6,7.483,20.827,7.476,26.059,0,2.251-4.109,6.225-4.109,6.225H352.611l-1.5-6.6,8.97-4.032-2.8-9.023Z" transform="translate(-186.981 -99.976)" fill="#f37409"/>
        <path id="Trazado_215663" data-name="Trazado 215663" d="M333.52,255.144s-4.433-3.291-5.019-3.1-5.366,2.829-5.366,2.829l-.39,4a2.343,2.343,0,0,0,1.024,0l.244-.147a1.34,1.34,0,0,0,1.22,1.171s.781,1.361,1.8.778c0,0,.03.832.747.88a2.564,2.564,0,0,0,1.351-.341l.488-.539,1.269-.437s.934,1.561,2.271,1.561,4.531-1.82,4.531-1.82l-1.38-5.24Z" transform="translate(-171.876 -134.222)" fill="#a26760"/>
        <path id="Trazado_215664" data-name="Trazado 215664" d="M335.455,263.856c.014.032-.218.157-.593.345a8.484,8.484,0,0,0-1.387.829,3.5,3.5,0,0,0-1.009,1.212c-.177.368-.211.629-.251.624a1.1,1.1,0,0,1,.092-.691,3.08,3.08,0,0,1,1.018-1.337,5.776,5.776,0,0,1,1.467-.794,1.853,1.853,0,0,1,.662-.188" transform="translate(-176.908 -140.511)" fill="#7b4b45"/>
        <path id="Trazado_215665" data-name="Trazado 215665" d="M328.586,264.617a2.888,2.888,0,0,1-.015-.913,4.433,4.433,0,0,1,.625-2.127,3.425,3.425,0,0,1,1.817-1.268,2.81,2.81,0,0,1,.888-.212,4.318,4.318,0,0,1-.826.373,3.63,3.63,0,0,0-1.676,1.242,4.969,4.969,0,0,0-.657,2.011,4.126,4.126,0,0,1-.156.894" transform="translate(-174.968 -138.51)" fill="#7b4b45"/>
        <path id="Trazado_215666" data-name="Trazado 215666" d="M329.534,255.982a2.247,2.247,0,0,1-.9.531c-.3.124-.66.244-1.042.406a3.068,3.068,0,0,0-1.1.718,3.942,3.942,0,0,0-.844,2.226,5.766,5.766,0,0,1-.126,1.025,3.553,3.553,0,0,1-.045-1.039,3.768,3.768,0,0,1,.835-2.376,3.108,3.108,0,0,1,1.191-.762c.4-.156.766-.258,1.066-.36.6-.194.936-.4.958-.369" transform="translate(-173.331 -136.32)" fill="#7b4b45"/>
        <path id="Trazado_215667" data-name="Trazado 215667" d="M314.715,285.348a4.153,4.153,0,0,1-.672.265c-.436.158-1.068.385-1.838.69-1.545.6-3.648,1.508-5.911,2.637a62.786,62.786,0,0,0-5.639,3.173c-.7.442-1.254.822-1.634,1.086a4.031,4.031,0,0,1-.605.394,4.137,4.137,0,0,1,.549-.47c.364-.288.9-.692,1.6-1.154a50.725,50.725,0,0,1,5.625-3.247,56.65,56.65,0,0,1,5.959-2.58c.781-.286,1.423-.488,1.869-.618a4.093,4.093,0,0,1,.7-.175" transform="translate(-158.919 -151.959)" fill="#1a2e35"/>
        <path id="Trazado_215668" data-name="Trazado 215668" d="M276.179,295.387s.031.063.081.189l.221.563c.193.507.472,1.239.831,2.182l3.05,8.119c2.575,6.916,6.168,16.562,10.25,27.523l.033.088-.078.053-6.947,4.692-5.557,3.751-.113.076-.062-.121c-5.553-10.778-10.256-20.411-13.561-27.351-1.652-3.471-2.958-6.267-3.844-8.2l-1.013-2.222-.256-.578c-.057-.13-.08-.2-.08-.2s.037.063.1.19l.277.569,1.049,2.2,3.911,8.166c3.343,6.921,8.072,16.539,13.631,27.31l-.175-.044,5.556-3.753,6.949-4.69-.045.141-10.174-27.551-2.982-8.144-.792-2.2c-.085-.245-.152-.433-.2-.571s-.06-.2-.06-.2" transform="translate(-138 -157.306)" fill="#1a2e35"/>
        <path id="Trazado_215669" data-name="Trazado 215669" d="M358.153,212.957c.064-.022,1.386,3.608,2.953,8.107s2.787,8.166,2.723,8.188-1.386-3.607-2.953-8.108-2.787-8.166-2.723-8.187" transform="translate(-190.731 -113.409)" fill="#1a2e35"/>
        <path id="Trazado_215670" data-name="Trazado 215670" d="M362.683,189.818c0,.042-.346.075-.878.237a5.55,5.55,0,0,0-3.254,2.679c-.261.491-.361.827-.4.816a2.132,2.132,0,0,1,.247-.892,4.975,4.975,0,0,1,3.364-2.77,2.136,2.136,0,0,1,.923-.071" transform="translate(-190.726 -101.075)" fill="#1a2e35"/>
        <path id="Trazado_215671" data-name="Trazado 215671" d="M352.8,257.4a2.646,2.646,0,0,1-.167-.467l-.406-1.332-1.371-4.716-.026-.088.084-.04c1.405-.675,2.995-1.471,4.7-2.258a46.52,46.52,0,0,1,4.336-1.778,13.463,13.463,0,0,1,3.736-.859,4.522,4.522,0,0,1,2.508.592,2.972,2.972,0,0,1,.558.433.8.8,0,0,1,.158.188,5.934,5.934,0,0,0-.764-.539,4.584,4.584,0,0,0-2.454-.5,13.826,13.826,0,0,0-3.67.9c-1.351.475-2.8,1.094-4.308,1.788-1.7.785-3.3,1.573-4.71,2.235l.058-.129,1.287,4.74q.213.83.347,1.348a2.654,2.654,0,0,1,.1.486" transform="translate(-186.832 -130.931)" fill="#1a2e35"/>
        <path id="Trazado_215672" data-name="Trazado 215672" d="M307.949,216.52a1.711,1.711,0,0,1-.118-.314l-.291-.914c-.246-.8-.587-1.953-.977-3.392a105.956,105.956,0,0,1-2.42-11.39,3.939,3.939,0,0,1,.547-2.42A8.54,8.54,0,0,1,306.1,196.2l.069.2-1.924-.215-.129-.014.033-.123,1.814-6.795c.224-.808.4-1.457.535-1.931l.151-.51a.092.092,0,1,1,.035.009l-.117.518c-.116.477-.276,1.131-.474,1.946l-1.729,6.816-.1-.137,1.925.2.237.025-.168.174A8.378,8.378,0,0,0,304.9,198.2a3.718,3.718,0,0,0-.518,2.268c.694,4.488,1.606,8.5,2.345,11.384.368,1.442.683,2.605.9,3.409l.247.927a1.728,1.728,0,0,1,.071.328" transform="translate(-161.954 -99.395)" fill="#1a2e35"/>
        <path id="Trazado_215673" data-name="Trazado 215673" d="M337.893,212.959a2.225,2.225,0,0,1,.222-.3l.67-.837c.271-.378.567-.866.932-1.416l.5-.933.272-.51.251-.555a44.865,44.865,0,0,0,3.316-12.538c.107-.822.2-1.636.265-2.429l.08.122-2.682-.954-.251-.09.236-.123,1.817-.953-.058.118c-.552-3.207-1.021-5.935-1.357-7.89l-.369-2.255c-.036-.246-.066-.444-.089-.6a.866.866,0,0,1-.018-.209.936.936,0,0,1,.054.2c.032.154.073.351.123.595.1.545.25,1.3.431,2.244l1.445,7.874.014.08-.072.038-1.812.962-.015-.213,2.685.947.087.03-.007.092c-.06.8-.157,1.617-.264,2.444a43.237,43.237,0,0,1-3.4,12.58l-.26.555-.282.51-.519.931c-.379.548-.689,1.031-.973,1.4l-.71.813a2.125,2.125,0,0,1-.259.272" transform="translate(-179.942 -96.178)" fill="#1a2e35"/>
        <path id="Trazado_215674" data-name="Trazado 215674" d="M358.274,294.406a.91.91,0,0,1-.249.032c-.163.011-.4.022-.715.029-.622.013-1.522.011-2.633-.051a30.507,30.507,0,0,1-3.882-.458c-.362-.07-.732-.148-1.107-.24a5.506,5.506,0,0,1-1.14-.367,5.923,5.923,0,0,1-1.9-1.636,20.235,20.235,0,0,1-2.446-4.123c-.62-1.336-1.094-2.574-1.469-3.621s-.64-1.906-.813-2.5c-.086-.3-.149-.532-.188-.691a.919.919,0,0,1-.046-.246,1.032,1.032,0,0,1,.094.232l.231.676c.2.587.492,1.436.884,2.473s.883,2.262,1.51,3.584a20.742,20.742,0,0,0,2.431,4.064,5.755,5.755,0,0,0,1.813,1.576,5.358,5.358,0,0,0,1.091.356c.37.094.736.173,1.094.245a33.264,33.264,0,0,0,3.851.506c1.1.084,2,.112,2.621.128l.714.016a1.009,1.009,0,0,1,.25.017" transform="translate(-181.963 -149.395)" fill="#1a2e35"/>
        <path id="Trazado_215675" data-name="Trazado 215675" d="M281.236,281.313a4.677,4.677,0,0,1,.745-.189c.482-.114,1.186-.242,2.058-.393a46.709,46.709,0,0,1,6.886-.583,55.823,55.823,0,0,1,6.9.376c.879.1,1.587.194,2.076.266a4.608,4.608,0,0,1,.756.139,4.681,4.681,0,0,1-.767-.044l-2.083-.189a68.727,68.727,0,0,0-6.881-.3,55.112,55.112,0,0,0-6.863.51c-.872.129-1.579.231-2.066.316a4.665,4.665,0,0,1-.762.1" transform="translate(-149.77 -149.189)" fill="#1a2e35"/>
        <g id="Grupo_149948" data-name="Grupo 149948" transform="translate(158.321 87.757)" opacity="0.3">
          <g id="Grupo_149947" data-name="Grupo 149947">
            <g id="Grupo_149946" data-name="Grupo 149946" clip-path="url(#clip-path-4)">
              <path id="Trazado_215676" data-name="Trazado 215676" d="M338.685,216.436s1.437-.238,3.346-2.857c2.179-2.991,4.129-16.429,4.129-16.429l-1.972-.769,1.217-1.039-2.417-7.609,1.006,7.6-1.815.957,2.684.95s-1.177,7.81-2.105,11.046c-.975,3.4-1.646,4.351-4.073,8.148" transform="translate(-338.685 -187.733)"/>
            </g>
          </g>
        </g>
        <g id="Grupo_149951" data-name="Grupo 149951" transform="translate(173.099 113.842)" opacity="0.3">
          <g id="Grupo_149950" data-name="Grupo 149950">
            <g id="Grupo_149949" data-name="Grupo 149949" clip-path="url(#clip-path-5)">
              <path id="Trazado_215677" data-name="Trazado 215677" d="M377.907,244.865a1.955,1.955,0,0,0-1.107-1.08,3.934,3.934,0,0,0-1.56-.249,7.887,7.887,0,0,0-4.94,2.075l.131.053a6.821,6.821,0,0,1,6.727-.168.715.715,0,0,0,.488.161c.31-.061.369-.494.26-.791" transform="translate(-370.3 -243.535)"/>
            </g>
          </g>
        </g>
        <g id="Grupo_149954" data-name="Grupo 149954" transform="translate(139.461 141.467)" opacity="0.3">
          <g id="Grupo_149953" data-name="Grupo 149953">
            <g id="Grupo_149952" data-name="Grupo 149952" clip-path="url(#clip-path-6)">
              <path id="Trazado_215678" data-name="Trazado 215678" d="M298.34,302.7l.126-.03-.02-.041-.106.071" transform="translate(-298.34 -302.631)"/>
            </g>
          </g>
        </g>
        <g id="Grupo_149957" data-name="Grupo 149957" transform="translate(137.594 135.599)" opacity="0.3">
          <g id="Grupo_149956" data-name="Grupo 149956">
            <g id="Grupo_149955" data-name="Grupo 149955" clip-path="url(#clip-path-7)">
              <path id="Trazado_215679" data-name="Trazado 215679" d="M296.541,293.71c-.763-.69-1.432-2.062-2.2-2.753a28.139,28.139,0,0,0,1.974,4.99c3.369-2.225,6.812-4.933,10.939-5.839-3.75-.288-7.537,1.593-10.717,3.6" transform="translate(-294.345 -290.079)"/>
            </g>
          </g>
        </g>
        <g id="Grupo_149960" data-name="Grupo 149960" transform="translate(122.863 150.356)" opacity="0.3">
          <g id="Grupo_149959" data-name="Grupo 149959">
            <g id="Grupo_149958" data-name="Grupo 149958" clip-path="url(#clip-path-8)">
              <path id="Trazado_215680" data-name="Trazado 215680" d="M262.832,321.646l13.556,33.661v-6.142Z" transform="translate(-262.832 -321.646)"/>
            </g>
          </g>
        </g>
        <path id="Trazado_215681" data-name="Trazado 215681" d="M285.57,191.1s-4.805,1.422-5.733,5.222c-1.024,4.2-2.153,9.934-3.364,13.568s-.269,3.9-.942,5.383-3.5,5.933-1.345,9.224,4.306,5.175,8.343,3.56a18.036,18.036,0,0,0,6.287-4.136Z" transform="translate(-145.592 -101.771)" fill="#f37409"/>
        <path id="Trazado_215682" data-name="Trazado 215682" d="M295.72,211.232c.039.007-.07.7-.139,1.832a33.082,33.082,0,0,0,.037,4.421,36.963,36.963,0,0,0,.583,4.386c.218,1.112.4,1.792.359,1.8a1.94,1.94,0,0,1-.175-.464c-.1-.3-.221-.748-.352-1.3a28.468,28.468,0,0,1-.658-4.4,26.108,26.108,0,0,1,.034-4.453c.055-.568.128-1.025.188-1.337a1.953,1.953,0,0,1,.122-.481" transform="translate(-157.258 -112.49)" fill="#1a2e35"/>
        <path id="Trazado_215683" data-name="Trazado 215683" d="M289.206,238.312c-.01.041-.576-.108-1.505-.2a11.757,11.757,0,0,0-7.014,1.5c-.81.466-1.264.833-1.291.8-.01-.013.1-.113.3-.285a7.661,7.661,0,0,1,.909-.657,10.712,10.712,0,0,1,7.117-1.523,7.611,7.611,0,0,1,1.1.227,1.437,1.437,0,0,1,.388.138" transform="translate(-148.79 -126.664)" fill="#1a2e35"/>
        <path id="Trazado_215684" data-name="Trazado 215684" d="M292.655,260.9a2.291,2.291,0,0,1-.36.406c-.243.249-.6.6-1.057,1.029a15.512,15.512,0,0,1-3.985,2.808,7.753,7.753,0,0,1-4.81.606,5.075,5.075,0,0,1-1.392-.523,1.846,1.846,0,0,1-.449-.309,8.147,8.147,0,0,0,1.875.663,7.953,7.953,0,0,0,4.674-.659,17.144,17.144,0,0,0,3.971-2.715l1.107-.97a2.356,2.356,0,0,1,.425-.337" transform="translate(-149.433 -138.937)" fill="#1a2e35"/>
        <path id="Trazado_215685" data-name="Trazado 215685" d="M296.45,230.775a25.605,25.605,0,0,0,2.4,1.586,5.365,5.365,0,0,1,2.32,2.823,9.166,9.166,0,0,0,1.586,2.591,13.919,13.919,0,0,1,.271,3.79c-.038.618,1.857,2.088,1.973,2.359s.271.928-.232,1.083a1.371,1.371,0,0,1-1.315-.194c-.271-.271-1.392-1.237-1.392-1.237s.116,1.2-.271,1.276a4.019,4.019,0,0,1-1.005,0l-1.431-2.127s-.348,1.508-.967,1.354-1.006-.309-1.083-1.237a9.1,9.1,0,0,0-.5-2.05v-.774s-.812,1.006-1.431.851-.889-.464-.928-.7a12.684,12.684,0,0,1,.387-2.436,17.135,17.135,0,0,1,.774-1.934,4.794,4.794,0,0,0-.039-2.359c-.387-.658-2.552-2.514-2.823-3.133s-.658-1.547.271-1.9,2.106,1.422,3.442,2.359" transform="translate(-155.727 -121.618)" fill="#a26760"/>
        <path id="Trazado_215686" data-name="Trazado 215686" d="M306.977,244.773c.015.022-.129.161-.414.31a3.1,3.1,0,0,1-2.443.145c-.3-.115-.46-.236-.447-.26a4.556,4.556,0,0,0,3.3-.2" transform="translate(-161.719 -130.349)" fill="#7b4b45"/>
        <path id="Trazado_215687" data-name="Trazado 215687" d="M311.909,259.024c-.049.035-.36-.337-.562-.892a1.719,1.719,0,0,1-.15-1.044,85.5,85.5,0,0,1,.713,1.936" transform="translate(-165.708 -136.91)" fill="#7b4b45"/>
        <path id="Trazado_215688" data-name="Trazado 215688" d="M306.806,256.95a2.507,2.507,0,0,1-.387-1.988,40.489,40.489,0,0,1,.387,1.988" transform="translate(-163.141 -135.778)" fill="#7b4b45"/>
        <rect id="Rectángulo_45366" data-name="Rectángulo 45366" width="42.061" height="63.404" transform="translate(45.991 99.109)" fill="#375a64"/>
        <rect id="Rectángulo_45367" data-name="Rectángulo 45367" width="2.241" height="47.128" transform="translate(91.302 159.709)" fill="#375a64"/>
        <rect id="Rectángulo_45368" data-name="Rectángulo 45368" width="2.241" height="47.128" transform="translate(81.494 159.709)" fill="#375a64"/>
        <rect id="Rectángulo_45369" data-name="Rectángulo 45369" width="50.948" height="6.813" transform="translate(45.846 155.701)" fill="#375a64"/>
        <rect id="Rectángulo_45370" data-name="Rectángulo 45370" width="2.241" height="47.128" transform="translate(61.689 159.709)" fill="#375a64"/>
        <rect id="Rectángulo_45371" data-name="Rectángulo 45371" width="2.241" height="47.128" transform="translate(49.299 159.709)" fill="#375a64"/>
        <path id="Trazado_215689" data-name="Trazado 215689" d="M154.469,120.274c-.905-.963-2-1.872-2.321-3.153-.294-1.18.118-2.533-.51-3.574-.773-1.28-2.691-1.38-3.619-2.553-.449-.568-.609-1.322-1.053-1.894a3.6,3.6,0,0,0-3.381-1.015c-1.221.175-2.387.658-3.614.788-1.683.179-3.444-.309-5.048.234-1.769.6-2.806,2.22-3.914,3.794l-1.453,1.831a6.655,6.655,0,0,1-.981.855,12.022,12.022,0,0,0-1.873,1.293,2.988,2.988,0,0,0,.351,4.3,3.2,3.2,0,0,0-2.04,3.211,9.194,9.194,0,0,0,.657,2.147,3.194,3.194,0,0,1,.14,2.2,1.4,1.4,0,0,1-1.8.857,3.366,3.366,0,0,0,1.913,2.173,2.009,2.009,0,0,1-1.33.649c1.486,3.165,5.272,4.719,8.766,4.608s6.79-1.559,9.983-2.983l9.316-2.794c.819-.22,1.125-1.237,1.082-2.083a6.773,6.773,0,0,1-.018-2.524c.374-1.1,1.615-1.724,2.009-2.817.448-1.243-.354-2.581-1.26-3.545" transform="translate(-66.039 -57.531)" fill="#e1e1e1"/>
        <path id="Trazado_215690" data-name="Trazado 215690" d="M149.83,113.318l-.518-.01c-5.6.212-8.545,5.085-8.178,10.675l.224,19.281a6.558,6.558,0,0,0,13.114.087c.025-1.013.046-1.723.05-1.723s5.393-.726,5.569-6.1c.085-2.6-.175-7.955-.466-12.8a10.015,10.015,0,0,0-9.794-9.41" transform="translate(-75.143 -60.341)" fill="#ffc19d"/>
        <path id="Trazado_215691" data-name="Trazado 215691" d="M161.884,171.374a12.986,12.986,0,0,1-6.955-2.212s1.626,3.943,7,3.569Z" transform="translate(-82.506 -90.086)" fill="#ff9c6a"/>
        <path id="Trazado_215692" data-name="Trazado 215692" d="M175.731,142.767a.768.768,0,0,1-.756.759.734.734,0,0,1-.777-.708.768.768,0,0,1,.755-.76.735.735,0,0,1,.778.709" transform="translate(-92.768 -75.652)" fill="#1a2e35"/>
        <path id="Trazado_215693" data-name="Trazado 215693" d="M175.072,136.218c-.038.133-.753.021-1.484.406s-1.076,1.031-1.2.983c-.06-.02-.058-.224.087-.517a2.108,2.108,0,0,1,.905-.9,2.024,2.024,0,0,1,1.239-.212c.316.055.476.175.455.237" transform="translate(-91.783 -72.403)" fill="#1a2e35"/>
        <path id="Trazado_215694" data-name="Trazado 215694" d="M159.575,143.221a.767.767,0,0,1-.756.759.734.734,0,0,1-.777-.708.768.768,0,0,1,.755-.76.735.735,0,0,1,.777.709" transform="translate(-84.164 -75.894)" fill="#1a2e35"/>
        <path id="Trazado_215695" data-name="Trazado 215695" d="M157.393,137.589c-.1.1-.671-.344-1.5-.359s-1.439.386-1.527.283c-.043-.046.057-.224.325-.411a2.106,2.106,0,0,1,1.225-.351,2.027,2.027,0,0,1,1.188.41c.249.2.332.383.285.427" transform="translate(-82.204 -72.826)" fill="#1a2e35"/>
        <path id="Trazado_215696" data-name="Trazado 215696" d="M166.627,144.4a5.453,5.453,0,0,1,1.346-.215c.211-.017.412-.055.45-.2a1.072,1.072,0,0,0-.128-.628l-.591-1.619a27.7,27.7,0,0,1-1.315-4.229,27.588,27.588,0,0,1,1.652,4.113c.2.568.386,1.11.564,1.628a1.217,1.217,0,0,1,.093.83.529.529,0,0,1-.353.3,1.419,1.419,0,0,1-.359.042,5.394,5.394,0,0,1-1.36-.026" transform="translate(-88.604 -73.231)" fill="#1a2e35"/>
        <path id="Trazado_215697" data-name="Trazado 215697" d="M158.354,132.245c-.18.157-.85-.335-1.755-.7-.9-.385-1.718-.516-1.733-.754,0-.112.218-.231.6-.268a3.288,3.288,0,0,1,2.657,1.109c.242.3.313.539.231.615" transform="translate(-82.473 -69.502)" fill="#e1e1e1"/>
        <path id="Trazado_215698" data-name="Trazado 215698" d="M172.689,131.313c-.035.235-.626.344-1.227.671-.612.306-1.04.729-1.252.624-.1-.055-.11-.263.023-.542a2.024,2.024,0,0,1,2-1.043c.305.05.469.179.458.29" transform="translate(-90.604 -69.765)" fill="#e1e1e1"/>
        <path id="Trazado_215699" data-name="Trazado 215699" d="M137.8,144.457c-.091-.042-3.67-1.168-3.628,2.509s3.725,2.876,3.73,2.771-.1-5.279-.1-5.279" transform="translate(-71.452 -76.826)" fill="#ffc19d"/>
        <path id="Trazado_215700" data-name="Trazado 215700" d="M137.826,149.715c-.016-.012-.064.045-.171.1a.64.64,0,0,1-.479.015,1.583,1.583,0,0,1-.75-1.414,2.118,2.118,0,0,1,.169-.919.742.742,0,0,1,.476-.5.327.327,0,0,1,.38.172c.05.1.028.176.047.182s.078-.063.047-.214a.406.406,0,0,0-.147-.229.486.486,0,0,0-.355-.09.9.9,0,0,0-.662.578,2.173,2.173,0,0,0-.21,1.027,1.664,1.664,0,0,0,.953,1.577.687.687,0,0,0,.585-.1c.113-.092.131-.174.118-.181" transform="translate(-72.515 -78.185)" fill="#ff9c6a"/>
        <path id="Trazado_215701" data-name="Trazado 215701" d="M155.45,115.964c.588-.34-1.236-2.23-2.712-2.864-2.23-.957-5.617-1.506-7.643-.887a8.858,8.858,0,0,0-5.638,4.265,14.463,14.463,0,0,0-1.472,7.416,4.391,4.391,0,0,0,.563,2.235c.53.8,1.526,1.294,1.505,2.416a1.539,1.539,0,0,0,.4,1.114c.687.7,1.5.013,1.861-.669a10.65,10.65,0,0,0,.871-4.828,10.754,10.754,0,0,0-.3-3.491c-.192-.609-.493-1.182-.651-1.8a2.211,2.211,0,0,1,.223-1.841,2.342,2.342,0,0,1,.293-.308,3.834,3.834,0,0,1,3.789-.8c2.085.69,5.642,1.712,6.551.991a5.665,5.665,0,0,0,1.612-1.7Z" transform="translate(-73.472 -59.618)" fill="#e1e1e1"/>
        <path id="Trazado_215702" data-name="Trazado 215702" d="M147.792,110.846a8.078,8.078,0,0,1,6.217.214,4.2,4.2,0,0,1,2.266,2.4,2.409,2.409,0,0,1-1.148,2.879l-.071.047a5.6,5.6,0,0,1-4.156-.139c-1.325-.429-2.512-1.217-3.839-1.639a7.468,7.468,0,0,0-4.375-.038,12.2,12.2,0,0,1,5.106-3.72" transform="translate(-75.986 -58.755)" fill="#e1e1e1"/>
        <path id="Trazado_215703" data-name="Trazado 215703" d="M164.2,157.639a.206.206,0,0,0,.291-.166,1.837,1.837,0,0,0,.175-1.133,1.154,1.154,0,0,0-.546-.687,1.633,1.633,0,0,0-.866-.2,1.436,1.436,0,0,0-.5.1c-.159.065-.527.21-.756.952l-.159.506c.637.157,1.728.472,2.365.629" transform="translate(-86.184 -82.785)" fill="#ff9c6a"/>
        <path id="Trazado_215704" data-name="Trazado 215704" d="M162.512,155.612a1.106,1.106,0,0,1,.907-.361,1.466,1.466,0,0,1,1.02.389,1.59,1.59,0,0,1,.509,1.237.778.778,0,0,1-.344.666.89.89,0,0,1-.689.012c-.381-.123-.71-.239-.992-.339a3.794,3.794,0,0,1-.892-.372,3.846,3.846,0,0,1,.944.208l1,.287a.7.7,0,0,0,.511,0,.557.557,0,0,0,.218-.472,1.406,1.406,0,0,0-.421-1.061,1.339,1.339,0,0,0-.87-.38,2.283,2.283,0,0,0-.9.189" transform="translate(-86.288 -82.678)" fill="#1a2e35"/>
        <path id="Trazado_215705" data-name="Trazado 215705" d="M141.378,398.531l5.6,13.462,1.36,11.924a1.494,1.494,0,0,0,2.837.465c1.3-2.8,5.919-12.993,5.591-13.841-.424-1.1-5-14.818-5-14.818Z" transform="translate(-75.29 -210.739)" fill="#375a64"/>
        <path id="Trazado_215706" data-name="Trazado 215706" d="M160.022,440.3l6.129-16.258.382,1.014a1.794,1.794,0,0,1,.157,1.356,125.441,125.441,0,0,1-5.35,13.208c-.208.453-.825.6-1.318.679" transform="translate(-85.219 -225.82)" fill="#1a2e35"/>
        <path id="Trazado_215707" data-name="Trazado 215707" d="M163.692,417.515a.9.9,0,0,0,.2,1.19.869.869,0,0,0,1.181-.186.954.954,0,0,0-.216-1.259.9.9,0,0,0-1.207.33" transform="translate(-87.098 -222.153)" fill="#fff"/>
        <path id="Trazado_215708" data-name="Trazado 215708" d="M157.975,442.485a3.223,3.223,0,0,0-3.283-.283c-.025-.028.106-.2.406-.37a2.38,2.38,0,0,1,2.54.218c.267.217.367.41.338.434" transform="translate(-82.378 -235.152)" fill="#1a2e35"/>
        <path id="Trazado_215709" data-name="Trazado 215709" d="M157.941,447.726a12.252,12.252,0,0,0-1.431-.115,12.257,12.257,0,0,0-1.393.345,2.1,2.1,0,0,1,2.824-.23" transform="translate(-82.603 -238.197)" fill="#1a2e35"/>
        <path id="Trazado_215710" data-name="Trazado 215710" d="M158.62,436.306a14.908,14.908,0,0,0-2.2-.328,14.9,14.9,0,0,0-2.2.316,4.085,4.085,0,0,1,4.395.012" transform="translate(-82.131 -232.007)" fill="#1a2e35"/>
        <path id="Trazado_215711" data-name="Trazado 215711" d="M156.609,427.86c0,.1-.877.074-1.867.42s-1.674.881-1.735.808a3.708,3.708,0,0,1,3.6-1.228" transform="translate(-81.48 -227.795)" fill="#1a2e35"/>
        <path id="Trazado_215712" data-name="Trazado 215712" d="M153.327,419.242a4.745,4.745,0,0,0-3.581,1.539c-.033-.02.049-.248.292-.551a3.254,3.254,0,0,1,2.689-1.156c.387.032.609.13.6.168" transform="translate(-79.742 -223.17)" fill="#1a2e35"/>
        <path id="Trazado_215713" data-name="Trazado 215713" d="M149.421,414.966a1.254,1.254,0,0,1-.219-.507,3.831,3.831,0,0,1-.116-1.5,1.7,1.7,0,0,1,.385-1.02.6.6,0,0,1,.679-.121.977.977,0,0,1,.453.53,2.111,2.111,0,0,1-1.015,2.492,2.449,2.449,0,0,1-2.707-.32.851.851,0,0,1-.294-.644.589.589,0,0,1,.461-.514,2.083,2.083,0,0,1,1.076.116,4.279,4.279,0,0,1,1.338.694c.281.219.4.375.392.388a6.811,6.811,0,0,0-1.793-.865,1.947,1.947,0,0,0-.941-.079.314.314,0,0,0-.253.279.583.583,0,0,0,.218.412,2.187,2.187,0,0,0,2.35.251,1.833,1.833,0,0,0,.892-2.1.707.707,0,0,0-.3-.383.325.325,0,0,0-.376.061,1.535,1.535,0,0,0-.341.858,5.649,5.649,0,0,0,.11,1.98" transform="translate(-78.064 -219.278)" fill="#1a2e35"/>
        <path id="Trazado_215714" data-name="Trazado 215714" d="M208.167,399.447l-3.069,11.38s10.537,6.942,10.175,9.1l-22.28-5.158,4.054-17.928Z" transform="translate(-102.777 -211.335)" fill="#375a64"/>
        <path id="Trazado_215715" data-name="Trazado 215715" d="M203.638,421.273a.933.933,0,0,0-.869.892.9.9,0,0,0,.877.87.985.985,0,0,0,.916-.95.931.931,0,0,0-1.013-.8" transform="translate(-107.983 -224.341)" fill="#fff"/>
        <path id="Trazado_215716" data-name="Trazado 215716" d="M192.993,433.336l.369-1.631,21.366,5.473a1.944,1.944,0,0,1,.545,1.315Z" transform="translate(-102.777 -229.901)" fill="#1a2e35"/>
        <path id="Trazado_215717" data-name="Trazado 215717" d="M217.08,426.446c-.029.108-.584.031-1.2.257-.622.21-1.007.617-1.1.551-.095-.044.217-.657.969-.918s1.376.015,1.329.109" transform="translate(-114.372 -226.983)" fill="#1a2e35"/>
        <path id="Trazado_215718" data-name="Trazado 215718" d="M222.15,429.822c0,.111-.514.187-.99.562s-.7.836-.8.806c-.106-.007-.034-.661.567-1.115s1.247-.357,1.226-.253" transform="translate(-117.328 -228.851)" fill="#1a2e35"/>
        <path id="Trazado_215719" data-name="Trazado 215719" d="M225.617,434.636c-.1,0-.13-.578.287-1.109s.981-.651,1.006-.549c.041.1-.363.347-.7.788s-.483.885-.594.87" transform="translate(-120.116 -230.561)" fill="#1a2e35"/>
        <path id="Trazado_215720" data-name="Trazado 215720" d="M217.928,420.195c-.069.089-.533-.177-1.157-.278s-1.149-.018-1.184-.124.516-.388,1.25-.259,1.165.587,1.092.661" transform="translate(-114.808 -223.403)" fill="#1a2e35"/>
        <path id="Trazado_215721" data-name="Trazado 215721" d="M158.26,294.749c-1.031.5-3.592,0-3.592,0l-10.056-5.54-27.119-1.616L110.128,299l13.291,10.5h24.066l10.775-8.62Z" transform="translate(-58.648 -153.156)" fill="#1a2e35"/>
        <path id="Trazado_215722" data-name="Trazado 215722" d="M178.531,293.784c.718.359,21.783,7.122,25.643,9.94,3.311,2.417,3.91,3.869,2.832,9.616s-9.744,38.612-9.744,38.612l-14.142-3.592,5.844-32.8L171.986,311s.231-6.514,2.694-11.135a50.861,50.861,0,0,1,3.851-6.086" transform="translate(-91.59 -156.453)" fill="#1a2e35"/>
        <path id="Trazado_215723" data-name="Trazado 215723" d="M121.051,287.644s-7.652,8.488-9.278,10.932,6.758,4.011,6.758,4.011l7.027-4.011Z" transform="translate(-59.412 -153.183)" fill="#1a2e35"/>
        <path id="Trazado_215724" data-name="Trazado 215724" d="M114.921,302.93s-7-1.078-7.9,10.237,15.8,43.641,15.8,43.641l14.547-5.645s-7-31.71-11.494-38.534a28.53,28.53,0,0,0-10.955-9.7" transform="translate(-56.974 -161.308)" fill="#1a2e35"/>
        <path id="Trazado_215725" data-name="Trazado 215725" d="M136.833,357.332a.482.482,0,0,1-.055-.114l-.14-.342-.517-1.323-1.906-4.862c-1.612-4.1-3.94-9.735-6.3-16.043-1.192-3.149-2.171-6.21-3.05-8.988s-1.706-5.271-2.489-7.329-1.509-3.688-2.051-4.794c-.259-.559-.49-.978-.633-1.27l-.163-.331a.5.5,0,0,1-.049-.117.483.483,0,0,1,.07.105l.185.32c.157.284.4.7.675,1.25a49,49,0,0,1,2.127,4.775c.805,2.056,1.65,4.547,2.542,7.323s1.873,5.825,3.065,8.972c2.353,6.3,4.656,11.943,6.227,16.065.792,2.059,1.415,3.731,1.835,4.891l.474,1.339.117.35a.5.5,0,0,1,.032.122" transform="translate(-63.631 -166.057)" fill="#375a64"/>
        <path id="Trazado_215726" data-name="Trazado 215726" d="M147.567,318.767a2.428,2.428,0,0,1-.1-.545c-.047-.352-.121-.861-.221-1.487a40.247,40.247,0,0,0-2.725-9.5c-.247-.584-.454-1.055-.6-1.378a2.426,2.426,0,0,1-.2-.515,2.439,2.439,0,0,1,.288.474c.173.311.4.772.673,1.35a32.808,32.808,0,0,1,2.737,9.545c.079.632.127,1.146.145,1.5a2.42,2.42,0,0,1,.007.554" transform="translate(-76.534 -162.607)" fill="#375a64"/>
        <path id="Trazado_215727" data-name="Trazado 215727" d="M209.848,322.683a1.928,1.928,0,0,1-.116.48l-.383,1.284c-.322,1.084-.741,2.588-1.128,4.268s-.664,3.218-.847,4.333q-.126.774-.215,1.322a1.93,1.93,0,0,1-.105.482,1.908,1.908,0,0,1,.011-.494c.022-.316.068-.773.139-1.336.14-1.125.393-2.674.78-4.363s.836-3.192,1.2-4.266c.182-.537.339-.969.457-1.263a1.927,1.927,0,0,1,.206-.449" transform="translate(-110.26 -171.842)" fill="#375a64"/>
        <path id="Trazado_215728" data-name="Trazado 215728" d="M229.076,323.477c.065.017-2.409,9.658-5.526,21.53s-5.7,21.488-5.762,21.471,2.409-9.656,5.526-21.532,5.7-21.485,5.761-21.468" transform="translate(-115.981 -172.265)" fill="#375a64"/>
        <path id="Trazado_215729" data-name="Trazado 215729" d="M172.816,304.561c.037.029-.445.616-1.049,1.67a15.03,15.03,0,0,0-.919,1.92,14.856,14.856,0,0,0-1.029,5.085,14.992,14.992,0,0,0,.1,2.127c.147,1.206.363,1.934.317,1.946a2.211,2.211,0,0,1-.178-.5,5.542,5.542,0,0,1-.156-.606c-.049-.239-.118-.509-.154-.815a13.306,13.306,0,0,1-.154-2.154,13.944,13.944,0,0,1,1.045-5.164,13.31,13.31,0,0,1,.98-1.924c.152-.267.321-.49.459-.691a5.381,5.381,0,0,1,.379-.5,2.235,2.235,0,0,1,.359-.394" transform="translate(-90.316 -162.192)" fill="#375a64"/>
        <path id="Trazado_215730" data-name="Trazado 215730" d="M157.908,291.854c-.021-.022.3-.141.667.148a.935.935,0,0,1,.353.7.941.941,0,0,1-1.49.714.936.936,0,0,1-.323-.712c.007-.469.3-.642.3-.612a1.279,1.279,0,0,0-.131.6.8.8,0,0,0,.291.545.737.737,0,0,0,1.126-.54.8.8,0,0,0-.243-.568c-.275-.272-.556-.235-.553-.276" transform="translate(-83.671 -155.402)" fill="#375a64"/>
        <path id="Trazado_215731" data-name="Trazado 215731" d="M154.693,301.936c0-.008.04-.034.129-.072a1.684,1.684,0,0,1,.411-.1,1.977,1.977,0,0,1,1.478.439l-.145.053c.165-1.188.406-2.807.685-4.587.287-1.835.561-3.494.771-4.693l.261-1.418a2.238,2.238,0,0,1,.129-.515,2.215,2.215,0,0,1-.035.53c-.05.389-.112.867-.185,1.43-.167,1.206-.414,2.869-.7,4.7-.279,1.78-.545,3.4-.751,4.576l-.027.156-.118-.1a1.948,1.948,0,0,0-1.355-.475c-.353.015-.54.1-.548.075" transform="translate(-82.381 -154.993)" fill="#375a64"/>
        <path id="Trazado_215732" data-name="Trazado 215732" d="M133.184,318.558a.994.994,0,0,1-.134-.215l-.344-.637c-.295-.554-.724-1.355-1.269-2.336-1.089-1.962-2.666-4.634-4.595-7.462a10.418,10.418,0,0,0-3.274-3.42,7.285,7.285,0,0,0-3.757-.812,20.914,20.914,0,0,0-2.636.259l-.715.107a.984.984,0,0,1-.252.022,1.009,1.009,0,0,1,.243-.071c.161-.039.4-.09.708-.151a17.636,17.636,0,0,1,2.647-.337,7.333,7.333,0,0,1,3.871.789,10.456,10.456,0,0,1,3.366,3.479,80.717,80.717,0,0,1,4.545,7.518c.527.993.933,1.808,1.2,2.376.137.283.236.506.3.658a1,1,0,0,1,.09.237" transform="translate(-61.886 -161.625)" fill="#375a64"/>
        <path id="Trazado_215733" data-name="Trazado 215733" d="M98.724,186.936s-4.13,1.969-6.242,8.925c-2.05,6.754-7.211,18.027-6.781,20.773s-.773,5.751,4.12,6.438,7.382.759,8.67-.822a16.164,16.164,0,0,0,2.06-3.384Z" transform="translate(-45.626 -99.551)" fill="#f37409"/>
        <path id="Trazado_215734" data-name="Trazado 215734" d="M132.313,176.366l1.235-1.76,7.535,6.869,5.676-6.185,1.523,1.251,1.467,3.828-.781,14.821,2.711,22.8,1.632,11.052-24.681-1.616-2.164-9.059,4.739-15.991,1.872-12.388-1.813-11.525Z" transform="translate(-67.35 -92.985)" fill="#e1e1e1"/>
        <path id="Trazado_215735" data-name="Trazado 215735" d="M171.52,177.968l2.093,2.576s11.494,4.13,11.853,4.669-2.514,24.425-2.335,24.963,3.256,22.1,3.256,22.1l8.406,5.781-9.687,2.112-8.261-9.339s-5.028-14.367-5.567-21.91-1.077-20.114,0-24.065a13.944,13.944,0,0,0,.242-6.886" transform="translate(-90.881 -94.776)" fill="#f37409"/>
        <path id="Trazado_215736" data-name="Trazado 215736" d="M214.822,223l-4.43-4.669-5.164-10.864s-4.466-12.528-8.006-14.1-4.49,18.857-4.49,18.857l12.5,17.419h1.941l5.677-1.076Z" transform="translate(-102.638 -102.931)" fill="#f37409"/>
        <path id="Trazado_215737" data-name="Trazado 215737" d="M119.453,176.308l-1.43,2.323-10.255,2.645.257,27.75-.494,14.681s-3.205,11.241-4.259,17.322c-1.44,8.317.1,8.09.1,8.09l4.662-2.83s11.4-24.066,13.2-29.813,2.334-14.367,2.155-22.449-3.939-17.719-3.939-17.719" transform="translate(-54.67 -93.892)" fill="#f37409"/>
        <path id="Trazado_215738" data-name="Trazado 215738" d="M136.69,216.648a2.323,2.323,0,0,1-.058-.386q-.045-.414-.119-1.112c-.1-.991-.229-2.383-.393-4.093a29.264,29.264,0,0,0-.89-6c-.634-2.2-1.494-4.571-2.46-7.034-.768-1.96-1.545-3.833-2.3-5.564l-.036-.084.072-.054,2.1-1.592-.009.165-1.755-1.688-.042-.039.014-.056,1.422-5.707.409-1.578c.047-.167.084-.3.115-.413a.074.074,0,1,1,.029.008c-.023.111-.051.249-.086.419l-.357,1.59c-.326,1.394-.785,3.357-1.34,5.728l-.028-.1,1.768,1.675.092.087-.1.077-2.1,1.6.036-.138c.761,1.732,1.542,3.6,2.311,5.568.968,2.467,1.823,4.847,2.449,7.062a16.922,16.922,0,0,1,.615,3.215c.083,1.016.16,1.962.23,2.829l.316,4.1q.046.7.073,1.115a2.308,2.308,0,0,1,.009.39" transform="translate(-69.463 -96.538)" fill="#1a2e35"/>
        <path id="Trazado_215739" data-name="Trazado 215739" d="M174.9,219.905a2.357,2.357,0,0,1,0-.4q.021-.42.056-1.13c.056-.981.145-2.4.27-4.154s.28-3.839.519-6.154c.1-1.162.355-2.371.575-3.609l.7-3.849c.507-2.75.989-5.362,1.422-7.711l.037.1-2.461-2.133-.068-.058.05-.073,1.853-2.726-.007.079c-.622-1.424-1.122-2.57-1.476-3.383l-.386-.912a1.962,1.962,0,0,1-.12-.322,1.889,1.889,0,0,1,.161.3l.424.894L178,188.029l.019.041-.025.038-1.822,2.747-.018-.131,2.477,2.116.049.042-.012.063c-.427,2.351-.9,4.967-1.4,7.719-.242,1.319-.478,2.606-.707,3.85s-.477,2.43-.586,3.585c-.251,2.306-.421,4.392-.571,6.142-.145,1.733-.263,3.144-.347,4.147q-.064.708-.1,1.127a2.422,2.422,0,0,1-.051.392" transform="translate(-93.139 -97.71)" fill="#1a2e35"/>
        <path id="Trazado_215740" data-name="Trazado 215740" d="M225.228,252.82c.742-.179,4.471-.567,5.353-.213a2.028,2.028,0,0,1,1.458,2.009,3.533,3.533,0,0,1,.613,1.863,1.874,1.874,0,0,1-.43,1.245s-.077,1.83-.9,2.342c0,0-.845,1.763-1.935,1.815s-6.46-.492-6.46-.492-1.64.185-2.281-.868-1.427-1.231-1.118-2.5.731-2.725,1.822-3.158l1.091-.432s-.506-1.422.531-1.731l1.892.137Z" transform="translate(-116.874 -134.448)" fill="#ffc19d"/>
        <path id="Trazado_215741" data-name="Trazado 215741" d="M225.875,264.516a5.889,5.889,0,0,1-1.267-5.251,9.047,9.047,0,0,0,1.267,5.251" transform="translate(-119.516 -138.069)" fill="#ff9c6a"/>
        <path id="Trazado_215742" data-name="Trazado 215742" d="M203.525,244.016l-.463-11.637a27.726,27.726,0,0,0-1.511-4.237.234.234,0,0,1,.431-.181,29.323,29.323,0,0,1,1.546,4.4L203.992,244Z" transform="translate(-107.325 -121.323)" fill="#1a2e35"/>
        <path id="Trazado_215743" data-name="Trazado 215743" d="M211.479,262.178c.01.244-1.2.491-2.692.551s-2.717-.091-2.727-.335,1.2-.491,2.692-.551,2.717.091,2.727.335" transform="translate(-109.736 -139.436)" fill="#e1e1e1"/>
        <path id="Trazado_215744" data-name="Trazado 215744" d="M224.514,261.66c.01.245-1.2.491-2.692.551s-2.717-.091-2.727-.335,1.2-.491,2.692-.551,2.717.091,2.727.335" transform="translate(-116.677 -139.16)" fill="#e1e1e1"/>
        <path id="Trazado_215745" data-name="Trazado 215745" d="M225.173,243.458a.234.234,0,0,1-.233-.219c-.007-.112-.708-11.229-.939-12.484-.2-1.112-2.684-3.1-2.968-3.268a.222.222,0,0,1-.122-.3.244.244,0,0,1,.314-.129c.206.079,2.982,2.225,3.237,3.609.235,1.282.916,12.08.945,12.539a.234.234,0,0,1-.219.248h-.014" transform="translate(-117.635 -120.911)" fill="#1a2e35"/>
        <path id="Trazado_215746" data-name="Trazado 215746" d="M217.391,262.7a.681.681,0,0,1-.082-.005.721.721,0,0,1-.481-.28.234.234,0,0,1,.381-.273.246.246,0,0,0,.159.089.463.463,0,0,0,.343-.16.234.234,0,0,1,.309.351.962.962,0,0,1-.63.279" transform="translate(-115.448 -139.536)" fill="#1a2e35"/>
        <path id="Trazado_215747" data-name="Trazado 215747" d="M229.921,253.319a1.091,1.091,0,0,0-.185,2.03,2.2,2.2,0,0,0,1.024.141l5.348-.119" transform="translate(-122.019 -134.903)" fill="#ffc19d"/>
        <path id="Trazado_215748" data-name="Trazado 215748" d="M236.007,255.366a7.123,7.123,0,0,1-1.318.115c-.815.04-1.941.079-3.186.107l-.909.018a2.422,2.422,0,0,1-.876-.106,1.2,1.2,0,0,1-.775-1.233,1.147,1.147,0,0,1,.532-.839c.206-.123.343-.127.345-.115s-.118.056-.29.192a1.1,1.1,0,0,0-.415.776,1.028,1.028,0,0,0,.679,1.007,2.284,2.284,0,0,0,.8.079l.908-.023c1.244-.028,2.371-.039,3.188-.035a7.112,7.112,0,0,1,1.322.057" transform="translate(-121.918 -134.898)" fill="#ff9c6a"/>
        <path id="Trazado_215749" data-name="Trazado 215749" d="M229.9,258.3a4.052,4.052,0,0,0-2.934.693.943.943,0,0,0-.008,1.343,1.372,1.372,0,0,0,.826.18l6.982.029" transform="translate(-120.719 -137.538)" fill="#ffc19d"/>
        <path id="Trazado_215750" data-name="Trazado 215750" d="M234.643,260.484a1.9,1.9,0,0,1-.489.045c-.315.014-.77.025-1.332.034-1.125.017-2.679.024-4.4.017a9.792,9.792,0,0,1-1.275-.043.863.863,0,0,1-.565-.359.94.94,0,0,1-.135-.622,1.176,1.176,0,0,1,.619-.921,3.621,3.621,0,0,1,.88-.339,4.556,4.556,0,0,1,1.34-.135,1.5,1.5,0,0,1,.487.079,7.124,7.124,0,0,0-1.782.223c-.492.165-1.267.387-1.321,1.116a.625.625,0,0,0,.524.725,10.9,10.9,0,0,0,1.227.034c1.716.007,3.271.027,4.4.053.563.013,1.018.029,1.332.044a1.9,1.9,0,0,1,.488.049" transform="translate(-120.592 -137.478)" fill="#ff9c6a"/>
        <path id="Trazado_215751" data-name="Trazado 215751" d="M228.169,263.414c-.214-.074-1.067-.04-1.117.18a.669.669,0,0,0,.222.61,1.765,1.765,0,0,0,.588.331,21.716,21.716,0,0,0,6.63,1.107" transform="translate(-120.908 -140.261)" fill="#ffc19d"/>
        <path id="Trazado_215752" data-name="Trazado 215752" d="M234.395,265.586a7.087,7.087,0,0,1-1.364,0,21.286,21.286,0,0,1-3.273-.39,12.353,12.353,0,0,1-1.752-.5,3.542,3.542,0,0,1-.738-.339.882.882,0,0,1-.406-.623.6.6,0,0,1,.009-.177.24.24,0,0,1,.045-.1.276.276,0,0,1,.076-.062.844.844,0,0,1,.28-.088,2.18,2.18,0,0,1,.438-.021c.24.01.37.066.362.082s-.13-.007-.361.012a2.767,2.767,0,0,0-.413.06.761.761,0,0,0-.223.085c-.037.028-.036.025-.043.062a.44.44,0,0,0,0,.129.711.711,0,0,0,.347.476,3.607,3.607,0,0,0,.7.3,14.214,14.214,0,0,0,1.726.477,31.05,31.05,0,0,0,3.236.457,8.174,8.174,0,0,1,1.351.176" transform="translate(-120.812 -140.203)" fill="#ff9c6a"/>
        <path id="Trazado_215753" data-name="Trazado 215753" d="M228.635,266.2c-.52-.1-.5.173-.237.521a2.8,2.8,0,0,0,.535.546,27.221,27.221,0,0,0,2.443,1.648" transform="translate(-121.535 -141.751)" fill="#ffc19d"/>
        <path id="Trazado_215754" data-name="Trazado 215754" d="M231.29,268.857a8,8,0,0,1-2.014-1.18,6.78,6.78,0,0,1-.723-.572,2.276,2.276,0,0,1-.455-.623.314.314,0,0,1,.02-.35.3.3,0,0,1,.25-.059c.125.02.183.055.181.069s-.072.015-.182.026c-.051.006-.126.021-.15.057s-.009.1.037.184a2.582,2.582,0,0,0,.455.535c.192.175.454.345.709.536a18.872,18.872,0,0,1,1.872,1.377" transform="translate(-121.448 -141.693)" fill="#ff9c6a"/>
        <path id="Trazado_215755" data-name="Trazado 215755" d="M225.829,253.659a1.838,1.838,0,0,0,1.13,2.362" transform="translate(-120.194 -135.084)" fill="#ffc19d"/>
        <path id="Trazado_215756" data-name="Trazado 215756" d="M226.844,256.02c0,.031-.2.05-.439-.1a1.933,1.933,0,0,1-.732-.792,1.629,1.629,0,0,1-.159-1.071c.063-.276.178-.412.2-.4.039.016-.015.173-.029.424a1.848,1.848,0,0,0,.206.938,2.408,2.408,0,0,0,.611.76c.194.166.345.2.343.24" transform="translate(-120.078 -135.084)" fill="#ff9c6a"/>
        <path id="Trazado_215757" data-name="Trazado 215757" d="M110.359,202.334a1.227,1.227,0,0,1,.056.278c.03.209.067.475.114.8.093.729.222,1.73.379,2.953.308,2.494.739,5.942,1.042,9.769a84.305,84.305,0,0,1,.228,9.827c-.055,1.257-.121,2.273-.194,2.973-.034.329-.061.6-.083.806a1.235,1.235,0,0,1-.045.28,1.24,1.24,0,0,1,0-.284c.01-.211.022-.479.037-.808.043-.7.084-1.717.116-2.972a97.991,97.991,0,0,0-.3-9.8c-.3-3.82-.706-7.268-.97-9.768-.125-1.227-.227-2.23-.3-2.962-.028-.329-.05-.6-.068-.807a1.231,1.231,0,0,1-.007-.283" transform="translate(-58.768 -107.752)" fill="#1a2e35"/>
        <g id="Grupo_149963" data-name="Grupo 149963" transform="translate(50.559 107.57)" opacity="0.3">
          <g id="Grupo_149962" data-name="Grupo 149962">
            <g id="Grupo_149961" data-name="Grupo 149961" clip-path="url(#clip-path-9)">
              <path id="Trazado_215758" data-name="Trazado 215758" d="M109.836,239.768a43.572,43.572,0,0,0,4.564-4.379,1.9,1.9,0,0,0,.581-1.02c.048-.484-.268-.928-.332-1.41a4.613,4.613,0,0,1,.19-1.376,1.294,1.294,0,0,0-.342-1.279,1.378,1.378,0,0,0-.95-.173,5.927,5.927,0,0,0-4.06,9.666" transform="translate(-108.157 -230.118)"/>
            </g>
          </g>
        </g>
        <path id="Trazado_215759" data-name="Trazado 215759" d="M99.77,236.513c-.007-.142-.269-4.31-.269-4.31a3.74,3.74,0,0,1-.359-2.065s-.583-1.392-.269-2.065a4.123,4.123,0,0,1,2.425-1.733,18.661,18.661,0,0,0,2.379-.422s1.339-1.752,2.731-1.214,1.051,1.086,1.051,1.086a1,1,0,0,1,.689.936,2.389,2.389,0,0,1-.459,1.641s1.474-.177,1.808.435a1.979,1.979,0,0,1-.3,2.015s.582-.05.223.758-.674.943-.674.943.763.224.449,1.212-3.547,3.5-3.547,3.5-.383,1.616-1.269,1.8-4.494-.307-4.612-2.514" transform="translate(-52.604 -119.61)" fill="#ffc19d"/>
        <path id="Trazado_215760" data-name="Trazado 215760" d="M112.865,227.276a2.6,2.6,0,0,0-.654-.3,2.572,2.572,0,0,0-.778-.023l-.986.073c-1.4.109-2.525.281-2.539.217a8.514,8.514,0,0,1,2.519-.46c.352-.029.689-.047,1-.055a2.366,2.366,0,0,1,.833.081c.477.155.634.455.609.463" transform="translate(-57.465 -120.742)" fill="#ff9c6a"/>
        <path id="Trazado_215761" data-name="Trazado 215761" d="M111.252,232.433a4.964,4.964,0,0,1-1.032.236l-2.5.481-2.488.528a4.908,4.908,0,0,1-1.042.183,4.288,4.288,0,0,1,1-.35c.628-.181,1.5-.4,2.482-.6s1.871-.335,2.52-.412a4.283,4.283,0,0,1,1.058-.066" transform="translate(-55.487 -123.773)" fill="#ff9c6a"/>
        <path id="Trazado_215762" data-name="Trazado 215762" d="M113.5,237.635c0,.076-1.54.119-3.376.562s-3.237,1.085-3.268,1.016a3.436,3.436,0,0,1,.892-.481,13.868,13.868,0,0,1,4.739-1.125,3.454,3.454,0,0,1,1.013.028" transform="translate(-56.908 -126.529)" fill="#ff9c6a"/>
        <path id="Trazado_215763" data-name="Trazado 215763" d="M113.689,241.524a4.763,4.763,0,0,1-.84.325c-.519.188-1.226.479-2,.828-1.537.7-2.764,1.329-2.8,1.263a3.253,3.253,0,0,1,.757-.495c.484-.276,1.165-.637,1.941-.99a14.692,14.692,0,0,1,2.043-.771,2.6,2.6,0,0,1,.893-.161" transform="translate(-57.544 -128.617)" fill="#ff9c6a"/>
        <path id="Trazado_215764" data-name="Trazado 215764" d="M103.7,246.448a2.409,2.409,0,0,1-.819-.31,3.145,3.145,0,0,1-.789-.56,2.223,2.223,0,0,1-.573-1.049,4.7,4.7,0,0,0-.353-1.063c-.166-.294-.376-.546-.5-.8a1.2,1.2,0,0,1-.135-.647c.02-.159.073-.233.086-.227a1.445,1.445,0,0,0,.2.794c.126.223.342.453.538.769a4.273,4.273,0,0,1,.393,1.11,2.414,2.414,0,0,0,1.212,1.525,4.477,4.477,0,0,1,.734.46" transform="translate(-53.534 -128.764)" fill="#ff9c6a"/>
        <path id="Trazado_215765" data-name="Trazado 215765" d="M90.48,240.1a1.79,1.79,0,0,1,.284-.673,3.047,3.047,0,0,1,.481-.646,1.826,1.826,0,0,1,.877-.5,4.746,4.746,0,0,1,1.767.1,4.671,4.671,0,0,1,.71.116,1.444,1.444,0,0,1-.729.055,6.178,6.178,0,0,0-1.692-.036,2.239,2.239,0,0,0-1.269,1c-.251.361-.4.6-.429.581" transform="translate(-48.182 -126.865)" fill="#1a2e35"/>
        <path id="Trazado_215766" data-name="Trazado 215766" d="M105.942,249.651a.928.928,0,0,1-.207.341,2.915,2.915,0,0,1-.837.7,3.013,3.013,0,0,1-1.577.385,3.127,3.127,0,0,1-1.853-.718,3.2,3.2,0,0,1-1.043-1.689,5.547,5.547,0,0,1-.15-1.606,9.842,9.842,0,0,1,.1-1.073,1.21,1.21,0,0,1,.085-.387c.041,0-.014.564-.013,1.462a5.91,5.91,0,0,0,.194,1.544,3.062,3.062,0,0,0,.983,1.561,2.9,2.9,0,0,0,3.194.369,4.413,4.413,0,0,0,1.124-.888" transform="translate(-53.398 -130.794)" fill="#1a2e35"/>
        <path id="Trazado_215767" data-name="Trazado 215767" d="M87.5,248a3.217,3.217,0,0,1,.409-2.2A14.519,14.519,0,0,1,87.5,248" transform="translate(-46.56 -130.898)" fill="#1a2e35"/>
        <path id="Trazado_215768" data-name="Trazado 215768" d="M152.419,192.514l.974,2.705h2.173l1.149-2.58-1.978-3.029Z" transform="translate(-81.17 -100.976)" fill="#375a64"/>
        <path id="Trazado_215769" data-name="Trazado 215769" d="M157.093,185.333a1.81,1.81,0,0,1-.256.514c-.2.314-.506.762-.91,1.313-.809,1.1-1.992,2.625-3.411,4.381l-.1.121-.086-.131-2.259-3.445-.448-.686.2.009-3.583,4.457-.084.1-.077-.107-2.252-3.118-.615-.878a1.766,1.766,0,0,1-.2-.323,1.752,1.752,0,0,1,.25.286l.66.845,2.321,3.067-.161,0,3.552-4.482.1-.132.092.141.448.686,2.246,3.453-.184-.01c1.43-1.743,2.637-3.246,3.476-4.321.418-.538.742-.97.959-1.27s.3-.476.318-.472" transform="translate(-76.159 -98.698)" fill="#1a2e35"/>
        <path id="Trazado_215770" data-name="Trazado 215770" d="M151.591,201.609l-2.556,38.209,4.461,4.747,3.989-5.523-3.722-37.433Z" transform="translate(-79.367 -107.365)" fill="#375a64"/>
        <g id="Grupo_149966" data-name="Grupo 149966" transform="translate(59.806 86.034)" opacity="0.3">
          <g id="Grupo_149965" data-name="Grupo 149965">
            <g id="Grupo_149964" data-name="Grupo 149964" clip-path="url(#clip-path-10)">
              <path id="Trazado_215771" data-name="Trazado 215771" d="M131.173,184.048l-2.5,7.069,1.25,1.14-1.984,2.019s5.148,13.69,5.808,16.147a12.858,12.858,0,0,0,1.221,3.312s-.3-3.531-.467-5.127-5.252-14.717-5.252-14.717l2.1-1.6-1.762-1.681Z" transform="translate(-127.939 -184.048)"/>
            </g>
          </g>
        </g>
        <g id="Grupo_149969" data-name="Grupo 149969" transform="translate(81.761 87.385)" opacity="0.3">
          <g id="Grupo_149968" data-name="Grupo 149968">
            <g id="Grupo_149967" data-name="Grupo 149967" clip-path="url(#clip-path-11)">
              <path id="Trazado_215772" data-name="Trazado 215772" d="M176.6,186.936l1.962,3.438-1.388,2.281L179.7,194.9l-4.792,25.663.856-10.421,2.8-15.382L176,192.655l1.862-2.829Z" transform="translate(-174.907 -186.936)"/>
            </g>
          </g>
        </g>
        <path id="Trazado_215773" data-name="Trazado 215773" d="M199.492,204.026a4.9,4.9,0,0,1-.05.791l-.212,2.147c-.181,1.853-.425,4.339-.694,7.087-.272,2.768-.539,5.273-.766,7.082-.113.9-.212,1.636-.289,2.14a5,5,0,0,1-.144.78,4.922,4.922,0,0,1,.05-.791c.054-.548.126-1.272.213-2.148l.694-7.088c.271-2.767.539-5.272.766-7.082.113-.9.212-1.636.289-2.14a4.947,4.947,0,0,1,.144-.78" transform="translate(-105.087 -108.653)" fill="#1a2e35"/>
        <path id="Trazado_215774" data-name="Trazado 215774" d="M193.793,280.05a2.908,2.908,0,0,1-.416-.444c-.257-.295-.616-.733-1.051-1.279-.871-1.094-2.018-2.65-3.246-4.391s-2.351-3.309-3.185-4.427l-.989-1.325a2.917,2.917,0,0,1-.342-.5,2.91,2.91,0,0,1,.416.444c.257.295.616.733,1.051,1.279.871,1.094,2.018,2.649,3.247,4.391s2.35,3.308,3.184,4.427l.989,1.325a2.922,2.922,0,0,1,.342.5" transform="translate(-98.288 -142.551)" fill="#1a2e35"/>
        <rect id="Rectángulo_45375" data-name="Rectángulo 45375" width="192.307" height="4.362" transform="translate(12.632 126.714)" fill="#1a2e35"/>
        <path id="Trazado_215775" data-name="Trazado 215775" d="M60.478,353.717H56.757l-.1-77.98h3.721Z" transform="translate(-30.17 -146.842)" fill="#1a2e35"/>
        <rect id="Rectángulo_45376" data-name="Rectángulo 45376" width="3.721" height="77.943" transform="translate(181.949 128.895)" fill="#1a2e35"/>
        <path id="Trazado_215776" data-name="Trazado 215776" d="M209.645,280.264c0,.067-40.885.122-91.307.122-50.44,0-91.315-.054-91.315-.122s40.876-.122,91.315-.122c50.422,0,91.307.054,91.307.122" transform="translate(-14.391 -149.188)" fill="#375a64"/>
      </g>
    </g>
  </g>
</svg>
