<svg id="Grupo_149079" data-name="Grupo 149079" xmlns="http://www.w3.org/2000/svg" xmlns:xlink="http://www.w3.org/1999/xlink" width="220.934" height="218.522" viewBox="0 0 220.934 218.522">
  <defs>
    <clipPath id="clip-path">
      <rect id="Rectángulo_44972" data-name="Rectángulo 44972" width="220.934" height="218.522" fill="none"/>
    </clipPath>
    <clipPath id="clip-path-3">
      <rect id="Rectángulo_44964" data-name="Rectángulo 44964" width="31.72" height="33.7" fill="none"/>
    </clipPath>
    <clipPath id="clip-path-4">
      <rect id="Rectángulo_44965" data-name="Rectángulo 44965" width="42.389" height="38.399" fill="none"/>
    </clipPath>
    <clipPath id="clip-path-5">
      <rect id="Rectángulo_44968" data-name="Rectángulo 44968" width="7.608" height="61.843" fill="none"/>
    </clipPath>
    <clipPath id="clip-path-6">
      <rect id="Rectángulo_44969" data-name="Rectángulo 44969" width="5.131" height="40.358" fill="none"/>
    </clipPath>
    <clipPath id="clip-path-7">
      <rect id="Rectángulo_44970" data-name="Rectángulo 44970" width="25.062" height="18" fill="none"/>
    </clipPath>
  </defs>
  <g id="Grupo_149078" data-name="Grupo 149078" clip-path="url(#clip-path)">
    <g id="Grupo_149077" data-name="Grupo 149077">
      <g id="Grupo_149076" data-name="Grupo 149076" clip-path="url(#clip-path)">
        <path id="Trazado_213790" data-name="Trazado 213790" d="M32.5,81.994l-7.4-3.042s-2.554,6.212-9.054,3.669a6.471,6.471,0,0,1-4.227-6.2,7.17,7.17,0,0,1,2.99-5.775c2.106-1.554,5.714-2.511,10.339.417l6.773-16.473L24.6,51.579,20.585,61.35s-11.35-1.566-16,9.741c-4.448,10.818,4.6,17.476,9.652,19.553,3.176,1.306,13.031,4.46,18.257-8.649" transform="translate(-0.844 -12.829)" fill="#fff"/>
        <rect id="Rectángulo_44956" data-name="Rectángulo 44956" width="7.497" height="8.027" transform="translate(25.083 35.276) rotate(-67.65)" fill="#fff"/>
        <path id="Trazado_213791" data-name="Trazado 213791" d="M29.146,80.606l-7.4-3.042s-2.554,6.212-9.054,3.669a6.471,6.471,0,0,1-4.227-6.2,7.17,7.17,0,0,1,2.99-5.775c2.106-1.554,5.629-2.3,10.253.625L28.569,53.2l-7.316-3.007-4.017,9.771S5.886,58.4,1.237,69.7C-3.211,80.521,5.457,87.023,9.61,88.73c3.176,1.306,14.309,4.986,19.536-8.124" transform="translate(0 -12.484)" fill="#e1e1e1"/>
        <rect id="Rectángulo_44957" data-name="Rectángulo 44957" width="7.497" height="8.027" transform="translate(22.577 34.234) rotate(-67.65)" fill="#e1e1e1"/>
        <path id="Trazado_213792" data-name="Trazado 213792" d="M239.039,30.925l9.087-3.589s-3.013-7.629,4.861-10.9a7.905,7.905,0,0,1,8.974,1.881,8.754,8.754,0,0,1,2.259,7.615c-.538,3.15-2.9,7.048-9.452,8.388l7.99,20.233,8.985-3.549-4.74-12s11.315-8.235,5.831-22.121C267.587,3.6,253.984,5.4,247.781,7.852c-3.9,1.54-15.245,7.11-8.743,23.073" transform="translate(-58.965 -1.524)" fill="#fff"/>
        <rect id="Rectángulo_44958" data-name="Rectángulo 44958" width="9.804" height="9.156" transform="matrix(0.93, -0.367, 0.367, 0.93, 205.434, 57.262)" fill="#fff"/>
        <path id="Trazado_213793" data-name="Trazado 213793" d="M234.27,32.748l9.087-3.589s-3.013-7.629,4.861-10.9a7.9,7.9,0,0,1,8.974,1.881,8.754,8.754,0,0,1,2.259,7.615c-.538,3.15-3,6.794-9.553,8.133l8.091,20.489,8.985-3.549-4.74-12s11.315-8.235,5.831-22.121c-5.247-13.288-18.381-11.668-23.483-9.654-3.9,1.54-16.815,7.731-10.313,23.694" transform="translate(-57.822 -1.917)" fill="#e1e1e1"/>
        <rect id="Rectángulo_44959" data-name="Rectángulo 44959" width="9.803" height="9.157" transform="translate(201.81 58.693) rotate(-21.549)" fill="#e1e1e1"/>
        <path id="Trazado_213794" data-name="Trazado 213794" d="M125.028,29.68a17.149,17.149,0,1,1,1.985-22.539,17.15,17.15,0,0,1-1.985,22.539" transform="translate(-23.891 -0.033)" fill="#fff"/>
        <path id="Trazado_213795" data-name="Trazado 213795" d="M124.161,30.389s.074-.059.211-.181l.606-.548.445-.406c.156-.157.312-.344.488-.539l.564-.633a9.106,9.106,0,0,0,.583-.77,16.256,16.256,0,0,0,2.312-4.387,17.1,17.1,0,0,0,.96-6.486q-.025-.459-.05-.927c-.035-.311-.091-.624-.136-.94s-.077-.641-.165-.957l-.242-.96-.279-.914c-.007-.017-.013-.035-.02-.053q-.172-.481-.349-.971c-.127-.322-.294-.633-.441-.953a8.748,8.748,0,0,0-.486-.953,16.054,16.054,0,0,0-1.2-1.835c-.228-.294-.44-.6-.687-.89l-1.062-1.147c-.035-.038-.073-.074-.112-.109l-.436-.385c-.294-.254-.579-.524-.888-.769a18.235,18.235,0,0,0-1.992-1.332,17.851,17.851,0,0,0-2.2-1.092C119.2,1.1,118.8.977,118.4.838c-.2-.063-.394-.146-.6-.193L117.186.5a14.66,14.66,0,0,0-2.021-.365l-1.033-.09L113.024,0,112.7.016l-.658.036-.662.037-.658.1-.66.1-.332.051-.326.08-2.422.733-.167.06a18.375,18.375,0,0,0-4.744,2.813,18.377,18.377,0,0,0-3.6,4.179l-.08.139-1.154,2.272-.137.307-.107.318-.215.633-.211.631-.152.645-.151.642-.074.321-.149,1.1c-.031.345-.062.688-.092,1.033A14.5,14.5,0,0,0,95.95,18.3l.035.633c.011.211.058.417.085.625.068.414.117.829.2,1.235a17.883,17.883,0,0,0,.69,2.357,18.25,18.25,0,0,0,.964,2.194c.187.346.4.675.6,1.009l.3.5a1.493,1.493,0,0,0,.088.128l.944,1.247c.239.292.508.555.757.832a16.047,16.047,0,0,0,1.6,1.5,8.853,8.853,0,0,0,.853.645c.291.2.567.419.862.6l.9.517.889.456,0,0,.9.407c.3.14.613.218.913.328s.6.21.9.3l.9.211a17.1,17.1,0,0,0,6.554.188,16.246,16.246,0,0,0,4.723-1.51,9.072,9.072,0,0,0,.86-.439l.722-.444c.222-.14.433-.261.615-.387l.478-.367.645-.5c.144-.113.215-.176.215-.176s-.08.051-.228.159l-.657.484-.482.358c-.183.124-.4.24-.618.377l-.724.435a9.362,9.362,0,0,1-.86.429,16.345,16.345,0,0,1-4.707,1.469,17.045,17.045,0,0,1-6.5-.216l-.9-.213c-.3-.089-.592-.2-.893-.3s-.611-.189-.9-.328l-.894-.406-.848-.436-.042-.024-.885-.512c-.292-.18-.565-.4-.853-.6a8.679,8.679,0,0,1-.842-.642,15.911,15.911,0,0,1-1.578-1.493c-.246-.274-.512-.535-.747-.825l-.935-1.24c-.03-.039-.058-.081-.084-.123-.1-.164-.2-.328-.3-.493-.2-.331-.409-.656-.594-1a18.015,18.015,0,0,1-.95-2.171,17.757,17.757,0,0,1-.679-2.333c-.082-.4-.129-.812-.2-1.222-.026-.205-.074-.409-.083-.618l-.035-.627a19.234,19.234,0,0,1,.018-2.539q.087-.636.175-1.277l.044-.322.073-.316.15-.635.15-.638.21-.624.212-.625L97.284,11l.135-.3,1.149-2.256.072-.125A18.2,18.2,0,0,1,102.2,4.182a18.228,18.228,0,0,1,4.686-2.78l.155-.056,2.4-.729.322-.08.328-.05.653-.1.65-.1.654-.037L112.7.217,113.025.2l.324.013,1.288.051a19.174,19.174,0,0,1,2.5.427l.611.143c.2.047.4.128.594.19.391.137.787.256,1.168.406a17.781,17.781,0,0,1,2.178,1.077,18.092,18.092,0,0,1,1.971,1.315c.306.241.588.509.88.76l.432.379a1.43,1.43,0,0,1,.108.105L126.138,6.2c.244.282.455.59.681.88a15.952,15.952,0,0,1,1.195,1.814,8.7,8.7,0,0,1,.484.941c.146.318.313.624.439.944l.349.961.172.473c0,.015.009.03.014.045q.179.705.355,1.39c.088.313.109.636.166.947s.1.624.138.931q.027.465.053.92a17.03,17.03,0,0,1-.923,6.441,16.36,16.36,0,0,1-2.267,4.378,9.237,9.237,0,0,1-.573.772l-.555.638c-.174.2-.326.385-.479.543l-.436.412-.591.563c-.132.128-.2.2-.2.2" transform="translate(-23.855 0)" fill="#e1e1e1"/>
        <path id="Trazado_213796" data-name="Trazado 213796" d="M136.649,51.56a2.792,2.792,0,1,1,.258-2.929,2.795,2.795,0,0,1-.258,2.929" transform="translate(-32.737 -11.715)" fill="#fff"/>
        <path id="Trazado_213797" data-name="Trazado 213797" d="M136.176,51.991c0,.005.054-.031.145-.106a2.2,2.2,0,0,0,.353-.375,2.769,2.769,0,0,0,.566-1.79,2.827,2.827,0,0,0-.351-1.273,2.871,2.871,0,0,0-1.059-1.086,2.836,2.836,0,0,0-1.63-.388,2.866,2.866,0,0,0-2.618,2.194,2.855,2.855,0,0,0,2.173,3.474,2.773,2.773,0,0,0,1.862-.244,2.127,2.127,0,0,0,.43-.282c.09-.076.134-.119.13-.124s-.2.15-.6.334a2.781,2.781,0,0,1-1.795.174,2.706,2.706,0,0,1-1.929-1.724,2.668,2.668,0,0,1-.08-1.56,2.681,2.681,0,0,1,2.435-2.04,2.662,2.662,0,0,1,1.522.351,2.711,2.711,0,0,1,1.361,2.2,2.781,2.781,0,0,1-.485,1.737c-.251.358-.449.511-.433.527" transform="translate(-32.707 -11.682)" fill="#e1e1e1"/>
        <path id="Trazado_213798" data-name="Trazado 213798" d="M111.842,17.61h2.594a2.2,2.2,0,0,1,2.263-2.217,2.1,2.1,0,0,1,2.033,1.34,2.324,2.324,0,0,1-.185,2.1c-.44.725-1.4,1.385-3.152,1.077v5.849h2.565V22.333a5.009,5.009,0,0,0,3.6-4.895c0-3.793-3.4-4.674-4.858-4.674-1.113,0-4.907.27-4.858,4.846" transform="translate(-27.818 -3.175)" fill="#e1e1e1"/>
        <rect id="Rectángulo_44960" data-name="Rectángulo 44960" width="2.603" height="2.431" transform="translate(87.569 23.788)" fill="#e1e1e1"/>
        <path id="Trazado_213799" data-name="Trazado 213799" d="M72.241,115.134h2.594a2.2,2.2,0,0,1,2.263-2.217,2.1,2.1,0,0,1,2.033,1.34,2.324,2.324,0,0,1-.185,2.1c-.44.725-1.4,1.385-3.152,1.077v5.849h2.565v-3.426a5.009,5.009,0,0,0,3.6-4.895c0-3.793-3.4-4.674-4.858-4.674-1.113,0-4.907.27-4.858,4.846" transform="translate(-17.968 -27.432)" fill="#e1e1e1"/>
        <rect id="Rectángulo_44961" data-name="Rectángulo 44961" width="2.603" height="2.431" transform="translate(57.818 97.056)" fill="#e1e1e1"/>
        <path id="Trazado_213800" data-name="Trazado 213800" d="M223.157,137.524l-2.911-1.849a2.931,2.931,0,0,1-4.121.875A2.79,2.79,0,0,1,214.8,133.6a3.089,3.089,0,0,1,1.7-2.226c1.011-.5,2.563-.554,4.306,1.038l4.169-6.565-2.879-1.829-2.442,3.846a6.659,6.659,0,0,0-7.526,2.929c-2.7,4.257.486,7.671,2.121,8.708,1.249.794,5.7,3.2,8.906-1.976" transform="translate(-52.502 -30.846)" fill="#e1e1e1"/>
        <rect id="Rectángulo_44962" data-name="Rectángulo 44962" width="3.233" height="3.461" transform="matrix(0.536, -0.844, 0.844, 0.536, 170.42, 91.796)" fill="#e1e1e1"/>
        <path id="Trazado_213801" data-name="Trazado 213801" d="M70.609,18.58l-2.412.953a2.206,2.206,0,0,1-1.291,2.894,2.1,2.1,0,0,1-2.382-.5,2.324,2.324,0,0,1-.6-2.022c.143-.836.8-1.8,2.536-2.159l-2.149-5.44-2.385.942,1.258,3.187a5.009,5.009,0,0,0-1.548,5.873c1.394,3.528,4.881,3.1,6.235,2.563,1.036-.409,4.465-2.052,2.738-6.291" transform="translate(-15.232 -3.061)" fill="#e1e1e1"/>
        <rect id="Rectángulo_44963" data-name="Rectángulo 44963" width="2.603" height="2.431" transform="translate(45.33 6.816) rotate(-21.552)" fill="#e1e1e1"/>
        <path id="Trazado_213802" data-name="Trazado 213802" d="M221.8,290.655c0,.071-48.874.128-109.149.128-60.3,0-109.159-.058-109.159-.128s48.864-.128,109.159-.128c60.275,0,109.149.058,109.149.128" transform="translate(-0.87 -72.262)" fill="#1a2e35"/>
        <path id="Trazado_213803" data-name="Trazado 213803" d="M246.04,164.9l-3.793-1.7,22.6-28.457,3.69,1.021a2.851,2.851,0,0,1,1.413.9l3.67,4.324a1.479,1.479,0,0,1-.171,2.084l-25.367,21.531a1.933,1.933,0,0,1-2.039.291" transform="translate(-60.253 -33.516)" fill="#375a64"/>
        <path id="Trazado_213804" data-name="Trazado 213804" d="M272.65,162.343l-4.1,3.484a1.669,1.669,0,0,1-1.656.294l-3.071-1.126a1.672,1.672,0,0,1-.9-.785l-16.809-31.686,3.789,1.1a2.6,2.6,0,0,1,1.254.812l21.69,25.554a1.669,1.669,0,0,1-.192,2.354" transform="translate(-61.214 -32.962)" fill="#375a64"/>
        <g id="Grupo_149063" data-name="Grupo 149063" transform="translate(181.994 99.562)" opacity="0.3">
          <g id="Grupo_149062" data-name="Grupo 149062">
            <g id="Grupo_149061" data-name="Grupo 149061" clip-path="url(#clip-path-3)">
              <path id="Trazado_213805" data-name="Trazado 213805" d="M246.04,164.9l-3.793-1.7,22.6-28.457,3.69,1.021a2.851,2.851,0,0,1,1.413.9l3.67,4.324a1.479,1.479,0,0,1-.171,2.084l-25.367,21.531a1.933,1.933,0,0,1-2.039.291" transform="translate(-242.247 -133.078)"/>
              <path id="Trazado_213806" data-name="Trazado 213806" d="M272.65,162.343l-4.1,3.484a1.669,1.669,0,0,1-1.656.294l-3.071-1.126a1.672,1.672,0,0,1-.9-.785l-16.809-31.686,3.789,1.1a2.6,2.6,0,0,1,1.254.812l21.69,25.554a1.669,1.669,0,0,1-.192,2.354" transform="translate(-243.208 -132.524)"/>
            </g>
          </g>
        </g>
        <path id="Trazado_213807" data-name="Trazado 213807" d="M240.07,162.5,237.1,159a1.721,1.721,0,0,1,.2-2.426l24.8-21.048a1.721,1.721,0,0,1,2.426.2l2.967,3.495a1.721,1.721,0,0,1-.2,2.426L242.5,162.7a1.721,1.721,0,0,1-2.426-.2" transform="translate(-58.872 -33.608)" fill="#375a64"/>
        <path id="Trazado_213808" data-name="Trazado 213808" d="M266.217,160.773l-3.495,2.967a1.721,1.721,0,0,1-2.426-.2l-21.048-24.8a1.72,1.72,0,0,1,.2-2.425l3.687-3.131a1.47,1.47,0,0,1,2.071.17l21.211,24.99a1.721,1.721,0,0,1-.2,2.426" transform="translate(-59.406 -33.041)" fill="#375a64"/>
        <path id="Trazado_213809" data-name="Trazado 213809" d="M246.139,155.892a49.414,49.414,0,0,1-3.737,3.368,49.315,49.315,0,0,1-3.905,3.173,98.556,98.556,0,0,1,7.642-6.541" transform="translate(-59.32 -38.774)" fill="#fff"/>
        <path id="Trazado_213810" data-name="Trazado 213810" d="M268.461,136.525c.046.054-1.835,1.721-4.2,3.723s-4.32,3.581-4.366,3.527,1.834-1.72,4.2-3.723,4.32-3.581,4.366-3.526" transform="translate(-64.643 -33.957)" fill="#fff"/>
        <path id="Trazado_213811" data-name="Trazado 213811" d="M247.675,147.83c-.056.044-1.513-1.726-3.255-3.953a51.214,51.214,0,0,1-3.053-4.112,51.081,51.081,0,0,1,3.255,3.954c1.741,2.227,3.108,4.068,3.052,4.112" transform="translate(-60.034 -34.763)" fill="#fff"/>
        <path id="Trazado_213812" data-name="Trazado 213812" d="M264.913,167.847a45.525,45.525,0,0,1-3.365-3.461,45.5,45.5,0,0,1-3.176-3.635,90.378,90.378,0,0,1,6.541,7.1" transform="translate(-64.264 -39.983)" fill="#fff"/>
        <path id="Trazado_213813" data-name="Trazado 213813" d="M8.567,159.47l-.784-2.922,21.156,4.219,18.69-26.285,2.281,4.245a2.208,2.208,0,0,1-.008,2.1l-16.22,29.705a4.508,4.508,0,0,1-6.219,1.738l-16.375-9.509a5.438,5.438,0,0,1-2.521-3.293" transform="translate(-1.936 -33.449)" fill="#54a813"/>
        <g id="Grupo_149066" data-name="Grupo 149066" transform="translate(5.847 101.033)" opacity="0.3">
          <g id="Grupo_149065" data-name="Grupo 149065">
            <g id="Grupo_149064" data-name="Grupo 149064" clip-path="url(#clip-path-4)">
              <path id="Trazado_213814" data-name="Trazado 213814" d="M8.567,159.47l-.784-2.922,21.156,4.219,18.69-26.285,2.281,4.245a2.208,2.208,0,0,1-.008,2.1l-16.22,29.705a4.508,4.508,0,0,1-6.219,1.738l-16.375-9.509a5.438,5.438,0,0,1-2.521-3.293" transform="translate(-7.783 -134.483)"/>
            </g>
          </g>
        </g>
        <path id="Trazado_213815" data-name="Trazado 213815" d="M7.788,153.9l3.049-5.4a1.677,1.677,0,0,1,2.2-.681l12.242,6a1.676,1.676,0,0,0,2.217-.717L39.62,130.314a1.677,1.677,0,0,1,2.358-.64l4.934,3.033a1.677,1.677,0,0,1,.594,2.232l-15.85,29.025a4.065,4.065,0,0,1-5.474,1.643l-17.72-9.4a1.677,1.677,0,0,1-.674-2.306" transform="translate(-1.883 -32.191)" fill="#54a813"/>
        <path id="Trazado_213816" data-name="Trazado 213816" d="M25.189,161.951a3.689,3.689,0,0,1-.654-.258l-1.742-.792c-1.466-.679-3.484-1.633-5.707-2.7l-1.621-.781-.77-.373a1.952,1.952,0,0,0-.736-.227,1.779,1.779,0,0,0-1.319.43,3.857,3.857,0,0,0-.716,1.058l-.95,1.661a3.749,3.749,0,0,1-.379.593,3.669,3.669,0,0,1,.291-.64l.879-1.7.3-.561a2.05,2.05,0,0,1,.439-.57,1.989,1.989,0,0,1,1.479-.506,2.2,2.2,0,0,1,.824.241l.772.368,1.624.777c2.222,1.068,4.228,2.047,5.674,2.768l1.707.865a3.715,3.715,0,0,1,.611.349" transform="translate(-2.635 -38.945)" fill="#fff"/>
        <path id="Trazado_213817" data-name="Trazado 213817" d="M35.995,154.944c-.063-.032,2.509-5.116,5.745-11.353s5.91-11.269,5.973-11.236-2.509,5.115-5.746,11.354-5.91,11.268-5.973,11.235" transform="translate(-8.953 -32.92)" fill="#fff"/>
        <path id="Trazado_213818" data-name="Trazado 213818" d="M93.047,63.835A16.573,16.573,0,1,1,76.473,47.262,16.574,16.574,0,0,1,93.047,63.835" transform="translate(-14.899 -11.755)" fill="#fff"/>
        <path id="Trazado_213819" data-name="Trazado 213819" d="M93.014,63.808s0-.09,0-.268-.017-.447-.03-.789c-.008-.174-.016-.369-.025-.581s-.062-.445-.1-.7-.077-.522-.119-.811a8.838,8.838,0,0,0-.208-.91,15.7,15.7,0,0,0-1.814-4.436,16.529,16.529,0,0,0-4.208-4.739l-.718-.539c-.252-.167-.518-.319-.781-.482s-.522-.341-.811-.473-.572-.278-.862-.418l-.439-.21-.461-.17-.936-.343c-.318-.107-.651-.175-.98-.265a8.606,8.606,0,0,0-1.007-.232,15.557,15.557,0,0,0-2.105-.248c-.359-.014-.721-.05-1.086-.045l-1.1.056c-.185.011-.372.011-.557.035l-.556.084c-.371.06-.748.1-1.121.18a18.13,18.13,0,0,0-4.4,1.6c-.352.191-.69.412-1.039.618-.171.108-.352.2-.515.325l-.491.366a18.75,18.75,0,0,0-1.893,1.606l-.848.932-.213.234-.192.254-.382.51-.384.513-.336.548-.335.552-.168.276-.143.291-.566,1.176q-.227.614-.454,1.235a16.519,16.519,0,0,0,0,10.522q.229.62.453,1.234c.19.394.379.785.567,1.176l.142.291.168.277.337.552.335.548.385.513.382.51.192.253.213.234.848.933A18.743,18.743,0,0,0,66.542,77.2l.491.367c.163.123.345.216.516.325.349.206.687.427,1.039.618a17.094,17.094,0,0,0,2.175.952,17.6,17.6,0,0,0,2.224.649c.373.077.751.119,1.122.18.186.028.371.055.556.084s.372.023.557.034c.37.02.738.038,1.1.055s.727-.03,1.086-.044a15.554,15.554,0,0,0,2.105-.249,8.31,8.31,0,0,0,1.007-.231c.33-.09.663-.159.98-.265l.937-.345.461-.169.439-.21c.291-.14.578-.279.863-.418s.542-.319.81-.471.529-.317.781-.484l.717-.538A16.519,16.519,0,0,0,90.719,72.3a15.7,15.7,0,0,0,1.814-4.435,8.883,8.883,0,0,0,.208-.91c.043-.288.083-.56.119-.811s.077-.482.1-.695.017-.408.025-.582c.013-.342.023-.6.03-.789s0-.269,0-.269-.012.091-.025.269-.028.446-.05.787c-.009.174-.021.367-.034.578s-.068.443-.1.693-.083.52-.128.807a8.96,8.96,0,0,1-.216.9,15.785,15.785,0,0,1-1.834,4.4,16.486,16.486,0,0,1-4.2,4.683l-.713.531c-.251.164-.514.315-.776.476s-.518.335-.8.465l-.856.411-.435.206-.458.167-.928.338c-.315.105-.645.172-.971.261a8.359,8.359,0,0,1-1,.225,15.389,15.389,0,0,1-2.085.243c-.356.011-.714.047-1.075.041l-1.091-.056c-.183-.013-.368-.013-.551-.037l-.549-.084c-.367-.06-.741-.1-1.11-.18a17.414,17.414,0,0,1-2.2-.645,17.108,17.108,0,0,1-2.15-.946c-.348-.188-.681-.408-1.026-.612-.168-.108-.348-.2-.509-.322l-.485-.364a18.422,18.422,0,0,1-1.87-1.588l-.838-.923-.211-.231-.189-.251-.376-.5-.379-.507-.331-.542-.332-.545-.166-.274-.14-.289-.56-1.161-.447-1.22a16.345,16.345,0,0,1,0-10.4q.224-.612.447-1.219l.56-1.162.141-.288.165-.273.332-.545.331-.542.379-.508.377-.5.189-.25.21-.232.838-.923a18.223,18.223,0,0,1,1.869-1.588l.485-.364c.162-.122.34-.214.509-.321.344-.206.678-.424,1.026-.614a17.155,17.155,0,0,1,2.149-.945,17.539,17.539,0,0,1,2.2-.645c.369-.076.742-.119,1.109-.18l.55-.084c.183-.025.367-.023.551-.036l1.09-.056c.361-.005.719.029,1.075.041a15.376,15.376,0,0,1,2.085.243,8.109,8.109,0,0,1,1,.225c.326.089.656.156.971.261s.621.226.928.338c.153.055.306.111.458.167l.436.206.856.411c.285.13.538.314.8.465s.525.312.775.476l.714.531a16.462,16.462,0,0,1,4.2,4.683,15.824,15.824,0,0,1,1.835,4.4,9.021,9.021,0,0,1,.216.9q.068.432.128.807c.037.25.082.48.1.693s.025.406.034.579q.033.51.05.786c.013.178.025.268.025.268" transform="translate(-14.866 -11.728)" fill="#1a2e35"/>
        <path id="Trazado_213820" data-name="Trazado 213820" d="M110.626,82.3a2.695,2.695,0,1,1-2.695-2.695,2.695,2.695,0,0,1,2.695,2.695" transform="translate(-26.175 -19.799)" fill="#fff"/>
        <path id="Trazado_213821" data-name="Trazado 213821" d="M110.593,82.268a.573.573,0,0,0,.011-.173,2.093,2.093,0,0,0-.058-.494,2.687,2.687,0,0,0-.975-1.531,2.725,2.725,0,0,0-1.161-.53,2.779,2.779,0,1,0,0,5.456,2.73,2.73,0,0,0,1.161-.53,2.683,2.683,0,0,0,.975-1.531,2.1,2.1,0,0,0,.058-.494.573.573,0,0,0-.011-.173c-.022,0-.012.24-.122.648a2.692,2.692,0,0,1-.985,1.438,2.622,2.622,0,0,1-2.475.358,2.582,2.582,0,0,1-1.205-.91,2.592,2.592,0,0,1,0-3.07,2.577,2.577,0,0,1,1.205-.91,2.62,2.62,0,0,1,2.474.358,2.687,2.687,0,0,1,.986,1.438c.11.408.1.65.122.648" transform="translate(-26.142 -19.771)" fill="#1a2e35"/>
        <path id="Trazado_213822" data-name="Trazado 213822" d="M74.343,71.966l.761-1.709a5.168,5.168,0,0,0,2.7.808c.96,0,1.334-.27,1.334-.667,0-1.3-4.659-.352-4.659-3.4,0-1.463,1.195-2.657,3.629-2.657a6.144,6.144,0,0,1,2.974.714l-.714,1.721a4.844,4.844,0,0,0-2.271-.633c-.972,0-1.324.328-1.324.738,0,1.253,4.648.316,4.648,3.337,0,1.428-1.194,2.646-3.629,2.646a6.452,6.452,0,0,1-3.454-.9" transform="translate(-18.491 -16.004)" fill="#1a2e35"/>
        <rect id="Rectángulo_44966" data-name="Rectángulo 44966" width="1.962" height="7.846" transform="translate(63.876 48.679)" fill="#1a2e35"/>
        <path id="Trazado_213823" data-name="Trazado 213823" d="M199.6,77.307a17.8,17.8,0,1,0,17.8-17.8,17.8,17.8,0,0,0-17.8,17.8" transform="translate(-49.645 -14.802)" fill="#fff"/>
        <path id="Trazado_213824" data-name="Trazado 213824" d="M199.6,77.279s0-.1,0-.288.018-.479.032-.847c.008-.187.017-.4.026-.625s.065-.477.1-.747.083-.561.128-.871a9.689,9.689,0,0,1,.224-.977,16.885,16.885,0,0,1,1.948-4.763,17.735,17.735,0,0,1,4.519-5.087l.77-.578c.271-.18.557-.343.838-.518s.561-.366.871-.507l.926-.449.471-.225.5-.182,1.005-.37c.341-.114.7-.188,1.053-.285a9.112,9.112,0,0,1,1.082-.247,16.489,16.489,0,0,1,2.261-.267c.385-.014.775-.053,1.166-.047l1.184.058c.2.014.4.012.6.038l.6.09c.4.065.8.111,1.2.193a18.905,18.905,0,0,1,2.388.7,18.555,18.555,0,0,1,2.335,1.022c.379.2.742.443,1.116.664.183.117.379.217.554.349l.527.394a20.1,20.1,0,0,1,2.032,1.723l.911,1,.229.252.206.271.41.548.412.551.361.588.36.593.181.3.153.313.609,1.262.487,1.325a17.723,17.723,0,0,1,0,11.3l-.486,1.326-.609,1.263-.153.313-.181.3-.36.593-.361.589-.412.551-.411.548-.206.273-.228.252-.911,1a20.211,20.211,0,0,1-2.032,1.724l-.527.394c-.175.132-.37.232-.554.349-.375.222-.738.46-1.116.664a18.509,18.509,0,0,1-2.336,1.022,18.906,18.906,0,0,1-2.388.7c-.4.082-.806.128-1.2.193l-.6.091c-.2.026-.4.024-.6.038l-1.184.058c-.391.005-.781-.033-1.166-.047a16.477,16.477,0,0,1-2.261-.267,9.083,9.083,0,0,1-1.082-.248c-.354-.1-.711-.171-1.053-.285l-1.006-.369-.5-.183-.472-.225-.926-.449c-.309-.141-.582-.342-.87-.507s-.568-.339-.838-.518l-.771-.578a17.732,17.732,0,0,1-4.518-5.087,16.881,16.881,0,0,1-1.947-4.763,9.485,9.485,0,0,1-.224-.977q-.068-.465-.128-.871c-.037-.27-.082-.518-.1-.748s-.019-.437-.026-.624c-.014-.367-.025-.649-.032-.847s0-.288,0-.288.012.1.026.288.03.479.053.845c.011.186.023.394.037.622s.072.474.112.743.088.557.137.866a9.449,9.449,0,0,0,.231.97,16.947,16.947,0,0,0,1.97,4.722,17.675,17.675,0,0,0,4.507,5.028l.766.571c.269.177.552.338.833.511s.557.361.864.5l.92.441.467.222.491.179,1,.363c.338.112.693.184,1.043.279a8.975,8.975,0,0,0,1.072.243,16.407,16.407,0,0,0,2.239.259c.382.014.766.05,1.154.044l1.172-.06c.2-.014.394-.013.591-.038l.59-.091c.394-.065.794-.111,1.191-.193a18.7,18.7,0,0,0,2.36-.693,18.431,18.431,0,0,0,2.309-1.014c.373-.2.732-.439,1.1-.658.181-.116.374-.215.547-.346l.521-.39a19.846,19.846,0,0,0,2.007-1.706l.9-.991.226-.249.2-.27.4-.542.407-.545.356-.582.355-.586.179-.294.151-.31.6-1.248.479-1.31a17.531,17.531,0,0,0,0-11.164l-.48-1.31-.6-1.248-.151-.31-.179-.294-.355-.586-.356-.581-.407-.545-.4-.542-.2-.269-.226-.249-.9-.99a19.848,19.848,0,0,0-2.007-1.706l-.521-.39c-.173-.131-.366-.23-.547-.346-.37-.219-.728-.455-1.1-.658a18.374,18.374,0,0,0-2.308-1.014,18.7,18.7,0,0,0-2.36-.693c-.4-.082-.8-.128-1.191-.193l-.59-.091c-.2-.026-.4-.025-.592-.038l-1.171-.06c-.388-.007-.772.031-1.154.044a16.3,16.3,0,0,0-2.239.259,9.074,9.074,0,0,0-1.071.242c-.351.1-.7.168-1.044.279l-1,.364-.491.179-.468.222-.92.441c-.307.139-.578.337-.864.5s-.563.334-.833.511l-.766.571a17.658,17.658,0,0,0-4.508,5.028,16.947,16.947,0,0,0-1.97,4.722,9.468,9.468,0,0,0-.232.971q-.073.463-.137.866c-.04.268-.089.515-.112.743s-.026.436-.037.622c-.023.367-.041.648-.053.845s-.026.288-.026.288" transform="translate(-49.645 -14.773)" fill="#1a2e35"/>
        <path id="Trazado_213825" data-name="Trazado 213825" d="M190.588,97.129a2.894,2.894,0,1,0,2.893-2.893,2.893,2.893,0,0,0-2.893,2.893" transform="translate(-47.404 -23.439)" fill="#fff"/>
        <path id="Trazado_213826" data-name="Trazado 213826" d="M190.584,97.1a.6.6,0,0,1-.012-.186,2.261,2.261,0,0,1,.062-.531,2.874,2.874,0,0,1,1.047-1.642,2.917,2.917,0,0,1,1.246-.569,2.982,2.982,0,0,1,1.569.118,2.951,2.951,0,0,1,1.4,1.039,2.975,2.975,0,0,1,0,3.545,2.974,2.974,0,0,1-2.965,1.156,2.926,2.926,0,0,1-1.246-.569,2.874,2.874,0,0,1-1.047-1.643,2.261,2.261,0,0,1-.062-.531.613.613,0,0,1,.012-.186c.024,0,.013.258.131.7a2.881,2.881,0,0,0,1.058,1.543,2.806,2.806,0,0,0,2.657.385,2.768,2.768,0,0,0,1.294-.977,2.781,2.781,0,0,0,0-3.3,2.768,2.768,0,0,0-1.294-.977,2.812,2.812,0,0,0-2.657.385,2.878,2.878,0,0,0-1.058,1.543c-.118.439-.107.7-.131.7" transform="translate(-47.4 -23.41)" fill="#1a2e35"/>
        <path id="Trazado_213827" data-name="Trazado 213827" d="M219.817,77.859v7.522h-1.751l-3.321-4.008v4.008H212.66V77.859h1.751l3.321,4.008V77.859Z" transform="translate(-52.894 -19.366)" fill="#1a2e35"/>
        <path id="Trazado_213828" data-name="Trazado 213828" d="M223.677,81.571a4.19,4.19,0,1,1,4.181,3.912,3.934,3.934,0,0,1-4.181-3.912m6.212,0a2.034,2.034,0,1,0-2.031,2.149,2.014,2.014,0,0,0,2.031-2.149" transform="translate(-55.635 -19.316)" fill="#1a2e35"/>
        <path id="Trazado_213829" data-name="Trazado 213829" d="M170.763,40.091a15.375,15.375,0,1,1,18.87-7.444,15.377,15.377,0,0,1-18.87,7.444" transform="translate(-39.94 -2.549)" fill="#fff"/>
        <path id="Trazado_213830" data-name="Trazado 213830" d="M169.817,39.706s.077.035.23.1l.682.266.5.195c.189.062.4.112.627.176l.735.2a8.467,8.467,0,0,0,.85.159,14.573,14.573,0,0,0,4.445.1,15.32,15.32,0,0,0,5.586-1.831l.723-.412c.235-.153.464-.322.7-.485s.483-.319.7-.515l.673-.579.621-.59.035-.038.639-.669c.208-.231.39-.489.588-.735a7.833,7.833,0,0,0,.569-.772,14.2,14.2,0,0,0,.989-1.7c.144-.3.308-.6.439-.908q.245-.649.494-1.311a1.386,1.386,0,0,0,.043-.134q.066-.251.134-.5c.086-.338.189-.675.261-1.021a16.281,16.281,0,0,0,.27-2.131,16.084,16.084,0,0,0-.007-2.2c-.032-.37-.1-.739-.143-1.113-.029-.186-.041-.375-.086-.558l-.131-.554a13.017,13.017,0,0,0-.518-1.767q-.17-.433-.342-.865l-.408-.906-.144-.257-.294-.514-.295-.515-.342-.489-.346-.489-.174-.246-.2-.229L186.375,14.2l-.116-.11a15.307,15.307,0,0,0-8.953-3.889l-.143-.008-2.285-.015-.3.014-.3.041-.594.081-.591.083-.578.137-.575.137-.287.069-.942.321-.865.341a13.037,13.037,0,0,0-1.644.828l-.494.282c-.165.093-.311.213-.467.319-.3.22-.618.426-.91.655a16.071,16.071,0,0,0-1.614,1.5,16.315,16.315,0,0,0-1.373,1.653c-.2.289-.379.594-.568.887l-.277.442a1.36,1.36,0,0,0-.068.122l-.621,1.257c-.138.309-.242.63-.364.94a14.393,14.393,0,0,0-.566,1.884,7.9,7.9,0,0,0-.176.942c-.044.314-.109.623-.136.932s-.036.624-.053.931c0,.246-.007.648-.01.9v0q.019.449.037.888c.006.294.071.579.1.864s.074.567.122.843q.1.409.193.81a15.333,15.333,0,0,0,2.477,5.331,14.577,14.577,0,0,0,3.1,3.182,8.141,8.141,0,0,0,.7.513l.646.4c.2.122.382.243.557.338l.486.236.66.317c.149.071.227.1.227.1s-.073-.044-.219-.119l-.651-.333-.48-.243c-.172-.1-.352-.221-.551-.345l-.639-.406a8.345,8.345,0,0,1-.69-.518,14.657,14.657,0,0,1-3.064-3.185,15.276,15.276,0,0,1-2.434-5.3q-.094-.4-.189-.8c-.047-.274-.078-.554-.118-.836s-.094-.565-.1-.856-.022-.583-.033-.88c0-.235.007-.62.01-.855,0-.015,0-.029,0-.044q.027-.453.055-.915c.028-.307.092-.612.137-.923a7.73,7.73,0,0,1,.177-.933,14.223,14.223,0,0,1,.565-1.863c.121-.307.224-.625.361-.93l.62-1.246a1.176,1.176,0,0,1,.065-.116l.275-.436c.187-.29.362-.592.563-.877a16.167,16.167,0,0,1,1.361-1.632,15.867,15.867,0,0,1,1.6-1.48c.289-.227.6-.43.9-.647.154-.1.3-.223.462-.315l.488-.279a17.238,17.238,0,0,1,2.043-1l1.095-.372.275-.093.283-.068.569-.134.572-.135.584-.082.587-.08.294-.041.3-.013,2.27.016.129.008a15.146,15.146,0,0,1,8.846,3.842l.107.1,1.548,1.635.193.226.171.243.343.484.338.482.291.51.291.507.143.254.119.264.476,1.053a17.156,17.156,0,0,1,.661,2.178l.13.547c.044.182.056.369.086.552.047.369.11.734.143,1.1a16.7,16.7,0,0,1-.254,4.286c-.071.342-.173.675-.256,1.01l-.131.5a1.276,1.276,0,0,1-.041.128l-.488,1.3c-.128.31-.291.6-.432.9a14.26,14.26,0,0,1-.976,1.685,7.794,7.794,0,0,1-.561.766c-.2.245-.375.5-.58.731l-.631.665-.31.328-.031.029-.972.842c-.216.2-.466.342-.693.512s-.458.332-.691.485l-.716.411a15.285,15.285,0,0,1-5.535,1.842,14.67,14.67,0,0,1-4.42-.064,8.255,8.255,0,0,1-.849-.15l-.733-.189c-.227-.061-.439-.107-.628-.167l-.506-.185-.687-.249c-.156-.055-.237-.079-.237-.079" transform="translate(-39.923 -2.533)" fill="#1a2e35"/>
        <path id="Trazado_213831" data-name="Trazado 213831" d="M164.05,56.73a2.506,2.506,0,0,1-1.561-3.958,2.481,2.481,0,0,1,2.452-.968,2.506,2.506,0,0,1,1.562,3.958,2.48,2.48,0,0,1-2.453.968" transform="translate(-40.292 -12.874)" fill="#fff"/>
        <path id="Trazado_213832" data-name="Trazado 213832" d="M163.477,56.532a.532.532,0,0,0,.143.074,1.943,1.943,0,0,0,.443.133,2.489,2.489,0,0,0,1.663-.264,2.535,2.535,0,0,0,.88-.792,2.572,2.572,0,0,0,.446-1.285,2.543,2.543,0,0,0-.342-1.463,2.569,2.569,0,0,0-2.809-1.22,2.545,2.545,0,0,0-1.3.749,2.579,2.579,0,0,0-.635,1.2,2.529,2.529,0,0,0,.023,1.183,2.489,2.489,0,0,0,.942,1.4,2.008,2.008,0,0,0,.4.232.519.519,0,0,0,.151.054c.009-.018-.2-.1-.506-.343a2.487,2.487,0,0,1-.859-1.369,2.43,2.43,0,0,1,.609-2.239,2.393,2.393,0,0,1,1.219-.689,2.4,2.4,0,0,1,2.612,1.134,2.384,2.384,0,0,1,.329,1.361,2.429,2.429,0,0,1-1.219,1.973,2.493,2.493,0,0,1-1.587.307c-.388-.057-.59-.156-.6-.136" transform="translate(-40.269 -12.847)" fill="#1a2e35"/>
        <path id="Trazado_213833" data-name="Trazado 213833" d="M175.256,25.838h2.326a1.977,1.977,0,0,1,2.029-1.988,1.882,1.882,0,0,1,1.822,1.2,2.083,2.083,0,0,1-.165,1.883,2.523,2.523,0,0,1-2.826.965v5.244h2.3V30.072a4.49,4.49,0,0,0,3.225-4.387,4.179,4.179,0,0,0-4.355-4.191c-1,0-4.4.241-4.355,4.344" transform="translate(-43.591 -5.346)" fill="#1a2e35"/>
        <rect id="Rectángulo_44967" data-name="Rectángulo 44967" width="2.333" height="2.179" transform="translate(134.844 28.878)" fill="#1a2e35"/>
        <path id="Trazado_213834" data-name="Trazado 213834" d="M57.338,209.192a73.833,73.833,0,0,0-5.835-5.008,22.345,22.345,0,0,0-6.613-2.628c-1.358-.131-7.709,1.708-7.709,1.708s-9.373-.832-10.95.263-1.445,2.234-.789,3.066,3.2.569,6,.613a14.028,14.028,0,0,1,3.548.307l-4.073,4.336,10.555,2.934,6.438-.241,2.322,2.919Z" transform="translate(-6.213 -50.131)" fill="#ffc19d"/>
        <path id="Trazado_213835" data-name="Trazado 213835" d="M25.277,198.667l.255,9.34.452,1.161,4.607,5.617,11.241-.741-8.955-3.489-3.184-2.42-1.231-3.991s.382-6.156-3.184-5.477" transform="translate(-6.287 -49.401)" fill="#ffc19d"/>
        <path id="Trazado_213836" data-name="Trazado 213836" d="M22.61,211.524H19.872s-3.572-5.874-6.84-3.879l.751,1.16a2.028,2.028,0,0,0-2.407.572l9.011,7.9H20.8l9.6-.618Z" transform="translate(-2.83 -51.544)" fill="#ffc19d"/>
        <path id="Trazado_213837" data-name="Trazado 213837" d="M26.343,213.9a5.322,5.322,0,0,1-.775.033,5.088,5.088,0,0,0-1.9.381l-.092.041-.059-.083c-.277-.392-.621-.814-.973-1.255l-1.944-2.4a7.535,7.535,0,0,1-.772-1.023,5.478,5.478,0,0,1,.911.905c.53.588,1.246,1.415,2.005,2.356.355.443.69.865.973,1.284l-.151-.043a4.612,4.612,0,0,1,2-.311,2.155,2.155,0,0,1,.775.113" transform="translate(-4.932 -52.131)" fill="#ff9c6a"/>
        <path id="Trazado_213838" data-name="Trazado 213838" d="M52.454,208.091a23.476,23.476,0,0,0-3.168,1.341,23.566,23.566,0,0,0-2.771,2.037,3.15,3.15,0,0,1,.665-.778,9.849,9.849,0,0,1,4.266-2.426,3.156,3.156,0,0,1,1.009-.174" transform="translate(-11.569 -51.756)" fill="#ff9c6a"/>
        <path id="Trazado_213839" data-name="Trazado 213839" d="M41.6,204.873a13.281,13.281,0,0,1-1.289,1.584A13.35,13.35,0,0,1,38.975,208a5.976,5.976,0,0,1,1.137-1.712,5.993,5.993,0,0,1,1.486-1.418" transform="translate(-9.693 -50.957)" fill="#ff9c6a"/>
        <path id="Trazado_213840" data-name="Trazado 213840" d="M28.763,212.43a1.352,1.352,0,0,1-.215-.214l-.58-.646-.905-1.034-.563-.648a7.078,7.078,0,0,1-.609-.76,3.963,3.963,0,0,1-.639-2.139c-.016-.8-.032-1.645-.05-2.538-.029-1.792-.062-3.758-.1-5.826l0-.113.106-.015.3-.041a2.177,2.177,0,0,1,1.817.645,3.993,3.993,0,0,1,.869,1.641,10.77,10.77,0,0,1,.338,3.365l-.005-.041c.457,1.515.862,2.862,1.205,4l-.03-.044,2.315,1.809.614.5a1.219,1.219,0,0,1,.2.185,1.158,1.158,0,0,1-.233-.146l-.642-.46L29.6,208.16l-.022-.017-.009-.027c-.357-1.132-.781-2.475-1.257-3.982l-.006-.018v-.023a10.716,10.716,0,0,0-.349-3.281,3.776,3.776,0,0,0-.814-1.534,1.917,1.917,0,0,0-1.61-.566l-.273.037.1-.128c.027,2.068.052,4.034.075,5.827.074,1.774-.2,3.464.6,4.583a7.028,7.028,0,0,0,.581.751l.548.661.872,1.062c.222.277.4.5.543.677a1.334,1.334,0,0,1,.176.247" transform="translate(-6.244 -49.358)" fill="#ff9c6a"/>
        <path id="Trazado_213841" data-name="Trazado 213841" d="M21.348,217.418a.763.763,0,0,1-.479-.137,5.142,5.142,0,0,1-1.057-.844,29.2,29.2,0,0,1-2.823-3.414c-1.019-1.4-1.882-2.7-2.488-3.658-.3-.478-.541-.869-.7-1.143a1.76,1.76,0,0,1-.222-.441,1.9,1.9,0,0,1,.307.387l.767,1.1c.644.929,1.53,2.214,2.544,3.606a38.928,38.928,0,0,0,2.746,3.439,6.282,6.282,0,0,0,.978.886,3.784,3.784,0,0,0,.427.222" transform="translate(-3.377 -51.681)" fill="#ff9c6a"/>
        <path id="Trazado_213842" data-name="Trazado 213842" d="M42.653,209.439l-4.96-.334-1.482-4.064-.273-2.732a2.606,2.606,0,0,0-2.593-2.37H33.3l.278,6.7,1.019,4.161,4.031,2.378h4.928Z" transform="translate(-8.282 -49.73)" fill="#ffc19d"/>
        <path id="Trazado_213843" data-name="Trazado 213843" d="M42.653,209.439l-4.96-.334-1.482-4.064-.273-2.732a2.606,2.606,0,0,0-2.593-2.37H33.3l.278,6.7,1.019,4.161,4.031,2.378" transform="translate(-8.282 -49.73)" fill="#ffc19d"/>
        <path id="Trazado_213844" data-name="Trazado 213844" d="M38.58,213.133a1.564,1.564,0,0,1-.291-.141l-.811-.451L34.5,210.834l-.032-.019-.01-.038-1.043-4.155,0-.011V206.6c-.088-2.014-.187-4.291-.291-6.7l-.005-.128.131-.006c.044,0,.095,0,.145,0a2.722,2.722,0,0,1,2.554,2.094,5.709,5.709,0,0,1,.11.818c.026.265.052.528.077.787.05.518.1,1.025.146,1.516l-.007-.028c.542,1.513,1.034,2.883,1.46,4.072l-.082-.061,3.626.286.986.092a1.666,1.666,0,0,1,.342.05,1.664,1.664,0,0,1-.346,0l-.989-.042-3.632-.2-.06,0-.022-.058c-.439-1.183-.945-2.548-1.5-4.055l0-.014,0-.016q-.077-.737-.157-1.515-.039-.389-.08-.787a5.5,5.5,0,0,0-.108-.783,2.471,2.471,0,0,0-2.315-1.9c-.046,0-.09,0-.133,0l.125-.134c.1,2.406.186,4.684.266,6.7l0-.023.995,4.167-.042-.057,2.932,1.778.787.492a1.536,1.536,0,0,1,.264.186" transform="translate(-8.238 -49.688)" fill="#ff9c6a"/>
        <path id="Trazado_213845" data-name="Trazado 213845" d="M166.735,96.312c-4.251-16.2-8.176-35.057-31.865-33.363,0,0-14.6,2.809-21.532,13.583-4.078,6.338-7.611,33.658-8.314,55.236h0v.011c-.029.879.337,7,.313,7.863l62.707,5.22h11.3a111.012,111.012,0,0,0-4.113-22.55c-3.312-10.8-6.987-20.264-8.492-26" transform="translate(-26.122 -15.631)" fill="#1a2e35"/>
        <path id="Trazado_213846" data-name="Trazado 213846" d="M134.471,70.735l1.482-1.412,16.016,6.454a4.471,4.471,0,0,1,4.221,4.328l-.14,52.183a14.626,14.626,0,0,1-2.826,9.424l-2.249,2.97c-5.128,6.77-15.678,6.214-19.739-1.247a5.665,5.665,0,0,1-.566-1.349,10.681,10.681,0,0,1-.238-1.167c-.476-4.2-.5-7.839-.5-7.839-.285-4.61-.379-6.5-.38-6.458,0,0-9.809-1.128-12.461-13.719-1.318-6.263-1.07-14.877-.7-23.356.513-11.735,8.652-18.823,18.085-18.812" transform="translate(-28.875 -17.243)" fill="#ffc19d"/>
        <path id="Trazado_213847" data-name="Trazado 213847" d="M146.044,106.872a1.629,1.629,0,0,0,1.652,1.563,1.559,1.559,0,0,0,1.6-1.551,1.631,1.631,0,0,0-1.651-1.564,1.559,1.559,0,0,0-1.606,1.552" transform="translate(-36.325 -26.196)" fill="#1a2e35"/>
        <path id="Trazado_213848" data-name="Trazado 213848" d="M123.785,107.453a1.629,1.629,0,0,0,1.652,1.563,1.559,1.559,0,0,0,1.6-1.551,1.63,1.63,0,0,0-1.651-1.564,1.559,1.559,0,0,0-1.606,1.552" transform="translate(-30.789 -26.34)" fill="#1a2e35"/>
        <path id="Trazado_213849" data-name="Trazado 213849" d="M118.7,100.086c.213.2,1.4-.772,3.152-.856,1.748-.108,3.079.729,3.258.5.089-.1-.136-.473-.716-.852a4.475,4.475,0,0,0-2.622-.667,4.3,4.3,0,0,0-2.5.947c-.518.44-.681.833-.577.923" transform="translate(-29.517 -24.427)" fill="#1a2e35"/>
        <path id="Trazado_213850" data-name="Trazado 213850" d="M141.827,99.173c.233.179,1.315-.912,3.048-1.174,1.728-.288,3.138.408,3.294.167.077-.108-.183-.456-.8-.774A4.472,4.472,0,0,0,144.692,97a4.3,4.3,0,0,0-2.385,1.2c-.468.491-.591.9-.479.978" transform="translate(-35.267 -24.112)" fill="#1a2e35"/>
        <path id="Trazado_213851" data-name="Trazado 213851" d="M132.73,113.076a11.6,11.6,0,0,0-2.871-.37c-.449-.024-.877-.092-.968-.393a2.276,2.276,0,0,1,.231-1.341q.551-1.655,1.152-3.472c1.593-4.941,2.723-9,2.524-9.057s-1.654,3.892-3.248,8.833c-.381,1.219-.748,2.379-1.095,3.49a2.588,2.588,0,0,0-.144,1.767,1.126,1.126,0,0,0,.768.618,3.058,3.058,0,0,0,.766.067,11.41,11.41,0,0,0,2.884-.14" transform="translate(-31.887 -24.485)" fill="#1a2e35"/>
        <path id="Trazado_213852" data-name="Trazado 213852" d="M134,143.81a32.331,32.331,0,0,0,16.771-5.387s-3.834,9-16.6,8.45Z" transform="translate(-33.33 -34.43)" fill="#ff9c6a"/>
        <path id="Trazado_213853" data-name="Trazado 213853" d="M139.953,122.337a2.885,2.885,0,0,0-2.043-.968,2.4,2.4,0,0,0-2.466.941,1.8,1.8,0,0,0-.123,1.415c.128.2.032.207.229.349a6.55,6.55,0,0,0,2.379,1.041,2.122,2.122,0,0,0,2.267-.7,1.829,1.829,0,0,0-.243-2.081" transform="translate(-33.635 -30.185)" fill="#ff9c6a"/>
        <path id="Trazado_213854" data-name="Trazado 213854" d="M141.273,88.6c.225.448,1.735-.012,3.586-.045,1.85-.074,3.4.3,3.581-.163.077-.219-.246-.623-.908-.989a5.556,5.556,0,0,0-2.768-.624,5.353,5.353,0,0,0-2.692.783c-.62.4-.9.824-.8,1.038" transform="translate(-35.134 -21.583)" fill="#1a2e35"/>
        <path id="Trazado_213855" data-name="Trazado 213855" d="M119.031,95.835c.328.382,1.514-.091,2.964-.183,1.447-.143,2.693.133,2.956-.3.114-.208-.1-.6-.655-.947a4.3,4.3,0,0,0-4.77.387c-.492.435-.64.853-.494,1.041" transform="translate(-29.593 -23.346)" fill="#1a2e35"/>
        <path id="Trazado_213856" data-name="Trazado 213856" d="M160.468,102.092s-6.741,1.63-16.309-18.973c-3.257-7.014-9.582-14.08-9.582-14.08l5.934-.856S158.2,73.167,158.5,73.39s4.464,9.15,4.464,9.15Z" transform="translate(-33.473 -16.959)" fill="#1a2e35"/>
        <path id="Trazado_213857" data-name="Trazado 213857" d="M166.1,111.019c-.045-.945.936-3.228,1.862-3.421,2.473-.514,6.976-.539,7.335,5.79.491,8.651-8.3,7.359-8.326,7.112-.023-.193-.716-6.217-.872-9.481" transform="translate(-41.313 -26.712)" fill="#ffc19d"/>
        <path id="Trazado_213858" data-name="Trazado 213858" d="M170.527,117.982c.036-.03.156.1.418.2a1.512,1.512,0,0,0,1.128-.041c.895-.387,1.581-1.882,1.536-3.444a4.979,4.979,0,0,0-.545-2.134,1.74,1.74,0,0,0-1.2-1.092.768.768,0,0,0-.866.463c-.1.249-.038.418-.083.436-.023.023-.194-.134-.144-.5a.965.965,0,0,1,.31-.562,1.141,1.141,0,0,1,.821-.267,2.122,2.122,0,0,1,1.651,1.252,5.122,5.122,0,0,1,.659,2.382c.044,1.746-.756,3.428-1.986,3.861a1.617,1.617,0,0,1-1.391-.151c-.28-.2-.337-.389-.307-.406" transform="translate(-42.413 -27.619)" fill="#ff9c6a"/>
        <path id="Trazado_213859" data-name="Trazado 213859" d="M140.852,123c-.026.222-1.5.189-3.259.529-1.759.322-3.124.89-3.229.693-.108-.171,1.189-1.1,3.086-1.45s3.44.029,3.4.228" transform="translate(-33.418 -30.501)" fill="#1a2e35"/>
        <path id="Trazado_213860" data-name="Trazado 213860" d="M233,210.256s7.246-6.207,9.346-6.372,7.622.861,7.622.861,3.488.03,5.222-.187a13.278,13.278,0,0,1,5.444.265c.523.159,1.176,1.46-.362,2.346-.651.375-6.987.8-6.987.8l15.853,4.528-2.059,1.7a1.612,1.612,0,0,1-.969.368l-22.824.809-1.045,2.551Z" transform="translate(-57.953 -50.707)" fill="#ffc19d"/>
        <path id="Trazado_213861" data-name="Trazado 213861" d="M256.027,210.289h7.4s2.6-3.448,3.536-4.885c.821-1.256,1.811-1.625,2.675-1.328a.987.987,0,0,1,.525.451,1.021,1.021,0,0,1,.014.989l-3.255,6.077,1.706-.576s3.418-3.347,4.081-4.12,3.094-4.034,5.249-1.658l-2.983,3.315,2.983-2.1s2.376-2.044,3.647.387l-8.872,7.481" transform="translate(-63.681 -50.735)" fill="#ffc19d"/>
        <path id="Trazado_213862" data-name="Trazado 213862" d="M245.769,207.181a1.574,1.574,0,0,1,.3-.1,4.325,4.325,0,0,1,.88-.2,7.074,7.074,0,0,1,3.326.346,11.721,11.721,0,0,1,2.135.983c.365.216.738.452,1.109.711l.562.4a5.844,5.844,0,0,0,.547.374c1.874.146,4.018.272,6.264.43l-.1.044c.691-.823,1.376-1.719,2.037-2.655.258-.364.5-.732.745-1.1s.465-.743.728-1.093a5.976,5.976,0,0,1,.872-.968,2.747,2.747,0,0,1,.538-.373,1.139,1.139,0,0,1,.68-.15l-.044,0a1.551,1.551,0,0,1,1.167.281,1.29,1.29,0,0,1,.388,1.107l0,.02-.012.022-3.589,6.438.008-.018a2.262,2.262,0,0,1-1.306,1.381,3.918,3.918,0,0,1-1.394.3c-.388.017-.684,0-.884-.008a1.559,1.559,0,0,1-.3-.03,1.524,1.524,0,0,1,.305-.016c.2,0,.5,0,.877-.035a3.959,3.959,0,0,0,1.347-.323,2.133,2.133,0,0,0,1.2-1.308l0-.009.005-.009,3.525-6.473-.014.042a1.055,1.055,0,0,0-.311-.893,1.319,1.319,0,0,0-.984-.219h-.01l-.033,0a.973.973,0,0,0-.5.133,2.439,2.439,0,0,0-.488.34,5.7,5.7,0,0,0-.831.929c-.488.688-.941,1.463-1.468,2.188-.666.944-1.353,1.84-2.055,2.672l-.041.048-.064,0c-2.261-.166-4.365-.3-6.3-.467a4.013,4.013,0,0,1-.624-.416l-.554-.4c-.365-.261-.73-.5-1.089-.714a11.8,11.8,0,0,0-2.089-1,7.211,7.211,0,0,0-3.26-.413,5.136,5.136,0,0,0-.88.158,1.594,1.594,0,0,1-.309.057" transform="translate(-61.129 -50.693)" fill="#ff9c6a"/>
        <path id="Trazado_213863" data-name="Trazado 213863" d="M282.386,205.655a1.846,1.846,0,0,1-.289.407c-.2.251-.493.609-.859,1.047-.735.876-1.762,2.074-2.909,3.387-1.167,1.292-2.136,2.555-2.989,3.336a7,7,0,0,1-1.068.85,1.318,1.318,0,0,1-.456.21,3.329,3.329,0,0,1,.4-.293,9.22,9.22,0,0,0,1-.9c.808-.8,1.745-2.069,2.918-3.369,1.149-1.315,2.2-2.5,2.97-3.343.385-.423.7-.763.922-.993a1.869,1.869,0,0,1,.364-.341" transform="translate(-68.105 -51.152)" fill="#ff9c6a"/>
        <path id="Trazado_213864" data-name="Trazado 213864" d="M277.478,206.117a7.427,7.427,0,0,1-.9,1.057c-.579.63-1.391,1.489-2.3,2.426-.745.769-1.439,1.47-1.995,2.019l-.02.019-.022.007a7.941,7.941,0,0,1-1.833.474,2.883,2.883,0,0,1,.475-.2l1.293-.472-.041.026c.532-.572,1.213-1.288,1.958-2.055.909-.937,1.742-1.775,2.355-2.373a7.415,7.415,0,0,1,1.029-.931" transform="translate(-67.258 -51.266)" fill="#ff9c6a"/>
        <path id="Trazado_213865" data-name="Trazado 213865" d="M199.709,163.352s10.64,2.742,11.684,17.2c.594,8.239-3.791,34.707-3.791,34.707l15.714-16.138,14.005,9.744s-19.052,23.294-23.449,26.8-11.4,9.135-13.678,8.678-2.279-10.962-2.279-10.962V175.374Z" transform="translate(-49.226 -40.63)" fill="#54a813"/>
        <path id="Trazado_213866" data-name="Trazado 213866" d="M86.905,165.709s-9.467,3.113-9.081,21.6.083,24.717.083,24.717L63.72,197.015l-11.785,13S65.12,229.6,74.347,239.123c8.694,8.971,16.422,1.18,18.934-5.126,2.035-5.11,3.671-24.533,3.671-24.533Z" transform="translate(-12.918 -41.216)" fill="#54a813"/>
        <g id="Grupo_149069" data-name="Grupo 149069" transform="translate(144.887 139.761)" opacity="0.3">
          <g id="Grupo_149068" data-name="Grupo 149068">
            <g id="Grupo_149067" data-name="Grupo 149067" clip-path="url(#clip-path-5)">
              <path id="Trazado_213867" data-name="Trazado 213867" d="M199.277,202.307c.854-5.411,1.082-11.308-1.388-16.275-6.067,15-5.794,32.213-3.623,48.1l4.809,13.742c3.028-9.209.149-19.018.215-28.645.038-5.468-.867-11.512-.013-16.923" transform="translate(-192.855 -186.032)"/>
            </g>
          </g>
        </g>
        <path id="Trazado_213868" data-name="Trazado 213868" d="M95.859,174.959s6.329,42.563,7.554,46.29,1.225,14.711,1.225,14.711S98,248.325,97.587,256.921l79.987.165-5.2-35.317a59.951,59.951,0,0,1-.118-6.706c.336-6.22.817-19.563,2.6-27.763,2.073-9.535-.718-25.853-.718-25.853l-23.892-5.885c-5.655,8.126-19.763,8.235-25.328,0l-26.964,7.622Z" transform="translate(-23.843 -38.692)" fill="#54a813"/>
        <path id="Trazado_213869" data-name="Trazado 213869" d="M199.794,239.1a1.5,1.5,0,0,1,.239-.379c.166-.234.417-.566.735-.97a22.14,22.14,0,0,1,2.745-2.939,14.25,14.25,0,0,1,3.387-2.174c.47-.21.856-.367,1.131-.458a1.519,1.519,0,0,1,.431-.122,22.357,22.357,0,0,0-4.78,2.948,28.678,28.678,0,0,0-2.774,2.861,12.041,12.041,0,0,1-1.113,1.233" transform="translate(-49.694 -57.719)" fill="#1a2e35"/>
        <path id="Trazado_213870" data-name="Trazado 213870" d="M97.45,237.046c-.048.014-.234-.865-.838-2.165a12.813,12.813,0,0,0-8.243-6.991c-1.38-.384-2.278-.424-2.273-.474a2.631,2.631,0,0,1,.629.014,10.708,10.708,0,0,1,1.69.285,12.3,12.3,0,0,1,8.362,7.092,10.7,10.7,0,0,1,.557,1.621,2.6,2.6,0,0,1,.116.618" transform="translate(-21.414 -56.562)" fill="#1a2e35"/>
        <path id="Trazado_213871" data-name="Trazado 213871" d="M99.487,207.087a1.307,1.307,0,0,1-.362-.2c-.225-.139-.539-.358-.919-.641a22.3,22.3,0,0,1-2.747-2.469,32.4,32.4,0,0,1-2.369-2.831,8.139,8.139,0,0,1-.859-1.264,9.883,9.883,0,0,1,1,1.152c.6.725,1.429,1.725,2.412,2.766a30.82,30.82,0,0,0,2.673,2.5,13.027,13.027,0,0,1,1.168.98" transform="translate(-22.94 -49.667)" fill="#1a2e35"/>
        <path id="Trazado_213872" data-name="Trazado 213872" d="M163.431,240.2s-.019.036-.065.1l-.211.272c-.193.232-.456.6-.843,1.02a33.559,33.559,0,0,1-3.463,3.423,46.472,46.472,0,0,1-5.837,4.251,80.587,80.587,0,0,1-7.775,4.208c-2.831,1.352-5.566,2.55-8.042,3.662s-4.694,2.138-6.527,3.06-3.292,1.712-4.286,2.285c-.5.279-.88.515-1.144.662l-.3.169a.059.059,0,1,1-.014-.023l.287-.19c.255-.162.626-.412,1.12-.7.98-.6,2.428-1.421,4.255-2.362s4.038-1.99,6.511-3.113,5.2-2.33,8.028-3.678a83.905,83.905,0,0,0,7.761-4.178,48.3,48.3,0,0,0,5.844-4.188,37.183,37.183,0,0,0,3.506-3.351c.4-.414.672-.766.877-.987l.23-.255c.053-.057.082-.085.086-.082" transform="translate(-31.049 -59.745)" fill="#1a2e35"/>
        <path id="Trazado_213873" data-name="Trazado 213873" d="M98.405,265.4a.465.465,0,0,1,0-.105c0-.08.008-.181.014-.309q.027-.43.075-1.2a29.84,29.84,0,0,1,.9-4.449,73.77,73.77,0,0,1,6.157-14.681l-.014.065c-.318-4.632-.8-9.8-1.352-15.243-1.055-10.271-2.162-19.554-2.97-26.272-.406-3.348-.736-6.061-.966-7.954-.11-.929-.2-1.655-.257-2.164-.026-.237-.047-.424-.062-.563a1.094,1.094,0,0,1-.012-.193,1.068,1.068,0,0,1,.038.19c.021.138.05.324.086.56.072.508.174,1.231.305,2.158.249,1.889.606,4.6,1.047,7.945.853,6.713,1.99,15.992,3.045,26.268.554,5.441,1.026,10.617,1.33,15.254l0,.034-.017.032a75.946,75.946,0,0,0-6.226,14.6,32.174,32.174,0,0,0-.965,4.42q-.071.767-.111,1.2c-.014.128-.024.228-.033.308a.468.468,0,0,1-.017.1" transform="translate(-24.475 -47.837)" fill="#1a2e35"/>
        <path id="Trazado_213874" data-name="Trazado 213874" d="M201.117,182.706a1.293,1.293,0,0,1,.01.211c0,.151,0,.356,0,.619-.007.544.009,1.348-.042,2.381-.057,2.068-.27,5.055-.637,8.735s-.9,8.049-1.436,12.905-1.076,10.2-1.246,15.835a87.443,87.443,0,0,0,1.092,15.821c.711,4.833,1.548,9.155,2.2,12.794s1.148,6.59,1.423,8.64c.149,1.023.232,1.822.291,2.363.027.261.048.465.064.615a1.273,1.273,0,0,1,.013.211,1.225,1.225,0,0,1-.039-.208l-.089-.612c-.076-.539-.176-1.335-.34-2.355-.3-2.043-.818-4.989-1.5-8.622s-1.529-7.954-2.253-12.792a86.523,86.523,0,0,1-1.115-15.862c.171-5.646.717-11,1.268-15.855s1.106-9.223,1.491-12.9.63-6.656.718-8.72c.066-1.031.067-1.834.09-2.378.01-.262.017-.467.023-.618a1.31,1.31,0,0,1,.017-.211" transform="translate(-49.118 -45.444)" fill="#1a2e35"/>
        <g id="Grupo_149072" data-name="Grupo 149072" transform="translate(75.184 146.38)" opacity="0.3">
          <g id="Grupo_149071" data-name="Grupo 149071">
            <g id="Grupo_149070" data-name="Grupo 149070" clip-path="url(#clip-path-6)">
              <path id="Trazado_213875" data-name="Trazado 213875" d="M100.57,194.843a95.6,95.6,0,0,0,4.637,40.358Z" transform="translate(-100.076 -194.843)"/>
            </g>
          </g>
        </g>
        <g id="Grupo_149075" data-name="Grupo 149075" transform="translate(105.558 188.576)" opacity="0.3">
          <g id="Grupo_149074" data-name="Grupo 149074">
            <g id="Grupo_149073" data-name="Grupo 149073" clip-path="url(#clip-path-7)">
              <path id="Trazado_213876" data-name="Trazado 213876" d="M160.1,255.967c-6.061,5.567-12.141,10.325-19.6,12.974a22.061,22.061,0,0,0,15.635-5.269,29.271,29.271,0,0,0,9.426-12.665Z" transform="translate(-140.505 -251.008)"/>
            </g>
          </g>
        </g>
        <path id="Trazado_213877" data-name="Trazado 213877" d="M157.4,260.72c-.047-.053,3.723-3.511,8.421-7.724s8.546-7.586,8.593-7.534-3.723,3.511-8.422,7.725-8.545,7.585-8.592,7.532" transform="translate(-39.15 -61.053)" fill="#1a2e35"/>
        <path id="Trazado_213878" data-name="Trazado 213878" d="M173.2,125.72a3.092,3.092,0,1,1-3.092-3.092,3.092,3.092,0,0,1,3.092,3.092" transform="translate(-41.541 -30.501)" fill="#375a64"/>
        <path id="Trazado_213879" data-name="Trazado 213879" d="M190.336,171.376q-1.368-11.339-2.735-22.678l-19.567-5.907a195.187,195.187,0,0,1-6.139,41.741,54.381,54.381,0,0,0,22.453,2.337q.5-5.479,1-10.957l1.467,8.258a8.105,8.105,0,0,0,3.674-5.762,24.023,24.023,0,0,0-.153-7.034" transform="translate(-40.268 -35.516)" fill="#1a2e35"/>
        <path id="Trazado_213880" data-name="Trazado 213880" d="M169.759,168.4s.015-.1.057-.285.11-.473.192-.832c.175-.74.429-1.814.754-3.194.639-2.777,1.587-6.791,2.511-11.8a127.561,127.561,0,0,0,2.13-17.743,76.859,76.859,0,0,0-1.974-21.719,54.5,54.5,0,0,0-9.072-19.741c-.512-.667-1-1.341-1.544-1.951s-1.039-1.252-1.6-1.82l-.813-.863-.829-.823c-.542-.551-1.107-1.061-1.65-1.575-2.2-2.033-4.343-3.819-6.261-5.5s-3.635-3.222-5.053-4.671c-.361-.355-.687-.721-1.013-1.061s-.63-.675-.91-1.007l-.813-.944-.7-.89c-.452-.552-.8-1.086-1.112-1.535s-.561-.844-.751-1.168l-.436-.734c-.1-.166-.141-.255-.141-.255s.059.08.164.241l.458.72c.2.319.442.712.77,1.152s.671.971,1.128,1.517l.7.88.819.934c.282.328.586.663.915,1s.655.7,1.018,1.05c1.424,1.436,3.143,2.971,5.07,4.635s4.078,3.446,6.287,5.478c.545.515,1.114,1.024,1.66,1.575l.835.824.818.865c.563.569,1.069,1.206,1.611,1.825s1.041,1.288,1.556,1.957a54.492,54.492,0,0,1,9.132,19.822,76.539,76.539,0,0,1,1.961,21.79,125.292,125.292,0,0,1-2.188,17.767c-.947,5.01-1.922,9.021-2.591,11.79-.34,1.385-.612,2.457-.8,3.183-.094.356-.166.63-.217.826s-.083.279-.083.279" transform="translate(-35.005 -16.987)" fill="#375a64"/>
      </g>
    </g>
  </g>
</svg>
